<?xml version="1.0" encoding="UTF-8" standalone="no"?>
<svg
   xmlns:dc="http://purl.org/dc/elements/1.1/"
   xmlns:cc="http://creativecommons.org/ns#"
   xmlns:rdf="http://www.w3.org/1999/02/22-rdf-syntax-ns#"
   xmlns:svg="http://www.w3.org/2000/svg"
   xmlns="http://www.w3.org/2000/svg"
   id="svg244"
   width="1001"
   version="1.1"
   height="2138">
  <metadata
     id="metadata250">
    <rdf:RDF>
      <cc:Work
         rdf:about="">
        <dc:format>image/svg+xml</dc:format>
        <dc:type
           rdf:resource="http://purl.org/dc/dcmitype/StillImage" />
        <dc:title></dc:title>
      </cc:Work>
    </rdf:RDF>
  </metadata>
  <defs
     id="defs248" />
  <g
     id="View Layer_LineSet">
    <g
       id="strokes">
      <path
         id="path2"
         stroke-width="3.0"
         stroke-opacity="1.0"
         stroke-linejoin="round"
         stroke-linecap="round"
         stroke="rgb(0, 0, 0)"
         fill="none"
         d=" M 516.038, 526.768 519.254, 536.237 522.469, 545.706 525.684, 555.175 527.033, 559.147 " />
      <path
         id="path4"
         stroke-width="3.0"
         stroke-opacity="1.0"
         stroke-linejoin="round"
         stroke-linecap="round"
         stroke="rgb(0, 0, 0)"
         fill="none"
         d=" M 535.686, 584.632 539.266, 575.295 540.399, 572.340 542.000, 568.164 " />
      <path
         id="path6"
         stroke-width="3.0"
         stroke-opacity="1.0"
         stroke-linejoin="round"
         stroke-linecap="round"
         stroke="rgb(0, 0, 0)"
         fill="none"
         d=" M 567.260, 502.272 558.239, 506.586 554.754, 508.253 545.733, 512.567 536.711, 516.882 527.690, 521.196 518.668, 525.510 516.038, 526.768 " />
      <path
         id="path8"
         stroke-width="3.0"
         stroke-opacity="1.0"
         stroke-linejoin="round"
         stroke-linecap="round"
         stroke="rgb(0, 0, 0)"
         fill="none"
         d=" M 500.500, 535.253 509.277, 530.460 516.038, 526.768 506.108, 527.944 500.500, 528.608 " />
      <path
         id="path10"
         stroke-width="3.0"
         stroke-opacity="1.0"
         stroke-linejoin="round"
         stroke-linecap="round"
         stroke="rgb(0, 0, 0)"
         fill="none"
         d=" M 500.500, 528.608 500.500, 535.253 491.723, 530.460 484.962, 526.768 494.892, 527.944 500.500, 528.608 " />
      <path
         id="path12"
         stroke-width="3.0"
         stroke-opacity="1.0"
         stroke-linejoin="round"
         stroke-linecap="round"
         stroke="rgb(0, 0, 0)"
         fill="none"
         d=" M 420.998, 489.148 421.134, 485.869 421.465, 477.890 421.879, 467.898 422.294, 457.907 422.709, 447.916 423.123, 437.924 423.538, 427.933 423.953, 417.942 424.367, 407.950 424.782, 397.959 425.197, 387.967 425.611, 377.976 426.026, 367.984 426.159, 364.768 " />
      <path
         id="path14"
         stroke-width="3.0"
         stroke-opacity="1.0"
         stroke-linejoin="round"
         stroke-linecap="round"
         stroke="rgb(0, 0, 0)"
         fill="none"
         d=" M 485.705, 360.481 475.731, 361.199 465.757, 361.917 455.782, 362.635 445.808, 363.353 435.834, 364.071 426.159, 364.768 417.232, 369.273 408.979, 373.438 409.717, 383.410 410.455, 393.383 411.193, 403.356 411.932, 413.329 412.670, 423.301 413.408, 433.274 414.146, 443.247 414.884, 453.219 415.623, 463.192 416.361, 473.165 417.099, 483.138 417.837, 493.110 418.109, 496.789 " />
      <path
         id="path16"
         stroke-width="3.0"
         stroke-opacity="1.0"
         stroke-linejoin="round"
         stroke-linecap="round"
         stroke="rgb(0, 0, 0)"
         fill="none"
         d=" M 429.980, 507.856 426.602, 507.773 420.486, 499.862 418.109, 496.789 420.998, 489.148 423.411, 490.896 426.303, 492.990 428.084, 494.281 428.423, 494.526 429.097, 495.014 429.137, 495.043 429.279, 495.146 432.143, 497.220 433.806, 497.721 437.318, 498.780 440.500, 499.740 450.075, 502.627 456.197, 504.473 466.196, 504.582 476.196, 504.691 486.195, 504.800 491.838, 504.862 500.500, 504.957 509.162, 504.862 519.162, 504.753 529.161, 504.644 539.160, 504.534 544.803, 504.473 554.377, 501.586 560.500, 499.740 563.682, 498.780 567.194, 497.721 568.857, 497.220 571.713, 495.152 571.863, 495.043 571.903, 495.014 572.577, 494.526 572.916, 494.281 574.697, 492.990 577.578, 490.904 580.002, 489.148 586.043, 496.789 578.769, 503.650 574.398, 507.773 571.020, 507.856 " />
      <path
         id="path18"
         stroke-width="3.0"
         stroke-opacity="1.0"
         stroke-linejoin="round"
         stroke-linecap="round"
         stroke="rgb(0, 0, 0)"
         fill="none"
         d=" M 484.962, 526.768 481.746, 536.237 478.531, 545.706 475.316, 555.175 473.967, 559.148 " />
      <path
         id="path20"
         stroke-width="3.0"
         stroke-opacity="1.0"
         stroke-linejoin="round"
         stroke-linecap="round"
         stroke="rgb(0, 0, 0)"
         fill="none"
         d=" M 447.699, 568.243 448.603, 569.084 455.924, 575.896 463.245, 582.708 465.314, 584.632 474.968, 587.238 484.623, 589.844 494.277, 592.450 500.500, 594.130 " />
      <path
         id="path22"
         stroke-width="3.0"
         stroke-opacity="1.0"
         stroke-linejoin="round"
         stroke-linecap="round"
         stroke="rgb(0, 0, 0)"
         fill="none"
         d=" M 500.500, 594.130 500.500, 584.130 500.500, 574.130 500.500, 564.130 500.500, 554.130 500.500, 544.130 500.500, 535.253 " />
      <path
         id="path24"
         stroke-width="3.0"
         stroke-opacity="1.0"
         stroke-linejoin="round"
         stroke-linecap="round"
         stroke="rgb(0, 0, 0)"
         fill="none"
         d=" M 491.773, 1997.560 496.118, 1997.547 495.260, 1987.584 494.401, 1977.621 493.542, 1967.658 492.683, 1957.695 491.824, 1947.732 490.965, 1937.768 490.286, 1929.887 490.687, 1919.895 491.088, 1909.903 491.489, 1899.911 491.890, 1889.919 492.291, 1879.927 492.692, 1869.935 493.093, 1859.943 493.494, 1849.951 493.895, 1839.959 494.296, 1829.967 494.697, 1819.975 495.098, 1809.984 495.499, 1799.992 495.900, 1790.000 496.301, 1780.008 496.702, 1770.016 497.103, 1760.024 497.504, 1750.032 497.905, 1740.040 498.306, 1730.048 498.707, 1720.056 499.108, 1710.064 499.509, 1700.072 499.739, 1694.355 499.391, 1684.361 499.043, 1674.367 498.695, 1664.373 498.348, 1654.379 498.000, 1644.385 497.652, 1634.391 497.305, 1624.397 496.957, 1614.403 496.609, 1604.409 496.261, 1594.415 495.914, 1584.421 495.566, 1574.427 495.218, 1564.433 494.871, 1554.439 494.523, 1544.445 494.222, 1535.804 494.511, 1525.808 494.799, 1515.812 495.088, 1505.817 495.376, 1495.821 495.665, 1485.825 495.954, 1475.829 496.242, 1465.833 496.531, 1455.837 496.819, 1445.842 497.108, 1435.846 497.396, 1425.850 497.685, 1415.854 497.973, 1405.858 498.262, 1395.862 498.550, 1385.867 498.839, 1375.871 499.127, 1365.875 499.416, 1355.879 499.705, 1345.883 499.880, 1339.816 499.954, 1329.816 500.029, 1319.817 500.103, 1309.817 500.178, 1299.817 500.252, 1289.818 500.327, 1279.818 500.401, 1269.818 500.476, 1259.818 500.500, 1256.540 500.574, 1266.540 500.649, 1276.539 500.723, 1286.539 500.798, 1296.539 500.872, 1306.539 500.947, 1316.538 501.021, 1326.538 501.096, 1336.538 501.120, 1339.816 501.409, 1349.812 501.697, 1359.808 501.986, 1369.804 502.275, 1379.799 502.563, 1389.795 502.852, 1399.791 503.140, 1409.787 503.429, 1419.783 503.717, 1429.779 504.006, 1439.775 504.294, 1449.770 504.583, 1459.766 504.871, 1469.762 505.160, 1479.758 505.448, 1489.754 505.737, 1499.750 506.026, 1509.745 506.314, 1519.741 506.603, 1529.737 506.778, 1535.804 506.430, 1545.798 506.082, 1555.792 505.735, 1565.786 505.387, 1575.780 505.039, 1585.774 504.691, 1595.768 504.344, 1605.762 503.996, 1615.756 503.648, 1625.750 503.301, 1635.744 502.953, 1645.738 502.605, 1655.732 502.258, 1665.726 501.910, 1675.719 501.562, 1685.713 501.261, 1694.355 501.662, 1704.347 502.063, 1714.339 502.464, 1724.331 502.866, 1734.323 503.267, 1744.314 503.668, 1754.306 504.069, 1764.298 504.470, 1774.290 504.871, 1784.282 505.272, 1794.274 505.673, 1804.266 506.074, 1814.258 506.475, 1824.250 506.876, 1834.242 507.277, 1844.234 507.678, 1854.226 508.079, 1864.218 508.480, 1874.210 508.881, 1884.202 509.282, 1894.194 509.683, 1904.186 510.084, 1914.178 510.485, 1924.170 510.714, 1929.887 509.855, 1939.850 508.997, 1949.813 508.138, 1959.776 507.279, 1969.739 506.420, 1979.702 505.561, 1989.665 504.882, 1997.547 509.227, 1997.560 " />
      <path
         id="path26"
         stroke-width="3.0"
         stroke-opacity="1.0"
         stroke-linejoin="round"
         stroke-linecap="round"
         stroke="rgb(0, 0, 0)"
         fill="none"
         d=" M 556.432, 1894.254 557.221, 1884.286 558.010, 1874.317 558.800, 1864.348 559.589, 1854.379 560.378, 1844.410 561.168, 1834.442 561.957, 1824.473 562.746, 1814.504 563.536, 1804.535 564.325, 1794.566 565.114, 1784.598 565.904, 1774.629 566.693, 1764.660 567.482, 1754.691 568.272, 1744.722 569.061, 1734.754 569.850, 1724.785 570.640, 1714.816 571.429, 1704.847 572.086, 1696.551 572.540, 1686.562 572.995, 1676.572 573.449, 1666.582 573.903, 1656.593 574.358, 1646.603 574.812, 1636.613 575.267, 1626.624 575.721, 1616.634 576.175, 1606.644 576.630, 1596.655 577.084, 1586.665 577.222, 1583.629 577.849, 1573.649 578.477, 1563.669 579.104, 1553.688 579.731, 1543.708 580.358, 1533.728 580.986, 1523.747 581.613, 1513.767 582.240, 1503.787 582.867, 1493.807 583.491, 1483.890 583.963, 1473.901 584.435, 1463.912 584.907, 1453.923 585.379, 1443.935 585.851, 1433.946 586.323, 1423.957 586.796, 1413.968 587.268, 1403.979 587.740, 1393.990 588.212, 1384.002 588.684, 1374.013 589.156, 1364.024 589.629, 1354.035 590.125, 1343.523 590.158, 1333.523 590.190, 1323.523 590.222, 1313.523 590.254, 1303.523 590.286, 1293.523 590.318, 1283.523 590.351, 1273.523 590.383, 1263.523 590.415, 1253.523 590.447, 1243.523 590.479, 1233.524 590.511, 1223.524 590.544, 1213.524 590.569, 1205.788 " />
      <path
         id="path28"
         stroke-width="3.0"
         stroke-opacity="1.0"
         stroke-linejoin="round"
         stroke-linecap="round"
         stroke="rgb(0, 0, 0)"
         fill="none"
         d=" M 590.125, 1343.523 580.134, 1343.107 570.143, 1342.691 560.151, 1342.275 550.160, 1341.859 540.169, 1341.442 530.177, 1341.026 520.186, 1340.610 510.195, 1340.194 501.120, 1339.816 " />
      <path
         id="path30"
         stroke-width="3.0"
         stroke-opacity="1.0"
         stroke-linejoin="round"
         stroke-linecap="round"
         stroke="rgb(0, 0, 0)"
         fill="none"
         d=" M 628.826, 1541.448 621.083, 1547.777 613.340, 1554.106 605.598, 1560.435 597.855, 1566.764 590.113, 1573.092 582.370, 1579.421 577.222, 1583.629 568.949, 1578.012 560.675, 1572.396 552.402, 1566.779 544.128, 1561.162 535.855, 1555.545 527.581, 1549.928 519.308, 1544.311 511.034, 1538.694 506.778, 1535.804 515.060, 1530.200 523.341, 1524.595 531.623, 1518.990 539.905, 1513.386 548.187, 1507.781 556.469, 1502.177 564.750, 1496.572 573.032, 1490.967 581.314, 1485.363 583.491, 1483.890 589.678, 1491.746 595.866, 1499.602 602.053, 1507.458 608.241, 1515.313 614.428, 1523.169 620.616, 1531.025 626.803, 1538.881 628.826, 1541.448 " />
      <path
         id="path32"
         stroke-width="3.0"
         stroke-opacity="1.0"
         stroke-linejoin="round"
         stroke-linecap="round"
         stroke="rgb(0, 0, 0)"
         fill="none"
         d=" M 521.852, 1933.497 521.578, 1934.074 517.287, 1943.106 516.837, 1944.053 515.429, 1953.954 514.021, 1963.854 512.613, 1973.754 511.205, 1983.655 509.797, 1993.555 509.227, 1997.558 509.227, 1997.560 509.227, 1997.560 519.227, 1997.590 529.227, 1997.620 539.227, 1997.649 549.227, 1997.679 559.227, 1997.709 569.227, 1997.739 579.227, 1997.769 589.227, 1997.799 599.227, 1997.829 609.227, 1997.859 618.956, 1997.888 620.822, 1997.893 618.316, 1988.212 615.811, 1978.531 613.306, 1968.850 610.801, 1959.169 608.869, 1951.705 604.452, 1942.733 603.556, 1940.914 596.450, 1933.878 592.786, 1930.250 585.680, 1923.214 578.574, 1916.178 571.468, 1909.142 564.362, 1902.106 557.256, 1895.070 556.432, 1894.254 " />
      <path
         id="path34"
         stroke-width="3.0"
         stroke-opacity="1.0"
         stroke-linejoin="round"
         stroke-linecap="round"
         stroke="rgb(0, 0, 0)"
         fill="none"
         d=" M 567.260, 502.272 569.433, 502.272 " />
      <path
         id="path36"
         stroke-width="3.0"
         stroke-opacity="1.0"
         stroke-linejoin="round"
         stroke-linecap="round"
         stroke="rgb(0, 0, 0)"
         fill="none"
         d=" M 572.658, 502.272 572.656, 502.252 " />
      <path
         id="path38"
         stroke-width="3.0"
         stroke-opacity="1.0"
         stroke-linejoin="round"
         stroke-linecap="round"
         stroke="rgb(0, 0, 0)"
         fill="none"
         d=" M 553.301, 568.243 556.117, 558.647 558.932, 549.052 561.748, 539.457 564.563, 529.861 567.379, 520.266 570.194, 510.670 571.020, 507.856 572.658, 502.272 572.659, 502.244 " />
      <path
         id="path40"
         stroke-width="3.0"
         stroke-opacity="1.0"
         stroke-linejoin="round"
         stroke-linecap="round"
         stroke="rgb(0, 0, 0)"
         fill="none"
         d=" M 345.153, 1190.477 344.707, 1191.990 344.679, 1201.990 344.650, 1211.990 344.622, 1221.990 344.594, 1231.990 344.565, 1241.990 344.537, 1251.990 344.509, 1261.990 344.481, 1271.990 344.452, 1281.990 344.424, 1291.990 344.396, 1301.990 344.367, 1311.990 344.339, 1321.990 344.311, 1331.990 344.282, 1341.990 344.272, 1345.643 345.683, 1355.543 347.094, 1365.443 348.504, 1375.343 349.915, 1385.243 351.326, 1395.143 352.737, 1405.043 354.147, 1414.943 355.558, 1424.843 356.969, 1434.743 358.380, 1444.643 359.790, 1454.543 361.201, 1464.443 362.612, 1474.343 364.023, 1484.243 365.433, 1494.143 366.844, 1504.043 368.255, 1513.943 369.666, 1523.843 371.076, 1533.743 372.174, 1541.448 372.611, 1551.439 373.047, 1561.429 373.484, 1571.420 373.920, 1581.410 374.356, 1591.401 374.793, 1601.391 375.229, 1611.382 375.665, 1621.372 376.102, 1631.363 376.538, 1641.353 376.974, 1651.344 377.411, 1661.334 377.847, 1671.325 378.284, 1681.315 378.720, 1691.306 379.004, 1697.801 380.250, 1707.723 381.497, 1717.645 382.744, 1727.567 383.991, 1737.489 385.238, 1747.411 386.485, 1757.333 387.731, 1767.255 388.978, 1777.177 390.225, 1787.099 391.472, 1797.021 392.719, 1806.943 393.966, 1816.865 395.213, 1826.787 396.459, 1836.709 397.706, 1846.630 398.953, 1856.552 400.200, 1866.474 401.447, 1876.396 402.694, 1886.318 403.940, 1896.240 405.187, 1906.162 406.434, 1916.084 407.681, 1926.006 408.214, 1930.250 " />
      <path
         id="path42"
         stroke-width="3.0"
         stroke-opacity="1.0"
         stroke-linejoin="round"
         stroke-linecap="round"
         stroke="rgb(0, 0, 0)"
         fill="none"
         d=" M 423.778, 1583.629 416.035, 1577.301 408.293, 1570.972 400.550, 1564.643 392.808, 1558.314 385.065, 1551.985 377.323, 1545.657 372.174, 1541.448 378.362, 1533.593 384.550, 1525.737 390.737, 1517.881 396.925, 1510.025 403.112, 1502.169 409.300, 1494.313 415.487, 1486.458 417.509, 1483.890 " />
      <path
         id="path44"
         stroke-width="3.0"
         stroke-opacity="1.0"
         stroke-linejoin="round"
         stroke-linecap="round"
         stroke="rgb(0, 0, 0)"
         fill="none"
         d=" M 444.568, 1894.254 443.779, 1884.286 442.990, 1874.317 442.200, 1864.348 441.411, 1854.379 440.622, 1844.410 439.832, 1834.442 439.043, 1824.473 438.254, 1814.504 437.464, 1804.535 436.675, 1794.566 435.886, 1784.598 435.096, 1774.629 434.307, 1764.660 433.518, 1754.691 432.728, 1744.722 431.939, 1734.754 431.150, 1724.785 430.360, 1714.816 429.571, 1704.847 428.914, 1696.551 428.460, 1686.562 428.005, 1676.572 427.551, 1666.582 427.097, 1656.593 426.642, 1646.603 426.188, 1636.613 425.733, 1626.624 425.279, 1616.634 424.825, 1606.644 424.370, 1596.655 423.916, 1586.665 423.778, 1583.629 423.151, 1573.649 422.523, 1563.669 421.896, 1553.688 421.269, 1543.708 420.642, 1533.728 420.014, 1523.747 419.387, 1513.767 418.760, 1503.787 418.133, 1493.807 417.509, 1483.890 417.037, 1473.901 416.565, 1463.912 416.093, 1453.923 415.621, 1443.935 415.149, 1433.946 414.677, 1423.957 414.204, 1413.968 413.732, 1403.979 413.260, 1393.990 412.788, 1384.002 412.316, 1374.013 411.844, 1364.024 411.371, 1354.035 410.875, 1343.523 410.842, 1333.523 410.810, 1323.523 410.778, 1313.523 410.746, 1303.523 410.714, 1293.523 410.682, 1283.523 410.649, 1273.523 410.617, 1263.523 410.585, 1253.523 410.553, 1243.523 410.521, 1233.524 410.489, 1223.524 410.456, 1213.524 410.432, 1205.839 " />
      <path
         id="path46"
         stroke-width="3.0"
         stroke-opacity="1.0"
         stroke-linejoin="round"
         stroke-linecap="round"
         stroke="rgb(0, 0, 0)"
         fill="none"
         d=" M 410.875, 1343.523 400.880, 1343.841 390.885, 1344.159 380.890, 1344.477 370.895, 1344.796 360.900, 1345.114 350.905, 1345.432 344.272, 1345.643 " />
      <path
         id="path48"
         stroke-width="3.0"
         stroke-opacity="1.0"
         stroke-linejoin="round"
         stroke-linecap="round"
         stroke="rgb(0, 0, 0)"
         fill="none"
         d=" M 500.500, 624.892 500.500, 614.892 500.500, 604.892 500.500, 594.892 500.500, 585.011 " />
      <path
         id="path50"
         stroke-width="3.0"
         stroke-opacity="1.0"
         stroke-linejoin="round"
         stroke-linecap="round"
         stroke="rgb(0, 0, 0)"
         fill="none"
         d=" M 447.699, 568.243 449.295, 578.115 450.892, 587.986 452.488, 597.858 454.085, 607.730 455.202, 614.637 " />
      <path
         id="path52"
         stroke-width="3.0"
         stroke-opacity="1.0"
         stroke-linejoin="round"
         stroke-linecap="round"
         stroke="rgb(0, 0, 0)"
         fill="none"
         d=" M 567.260, 502.272 560.500, 499.740 " />
      <path
         id="path54"
         stroke-width="3.0"
         stroke-opacity="1.0"
         stroke-linejoin="round"
         stroke-linecap="round"
         stroke="rgb(0, 0, 0)"
         fill="none"
         d=" M 433.740, 502.272 440.500, 499.740 " />
      <path
         id="path56"
         stroke-width="3.0"
         stroke-opacity="1.0"
         stroke-linejoin="round"
         stroke-linecap="round"
         stroke="rgb(0, 0, 0)"
         fill="none"
         d=" M 534.782, 573.621 531.557, 564.155 529.578, 558.349 " />
      <path
         id="path58"
         stroke-width="3.0"
         stroke-opacity="1.0"
         stroke-linejoin="round"
         stroke-linecap="round"
         stroke="rgb(0, 0, 0)"
         fill="none"
         d=" M 571.713, 495.152 569.823, 501.101 569.433, 502.272 567.548, 507.941 564.392, 517.430 561.236, 526.919 560.408, 529.409 554.861, 534.616 547.570, 541.460 546.285, 542.667 546.121, 542.820 538.830, 549.664 531.539, 556.509 529.578, 558.349 527.033, 559.147 517.490, 562.137 507.947, 565.126 500.500, 567.459 " />
      <path
         id="path60"
         stroke-width="3.0"
         stroke-opacity="1.0"
         stroke-linejoin="round"
         stroke-linecap="round"
         stroke="rgb(0, 0, 0)"
         fill="none"
         d=" M 429.279, 495.146 431.171, 501.101 431.560, 502.272 433.446, 507.941 436.602, 517.429 439.758, 526.918 440.587, 529.409 446.142, 534.623 453.433, 541.467 454.715, 542.670 454.865, 542.811 462.156, 549.655 469.447, 556.499 471.419, 558.349 473.967, 559.148 483.510, 562.137 493.053, 565.126 500.500, 567.459 500.500, 577.459 500.500, 583.778 490.912, 580.938 481.324, 578.097 471.736, 575.257 468.793, 574.385 466.215, 573.621 459.002, 568.168 451.025, 562.138 450.375, 561.647 449.657, 561.104 447.935, 559.802 444.711, 550.336 441.488, 540.870 438.264, 531.403 435.040, 521.937 431.817, 512.471 430.247, 507.862 428.344, 502.272 428.342, 502.268 428.342, 502.268 428.342, 502.267 428.342, 502.266 427.675, 500.309 426.394, 497.480 423.411, 490.896 " />
      <path
         id="path62"
         stroke-width="3.0"
         stroke-opacity="1.0"
         stroke-linejoin="round"
         stroke-linecap="round"
         stroke="rgb(0, 0, 0)"
         fill="none"
         d=" M 491.838, 504.862 490.435, 509.332 487.440, 518.873 484.962, 526.768 475.940, 522.454 466.919, 518.139 457.897, 513.825 448.876, 509.511 446.246, 508.253 437.224, 503.939 433.740, 502.272 " />
      <path
         id="path64"
         stroke-width="3.0"
         stroke-opacity="1.0"
         stroke-linejoin="round"
         stroke-linecap="round"
         stroke="rgb(0, 0, 0)"
         fill="none"
         d=" M 433.806, 497.721 433.740, 502.272 435.936, 508.001 439.516, 517.339 443.095, 526.676 446.142, 534.623 " />
      <path
         id="path66"
         stroke-width="3.0"
         stroke-opacity="1.0"
         stroke-linejoin="round"
         stroke-linecap="round"
         stroke="rgb(0, 0, 0)"
         fill="none"
         d=" M 579.110, 703.983 588.668, 706.921 598.227, 709.860 607.785, 712.798 617.344, 715.737 626.902, 718.676 636.461, 721.614 646.019, 724.553 655.578, 727.491 665.136, 730.430 674.695, 733.369 684.253, 736.307 693.811, 739.246 703.370, 742.184 712.928, 745.123 722.487, 748.062 732.045, 751.000 741.604, 753.939 751.162, 756.878 760.721, 759.816 770.279, 762.755 776.305, 764.607 782.177, 766.413 784.790, 776.065 787.403, 785.718 790.016, 795.370 792.630, 805.023 794.828, 813.144 785.182, 815.779 775.535, 818.415 765.889, 821.051 756.242, 823.687 746.596, 826.322 742.469, 827.450 " />
      <path
         id="path68"
         stroke-width="3.0"
         stroke-opacity="1.0"
         stroke-linejoin="round"
         stroke-linecap="round"
         stroke="rgb(0, 0, 0)"
         fill="none"
         d=" M 782.177, 766.413 774.805, 762.613 765.916, 758.033 757.027, 753.452 748.138, 748.871 739.249, 744.290 730.360, 739.709 721.471, 735.128 719.473, 734.099 717.737, 733.204 711.396, 729.937 702.681, 725.032 693.966, 720.129 685.252, 715.224 676.537, 710.320 667.822, 705.416 659.107, 700.512 650.392, 695.608 646.208, 693.254 638.886, 689.134 630.171, 684.230 628.343, 683.201 619.628, 678.297 610.913, 673.393 602.198, 668.489 593.483, 663.585 584.768, 658.681 584.034, 658.268 578.124, 650.202 572.214, 642.135 566.303, 634.069 560.393, 626.002 557.146, 621.571 554.911, 621.419 547.074, 620.886 544.756, 620.729 534.779, 620.050 524.802, 619.371 514.825, 618.693 504.848, 618.014 500.500, 617.718 500.485, 617.717 490.508, 617.038 480.531, 616.360 470.554, 615.681 460.577, 615.003 455.202, 614.637 448.957, 614.212 448.814, 614.670 446.393, 622.408 446.051, 623.504 445.304, 625.891 444.082, 629.796 " />
      <path
         id="path70"
         stroke-width="3.0"
         stroke-opacity="1.0"
         stroke-linejoin="round"
         stroke-linecap="round"
         stroke="rgb(0, 0, 0)"
         fill="none"
         d=" M 711.396, 729.937 701.583, 728.011 691.771, 726.086 681.958, 724.161 672.145, 722.236 662.332, 720.310 652.519, 718.385 642.706, 716.460 632.893, 714.535 623.080, 712.609 613.267, 710.684 603.454, 708.759 593.641, 706.834 583.828, 704.908 579.110, 703.983 " />
      <path
         id="path72"
         stroke-width="3.0"
         stroke-opacity="1.0"
         stroke-linejoin="round"
         stroke-linecap="round"
         stroke="rgb(0, 0, 0)"
         fill="none"
         d=" M 560.212, 684.213 566.975, 676.847 573.739, 669.481 580.502, 662.115 584.034, 658.268 582.963, 668.211 581.892, 678.153 580.821, 688.096 579.750, 698.038 579.110, 703.983 " />
      <path
         id="path74"
         stroke-width="3.0"
         stroke-opacity="1.0"
         stroke-linejoin="round"
         stroke-linecap="round"
         stroke="rgb(0, 0, 0)"
         fill="none"
         d=" M 500.501, 594.129 500.502, 594.129 510.156, 591.523 519.811, 588.917 529.465, 586.311 535.686, 584.632 543.007, 577.820 550.329, 571.009 552.318, 569.158 553.301, 568.243 555.285, 578.044 557.270, 587.845 559.254, 597.646 560.688, 604.729 570.356, 607.282 580.025, 609.835 589.693, 612.388 599.362, 614.942 609.031, 617.495 618.699, 620.048 628.368, 622.601 638.036, 625.154 647.705, 627.707 657.374, 630.260 667.042, 632.813 676.711, 635.366 687.499, 638.215 692.686, 646.764 697.874, 655.314 703.061, 663.863 708.249, 672.412 713.632, 681.284 719.643, 689.276 725.654, 697.268 731.665, 705.259 737.676, 713.251 743.687, 721.243 749.698, 729.234 755.709, 737.226 761.720, 745.218 767.732, 753.209 773.743, 761.201 774.805, 762.613 " />
      <path
         id="path76"
         stroke-width="3.0"
         stroke-opacity="1.0"
         stroke-linejoin="round"
         stroke-linecap="round"
         stroke="rgb(0, 0, 0)"
         fill="none"
         d=" M 428.342, 502.272 428.344, 502.272 " />
      <path
         id="path78"
         stroke-width="3.0"
         stroke-opacity="1.0"
         stroke-linejoin="round"
         stroke-linecap="round"
         stroke="rgb(0, 0, 0)"
         fill="none"
         d=" M 260.708, 834.870 268.389, 828.466 276.069, 822.063 283.750, 815.659 291.431, 809.256 299.112, 802.853 306.793, 796.449 314.474, 790.046 322.155, 783.642 329.836, 777.239 338.095, 770.353 339.563, 780.245 341.031, 790.137 342.499, 800.028 343.967, 809.920 345.434, 819.812 346.902, 829.703 348.370, 839.595 349.838, 849.487 351.306, 859.378 352.774, 869.270 354.242, 879.162 355.710, 889.053 357.177, 898.945 358.645, 908.837 360.113, 918.729 361.581, 928.620 363.049, 938.512 364.517, 948.404 365.985, 958.295 367.453, 968.187 368.920, 978.079 370.388, 987.970 371.856, 997.862 373.517, 1009.052 371.642, 1018.874 369.767, 1028.697 367.892, 1038.520 366.017, 1048.342 364.142, 1058.165 362.268, 1067.988 360.393, 1077.810 358.518, 1087.633 356.643, 1097.456 354.768, 1107.278 352.893, 1117.101 351.018, 1126.924 349.143, 1136.747 347.269, 1146.569 345.394, 1156.392 343.519, 1166.215 341.644, 1176.037 339.769, 1185.860 339.175, 1188.974 " />
      <path
         id="path80"
         stroke-width="3.0"
         stroke-opacity="1.0"
         stroke-linejoin="round"
         stroke-linecap="round"
         stroke="rgb(0, 0, 0)"
         fill="none"
         d=" M 553.301, 568.243 551.694, 578.113 550.087, 587.983 548.480, 597.853 546.874, 607.723 545.267, 617.593 544.756, 620.729 " />
      <path
         id="path82"
         stroke-width="3.0"
         stroke-opacity="1.0"
         stroke-linejoin="round"
         stroke-linecap="round"
         stroke="rgb(0, 0, 0)"
         fill="none"
         d=" M 390.872, 803.529 400.839, 802.712 410.805, 801.895 420.772, 801.078 430.739, 800.260 440.705, 799.443 450.672, 798.626 460.638, 797.809 470.605, 796.992 480.571, 796.175 490.538, 795.358 500.500, 794.542 " />
      <path
         id="path84"
         stroke-width="3.0"
         stroke-opacity="1.0"
         stroke-linejoin="round"
         stroke-linecap="round"
         stroke="rgb(0, 0, 0)"
         fill="none"
         d=" M 428.342, 502.266 428.342, 502.272 429.980, 507.856 432.796, 517.451 435.611, 527.047 438.427, 536.642 441.242, 546.238 444.058, 555.833 446.873, 565.429 447.699, 568.243 445.664, 578.034 443.630, 587.825 441.595, 597.615 440.187, 604.394 430.519, 606.949 420.851, 609.504 411.183, 612.059 401.515, 614.615 391.847, 617.170 382.179, 619.725 372.511, 622.281 362.843, 624.836 353.175, 627.391 343.507, 629.947 333.839, 632.502 324.171, 635.057 313.541, 637.867 308.551, 646.533 303.562, 655.199 298.573, 663.866 293.583, 672.532 288.594, 681.198 288.115, 682.029 282.491, 690.298 276.868, 698.567 271.244, 706.836 265.620, 715.104 259.996, 723.373 254.372, 731.642 248.748, 739.911 243.124, 748.180 237.501, 756.448 231.877, 764.717 228.455, 769.748 " />
      <path
         id="path86"
         stroke-width="3.0"
         stroke-opacity="1.0"
         stroke-linejoin="round"
         stroke-linecap="round"
         stroke="rgb(0, 0, 0)"
         fill="none"
         d=" M 444.310, 635.850 444.439, 639.264 444.815, 649.256 444.917, 651.958 445.091, 656.571 445.115, 657.214 445.492, 667.207 445.868, 677.200 446.245, 687.193 446.346, 689.878 446.443, 692.444 453.187, 694.089 462.902, 696.458 472.733, 698.856 482.448, 701.225 492.163, 703.595 500.416, 705.607 500.500, 705.628 510.215, 707.997 519.930, 710.367 523.798, 711.310 532.524, 713.438 542.325, 711.449 543.647, 711.180 543.837, 711.142 546.064, 710.690 555.864, 708.701 565.664, 706.712 575.464, 704.722 579.110, 703.983 587.603, 709.261 596.096, 714.540 604.589, 719.819 613.082, 725.098 615.264, 726.454 623.757, 731.733 632.250, 737.012 640.101, 741.891 648.594, 747.170 651.253, 748.823 659.746, 754.102 668.239, 759.381 673.551, 762.682 673.652, 762.745 682.145, 768.024 690.639, 773.303 699.132, 778.582 701.320, 779.942 707.867, 787.501 714.414, 795.059 720.961, 802.618 727.508, 810.177 734.055, 817.736 740.603, 825.294 742.469, 827.450 734.419, 821.518 726.368, 815.586 718.317, 809.655 710.266, 803.723 702.215, 797.792 694.164, 791.860 686.114, 785.928 678.063, 779.997 670.012, 774.065 663.020, 768.914 661.556, 778.806 660.092, 788.698 658.628, 798.590 657.164, 808.483 655.700, 818.375 654.235, 828.267 652.771, 838.159 651.307, 848.052 649.843, 857.944 648.379, 867.836 646.915, 877.728 645.451, 887.621 643.986, 897.513 642.522, 907.405 641.058, 917.297 639.594, 927.190 638.130, 937.082 636.666, 946.974 635.201, 956.866 633.737, 966.758 632.273, 976.651 630.809, 986.543 629.345, 996.435 627.881, 1006.327 627.491, 1008.959 629.366, 1018.782 631.240, 1028.605 633.115, 1038.428 634.990, 1048.250 636.864, 1058.073 638.739, 1067.896 640.614, 1077.719 642.488, 1087.541 644.363, 1097.364 646.237, 1107.187 648.112, 1117.009 649.987, 1126.832 651.861, 1136.655 653.736, 1146.478 655.610, 1156.300 657.485, 1166.123 659.360, 1175.946 661.234, 1185.768 661.834, 1188.909 " />
      <path
         id="path88"
         stroke-width="3.0"
         stroke-opacity="1.0"
         stroke-linejoin="round"
         stroke-linecap="round"
         stroke="rgb(0, 0, 0)"
         fill="none"
         d=" M 701.320, 779.942 711.182, 778.292 721.045, 776.641 730.908, 774.991 740.771, 773.341 750.634, 771.690 760.497, 770.040 770.360, 768.390 778.167, 767.083 782.177, 766.413 776.724, 774.795 771.271, 783.177 765.818, 791.560 760.365, 799.942 754.912, 808.324 749.458, 816.707 744.005, 825.089 742.469, 827.450 " />
      <path
         id="path90"
         stroke-width="3.0"
         stroke-opacity="1.0"
         stroke-linejoin="round"
         stroke-linecap="round"
         stroke="rgb(0, 0, 0)"
         fill="none"
         d=" M 446.051, 623.504 438.743, 630.330 431.436, 637.157 424.129, 643.984 416.822, 650.810 414.526, 652.955 406.070, 658.293 405.907, 658.396 397.452, 663.734 388.996, 669.073 380.540, 674.411 372.084, 679.749 369.396, 681.446 360.940, 686.785 356.277, 689.729 354.313, 690.968 345.857, 696.307 337.401, 701.645 328.945, 706.983 320.489, 712.322 312.033, 717.660 303.577, 722.998 295.122, 728.337 286.641, 733.690 283.135, 735.863 283.063, 735.907 275.186, 740.789 266.686, 746.056 258.186, 751.324 249.686, 756.592 241.186, 761.859 232.685, 767.127 228.455, 769.748 219.955, 775.016 218.725, 775.778 216.166, 785.445 213.606, 795.112 211.047, 804.779 208.488, 814.446 207.511, 818.135 217.050, 821.136 226.590, 824.137 236.129, 827.138 245.668, 830.138 255.207, 833.139 260.708, 834.870 266.890, 827.010 273.072, 819.149 279.254, 811.289 285.436, 803.429 291.619, 795.569 297.801, 787.709 301.396, 783.138 309.214, 776.903 317.033, 770.668 324.851, 764.434 326.516, 763.106 327.744, 762.127 335.562, 755.892 343.380, 749.657 351.199, 743.422 356.623, 739.096 359.970, 736.427 367.789, 730.192 375.607, 723.957 383.425, 717.722 385.465, 716.095 393.284, 709.861 401.102, 703.626 408.377, 697.824 417.112, 702.693 425.847, 707.561 434.581, 712.430 443.316, 717.299 450.109, 721.086 460.088, 721.745 470.066, 722.405 480.044, 723.064 481.098, 723.134 491.076, 723.793 500.401, 724.409 500.500, 724.416 510.478, 725.075 518.842, 725.628 528.821, 726.287 538.799, 726.947 542.448, 727.188 544.670, 717.438 545.980, 711.691 546.064, 710.690 " />
      <path
         id="path92"
         stroke-width="3.0"
         stroke-opacity="1.0"
         stroke-linejoin="round"
         stroke-linecap="round"
         stroke="rgb(0, 0, 0)"
         fill="none"
         d=" M 218.725, 775.778 226.538, 772.566 235.787, 768.765 245.037, 764.963 254.286, 761.161 263.535, 757.359 272.784, 753.557 282.033, 749.756 291.282, 745.954 300.531, 742.152 309.781, 738.351 319.030, 734.549 328.279, 730.747 337.528, 726.945 346.777, 723.144 356.026, 719.342 365.276, 715.540 374.525, 711.738 383.774, 707.937 393.023, 704.135 402.272, 700.333 408.377, 697.824 417.803, 694.483 427.228, 691.143 436.734, 687.774 446.346, 689.878 " />
      <path
         id="path94"
         stroke-width="3.0"
         stroke-opacity="1.0"
         stroke-linejoin="round"
         stroke-linecap="round"
         stroke="rgb(0, 0, 0)"
         fill="none"
         d=" M 408.377, 697.824 409.735, 687.916 411.093, 678.009 412.450, 668.102 413.808, 658.194 414.526, 652.955 419.904, 661.386 425.281, 669.817 430.658, 678.248 436.036, 686.679 436.734, 687.774 " />
      <path
         id="path96"
         stroke-width="3.0"
         stroke-opacity="1.0"
         stroke-linejoin="round"
         stroke-linecap="round"
         stroke="rgb(0, 0, 0)"
         fill="none"
         d=" M 338.095, 770.353 343.194, 761.751 348.293, 753.149 353.392, 744.547 356.623, 739.096 " />
      <path
         id="path98"
         stroke-width="3.0"
         stroke-opacity="1.0"
         stroke-linejoin="round"
         stroke-linecap="round"
         stroke="rgb(0, 0, 0)"
         fill="none"
         d=" M 464.287, 1255.420 459.102, 1263.971 453.918, 1272.523 448.734, 1281.074 443.550, 1289.625 438.366, 1298.176 433.182, 1306.728 427.997, 1315.279 422.813, 1323.830 417.629, 1332.382 412.445, 1340.933 410.875, 1343.523 420.866, 1343.107 430.857, 1342.691 440.849, 1342.275 450.840, 1341.859 460.831, 1341.442 470.823, 1341.026 480.814, 1340.610 490.805, 1340.194 499.880, 1339.816 " />
      <path
         id="path100"
         stroke-width="3.0"
         stroke-opacity="1.0"
         stroke-linejoin="round"
         stroke-linecap="round"
         stroke="rgb(0, 0, 0)"
         fill="none"
         d=" M 590.191, 1205.805 582.860, 1212.607 575.529, 1219.408 568.198, 1226.209 560.867, 1233.011 553.536, 1239.812 546.206, 1246.614 538.875, 1253.415 536.713, 1255.420 526.718, 1255.729 516.723, 1256.038 506.728, 1256.347 500.500, 1256.540 490.505, 1256.231 480.510, 1255.922 470.514, 1255.613 464.287, 1255.420 456.956, 1248.619 449.625, 1241.817 442.294, 1235.016 434.963, 1228.215 427.632, 1221.413 420.302, 1214.612 412.971, 1207.810 410.867, 1205.859 " />
      <path
         id="path102"
         stroke-width="3.0"
         stroke-opacity="1.0"
         stroke-linejoin="round"
         stroke-linecap="round"
         stroke="rgb(0, 0, 0)"
         fill="none"
         d=" M 500.501, 583.778 500.502, 583.778 510.090, 580.937 519.678, 578.096 529.266, 575.255 532.206, 574.384 534.782, 573.621 542.000, 568.164 549.976, 562.133 550.561, 561.691 551.342, 561.101 553.060, 559.802 556.284, 550.336 559.507, 540.869 562.730, 531.403 565.954, 521.937 569.177, 512.470 570.746, 507.863 572.649, 502.272 572.656, 502.253 572.656, 502.252 572.658, 502.247 572.659, 502.244 573.318, 500.309 574.607, 497.464 577.578, 490.904 " />
      <path
         id="path104"
         stroke-width="3.0"
         stroke-opacity="1.0"
         stroke-linejoin="round"
         stroke-linecap="round"
         stroke="rgb(0, 0, 0)"
         fill="none"
         d=" M 569.823, 501.101 572.464, 500.503 572.639, 500.463 572.717, 500.445 573.318, 500.309 572.675, 501.759 572.653, 501.807 572.616, 501.891 569.958, 507.882 565.903, 517.023 561.848, 526.163 560.408, 529.409 558.058, 539.129 555.708, 548.849 553.358, 558.569 553.060, 559.802 " />
      <path
         id="path106"
         stroke-width="3.0"
         stroke-opacity="1.0"
         stroke-linejoin="round"
         stroke-linecap="round"
         stroke="rgb(0, 0, 0)"
         fill="none"
         d=" M 687.499, 638.215 679.539, 644.268 671.579, 650.322 663.620, 656.375 655.660, 662.428 647.700, 668.481 639.740, 674.534 631.780, 680.587 628.343, 683.201 " />
      <path
         id="path108"
         stroke-width="3.0"
         stroke-opacity="1.0"
         stroke-linejoin="round"
         stroke-linecap="round"
         stroke="rgb(0, 0, 0)"
         fill="none"
         d=" M 557.146, 621.571 557.635, 631.559 558.124, 641.547 558.613, 651.536 559.101, 661.524 559.590, 671.512 560.079, 681.500 560.212, 684.213 " />
      <path
         id="path110"
         stroke-width="3.0"
         stroke-opacity="1.0"
         stroke-linejoin="round"
         stroke-linecap="round"
         stroke="rgb(0, 0, 0)"
         fill="none"
         d=" M 579.110, 703.983 572.200, 696.754 565.290, 689.525 560.212, 684.213 550.254, 683.293 548.368, 683.118 538.411, 682.198 528.453, 681.278 518.496, 680.357 508.538, 679.437 498.581, 678.517 488.623, 677.597 478.665, 676.676 468.708, 675.756 458.750, 674.836 451.719, 674.186 " />
      <path
         id="path112"
         stroke-width="3.0"
         stroke-opacity="1.0"
         stroke-linejoin="round"
         stroke-linecap="round"
         stroke="rgb(0, 0, 0)"
         fill="none"
         d=" M 560.212, 684.213 553.334, 691.472 547.122, 698.030 540.244, 705.289 533.367, 712.549 532.524, 713.438 " />
      <path
         id="path114"
         stroke-width="3.0"
         stroke-opacity="1.0"
         stroke-linejoin="round"
         stroke-linecap="round"
         stroke="rgb(0, 0, 0)"
         fill="none"
         d=" M 586.043, 496.789 586.527, 486.800 587.011, 476.812 587.495, 466.824 587.979, 456.835 588.463, 446.847 588.948, 436.859 589.432, 426.871 589.916, 416.882 590.400, 406.894 590.884, 396.906 591.368, 386.917 591.852, 376.929 592.021, 373.438 583.094, 368.932 574.841, 364.768 564.866, 364.050 554.892, 363.332 544.918, 362.614 534.944, 361.896 524.970, 361.178 515.295, 360.481 " />
      <path
         id="path116"
         stroke-width="3.0"
         stroke-opacity="1.0"
         stroke-linejoin="round"
         stroke-linecap="round"
         stroke="rgb(0, 0, 0)"
         fill="none"
         d=" M 574.398, 507.773 574.600, 497.775 574.607, 497.464 " />
      <path
         id="path118"
         stroke-width="3.0"
         stroke-opacity="1.0"
         stroke-linejoin="round"
         stroke-linecap="round"
         stroke="rgb(0, 0, 0)"
         fill="none"
         d=" M 444.568, 1894.254 437.462, 1901.290 430.356, 1908.326 423.250, 1915.362 416.144, 1922.398 409.038, 1929.434 408.214, 1930.250 401.108, 1937.286 397.444, 1940.914 393.027, 1949.885 392.131, 1951.705 389.626, 1961.386 387.120, 1971.067 384.615, 1980.748 382.110, 1990.429 380.178, 1997.893 382.044, 1997.888 392.044, 1997.858 402.044, 1997.828 412.044, 1997.798 422.044, 1997.768 432.044, 1997.738 442.044, 1997.708 452.044, 1997.678 462.044, 1997.649 472.044, 1997.619 482.044, 1997.589 491.773, 1997.560 491.773, 1997.560 491.773, 1997.558 490.365, 1987.657 488.956, 1977.757 487.548, 1967.857 486.140, 1957.956 484.732, 1948.056 484.163, 1944.053 479.872, 1935.021 479.422, 1934.074 479.148, 1933.497 " />
      <path
         id="path120"
         stroke-width="3.0"
         stroke-opacity="1.0"
         stroke-linejoin="round"
         stroke-linecap="round"
         stroke="rgb(0, 0, 0)"
         fill="none"
         d=" M 446.443, 692.444 449.219, 682.837 451.719, 674.186 451.259, 664.197 450.799, 654.207 450.339, 644.218 449.879, 634.228 449.419, 624.239 449.360, 622.962 448.957, 614.212 " />
      <path
         id="path122"
         stroke-width="3.0"
         stroke-opacity="1.0"
         stroke-linejoin="round"
         stroke-linecap="round"
         stroke="rgb(0, 0, 0)"
         fill="none"
         d=" M 450.109, 721.086 446.383, 711.806 442.657, 702.526 438.931, 693.246 436.734, 687.774 438.303, 677.897 439.871, 668.021 441.440, 658.145 443.009, 648.269 444.439, 639.264 " />
      <path
         id="path124"
         stroke-width="3.0"
         stroke-opacity="1.0"
         stroke-linejoin="round"
         stroke-linecap="round"
         stroke="rgb(0, 0, 0)"
         fill="none"
         d=" M 390.872, 803.529 392.296, 813.427 393.719, 823.325 395.142, 833.223 396.565, 843.121 397.988, 853.020 399.412, 862.918 400.835, 872.816 402.258, 882.714 403.681, 892.612 405.105, 902.511 406.528, 912.409 407.951, 922.307 409.374, 932.205 410.798, 942.103 412.221, 952.002 413.644, 961.900 415.067, 971.798 416.491, 981.696 417.914, 991.594 419.337, 1001.493 420.681, 1010.841 419.898, 1020.811 419.115, 1030.780 418.332, 1040.749 417.548, 1050.719 416.765, 1060.688 415.982, 1070.657 415.775, 1073.286 414.992, 1083.256 414.208, 1093.225 413.425, 1103.194 412.642, 1113.163 411.859, 1123.133 411.075, 1133.102 410.292, 1143.071 409.509, 1153.041 408.871, 1161.151 408.088, 1171.120 407.305, 1181.089 406.522, 1191.059 405.738, 1201.028 405.378, 1205.615 " />
      <path
         id="path126"
         stroke-width="3.0"
         stroke-opacity="1.0"
         stroke-linejoin="round"
         stroke-linecap="round"
         stroke="rgb(0, 0, 0)"
         fill="none"
         d=" M 339.175, 1188.974 345.153, 1190.477 346.926, 1190.922 356.625, 1193.360 366.323, 1195.798 376.021, 1198.236 379.656, 1199.150 389.354, 1201.587 399.053, 1204.025 405.378, 1205.615 410.432, 1205.839 410.867, 1205.859 416.649, 1206.115 426.639, 1206.558 436.629, 1207.001 446.619, 1207.444 456.609, 1207.887 466.600, 1208.330 476.590, 1208.773 486.580, 1209.216 496.570, 1209.659 500.500, 1209.833 " />
      <path
         id="path128"
         stroke-width="3.0"
         stroke-opacity="1.0"
         stroke-linejoin="round"
         stroke-linecap="round"
         stroke="rgb(0, 0, 0)"
         fill="none"
         d=" M 661.834, 1188.909 655.825, 1190.404 653.960, 1190.868 644.256, 1193.282 634.552, 1195.696 624.848, 1198.111 617.534, 1199.930 607.830, 1202.344 598.126, 1204.758 594.738, 1205.601 590.569, 1205.788 590.191, 1205.805 584.363, 1206.067 574.373, 1206.515 564.383, 1206.964 554.393, 1207.412 544.403, 1207.861 534.413, 1208.310 524.423, 1208.758 514.433, 1209.206 504.443, 1209.655 500.500, 1209.832 500.500, 1209.831 500.500, 1199.831 500.500, 1189.831 500.500, 1179.831 500.500, 1169.831 500.500, 1162.750 500.500, 1152.750 500.500, 1142.750 500.500, 1132.750 500.500, 1122.750 500.500, 1112.750 500.500, 1102.750 500.500, 1092.750 500.500, 1082.750 500.500, 1072.750 500.500, 1062.750 500.500, 1052.750 500.500, 1042.750 500.500, 1032.750 500.500, 1022.750 500.500, 1012.750 500.500, 1009.776 " />
      <path
         id="path130"
         stroke-width="3.0"
         stroke-opacity="1.0"
         stroke-linejoin="round"
         stroke-linecap="round"
         stroke="rgb(0, 0, 0)"
         fill="none"
         d=" M 500.500, 1009.776 493.452, 1009.870 483.453, 1010.004 473.454, 1010.137 463.455, 1010.271 453.456, 1010.404 443.457, 1010.537 433.458, 1010.671 423.459, 1010.804 420.681, 1010.841 410.689, 1010.462 400.696, 1010.083 390.703, 1009.704 380.710, 1009.325 373.517, 1009.052 " />
      <path
         id="path132"
         stroke-width="3.0"
         stroke-opacity="1.0"
         stroke-linejoin="round"
         stroke-linecap="round"
         stroke="rgb(0, 0, 0)"
         fill="none"
         d=" M 610.128, 803.529 618.495, 798.053 626.863, 792.577 635.230, 787.101 643.597, 781.625 651.965, 776.149 660.332, 770.673 663.020, 768.914 657.966, 760.285 652.912, 751.656 651.253, 748.823 " />
      <path
         id="path134"
         stroke-width="3.0"
         stroke-opacity="1.0"
         stroke-linejoin="round"
         stroke-linecap="round"
         stroke="rgb(0, 0, 0)"
         fill="none"
         d=" M 603.556, 1940.914 593.597, 1940.010 583.638, 1939.106 573.679, 1938.202 563.720, 1937.298 553.760, 1936.394 543.801, 1935.490 533.842, 1934.586 523.883, 1933.682 521.852, 1933.497 512.339, 1930.414 510.714, 1929.887 518.602, 1923.740 526.489, 1917.592 534.376, 1911.445 542.263, 1905.297 550.151, 1899.150 556.432, 1894.254 549.821, 1901.757 543.209, 1909.260 536.598, 1916.763 529.987, 1924.265 523.375, 1931.768 521.852, 1933.497 " />
      <path
         id="path136"
         stroke-width="3.0"
         stroke-opacity="1.0"
         stroke-linejoin="round"
         stroke-linecap="round"
         stroke="rgb(0, 0, 0)"
         fill="none"
         d=" M 610.128, 803.529 608.704, 813.427 607.281, 823.325 605.858, 833.223 604.435, 843.121 603.012, 853.020 601.588, 862.918 600.165, 872.816 598.742, 882.714 597.319, 892.612 595.895, 902.511 594.472, 912.409 593.049, 922.307 591.626, 932.205 590.202, 942.103 588.779, 952.002 587.356, 961.900 585.933, 971.798 584.509, 981.696 583.086, 991.594 581.663, 1001.493 580.319, 1010.841 581.057, 1020.814 581.795, 1030.787 582.534, 1040.760 583.272, 1050.732 584.010, 1060.705 584.749, 1070.678 584.924, 1073.040 585.662, 1083.013 586.400, 1092.986 587.139, 1102.958 587.877, 1112.931 588.616, 1122.904 589.354, 1132.877 590.092, 1142.849 590.831, 1152.822 591.435, 1160.988 592.174, 1170.961 592.912, 1180.933 593.650, 1190.906 594.389, 1200.879 594.738, 1205.601 " />
      <path
         id="path138"
         stroke-width="3.0"
         stroke-opacity="1.0"
         stroke-linejoin="round"
         stroke-linecap="round"
         stroke="rgb(0, 0, 0)"
         fill="none"
         d=" M 615.264, 726.454 614.599, 736.432 613.934, 746.410 613.269, 756.388 612.604, 766.365 611.939, 776.343 611.274, 786.321 610.609, 796.299 610.128, 803.529 600.161, 802.712 590.195, 801.895 580.228, 801.078 570.261, 800.260 560.295, 799.443 550.328, 798.626 540.362, 797.809 530.395, 796.992 520.429, 796.175 510.462, 795.358 500.500, 794.542 500.500, 804.542 500.500, 814.542 500.500, 824.542 500.500, 834.542 500.500, 844.542 500.500, 854.542 500.500, 864.542 500.500, 874.542 500.500, 884.542 500.500, 894.542 500.500, 904.542 500.500, 914.542 500.500, 924.542 500.500, 934.542 500.500, 944.542 500.500, 954.542 500.500, 964.542 500.500, 974.542 500.500, 984.542 500.500, 994.542 500.500, 1004.542 500.500, 1009.776 507.548, 1009.870 517.547, 1010.004 527.546, 1010.137 537.545, 1010.271 547.544, 1010.404 557.543, 1010.537 567.542, 1010.671 577.541, 1010.804 580.319, 1010.841 590.311, 1010.443 600.303, 1010.044 610.295, 1009.646 620.287, 1009.247 627.491, 1008.959 " />
      <path
         id="path140"
         stroke-width="3.0"
         stroke-opacity="1.0"
         stroke-linejoin="round"
         stroke-linecap="round"
         stroke="rgb(0, 0, 0)"
         fill="none"
         d=" M 620.822, 1997.893 610.822, 1997.863 600.822, 1997.833 590.822, 1997.804 580.822, 1997.774 570.822, 1997.744 560.822, 1997.714 550.822, 1997.684 540.822, 1997.654 530.822, 1997.624 520.822, 1997.594 515.365, 1997.578 " />
      <path
         id="path142"
         stroke-width="3.0"
         stroke-opacity="1.0"
         stroke-linejoin="round"
         stroke-linecap="round"
         stroke="rgb(0, 0, 0)"
         fill="none"
         d=" M 608.869, 1951.705 598.904, 1950.876 588.938, 1950.048 578.972, 1949.219 569.007, 1948.391 559.041, 1947.562 549.076, 1946.733 539.110, 1945.905 529.144, 1945.076 519.724, 1944.293 516.837, 1944.053 516.562, 1954.049 516.361, 1961.358 516.086, 1971.354 515.812, 1981.350 515.537, 1991.346 515.365, 1997.578 509.227, 1997.560 " />
      <path
         id="path144"
         stroke-width="3.0"
         stroke-opacity="1.0"
         stroke-linejoin="round"
         stroke-linecap="round"
         stroke="rgb(0, 0, 0)"
         fill="none"
         d=" M 338.095, 770.353 346.561, 775.675 355.028, 780.997 363.494, 786.319 371.960, 791.641 380.426, 796.963 388.893, 802.284 390.872, 803.529 390.255, 793.548 389.638, 783.567 389.021, 773.586 388.403, 763.605 387.786, 753.624 387.169, 743.643 386.552, 733.662 385.934, 723.681 385.465, 716.095 " />
      <path
         id="path146"
         stroke-width="3.0"
         stroke-opacity="1.0"
         stroke-linejoin="round"
         stroke-linecap="round"
         stroke="rgb(0, 0, 0)"
         fill="none"
         d=" M 592.786, 1930.250 594.033, 1920.328 595.279, 1910.406 596.526, 1900.484 597.773, 1890.562 599.020, 1880.640 600.267, 1870.718 601.514, 1860.796 602.760, 1850.874 604.007, 1840.952 605.254, 1831.030 606.501, 1821.108 607.748, 1811.186 608.995, 1801.264 610.242, 1791.342 611.488, 1781.420 612.735, 1771.499 613.982, 1761.577 615.229, 1751.655 616.476, 1741.733 617.723, 1731.811 618.969, 1721.889 620.216, 1711.967 621.463, 1702.045 621.996, 1697.801 622.433, 1687.811 622.869, 1677.820 623.305, 1667.830 623.742, 1657.839 624.178, 1647.849 624.615, 1637.858 625.051, 1627.868 625.487, 1617.877 625.924, 1607.887 626.360, 1597.896 626.796, 1587.906 627.233, 1577.915 627.669, 1567.925 628.105, 1557.934 628.542, 1547.944 628.826, 1541.448 630.236, 1531.549 631.647, 1521.648 633.058, 1511.749 634.469, 1501.849 635.879, 1491.949 637.290, 1482.049 638.701, 1472.149 640.112, 1462.249 641.522, 1452.349 642.933, 1442.449 644.344, 1432.549 645.755, 1422.649 647.165, 1412.749 648.576, 1402.849 649.987, 1392.949 651.398, 1383.049 652.808, 1373.149 654.219, 1363.249 655.630, 1353.349 656.728, 1345.643 656.700, 1335.643 656.671, 1325.643 656.643, 1315.643 656.615, 1305.643 656.586, 1295.643 656.558, 1285.643 656.530, 1275.643 656.501, 1265.643 656.473, 1255.643 656.445, 1245.643 656.417, 1235.643 656.388, 1225.643 656.360, 1215.644 656.332, 1205.644 656.303, 1195.644 656.293, 1191.990 655.825, 1190.404 " />
      <path
         id="path148"
         stroke-width="3.0"
         stroke-opacity="1.0"
         stroke-linejoin="round"
         stroke-linecap="round"
         stroke="rgb(0, 0, 0)"
         fill="none"
         d=" M 260.708, 834.870 254.916, 826.718 249.124, 818.565 243.332, 810.413 237.541, 802.261 231.749, 794.109 225.957, 785.957 220.165, 777.805 218.725, 775.778 224.033, 776.250 233.993, 777.137 243.954, 778.024 253.914, 778.911 263.875, 779.798 273.836, 780.684 283.796, 781.571 293.757, 782.458 301.396, 783.138 " />
      <path
         id="path150"
         stroke-width="3.0"
         stroke-opacity="1.0"
         stroke-linejoin="round"
         stroke-linecap="round"
         stroke="rgb(0, 0, 0)"
         fill="none"
         d=" M 405.907, 658.396 411.267, 649.953 416.626, 641.510 421.985, 633.068 427.344, 624.625 432.703, 616.182 438.063, 607.740 440.187, 604.394 446.617, 612.052 448.814, 614.670 " />
      <path
         id="path152"
         stroke-width="3.0"
         stroke-opacity="1.0"
         stroke-linejoin="round"
         stroke-linecap="round"
         stroke="rgb(0, 0, 0)"
         fill="none"
         d=" M 479.148, 1933.497 472.537, 1925.994 465.926, 1918.492 459.314, 1910.989 452.703, 1903.486 446.092, 1895.983 444.568, 1894.254 452.455, 1900.402 460.343, 1906.549 468.230, 1912.697 476.117, 1918.844 484.005, 1924.991 490.286, 1929.887 " />
      <path
         id="path154"
         stroke-width="3.0"
         stroke-opacity="1.0"
         stroke-linejoin="round"
         stroke-linecap="round"
         stroke="rgb(0, 0, 0)"
         fill="none"
         d=" M 397.444, 1940.914 407.403, 1940.010 417.362, 1939.106 427.321, 1938.202 437.280, 1937.298 447.240, 1936.394 457.199, 1935.490 467.158, 1934.586 477.117, 1933.682 479.148, 1933.497 488.661, 1930.414 490.286, 1929.887 " />
      <path
         id="path156"
         stroke-width="3.0"
         stroke-opacity="1.0"
         stroke-linejoin="round"
         stroke-linecap="round"
         stroke="rgb(0, 0, 0)"
         fill="none"
         d=" M 500.500, 472.425 500.500, 462.425 500.500, 452.425 500.500, 442.425 500.500, 432.425 500.500, 422.425 500.500, 412.425 500.500, 402.425 500.500, 392.425 500.500, 387.345 500.500, 377.345 500.500, 367.345 500.500, 360.481 " />
      <path
         id="path158"
         stroke-width="3.0"
         stroke-opacity="1.0"
         stroke-linejoin="round"
         stroke-linecap="round"
         stroke="rgb(0, 0, 0)"
         fill="none"
         d=" M 426.159, 364.768 426.558, 374.760 426.957, 384.752 427.356, 394.744 427.595, 400.720 427.994, 410.713 428.392, 420.705 428.791, 430.697 429.190, 440.689 429.589, 450.681 429.988, 460.673 430.300, 468.500 430.699, 478.492 430.768, 480.219 430.946, 484.668 " />
      <path
         id="path160"
         stroke-width="3.0"
         stroke-opacity="1.0"
         stroke-linejoin="round"
         stroke-linecap="round"
         stroke="rgb(0, 0, 0)"
         fill="none"
         d=" M 430.946, 484.668 440.794, 482.935 450.643, 481.201 460.492, 479.467 470.340, 477.734 480.189, 476.000 490.037, 474.266 500.500, 472.425 510.349, 474.158 520.197, 475.892 530.046, 477.625 539.894, 479.359 549.743, 481.093 559.591, 482.826 570.054, 484.668 " />
      <path
         id="path162"
         stroke-width="3.0"
         stroke-opacity="1.0"
         stroke-linejoin="round"
         stroke-linecap="round"
         stroke="rgb(0, 0, 0)"
         fill="none"
         d=" M 545.980, 711.691 543.647, 711.180 " />
      <path
         id="path164"
         stroke-width="3.0"
         stroke-opacity="1.0"
         stroke-linejoin="round"
         stroke-linecap="round"
         stroke="rgb(0, 0, 0)"
         fill="none"
         d=" M 499.739, 1694.355 489.743, 1694.665 479.748, 1694.975 469.753, 1695.285 459.758, 1695.595 449.763, 1695.905 439.767, 1696.215 429.772, 1696.525 428.914, 1696.551 418.917, 1696.802 408.920, 1697.052 398.923, 1697.302 388.927, 1697.553 379.004, 1697.801 " />
      <path
         id="path166"
         stroke-width="3.0"
         stroke-opacity="1.0"
         stroke-linejoin="round"
         stroke-linecap="round"
         stroke="rgb(0, 0, 0)"
         fill="none"
         d=" M 491.773, 1997.560 485.634, 1997.578 " />
      <path
         id="path168"
         stroke-width="3.0"
         stroke-opacity="1.0"
         stroke-linejoin="round"
         stroke-linecap="round"
         stroke="rgb(0, 0, 0)"
         fill="none"
         d=" M 392.131, 1951.705 402.096, 1950.876 412.062, 1950.048 422.028, 1949.219 431.993, 1948.391 441.959, 1947.562 451.924, 1946.733 461.890, 1945.905 471.856, 1945.076 481.276, 1944.293 484.163, 1944.053 484.438, 1954.049 484.639, 1961.358 484.913, 1971.354 485.188, 1981.350 485.463, 1991.346 485.634, 1997.578 475.635, 1997.608 465.635, 1997.638 455.635, 1997.668 445.635, 1997.698 435.635, 1997.727 425.635, 1997.757 415.635, 1997.787 405.635, 1997.817 395.635, 1997.847 385.635, 1997.877 380.178, 1997.893 " />
      <path
         id="path170"
         stroke-width="3.0"
         stroke-opacity="1.0"
         stroke-linejoin="round"
         stroke-linecap="round"
         stroke="rgb(0, 0, 0)"
         fill="none"
         d=" M 464.287, 1255.420 474.286, 1255.547 484.285, 1255.673 494.284, 1255.800 500.500, 1255.879 " />
      <path
         id="path172"
         stroke-width="3.0"
         stroke-opacity="1.0"
         stroke-linejoin="round"
         stroke-linecap="round"
         stroke="rgb(0, 0, 0)"
         fill="none"
         d=" M 500.500, 1255.879 500.500, 1245.879 500.500, 1235.879 500.500, 1225.879 500.500, 1215.879 500.500, 1209.833 " />
      <path
         id="path174"
         stroke-width="3.0"
         stroke-opacity="1.0"
         stroke-linejoin="round"
         stroke-linecap="round"
         stroke="rgb(0, 0, 0)"
         fill="none"
         d=" M 656.728, 1345.643 646.733, 1345.325 636.738, 1345.007 626.743, 1344.689 616.748, 1344.370 606.753, 1344.052 596.758, 1343.734 590.125, 1343.523 584.941, 1334.972 579.757, 1326.420 574.573, 1317.869 569.389, 1309.318 564.205, 1300.767 559.020, 1292.215 553.836, 1283.664 548.652, 1275.113 543.468, 1266.562 538.284, 1258.010 536.713, 1255.420 526.714, 1255.547 516.715, 1255.673 506.716, 1255.800 500.500, 1255.879 500.500, 1256.540 " />
      <path
         id="path176"
         stroke-width="3.0"
         stroke-opacity="1.0"
         stroke-linejoin="round"
         stroke-linecap="round"
         stroke="rgb(0, 0, 0)"
         fill="none"
         d=" M 417.509, 1483.890 425.791, 1489.495 434.073, 1495.099 442.355, 1500.704 450.637, 1506.308 458.919, 1511.913 467.200, 1517.518 475.482, 1523.122 483.764, 1528.727 492.046, 1534.331 494.222, 1535.804 485.949, 1541.421 477.675, 1547.038 469.402, 1552.655 461.128, 1558.272 452.855, 1563.889 444.582, 1569.506 436.308, 1575.123 428.035, 1580.739 423.778, 1583.629 " />
      <path
         id="path178"
         stroke-width="3.0"
         stroke-opacity="1.0"
         stroke-linejoin="round"
         stroke-linecap="round"
         stroke="rgb(0, 0, 0)"
         fill="none"
         d=" M 501.261, 1694.355 511.257, 1694.665 521.252, 1694.975 531.247, 1695.285 541.242, 1695.595 551.237, 1695.905 561.233, 1696.215 571.228, 1696.525 572.086, 1696.551 582.083, 1696.802 592.080, 1697.052 602.077, 1697.302 612.073, 1697.553 621.996, 1697.801 " />
      <path
         id="path180"
         stroke-width="3.0"
         stroke-opacity="1.0"
         stroke-linejoin="round"
         stroke-linecap="round"
         stroke="rgb(0, 0, 0)"
         fill="none"
         d=" M 500.500, 472.425 509.901, 475.834 519.301, 479.244 528.702, 482.654 538.103, 486.064 547.503, 489.474 556.904, 492.884 566.305, 496.294 568.857, 497.220 569.807, 487.265 570.054, 484.668 570.232, 480.219 570.631, 470.227 570.700, 468.500 571.099, 458.508 571.497, 448.516 571.896, 438.524 572.295, 428.532 572.694, 418.540 573.093, 408.548 573.405, 400.720 573.804, 390.728 574.203, 380.736 574.602, 370.744 574.841, 364.768 575.255, 374.759 575.670, 384.750 576.084, 394.742 576.499, 404.733 576.914, 414.725 577.328, 424.716 577.743, 434.708 578.158, 444.699 578.572, 454.690 578.987, 464.682 579.402, 474.673 579.536, 477.900 579.866, 485.854 580.002, 489.148 578.650, 488.539 574.419, 486.634 573.180, 486.076 572.486, 485.763 570.756, 484.984 570.054, 484.668 " />
      <path
         id="path182"
         stroke-width="3.0"
         stroke-opacity="1.0"
         stroke-linejoin="round"
         stroke-linecap="round"
         stroke="rgb(0, 0, 0)"
         fill="none"
         d=" M 500.500, 504.957 500.500, 494.957 500.500, 484.957 500.500, 474.957 500.500, 472.425 " />
      <path
         id="path184"
         stroke-width="3.0"
         stroke-opacity="1.0"
         stroke-linejoin="round"
         stroke-linecap="round"
         stroke="rgb(0, 0, 0)"
         fill="none"
         d=" M 500.500, 472.425 492.398, 478.286 484.295, 484.147 476.193, 490.008 468.091, 495.869 459.988, 501.730 456.197, 504.473 " />
      <path
         id="path186"
         stroke-width="3.0"
         stroke-opacity="1.0"
         stroke-linejoin="round"
         stroke-linecap="round"
         stroke="rgb(0, 0, 0)"
         fill="none"
         d=" M 544.803, 504.473 536.701, 498.612 528.599, 492.750 520.496, 486.889 512.394, 481.028 504.292, 475.167 500.500, 472.425 491.099, 475.834 481.699, 479.244 472.298, 482.654 462.897, 486.064 453.497, 489.474 444.096, 492.884 434.695, 496.294 432.143, 497.220 431.193, 487.265 430.946, 484.668 430.244, 484.984 428.514, 485.763 427.820, 486.076 426.575, 486.636 422.344, 488.542 420.998, 489.148 " />
      <path
         id="path188"
         stroke-width="3.0"
         stroke-opacity="1.0"
         stroke-linejoin="round"
         stroke-linecap="round"
         stroke="rgb(0, 0, 0)"
         fill="none"
         d=" M 440.587, 529.409 442.937, 539.129 445.286, 548.849 447.637, 558.568 447.935, 559.802 457.916, 559.185 467.897, 558.567 471.419, 558.349 468.193, 567.815 466.215, 573.621 " />
      <path
         id="path190"
         stroke-width="3.0"
         stroke-opacity="1.0"
         stroke-linejoin="round"
         stroke-linecap="round"
         stroke="rgb(0, 0, 0)"
         fill="none"
         d=" M 553.060, 559.802 543.079, 559.184 533.098, 558.567 529.578, 558.349 " />
      <path
         id="path192"
         stroke-width="3.0"
         stroke-opacity="1.0"
         stroke-linejoin="round"
         stroke-linecap="round"
         stroke="rgb(0, 0, 0)"
         fill="none"
         d=" M 440.587, 529.409 436.531, 520.268 432.475, 511.127 431.035, 507.882 428.382, 501.903 428.347, 501.822 428.326, 501.775 427.675, 500.309 428.283, 500.447 428.361, 500.465 428.536, 500.504 431.171, 501.101 " />
      <path
         id="path194"
         stroke-width="3.0"
         stroke-opacity="1.0"
         stroke-linejoin="round"
         stroke-linecap="round"
         stroke="rgb(0, 0, 0)"
         fill="none"
         d=" M 544.246, 128.804 534.246, 128.804 524.246, 128.804 514.246, 128.804 504.246, 128.804 494.246, 128.804 484.246, 128.804 474.246, 128.804 464.246, 128.804 456.754, 128.804 456.754, 138.804 456.754, 148.804 456.754, 158.804 456.754, 168.804 456.754, 178.804 456.754, 188.804 456.754, 198.804 456.754, 208.804 456.754, 218.804 456.754, 228.804 456.754, 238.804 456.754, 244.647 " />
      <path
         id="path196"
         stroke-width="3.0"
         stroke-opacity="1.0"
         stroke-linejoin="round"
         stroke-linecap="round"
         stroke="rgb(0, 0, 0)"
         fill="none"
         d=" M 456.754, 244.647 466.754, 244.647 476.754, 244.647 486.754, 244.647 496.754, 244.647 506.754, 244.647 516.754, 244.647 526.754, 244.647 536.754, 244.647 544.246, 244.647 " />
      <path
         id="path198"
         stroke-width="3.0"
         stroke-opacity="1.0"
         stroke-linejoin="round"
         stroke-linecap="round"
         stroke="rgb(0, 0, 0)"
         fill="none"
         d=" M 544.246, 244.647 544.246, 234.647 544.246, 224.647 544.246, 214.647 544.246, 204.647 544.246, 194.647 544.246, 184.647 544.246, 174.647 544.246, 164.647 544.246, 154.647 544.246, 144.647 544.246, 134.647 544.246, 128.804 534.246, 128.804 524.246, 128.804 514.246, 128.804 504.246, 128.804 494.246, 128.804 484.246, 128.804 474.246, 128.804 464.246, 128.804 456.754, 128.804 " />
      <path
         id="path200"
         stroke-width="3.0"
         stroke-opacity="1.0"
         stroke-linejoin="round"
         stroke-linecap="round"
         stroke="rgb(0, 0, 0)"
         fill="none"
         d=" M 544.246, 360.481 544.246, 350.481 544.246, 340.481 544.246, 330.481 544.246, 320.481 544.246, 310.481 544.246, 300.481 544.246, 290.481 544.246, 280.481 544.246, 270.481 544.246, 260.481 544.246, 250.481 544.246, 244.647 " />
      <path
         id="path202"
         stroke-width="3.0"
         stroke-opacity="1.0"
         stroke-linejoin="round"
         stroke-linecap="round"
         stroke="rgb(0, 0, 0)"
         fill="none"
         d=" M 356.277, 689.729 346.340, 688.606 336.403, 687.484 326.466, 686.361 316.529, 685.239 306.592, 684.117 296.656, 682.994 288.115, 682.029 " />
      <path
         id="path204"
         stroke-width="3.0"
         stroke-opacity="1.0"
         stroke-linejoin="round"
         stroke-linecap="round"
         stroke="rgb(0, 0, 0)"
         fill="none"
         d=" M 369.396, 681.446 361.511, 675.295 353.627, 669.143 345.743, 662.992 337.859, 656.840 329.975, 650.689 322.091, 644.538 314.207, 638.386 313.541, 637.867 " />
      <path
         id="path206"
         stroke-width="3.0"
         stroke-opacity="1.0"
         stroke-linejoin="round"
         stroke-linecap="round"
         stroke="rgb(0, 0, 0)"
         fill="none"
         d=" M 379.656, 1199.150 369.860, 1197.143 360.063, 1195.136 350.266, 1193.129 344.707, 1191.990 " />
      <path
         id="path208"
         stroke-width="3.0"
         stroke-opacity="1.0"
         stroke-linejoin="round"
         stroke-linecap="round"
         stroke="rgb(0, 0, 0)"
         fill="none"
         d=" M 426.394, 497.480 426.596, 507.478 426.602, 507.773 " />
      <path
         id="path210"
         stroke-width="3.0"
         stroke-opacity="1.0"
         stroke-linejoin="round"
         stroke-linecap="round"
         stroke="rgb(0, 0, 0)"
         fill="none"
         d=" M 431.560, 502.272 433.740, 502.272 " />
      <path
         id="path212"
         stroke-width="3.0"
         stroke-opacity="1.0"
         stroke-linejoin="round"
         stroke-linecap="round"
         stroke="rgb(0, 0, 0)"
         fill="none"
         d=" M 428.342, 502.268 428.342, 502.272 " />
      <path
         id="path214"
         stroke-width="3.0"
         stroke-opacity="1.0"
         stroke-linejoin="round"
         stroke-linecap="round"
         stroke="rgb(0, 0, 0)"
         fill="none"
         d=" M 456.754, 244.647 456.754, 254.647 456.754, 264.647 456.754, 274.647 456.754, 284.647 456.754, 294.647 456.754, 304.647 456.754, 314.647 456.754, 324.647 456.754, 334.647 456.754, 344.647 456.754, 354.647 456.754, 360.481 " />
      <path
         id="path216"
         stroke-width="3.0"
         stroke-opacity="1.0"
         stroke-linejoin="round"
         stroke-linecap="round"
         stroke="rgb(0, 0, 0)"
         fill="none"
         d=" M 459.002, 568.168 460.601, 572.340 464.181, 581.678 465.314, 584.632 " />
      <path
         id="path218"
         stroke-width="3.0"
         stroke-opacity="1.0"
         stroke-linejoin="round"
         stroke-linecap="round"
         stroke="rgb(0, 0, 0)"
         fill="none"
         d=" M 468.793, 574.385 468.623, 574.888 465.407, 584.357 465.314, 584.632 " />
      <path
         id="path220"
         stroke-width="3.0"
         stroke-opacity="1.0"
         stroke-linejoin="round"
         stroke-linecap="round"
         stroke="rgb(0, 0, 0)"
         fill="none"
         d=" M 500.500, 360.481 500.500, 359.416 " />
      <path
         id="path222"
         stroke-width="3.0"
         stroke-opacity="1.0"
         stroke-linejoin="round"
         stroke-linecap="round"
         stroke="rgb(0, 0, 0)"
         fill="none"
         d=" M 509.162, 504.862 510.565, 509.332 513.560, 518.873 516.038, 526.768 " />
      <path
         id="path224"
         stroke-width="3.0"
         stroke-opacity="1.0"
         stroke-linejoin="round"
         stroke-linecap="round"
         stroke="rgb(0, 0, 0)"
         fill="none"
         d=" M 532.206, 574.384 532.377, 574.888 535.593, 584.357 535.686, 584.632 " />
      <path
         id="path226"
         stroke-width="3.0"
         stroke-opacity="1.0"
         stroke-linejoin="round"
         stroke-linecap="round"
         stroke="rgb(0, 0, 0)"
         fill="none"
         d=" M 456.754, 360.481 466.754, 360.481 476.754, 360.481 485.705, 360.481 495.705, 360.481 500.500, 360.481 " />
      <path
         id="path228"
         stroke-width="3.0"
         stroke-opacity="1.0"
         stroke-linejoin="round"
         stroke-linecap="round"
         stroke="rgb(0, 0, 0)"
         fill="none"
         d=" M 500.500, 360.481 510.500, 360.481 515.295, 360.481 525.295, 360.481 535.295, 360.481 544.246, 360.481 " />
      <path
         id="path230"
         stroke-width="3.0"
         stroke-opacity="1.0"
         stroke-linejoin="round"
         stroke-linecap="round"
         stroke="rgb(0, 0, 0)"
         fill="none"
         d=" M 456.754, 244.647 466.754, 244.647 476.754, 244.647 486.754, 244.647 496.754, 244.647 506.754, 244.647 516.754, 244.647 526.754, 244.647 536.754, 244.647 544.246, 244.647 " />
      <path
         id="path232"
         stroke-width="3.0"
         stroke-opacity="1.0"
         stroke-linejoin="round"
         stroke-linecap="round"
         stroke="rgb(0, 0, 0)"
         fill="none"
         d=" M 547.074, 620.886 553.517, 613.239 559.961, 605.592 560.688, 604.729 " />
      <path
         id="path234"
         stroke-width="3.0"
         stroke-opacity="1.0"
         stroke-linejoin="round"
         stroke-linecap="round"
         stroke="rgb(0, 0, 0)"
         fill="none"
         d=" M 554.861, 534.616 558.441, 525.278 562.020, 515.941 565.064, 508.001 567.260, 502.272 567.194, 497.721 " />
      <path
         id="path236"
         stroke-width="3.0"
         stroke-opacity="1.0"
         stroke-linejoin="round"
         stroke-linecap="round"
         stroke="rgb(0, 0, 0)"
         fill="none"
         d=" M 572.649, 502.272 572.658, 502.272 " />
      <path
         id="path238"
         stroke-width="3.0"
         stroke-opacity="1.0"
         stroke-linejoin="round"
         stroke-linecap="round"
         stroke="rgb(0, 0, 0)"
         fill="none"
         d=" M 617.534, 1199.930 627.331, 1197.923 637.127, 1195.916 646.924, 1193.910 656.293, 1191.990 " />
      <path
         id="path240"
         stroke-width="3.0"
         stroke-opacity="1.0"
         stroke-linejoin="round"
         stroke-linecap="round"
         stroke="rgb(0, 0, 0)"
         fill="none"
         d=" M 638.886, 689.134 648.832, 688.090 658.777, 687.045 668.722, 686.001 678.668, 684.956 688.613, 683.912 698.558, 682.867 708.504, 681.823 713.632, 681.284 " />
    </g>
  </g>
</svg>
