<?xml version='1.0' encoding='ascii'?>
<svg xmlns="http://www.w3.org/2000/svg" height="2138" version="1.1" width="1001">
    <g id="View Layer_LineSet" inkscape:groupmode="lineset" inkscape:label="View Layer_LineSet" xmlns:inkscape="http://www.inkscape.org/namespaces/inkscape">
        <g id="strokes" inkscape:groupmode="layer" inkscape:label="strokes" xmlns:inkscape="http://www.inkscape.org/namespaces/inkscape">
            <path d=" M 429.449, 526.768 431.303, 536.595 433.156, 546.421 433.911, 550.421 433.911, 550.421 " fill="none" stroke="rgb(0, 0, 0)" stroke-linecap="round" stroke-linejoin="round" stroke-opacity="1.0" stroke-width="3.0" />
            <path d=" M 440.364, 584.632 441.231, 574.670 442.097, 564.707 442.632, 558.559 " fill="none" stroke="rgb(0, 0, 0)" stroke-linecap="round" stroke-linejoin="round" stroke-opacity="1.0" stroke-width="3.0" />
            <path d=" M 447.528, 502.272 441.589, 510.318 435.651, 518.364 429.713, 526.410 429.449, 526.768 " fill="none" stroke="rgb(0, 0, 0)" stroke-linecap="round" stroke-linejoin="round" stroke-opacity="1.0" stroke-width="3.0" />
            <path d=" M 416.662, 501.175 412.985, 510.474 409.308, 519.774 405.815, 528.608 415.230, 531.976 424.388, 535.253 429.449, 526.768 419.479, 527.544 409.509, 528.320 405.815, 528.608 " fill="none" stroke="rgb(0, 0, 0)" stroke-linecap="round" stroke-linejoin="round" stroke-opacity="1.0" stroke-width="3.0" />
            <path d=" M 424.388, 535.253 425.072, 545.229 425.757, 555.206 426.337, 563.655 426.337, 563.655 " fill="none" stroke="rgb(0, 0, 0)" stroke-linecap="round" stroke-linejoin="round" stroke-opacity="1.0" stroke-width="3.0" />
            <path d=" M 427.434, 579.642 428.118, 589.619 428.428, 594.130 438.327, 592.712 448.226, 591.294 458.125, 589.877 468.024, 588.459 477.923, 587.042 487.822, 585.624 492.107, 585.011 493.304, 594.939 494.501, 604.867 495.699, 614.795 496.916, 624.892 491.624, 633.377 486.332, 641.862 481.040, 650.347 475.748, 658.832 470.456, 667.318 465.164, 675.802 459.873, 684.287 454.581, 692.772 448.812, 702.022 " fill="none" stroke="rgb(0, 0, 0)" stroke-linecap="round" stroke-linejoin="round" stroke-opacity="1.0" stroke-width="3.0" />
            <path d=" M 401.307, 1205.454 401.307, 1205.454 401.307, 1205.454 401.603, 1215.449 401.779, 1221.394 402.075, 1231.390 402.371, 1241.385 402.667, 1251.381 402.963, 1261.377 403.259, 1271.372 403.555, 1281.368 403.851, 1291.364 404.147, 1301.359 404.443, 1311.355 404.739, 1321.350 405.035, 1331.346 405.331, 1341.342 405.395, 1343.523 405.395, 1343.523 405.395, 1343.523 405.395, 1343.523 407.076, 1353.381 408.757, 1363.239 410.438, 1373.096 412.118, 1382.954 413.799, 1392.812 415.480, 1402.669 417.161, 1412.527 418.842, 1422.385 420.523, 1432.243 422.203, 1442.100 423.884, 1451.958 425.565, 1461.816 427.246, 1471.674 428.927, 1481.531 429.329, 1483.890 429.329, 1483.891 429.329, 1483.892 430.507, 1493.822 431.685, 1503.753 432.864, 1513.683 434.042, 1523.613 435.220, 1533.544 436.398, 1543.474 437.576, 1553.405 438.754, 1563.335 439.932, 1573.265 441.162, 1583.629 441.162, 1583.629 441.162, 1583.629 441.914, 1593.601 442.666, 1603.573 443.418, 1613.544 444.170, 1623.516 444.922, 1633.488 445.674, 1643.459 446.426, 1653.431 447.178, 1663.403 447.930, 1673.375 448.682, 1683.346 449.434, 1693.318 449.678, 1696.551 449.678, 1696.551 450.224, 1706.537 450.770, 1716.522 450.882, 1718.573 451.428, 1728.558 451.974, 1738.543 452.520, 1748.528 453.065, 1758.513 453.611, 1768.499 454.157, 1778.484 454.703, 1788.469 455.249, 1798.454 455.795, 1808.439 456.340, 1818.424 456.886, 1828.409 457.432, 1838.394 457.978, 1848.379 458.524, 1858.364 459.070, 1868.349 459.615, 1878.335 460.161, 1888.320 460.486, 1894.254 460.486, 1894.254 460.486, 1894.254 460.486, 1894.254 451.467, 1898.575 442.449, 1902.896 433.430, 1907.216 424.412, 1911.537 415.394, 1915.858 406.375, 1920.178 397.357, 1924.499 388.338, 1928.820 378.575, 1933.497 " fill="none" stroke="rgb(0, 0, 0)" stroke-linecap="round" stroke-linejoin="round" stroke-opacity="1.0" stroke-width="3.0" />
            <path d=" M 392.287, 1940.914 382.609, 1943.434 372.932, 1945.953 363.255, 1948.473 353.577, 1950.993 350.844, 1951.705 " fill="none" stroke="rgb(0, 0, 0)" stroke-linecap="round" stroke-linejoin="round" stroke-opacity="1.0" stroke-width="3.0" />
            <path d=" M 314.062, 1944.053 314.062, 1944.053 323.852, 1946.090 333.642, 1948.126 343.433, 1950.163 350.844, 1951.705 348.821, 1961.498 346.798, 1971.291 344.775, 1981.084 342.752, 1990.878 341.303, 1997.893 " fill="none" stroke="rgb(0, 0, 0)" stroke-linecap="round" stroke-linejoin="round" stroke-opacity="1.0" stroke-width="3.0" />
            <path d=" M 378.575, 1933.497 368.706, 1935.112 358.837, 1936.727 348.969, 1938.341 339.100, 1939.956 329.231, 1941.571 319.362, 1943.186 314.062, 1944.053 313.147, 1954.011 312.232, 1963.969 311.317, 1973.927 310.403, 1983.886 309.488, 1993.844 309.145, 1997.578 309.145, 1997.578 309.151, 1997.578 319.151, 1997.676 329.151, 1997.774 339.150, 1997.872 341.303, 1997.893 341.303, 1997.893 351.303, 1997.892 361.303, 1997.891 371.303, 1997.890 381.303, 1997.888 387.484, 1997.888 387.485, 1997.888 397.485, 1997.884 407.485, 1997.881 417.485, 1997.878 427.485, 1997.875 437.485, 1997.872 447.485, 1997.868 457.485, 1997.865 467.485, 1997.862 477.485, 1997.859 487.485, 1997.856 497.485, 1997.852 507.485, 1997.849 517.485, 1997.846 527.485, 1997.843 536.784, 1997.840 536.852, 1997.840 546.851, 1997.813 556.851, 1997.785 566.851, 1997.758 576.851, 1997.731 586.851, 1997.704 596.851, 1997.677 603.275, 1997.660 603.290, 1997.660 603.290, 1997.660 602.140, 1987.726 600.989, 1977.792 599.839, 1967.859 598.688, 1957.925 597.537, 1947.992 597.049, 1943.771 597.753, 1933.796 598.458, 1923.821 599.163, 1913.846 599.868, 1903.871 600.573, 1893.896 601.278, 1883.921 601.983, 1873.946 602.687, 1863.970 603.392, 1853.995 604.097, 1844.020 604.802, 1834.045 605.507, 1824.070 606.212, 1814.095 606.916, 1804.120 607.621, 1794.145 608.326, 1784.169 609.031, 1774.194 609.736, 1764.219 610.441, 1754.244 611.145, 1744.269 611.850, 1734.294 612.555, 1724.319 613.260, 1714.344 613.965, 1704.368 614.686, 1694.161 613.689, 1684.211 612.693, 1674.261 611.696, 1664.311 610.699, 1654.360 609.703, 1644.410 608.706, 1634.460 607.710, 1624.510 606.713, 1614.560 605.716, 1604.609 604.720, 1594.659 603.723, 1584.709 602.726, 1574.759 601.730, 1564.809 600.733, 1554.858 599.736, 1544.908 598.740, 1534.958 598.310, 1530.666 598.990, 1520.689 599.669, 1510.712 600.349, 1500.735 601.029, 1490.758 601.708, 1480.781 602.388, 1470.804 603.068, 1460.828 603.748, 1450.851 604.427, 1440.874 605.107, 1430.897 605.787, 1420.920 606.466, 1410.943 607.146, 1400.966 607.826, 1390.989 608.506, 1381.013 609.185, 1371.036 609.865, 1361.059 610.545, 1351.082 611.012, 1344.223 611.136, 1334.223 611.260, 1324.224 611.384, 1314.225 611.508, 1304.226 611.632, 1294.227 611.756, 1284.227 611.879, 1274.228 612.003, 1264.229 612.127, 1254.230 612.153, 1252.127 612.175, 1250.407 612.175, 1250.407 612.175, 1250.407 " fill="none" stroke="rgb(0, 0, 0)" stroke-linecap="round" stroke-linejoin="round" stroke-opacity="1.0" stroke-width="3.0" />
            <path d=" M 447.528, 502.272 455.712, 502.272 455.712, 502.272 " fill="none" stroke="rgb(0, 0, 0)" stroke-linecap="round" stroke-linejoin="round" stroke-opacity="1.0" stroke-width="3.0" />
            <path d=" M 511.627, 502.272 504.958, 494.821 504.555, 494.371 504.555, 494.371 " fill="none" stroke="rgb(0, 0, 0)" stroke-linecap="round" stroke-linejoin="round" stroke-opacity="1.0" stroke-width="3.0" />
            <path d=" M 511.627, 502.272 511.990, 495.404 511.990, 495.404 " fill="none" stroke="rgb(0, 0, 0)" stroke-linecap="round" stroke-linejoin="round" stroke-opacity="1.0" stroke-width="3.0" />
            <path d=" M 621.849, 1104.282 619.403, 1094.586 616.956, 1084.889 614.510, 1075.193 612.064, 1065.497 609.618, 1055.801 607.172, 1046.104 604.726, 1036.408 602.280, 1026.712 599.834, 1017.016 598.591, 1012.087 600.588, 1002.288 602.585, 992.490 604.582, 982.691 606.579, 972.892 608.576, 963.094 610.573, 953.295 612.570, 943.497 614.567, 933.698 616.565, 923.900 618.562, 914.101 620.559, 904.302 622.556, 894.504 624.553, 884.705 626.550, 874.907 628.547, 865.108 630.544, 855.310 632.541, 845.511 634.538, 835.713 636.535, 825.914 638.532, 816.115 640.529, 806.317 642.526, 796.518 644.523, 786.720 646.090, 779.033 644.168, 769.220 642.246, 759.406 640.323, 749.593 638.401, 739.779 636.479, 729.966 634.557, 720.152 632.635, 710.339 630.712, 700.525 628.790, 690.712 626.868, 680.898 624.946, 671.085 623.024, 661.271 621.102, 651.458 619.179, 641.644 617.257, 631.831 615.335, 622.017 613.413, 612.204 611.491, 602.390 610.811, 598.921 608.357, 589.227 605.903, 579.533 603.448, 569.839 600.994, 560.144 598.540, 550.450 596.259, 541.441 601.621, 533.000 606.983, 524.559 612.345, 516.119 617.355, 508.233 617.355, 508.233 " fill="none" stroke="rgb(0, 0, 0)" stroke-linecap="round" stroke-linejoin="round" stroke-opacity="1.0" stroke-width="3.0" />
            <path d=" M 401.779, 1221.394 402.075, 1231.390 402.371, 1241.385 402.667, 1251.381 402.963, 1261.377 403.259, 1271.372 403.555, 1281.368 403.851, 1291.364 404.147, 1301.359 404.443, 1311.355 404.739, 1321.350 405.035, 1331.346 405.331, 1341.342 405.395, 1343.523 407.076, 1353.381 408.757, 1363.239 410.438, 1373.096 412.118, 1382.954 413.799, 1392.812 415.480, 1402.669 417.161, 1412.527 418.842, 1422.385 420.523, 1432.243 422.203, 1442.100 423.884, 1451.958 425.565, 1461.816 427.246, 1471.674 428.927, 1481.531 429.329, 1483.890 430.507, 1493.820 431.685, 1503.751 432.863, 1513.681 434.041, 1523.611 435.220, 1533.542 436.398, 1543.472 437.576, 1553.403 438.754, 1563.333 439.932, 1573.263 441.162, 1583.629 441.914, 1593.601 442.666, 1603.573 443.418, 1613.544 444.170, 1623.516 444.922, 1633.488 445.674, 1643.459 446.426, 1653.431 447.178, 1663.403 447.930, 1673.375 448.682, 1683.346 449.434, 1693.318 449.678, 1696.551 " fill="none" stroke="rgb(0, 0, 0)" stroke-linecap="round" stroke-linejoin="round" stroke-opacity="1.0" stroke-width="3.0" />
            <path d=" M 447.528, 502.272 441.049, 494.705 " fill="none" stroke="rgb(0, 0, 0)" stroke-linecap="round" stroke-linejoin="round" stroke-opacity="1.0" stroke-width="3.0" />
            <path d=" M 433.088, 573.621 433.088, 573.621 431.244, 563.792 430.223, 558.349 " fill="none" stroke="rgb(0, 0, 0)" stroke-linecap="round" stroke-linejoin="round" stroke-opacity="1.0" stroke-width="3.0" />
            <path d=" M 455.712, 502.272 451.661, 511.415 447.609, 520.557 445.529, 525.249 445.529, 525.249 443.686, 529.409 443.686, 529.409 443.686, 529.409 439.468, 538.476 435.250, 547.542 433.911, 550.421 433.911, 550.421 430.223, 558.349 430.223, 558.349 430.223, 558.349 426.337, 563.655 423.550, 567.459 426.337, 563.655 " fill="none" stroke="rgb(0, 0, 0)" stroke-linecap="round" stroke-linejoin="round" stroke-opacity="1.0" stroke-width="3.0" />
            <path d=" M 423.550, 567.459 423.550, 577.459 423.550, 583.778 " fill="none" stroke="rgb(0, 0, 0)" stroke-linecap="round" stroke-linejoin="round" stroke-opacity="1.0" stroke-width="3.0" />
            <path d=" M 423.550, 583.778 427.434, 579.642 433.088, 573.621 437.104, 567.349 437.104, 567.349 441.937, 559.802 442.632, 558.559 442.632, 558.559 447.513, 549.831 452.394, 541.103 457.275, 532.375 462.156, 523.647 467.037, 514.920 471.918, 506.192 474.110, 502.272 " fill="none" stroke="rgb(0, 0, 0)" stroke-linecap="round" stroke-linejoin="round" stroke-opacity="1.0" stroke-width="3.0" />
            <path d=" M 585.296, 537.550 594.720, 540.895 596.259, 541.441 " fill="none" stroke="rgb(0, 0, 0)" stroke-linecap="round" stroke-linejoin="round" stroke-opacity="1.0" stroke-width="3.0" />
            <path d=" M 171.156, 703.983 176.963, 707.501 180.153, 709.435 188.705, 714.618 197.257, 719.801 197.796, 720.127 200.349, 721.674 200.565, 721.805 200.576, 721.812 209.128, 726.994 217.680, 732.177 226.232, 737.360 234.784, 742.543 243.336, 747.726 251.888, 752.909 260.440, 758.091 268.992, 763.274 274.171, 766.413 283.142, 770.830 292.114, 775.247 301.085, 779.664 310.057, 784.082 319.028, 788.499 328.000, 792.916 336.971, 797.333 345.943, 801.751 354.914, 806.168 363.886, 810.585 369.082, 813.144 " fill="none" stroke="rgb(0, 0, 0)" stroke-linecap="round" stroke-linejoin="round" stroke-opacity="1.0" stroke-width="3.0" />
            <path d=" M 274.171, 766.413 279.390, 757.883 284.609, 749.353 289.828, 740.823 295.047, 732.293 296.171, 730.456 296.489, 729.937 " fill="none" stroke="rgb(0, 0, 0)" stroke-linecap="round" stroke-linejoin="round" stroke-opacity="1.0" stroke-width="3.0" />
            <path d=" M 296.489, 729.937 295.424, 729.716 285.631, 727.688 275.839, 725.660 266.047, 723.633 256.255, 721.605 246.462, 719.577 236.670, 717.549 226.878, 715.521 217.086, 713.494 207.244, 711.456 206.751, 711.354 206.482, 711.298 196.690, 709.270 188.615, 707.598 183.254, 706.488 175.098, 704.799 171.156, 703.983 " fill="none" stroke="rgb(0, 0, 0)" stroke-linecap="round" stroke-linejoin="round" stroke-opacity="1.0" stroke-width="3.0" />
            <path d=" M 296.489, 729.937 294.164, 728.467 285.711, 723.124 277.258, 717.782 268.805, 712.439 260.352, 707.096 251.899, 701.753 243.446, 696.410 234.992, 691.068 226.539, 685.725 224.630, 684.518 223.062, 683.527 222.940, 683.450 214.487, 678.107 212.545, 676.879 212.333, 676.745 211.991, 676.530 203.538, 671.187 195.085, 665.844 186.632, 660.501 184.227, 658.981 183.099, 658.268 " fill="none" stroke="rgb(0, 0, 0)" stroke-linecap="round" stroke-linejoin="round" stroke-opacity="1.0" stroke-width="3.0" />
            <path d=" M 183.099, 658.268 182.172, 661.816 179.645, 671.491 177.117, 681.166 174.589, 690.841 172.084, 700.431 171.156, 703.983 " fill="none" stroke="rgb(0, 0, 0)" stroke-linecap="round" stroke-linejoin="round" stroke-opacity="1.0" stroke-width="3.0" />
            <path d=" M 506.653, 568.243 515.969, 564.607 525.284, 560.972 534.600, 557.336 543.916, 553.700 553.231, 550.064 562.547, 546.429 571.863, 542.793 581.178, 539.157 585.296, 537.550 588.819, 546.909 592.341, 556.268 595.864, 565.627 599.386, 574.987 602.909, 584.346 606.431, 593.705 609.954, 603.064 610.471, 604.439 610.480, 604.462 610.581, 604.729 " fill="none" stroke="rgb(0, 0, 0)" stroke-linecap="round" stroke-linejoin="round" stroke-opacity="1.0" stroke-width="3.0" />
            <path d=" M 511.627, 502.272 510.875, 512.244 510.124, 522.216 509.372, 532.187 508.620, 542.159 507.868, 552.131 507.116, 562.102 506.653, 568.243 " fill="none" stroke="rgb(0, 0, 0)" stroke-linecap="round" stroke-linejoin="round" stroke-opacity="1.0" stroke-width="3.0" />
            <path d=" M 428.428, 594.130 436.253, 587.903 440.364, 584.632 450.072, 582.232 459.780, 579.832 469.487, 577.432 479.195, 575.032 488.903, 572.631 498.611, 570.231 506.653, 568.243 " fill="none" stroke="rgb(0, 0, 0)" stroke-linecap="round" stroke-linejoin="round" stroke-opacity="1.0" stroke-width="3.0" />
            <path d=" M 492.107, 585.011 498.660, 577.457 505.213, 569.903 506.653, 568.243 509.272, 577.894 511.891, 587.545 514.510, 597.196 517.129, 606.847 519.747, 616.498 521.874, 624.333 " fill="none" stroke="rgb(0, 0, 0)" stroke-linecap="round" stroke-linejoin="round" stroke-opacity="1.0" stroke-width="3.0" />
            <path d=" M 496.916, 624.892 506.913, 624.668 516.911, 624.444 521.874, 624.333 531.638, 622.175 541.402, 620.017 551.167, 617.859 560.931, 615.701 570.696, 613.543 580.460, 611.386 590.224, 609.228 599.989, 607.070 609.058, 605.066 609.919, 604.875 610.581, 604.729 608.549, 614.521 606.518, 624.312 604.486, 634.104 603.429, 639.202 " fill="none" stroke="rgb(0, 0, 0)" stroke-linecap="round" stroke-linejoin="round" stroke-opacity="1.0" stroke-width="3.0" />
            <path d=" M 171.156, 703.983 177.841, 711.226 178.041, 711.442 184.824, 718.791 191.606, 726.140 198.388, 733.488 205.170, 740.837 211.953, 748.185 218.735, 755.534 225.517, 762.882 232.299, 770.231 239.081, 777.579 241.262, 779.942 241.984, 780.432 243.547, 781.491 243.675, 781.578 245.456, 782.786 246.479, 783.479 254.756, 789.091 263.033, 794.703 271.310, 800.314 279.587, 805.926 287.864, 811.538 296.141, 817.150 304.418, 822.761 308.304, 825.396 309.881, 826.466 311.333, 827.450 321.039, 825.045 330.746, 822.641 340.453, 820.236 350.159, 817.831 359.866, 815.427 363.072, 814.632 364.944, 814.169 369.082, 813.144 378.408, 809.536 387.735, 805.928 391.228, 804.577 400.555, 800.969 403.135, 799.971 403.135, 799.971 412.462, 796.364 417.478, 794.423 417.571, 794.387 426.898, 790.780 436.224, 787.172 445.551, 783.564 454.877, 779.957 464.204, 776.349 473.531, 772.741 483.425, 768.914 " fill="none" stroke="rgb(0, 0, 0)" stroke-linecap="round" stroke-linejoin="round" stroke-opacity="1.0" stroke-width="3.0" />
            <path d=" M 241.262, 779.942 241.541, 779.827 250.790, 776.025 260.039, 772.222 269.288, 768.420 274.171, 766.413 " fill="none" stroke="rgb(0, 0, 0)" stroke-linecap="round" stroke-linejoin="round" stroke-opacity="1.0" stroke-width="3.0" />
            <path d=" M 535.860, 638.215 530.415, 643.632 523.326, 650.685 516.237, 657.738 509.148, 664.791 502.058, 671.844 498.329, 675.553 497.726, 676.154 492.569, 681.284 491.543, 681.771 491.454, 681.813 490.699, 682.170 490.495, 682.267 484.995, 684.874 475.959, 689.156 466.922, 693.439 457.886, 697.721 448.812, 702.022 439.776, 706.304 430.739, 710.587 421.703, 714.870 412.666, 719.152 403.629, 723.435 394.593, 727.717 385.556, 732.000 376.520, 736.283 367.483, 740.565 358.447, 744.848 349.410, 749.131 340.374, 753.413 331.337, 757.696 322.301, 761.979 313.264, 766.261 307.002, 769.229 304.417, 759.569 304.068, 758.265 301.484, 748.605 298.899, 738.945 298.620, 737.904 298.106, 735.981 296.956, 731.682 296.793, 731.073 296.489, 729.937 289.780, 724.122 282.224, 717.572 274.668, 711.022 267.111, 704.472 259.555, 697.922 251.999, 691.372 244.443, 684.822 236.886, 678.272 231.612, 673.700 229.762, 672.096 229.689, 672.032 227.943, 670.519 223.896, 667.011 221.880, 665.264 220.879, 664.396 219.257, 662.990 219.061, 662.820 " fill="none" stroke="rgb(0, 0, 0)" stroke-linecap="round" stroke-linejoin="round" stroke-opacity="1.0" stroke-width="3.0" />
            <path d=" M 219.061, 662.820 218.384, 662.735 208.463, 661.479 198.542, 660.223 188.622, 658.967 184.606, 658.459 183.099, 658.268 " fill="none" stroke="rgb(0, 0, 0)" stroke-linecap="round" stroke-linejoin="round" stroke-opacity="1.0" stroke-width="3.0" />
            <path d=" M 314.653, 834.870 324.007, 831.334 333.361, 827.798 342.715, 824.262 352.069, 820.727 361.423, 817.191 370.778, 813.655 380.132, 810.119 389.486, 806.584 391.244, 805.919 " fill="none" stroke="rgb(0, 0, 0)" stroke-linecap="round" stroke-linejoin="round" stroke-opacity="1.0" stroke-width="3.0" />
            <path d=" M 405.395, 1343.523 405.395, 1343.523 405.395, 1343.523 " fill="none" stroke="rgb(0, 0, 0)" stroke-linecap="round" stroke-linejoin="round" stroke-opacity="1.0" stroke-width="3.0" />
            <path d=" M 474.110, 502.272 475.207, 500.309 479.114, 491.104 479.221, 490.851 479.221, 490.851 " fill="none" stroke="rgb(0, 0, 0)" stroke-linecap="round" stroke-linejoin="round" stroke-opacity="1.0" stroke-width="3.0" />
            <path d=" M 456.231, 501.101 466.223, 500.684 475.207, 500.309 475.207, 500.309 475.207, 500.309 467.860, 507.092 460.512, 513.875 453.164, 520.659 445.816, 527.442 443.686, 529.409 443.111, 539.392 442.537, 549.376 441.963, 559.359 441.937, 559.802 441.937, 559.802 " fill="none" stroke="rgb(0, 0, 0)" stroke-linecap="round" stroke-linejoin="round" stroke-opacity="1.0" stroke-width="3.0" />
            <path d=" M 611.836, 785.138 605.001, 777.838 598.166, 770.538 591.331, 763.239 584.497, 755.939 577.662, 748.639 570.827, 741.339 565.862, 736.037 556.551, 739.685 547.241, 743.333 537.930, 746.982 528.619, 750.630 519.308, 754.278 509.998, 757.927 500.687, 761.575 491.376, 765.223 485.521, 767.518 483.481, 768.317 474.170, 771.966 464.859, 775.614 455.549, 779.262 446.238, 782.911 436.927, 786.559 427.616, 790.207 418.306, 793.856 408.995, 797.504 399.684, 801.152 391.227, 804.466 381.916, 808.115 372.605, 811.763 369.082, 813.144 360.918, 807.369 352.754, 801.594 344.590, 795.819 336.426, 790.044 328.262, 784.269 320.099, 778.494 313.256, 773.653 307.002, 769.229 306.122, 769.154 296.159, 768.299 286.195, 767.444 276.232, 766.589 274.171, 766.413 279.371, 774.954 284.571, 783.495 289.772, 792.037 294.972, 800.578 300.173, 809.120 305.373, 817.661 310.574, 826.203 311.333, 827.450 " fill="none" stroke="rgb(0, 0, 0)" stroke-linecap="round" stroke-linejoin="round" stroke-opacity="1.0" stroke-width="3.0" />
            <path d=" M 644.813, 1162.072 638.091, 1162.304 " fill="none" stroke="rgb(0, 0, 0)" stroke-linecap="round" stroke-linejoin="round" stroke-opacity="1.0" stroke-width="3.0" />
            <path d=" M 609.694, 1091.557 613.419, 1100.837 617.144, 1110.117 620.869, 1119.397 624.594, 1128.678 628.319, 1137.958 632.044, 1147.238 633.769, 1151.536 637.494, 1160.817 638.091, 1162.304 635.269, 1171.898 632.447, 1181.491 629.625, 1191.085 626.803, 1200.678 623.981, 1210.272 621.159, 1219.865 618.337, 1229.459 615.515, 1239.052 612.693, 1248.646 612.175, 1250.407 620.676, 1251.781 " fill="none" stroke="rgb(0, 0, 0)" stroke-linecap="round" stroke-linejoin="round" stroke-opacity="1.0" stroke-width="3.0" />
            <path d=" M 612.153, 1252.127 620.676, 1251.781 623.274, 1242.125 625.872, 1232.468 628.470, 1222.811 631.069, 1213.155 633.667, 1203.498 636.265, 1193.842 638.863, 1184.185 641.461, 1174.529 644.060, 1164.872 644.813, 1162.072 641.120, 1152.779 637.427, 1143.485 633.734, 1134.192 630.042, 1124.899 626.349, 1115.606 622.656, 1106.313 621.849, 1104.282 " fill="none" stroke="rgb(0, 0, 0)" stroke-linecap="round" stroke-linejoin="round" stroke-opacity="1.0" stroke-width="3.0" />
            <path d=" M 147.435, 684.213 155.117, 690.615 162.799, 697.017 170.481, 703.419 171.156, 703.983 175.672, 712.905 175.942, 713.438 168.048, 707.298 160.155, 701.159 152.262, 695.019 148.952, 692.444 142.941, 684.452 136.931, 676.460 135.221, 674.186 142.185, 667.010 149.149, 659.833 156.113, 652.657 163.077, 645.480 170.041, 638.304 177.005, 631.127 183.969, 623.951 190.933, 616.774 193.419, 614.212 202.362, 618.688 208.124, 621.571 209.825, 623.676 210.120, 624.042 211.629, 625.908 217.914, 633.686 224.200, 641.463 226.038, 643.737 " fill="none" stroke="rgb(0, 0, 0)" stroke-linecap="round" stroke-linejoin="round" stroke-opacity="1.0" stroke-width="3.0" />
            <path d=" M 175.942, 713.438 178.041, 711.442 " fill="none" stroke="rgb(0, 0, 0)" stroke-linecap="round" stroke-linejoin="round" stroke-opacity="1.0" stroke-width="3.0" />
            <path d=" M 135.221, 674.186 142.950, 680.531 147.435, 684.213 155.521, 678.330 163.608, 672.448 171.695, 666.565 179.781, 660.682 183.099, 658.268 188.733, 650.006 194.367, 641.745 200.001, 633.483 205.635, 625.221 208.124, 621.571 " fill="none" stroke="rgb(0, 0, 0)" stroke-linecap="round" stroke-linejoin="round" stroke-opacity="1.0" stroke-width="3.0" />
            <path d=" M 223.211, 658.129 219.061, 662.820 218.663, 661.320 216.100, 651.654 213.537, 641.988 210.974, 632.322 208.988, 624.831 208.124, 621.571 201.166, 628.753 194.207, 635.936 187.249, 643.118 180.291, 650.300 173.333, 657.482 166.374, 664.664 159.416, 671.846 152.458, 679.028 147.435, 684.213 154.417, 691.371 161.400, 698.530 168.382, 705.688 175.365, 712.847 175.942, 713.438 " fill="none" stroke="rgb(0, 0, 0)" stroke-linecap="round" stroke-linejoin="round" stroke-opacity="1.0" stroke-width="3.0" />
            <path d=" M 538.445, 373.438 537.120, 383.349 536.269, 389.721 534.944, 399.633 533.619, 409.545 532.294, 419.457 530.969, 429.368 529.644, 439.280 528.319, 449.192 526.994, 459.104 525.669, 469.016 524.344, 478.927 523.019, 488.839 521.956, 496.789 " fill="none" stroke="rgb(0, 0, 0)" stroke-linecap="round" stroke-linejoin="round" stroke-opacity="1.0" stroke-width="3.0" />
            <path d=" M 427.498, 497.789 429.320, 497.220 439.098, 495.123 441.049, 494.705 441.049, 494.705 449.078, 492.983 449.078, 492.983 458.856, 490.887 460.361, 490.564 460.361, 490.564 466.965, 489.148 466.965, 489.148 476.869, 490.524 479.221, 490.851 479.221, 490.851 489.126, 492.227 499.031, 493.603 504.555, 494.371 504.555, 494.371 511.990, 495.404 511.990, 495.404 521.956, 496.789 521.956, 496.789 531.773, 498.000 531.773, 498.000 541.698, 499.225 551.623, 500.450 561.547, 501.674 571.472, 502.899 581.397, 504.124 591.322, 505.349 600.550, 506.488 600.550, 506.488 610.475, 507.712 610.969, 507.773 610.969, 507.773 617.355, 508.233 627.329, 508.951 636.037, 509.578 626.062, 508.860 617.355, 508.233 " fill="none" stroke="rgb(0, 0, 0)" stroke-linecap="round" stroke-linejoin="round" stroke-opacity="1.0" stroke-width="3.0" />
            <path d=" M 610.969, 507.773 612.449, 497.884 613.929, 487.994 615.409, 478.104 616.889, 468.214 618.369, 458.324 619.849, 448.434 621.329, 438.544 622.506, 430.675 623.986, 420.785 625.466, 410.895 626.946, 401.005 628.426, 391.116 629.564, 383.516 " fill="none" stroke="rgb(0, 0, 0)" stroke-linecap="round" stroke-linejoin="round" stroke-opacity="1.0" stroke-width="3.0" />
            <path d=" M 653.868, 382.266 643.881, 382.780 633.894, 383.293 629.564, 383.516 619.624, 382.417 609.685, 381.317 599.745, 380.218 589.806, 379.118 579.867, 378.019 569.927, 376.920 559.988, 375.820 550.049, 374.721 540.109, 373.622 538.445, 373.438 528.510, 372.300 518.575, 371.163 508.640, 370.025 498.705, 368.888 488.770, 367.750 478.835, 366.613 468.900, 365.475 462.721, 364.768 452.853, 363.150 442.984, 361.533 436.566, 360.481 " fill="none" stroke="rgb(0, 0, 0)" stroke-linecap="round" stroke-linejoin="round" stroke-opacity="1.0" stroke-width="3.0" />
            <path d=" M 231.612, 673.700 234.462, 669.283 239.885, 660.881 243.285, 655.613 243.086, 649.364 235.382, 642.988 227.679, 636.612 219.975, 630.236 212.271, 623.860 210.659, 622.526 209.825, 623.676 " fill="none" stroke="rgb(0, 0, 0)" stroke-linecap="round" stroke-linejoin="round" stroke-opacity="1.0" stroke-width="3.0" />
            <path d=" M 391.228, 804.577 391.244, 805.919 391.286, 809.422 391.288, 809.660 391.407, 819.659 391.525, 829.658 391.643, 839.658 391.762, 849.657 391.880, 859.656 391.998, 869.656 392.117, 879.655 392.235, 889.654 392.353, 899.653 392.472, 909.653 392.590, 919.652 392.708, 929.651 392.827, 939.651 392.945, 949.650 393.063, 959.649 393.182, 969.648 393.300, 979.648 393.418, 989.647 393.537, 999.646 393.657, 1009.776 393.157, 1019.764 392.657, 1029.751 392.158, 1039.739 391.658, 1049.726 391.158, 1059.714 390.658, 1069.701 390.159, 1079.689 389.659, 1089.676 389.159, 1099.664 388.660, 1109.651 388.160, 1119.639 387.660, 1129.626 387.160, 1139.614 386.661, 1149.601 386.161, 1159.589 385.661, 1169.576 385.162, 1179.564 384.662, 1189.551 384.162, 1199.539 383.647, 1209.833 " fill="none" stroke="rgb(0, 0, 0)" stroke-linecap="round" stroke-linejoin="round" stroke-opacity="1.0" stroke-width="3.0" />
            <path d=" M 210.659, 622.526 216.893, 630.345 223.126, 638.165 226.742, 642.701 " fill="none" stroke="rgb(0, 0, 0)" stroke-linecap="round" stroke-linejoin="round" stroke-opacity="1.0" stroke-width="3.0" />
            <path d=" M 226.038, 643.737 226.742, 642.701 234.625, 648.854 240.622, 653.534 240.636, 653.545 243.285, 655.613 " fill="none" stroke="rgb(0, 0, 0)" stroke-linecap="round" stroke-linejoin="round" stroke-opacity="1.0" stroke-width="3.0" />
            <path d=" M 629.953, 1160.805 627.107, 1151.218 624.261, 1141.632 621.415, 1132.045 618.569, 1122.459 615.723, 1112.872 612.877, 1103.286 610.031, 1093.699 607.185, 1084.113 605.698, 1079.104 602.852, 1069.517 600.007, 1059.931 597.161, 1050.344 594.315, 1040.758 591.469, 1031.171 588.623, 1021.585 585.777, 1011.999 584.586, 1007.989 585.800, 998.063 587.014, 988.137 588.228, 978.211 589.441, 968.285 590.655, 958.359 591.869, 948.433 593.082, 938.506 594.296, 928.580 595.510, 918.654 596.724, 908.728 597.937, 898.802 599.151, 888.876 600.365, 878.950 601.578, 869.024 602.792, 859.098 604.006, 849.172 605.220, 839.246 606.433, 829.320 607.647, 819.394 608.861, 809.468 610.074, 799.542 611.288, 789.615 611.836, 785.138 601.914, 783.884 591.993, 782.631 582.072, 781.377 572.151, 780.124 562.230, 778.870 552.309, 777.617 542.388, 776.363 532.467, 775.110 522.545, 773.856 512.624, 772.603 502.703, 771.349 492.782, 770.096 485.413, 769.165 483.425, 768.914 483.542, 771.103 484.076, 781.089 484.609, 791.074 485.143, 801.060 485.677, 811.046 486.210, 821.032 486.744, 831.017 487.277, 841.003 487.811, 850.989 488.344, 860.975 488.878, 870.960 489.412, 880.946 489.945, 890.932 490.479, 900.918 491.012, 910.903 491.546, 920.889 492.079, 930.875 492.613, 940.861 493.147, 950.846 493.680, 960.832 494.214, 970.818 494.747, 980.804 495.281, 990.789 495.815, 1000.775 496.252, 1008.959 496.381, 1018.959 496.468, 1025.704 496.596, 1035.704 496.725, 1045.703 496.854, 1055.702 496.983, 1065.701 497.112, 1075.700 497.240, 1085.700 497.369, 1095.699 497.498, 1105.698 497.600, 1113.644 497.600, 1113.644 497.604, 1113.881 497.604, 1113.881 497.732, 1123.880 497.861, 1133.879 497.990, 1143.878 498.119, 1153.877 498.248, 1163.877 498.376, 1173.876 498.505, 1183.875 498.570, 1188.909 " fill="none" stroke="rgb(0, 0, 0)" stroke-linecap="round" stroke-linejoin="round" stroke-opacity="1.0" stroke-width="3.0" />
            <path d=" M 412.053, 1010.841 422.050, 1010.618 432.048, 1010.394 442.045, 1010.171 452.043, 1009.948 462.040, 1009.724 472.038, 1009.501 482.035, 1009.277 492.033, 1009.054 496.252, 1008.959 506.251, 1008.850 511.088, 1008.797 520.659, 1008.691 530.658, 1008.582 540.658, 1008.472 550.657, 1008.362 560.657, 1008.252 570.656, 1008.142 580.655, 1008.032 584.586, 1007.989 594.184, 1010.797 598.591, 1012.087 " fill="none" stroke="rgb(0, 0, 0)" stroke-linecap="round" stroke-linejoin="round" stroke-opacity="1.0" stroke-width="3.0" />
            <path d=" M 411.014, 803.529 420.036, 799.216 429.059, 794.903 438.081, 790.590 446.182, 786.717 455.204, 782.404 464.226, 778.091 473.249, 773.779 482.271, 769.466 483.425, 768.914 485.483, 768.093 494.772, 764.389 504.060, 760.684 513.349, 756.980 522.637, 753.275 531.926, 749.571 541.214, 745.867 550.503, 742.162 559.792, 738.458 565.862, 736.037 " fill="none" stroke="rgb(0, 0, 0)" stroke-linecap="round" stroke-linejoin="round" stroke-opacity="1.0" stroke-width="3.0" />
            <path d=" M 496.916, 624.892 495.975, 634.848 495.035, 644.804 494.094, 654.759 493.154, 664.715 492.213, 674.671 491.623, 680.914 491.543, 681.771 " fill="none" stroke="rgb(0, 0, 0)" stroke-linecap="round" stroke-linejoin="round" stroke-opacity="1.0" stroke-width="3.0" />
            <path d=" M 603.429, 639.202 593.430, 639.056 583.431, 638.910 573.432, 638.764 564.070, 638.627 554.071, 638.481 544.072, 638.335 535.860, 638.215 544.986, 634.125 554.111, 630.036 563.237, 625.946 572.362, 621.857 581.488, 617.767 590.613, 613.677 599.739, 609.588 609.397, 605.260 610.581, 604.729 " fill="none" stroke="rgb(0, 0, 0)" stroke-linecap="round" stroke-linejoin="round" stroke-opacity="1.0" stroke-width="3.0" />
            <path d=" M 411.014, 803.529 411.064, 813.528 411.114, 823.528 411.165, 833.528 411.215, 843.528 411.265, 853.528 411.315, 863.528 411.365, 873.528 411.415, 883.528 411.465, 893.527 411.515, 903.527 411.565, 913.527 411.615, 923.527 411.666, 933.527 411.716, 943.527 411.766, 953.527 411.816, 963.527 411.866, 973.526 411.916, 983.526 411.966, 993.526 412.016, 1003.526 412.053, 1010.841 411.373, 1020.818 410.693, 1030.795 410.013, 1040.772 409.333, 1050.749 408.653, 1060.726 407.973, 1070.703 407.294, 1080.679 406.614, 1090.656 405.934, 1100.633 405.254, 1110.610 404.574, 1120.587 403.894, 1130.564 403.731, 1132.954 403.564, 1135.410 403.564, 1135.410 403.512, 1136.173 " fill="none" stroke="rgb(0, 0, 0)" stroke-linecap="round" stroke-linejoin="round" stroke-opacity="1.0" stroke-width="3.0" />
            <path d=" M 417.478, 794.423 413.147, 800.524 411.014, 803.529 408.584, 802.431 403.135, 799.971 " fill="none" stroke="rgb(0, 0, 0)" stroke-linecap="round" stroke-linejoin="round" stroke-opacity="1.0" stroke-width="3.0" />
            <path d=" M 393.657, 1009.776 403.640, 1010.354 412.053, 1010.841 " fill="none" stroke="rgb(0, 0, 0)" stroke-linecap="round" stroke-linejoin="round" stroke-opacity="1.0" stroke-width="3.0" />
            <path d=" M 612.175, 1250.407 603.314, 1245.771 594.453, 1241.136 585.592, 1236.501 576.731, 1231.866 567.870, 1227.231 559.009, 1222.596 550.148, 1217.961 541.287, 1213.326 532.426, 1208.691 523.565, 1204.056 514.704, 1199.421 505.844, 1194.786 500.500, 1191.990 " fill="none" stroke="rgb(0, 0, 0)" stroke-linecap="round" stroke-linejoin="round" stroke-opacity="1.0" stroke-width="3.0" />
            <path d=" M 500.709, 1188.452 500.704, 1188.536 500.500, 1191.990 500.987, 1201.978 501.474, 1211.967 501.961, 1221.955 502.449, 1231.943 502.936, 1241.931 503.423, 1251.919 503.648, 1256.522 503.648, 1256.523 503.648, 1256.526 504.135, 1266.514 504.622, 1276.503 505.109, 1286.491 505.597, 1296.479 506.084, 1306.467 506.571, 1316.455 507.058, 1326.443 507.546, 1336.431 507.995, 1345.643 508.885, 1355.603 509.776, 1365.564 510.666, 1375.524 511.557, 1385.484 512.447, 1395.444 513.337, 1405.405 514.228, 1415.365 515.118, 1425.325 516.008, 1435.286 516.899, 1445.246 517.789, 1455.206 518.680, 1465.166 519.570, 1475.127 520.460, 1485.087 521.351, 1495.047 522.241, 1505.008 523.132, 1514.968 524.022, 1524.928 524.912, 1534.888 525.499, 1541.448 526.053, 1551.433 526.608, 1561.418 527.163, 1571.402 527.717, 1581.387 528.272, 1591.372 528.827, 1601.356 529.381, 1611.341 529.936, 1621.325 530.491, 1631.310 531.045, 1641.295 531.600, 1651.279 532.155, 1661.264 532.709, 1671.248 533.264, 1681.233 533.819, 1691.218 534.184, 1697.801 534.398, 1707.799 534.611, 1717.796 534.825, 1727.794 535.038, 1737.792 535.251, 1747.790 535.465, 1757.787 535.678, 1767.785 535.892, 1777.783 536.105, 1787.781 536.319, 1797.778 536.532, 1807.776 536.746, 1817.774 536.959, 1827.771 537.172, 1837.769 537.386, 1847.767 537.599, 1857.765 537.813, 1867.762 538.026, 1877.760 538.240, 1887.758 538.453, 1897.755 538.666, 1907.753 538.880, 1917.751 539.093, 1927.749 539.167, 1931.202 530.115, 1926.951 521.064, 1922.701 512.012, 1918.450 502.960, 1914.200 493.909, 1909.949 484.857, 1905.699 475.805, 1901.448 466.753, 1897.198 460.486, 1894.254 " fill="none" stroke="rgb(0, 0, 0)" stroke-linecap="round" stroke-linejoin="round" stroke-opacity="1.0" stroke-width="3.0" />
            <path d=" M 405.395, 1343.523 415.393, 1343.730 425.391, 1343.936 435.389, 1344.143 445.387, 1344.349 455.384, 1344.556 465.382, 1344.763 475.380, 1344.969 485.378, 1345.176 495.376, 1345.382 505.374, 1345.589 507.995, 1345.643 517.994, 1345.505 527.993, 1345.367 537.992, 1345.229 547.991, 1345.092 557.990, 1344.954 567.989, 1344.816 577.988, 1344.678 587.987, 1344.540 597.986, 1344.402 607.985, 1344.264 611.012, 1344.223 611.012, 1344.223 " fill="none" stroke="rgb(0, 0, 0)" stroke-linecap="round" stroke-linejoin="round" stroke-opacity="1.0" stroke-width="3.0" />
            <path d=" M 387.208, 1208.843 383.647, 1209.833 387.203, 1208.839 395.229, 1206.594 395.229, 1206.594 398.780, 1205.601 398.820, 1205.594 401.351, 1205.171 401.351, 1205.171 411.214, 1203.521 421.077, 1201.871 430.940, 1200.222 440.803, 1198.572 450.666, 1196.922 460.529, 1195.272 470.392, 1193.623 480.255, 1191.973 490.118, 1190.323 498.570, 1188.909 498.641, 1188.894 500.709, 1188.452 500.709, 1188.452 510.488, 1186.360 520.267, 1184.268 530.046, 1182.176 539.824, 1180.084 549.603, 1177.993 559.382, 1175.901 569.161, 1173.809 578.939, 1171.717 588.718, 1169.625 598.497, 1167.534 608.276, 1165.442 618.054, 1163.350 627.833, 1161.258 629.953, 1160.805 630.285, 1160.902 " fill="none" stroke="rgb(0, 0, 0)" stroke-linecap="round" stroke-linejoin="round" stroke-opacity="1.0" stroke-width="3.0" />
            <path d=" M 398.780, 1205.601 399.460, 1195.624 400.140, 1185.647 400.820, 1175.670 401.500, 1165.694 402.180, 1155.717 402.860, 1145.740 403.512, 1136.173 " fill="none" stroke="rgb(0, 0, 0)" stroke-linecap="round" stroke-linejoin="round" stroke-opacity="1.0" stroke-width="3.0" />
            <path d=" M 610.811, 598.921 610.581, 604.729 612.577, 614.528 614.573, 624.327 616.569, 634.125 618.565, 643.924 620.562, 653.723 622.558, 663.522 624.554, 673.320 626.550, 683.119 628.546, 692.918 630.543, 702.717 632.539, 712.515 634.535, 722.314 636.531, 732.113 638.527, 741.911 640.524, 751.710 642.520, 761.509 644.516, 771.308 646.090, 779.033 636.245, 780.788 626.400, 782.542 616.555, 784.297 611.836, 785.138 611.260, 775.154 610.685, 765.171 610.110, 755.187 609.535, 745.204 608.960, 735.220 608.385, 725.237 607.810, 715.253 607.235, 705.270 606.660, 695.287 606.084, 685.303 605.509, 675.320 604.934, 665.336 604.359, 655.353 603.784, 645.369 603.429, 639.202 599.812, 648.525 596.195, 657.848 592.578, 667.171 588.961, 676.494 585.345, 685.817 581.728, 695.140 578.111, 704.463 574.494, 713.786 570.877, 723.109 567.260, 732.432 565.862, 736.037 557.851, 730.052 549.839, 724.067 541.828, 718.082 533.816, 712.098 525.805, 706.113 517.794, 700.128 509.782, 694.143 501.771, 688.158 499.296, 686.309 496.633, 684.320 492.569, 681.284 " fill="none" stroke="rgb(0, 0, 0)" stroke-linecap="round" stroke-linejoin="round" stroke-opacity="1.0" stroke-width="3.0" />
            <path d=" M 401.307, 1205.454 411.217, 1204.109 421.126, 1202.764 431.035, 1201.419 440.944, 1200.074 450.853, 1198.729 460.762, 1197.384 470.671, 1196.039 480.581, 1194.694 490.490, 1193.349 500.500, 1191.990 510.275, 1189.881 520.050, 1187.772 529.825, 1185.663 539.600, 1183.554 549.375, 1181.445 559.150, 1179.336 568.925, 1177.227 578.700, 1175.118 588.475, 1173.009 598.250, 1170.900 608.025, 1168.791 617.800, 1166.682 627.576, 1164.573 636.345, 1162.681 636.352, 1162.679 636.568, 1162.633 638.091, 1162.304 " fill="none" stroke="rgb(0, 0, 0)" stroke-linecap="round" stroke-linejoin="round" stroke-opacity="1.0" stroke-width="3.0" />
            <path d=" M 614.857, 1086.687 609.694, 1091.557 " fill="none" stroke="rgb(0, 0, 0)" stroke-linecap="round" stroke-linejoin="round" stroke-opacity="1.0" stroke-width="3.0" />
            <path d=" M 243.968, 783.138 243.547, 781.491 " fill="none" stroke="rgb(0, 0, 0)" stroke-linecap="round" stroke-linejoin="round" stroke-opacity="1.0" stroke-width="3.0" />
            <path d=" M 243.968, 783.138 243.675, 781.578 " fill="none" stroke="rgb(0, 0, 0)" stroke-linecap="round" stroke-linejoin="round" stroke-opacity="1.0" stroke-width="3.0" />
            <path d=" M 243.968, 783.138 246.479, 783.479 " fill="none" stroke="rgb(0, 0, 0)" stroke-linecap="round" stroke-linejoin="round" stroke-opacity="1.0" stroke-width="3.0" />
            <path d=" M 304.068, 758.265 302.215, 748.439 300.361, 738.612 299.433, 733.690 296.793, 731.073 " fill="none" stroke="rgb(0, 0, 0)" stroke-linecap="round" stroke-linejoin="round" stroke-opacity="1.0" stroke-width="3.0" />
            <path d=" M 241.984, 780.432 243.968, 783.138 252.037, 789.044 260.107, 794.950 268.177, 800.856 276.247, 806.762 284.316, 812.668 292.386, 818.573 300.456, 824.479 308.526, 830.385 314.653, 834.870 324.239, 832.023 333.826, 829.177 343.412, 826.330 352.998, 823.483 362.585, 820.637 371.009, 818.135 380.235, 814.279 389.462, 810.423 391.288, 809.660 " fill="none" stroke="rgb(0, 0, 0)" stroke-linecap="round" stroke-linejoin="round" stroke-opacity="1.0" stroke-width="3.0" />
            <path d=" M 536.784, 1997.839 536.784, 1997.838 537.141, 1987.844 537.499, 1977.851 537.856, 1967.857 538.214, 1957.863 538.571, 1947.870 538.928, 1937.876 539.167, 1931.202 " fill="none" stroke="rgb(0, 0, 0)" stroke-linecap="round" stroke-linejoin="round" stroke-opacity="1.0" stroke-width="3.0" />
            <path d=" M 597.049, 1943.771 597.049, 1943.771 587.276, 1941.649 577.504, 1939.527 567.732, 1937.405 557.960, 1935.283 548.188, 1933.160 539.167, 1931.202 529.189, 1931.861 519.211, 1932.521 509.232, 1933.181 499.254, 1933.841 489.276, 1934.500 479.298, 1935.160 469.320, 1935.820 459.341, 1936.480 449.363, 1937.140 439.385, 1937.799 429.407, 1938.459 419.429, 1939.119 409.450, 1939.779 399.472, 1940.439 392.287, 1940.914 " fill="none" stroke="rgb(0, 0, 0)" stroke-linecap="round" stroke-linejoin="round" stroke-opacity="1.0" stroke-width="3.0" />
            <path d=" M 450.882, 1718.573 451.428, 1728.558 451.974, 1738.543 452.520, 1748.528 453.065, 1758.513 453.611, 1768.499 454.157, 1778.484 454.703, 1788.469 455.249, 1798.454 455.795, 1808.439 456.340, 1818.424 456.886, 1828.409 457.432, 1838.394 457.978, 1848.379 458.524, 1858.364 459.070, 1868.349 459.615, 1878.335 460.161, 1888.320 460.486, 1894.254 451.467, 1898.575 442.449, 1902.896 433.430, 1907.216 424.412, 1911.537 415.394, 1915.858 406.375, 1920.178 397.357, 1924.499 388.338, 1928.820 378.575, 1933.497 " fill="none" stroke="rgb(0, 0, 0)" stroke-linecap="round" stroke-linejoin="round" stroke-opacity="1.0" stroke-width="3.0" />
            <path d=" M 603.290, 1997.660 603.275, 1997.660 " fill="none" stroke="rgb(0, 0, 0)" stroke-linecap="round" stroke-linejoin="round" stroke-opacity="1.0" stroke-width="3.0" />
            <path d=" M 536.852, 1997.840 546.851, 1997.813 556.851, 1997.785 566.851, 1997.758 576.851, 1997.731 586.851, 1997.704 596.851, 1997.677 603.290, 1997.660 603.290, 1997.660 " fill="none" stroke="rgb(0, 0, 0)" stroke-linecap="round" stroke-linejoin="round" stroke-opacity="1.0" stroke-width="3.0" />
            <path d=" M 378.575, 1933.497 387.371, 1938.255 392.287, 1940.914 " fill="none" stroke="rgb(0, 0, 0)" stroke-linecap="round" stroke-linejoin="round" stroke-opacity="1.0" stroke-width="3.0" />
            <path d=" M 387.485, 1997.888 388.325, 1987.923 389.165, 1977.958 390.004, 1967.994 390.844, 1958.029 391.684, 1948.064 392.287, 1940.914 400.540, 1935.267 408.793, 1929.621 417.046, 1923.974 425.300, 1918.327 433.553, 1912.681 441.806, 1907.034 450.059, 1901.388 458.313, 1895.741 460.486, 1894.254 " fill="none" stroke="rgb(0, 0, 0)" stroke-linecap="round" stroke-linejoin="round" stroke-opacity="1.0" stroke-width="3.0" />
            <path d=" M 309.145, 1997.578 309.145, 1997.578 319.144, 1997.676 329.144, 1997.774 339.143, 1997.872 341.303, 1997.893 351.303, 1997.892 361.303, 1997.891 371.303, 1997.890 381.303, 1997.888 387.484, 1997.888 " fill="none" stroke="rgb(0, 0, 0)" stroke-linecap="round" stroke-linejoin="round" stroke-opacity="1.0" stroke-width="3.0" />
            <path d=" M 429.329, 1483.890 429.329, 1483.890 " fill="none" stroke="rgb(0, 0, 0)" stroke-linecap="round" stroke-linejoin="round" stroke-opacity="1.0" stroke-width="3.0" />
            <path d=" M 525.499, 1541.448 516.555, 1545.922 507.611, 1550.395 498.668, 1554.868 489.724, 1559.341 480.780, 1563.814 471.836, 1568.288 462.893, 1572.761 453.949, 1577.234 445.005, 1581.707 441.162, 1583.629 " fill="none" stroke="rgb(0, 0, 0)" stroke-linecap="round" stroke-linejoin="round" stroke-opacity="1.0" stroke-width="3.0" />
            <path d=" M 449.678, 1696.551 459.677, 1696.699 469.676, 1696.847 479.675, 1696.995 489.674, 1697.143 499.673, 1697.291 509.672, 1697.439 519.671, 1697.586 529.669, 1697.734 534.184, 1697.801 544.174, 1697.349 554.164, 1696.898 564.154, 1696.446 574.143, 1695.994 584.133, 1695.543 594.123, 1695.091 604.113, 1694.639 614.686, 1694.161 614.686, 1694.161 " fill="none" stroke="rgb(0, 0, 0)" stroke-linecap="round" stroke-linejoin="round" stroke-opacity="1.0" stroke-width="3.0" />
            <path d=" M 636.037, 509.578 637.424, 499.674 638.811, 489.771 640.198, 479.868 641.585, 469.964 642.972, 460.061 644.359, 450.158 645.746, 440.254 647.133, 430.351 648.520, 420.448 649.907, 410.544 651.294, 400.641 652.681, 390.738 653.868, 382.266 643.919, 381.250 633.971, 380.235 624.023, 379.219 614.075, 378.203 604.126, 377.187 594.178, 376.172 584.230, 375.156 574.281, 374.140 564.333, 373.125 554.385, 372.109 544.437, 371.093 534.488, 370.077 524.540, 369.062 514.592, 368.046 504.643, 367.030 494.695, 366.015 484.747, 364.999 474.799, 363.983 464.850, 362.967 454.902, 361.952 444.954, 360.936 440.499, 360.481 " fill="none" stroke="rgb(0, 0, 0)" stroke-linecap="round" stroke-linejoin="round" stroke-opacity="1.0" stroke-width="3.0" />
            <path d=" M 598.310, 1530.666 598.310, 1530.666 588.418, 1532.131 578.526, 1533.596 568.634, 1535.061 558.741, 1536.525 548.849, 1537.990 538.957, 1539.455 529.065, 1540.920 525.499, 1541.448 516.918, 1536.313 508.338, 1531.177 499.757, 1526.042 491.177, 1520.906 482.596, 1515.771 474.015, 1510.635 465.435, 1505.500 456.854, 1500.364 448.274, 1495.229 439.693, 1490.093 431.113, 1484.957 429.329, 1483.890 " fill="none" stroke="rgb(0, 0, 0)" stroke-linecap="round" stroke-linejoin="round" stroke-opacity="1.0" stroke-width="3.0" />
            <path d=" M 462.721, 364.768 463.062, 374.762 463.403, 384.756 463.744, 394.750 464.078, 404.548 464.419, 414.542 464.760, 424.536 465.101, 434.530 465.442, 444.525 465.783, 454.519 466.124, 464.513 466.465, 474.507 466.511, 475.849 466.511, 475.849 466.852, 485.844 466.965, 489.148 461.494, 487.675 461.494, 487.675 451.838, 485.073 450.334, 484.668 " fill="none" stroke="rgb(0, 0, 0)" stroke-linecap="round" stroke-linejoin="round" stroke-opacity="1.0" stroke-width="3.0" />
            <path d=" M 429.941, 360.481 428.759, 370.411 427.577, 380.341 426.395, 390.271 425.213, 400.201 424.031, 410.131 422.850, 420.061 421.668, 429.990 420.486, 439.920 419.304, 449.850 418.122, 459.780 416.940, 469.710 416.617, 472.425 410.732, 480.509 404.846, 488.594 398.961, 496.679 392.935, 504.957 " fill="none" stroke="rgb(0, 0, 0)" stroke-linecap="round" stroke-linejoin="round" stroke-opacity="1.0" stroke-width="3.0" />
            <path d=" M 416.617, 472.425 426.016, 475.838 426.169, 475.893 435.568, 479.306 444.968, 482.720 450.334, 484.668 " fill="none" stroke="rgb(0, 0, 0)" stroke-linecap="round" stroke-linejoin="round" stroke-opacity="1.0" stroke-width="3.0" />
            <path d=" M 406.109, 504.473 409.224, 494.970 412.340, 485.468 415.456, 475.966 416.617, 472.425 421.177, 481.325 423.059, 484.999 427.618, 493.899 429.320, 497.220 429.320, 497.220 429.320, 497.220 437.905, 492.092 446.490, 486.964 450.334, 484.668 451.361, 474.721 452.389, 464.774 453.417, 454.827 454.444, 444.880 455.472, 434.933 456.500, 424.986 457.527, 415.039 458.421, 406.388 459.449, 396.441 460.477, 386.494 461.504, 376.547 462.532, 366.600 462.721, 364.768 472.659, 365.884 482.596, 367.001 492.534, 368.118 502.471, 369.234 512.408, 370.351 522.346, 371.468 532.283, 372.584 542.221, 373.701 552.158, 374.818 562.096, 375.934 572.033, 377.051 581.971, 378.168 591.908, 379.285 601.846, 380.401 611.783, 381.518 621.720, 382.635 629.564, 383.516 " fill="none" stroke="rgb(0, 0, 0)" stroke-linecap="round" stroke-linejoin="round" stroke-opacity="1.0" stroke-width="3.0" />
            <path d=" M 392.935, 504.957 402.928, 504.589 406.109, 504.473 415.654, 501.490 416.662, 501.175 426.207, 498.192 427.498, 497.789 " fill="none" stroke="rgb(0, 0, 0)" stroke-linecap="round" stroke-linejoin="round" stroke-opacity="1.0" stroke-width="3.0" />
            <path d=" M 441.937, 559.802 441.937, 559.802 432.013, 558.571 430.223, 558.349 " fill="none" stroke="rgb(0, 0, 0)" stroke-linecap="round" stroke-linejoin="round" stroke-opacity="1.0" stroke-width="3.0" />
            <path d=" M 460.361, 490.564 456.712, 499.874 456.231, 501.102 456.230, 501.103 455.712, 502.272 " fill="none" stroke="rgb(0, 0, 0)" stroke-linecap="round" stroke-linejoin="round" stroke-opacity="1.0" stroke-width="3.0" />
            <path d=" M 440.499, 360.481 450.499, 360.481 460.499, 360.481 469.326, 360.481 469.326, 360.481 469.326, 350.481 469.326, 340.481 469.326, 330.481 469.326, 320.481 469.326, 310.481 469.326, 300.481 469.326, 290.481 469.326, 280.481 469.326, 270.481 469.326, 260.481 469.326, 250.481 469.326, 244.647 469.829, 234.660 470.331, 224.672 470.834, 214.685 471.336, 204.698 471.839, 194.710 472.341, 184.723 472.844, 174.736 473.346, 164.748 473.848, 154.761 474.351, 144.773 474.853, 134.786 475.154, 128.804 465.154, 128.804 455.154, 128.804 445.154, 128.804 435.154, 128.804 425.154, 128.804 415.154, 128.804 406.995, 128.804 " fill="none" stroke="rgb(0, 0, 0)" stroke-linecap="round" stroke-linejoin="round" stroke-opacity="1.0" stroke-width="3.0" />
            <path d=" M 469.326, 244.647 459.326, 244.647 449.326, 244.647 439.326, 244.647 429.326, 244.647 419.326, 244.647 409.326, 244.647 401.166, 244.647 " fill="none" stroke="rgb(0, 0, 0)" stroke-linecap="round" stroke-linejoin="round" stroke-opacity="1.0" stroke-width="3.0" />
            <path d=" M 401.166, 244.647 401.669, 234.660 402.171, 224.672 402.674, 214.685 403.176, 204.698 403.679, 194.710 404.182, 184.723 404.684, 174.736 405.187, 164.748 405.689, 154.761 406.192, 144.773 406.694, 134.786 406.995, 128.804 416.995, 128.804 426.995, 128.804 436.995, 128.804 446.995, 128.804 456.995, 128.804 466.995, 128.804 475.154, 128.804 " fill="none" stroke="rgb(0, 0, 0)" stroke-linecap="round" stroke-linejoin="round" stroke-opacity="1.0" stroke-width="3.0" />
            <path d=" M 469.326, 360.481 459.326, 360.481 449.326, 360.481 440.499, 360.481 " fill="none" stroke="rgb(0, 0, 0)" stroke-linecap="round" stroke-linejoin="round" stroke-opacity="1.0" stroke-width="3.0" />
            <path d=" M 298.620, 737.904 299.433, 733.690 " fill="none" stroke="rgb(0, 0, 0)" stroke-linecap="round" stroke-linejoin="round" stroke-opacity="1.0" stroke-width="3.0" />
            <path d=" M 289.780, 724.122 282.679, 717.081 275.577, 710.041 268.475, 703.001 261.373, 695.961 254.271, 688.921 247.170, 681.880 240.068, 674.840 234.462, 669.283 " fill="none" stroke="rgb(0, 0, 0)" stroke-linecap="round" stroke-linejoin="round" stroke-opacity="1.0" stroke-width="3.0" />
            <path d=" M 309.881, 826.466 314.653, 834.870 " fill="none" stroke="rgb(0, 0, 0)" stroke-linecap="round" stroke-linejoin="round" stroke-opacity="1.0" stroke-width="3.0" />
            <path d=" M 309.151, 1997.578 309.145, 1997.578 " fill="none" stroke="rgb(0, 0, 0)" stroke-linecap="round" stroke-linejoin="round" stroke-opacity="1.0" stroke-width="3.0" />
            <path d=" M 401.166, 360.481 401.166, 350.481 401.166, 340.481 401.166, 330.481 401.166, 320.481 401.166, 310.481 401.166, 300.481 401.166, 290.481 401.166, 280.481 401.166, 270.481 401.166, 260.481 401.166, 250.481 401.166, 244.647 " fill="none" stroke="rgb(0, 0, 0)" stroke-linecap="round" stroke-linejoin="round" stroke-opacity="1.0" stroke-width="3.0" />
            <path d=" M 395.229, 1206.594 395.438, 1206.555 401.307, 1205.454 401.348, 1205.193 401.351, 1205.171 " fill="none" stroke="rgb(0, 0, 0)" stroke-linecap="round" stroke-linejoin="round" stroke-opacity="1.0" stroke-width="3.0" />
            <path d=" M 427.498, 497.789 428.170, 507.766 428.842, 517.744 429.449, 526.768 " fill="none" stroke="rgb(0, 0, 0)" stroke-linecap="round" stroke-linejoin="round" stroke-opacity="1.0" stroke-width="3.0" />
            <path d=" M 437.104, 567.349 438.958, 577.176 440.364, 584.632 " fill="none" stroke="rgb(0, 0, 0)" stroke-linecap="round" stroke-linejoin="round" stroke-opacity="1.0" stroke-width="3.0" />
            <path d=" M 387.203, 1208.839 387.208, 1208.843 394.785, 1215.369 401.779, 1221.394 401.779, 1221.394 " fill="none" stroke="rgb(0, 0, 0)" stroke-linecap="round" stroke-linejoin="round" stroke-opacity="1.0" stroke-width="3.0" />
            <path d=" M 445.529, 525.249 445.529, 525.249 446.396, 515.287 447.262, 505.325 447.528, 502.272 449.078, 492.983 " fill="none" stroke="rgb(0, 0, 0)" stroke-linecap="round" stroke-linejoin="round" stroke-opacity="1.0" stroke-width="3.0" />
            <path d=" M 436.566, 360.481 430.068, 359.416 " fill="none" stroke="rgb(0, 0, 0)" stroke-linecap="round" stroke-linejoin="round" stroke-opacity="1.0" stroke-width="3.0" />
            <path d=" M 469.326, 244.647 469.326, 244.647 " fill="none" stroke="rgb(0, 0, 0)" stroke-linecap="round" stroke-linejoin="round" stroke-opacity="1.0" stroke-width="3.0" />
            <path d=" M 429.941, 360.481 419.941, 360.481 409.941, 360.481 401.166, 360.481 " fill="none" stroke="rgb(0, 0, 0)" stroke-linecap="round" stroke-linejoin="round" stroke-opacity="1.0" stroke-width="3.0" />
            <path d=" M 441.162, 1583.629 441.162, 1583.629 " fill="none" stroke="rgb(0, 0, 0)" stroke-linecap="round" stroke-linejoin="round" stroke-opacity="1.0" stroke-width="3.0" />
            <path d=" M 474.110, 502.272 484.110, 502.272 494.110, 502.272 504.110, 502.272 511.627, 502.272 521.410, 500.198 531.192, 498.123 531.773, 498.000 531.773, 498.000 " fill="none" stroke="rgb(0, 0, 0)" stroke-linecap="round" stroke-linejoin="round" stroke-opacity="1.0" stroke-width="3.0" />
            <path d=" M 497.726, 676.154 498.835, 673.775 503.058, 664.710 507.282, 655.646 511.506, 646.582 515.730, 637.518 519.953, 628.453 521.874, 624.333 " fill="none" stroke="rgb(0, 0, 0)" stroke-linecap="round" stroke-linejoin="round" stroke-opacity="1.0" stroke-width="3.0" />
            <path d=" M 460.486, 1894.254 460.486, 1894.254 " fill="none" stroke="rgb(0, 0, 0)" stroke-linecap="round" stroke-linejoin="round" stroke-opacity="1.0" stroke-width="3.0" />
            <path d=" M 600.550, 506.488 600.550, 506.488 596.142, 515.464 591.734, 524.440 587.326, 533.416 585.296, 537.550 " fill="none" stroke="rgb(0, 0, 0)" stroke-linecap="round" stroke-linejoin="round" stroke-opacity="1.0" stroke-width="3.0" />
        </g>
    </g>
</svg>
