<?xml version='1.0' encoding='ascii'?>
<svg xmlns="http://www.w3.org/2000/svg" version="1.1" width="1001" height="2138">
    <g id="View Layer_LineSet" xmlns:inkscape="http://www.inkscape.org/namespaces/inkscape" inkscape:groupmode="lineset" inkscape:label="View Layer_LineSet">
        <g xmlns:inkscape="http://www.inkscape.org/namespaces/inkscape" inkscape:groupmode="layer" id="strokes" inkscape:label="strokes">
            <path fill="none" stroke-width="3.0" stroke-linecap="round" stroke-opacity="1.0" stroke="rgb(0, 0, 0)" stroke-linejoin="round" d=" M 522.997, 679.183 527.320, 671.918 " />
            <path fill="none" stroke-width="3.0" stroke-linecap="round" stroke-opacity="1.0" stroke="rgb(0, 0, 0)" stroke-linejoin="round" d=" M 550.389, 633.151 550.156, 633.154 " />
            <path fill="none" stroke-width="3.0" stroke-linecap="round" stroke-opacity="1.0" stroke="rgb(0, 0, 0)" stroke-linejoin="round" d=" M 475.395, 633.016 474.199, 637.377 473.810, 638.797 473.686, 639.249 474.058, 639.177 474.414, 639.109 476.657, 638.675 485.794, 636.911 " />
            <path fill="none" stroke-width="3.0" stroke-linecap="round" stroke-opacity="1.0" stroke="rgb(0, 0, 0)" stroke-linejoin="round" d=" M 489.676, 674.273 489.362, 669.918 " />
            <path fill="none" stroke-width="3.0" stroke-linecap="round" stroke-opacity="1.0" stroke="rgb(0, 0, 0)" stroke-linejoin="round" d=" M 634.377, 1569.530 634.822, 1559.540 635.267, 1549.550 635.711, 1539.560 636.156, 1529.570 636.601, 1519.580 637.045, 1509.590 637.490, 1499.600 637.935, 1489.610 638.380, 1479.619 638.824, 1469.629 639.269, 1459.639 639.652, 1451.032 639.564, 1441.033 639.477, 1431.033 639.389, 1421.034 639.301, 1411.034 639.214, 1401.034 639.126, 1391.035 639.073, 1384.991 638.809, 1374.995 638.545, 1364.998 638.281, 1355.002 638.017, 1345.005 637.753, 1335.009 637.692, 1332.664 636.921, 1322.694 636.150, 1312.724 635.380, 1302.754 634.609, 1292.783 633.838, 1282.813 633.068, 1272.843 632.469, 1265.098 630.453, 1255.303 628.437, 1245.508 626.421, 1235.713 624.405, 1225.919 622.389, 1216.124 620.374, 1206.329 618.358, 1196.535 616.342, 1186.740 615.250, 1181.434 611.999, 1171.977 608.749, 1162.520 605.498, 1153.063 605.116, 1151.949 601.865, 1142.492 598.615, 1133.035 595.364, 1123.578 594.718, 1121.698 " />
            <path fill="none" stroke-width="3.0" stroke-linecap="round" stroke-opacity="1.0" stroke="rgb(0, 0, 0)" stroke-linejoin="round" d=" M 632.469, 1265.098 624.357, 1259.249 616.246, 1253.400 608.135, 1247.552 600.023, 1241.703 591.912, 1235.855 583.801, 1230.006 575.689, 1224.158 567.578, 1218.309 559.466, 1212.461 553.807, 1208.380 545.695, 1202.531 543.177, 1200.716 " />
            <path fill="none" stroke-width="3.0" stroke-linecap="round" stroke-opacity="1.0" stroke="rgb(0, 0, 0)" stroke-linejoin="round" d=" M 543.563, 1166.633 543.450, 1176.632 543.337, 1186.631 543.224, 1196.631 543.177, 1200.716 545.265, 1210.496 547.352, 1220.275 549.440, 1230.055 550.649, 1235.720 552.736, 1245.500 554.823, 1255.280 556.911, 1265.060 558.998, 1274.839 561.085, 1284.619 563.173, 1294.399 565.373, 1304.709 565.740, 1314.703 566.105, 1324.696 566.471, 1334.689 566.838, 1344.683 567.204, 1354.676 567.570, 1364.669 567.936, 1374.662 568.302, 1384.656 568.668, 1394.649 568.807, 1398.452 570.323, 1408.336 571.838, 1418.221 573.354, 1428.105 574.870, 1437.990 576.386, 1447.874 577.901, 1457.759 579.417, 1467.643 580.933, 1477.528 582.449, 1487.412 583.964, 1497.297 585.480, 1507.181 586.996, 1517.065 588.512, 1526.950 590.111, 1537.382 588.441, 1547.242 586.771, 1557.101 585.101, 1566.961 583.431, 1576.820 582.542, 1582.064 582.919, 1592.057 583.297, 1602.050 583.674, 1612.043 584.051, 1622.036 584.428, 1632.029 584.805, 1642.022 585.182, 1652.014 585.559, 1662.007 585.936, 1672.000 586.313, 1681.993 586.690, 1691.986 586.813, 1695.227 588.027, 1705.153 589.240, 1715.079 590.454, 1725.005 591.668, 1734.932 592.916, 1745.141 602.726, 1743.197 612.535, 1741.254 622.344, 1739.311 632.154, 1737.367 641.963, 1735.424 651.773, 1733.481 661.582, 1731.537 671.391, 1729.594 681.201, 1727.650 691.010, 1725.707 698.346, 1724.254 697.789, 1714.269 697.232, 1704.285 696.676, 1694.300 696.502, 1691.175 695.032, 1681.284 693.562, 1671.392 692.091, 1661.501 690.621, 1651.610 689.151, 1641.718 687.681, 1631.827 686.211, 1621.936 684.741, 1612.044 683.271, 1602.153 681.801, 1592.262 680.578, 1584.037 678.905, 1574.178 677.232, 1564.319 675.558, 1554.460 673.885, 1544.601 672.212, 1534.742 672.058, 1533.832 673.229, 1523.901 674.400, 1513.970 675.570, 1504.039 676.741, 1494.107 677.912, 1484.176 679.083, 1474.245 680.254, 1464.314 681.425, 1454.383 682.596, 1444.451 683.767, 1434.520 684.938, 1424.589 686.109, 1414.658 687.280, 1404.727 688.451, 1394.795 689.584, 1385.186 689.359, 1375.189 689.133, 1365.191 688.908, 1355.194 688.682, 1345.196 688.457, 1335.199 688.231, 1325.201 688.006, 1315.204 687.780, 1305.207 687.555, 1295.209 687.437, 1289.991 688.470, 1280.044 689.503, 1270.098 690.536, 1260.151 691.569, 1250.205 692.602, 1240.258 693.635, 1230.312 694.668, 1220.365 695.701, 1210.419 696.734, 1200.472 697.767, 1190.526 698.660, 1181.931 697.162, 1172.044 695.664, 1162.156 694.166, 1152.269 692.668, 1142.382 691.170, 1132.495 689.672, 1122.608 688.174, 1112.721 686.676, 1102.833 685.274, 1093.584 683.845, 1083.687 682.415, 1073.789 682.302, 1073.003 " />
            <path fill="none" stroke-width="3.0" stroke-linecap="round" stroke-opacity="1.0" stroke="rgb(0, 0, 0)" stroke-linejoin="round" d=" M 565.373, 1304.709 574.701, 1308.315 584.028, 1311.920 593.356, 1315.526 602.683, 1319.132 612.010, 1322.737 621.338, 1326.343 630.665, 1329.948 637.692, 1332.664 645.282, 1326.153 652.872, 1319.642 660.462, 1313.132 668.052, 1306.621 675.642, 1300.110 683.232, 1293.599 687.437, 1289.991 682.900, 1298.903 678.364, 1307.814 673.827, 1316.726 669.290, 1325.637 664.753, 1334.549 660.216, 1343.461 655.679, 1352.372 651.142, 1361.284 646.606, 1370.196 642.069, 1379.107 639.073, 1384.991 632.310, 1377.625 625.548, 1370.258 618.785, 1362.891 612.023, 1355.525 605.260, 1348.158 598.497, 1340.792 591.735, 1333.425 584.972, 1326.058 578.209, 1318.692 571.447, 1311.325 565.373, 1304.709 " />
            <path fill="none" stroke-width="3.0" stroke-linecap="round" stroke-opacity="1.0" stroke="rgb(0, 0, 0)" stroke-linejoin="round" d=" M 696.502, 1691.175 693.453, 1681.651 690.404, 1672.127 687.355, 1662.604 684.306, 1653.080 682.657, 1647.929 " />
            <path fill="none" stroke-width="3.0" stroke-linecap="round" stroke-opacity="1.0" stroke="rgb(0, 0, 0)" stroke-linejoin="round" d=" M 682.657, 1647.929 683.972, 1657.842 685.288, 1667.755 686.604, 1677.668 687.571, 1684.953 " />
            <path fill="none" stroke-width="3.0" stroke-linecap="round" stroke-opacity="1.0" stroke="rgb(0, 0, 0)" stroke-linejoin="round" d=" M 595.745, 1704.266 605.531, 1702.208 615.317, 1700.150 625.103, 1698.091 634.889, 1696.033 644.674, 1693.975 654.460, 1691.917 664.246, 1689.859 674.032, 1687.800 683.818, 1685.742 687.571, 1684.953 690.215, 1694.597 692.859, 1704.241 695.503, 1713.885 698.147, 1723.529 698.346, 1724.254 " />
            <path fill="none" stroke-width="3.0" stroke-linecap="round" stroke-opacity="1.0" stroke="rgb(0, 0, 0)" stroke-linejoin="round" d=" M 550.389, 633.151 552.991, 631.596 " />
            <path fill="none" stroke-width="3.0" stroke-linecap="round" stroke-opacity="1.0" stroke="rgb(0, 0, 0)" stroke-linejoin="round" d=" M 409.028, 1081.667 408.322, 1091.641 407.615, 1101.616 406.909, 1111.592 406.202, 1121.567 405.545, 1130.840 406.895, 1140.748 408.244, 1150.657 409.594, 1160.565 410.943, 1170.474 412.293, 1180.382 413.642, 1190.291 414.992, 1200.199 416.341, 1210.108 417.691, 1220.016 419.040, 1229.925 420.390, 1239.833 421.739, 1249.742 423.089, 1259.651 423.882, 1265.477 424.626, 1275.450 425.369, 1285.422 426.113, 1295.394 426.856, 1305.367 427.600, 1315.339 428.343, 1325.311 429.087, 1335.284 429.830, 1345.256 430.574, 1355.228 431.318, 1365.201 431.601, 1369.002 433.750, 1378.768 435.899, 1388.535 438.049, 1398.301 440.198, 1408.068 442.347, 1417.834 444.496, 1427.600 446.645, 1437.366 448.794, 1447.133 450.944, 1456.899 453.093, 1466.665 455.242, 1476.432 457.391, 1486.198 459.540, 1495.964 461.690, 1505.731 463.839, 1515.497 466.065, 1525.613 464.494, 1535.488 462.922, 1545.364 461.351, 1555.240 459.780, 1565.116 458.209, 1574.992 458.128, 1575.497 456.690, 1585.393 455.253, 1595.289 453.815, 1605.185 452.377, 1615.081 450.939, 1624.977 449.501, 1634.873 448.063, 1644.769 446.625, 1654.665 445.187, 1664.562 443.749, 1674.458 442.887, 1680.390 442.383, 1690.377 441.878, 1700.364 441.374, 1710.352 441.253, 1712.747 451.087, 1714.561 460.922, 1716.374 470.756, 1718.188 480.590, 1720.001 490.424, 1721.815 500.258, 1723.628 510.093, 1725.442 519.927, 1727.255 529.761, 1729.069 539.595, 1730.882 546.804, 1732.212 547.980, 1722.281 549.156, 1712.350 550.332, 1702.420 551.508, 1692.489 552.590, 1683.356 552.910, 1673.361 553.231, 1663.367 553.552, 1653.372 553.873, 1643.377 554.193, 1633.382 554.514, 1623.387 554.835, 1613.392 555.156, 1603.397 555.476, 1593.403 555.797, 1583.408 556.141, 1572.679 554.422, 1562.828 552.703, 1552.977 550.984, 1543.126 549.264, 1533.275 548.009, 1526.081 548.308, 1516.085 548.608, 1506.090 548.907, 1496.094 549.207, 1486.099 549.506, 1476.103 549.806, 1466.108 550.105, 1456.112 550.405, 1446.117 550.704, 1436.121 551.004, 1426.126 551.303, 1416.130 551.602, 1406.135 551.902, 1396.139 552.201, 1386.144 552.501, 1376.148 552.562, 1374.091 551.917, 1364.112 551.272, 1354.133 550.627, 1344.154 549.982, 1334.175 549.337, 1324.196 548.692, 1314.216 548.047, 1304.237 547.401, 1294.258 546.756, 1284.279 546.140, 1274.752 547.288, 1264.818 548.435, 1254.884 549.583, 1244.950 550.649, 1235.720 " />
            <path fill="none" stroke-width="3.0" stroke-linecap="round" stroke-opacity="1.0" stroke="rgb(0, 0, 0)" stroke-linejoin="round" d=" M 475.720, 1356.159 470.757, 1347.477 465.794, 1338.795 460.831, 1330.114 455.868, 1321.432 450.906, 1312.751 445.943, 1304.069 440.980, 1295.387 436.017, 1286.706 431.054, 1278.024 426.092, 1269.342 423.882, 1265.477 432.902, 1269.794 441.923, 1274.111 450.943, 1278.427 459.963, 1282.744 468.984, 1287.061 472.324, 1288.660 " />
            <path fill="none" stroke-width="3.0" stroke-linecap="round" stroke-opacity="1.0" stroke="rgb(0, 0, 0)" stroke-linejoin="round" d=" M 502.607, 1555.587 501.103, 1545.700 499.600, 1535.814 498.096, 1525.928 496.593, 1516.041 495.089, 1506.155 493.586, 1496.269 492.082, 1486.382 490.578, 1476.496 489.075, 1466.610 487.571, 1456.723 486.068, 1446.837 484.564, 1436.951 483.171, 1427.793 482.137, 1417.847 481.102, 1407.901 480.067, 1397.954 479.033, 1388.008 477.998, 1378.062 476.963, 1368.115 475.929, 1358.169 475.720, 1356.159 475.217, 1346.171 474.715, 1336.184 474.213, 1326.197 473.710, 1316.209 473.208, 1306.222 472.705, 1296.234 472.324, 1288.660 472.346, 1278.660 472.368, 1268.660 472.389, 1258.660 472.411, 1248.660 472.432, 1238.660 472.454, 1228.660 472.476, 1218.660 472.497, 1208.660 472.516, 1200.199 472.559, 1190.199 472.602, 1180.199 472.645, 1170.199 472.688, 1160.199 472.731, 1150.199 472.774, 1140.199 472.779, 1139.013 " />
            <path fill="none" stroke-width="3.0" stroke-linecap="round" stroke-opacity="1.0" stroke="rgb(0, 0, 0)" stroke-linejoin="round" d=" M 472.516, 1200.199 465.569, 1193.005 458.623, 1185.811 451.677, 1178.617 444.731, 1171.423 437.785, 1164.230 430.839, 1157.036 423.893, 1149.842 416.947, 1142.648 410.001, 1135.454 405.545, 1130.840 " />
            <path fill="none" stroke-width="3.0" stroke-linecap="round" stroke-opacity="1.0" stroke="rgb(0, 0, 0)" stroke-linejoin="round" d=" M 550.389, 633.151 550.285, 633.083 " />
            <path fill="none" stroke-width="3.0" stroke-linecap="round" stroke-opacity="1.0" stroke="rgb(0, 0, 0)" stroke-linejoin="round" d=" M 517.213, 674.583 512.909, 665.556 511.507, 662.615 " />
            <path fill="none" stroke-width="3.0" stroke-linecap="round" stroke-opacity="1.0" stroke="rgb(0, 0, 0)" stroke-linejoin="round" d=" M 559.001, 628.294 558.355, 629.252 552.514, 637.369 551.648, 638.573 545.808, 646.690 542.827, 650.834 539.013, 652.268 536.953, 653.043 535.175, 653.712 535.057, 653.756 525.698, 657.277 525.279, 657.434 517.974, 660.182 514.545, 661.472 511.507, 662.615 504.860, 661.363 496.592, 659.806 488.523, 658.286 486.227, 657.854 486.093, 657.648 480.634, 649.270 477.700, 644.766 475.204, 640.935 474.306, 639.557 474.058, 639.177 " />
            <path fill="none" stroke-width="3.0" stroke-linecap="round" stroke-opacity="1.0" stroke="rgb(0, 0, 0)" stroke-linejoin="round" d=" M 486.227, 657.854 486.227, 667.921 486.227, 669.393 " />
            <path fill="none" stroke-width="3.0" stroke-linecap="round" stroke-opacity="1.0" stroke="rgb(0, 0, 0)" stroke-linejoin="round" d=" M 465.598, 629.347 468.346, 638.962 468.728, 640.299 469.235, 641.142 472.585, 646.712 477.739, 655.281 478.815, 657.070 483.338, 664.590 486.227, 669.393 487.106, 669.540 489.362, 669.918 493.904, 670.679 503.766, 672.331 513.629, 673.983 517.213, 674.583 520.401, 673.742 526.249, 672.200 527.320, 671.918 534.542, 670.014 536.395, 669.526 540.183, 664.664 541.885, 662.480 545.551, 657.775 551.698, 649.887 557.844, 641.999 559.571, 639.782 565.717, 631.894 571.864, 624.006 574.244, 620.952 575.601, 619.437 " />
            <path fill="none" stroke-width="3.0" stroke-linecap="round" stroke-opacity="1.0" stroke="rgb(0, 0, 0)" stroke-linejoin="round" d=" M 363.343, 919.892 372.513, 923.882 381.683, 927.871 390.852, 931.861 400.022, 935.851 409.191, 939.841 418.361, 943.830 420.540, 944.778 429.710, 948.768 438.879, 952.758 445.071, 955.452 454.241, 959.442 463.410, 963.432 463.683, 963.550 472.853, 967.540 482.022, 971.530 491.192, 975.520 500.362, 979.509 509.531, 983.499 518.701, 987.489 527.870, 991.479 537.040, 995.469 546.210, 999.458 555.379, 1003.448 564.549, 1007.438 573.719, 1011.428 579.776, 1014.063 589.720, 1013.006 599.664, 1011.949 609.608, 1010.891 619.552, 1009.834 629.496, 1008.777 639.440, 1007.720 649.384, 1006.663 655.834, 1005.977 " />
            <path fill="none" stroke-width="3.0" stroke-linecap="round" stroke-opacity="1.0" stroke="rgb(0, 0, 0)" stroke-linejoin="round" d=" M 579.776, 1014.063 575.495, 1005.026 571.214, 995.989 569.332, 992.015 565.051, 982.977 560.770, 973.940 556.489, 964.903 554.204, 960.081 549.923, 951.043 545.642, 942.006 545.507, 941.721 " />
            <path fill="none" stroke-width="3.0" stroke-linecap="round" stroke-opacity="1.0" stroke="rgb(0, 0, 0)" stroke-linejoin="round" d=" M 545.507, 941.721 535.578, 940.531 525.650, 939.342 523.937, 939.136 514.008, 937.947 504.079, 936.757 494.151, 935.567 484.222, 934.377 474.293, 933.187 466.845, 932.295 456.916, 931.105 446.987, 929.915 437.058, 928.725 427.129, 927.536 420.234, 926.709 410.305, 925.519 400.376, 924.330 390.447, 923.140 380.518, 921.950 370.589, 920.760 363.343, 919.892 " />
            <path fill="none" stroke-width="3.0" stroke-linecap="round" stroke-opacity="1.0" stroke="rgb(0, 0, 0)" stroke-linejoin="round" d=" M 545.507, 941.721 536.036, 938.513 530.284, 936.565 520.813, 933.357 511.341, 930.148 501.870, 926.940 492.399, 923.732 482.927, 920.524 479.124, 919.235 469.652, 916.027 460.181, 912.819 450.709, 909.611 441.238, 906.403 431.767, 903.194 422.295, 899.986 416.340, 897.969 406.868, 894.761 397.397, 891.553 387.926, 888.344 378.454, 885.136 375.270, 884.058 " />
            <path fill="none" stroke-width="3.0" stroke-linecap="round" stroke-opacity="1.0" stroke="rgb(0, 0, 0)" stroke-linejoin="round" d=" M 375.270, 884.058 372.112, 893.546 368.954, 903.034 365.796, 912.523 363.343, 919.892 " />
            <path fill="none" stroke-width="3.0" stroke-linecap="round" stroke-opacity="1.0" stroke="rgb(0, 0, 0)" stroke-linejoin="round" d=" M 487.106, 669.540 489.676, 674.273 499.570, 675.731 509.463, 677.189 519.356, 678.646 522.997, 679.183 526.566, 677.021 533.264, 672.965 541.818, 667.786 542.246, 667.527 548.549, 663.710 553.325, 660.818 561.879, 655.638 570.433, 650.459 578.987, 645.279 582.326, 643.257 588.765, 635.606 595.205, 627.955 601.644, 620.304 604.203, 617.265 610.642, 609.614 617.081, 601.963 619.816, 598.714 " />
            <path fill="none" stroke-width="3.0" stroke-linecap="round" stroke-opacity="1.0" stroke="rgb(0, 0, 0)" stroke-linejoin="round" d=" M 582.326, 643.257 583.873, 653.136 585.421, 663.016 586.631, 670.742 " />
            <path fill="none" stroke-width="3.0" stroke-linecap="round" stroke-opacity="1.0" stroke="rgb(0, 0, 0)" stroke-linejoin="round" d=" M 548.549, 663.710 558.382, 665.526 568.216, 667.342 578.050, 669.158 586.631, 670.742 594.934, 665.168 603.236, 659.594 611.538, 654.020 619.841, 648.445 628.143, 642.871 636.445, 637.297 644.747, 631.723 653.050, 626.149 661.037, 620.786 " />
            <path fill="none" stroke-width="3.0" stroke-linecap="round" stroke-opacity="1.0" stroke="rgb(0, 0, 0)" stroke-linejoin="round" d=" M 293.182, 782.018 287.611, 780.372 287.209, 780.253 287.054, 780.207 286.988, 780.330 284.786, 784.424 283.666, 786.506 282.862, 788.001 280.913, 791.625 280.296, 792.773 278.422, 796.257 273.685, 805.064 268.949, 813.871 264.212, 822.678 259.630, 831.198 258.681, 832.962 255.843, 838.240 251.106, 847.047 247.854, 853.095 256.249, 858.527 264.645, 863.960 273.041, 869.393 281.436, 874.825 289.832, 880.258 298.228, 885.690 306.623, 891.123 315.019, 896.556 323.415, 901.988 331.810, 907.421 333.207, 908.324 342.543, 911.908 351.879, 915.491 361.215, 919.075 363.343, 919.892 371.969, 924.951 380.595, 930.011 389.220, 935.070 397.846, 940.129 406.472, 945.189 415.097, 950.248 419.363, 952.750 427.989, 957.810 429.503, 958.698 438.129, 963.758 438.823, 964.164 443.747, 967.052 448.361, 969.759 453.710, 972.896 462.335, 977.956 463.676, 978.742 465.017, 979.529 473.643, 984.588 482.269, 989.648 490.894, 994.707 499.331, 999.656 499.881, 999.789 509.598, 1002.153 510.287, 1002.321 513.061, 1002.996 522.337, 1005.252 532.054, 1007.616 535.854, 1008.541 544.394, 1010.618 553.819, 1012.911 563.536, 1015.275 573.252, 1017.639 577.976, 1018.788 587.843, 1017.164 597.711, 1015.541 607.578, 1013.917 617.445, 1012.293 620.318, 1011.821 627.970, 1010.562 629.797, 1010.261 639.665, 1008.637 643.464, 1008.012 653.331, 1006.389 655.834, 1005.977 659.949, 996.863 662.097, 992.106 662.506, 991.200 662.520, 991.169 666.635, 982.055 670.751, 972.942 674.866, 963.828 675.697, 961.987 679.812, 952.873 683.928, 943.760 688.043, 934.646 692.159, 925.532 696.274, 916.418 700.389, 907.304 704.505, 898.190 708.620, 889.076 712.735, 879.962 716.851, 870.848 720.966, 861.734 725.082, 852.620 729.197, 843.506 733.312, 834.392 737.428, 825.278 741.846, 815.494 740.163, 805.636 738.479, 795.779 736.796, 785.922 735.113, 776.065 733.429, 766.207 731.746, 756.350 730.063, 746.493 728.379, 736.635 726.696, 726.778 725.013, 716.921 723.329, 707.063 721.646, 697.206 721.250, 694.891 714.944, 687.130 708.638, 679.369 702.332, 671.608 696.026, 663.847 689.720, 656.086 683.414, 648.325 677.108, 640.564 670.802, 632.803 664.495, 625.042 661.037, 620.786 655.417, 612.515 649.797, 604.243 644.177, 595.972 638.557, 587.700 636.972, 585.367 " />
            <path fill="none" stroke-width="3.0" stroke-linecap="round" stroke-opacity="1.0" stroke="rgb(0, 0, 0)" stroke-linejoin="round" d=" M 451.135, 654.870 447.242, 664.081 443.349, 673.293 439.456, 682.504 435.563, 691.715 431.671, 700.926 427.778, 710.137 423.885, 719.349 419.992, 728.560 416.099, 737.771 412.207, 746.982 408.314, 756.193 404.421, 765.405 400.528, 774.616 399.844, 776.234 " />
            <path fill="none" stroke-width="3.0" stroke-linecap="round" stroke-opacity="1.0" stroke="rgb(0, 0, 0)" stroke-linejoin="round" d=" M 399.844, 776.234 407.201, 783.007 414.558, 789.781 421.915, 796.554 429.272, 803.327 436.629, 810.100 443.985, 816.874 451.342, 823.647 458.699, 830.420 463.288, 834.645 " />
            <path fill="none" stroke-width="3.0" stroke-linecap="round" stroke-opacity="1.0" stroke="rgb(0, 0, 0)" stroke-linejoin="round" d=" M 463.288, 834.645 467.260, 825.468 471.232, 816.291 475.204, 807.114 479.176, 797.936 483.148, 788.759 487.120, 779.582 491.092, 770.404 495.064, 761.227 499.036, 752.050 503.008, 742.872 506.980, 733.695 510.952, 724.518 514.924, 715.340 518.896, 706.163 522.868, 696.986 526.840, 687.808 530.812, 678.631 533.264, 672.965 " />
            <path fill="none" stroke-width="3.0" stroke-linecap="round" stroke-opacity="1.0" stroke="rgb(0, 0, 0)" stroke-linejoin="round" d=" M 452.724, 553.849 442.976, 556.080 433.228, 558.310 432.906, 558.384 425.190, 564.744 417.474, 571.104 409.757, 577.465 402.041, 583.826 394.324, 590.186 386.608, 596.547 383.387, 599.201 375.278, 605.053 367.170, 610.905 359.061, 616.757 350.952, 622.609 342.843, 628.462 334.734, 634.314 326.626, 640.166 318.517, 646.018 310.408, 651.870 302.299, 657.722 294.190, 663.574 286.081, 669.426 277.973, 675.278 269.864, 681.131 261.755, 686.983 253.646, 692.835 245.537, 698.687 237.429, 704.539 229.320, 710.391 221.211, 716.243 213.102, 722.095 208.522, 725.401 " />
            <path fill="none" stroke-width="3.0" stroke-linecap="round" stroke-opacity="1.0" stroke="rgb(0, 0, 0)" stroke-linejoin="round" d=" M 499.331, 999.656 509.174, 1001.418 519.018, 1003.181 528.861, 1004.944 538.704, 1006.707 548.548, 1008.470 558.391, 1010.233 568.234, 1011.996 578.078, 1013.759 579.776, 1014.063 " />
            <path fill="none" stroke-width="3.0" stroke-linecap="round" stroke-opacity="1.0" stroke="rgb(0, 0, 0)" stroke-linejoin="round" d=" M 601.297, 998.441 594.284, 991.312 590.322, 987.283 583.310, 980.154 576.297, 973.025 569.285, 965.896 562.273, 958.766 556.547, 952.946 549.535, 945.816 546.121, 942.345 545.507, 941.721 544.136, 941.013 535.252, 936.422 533.223, 935.374 529.692, 933.549 523.832, 930.522 521.424, 929.277 512.540, 924.687 503.656, 920.096 494.772, 915.506 486.600, 911.283 477.716, 906.693 468.832, 902.102 464.064, 899.639 455.180, 895.048 446.296, 890.458 443.963, 889.252 441.051, 887.747 432.167, 883.157 423.283, 878.566 414.399, 873.976 412.990, 873.248 404.106, 868.658 395.222, 864.067 388.103, 860.389 383.737, 851.676 379.225, 842.674 374.745, 833.733 373.953, 832.153 370.395, 826.805 " />
            <path fill="none" stroke-width="3.0" stroke-linecap="round" stroke-opacity="1.0" stroke="rgb(0, 0, 0)" stroke-linejoin="round" d=" M 388.103, 860.389 383.337, 869.180 378.571, 877.971 375.270, 884.058 " />
            <path fill="none" stroke-width="3.0" stroke-linecap="round" stroke-opacity="1.0" stroke="rgb(0, 0, 0)" stroke-linejoin="round" d=" M 247.242, 730.526 237.316, 731.742 227.390, 732.957 217.465, 734.173 214.031, 734.594 204.105, 735.809 194.179, 737.025 184.253, 738.241 181.976, 738.520 " />
            <path fill="none" stroke-width="3.0" stroke-linecap="round" stroke-opacity="1.0" stroke="rgb(0, 0, 0)" stroke-linejoin="round" d=" M 181.976, 738.520 188.152, 746.385 194.328, 754.250 200.503, 762.115 206.679, 769.980 212.855, 777.845 219.031, 785.711 224.222, 792.322 225.640, 794.129 231.816, 801.994 237.992, 809.859 244.168, 817.724 249.898, 825.022 " />
            <path fill="none" stroke-width="3.0" stroke-linecap="round" stroke-opacity="1.0" stroke="rgb(0, 0, 0)" stroke-linejoin="round" d=" M 249.898, 825.022 254.066, 815.932 258.234, 806.842 262.401, 797.752 266.569, 788.662 267.251, 787.173 " />
            <path fill="none" stroke-width="3.0" stroke-linecap="round" stroke-opacity="1.0" stroke="rgb(0, 0, 0)" stroke-linejoin="round" d=" M 286.988, 780.330 279.015, 783.094 269.567, 786.370 267.251, 787.173 263.921, 777.744 261.237, 770.147 257.907, 760.718 254.576, 751.289 251.246, 741.860 247.915, 732.431 247.242, 730.526 " />
            <path fill="none" stroke-width="3.0" stroke-linecap="round" stroke-opacity="1.0" stroke="rgb(0, 0, 0)" stroke-linejoin="round" d=" M 273.925, 763.473 282.776, 758.818 291.626, 754.163 300.476, 749.507 309.327, 744.852 318.177, 740.197 327.027, 735.541 335.878, 730.886 344.728, 726.231 353.578, 721.576 362.429, 716.920 371.279, 712.265 380.129, 707.610 388.979, 702.954 397.830, 698.299 406.680, 693.644 415.078, 689.226 422.318, 682.328 429.558, 675.429 436.798, 668.531 444.037, 661.633 451.135, 654.870 " />
            <path fill="none" stroke-width="3.0" stroke-linecap="round" stroke-opacity="1.0" stroke="rgb(0, 0, 0)" stroke-linejoin="round" d=" M 469.235, 641.142 461.267, 647.185 453.300, 653.228 451.135, 654.870 442.390, 659.722 433.646, 664.573 424.902, 669.425 416.157, 674.276 407.413, 679.128 398.669, 683.980 389.925, 688.831 381.180, 693.683 372.436, 698.534 363.692, 703.386 354.948, 708.237 346.203, 713.089 337.459, 717.941 328.715, 722.792 319.970, 727.644 311.226, 732.495 302.482, 737.347 293.738, 742.198 284.993, 747.050 276.249, 751.901 268.180, 756.379 " />
            <path fill="none" stroke-width="3.0" stroke-linecap="round" stroke-opacity="1.0" stroke="rgb(0, 0, 0)" stroke-linejoin="round" d=" M 499.621, 1151.702 494.743, 1160.431 489.864, 1169.161 484.985, 1177.890 480.106, 1186.619 475.227, 1195.348 472.516, 1200.199 480.940, 1194.810 489.364, 1189.422 497.788, 1184.034 506.212, 1178.645 514.636, 1173.257 523.060, 1167.869 527.633, 1164.944 " />
            <path fill="none" stroke-width="3.0" stroke-linecap="round" stroke-opacity="1.0" stroke="rgb(0, 0, 0)" stroke-linejoin="round" d=" M 558.355, 629.252 567.218, 624.622 574.244, 620.952 566.998, 627.843 559.753, 634.735 555.155, 639.108 547.909, 646.000 542.827, 650.834 539.573, 660.290 536.395, 669.526 " />
            <path fill="none" stroke-width="3.0" stroke-linecap="round" stroke-opacity="1.0" stroke="rgb(0, 0, 0)" stroke-linejoin="round" d=" M 451.135, 654.870 443.408, 648.521 435.682, 642.173 427.956, 635.824 420.230, 629.475 412.504, 623.127 404.778, 616.778 397.051, 610.429 389.325, 604.080 383.387, 599.201 " />
            <path fill="none" stroke-width="3.0" stroke-linecap="round" stroke-opacity="1.0" stroke="rgb(0, 0, 0)" stroke-linejoin="round" d=" M 601.297, 998.441 593.204, 1004.316 585.111, 1010.190 579.776, 1014.063 577.976, 1018.788 " />
            <path fill="none" stroke-width="3.0" stroke-linecap="round" stroke-opacity="1.0" stroke="rgb(0, 0, 0)" stroke-linejoin="round" d=" M 655.834, 1005.977 645.928, 1004.608 636.022, 1003.239 626.116, 1001.870 616.210, 1000.502 606.304, 999.133 601.297, 998.441 605.393, 989.319 609.490, 980.196 613.586, 971.074 617.682, 961.951 618.372, 960.416 622.468, 951.294 623.089, 949.912 627.185, 940.789 631.281, 931.667 635.378, 922.544 639.474, 913.422 643.571, 904.300 647.667, 895.177 651.764, 886.055 655.860, 876.932 659.957, 867.810 664.053, 858.687 668.149, 849.565 672.246, 840.442 676.342, 831.320 680.439, 822.197 684.745, 812.608 685.738, 810.396 687.568, 800.565 689.399, 790.734 691.229, 780.903 693.059, 771.072 694.890, 761.241 696.720, 751.410 697.871, 745.230 " />
            <path fill="none" stroke-width="3.0" stroke-linecap="round" stroke-opacity="1.0" stroke="rgb(0, 0, 0)" stroke-linejoin="round" d=" M 616.467, 770.479 625.132, 775.472 633.796, 780.465 642.460, 785.458 651.125, 790.451 659.789, 795.444 668.454, 800.436 677.118, 805.429 685.738, 810.396 686.966, 810.508 696.925, 811.413 704.813, 812.129 714.772, 813.034 724.731, 813.939 734.690, 814.844 741.846, 815.494 " />
            <path fill="none" stroke-width="3.0" stroke-linecap="round" stroke-opacity="1.0" stroke="rgb(0, 0, 0)" stroke-linejoin="round" d=" M 697.871, 745.230 688.320, 748.193 678.769, 751.155 669.217, 754.118 659.666, 757.080 650.115, 760.043 640.564, 763.005 631.013, 765.968 621.462, 768.930 616.467, 770.479 " />
            <path fill="none" stroke-width="3.0" stroke-linecap="round" stroke-opacity="1.0" stroke="rgb(0, 0, 0)" stroke-linejoin="round" d=" M 333.207, 908.324 341.869, 903.327 343.332, 902.483 351.994, 897.486 360.656, 892.489 363.047, 891.110 371.709, 886.113 375.270, 884.058 375.017, 874.061 374.877, 868.562 374.623, 858.565 374.369, 848.569 374.116, 838.572 373.953, 832.153 365.369, 827.022 356.786, 821.891 348.202, 816.760 339.619, 811.629 331.036, 806.498 322.452, 801.367 313.869, 796.237 305.286, 791.106 296.702, 785.975 287.876, 780.698 287.159, 780.270 287.054, 780.207 " />
            <path fill="none" stroke-width="3.0" stroke-linecap="round" stroke-opacity="1.0" stroke="rgb(0, 0, 0)" stroke-linejoin="round" d=" M 373.953, 832.153 369.236, 840.970 364.519, 849.788 359.802, 858.606 355.086, 867.424 350.369, 876.241 345.652, 885.059 340.935, 893.877 338.262, 898.874 333.545, 907.692 333.207, 908.324 " />
            <path fill="none" stroke-width="3.0" stroke-linecap="round" stroke-opacity="1.0" stroke="rgb(0, 0, 0)" stroke-linejoin="round" d=" M 632.186, 508.973 632.164, 509.098 630.471, 518.954 628.778, 528.809 627.085, 538.665 625.392, 548.521 623.699, 558.376 622.005, 568.232 620.312, 578.088 618.619, 587.943 616.926, 597.801 616.299, 601.450 " />
            <path fill="none" stroke-width="3.0" stroke-linecap="round" stroke-opacity="1.0" stroke="rgb(0, 0, 0)" stroke-linejoin="round" d=" M 456.144, 548.354 452.724, 553.849 449.761, 558.610 444.476, 567.099 441.971, 571.123 442.178, 581.121 442.302, 587.089 442.509, 597.087 442.567, 599.884 444.756, 602.776 450.791, 610.749 456.826, 618.723 462.861, 626.696 464.579, 628.965 465.598, 629.347 468.900, 630.583 469.608, 630.849 470.376, 631.136 475.395, 633.016 475.590, 633.089 475.841, 633.183 478.444, 634.158 479.344, 634.495 483.181, 635.932 485.794, 636.911 487.015, 637.368 492.121, 639.281 501.486, 642.788 505.221, 644.188 506.228, 644.046 513.477, 643.025 523.311, 641.640 528.997, 640.839 530.094, 640.685 535.229, 639.961 538.643, 639.480 542.764, 637.216 550.156, 633.154 550.285, 633.083 550.407, 633.016 552.991, 631.596 559.001, 628.294 567.765, 623.478 573.143, 620.523 575.601, 619.437 584.747, 615.395 593.894, 611.352 596.797, 610.069 599.929, 608.685 609.075, 604.643 613.058, 602.883 616.299, 601.450 619.816, 598.714 621.176, 597.656 626.930, 593.179 634.823, 587.039 636.972, 585.367 644.865, 579.227 652.757, 573.086 660.650, 566.946 668.543, 560.805 671.006, 558.889 " />
            <path fill="none" stroke-width="3.0" stroke-linecap="round" stroke-opacity="1.0" stroke="rgb(0, 0, 0)" stroke-linejoin="round" d=" M 671.006, 558.889 672.544, 549.008 674.082, 539.127 675.620, 529.246 677.157, 519.365 678.695, 509.484 680.233, 499.603 681.771, 489.722 683.309, 479.841 684.847, 469.960 685.932, 462.985 680.094, 454.866 674.256, 446.747 668.418, 438.628 662.580, 430.509 656.742, 422.390 650.904, 414.271 649.086, 411.743 639.658, 408.411 630.229, 405.079 620.801, 401.746 611.372, 398.414 601.944, 395.082 592.516, 391.750 583.087, 388.417 577.869, 386.573 568.620, 390.375 559.371, 394.177 551.034, 397.605 " />
            <path fill="none" stroke-width="3.0" stroke-linecap="round" stroke-opacity="1.0" stroke="rgb(0, 0, 0)" stroke-linejoin="round" d=" M 685.932, 462.985 678.334, 469.486 670.736, 475.988 663.138, 482.489 655.468, 489.051 647.870, 495.552 640.272, 502.054 632.674, 508.555 632.186, 508.973 632.000, 509.038 622.568, 512.360 613.136, 515.683 603.704, 519.005 594.273, 522.328 584.841, 525.650 575.409, 528.973 566.492, 532.114 556.983, 529.018 547.474, 525.923 537.965, 522.828 528.457, 519.732 518.948, 516.637 509.439, 513.542 507.355, 512.863 501.333, 510.903 " />
            <path fill="none" stroke-width="3.0" stroke-linecap="round" stroke-opacity="1.0" stroke="rgb(0, 0, 0)" stroke-linejoin="round" d=" M 267.251, 787.173 265.412, 797.003 263.572, 806.832 261.732, 816.661 259.893, 826.491 258.681, 832.962 " />
            <path fill="none" stroke-width="3.0" stroke-linecap="round" stroke-opacity="1.0" stroke="rgb(0, 0, 0)" stroke-linejoin="round" d=" M 383.737, 851.676 388.383, 842.821 392.805, 834.393 384.893, 828.277 376.981, 822.161 369.069, 816.045 361.157, 809.929 353.245, 803.814 345.334, 797.698 337.422, 791.582 329.510, 785.466 328.769, 784.894 319.117, 782.278 309.466, 779.662 299.814, 777.046 297.929, 776.536 288.481, 779.812 287.448, 780.170 287.209, 780.253 " />
            <path fill="none" stroke-width="3.0" stroke-linecap="round" stroke-opacity="1.0" stroke="rgb(0, 0, 0)" stroke-linejoin="round" d=" M 287.448, 780.170 281.154, 772.399 274.860, 764.628 273.925, 763.473 268.180, 756.379 261.886, 748.608 255.592, 740.837 249.299, 733.065 247.242, 730.526 241.402, 729.753 231.488, 728.441 221.575, 727.129 213.550, 726.067 208.522, 725.401 199.557, 729.832 190.592, 734.262 181.976, 738.520 187.042, 747.142 192.108, 755.763 197.175, 764.385 202.241, 773.007 207.307, 781.628 212.373, 790.250 217.439, 798.872 218.455, 800.601 226.353, 806.735 234.251, 812.869 242.149, 819.003 249.898, 825.022 254.000, 834.142 255.843, 838.240 " />
            <path fill="none" stroke-width="3.0" stroke-linecap="round" stroke-opacity="1.0" stroke="rgb(0, 0, 0)" stroke-linejoin="round" d=" M 401.478, 1073.903 408.450, 1081.072 409.028, 1081.667 416.000, 1088.835 422.972, 1096.004 429.944, 1103.173 435.897, 1109.293 442.869, 1116.462 449.841, 1123.630 456.813, 1130.799 458.012, 1132.032 467.052, 1136.306 472.779, 1139.013 481.820, 1143.287 490.861, 1147.561 495.445, 1149.728 499.621, 1151.702 508.662, 1155.976 517.703, 1160.250 526.744, 1164.524 527.633, 1164.944 535.349, 1168.592 543.563, 1166.633 546.633, 1165.900 552.245, 1164.561 559.055, 1162.937 559.878, 1162.741 561.723, 1162.300 568.569, 1160.667 " />
            <path fill="none" stroke-width="3.0" stroke-linecap="round" stroke-opacity="1.0" stroke="rgb(0, 0, 0)" stroke-linejoin="round" d=" M 458.012, 1132.032 458.494, 1122.044 458.977, 1112.055 459.460, 1102.067 459.942, 1092.079 460.425, 1082.090 460.908, 1072.102 461.390, 1062.114 461.873, 1052.125 462.356, 1042.137 462.838, 1032.149 463.321, 1022.160 463.804, 1012.172 464.286, 1002.183 464.769, 992.195 465.089, 985.566 " />
            <path fill="none" stroke-width="3.0" stroke-linecap="round" stroke-opacity="1.0" stroke="rgb(0, 0, 0)" stroke-linejoin="round" d=" M 465.089, 985.566 458.407, 978.126 453.710, 972.896 " />
            <path fill="none" stroke-width="3.0" stroke-linecap="round" stroke-opacity="1.0" stroke="rgb(0, 0, 0)" stroke-linejoin="round" d=" M 297.929, 776.536 306.176, 782.192 314.423, 787.847 322.670, 793.503 330.917, 799.159 339.164, 804.815 347.411, 810.471 355.658, 816.127 363.904, 821.783 372.151, 827.438 380.398, 833.094 383.300, 835.084 " />
            <path fill="none" stroke-width="3.0" stroke-linecap="round" stroke-opacity="1.0" stroke="rgb(0, 0, 0)" stroke-linejoin="round" d=" M 379.225, 842.674 383.300, 835.084 392.805, 834.393 " />
            <path fill="none" stroke-width="3.0" stroke-linecap="round" stroke-opacity="1.0" stroke="rgb(0, 0, 0)" stroke-linejoin="round" d=" M 554.882, 885.862 564.209, 882.257 573.537, 878.653 582.021, 875.375 " />
            <path fill="none" stroke-width="3.0" stroke-linecap="round" stroke-opacity="1.0" stroke="rgb(0, 0, 0)" stroke-linejoin="round" d=" M 616.467, 770.479 611.758, 779.301 607.050, 788.123 602.341, 796.945 597.632, 805.767 592.923, 814.589 588.215, 823.411 583.506, 832.233 578.797, 841.055 574.088, 849.877 569.380, 858.699 564.671, 867.521 559.962, 876.343 554.882, 885.862 " />
            <path fill="none" stroke-width="3.0" stroke-linecap="round" stroke-opacity="1.0" stroke="rgb(0, 0, 0)" stroke-linejoin="round" d=" M 616.467, 770.479 613.347, 779.980 610.227, 789.481 607.107, 798.982 603.987, 808.483 600.867, 817.984 597.747, 827.484 594.628, 836.985 591.508, 846.486 588.388, 855.987 585.268, 865.488 583.784, 870.007 582.021, 875.375 578.901, 884.876 575.781, 894.377 572.661, 903.878 570.868, 909.336 567.748, 918.837 566.701, 922.028 565.260, 926.413 564.847, 927.673 563.402, 932.072 562.636, 934.404 559.516, 943.905 556.547, 952.946 " />
            <path fill="none" stroke-width="3.0" stroke-linecap="round" stroke-opacity="1.0" stroke="rgb(0, 0, 0)" stroke-linejoin="round" d=" M 542.246, 667.527 548.094, 675.638 553.942, 683.750 559.790, 691.862 565.638, 699.974 571.486, 708.086 577.334, 716.197 583.182, 724.309 589.030, 732.421 594.878, 740.533 600.726, 748.645 606.574, 756.756 612.422, 764.868 616.467, 770.479 613.601, 760.899 610.735, 751.318 607.869, 741.738 605.003, 732.157 602.137, 722.577 599.271, 712.996 596.406, 703.416 593.540, 693.835 590.674, 684.255 587.808, 674.674 586.631, 670.742 " />
            <path fill="none" stroke-width="3.0" stroke-linecap="round" stroke-opacity="1.0" stroke="rgb(0, 0, 0)" stroke-linejoin="round" d=" M 586.813, 1695.227 589.915, 1685.721 593.018, 1676.214 596.121, 1666.708 599.223, 1657.201 601.097, 1651.460 " />
            <path fill="none" stroke-width="3.0" stroke-linecap="round" stroke-opacity="1.0" stroke="rgb(0, 0, 0)" stroke-linejoin="round" d=" M 601.097, 1651.460 600.138, 1641.506 599.180, 1631.552 598.221, 1621.599 597.263, 1611.645 596.304, 1601.691 595.346, 1591.737 594.387, 1581.783 593.429, 1571.829 592.470, 1561.875 591.511, 1551.921 590.553, 1541.967 590.111, 1537.382 598.203, 1543.259 606.294, 1549.135 614.385, 1555.011 622.477, 1560.887 630.568, 1566.764 634.377, 1569.530 " />
            <path fill="none" stroke-width="3.0" stroke-linecap="round" stroke-opacity="1.0" stroke="rgb(0, 0, 0)" stroke-linejoin="round" d=" M 721.250, 694.891 717.038, 703.961 712.826, 713.030 708.614, 722.100 704.401, 731.169 700.189, 740.239 697.871, 745.230 695.033, 735.641 692.194, 726.052 689.356, 716.464 686.518, 706.875 683.680, 697.286 680.842, 687.697 678.004, 678.109 675.166, 668.520 672.327, 658.931 669.489, 649.342 666.651, 639.753 663.813, 630.165 661.037, 620.786 " />
            <path fill="none" stroke-width="3.0" stroke-linecap="round" stroke-opacity="1.0" stroke="rgb(0, 0, 0)" stroke-linejoin="round" d=" M 554.882, 885.862 553.349, 895.744 552.553, 900.874 551.021, 910.756 549.488, 920.638 548.140, 929.330 546.607, 939.212 546.121, 942.345 " />
            <path fill="none" stroke-width="3.0" stroke-linecap="round" stroke-opacity="1.0" stroke="rgb(0, 0, 0)" stroke-linejoin="round" d=" M 534.538, 1017.030 544.317, 1014.941 553.819, 1012.911 " />
            <path fill="none" stroke-width="3.0" stroke-linecap="round" stroke-opacity="1.0" stroke="rgb(0, 0, 0)" stroke-linejoin="round" d=" M 554.882, 885.862 546.153, 880.981 537.425, 876.101 528.697, 871.220 519.969, 866.340 511.241, 861.459 502.513, 856.578 493.784, 851.698 485.056, 846.818 476.328, 841.937 467.600, 837.057 463.288, 834.645 463.408, 844.645 463.527, 854.644 463.646, 864.643 463.766, 874.643 463.885, 884.642 464.004, 894.641 464.064, 899.639 " />
            <path fill="none" stroke-width="3.0" stroke-linecap="round" stroke-opacity="1.0" stroke="rgb(0, 0, 0)" stroke-linejoin="round" d=" M 465.017, 979.529 465.089, 985.566 474.198, 989.693 483.307, 993.819 492.416, 997.946 501.524, 1002.073 510.633, 1006.200 519.742, 1010.327 528.851, 1014.453 534.538, 1017.030 " />
            <path fill="none" stroke-width="3.0" stroke-linecap="round" stroke-opacity="1.0" stroke="rgb(0, 0, 0)" stroke-linejoin="round" d=" M 415.078, 689.226 413.354, 699.076 411.629, 708.926 409.905, 718.777 408.180, 728.627 406.455, 738.477 404.731, 748.327 403.006, 758.177 401.281, 768.027 399.844, 776.234 401.187, 786.143 402.530, 796.053 403.873, 805.962 405.215, 815.872 406.558, 825.781 407.901, 835.691 409.244, 845.600 410.586, 855.510 411.929, 865.419 412.990, 873.248 " />
            <path fill="none" stroke-width="3.0" stroke-linecap="round" stroke-opacity="1.0" stroke="rgb(0, 0, 0)" stroke-linejoin="round" d=" M 535.349, 1168.592 535.305, 1160.314 535.251, 1150.314 535.198, 1140.314 535.144, 1130.314 535.091, 1120.314 535.035, 1109.892 534.981, 1099.892 534.928, 1089.892 534.874, 1079.893 534.821, 1069.893 534.767, 1059.893 534.714, 1049.893 534.660, 1039.893 534.607, 1029.893 534.553, 1019.893 534.538, 1017.030 535.854, 1008.541 " />
            <path fill="none" stroke-width="3.0" stroke-linecap="round" stroke-opacity="1.0" stroke="rgb(0, 0, 0)" stroke-linejoin="round" d=" M 442.887, 1680.390 445.835, 1670.834 448.784, 1661.279 451.732, 1651.723 454.681, 1642.168 456.531, 1636.170 " />
            <path fill="none" stroke-width="3.0" stroke-linecap="round" stroke-opacity="1.0" stroke="rgb(0, 0, 0)" stroke-linejoin="round" d=" M 456.531, 1636.170 457.391, 1626.207 458.250, 1616.244 459.109, 1606.281 459.968, 1596.318 460.827, 1586.355 461.686, 1576.392 462.545, 1566.429 463.404, 1556.466 464.263, 1546.503 465.123, 1536.539 466.065, 1525.613 473.797, 1531.955 481.528, 1538.297 489.260, 1544.638 496.992, 1550.980 502.607, 1555.587 " />
            <path fill="none" stroke-width="3.0" stroke-linecap="round" stroke-opacity="1.0" stroke="rgb(0, 0, 0)" stroke-linejoin="round" d=" M 615.250, 1181.434 621.483, 1173.614 627.716, 1165.795 633.949, 1157.975 640.182, 1150.155 646.649, 1142.042 " />
            <path fill="none" stroke-width="3.0" stroke-linecap="round" stroke-opacity="1.0" stroke="rgb(0, 0, 0)" stroke-linejoin="round" d=" M 659.691, 1125.679 665.924, 1117.860 672.157, 1110.040 678.390, 1102.220 684.623, 1094.400 685.274, 1093.584 680.209, 1084.962 678.452, 1081.972 " />
            <path fill="none" stroke-width="3.0" stroke-linecap="round" stroke-opacity="1.0" stroke="rgb(0, 0, 0)" stroke-linejoin="round" d=" M 703.162, 1024.405 699.135, 1015.252 695.107, 1006.099 691.080, 996.946 687.052, 987.793 683.025, 978.640 678.997, 969.487 675.697, 961.987 " />
            <path fill="none" stroke-width="3.0" stroke-linecap="round" stroke-opacity="1.0" stroke="rgb(0, 0, 0)" stroke-linejoin="round" d=" M 646.649, 1142.042 648.789, 1141.531 653.354, 1140.442 657.299, 1131.253 659.691, 1125.679 663.636, 1116.490 667.580, 1107.301 671.524, 1098.112 675.469, 1088.922 675.931, 1087.846 " />
            <path fill="none" stroke-width="3.0" stroke-linecap="round" stroke-opacity="1.0" stroke="rgb(0, 0, 0)" stroke-linejoin="round" d=" M 432.906, 558.384 442.906, 558.518 449.761, 558.610 " />
            <path fill="none" stroke-width="3.0" stroke-linecap="round" stroke-opacity="1.0" stroke="rgb(0, 0, 0)" stroke-linejoin="round" d=" M 451.135, 654.870 449.278, 645.044 447.422, 635.218 445.566, 625.392 443.709, 615.566 441.853, 605.739 439.996, 595.913 438.140, 586.087 436.284, 576.261 434.427, 566.435 432.906, 558.384 " />
            <path fill="none" stroke-width="3.0" stroke-linecap="round" stroke-opacity="1.0" stroke="rgb(0, 0, 0)" stroke-linejoin="round" d=" M 672.058, 1533.832 664.798, 1540.710 657.539, 1547.587 650.279, 1554.465 643.020, 1561.343 635.760, 1568.220 634.377, 1569.530 630.614, 1578.795 626.851, 1588.060 623.087, 1597.325 619.324, 1606.590 615.560, 1615.854 611.797, 1625.119 608.033, 1634.384 604.270, 1643.649 601.097, 1651.460 600.089, 1661.409 599.080, 1671.358 598.072, 1681.307 597.064, 1691.257 596.055, 1701.206 595.745, 1704.266 595.055, 1714.242 594.364, 1724.218 593.674, 1734.195 592.984, 1744.171 592.916, 1745.141 " />
            <path fill="none" stroke-width="3.0" stroke-linecap="round" stroke-opacity="1.0" stroke="rgb(0, 0, 0)" stroke-linejoin="round" d=" M 672.058, 1533.832 672.983, 1543.789 673.908, 1553.747 674.833, 1563.704 675.758, 1573.661 676.682, 1583.618 677.607, 1593.575 678.532, 1603.532 679.457, 1613.489 680.382, 1623.446 681.307, 1633.404 682.232, 1643.361 682.657, 1647.929 " />
            <path fill="none" stroke-width="3.0" stroke-linecap="round" stroke-opacity="1.0" stroke="rgb(0, 0, 0)" stroke-linejoin="round" d=" M 543.578, 1690.587 542.522, 1680.643 541.466, 1670.699 540.410, 1660.755 539.354, 1650.810 538.298, 1640.866 538.025, 1638.298 534.089, 1629.105 530.152, 1619.912 526.216, 1610.720 522.279, 1601.527 518.343, 1592.334 514.406, 1583.142 510.470, 1573.949 506.534, 1564.756 502.607, 1555.587 510.992, 1550.137 519.377, 1544.688 527.762, 1539.239 536.147, 1533.790 544.531, 1528.341 548.009, 1526.081 " />
            <path fill="none" stroke-width="3.0" stroke-linecap="round" stroke-opacity="1.0" stroke="rgb(0, 0, 0)" stroke-linejoin="round" d=" M 502.607, 1555.587 497.643, 1564.268 492.680, 1572.949 487.716, 1581.630 482.752, 1590.311 477.789, 1598.992 472.825, 1607.673 467.861, 1616.354 462.898, 1625.036 457.934, 1633.717 456.531, 1636.170 " />
            <path fill="none" stroke-width="3.0" stroke-linecap="round" stroke-opacity="1.0" stroke="rgb(0, 0, 0)" stroke-linejoin="round" d=" M 451.659, 1672.770 452.978, 1662.857 454.298, 1652.945 455.618, 1643.032 456.531, 1636.170 466.528, 1636.431 476.525, 1636.692 486.521, 1636.953 496.518, 1637.214 506.514, 1637.475 516.511, 1637.736 526.508, 1637.997 536.504, 1638.258 538.025, 1638.298 " />
            <path fill="none" stroke-width="3.0" stroke-linecap="round" stroke-opacity="1.0" stroke="rgb(0, 0, 0)" stroke-linejoin="round" d=" M 552.590, 1683.356 549.514, 1673.841 546.438, 1664.326 543.363, 1654.811 540.287, 1645.295 538.025, 1638.298 538.911, 1628.337 539.797, 1618.376 540.684, 1608.416 541.570, 1598.455 542.456, 1588.494 543.342, 1578.534 544.228, 1568.573 545.115, 1558.612 546.001, 1548.652 546.887, 1538.691 547.773, 1528.730 548.009, 1526.081 " />
            <path fill="none" stroke-width="3.0" stroke-linecap="round" stroke-opacity="1.0" stroke="rgb(0, 0, 0)" stroke-linejoin="round" d=" M 481.325, 594.120 482.416, 584.180 483.507, 574.240 484.599, 564.300 485.690, 554.359 486.597, 546.099 487.688, 536.159 488.779, 526.219 489.149, 522.852 490.240, 512.911 490.836, 507.486 " />
            <path fill="none" stroke-width="3.0" stroke-linecap="round" stroke-opacity="1.0" stroke="rgb(0, 0, 0)" stroke-linejoin="round" d=" M 495.062, 508.862 490.836, 507.486 489.486, 505.210 " />
            <path fill="none" stroke-width="3.0" stroke-linecap="round" stroke-opacity="1.0" stroke="rgb(0, 0, 0)" stroke-linejoin="round" d=" M 455.984, 551.143 457.003, 552.870 457.932, 554.447 460.379, 558.597 465.458, 567.211 468.109, 571.706 473.188, 580.320 478.267, 588.934 481.325, 594.120 490.722, 597.540 500.119, 600.960 509.516, 604.380 515.209, 606.452 517.695, 607.357 527.093, 610.777 534.952, 613.638 544.349, 617.058 553.746, 620.478 554.348, 620.697 " />
            <path fill="none" stroke-width="3.0" stroke-linecap="round" stroke-opacity="1.0" stroke="rgb(0, 0, 0)" stroke-linejoin="round" d=" M 552.562, 1374.091 544.654, 1380.212 536.746, 1386.332 528.837, 1392.452 520.929, 1398.573 513.021, 1404.693 505.112, 1410.813 497.204, 1416.933 489.296, 1423.054 483.171, 1427.793 476.577, 1420.276 469.983, 1412.758 463.388, 1405.240 456.794, 1397.723 450.200, 1390.205 443.605, 1382.687 437.011, 1375.170 431.601, 1369.002 " />
            <path fill="none" stroke-width="3.0" stroke-linecap="round" stroke-opacity="1.0" stroke="rgb(0, 0, 0)" stroke-linejoin="round" d=" M 601.097, 1651.460 611.087, 1651.028 621.078, 1650.595 631.069, 1650.163 641.059, 1649.730 651.050, 1649.298 661.041, 1648.865 671.031, 1648.432 681.022, 1648.000 682.657, 1647.929 677.413, 1639.414 672.169, 1630.899 666.926, 1622.384 661.682, 1613.869 656.438, 1605.354 651.195, 1596.840 645.951, 1588.325 640.708, 1579.810 635.464, 1571.295 634.377, 1569.530 " />
            <path fill="none" stroke-width="3.0" stroke-linecap="round" stroke-opacity="1.0" stroke="rgb(0, 0, 0)" stroke-linejoin="round" d=" M 441.253, 1712.747 443.772, 1703.070 446.291, 1693.392 448.810, 1683.715 451.329, 1674.037 451.659, 1672.770 461.476, 1674.673 471.293, 1676.576 481.110, 1678.479 490.928, 1680.381 500.745, 1682.284 510.562, 1684.187 520.379, 1686.090 530.197, 1687.993 540.014, 1689.896 543.578, 1690.587 544.351, 1700.557 545.123, 1710.527 545.896, 1720.497 546.668, 1730.467 546.804, 1732.212 " />
            <path fill="none" stroke-width="3.0" stroke-linecap="round" stroke-opacity="1.0" stroke="rgb(0, 0, 0)" stroke-linejoin="round" d=" M 472.324, 1288.660 482.152, 1286.808 491.979, 1284.957 501.806, 1283.105 511.633, 1281.253 521.460, 1279.402 531.287, 1277.550 541.114, 1275.699 546.140, 1274.752 539.598, 1282.315 533.056, 1289.878 526.513, 1297.441 519.971, 1305.004 513.429, 1312.567 506.887, 1320.130 500.344, 1327.693 493.802, 1335.255 487.260, 1342.818 480.717, 1350.381 475.720, 1356.159 " />
            <path fill="none" stroke-width="3.0" stroke-linecap="round" stroke-opacity="1.0" stroke="rgb(0, 0, 0)" stroke-linejoin="round" d=" M 559.878, 1162.741 562.088, 1163.487 571.563, 1166.685 581.037, 1169.884 590.512, 1173.083 599.986, 1176.281 609.461, 1179.480 615.250, 1181.434 605.325, 1180.208 595.401, 1178.982 585.476, 1177.756 575.552, 1176.530 565.725, 1175.316 571.691, 1183.342 577.657, 1191.367 583.623, 1199.392 589.589, 1207.418 595.555, 1215.443 601.521, 1223.468 607.488, 1231.494 613.454, 1239.519 619.420, 1247.544 625.386, 1255.570 631.352, 1263.595 632.469, 1265.098 638.696, 1257.273 644.923, 1249.449 651.151, 1241.624 657.378, 1233.800 663.605, 1225.976 669.833, 1218.151 676.060, 1210.327 682.287, 1202.503 688.514, 1194.678 694.742, 1186.854 698.660, 1181.931 " />
            <path fill="none" stroke-width="3.0" stroke-linecap="round" stroke-opacity="1.0" stroke="rgb(0, 0, 0)" stroke-linejoin="round" d=" M 568.807, 1398.452 576.837, 1404.412 584.867, 1410.372 592.897, 1416.331 600.927, 1422.291 608.957, 1428.251 616.987, 1434.211 625.017, 1440.170 633.047, 1446.130 639.652, 1451.032 645.694, 1443.064 651.737, 1435.096 657.779, 1427.128 663.821, 1419.160 669.864, 1411.192 675.906, 1403.224 681.948, 1395.256 687.990, 1387.288 689.584, 1385.186 " />
            <path fill="none" stroke-width="3.0" stroke-linecap="round" stroke-opacity="1.0" stroke="rgb(0, 0, 0)" stroke-linejoin="round" d=" M 577.869, 386.573 569.337, 391.788 560.804, 397.002 552.271, 402.217 550.765, 403.137 " />
            <path fill="none" stroke-width="3.0" stroke-linecap="round" stroke-opacity="1.0" stroke="rgb(0, 0, 0)" stroke-linejoin="round" d=" M 490.836, 507.486 493.950, 505.602 494.438, 505.307 " />
            <path fill="none" stroke-width="3.0" stroke-linecap="round" stroke-opacity="1.0" stroke="rgb(0, 0, 0)" stroke-linejoin="round" d=" M 566.492, 532.114 567.242, 542.086 567.992, 552.057 568.468, 558.381 569.218, 568.353 569.257, 568.872 570.007, 578.844 570.757, 588.816 571.508, 598.787 572.258, 608.759 572.362, 610.148 573.112, 620.119 573.143, 620.523 564.184, 620.606 554.348, 620.697 " />
            <path fill="none" stroke-width="3.0" stroke-linecap="round" stroke-opacity="1.0" stroke="rgb(0, 0, 0)" stroke-linejoin="round" d=" M 464.579, 628.965 465.150, 627.777 467.383, 623.130 468.212, 621.406 472.543, 612.393 476.875, 603.380 481.325, 594.120 " />
            <path fill="none" stroke-width="3.0" stroke-linecap="round" stroke-opacity="1.0" stroke="rgb(0, 0, 0)" stroke-linejoin="round" d=" M 481.325, 594.120 471.434, 595.591 464.784, 596.580 462.757, 596.882 459.938, 597.301 459.089, 597.427 449.198, 598.898 442.567, 599.884 " />
            <path fill="none" stroke-width="3.0" stroke-linecap="round" stroke-opacity="1.0" stroke="rgb(0, 0, 0)" stroke-linejoin="round" d=" M 481.325, 594.120 489.166, 600.326 497.008, 606.532 504.849, 612.737 512.691, 618.943 520.533, 625.148 528.374, 631.354 536.216, 637.560 538.643, 639.480 540.788, 636.915 547.203, 629.243 553.617, 621.571 554.348, 620.697 555.706, 610.789 557.065, 600.882 558.423, 590.975 559.753, 581.275 561.111, 571.367 562.469, 561.460 563.084, 556.976 564.442, 547.068 565.800, 537.161 566.492, 532.114 575.147, 527.104 583.802, 522.095 592.457, 517.086 601.112, 512.077 609.767, 507.068 616.313, 503.279 624.968, 498.270 633.623, 493.260 642.278, 488.251 650.941, 483.237 659.596, 478.228 668.251, 473.219 676.906, 468.210 685.560, 463.200 685.932, 462.985 " />
            <path fill="none" stroke-width="3.0" stroke-linecap="round" stroke-opacity="1.0" stroke="rgb(0, 0, 0)" stroke-linejoin="round" d=" M 505.221, 644.188 500.914, 635.163 500.402, 634.090 500.337, 633.955 496.030, 624.930 491.723, 615.906 487.415, 606.881 483.108, 597.856 481.325, 594.120 472.691, 589.075 466.287, 585.333 459.277, 581.236 458.811, 580.964 450.177, 575.919 441.971, 571.123 447.713, 562.936 453.455, 554.749 454.346, 553.478 455.984, 551.143 456.144, 548.354 456.719, 538.371 457.294, 528.387 457.868, 518.404 458.443, 508.420 458.783, 502.513 " />
            <path fill="none" stroke-width="3.0" stroke-linecap="round" stroke-opacity="1.0" stroke="rgb(0, 0, 0)" stroke-linejoin="round" d=" M 470.382, 633.535 468.728, 640.299 " />
            <path fill="none" stroke-width="3.0" stroke-linecap="round" stroke-opacity="1.0" stroke="rgb(0, 0, 0)" stroke-linejoin="round" d=" M 536.395, 669.526 526.759, 666.850 517.124, 664.174 511.507, 662.615 " />
            <path fill="none" stroke-width="3.0" stroke-linecap="round" stroke-opacity="1.0" stroke="rgb(0, 0, 0)" stroke-linejoin="round" d=" M 473.810, 638.797 473.320, 638.044 471.183, 634.764 470.382, 633.535 469.608, 630.849 " />
            <path fill="none" stroke-width="3.0" stroke-linecap="round" stroke-opacity="1.0" stroke="rgb(0, 0, 0)" stroke-linejoin="round" d=" M 501.333, 506.250 511.295, 507.125 518.238, 507.735 523.126, 508.164 528.233, 508.613 538.195, 509.488 548.157, 510.363 549.529, 510.483 549.529, 500.483 549.529, 492.988 549.529, 486.627 549.529, 483.990 549.529, 482.347 549.529, 472.347 549.529, 471.976 549.529, 461.976 549.529, 451.976 549.529, 441.976 549.529, 435.720 549.529, 428.576 550.015, 418.588 550.500, 408.600 550.765, 403.137 551.034, 397.605 551.519, 387.617 552.004, 377.628 552.490, 367.640 552.975, 357.652 553.460, 347.664 553.650, 343.749 543.689, 342.874 533.727, 341.999 523.765, 341.124 513.804, 340.249 503.842, 339.374 498.619, 338.915 489.930, 338.152 479.968, 337.277 470.007, 336.402 460.045, 335.527 450.084, 334.653 443.588, 334.082 443.102, 344.070 442.617, 354.058 442.132, 364.047 441.647, 374.035 441.161, 384.023 440.676, 394.011 440.191, 404.000 439.705, 413.988 439.466, 418.909 439.466, 428.909 439.466, 438.909 439.466, 448.909 439.466, 458.909 439.466, 468.909 439.466, 478.909 439.466, 488.909 439.466, 498.909 439.466, 500.817 449.428, 501.691 458.783, 502.513 461.008, 502.708 470.970, 503.583 472.307, 503.701 482.269, 504.576 489.486, 505.210 " />
            <path fill="none" stroke-width="3.0" stroke-linecap="round" stroke-opacity="1.0" stroke="rgb(0, 0, 0)" stroke-linejoin="round" d=" M 439.466, 418.909 449.428, 419.784 459.389, 420.659 469.351, 421.534 479.313, 422.409 487.662, 423.142 496.147, 423.888 " />
            <path fill="none" stroke-width="3.0" stroke-linecap="round" stroke-opacity="1.0" stroke="rgb(0, 0, 0)" stroke-linejoin="round" d=" M 495.062, 508.862 496.675, 518.044 497.641, 523.542 498.844, 530.396 500.117, 537.640 501.023, 542.798 501.333, 544.563 501.333, 542.727 501.333, 536.385 501.333, 528.117 501.333, 518.117 501.333, 515.702 501.333, 510.903 501.333, 506.250 501.333, 501.135 501.333, 491.135 501.333, 481.135 501.333, 471.135 501.333, 462.656 501.596, 457.247 501.717, 454.761 502.202, 444.773 502.687, 434.784 502.801, 432.448 503.187, 424.506 503.545, 417.127 504.030, 407.138 504.516, 397.150 505.001, 387.162 505.454, 377.828 503.724, 367.979 501.994, 358.130 500.264, 348.281 498.619, 338.915 496.889, 329.066 495.159, 319.217 493.429, 309.368 491.784, 300.002 491.298, 309.990 490.813, 319.979 490.328, 329.967 489.930, 338.152 " />
            <path fill="none" stroke-width="3.0" stroke-linecap="round" stroke-opacity="1.0" stroke="rgb(0, 0, 0)" stroke-linejoin="round" d=" M 294.124, 782.564 297.929, 776.536 " />
            <path fill="none" stroke-width="3.0" stroke-linecap="round" stroke-opacity="1.0" stroke="rgb(0, 0, 0)" stroke-linejoin="round" d=" M 419.363, 952.750 417.903, 962.643 416.442, 972.536 414.982, 982.429 413.521, 992.321 412.061, 1002.214 410.600, 1012.107 409.140, 1022.000 407.680, 1031.893 406.219, 1041.785 404.759, 1051.678 403.298, 1061.571 401.838, 1071.464 401.478, 1073.903 " />
            <path fill="none" stroke-width="3.0" stroke-linecap="round" stroke-opacity="1.0" stroke="rgb(0, 0, 0)" stroke-linejoin="round" d=" M 468.900, 630.583 470.382, 633.535 " />
            <path fill="none" stroke-width="3.0" stroke-linecap="round" stroke-opacity="1.0" stroke="rgb(0, 0, 0)" stroke-linejoin="round" d=" M 470.376, 631.136 471.183, 634.764 " />
            <path fill="none" stroke-width="3.0" stroke-linecap="round" stroke-opacity="1.0" stroke="rgb(0, 0, 0)" stroke-linejoin="round" d=" M 474.414, 639.109 474.306, 639.557 " />
            <path fill="none" stroke-width="3.0" stroke-linecap="round" stroke-opacity="1.0" stroke="rgb(0, 0, 0)" stroke-linejoin="round" d=" M 475.590, 633.089 473.821, 638.813 473.686, 639.249 " />
            <path fill="none" stroke-width="3.0" stroke-linecap="round" stroke-opacity="1.0" stroke="rgb(0, 0, 0)" stroke-linejoin="round" d=" M 488.523, 658.286 487.804, 648.312 487.085, 638.338 487.015, 637.368 " />
            <path fill="none" stroke-width="3.0" stroke-linecap="round" stroke-opacity="1.0" stroke="rgb(0, 0, 0)" stroke-linejoin="round" d=" M 494.760, 425.239 496.491, 435.088 498.221, 444.937 499.951, 454.786 500.062, 455.420 501.333, 462.656 " />
            <path fill="none" stroke-width="3.0" stroke-linecap="round" stroke-opacity="1.0" stroke="rgb(0, 0, 0)" stroke-linejoin="round" d=" M 520.401, 673.742 522.997, 679.183 " />
            <path fill="none" stroke-width="3.0" stroke-linecap="round" stroke-opacity="1.0" stroke="rgb(0, 0, 0)" stroke-linejoin="round" d=" M 506.228, 644.046 510.535, 653.071 514.545, 661.472 " />
            <path fill="none" stroke-width="3.0" stroke-linecap="round" stroke-opacity="1.0" stroke="rgb(0, 0, 0)" stroke-linejoin="round" d=" M 472.585, 646.712 463.238, 650.267 453.891, 653.822 451.135, 654.870 461.103, 655.662 471.072, 656.455 478.815, 657.070 " />
            <path fill="none" stroke-width="3.0" stroke-linecap="round" stroke-opacity="1.0" stroke="rgb(0, 0, 0)" stroke-linejoin="round" d=" M 503.187, 424.506 513.148, 425.381 523.110, 426.256 533.072, 427.131 543.033, 428.005 549.529, 428.576 " />
            <path fill="none" stroke-width="3.0" stroke-linecap="round" stroke-opacity="1.0" stroke="rgb(0, 0, 0)" stroke-linejoin="round" d=" M 539.013, 652.268 544.126, 643.675 547.536, 637.945 550.389, 633.151 550.407, 633.016 " />
            <path fill="none" stroke-width="3.0" stroke-linecap="round" stroke-opacity="1.0" stroke="rgb(0, 0, 0)" stroke-linejoin="round" d=" M 546.633, 1165.900 555.601, 1170.323 558.062, 1171.537 560.816, 1172.895 565.725, 1175.316 " />
            <path fill="none" stroke-width="3.0" stroke-linecap="round" stroke-opacity="1.0" stroke="rgb(0, 0, 0)" stroke-linejoin="round" d=" M 596.797, 610.069 592.800, 619.236 588.803, 628.402 584.806, 637.569 582.326, 643.257 " />
            <path fill="none" stroke-width="3.0" stroke-linecap="round" stroke-opacity="1.0" stroke="rgb(0, 0, 0)" stroke-linejoin="round" d=" M 549.529, 471.976 558.085, 466.800 566.641, 461.623 575.197, 456.447 583.753, 451.270 592.309, 446.094 600.865, 440.918 604.007, 439.017 612.563, 433.840 621.119, 428.664 629.675, 423.487 638.231, 418.311 646.787, 413.134 649.086, 411.743 " />
            <path fill="none" stroke-width="3.0" stroke-linecap="round" stroke-opacity="1.0" stroke="rgb(0, 0, 0)" stroke-linejoin="round" d=" M 629.797, 1010.261 631.578, 1020.101 633.359, 1029.941 635.139, 1039.781 636.920, 1049.622 638.701, 1059.462 640.481, 1069.302 642.262, 1079.142 644.043, 1088.982 645.823, 1098.823 647.604, 1108.663 649.384, 1118.503 651.165, 1128.343 652.946, 1138.183 653.354, 1140.442 " />
            <path fill="none" stroke-width="3.0" stroke-linecap="round" stroke-opacity="1.0" stroke="rgb(0, 0, 0)" stroke-linejoin="round" d=" M 678.452, 1081.972 682.302, 1073.003 686.246, 1063.814 690.191, 1054.625 694.135, 1045.436 698.079, 1036.247 702.024, 1027.057 703.162, 1024.405 " />
        </g>
    </g>
</svg>
