<?xml version='1.0' encoding='ascii'?>
<svg xmlns="http://www.w3.org/2000/svg" version="1.1" width="1001" height="2138">
    <g id="View Layer_LineSet" xmlns:inkscape="http://www.inkscape.org/namespaces/inkscape" inkscape:groupmode="lineset" inkscape:label="View Layer_LineSet">
        <g xmlns:inkscape="http://www.inkscape.org/namespaces/inkscape" inkscape:groupmode="layer" id="strokes" inkscape:label="strokes">
            <path fill="none" stroke-width="3.0" stroke-linecap="round" stroke-opacity="1.0" stroke="rgb(0, 0, 0)" stroke-linejoin="round" d=" M 522.997, 679.183 527.320, 671.918 " />
            <path fill="none" stroke-width="3.0" stroke-linecap="round" stroke-opacity="1.0" stroke="rgb(0, 0, 0)" stroke-linejoin="round" d=" M 550.389, 633.151 550.156, 633.154 " />
            <path fill="none" stroke-width="3.0" stroke-linecap="round" stroke-opacity="1.0" stroke="rgb(0, 0, 0)" stroke-linejoin="round" d=" M 475.395, 633.016 474.199, 637.377 473.810, 638.797 473.686, 639.249 474.058, 639.177 474.414, 639.109 476.657, 638.675 485.794, 636.911 " />
            <path fill="none" stroke-width="3.0" stroke-linecap="round" stroke-opacity="1.0" stroke="rgb(0, 0, 0)" stroke-linejoin="round" d=" M 489.676, 674.273 489.362, 669.918 " />
            <path fill="none" stroke-width="3.0" stroke-linecap="round" stroke-opacity="1.0" stroke="rgb(0, 0, 0)" stroke-linejoin="round" d=" M 533.072, 1170.248 534.144, 1168.023 " />
            <path fill="none" stroke-width="3.0" stroke-linecap="round" stroke-opacity="1.0" stroke="rgb(0, 0, 0)" stroke-linejoin="round" d=" M 634.377, 1569.530 634.822, 1559.540 635.267, 1549.550 635.711, 1539.560 636.156, 1529.570 636.601, 1519.580 637.045, 1509.590 637.490, 1499.600 637.935, 1489.610 638.380, 1479.619 638.824, 1469.629 639.269, 1459.639 639.652, 1451.032 639.564, 1441.033 639.477, 1431.033 639.389, 1421.034 639.301, 1411.034 639.214, 1401.034 639.126, 1391.035 639.073, 1384.991 638.809, 1374.995 638.545, 1364.998 638.281, 1355.002 638.017, 1345.005 637.753, 1335.009 637.692, 1332.664 636.921, 1322.694 636.150, 1312.724 635.380, 1302.754 634.609, 1292.783 633.838, 1282.813 633.068, 1272.843 632.469, 1265.098 630.276, 1255.341 628.084, 1245.584 625.892, 1235.827 623.699, 1226.071 621.507, 1216.314 619.314, 1206.557 617.122, 1196.801 614.930, 1187.044 613.824, 1182.125 610.178, 1172.813 606.532, 1163.502 602.886, 1154.190 602.274, 1152.627 598.627, 1143.316 594.981, 1134.004 591.335, 1124.693 590.913, 1123.615 581.465, 1120.339 573.312, 1117.513 " />
            <path fill="none" stroke-width="3.0" stroke-linecap="round" stroke-opacity="1.0" stroke="rgb(0, 0, 0)" stroke-linejoin="round" d=" M 632.469, 1265.098 624.357, 1259.249 616.246, 1253.400 608.135, 1247.552 600.023, 1241.703 591.912, 1235.855 583.801, 1230.006 575.689, 1224.158 567.597, 1218.323 559.486, 1212.474 551.374, 1206.626 543.177, 1200.716 " />
            <path fill="none" stroke-width="3.0" stroke-linecap="round" stroke-opacity="1.0" stroke="rgb(0, 0, 0)" stroke-linejoin="round" d=" M 542.722, 1171.206 542.876, 1181.204 543.031, 1191.203 543.177, 1200.716 545.265, 1210.496 547.352, 1220.275 548.040, 1223.499 550.128, 1233.279 552.215, 1243.059 554.302, 1252.839 555.481, 1258.362 557.569, 1268.141 559.656, 1277.921 561.743, 1287.701 563.831, 1297.481 565.373, 1304.709 565.740, 1314.703 566.105, 1324.696 566.462, 1334.429 566.828, 1344.422 567.194, 1354.416 567.560, 1364.409 567.861, 1372.630 568.227, 1382.623 568.593, 1392.617 568.807, 1398.452 570.323, 1408.336 571.838, 1418.221 573.354, 1428.105 574.870, 1437.990 576.386, 1447.874 577.901, 1457.759 578.808, 1463.673 580.324, 1473.557 581.840, 1483.442 583.356, 1493.326 584.871, 1503.211 586.387, 1513.095 587.903, 1522.979 589.419, 1532.864 590.111, 1537.382 588.441, 1547.242 586.771, 1557.101 585.101, 1566.961 583.431, 1576.820 582.542, 1582.064 582.919, 1592.057 583.297, 1602.050 583.674, 1612.043 584.051, 1622.036 584.428, 1632.029 584.805, 1642.022 585.182, 1652.014 585.559, 1662.007 585.936, 1672.000 586.313, 1681.993 586.690, 1691.986 586.813, 1695.227 588.027, 1705.153 589.240, 1715.079 590.454, 1725.005 591.668, 1734.932 592.916, 1745.141 602.726, 1743.197 612.535, 1741.254 622.344, 1739.311 632.154, 1737.367 641.963, 1735.424 651.773, 1733.481 661.582, 1731.537 671.391, 1729.594 681.201, 1727.650 691.010, 1725.707 698.346, 1724.254 697.789, 1714.269 697.232, 1704.285 696.676, 1694.300 696.502, 1691.175 695.032, 1681.284 693.562, 1671.392 692.091, 1661.501 690.621, 1651.610 689.151, 1641.718 687.681, 1631.827 686.211, 1621.936 684.741, 1612.044 683.271, 1602.153 681.801, 1592.262 680.578, 1584.037 678.905, 1574.178 677.232, 1564.319 675.558, 1554.460 673.885, 1544.601 672.212, 1534.742 672.058, 1533.832 673.229, 1523.901 674.400, 1513.970 675.570, 1504.039 676.741, 1494.107 677.912, 1484.176 679.083, 1474.245 680.254, 1464.314 681.425, 1454.383 682.596, 1444.451 683.767, 1434.520 684.938, 1424.589 686.109, 1414.658 687.280, 1404.727 688.451, 1394.795 689.584, 1385.186 689.359, 1375.189 689.133, 1365.191 688.908, 1355.194 688.682, 1345.196 688.457, 1335.199 688.231, 1325.201 688.006, 1315.204 687.780, 1305.207 687.555, 1295.209 687.437, 1289.991 688.470, 1280.044 689.503, 1270.098 690.536, 1260.151 691.569, 1250.205 692.602, 1240.258 693.635, 1230.312 694.668, 1220.365 695.701, 1210.419 696.734, 1200.472 697.767, 1190.526 698.660, 1181.931 697.162, 1172.044 695.664, 1162.156 694.166, 1152.269 692.668, 1142.382 691.170, 1132.495 689.672, 1122.608 688.174, 1112.721 686.676, 1102.833 685.274, 1093.584 683.845, 1083.687 682.415, 1073.789 682.302, 1073.003 " />
            <path fill="none" stroke-width="3.0" stroke-linecap="round" stroke-opacity="1.0" stroke="rgb(0, 0, 0)" stroke-linejoin="round" d=" M 565.373, 1304.709 574.701, 1308.315 581.263, 1310.851 590.590, 1314.457 599.917, 1318.062 609.245, 1321.668 618.572, 1325.274 627.900, 1328.879 637.692, 1332.664 645.282, 1326.153 652.872, 1319.642 660.462, 1313.132 668.052, 1306.621 675.642, 1300.110 683.232, 1293.599 687.437, 1289.991 682.900, 1298.903 678.364, 1307.814 673.827, 1316.726 669.290, 1325.637 664.753, 1334.549 660.216, 1343.461 655.679, 1352.372 651.142, 1361.284 646.606, 1370.196 642.069, 1379.107 639.073, 1384.991 632.310, 1377.625 625.548, 1370.258 618.785, 1362.891 612.023, 1355.525 605.260, 1348.158 598.497, 1340.792 591.735, 1333.425 584.972, 1326.058 583.348, 1324.289 576.585, 1316.922 569.823, 1309.556 565.373, 1304.709 " />
            <path fill="none" stroke-width="3.0" stroke-linecap="round" stroke-opacity="1.0" stroke="rgb(0, 0, 0)" stroke-linejoin="round" d=" M 696.502, 1691.175 693.453, 1681.651 690.404, 1672.127 687.355, 1662.604 684.306, 1653.080 682.657, 1647.929 " />
            <path fill="none" stroke-width="3.0" stroke-linecap="round" stroke-opacity="1.0" stroke="rgb(0, 0, 0)" stroke-linejoin="round" d=" M 682.657, 1647.929 683.972, 1657.842 685.288, 1667.755 686.604, 1677.668 687.571, 1684.953 " />
            <path fill="none" stroke-width="3.0" stroke-linecap="round" stroke-opacity="1.0" stroke="rgb(0, 0, 0)" stroke-linejoin="round" d=" M 595.745, 1704.266 605.531, 1702.208 615.317, 1700.150 625.103, 1698.091 634.889, 1696.033 644.674, 1693.975 654.460, 1691.917 664.246, 1689.859 674.032, 1687.800 683.818, 1685.742 687.571, 1684.953 690.215, 1694.597 692.859, 1704.241 695.503, 1713.885 698.147, 1723.529 698.346, 1724.254 " />
            <path fill="none" stroke-width="3.0" stroke-linecap="round" stroke-opacity="1.0" stroke="rgb(0, 0, 0)" stroke-linejoin="round" d=" M 550.389, 633.151 552.991, 631.596 " />
            <path fill="none" stroke-width="3.0" stroke-linecap="round" stroke-opacity="1.0" stroke="rgb(0, 0, 0)" stroke-linejoin="round" d=" M 407.289, 1079.878 407.588, 1089.873 407.888, 1099.869 408.187, 1109.864 408.486, 1119.860 408.786, 1129.855 409.085, 1139.851 409.385, 1149.846 409.684, 1159.842 409.984, 1169.837 410.015, 1170.878 412.335, 1180.605 414.656, 1190.332 416.977, 1200.059 419.297, 1209.786 421.618, 1219.513 423.938, 1229.240 426.259, 1238.968 428.579, 1248.695 430.900, 1258.422 431.630, 1261.483 433.487, 1271.310 435.343, 1281.136 437.200, 1290.962 439.057, 1300.788 440.913, 1310.614 442.770, 1320.440 444.430, 1329.227 445.656, 1339.152 446.882, 1349.077 448.107, 1359.001 449.333, 1368.926 450.559, 1378.850 451.785, 1388.775 453.011, 1398.700 454.084, 1407.385 455.388, 1417.300 456.692, 1427.215 457.997, 1437.129 459.301, 1447.044 460.606, 1456.958 461.910, 1466.873 463.214, 1476.787 464.519, 1486.702 465.823, 1496.616 467.128, 1506.531 468.432, 1516.446 469.736, 1526.360 471.041, 1536.275 471.442, 1539.323 472.746, 1549.237 472.795, 1549.606 " />
            <path fill="none" stroke-width="3.0" stroke-linecap="round" stroke-opacity="1.0" stroke="rgb(0, 0, 0)" stroke-linejoin="round" d=" M 550.389, 633.151 550.285, 633.083 " />
            <path fill="none" stroke-width="3.0" stroke-linecap="round" stroke-opacity="1.0" stroke="rgb(0, 0, 0)" stroke-linejoin="round" d=" M 517.213, 674.583 512.909, 665.556 511.507, 662.615 " />
            <path fill="none" stroke-width="3.0" stroke-linecap="round" stroke-opacity="1.0" stroke="rgb(0, 0, 0)" stroke-linejoin="round" d=" M 559.001, 628.294 558.355, 629.252 552.514, 637.369 551.648, 638.573 545.808, 646.690 542.827, 650.834 539.013, 652.268 536.953, 653.043 535.175, 653.712 535.057, 653.756 525.698, 657.277 525.279, 657.434 517.974, 660.182 514.545, 661.472 511.507, 662.615 504.860, 661.363 496.592, 659.806 488.523, 658.286 486.227, 657.854 486.093, 657.648 480.634, 649.270 477.700, 644.766 475.204, 640.935 474.306, 639.557 474.058, 639.177 " />
            <path fill="none" stroke-width="3.0" stroke-linecap="round" stroke-opacity="1.0" stroke="rgb(0, 0, 0)" stroke-linejoin="round" d=" M 486.227, 657.854 486.227, 667.921 486.227, 669.393 " />
            <path fill="none" stroke-width="3.0" stroke-linecap="round" stroke-opacity="1.0" stroke="rgb(0, 0, 0)" stroke-linejoin="round" d=" M 465.598, 629.347 468.346, 638.962 468.728, 640.299 469.235, 641.142 472.585, 646.712 477.739, 655.281 478.815, 657.070 483.338, 664.590 486.227, 669.393 487.106, 669.540 489.362, 669.918 493.904, 670.679 503.766, 672.331 513.629, 673.983 517.213, 674.583 520.401, 673.742 526.249, 672.200 527.320, 671.918 534.542, 670.014 536.395, 669.526 540.183, 664.664 541.885, 662.480 545.551, 657.775 551.698, 649.887 557.844, 641.999 559.571, 639.782 565.717, 631.894 571.864, 624.006 574.244, 620.952 575.601, 619.437 " />
            <path fill="none" stroke-width="3.0" stroke-linecap="round" stroke-opacity="1.0" stroke="rgb(0, 0, 0)" stroke-linejoin="round" d=" M 363.343, 919.892 372.513, 923.882 381.683, 927.871 390.852, 931.861 400.022, 935.851 409.191, 939.841 418.361, 943.830 420.540, 944.778 429.710, 948.768 438.879, 952.758 442.663, 954.404 451.832, 958.394 461.002, 962.384 463.683, 963.550 472.853, 967.540 482.022, 971.530 491.192, 975.520 500.362, 979.509 509.531, 983.499 518.701, 987.489 527.870, 991.479 537.040, 995.469 546.210, 999.458 555.379, 1003.448 564.549, 1007.438 573.719, 1011.428 579.776, 1014.063 589.720, 1013.006 599.664, 1011.949 609.608, 1010.891 619.552, 1009.834 629.496, 1008.777 639.440, 1007.720 649.384, 1006.663 655.834, 1005.977 " />
            <path fill="none" stroke-width="3.0" stroke-linecap="round" stroke-opacity="1.0" stroke="rgb(0, 0, 0)" stroke-linejoin="round" d=" M 579.776, 1014.063 575.495, 1005.026 571.214, 995.989 569.332, 992.015 565.051, 982.977 560.770, 973.940 556.489, 964.903 554.204, 960.081 549.923, 951.043 545.642, 942.006 545.507, 941.721 " />
            <path fill="none" stroke-width="3.0" stroke-linecap="round" stroke-opacity="1.0" stroke="rgb(0, 0, 0)" stroke-linejoin="round" d=" M 545.507, 941.721 535.578, 940.531 525.650, 939.342 523.937, 939.136 514.008, 937.947 504.079, 936.757 494.151, 935.567 484.222, 934.377 474.293, 933.187 464.364, 931.998 461.829, 931.694 451.900, 930.504 441.971, 929.314 432.042, 928.124 422.113, 926.934 420.234, 926.709 410.305, 925.519 400.376, 924.330 390.447, 923.140 380.518, 921.950 370.589, 920.760 363.343, 919.892 " />
            <path fill="none" stroke-width="3.0" stroke-linecap="round" stroke-opacity="1.0" stroke="rgb(0, 0, 0)" stroke-linejoin="round" d=" M 545.507, 941.721 536.036, 938.513 530.284, 936.565 520.813, 933.357 511.341, 930.148 501.870, 926.940 492.399, 923.732 487.347, 922.021 477.876, 918.813 468.404, 915.605 458.933, 912.396 449.461, 909.188 439.990, 905.980 430.519, 902.772 421.047, 899.564 416.340, 897.969 406.868, 894.761 397.397, 891.553 387.926, 888.344 378.454, 885.136 375.270, 884.058 " />
            <path fill="none" stroke-width="3.0" stroke-linecap="round" stroke-opacity="1.0" stroke="rgb(0, 0, 0)" stroke-linejoin="round" d=" M 375.270, 884.058 372.112, 893.546 368.954, 903.034 365.796, 912.523 363.343, 919.892 " />
            <path fill="none" stroke-width="3.0" stroke-linecap="round" stroke-opacity="1.0" stroke="rgb(0, 0, 0)" stroke-linejoin="round" d=" M 487.106, 669.540 489.676, 674.273 499.570, 675.731 509.463, 677.189 519.356, 678.646 522.997, 679.183 526.566, 677.021 533.264, 672.965 541.818, 667.786 542.246, 667.527 548.549, 663.710 553.325, 660.818 561.879, 655.638 570.433, 650.459 578.987, 645.279 582.326, 643.257 588.765, 635.606 595.205, 627.955 601.644, 620.304 604.203, 617.265 610.642, 609.614 617.081, 601.963 619.816, 598.714 " />
            <path fill="none" stroke-width="3.0" stroke-linecap="round" stroke-opacity="1.0" stroke="rgb(0, 0, 0)" stroke-linejoin="round" d=" M 582.326, 643.257 583.873, 653.136 585.421, 663.016 586.631, 670.742 " />
            <path fill="none" stroke-width="3.0" stroke-linecap="round" stroke-opacity="1.0" stroke="rgb(0, 0, 0)" stroke-linejoin="round" d=" M 548.549, 663.710 558.382, 665.526 568.216, 667.342 578.050, 669.158 586.631, 670.742 594.934, 665.168 603.236, 659.594 611.538, 654.020 619.841, 648.445 628.143, 642.871 636.445, 637.297 644.747, 631.723 653.050, 626.149 661.037, 620.786 " />
            <path fill="none" stroke-width="3.0" stroke-linecap="round" stroke-opacity="1.0" stroke="rgb(0, 0, 0)" stroke-linejoin="round" d=" M 293.182, 782.018 287.611, 780.372 287.209, 780.253 287.054, 780.207 286.988, 780.330 284.786, 784.424 283.666, 786.506 282.862, 788.001 280.913, 791.625 280.296, 792.773 278.422, 796.257 273.685, 805.064 268.949, 813.871 264.212, 822.678 259.630, 831.198 258.681, 832.962 255.843, 838.240 251.106, 847.047 247.854, 853.095 256.249, 858.527 264.645, 863.960 273.041, 869.393 281.436, 874.825 289.832, 880.258 298.228, 885.690 306.623, 891.123 315.019, 896.556 323.415, 901.988 331.810, 907.421 333.207, 908.324 342.543, 911.908 351.879, 915.491 361.215, 919.075 363.343, 919.892 371.969, 924.951 380.595, 930.011 389.220, 935.070 397.846, 940.129 406.472, 945.189 415.097, 950.248 419.363, 952.750 427.989, 957.810 429.503, 958.698 438.129, 963.758 438.578, 964.021 441.131, 965.518 448.361, 969.759 453.710, 972.896 454.187, 973.176 458.090, 975.466 465.017, 979.529 473.643, 984.588 482.269, 989.648 490.894, 994.707 491.176, 994.872 499.331, 999.656 509.048, 1002.019 514.830, 1003.426 524.547, 1005.790 534.263, 1008.154 535.854, 1008.541 545.571, 1010.905 553.819, 1012.911 563.536, 1015.275 566.027, 1015.881 568.342, 1016.444 577.976, 1018.788 580.431, 1018.384 590.298, 1016.760 600.165, 1015.137 610.033, 1013.513 619.900, 1011.890 626.112, 1010.867 627.970, 1010.562 629.797, 1010.261 639.665, 1008.637 643.453, 1008.014 653.320, 1006.390 655.834, 1005.977 659.949, 996.863 662.097, 992.106 662.493, 991.228 662.546, 991.112 666.661, 981.998 670.777, 972.884 674.892, 963.770 675.697, 961.987 679.812, 952.873 683.928, 943.760 688.043, 934.646 692.159, 925.532 696.274, 916.418 700.389, 907.304 704.505, 898.190 708.620, 889.076 712.735, 879.962 716.851, 870.848 720.966, 861.734 725.082, 852.620 729.197, 843.506 733.312, 834.392 737.428, 825.278 741.846, 815.494 740.163, 805.636 738.479, 795.779 736.796, 785.922 735.113, 776.065 733.429, 766.207 731.746, 756.350 730.063, 746.493 728.379, 736.635 726.696, 726.778 725.013, 716.921 723.329, 707.063 721.646, 697.206 721.250, 694.891 714.944, 687.130 708.638, 679.369 702.332, 671.608 696.026, 663.847 689.720, 656.086 683.414, 648.325 677.108, 640.564 670.802, 632.803 664.495, 625.042 661.037, 620.786 655.417, 612.515 649.797, 604.243 644.177, 595.972 638.557, 587.700 636.972, 585.367 " />
            <path fill="none" stroke-width="3.0" stroke-linecap="round" stroke-opacity="1.0" stroke="rgb(0, 0, 0)" stroke-linejoin="round" d=" M 451.135, 654.870 447.242, 664.081 443.349, 673.293 439.456, 682.504 435.563, 691.715 431.671, 700.926 427.778, 710.137 423.885, 719.349 419.992, 728.560 416.099, 737.771 412.207, 746.982 408.314, 756.193 404.421, 765.405 400.528, 774.616 399.844, 776.234 " />
            <path fill="none" stroke-width="3.0" stroke-linecap="round" stroke-opacity="1.0" stroke="rgb(0, 0, 0)" stroke-linejoin="round" d=" M 399.844, 776.234 407.201, 783.007 414.558, 789.781 421.915, 796.554 429.272, 803.327 436.629, 810.100 443.985, 816.874 451.342, 823.647 458.699, 830.420 463.288, 834.645 " />
            <path fill="none" stroke-width="3.0" stroke-linecap="round" stroke-opacity="1.0" stroke="rgb(0, 0, 0)" stroke-linejoin="round" d=" M 463.288, 834.645 467.260, 825.468 471.232, 816.291 475.204, 807.114 479.176, 797.936 483.148, 788.759 487.120, 779.582 491.092, 770.404 495.064, 761.227 499.036, 752.050 503.008, 742.872 506.980, 733.695 510.952, 724.518 514.924, 715.340 518.896, 706.163 522.868, 696.986 526.840, 687.808 530.812, 678.631 533.264, 672.965 " />
            <path fill="none" stroke-width="3.0" stroke-linecap="round" stroke-opacity="1.0" stroke="rgb(0, 0, 0)" stroke-linejoin="round" d=" M 452.724, 553.849 442.976, 556.080 433.228, 558.310 432.906, 558.384 425.190, 564.744 417.474, 571.104 409.757, 577.465 402.041, 583.826 394.324, 590.186 386.608, 596.547 383.387, 599.201 375.278, 605.053 367.170, 610.905 359.061, 616.757 350.952, 622.609 342.843, 628.462 334.734, 634.314 326.626, 640.166 318.517, 646.018 310.408, 651.870 302.299, 657.722 294.190, 663.574 286.081, 669.426 277.973, 675.278 269.864, 681.131 261.755, 686.983 253.646, 692.835 245.537, 698.687 237.429, 704.539 229.320, 710.391 221.211, 716.243 213.102, 722.095 208.522, 725.401 " />
            <path fill="none" stroke-width="3.0" stroke-linecap="round" stroke-opacity="1.0" stroke="rgb(0, 0, 0)" stroke-linejoin="round" d=" M 499.331, 999.656 509.174, 1001.418 519.018, 1003.181 528.861, 1004.944 538.704, 1006.707 548.548, 1008.470 558.391, 1010.233 567.093, 1011.792 567.869, 1011.931 577.712, 1013.693 579.776, 1014.063 " />
            <path fill="none" stroke-width="3.0" stroke-linecap="round" stroke-opacity="1.0" stroke="rgb(0, 0, 0)" stroke-linejoin="round" d=" M 601.297, 998.441 594.284, 991.312 590.322, 987.283 583.310, 980.154 576.297, 973.025 569.549, 966.164 562.537, 959.035 556.547, 952.946 549.535, 945.816 546.121, 942.345 545.507, 941.721 542.516, 940.176 538.299, 937.997 533.223, 935.374 524.339, 930.784 515.448, 926.189 506.564, 921.599 498.903, 917.641 490.019, 913.050 481.135, 908.459 472.251, 903.869 464.064, 899.639 455.180, 895.048 446.296, 890.458 443.963, 889.252 441.051, 887.747 432.167, 883.157 423.283, 878.566 414.399, 873.976 412.990, 873.248 404.106, 868.658 395.222, 864.067 388.103, 860.389 383.737, 851.676 379.225, 842.674 374.745, 833.733 373.953, 832.153 370.395, 826.805 " />
            <path fill="none" stroke-width="3.0" stroke-linecap="round" stroke-opacity="1.0" stroke="rgb(0, 0, 0)" stroke-linejoin="round" d=" M 388.103, 860.389 383.337, 869.180 378.571, 877.971 375.270, 884.058 " />
            <path fill="none" stroke-width="3.0" stroke-linecap="round" stroke-opacity="1.0" stroke="rgb(0, 0, 0)" stroke-linejoin="round" d=" M 247.242, 730.526 237.316, 731.742 227.390, 732.957 217.465, 734.173 214.031, 734.594 204.105, 735.809 194.179, 737.025 184.253, 738.241 181.976, 738.520 " />
            <path fill="none" stroke-width="3.0" stroke-linecap="round" stroke-opacity="1.0" stroke="rgb(0, 0, 0)" stroke-linejoin="round" d=" M 181.976, 738.520 188.152, 746.385 194.328, 754.250 200.503, 762.115 206.679, 769.980 212.855, 777.845 219.031, 785.711 224.222, 792.322 225.640, 794.129 231.816, 801.994 237.992, 809.859 244.168, 817.724 249.898, 825.022 " />
            <path fill="none" stroke-width="3.0" stroke-linecap="round" stroke-opacity="1.0" stroke="rgb(0, 0, 0)" stroke-linejoin="round" d=" M 249.898, 825.022 254.066, 815.932 258.234, 806.842 262.401, 797.752 266.569, 788.662 267.251, 787.173 " />
            <path fill="none" stroke-width="3.0" stroke-linecap="round" stroke-opacity="1.0" stroke="rgb(0, 0, 0)" stroke-linejoin="round" d=" M 286.988, 780.330 279.015, 783.094 269.567, 786.370 267.251, 787.173 263.921, 777.744 261.237, 770.147 257.907, 760.718 254.576, 751.289 251.246, 741.860 247.915, 732.431 247.242, 730.526 " />
            <path fill="none" stroke-width="3.0" stroke-linecap="round" stroke-opacity="1.0" stroke="rgb(0, 0, 0)" stroke-linejoin="round" d=" M 273.925, 763.473 282.776, 758.818 291.626, 754.163 300.476, 749.507 309.327, 744.852 318.177, 740.197 327.027, 735.541 335.878, 730.886 344.728, 726.231 353.578, 721.576 362.429, 716.920 371.279, 712.265 380.129, 707.610 388.979, 702.954 397.830, 698.299 406.680, 693.644 415.078, 689.226 422.318, 682.328 429.558, 675.429 436.798, 668.531 444.037, 661.633 451.135, 654.870 " />
            <path fill="none" stroke-width="3.0" stroke-linecap="round" stroke-opacity="1.0" stroke="rgb(0, 0, 0)" stroke-linejoin="round" d=" M 469.235, 641.142 461.267, 647.185 453.300, 653.228 451.135, 654.870 442.390, 659.722 433.646, 664.573 424.902, 669.425 416.157, 674.276 407.413, 679.128 398.669, 683.980 389.925, 688.831 381.180, 693.683 372.436, 698.534 363.692, 703.386 354.948, 708.237 346.203, 713.089 337.459, 717.941 328.715, 722.792 319.970, 727.644 311.226, 732.495 302.482, 737.347 293.738, 742.198 284.993, 747.050 276.249, 751.901 268.180, 756.379 " />
            <path fill="none" stroke-width="3.0" stroke-linecap="round" stroke-opacity="1.0" stroke="rgb(0, 0, 0)" stroke-linejoin="round" d=" M 460.365, 1133.144 452.363, 1139.141 444.360, 1145.139 436.358, 1151.136 428.356, 1157.133 420.354, 1163.130 412.352, 1169.127 410.015, 1170.878 420.015, 1170.827 430.015, 1170.776 440.015, 1170.725 450.014, 1170.673 460.014, 1170.622 470.014, 1170.571 480.014, 1170.520 490.014, 1170.468 500.014, 1170.417 510.014, 1170.366 520.013, 1170.315 530.013, 1170.263 533.072, 1170.248 " />
            <path fill="none" stroke-width="3.0" stroke-linecap="round" stroke-opacity="1.0" stroke="rgb(0, 0, 0)" stroke-linejoin="round" d=" M 558.355, 629.252 567.218, 624.622 574.244, 620.952 566.998, 627.843 559.753, 634.735 555.155, 639.108 547.909, 646.000 542.827, 650.834 539.573, 660.290 536.395, 669.526 " />
            <path fill="none" stroke-width="3.0" stroke-linecap="round" stroke-opacity="1.0" stroke="rgb(0, 0, 0)" stroke-linejoin="round" d=" M 451.135, 654.870 443.408, 648.521 435.682, 642.173 427.956, 635.824 420.230, 629.475 412.504, 623.127 404.778, 616.778 397.051, 610.429 389.325, 604.080 383.387, 599.201 " />
            <path fill="none" stroke-width="3.0" stroke-linecap="round" stroke-opacity="1.0" stroke="rgb(0, 0, 0)" stroke-linejoin="round" d=" M 601.297, 998.441 593.204, 1004.316 585.111, 1010.190 579.776, 1014.063 577.976, 1018.788 " />
            <path fill="none" stroke-width="3.0" stroke-linecap="round" stroke-opacity="1.0" stroke="rgb(0, 0, 0)" stroke-linejoin="round" d=" M 655.834, 1005.977 645.928, 1004.608 636.022, 1003.239 626.116, 1001.870 616.210, 1000.502 606.304, 999.133 601.297, 998.441 605.393, 989.319 609.490, 980.196 613.586, 971.074 617.682, 961.951 618.372, 960.416 622.468, 951.294 623.462, 949.080 627.558, 939.958 631.655, 930.835 635.751, 921.713 639.848, 912.591 643.944, 903.468 648.041, 894.346 652.137, 885.223 656.233, 876.101 660.330, 866.978 664.426, 857.856 668.523, 848.733 672.619, 839.611 676.716, 830.488 680.812, 821.366 684.745, 812.608 685.738, 810.396 687.568, 800.565 689.399, 790.734 691.229, 780.903 693.059, 771.072 694.890, 761.241 696.720, 751.410 697.871, 745.230 " />
            <path fill="none" stroke-width="3.0" stroke-linecap="round" stroke-opacity="1.0" stroke="rgb(0, 0, 0)" stroke-linejoin="round" d=" M 616.467, 770.479 625.132, 775.472 633.796, 780.465 642.460, 785.458 651.125, 790.451 659.789, 795.444 668.454, 800.436 677.118, 805.429 685.738, 810.396 686.966, 810.508 696.925, 811.413 704.813, 812.129 714.772, 813.034 724.731, 813.939 734.690, 814.844 741.846, 815.494 " />
            <path fill="none" stroke-width="3.0" stroke-linecap="round" stroke-opacity="1.0" stroke="rgb(0, 0, 0)" stroke-linejoin="round" d=" M 697.871, 745.230 688.320, 748.193 678.769, 751.155 669.217, 754.118 659.666, 757.080 650.115, 760.043 640.564, 763.005 631.013, 765.968 621.462, 768.930 616.467, 770.479 " />
            <path fill="none" stroke-width="3.0" stroke-linecap="round" stroke-opacity="1.0" stroke="rgb(0, 0, 0)" stroke-linejoin="round" d=" M 333.207, 908.324 341.869, 903.327 343.332, 902.483 351.994, 897.486 360.656, 892.489 363.047, 891.110 371.709, 886.113 375.270, 884.058 375.017, 874.061 374.877, 868.562 374.623, 858.565 374.369, 848.569 374.116, 838.572 373.953, 832.153 365.369, 827.022 356.786, 821.891 348.202, 816.760 339.619, 811.629 331.036, 806.498 322.452, 801.367 313.869, 796.237 305.286, 791.106 296.702, 785.975 287.876, 780.698 287.159, 780.270 287.054, 780.207 " />
            <path fill="none" stroke-width="3.0" stroke-linecap="round" stroke-opacity="1.0" stroke="rgb(0, 0, 0)" stroke-linejoin="round" d=" M 373.953, 832.153 369.236, 840.970 364.519, 849.788 359.802, 858.606 355.086, 867.424 350.369, 876.241 345.652, 885.059 340.935, 893.877 338.262, 898.874 333.545, 907.692 333.207, 908.324 " />
            <path fill="none" stroke-width="3.0" stroke-linecap="round" stroke-opacity="1.0" stroke="rgb(0, 0, 0)" stroke-linejoin="round" d=" M 632.186, 508.973 632.164, 509.098 630.471, 518.954 628.778, 528.809 627.085, 538.665 625.392, 548.521 623.699, 558.376 622.005, 568.232 620.312, 578.088 618.619, 587.943 616.926, 597.801 616.299, 601.450 " />
            <path fill="none" stroke-width="3.0" stroke-linecap="round" stroke-opacity="1.0" stroke="rgb(0, 0, 0)" stroke-linejoin="round" d=" M 456.144, 548.354 452.724, 553.849 449.761, 558.610 444.476, 567.099 441.971, 571.123 442.178, 581.121 442.302, 587.089 442.509, 597.087 442.567, 599.884 444.756, 602.776 450.791, 610.749 456.826, 618.723 462.861, 626.696 464.579, 628.965 465.598, 629.347 468.900, 630.583 469.608, 630.849 470.376, 631.136 475.395, 633.016 475.590, 633.089 475.841, 633.183 478.444, 634.158 479.344, 634.495 483.181, 635.932 485.794, 636.911 487.015, 637.368 492.121, 639.281 501.486, 642.788 505.221, 644.188 506.228, 644.046 513.477, 643.025 523.311, 641.640 528.997, 640.839 530.094, 640.685 535.229, 639.961 538.643, 639.480 542.764, 637.216 550.156, 633.154 550.285, 633.083 550.407, 633.016 552.991, 631.596 559.001, 628.294 567.765, 623.478 573.143, 620.523 575.601, 619.437 584.747, 615.395 593.894, 611.352 596.797, 610.069 599.929, 608.685 609.075, 604.643 613.058, 602.883 616.299, 601.450 619.816, 598.714 621.176, 597.656 626.930, 593.179 634.823, 587.039 636.972, 585.367 644.865, 579.227 652.757, 573.086 660.650, 566.946 668.543, 560.805 671.006, 558.889 " />
            <path fill="none" stroke-width="3.0" stroke-linecap="round" stroke-opacity="1.0" stroke="rgb(0, 0, 0)" stroke-linejoin="round" d=" M 671.006, 558.889 672.544, 549.008 674.082, 539.127 675.620, 529.246 677.157, 519.365 678.695, 509.484 680.233, 499.603 681.771, 489.722 683.309, 479.841 684.847, 469.960 685.932, 462.985 680.094, 454.866 674.256, 446.747 668.418, 438.628 662.580, 430.509 656.742, 422.390 650.904, 414.271 649.086, 411.743 639.658, 408.411 630.229, 405.079 620.801, 401.746 611.372, 398.414 601.944, 395.082 592.516, 391.750 583.087, 388.417 577.869, 386.573 568.620, 390.375 559.371, 394.177 551.034, 397.605 " />
            <path fill="none" stroke-width="3.0" stroke-linecap="round" stroke-opacity="1.0" stroke="rgb(0, 0, 0)" stroke-linejoin="round" d=" M 685.932, 462.985 678.334, 469.486 670.736, 475.988 663.138, 482.489 655.468, 489.051 647.870, 495.552 640.272, 502.054 632.674, 508.555 632.186, 508.973 632.000, 509.038 622.568, 512.360 613.136, 515.683 603.704, 519.005 594.273, 522.328 584.841, 525.650 575.409, 528.973 566.492, 532.114 556.983, 529.018 547.474, 525.923 537.965, 522.828 528.457, 519.732 518.948, 516.637 509.439, 513.542 507.355, 512.863 501.333, 510.903 " />
            <path fill="none" stroke-width="3.0" stroke-linecap="round" stroke-opacity="1.0" stroke="rgb(0, 0, 0)" stroke-linejoin="round" d=" M 471.442, 1539.323 463.138, 1544.895 454.835, 1550.467 446.531, 1556.039 438.227, 1561.612 429.924, 1567.184 421.620, 1572.756 413.316, 1578.328 405.013, 1583.900 396.709, 1589.473 391.249, 1593.137 383.353, 1599.273 375.457, 1605.410 367.562, 1611.546 359.666, 1617.683 358.188, 1618.831 353.837, 1627.835 349.486, 1636.839 345.136, 1645.843 342.989, 1650.286 349.018, 1658.264 355.047, 1666.242 361.077, 1674.220 367.106, 1682.198 373.135, 1690.176 379.164, 1698.155 385.193, 1706.133 391.222, 1714.111 394.819, 1718.870 403.421, 1713.772 412.024, 1708.673 420.626, 1703.574 429.229, 1698.475 437.831, 1693.376 446.434, 1688.277 448.368, 1687.131 456.679, 1681.568 464.989, 1676.006 473.299, 1670.443 481.609, 1664.881 489.919, 1659.319 498.230, 1653.756 506.540, 1648.194 514.850, 1642.631 523.160, 1637.069 531.471, 1631.507 539.781, 1625.944 548.091, 1620.382 556.401, 1614.820 563.197, 1610.271 565.828, 1600.623 568.459, 1590.975 571.090, 1581.327 573.721, 1571.680 576.352, 1562.032 578.383, 1554.582 577.734, 1544.603 577.085, 1534.625 576.436, 1524.646 576.211, 1521.183 576.662, 1511.193 577.113, 1501.203 577.564, 1491.214 578.016, 1481.224 578.467, 1471.234 578.808, 1463.673 " />
            <path fill="none" stroke-width="3.0" stroke-linecap="round" stroke-opacity="1.0" stroke="rgb(0, 0, 0)" stroke-linejoin="round" d=" M 267.251, 787.173 265.412, 797.003 263.572, 806.832 261.732, 816.661 259.893, 826.491 258.681, 832.962 " />
            <path fill="none" stroke-width="3.0" stroke-linecap="round" stroke-opacity="1.0" stroke="rgb(0, 0, 0)" stroke-linejoin="round" d=" M 383.737, 851.676 388.383, 842.821 392.805, 834.393 384.893, 828.277 376.981, 822.161 369.069, 816.045 361.157, 809.929 353.245, 803.814 345.334, 797.698 337.422, 791.582 329.510, 785.466 328.769, 784.894 319.117, 782.278 309.466, 779.662 299.814, 777.046 297.929, 776.536 288.481, 779.812 287.448, 780.170 287.209, 780.253 " />
            <path fill="none" stroke-width="3.0" stroke-linecap="round" stroke-opacity="1.0" stroke="rgb(0, 0, 0)" stroke-linejoin="round" d=" M 287.448, 780.170 281.154, 772.399 274.860, 764.628 273.925, 763.473 268.180, 756.379 261.886, 748.608 255.592, 740.837 249.299, 733.065 247.242, 730.526 241.402, 729.753 231.488, 728.441 221.575, 727.129 213.550, 726.067 208.522, 725.401 199.557, 729.832 190.592, 734.262 181.976, 738.520 187.042, 747.142 192.108, 755.763 197.175, 764.385 202.241, 773.007 207.307, 781.628 212.373, 790.250 217.439, 798.872 218.455, 800.601 226.353, 806.735 234.251, 812.869 242.149, 819.003 249.898, 825.022 254.000, 834.142 255.843, 838.240 " />
            <path fill="none" stroke-width="3.0" stroke-linecap="round" stroke-opacity="1.0" stroke="rgb(0, 0, 0)" stroke-linejoin="round" d=" M 401.478, 1073.903 407.289, 1079.878 414.261, 1087.047 421.233, 1094.215 428.205, 1101.384 430.559, 1103.805 437.531, 1110.974 441.585, 1115.142 448.557, 1122.311 455.529, 1129.480 458.012, 1132.032 460.365, 1133.144 465.705, 1135.669 474.746, 1139.943 475.154, 1140.136 484.195, 1144.410 489.479, 1146.908 498.519, 1151.181 498.778, 1151.304 507.818, 1155.577 516.859, 1159.851 525.900, 1164.125 532.481, 1167.236 533.435, 1167.687 534.144, 1168.023 535.349, 1168.592 535.739, 1168.499 540.759, 1167.302 542.654, 1166.849 550.140, 1165.064 556.542, 1163.536 566.269, 1161.216 568.569, 1160.667 570.897, 1160.112 " />
            <path fill="none" stroke-width="3.0" stroke-linecap="round" stroke-opacity="1.0" stroke="rgb(0, 0, 0)" stroke-linejoin="round" d=" M 458.012, 1132.032 458.203, 1128.076 458.685, 1118.088 459.025, 1111.068 459.507, 1101.079 459.990, 1091.091 460.473, 1081.103 460.955, 1071.114 461.438, 1061.126 461.921, 1051.137 462.403, 1041.149 462.886, 1031.161 463.369, 1021.172 463.851, 1011.184 464.334, 1001.196 464.817, 991.207 465.089, 985.566 " />
            <path fill="none" stroke-width="3.0" stroke-linecap="round" stroke-opacity="1.0" stroke="rgb(0, 0, 0)" stroke-linejoin="round" d=" M 465.089, 985.566 458.407, 978.126 453.710, 972.896 " />
            <path fill="none" stroke-width="3.0" stroke-linecap="round" stroke-opacity="1.0" stroke="rgb(0, 0, 0)" stroke-linejoin="round" d=" M 297.929, 776.536 306.176, 782.192 314.423, 787.847 322.670, 793.503 330.917, 799.159 339.164, 804.815 347.411, 810.471 355.658, 816.127 363.904, 821.783 372.151, 827.438 380.398, 833.094 383.300, 835.084 " />
            <path fill="none" stroke-width="3.0" stroke-linecap="round" stroke-opacity="1.0" stroke="rgb(0, 0, 0)" stroke-linejoin="round" d=" M 379.225, 842.674 383.300, 835.084 392.805, 834.393 " />
            <path fill="none" stroke-width="3.0" stroke-linecap="round" stroke-opacity="1.0" stroke="rgb(0, 0, 0)" stroke-linejoin="round" d=" M 554.882, 885.862 564.209, 882.257 573.537, 878.653 582.021, 875.375 " />
            <path fill="none" stroke-width="3.0" stroke-linecap="round" stroke-opacity="1.0" stroke="rgb(0, 0, 0)" stroke-linejoin="round" d=" M 616.467, 770.479 611.758, 779.301 607.050, 788.123 602.341, 796.945 597.632, 805.767 592.923, 814.589 588.215, 823.411 583.506, 832.233 578.797, 841.055 574.088, 849.877 569.380, 858.699 564.671, 867.521 559.962, 876.343 554.882, 885.862 " />
            <path fill="none" stroke-width="3.0" stroke-linecap="round" stroke-opacity="1.0" stroke="rgb(0, 0, 0)" stroke-linejoin="round" d=" M 616.467, 770.479 613.347, 779.980 610.227, 789.481 607.107, 798.982 603.987, 808.483 600.867, 817.984 597.747, 827.484 594.628, 836.985 591.508, 846.486 588.388, 855.987 585.268, 865.488 583.784, 870.007 582.021, 875.375 578.901, 884.876 575.781, 894.377 572.607, 904.042 569.487, 913.543 568.442, 916.725 566.207, 923.530 565.260, 926.413 565.143, 926.770 564.835, 927.708 562.636, 934.404 559.516, 943.905 556.547, 952.946 " />
            <path fill="none" stroke-width="3.0" stroke-linecap="round" stroke-opacity="1.0" stroke="rgb(0, 0, 0)" stroke-linejoin="round" d=" M 542.246, 667.527 548.094, 675.638 553.942, 683.750 559.790, 691.862 565.638, 699.974 571.486, 708.086 577.334, 716.197 583.182, 724.309 589.030, 732.421 594.878, 740.533 600.726, 748.645 606.574, 756.756 612.422, 764.868 616.467, 770.479 613.601, 760.899 610.735, 751.318 607.869, 741.738 605.003, 732.157 602.137, 722.577 599.271, 712.996 596.406, 703.416 593.540, 693.835 590.674, 684.255 587.808, 674.674 586.631, 670.742 " />
            <path fill="none" stroke-width="3.0" stroke-linecap="round" stroke-opacity="1.0" stroke="rgb(0, 0, 0)" stroke-linejoin="round" d=" M 586.813, 1695.227 589.915, 1685.721 593.018, 1676.214 596.121, 1666.708 599.223, 1657.201 601.097, 1651.460 " />
            <path fill="none" stroke-width="3.0" stroke-linecap="round" stroke-opacity="1.0" stroke="rgb(0, 0, 0)" stroke-linejoin="round" d=" M 601.097, 1651.460 600.138, 1641.506 599.180, 1631.552 598.221, 1621.599 597.263, 1611.645 596.304, 1601.691 595.346, 1591.737 594.387, 1581.783 593.429, 1571.829 592.470, 1561.875 591.511, 1551.921 590.553, 1541.967 590.111, 1537.382 598.203, 1543.259 606.294, 1549.135 614.385, 1555.011 622.477, 1560.887 630.568, 1566.764 634.377, 1569.530 " />
            <path fill="none" stroke-width="3.0" stroke-linecap="round" stroke-opacity="1.0" stroke="rgb(0, 0, 0)" stroke-linejoin="round" d=" M 721.250, 694.891 717.038, 703.961 712.826, 713.030 708.614, 722.100 704.401, 731.169 700.189, 740.239 697.871, 745.230 695.033, 735.641 692.194, 726.052 689.356, 716.464 686.518, 706.875 683.680, 697.286 680.842, 687.697 678.004, 678.109 675.166, 668.520 672.327, 658.931 669.489, 649.342 666.651, 639.753 663.813, 630.165 661.037, 620.786 " />
            <path fill="none" stroke-width="3.0" stroke-linecap="round" stroke-opacity="1.0" stroke="rgb(0, 0, 0)" stroke-linejoin="round" d=" M 554.882, 885.862 553.349, 895.744 553.141, 897.081 551.609, 906.963 550.076, 916.845 548.543, 926.727 548.140, 929.330 546.607, 939.212 546.121, 942.345 " />
            <path fill="none" stroke-width="3.0" stroke-linecap="round" stroke-opacity="1.0" stroke="rgb(0, 0, 0)" stroke-linejoin="round" d=" M 534.538, 1017.030 544.317, 1014.941 553.819, 1012.911 " />
            <path fill="none" stroke-width="3.0" stroke-linecap="round" stroke-opacity="1.0" stroke="rgb(0, 0, 0)" stroke-linejoin="round" d=" M 554.882, 885.862 546.153, 880.981 537.425, 876.101 528.697, 871.220 519.969, 866.340 511.241, 861.459 502.513, 856.578 493.784, 851.698 485.056, 846.818 476.328, 841.937 467.600, 837.057 463.288, 834.645 463.408, 844.645 463.527, 854.644 463.646, 864.643 463.766, 874.643 463.885, 884.642 464.004, 894.641 464.064, 899.639 " />
            <path fill="none" stroke-width="3.0" stroke-linecap="round" stroke-opacity="1.0" stroke="rgb(0, 0, 0)" stroke-linejoin="round" d=" M 465.017, 979.529 465.089, 985.566 474.198, 989.693 483.307, 993.819 492.416, 997.946 501.524, 1002.073 510.633, 1006.200 519.742, 1010.327 528.851, 1014.453 534.538, 1017.030 " />
            <path fill="none" stroke-width="3.0" stroke-linecap="round" stroke-opacity="1.0" stroke="rgb(0, 0, 0)" stroke-linejoin="round" d=" M 415.078, 689.226 413.354, 699.076 411.629, 708.926 409.905, 718.777 408.180, 728.627 406.455, 738.477 404.731, 748.327 403.006, 758.177 401.281, 768.027 399.844, 776.234 401.187, 786.143 402.530, 796.053 403.873, 805.962 405.215, 815.872 406.558, 825.781 407.901, 835.691 409.244, 845.600 410.586, 855.510 411.929, 865.419 412.990, 873.248 " />
            <path fill="none" stroke-width="3.0" stroke-linecap="round" stroke-opacity="1.0" stroke="rgb(0, 0, 0)" stroke-linejoin="round" d=" M 535.349, 1168.592 535.348, 1168.347 535.294, 1158.348 535.241, 1148.348 535.187, 1138.348 535.134, 1128.348 535.080, 1118.348 535.037, 1110.283 534.983, 1100.283 534.930, 1090.283 534.876, 1080.283 534.823, 1070.283 534.769, 1060.283 534.716, 1050.284 534.662, 1040.284 534.609, 1030.284 534.555, 1020.284 534.538, 1017.030 535.854, 1008.541 " />
            <path fill="none" stroke-width="3.0" stroke-linecap="round" stroke-opacity="1.0" stroke="rgb(0, 0, 0)" stroke-linejoin="round" d=" M 613.824, 1182.125 620.104, 1174.343 626.384, 1166.560 632.664, 1158.778 638.944, 1150.996 645.224, 1143.214 646.056, 1142.183 " />
            <path fill="none" stroke-width="3.0" stroke-linecap="round" stroke-opacity="1.0" stroke="rgb(0, 0, 0)" stroke-linejoin="round" d=" M 660.052, 1124.840 666.332, 1117.057 672.612, 1109.275 678.892, 1101.493 685.274, 1093.584 680.209, 1084.962 678.452, 1081.972 " />
            <path fill="none" stroke-width="3.0" stroke-linecap="round" stroke-opacity="1.0" stroke="rgb(0, 0, 0)" stroke-linejoin="round" d=" M 703.162, 1024.405 699.135, 1015.252 695.107, 1006.099 691.080, 996.946 687.052, 987.793 683.025, 978.640 678.997, 969.487 675.697, 961.987 " />
            <path fill="none" stroke-width="3.0" stroke-linecap="round" stroke-opacity="1.0" stroke="rgb(0, 0, 0)" stroke-linejoin="round" d=" M 646.056, 1142.183 648.789, 1141.531 653.354, 1140.442 657.299, 1131.253 660.052, 1124.840 663.996, 1115.650 667.940, 1106.461 671.885, 1097.272 675.931, 1087.846 " />
            <path fill="none" stroke-width="3.0" stroke-linecap="round" stroke-opacity="1.0" stroke="rgb(0, 0, 0)" stroke-linejoin="round" d=" M 432.906, 558.384 442.906, 558.518 449.761, 558.610 " />
            <path fill="none" stroke-width="3.0" stroke-linecap="round" stroke-opacity="1.0" stroke="rgb(0, 0, 0)" stroke-linejoin="round" d=" M 451.135, 654.870 449.278, 645.044 447.422, 635.218 445.566, 625.392 443.709, 615.566 441.853, 605.739 439.996, 595.913 438.140, 586.087 436.284, 576.261 434.427, 566.435 432.906, 558.384 " />
            <path fill="none" stroke-width="3.0" stroke-linecap="round" stroke-opacity="1.0" stroke="rgb(0, 0, 0)" stroke-linejoin="round" d=" M 672.058, 1533.832 664.798, 1540.710 657.539, 1547.587 650.279, 1554.465 643.020, 1561.343 635.760, 1568.220 634.377, 1569.530 630.614, 1578.795 626.851, 1588.060 623.087, 1597.325 619.324, 1606.590 615.560, 1615.854 611.797, 1625.119 608.033, 1634.384 604.270, 1643.649 601.097, 1651.460 600.089, 1661.409 599.080, 1671.358 598.072, 1681.307 597.064, 1691.257 596.055, 1701.206 595.745, 1704.266 595.055, 1714.242 594.364, 1724.218 593.674, 1734.195 592.984, 1744.171 592.916, 1745.141 " />
            <path fill="none" stroke-width="3.0" stroke-linecap="round" stroke-opacity="1.0" stroke="rgb(0, 0, 0)" stroke-linejoin="round" d=" M 672.058, 1533.832 672.983, 1543.789 673.908, 1553.747 674.833, 1563.704 675.758, 1573.661 676.682, 1583.618 677.607, 1593.575 678.532, 1603.532 679.457, 1613.489 680.382, 1623.446 681.307, 1633.404 682.232, 1643.361 682.657, 1647.929 " />
            <path fill="none" stroke-width="3.0" stroke-linecap="round" stroke-opacity="1.0" stroke="rgb(0, 0, 0)" stroke-linejoin="round" d=" M 397.255, 1677.828 404.313, 1670.744 411.371, 1663.660 418.429, 1656.576 425.487, 1649.492 432.545, 1642.407 439.327, 1635.600 442.954, 1626.281 446.581, 1616.962 450.207, 1607.643 453.834, 1598.324 457.461, 1589.005 461.088, 1579.685 464.715, 1570.366 468.342, 1561.047 471.969, 1551.728 472.795, 1549.606 482.708, 1550.923 492.621, 1552.240 502.533, 1553.557 512.446, 1554.874 522.359, 1556.191 532.272, 1557.508 542.185, 1558.825 552.098, 1560.142 557.219, 1560.823 556.978, 1550.826 556.738, 1540.828 556.498, 1530.831 556.258, 1520.834 556.017, 1510.837 555.777, 1500.840 555.537, 1490.843 555.296, 1480.846 555.056, 1470.849 554.816, 1460.852 554.575, 1450.854 554.335, 1440.857 554.095, 1430.860 553.855, 1420.863 553.614, 1410.866 553.506, 1406.354 552.584, 1396.397 551.662, 1386.440 550.740, 1376.482 549.818, 1366.525 548.896, 1356.567 547.974, 1346.610 547.053, 1336.653 546.131, 1326.695 545.209, 1316.738 544.287, 1306.780 543.285, 1295.954 542.475, 1285.986 541.665, 1276.019 540.855, 1266.052 540.046, 1256.085 539.236, 1246.118 538.426, 1236.151 537.616, 1226.183 536.807, 1216.216 535.997, 1206.249 535.187, 1196.282 534.377, 1186.315 533.568, 1176.348 533.072, 1170.248 533.435, 1167.687 " />
            <path fill="none" stroke-width="3.0" stroke-linecap="round" stroke-opacity="1.0" stroke="rgb(0, 0, 0)" stroke-linejoin="round" d=" M 472.795, 1549.606 463.973, 1554.315 455.151, 1559.024 446.330, 1563.733 437.508, 1568.443 428.686, 1573.152 419.864, 1577.861 411.043, 1582.570 402.221, 1587.280 393.399, 1591.989 391.249, 1593.137 398.744, 1599.756 406.239, 1606.376 413.734, 1612.996 421.230, 1619.616 428.725, 1626.236 436.220, 1632.856 439.327, 1635.600 " />
            <path fill="none" stroke-width="3.0" stroke-linecap="round" stroke-opacity="1.0" stroke="rgb(0, 0, 0)" stroke-linejoin="round" d=" M 448.368, 1687.131 446.640, 1677.281 444.912, 1667.431 443.184, 1657.582 441.456, 1647.732 439.727, 1637.883 439.327, 1635.600 447.771, 1630.244 456.216, 1624.888 464.660, 1619.531 473.105, 1614.175 481.550, 1608.819 489.994, 1603.462 498.439, 1598.106 506.883, 1592.750 515.328, 1587.394 523.772, 1582.037 532.217, 1576.681 540.661, 1571.325 549.106, 1565.969 557.219, 1560.823 " />
            <path fill="none" stroke-width="3.0" stroke-linecap="round" stroke-opacity="1.0" stroke="rgb(0, 0, 0)" stroke-linejoin="round" d=" M 481.325, 594.120 482.416, 584.180 483.507, 574.240 484.599, 564.300 485.690, 554.359 486.597, 546.099 487.688, 536.159 488.779, 526.219 489.149, 522.852 490.240, 512.911 490.836, 507.486 " />
            <path fill="none" stroke-width="3.0" stroke-linecap="round" stroke-opacity="1.0" stroke="rgb(0, 0, 0)" stroke-linejoin="round" d=" M 495.062, 508.862 490.836, 507.486 489.486, 505.210 " />
            <path fill="none" stroke-width="3.0" stroke-linecap="round" stroke-opacity="1.0" stroke="rgb(0, 0, 0)" stroke-linejoin="round" d=" M 455.984, 551.143 457.003, 552.870 457.932, 554.447 460.379, 558.597 465.458, 567.211 468.109, 571.706 473.188, 580.320 478.267, 588.934 481.325, 594.120 490.722, 597.540 500.119, 600.960 509.516, 604.380 515.209, 606.452 517.695, 607.357 527.093, 610.777 534.952, 613.638 544.349, 617.058 553.746, 620.478 554.348, 620.697 " />
            <path fill="none" stroke-width="3.0" stroke-linecap="round" stroke-opacity="1.0" stroke="rgb(0, 0, 0)" stroke-linejoin="round" d=" M 601.097, 1651.460 611.087, 1651.028 621.078, 1650.595 631.069, 1650.163 641.059, 1649.730 651.050, 1649.298 661.041, 1648.865 671.031, 1648.432 681.022, 1648.000 682.657, 1647.929 677.413, 1639.414 672.169, 1630.899 666.926, 1622.384 661.682, 1613.869 656.438, 1605.354 651.195, 1596.840 645.951, 1588.325 640.708, 1579.810 635.464, 1571.295 634.377, 1569.530 " />
            <path fill="none" stroke-width="3.0" stroke-linecap="round" stroke-opacity="1.0" stroke="rgb(0, 0, 0)" stroke-linejoin="round" d=" M 563.197, 1610.271 561.997, 1600.343 560.797, 1590.415 559.596, 1580.488 558.396, 1570.560 557.219, 1560.823 561.540, 1551.804 565.860, 1542.786 570.181, 1533.768 574.502, 1524.749 576.211, 1521.183 " />
            <path fill="none" stroke-width="3.0" stroke-linecap="round" stroke-opacity="1.0" stroke="rgb(0, 0, 0)" stroke-linejoin="round" d=" M 358.188, 1618.831 363.709, 1627.169 369.230, 1635.507 374.751, 1643.844 380.272, 1652.182 385.793, 1660.520 391.315, 1668.857 396.836, 1677.195 397.255, 1677.828 396.663, 1687.811 396.070, 1697.793 395.477, 1707.776 394.885, 1717.758 394.819, 1718.870 " />
            <path fill="none" stroke-width="3.0" stroke-linecap="round" stroke-opacity="1.0" stroke="rgb(0, 0, 0)" stroke-linejoin="round" d=" M 567.861, 1372.630 563.945, 1381.831 560.028, 1391.032 556.111, 1400.233 553.506, 1406.354 543.506, 1406.458 533.507, 1406.562 523.507, 1406.666 513.508, 1406.769 503.509, 1406.873 493.509, 1406.977 483.510, 1407.080 473.510, 1407.184 463.511, 1407.288 454.084, 1407.385 " />
            <path fill="none" stroke-width="3.0" stroke-linecap="round" stroke-opacity="1.0" stroke="rgb(0, 0, 0)" stroke-linejoin="round" d=" M 431.630, 1261.483 441.185, 1264.433 450.740, 1267.383 460.295, 1270.333 469.850, 1273.283 479.405, 1276.233 488.960, 1279.182 498.515, 1282.132 508.070, 1285.082 517.625, 1288.032 527.180, 1290.982 536.735, 1293.932 543.285, 1295.954 " />
            <path fill="none" stroke-width="3.0" stroke-linecap="round" stroke-opacity="1.0" stroke="rgb(0, 0, 0)" stroke-linejoin="round" d=" M 444.430, 1329.227 453.907, 1326.037 463.385, 1322.847 472.863, 1319.657 482.340, 1316.467 491.818, 1313.277 501.295, 1310.087 510.773, 1306.897 520.250, 1303.707 529.728, 1300.517 539.205, 1297.327 543.285, 1295.954 546.371, 1286.442 549.457, 1276.930 552.543, 1267.418 555.481, 1258.362 " />
            <path fill="none" stroke-width="3.0" stroke-linecap="round" stroke-opacity="1.0" stroke="rgb(0, 0, 0)" stroke-linejoin="round" d=" M 550.140, 1165.064 557.489, 1167.032 567.149, 1169.620 570.310, 1170.467 579.969, 1173.055 589.629, 1175.643 599.288, 1178.230 608.947, 1180.818 613.824, 1182.125 603.853, 1181.371 593.881, 1180.616 583.910, 1179.862 573.938, 1179.108 569.838, 1178.798 560.485, 1178.091 566.860, 1185.796 569.275, 1188.716 575.650, 1196.421 582.024, 1204.125 588.399, 1211.830 594.773, 1219.535 601.148, 1227.240 607.523, 1234.945 613.897, 1242.650 620.272, 1250.355 626.646, 1258.060 632.469, 1265.098 638.696, 1257.273 644.923, 1249.449 651.151, 1241.624 657.378, 1233.800 663.605, 1225.976 669.833, 1218.151 676.060, 1210.327 682.287, 1202.503 688.514, 1194.678 694.742, 1186.854 698.660, 1181.931 " />
            <path fill="none" stroke-width="3.0" stroke-linecap="round" stroke-opacity="1.0" stroke="rgb(0, 0, 0)" stroke-linejoin="round" d=" M 568.807, 1398.452 576.837, 1404.412 581.334, 1407.750 589.364, 1413.709 597.394, 1419.669 605.424, 1425.629 613.454, 1431.589 621.484, 1437.548 629.514, 1443.508 637.544, 1449.468 639.652, 1451.032 645.694, 1443.064 651.737, 1435.096 657.779, 1427.128 663.821, 1419.160 669.864, 1411.192 675.906, 1403.224 681.948, 1395.256 687.990, 1387.288 689.584, 1385.186 " />
            <path fill="none" stroke-width="3.0" stroke-linecap="round" stroke-opacity="1.0" stroke="rgb(0, 0, 0)" stroke-linejoin="round" d=" M 577.869, 386.573 569.337, 391.788 560.804, 397.002 552.271, 402.217 550.765, 403.137 " />
            <path fill="none" stroke-width="3.0" stroke-linecap="round" stroke-opacity="1.0" stroke="rgb(0, 0, 0)" stroke-linejoin="round" d=" M 490.836, 507.486 493.950, 505.602 494.438, 505.307 " />
            <path fill="none" stroke-width="3.0" stroke-linecap="round" stroke-opacity="1.0" stroke="rgb(0, 0, 0)" stroke-linejoin="round" d=" M 566.492, 532.114 567.242, 542.086 567.992, 552.057 568.468, 558.381 569.218, 568.353 569.257, 568.872 570.007, 578.844 570.757, 588.816 571.508, 598.787 572.258, 608.759 572.362, 610.148 573.112, 620.119 573.143, 620.523 564.184, 620.606 554.348, 620.697 " />
            <path fill="none" stroke-width="3.0" stroke-linecap="round" stroke-opacity="1.0" stroke="rgb(0, 0, 0)" stroke-linejoin="round" d=" M 474.809, 1144.882 484.468, 1147.470 494.127, 1150.058 498.778, 1151.304 " />
            <path fill="none" stroke-width="3.0" stroke-linecap="round" stroke-opacity="1.0" stroke="rgb(0, 0, 0)" stroke-linejoin="round" d=" M 464.579, 628.965 465.150, 627.777 467.383, 623.130 468.212, 621.406 472.543, 612.393 476.875, 603.380 481.325, 594.120 " />
            <path fill="none" stroke-width="3.0" stroke-linecap="round" stroke-opacity="1.0" stroke="rgb(0, 0, 0)" stroke-linejoin="round" d=" M 481.325, 594.120 471.434, 595.591 464.784, 596.580 462.757, 596.882 459.938, 597.301 459.089, 597.427 449.198, 598.898 442.567, 599.884 " />
            <path fill="none" stroke-width="3.0" stroke-linecap="round" stroke-opacity="1.0" stroke="rgb(0, 0, 0)" stroke-linejoin="round" d=" M 481.325, 594.120 489.166, 600.326 497.008, 606.532 504.849, 612.737 512.691, 618.943 520.533, 625.148 528.374, 631.354 536.216, 637.560 538.643, 639.480 540.788, 636.915 547.203, 629.243 553.617, 621.571 554.348, 620.697 555.706, 610.789 557.065, 600.882 558.423, 590.975 559.753, 581.275 561.111, 571.367 562.469, 561.460 563.084, 556.976 564.442, 547.068 565.800, 537.161 566.492, 532.114 575.147, 527.104 583.802, 522.095 592.457, 517.086 601.112, 512.077 609.767, 507.068 616.313, 503.279 624.968, 498.270 633.623, 493.260 642.278, 488.251 650.941, 483.237 659.596, 478.228 668.251, 473.219 676.906, 468.210 685.560, 463.200 685.932, 462.985 " />
            <path fill="none" stroke-width="3.0" stroke-linecap="round" stroke-opacity="1.0" stroke="rgb(0, 0, 0)" stroke-linejoin="round" d=" M 505.221, 644.188 500.914, 635.163 500.402, 634.090 500.337, 633.955 496.030, 624.930 491.723, 615.906 487.415, 606.881 483.108, 597.856 481.325, 594.120 472.691, 589.075 466.287, 585.333 459.277, 581.236 458.811, 580.964 450.177, 575.919 441.971, 571.123 447.713, 562.936 453.455, 554.749 454.346, 553.478 455.984, 551.143 456.144, 548.354 456.719, 538.371 457.294, 528.387 457.868, 518.404 458.443, 508.420 458.783, 502.513 " />
            <path fill="none" stroke-width="3.0" stroke-linecap="round" stroke-opacity="1.0" stroke="rgb(0, 0, 0)" stroke-linejoin="round" d=" M 470.382, 633.535 468.728, 640.299 " />
            <path fill="none" stroke-width="3.0" stroke-linecap="round" stroke-opacity="1.0" stroke="rgb(0, 0, 0)" stroke-linejoin="round" d=" M 536.395, 669.526 526.759, 666.850 517.124, 664.174 511.507, 662.615 " />
            <path fill="none" stroke-width="3.0" stroke-linecap="round" stroke-opacity="1.0" stroke="rgb(0, 0, 0)" stroke-linejoin="round" d=" M 473.810, 638.797 473.320, 638.044 471.183, 634.764 470.382, 633.535 469.608, 630.849 " />
            <path fill="none" stroke-width="3.0" stroke-linecap="round" stroke-opacity="1.0" stroke="rgb(0, 0, 0)" stroke-linejoin="round" d=" M 465.705, 1135.669 472.734, 1142.782 474.809, 1144.882 484.133, 1148.496 493.457, 1152.110 502.781, 1155.724 512.105, 1159.338 521.429, 1162.952 530.753, 1166.567 532.481, 1167.236 " />
            <path fill="none" stroke-width="3.0" stroke-linecap="round" stroke-opacity="1.0" stroke="rgb(0, 0, 0)" stroke-linejoin="round" d=" M 501.333, 506.250 511.295, 507.125 518.238, 507.735 523.126, 508.164 528.233, 508.613 538.195, 509.488 548.157, 510.363 549.529, 510.483 549.529, 500.483 549.529, 492.988 549.529, 486.627 549.529, 483.990 549.529, 482.347 549.529, 472.347 549.529, 471.976 549.529, 461.976 549.529, 451.976 549.529, 441.976 549.529, 435.720 549.529, 428.576 550.015, 418.588 550.500, 408.600 550.765, 403.137 551.034, 397.605 551.519, 387.617 552.004, 377.628 552.490, 367.640 552.975, 357.652 553.460, 347.664 553.650, 343.749 543.689, 342.874 533.727, 341.999 523.765, 341.124 513.804, 340.249 503.842, 339.374 498.619, 338.915 489.930, 338.152 479.968, 337.277 470.007, 336.402 460.045, 335.527 450.084, 334.653 443.588, 334.082 443.102, 344.070 442.617, 354.058 442.132, 364.047 441.647, 374.035 441.161, 384.023 440.676, 394.011 440.191, 404.000 439.705, 413.988 439.466, 418.909 439.466, 428.909 439.466, 438.909 439.466, 448.909 439.466, 458.909 439.466, 468.909 439.466, 478.909 439.466, 488.909 439.466, 498.909 439.466, 500.817 449.428, 501.691 458.783, 502.513 461.008, 502.708 470.970, 503.583 472.307, 503.701 482.269, 504.576 489.486, 505.210 " />
            <path fill="none" stroke-width="3.0" stroke-linecap="round" stroke-opacity="1.0" stroke="rgb(0, 0, 0)" stroke-linejoin="round" d=" M 439.466, 418.909 449.428, 419.784 459.389, 420.659 469.351, 421.534 479.313, 422.409 487.662, 423.142 496.147, 423.888 " />
            <path fill="none" stroke-width="3.0" stroke-linecap="round" stroke-opacity="1.0" stroke="rgb(0, 0, 0)" stroke-linejoin="round" d=" M 495.062, 508.862 496.675, 518.044 497.641, 523.542 498.844, 530.396 500.117, 537.640 501.023, 542.798 501.333, 544.563 501.333, 542.727 501.333, 536.385 501.333, 528.117 501.333, 518.117 501.333, 515.702 501.333, 510.903 501.333, 506.250 501.333, 501.135 501.333, 491.135 501.333, 481.135 501.333, 471.135 501.333, 462.656 501.596, 457.247 501.717, 454.761 502.202, 444.773 502.687, 434.784 502.801, 432.448 503.187, 424.506 503.545, 417.127 504.030, 407.138 504.516, 397.150 505.001, 387.162 505.454, 377.828 503.724, 367.979 501.994, 358.130 500.264, 348.281 498.619, 338.915 496.889, 329.066 495.159, 319.217 493.429, 309.368 491.784, 300.002 491.298, 309.990 490.813, 319.979 490.328, 329.967 489.930, 338.152 " />
            <path fill="none" stroke-width="3.0" stroke-linecap="round" stroke-opacity="1.0" stroke="rgb(0, 0, 0)" stroke-linejoin="round" d=" M 294.124, 782.564 297.929, 776.536 " />
            <path fill="none" stroke-width="3.0" stroke-linecap="round" stroke-opacity="1.0" stroke="rgb(0, 0, 0)" stroke-linejoin="round" d=" M 419.363, 952.750 417.903, 962.643 416.442, 972.536 414.982, 982.429 413.521, 992.321 412.061, 1002.214 410.600, 1012.107 409.140, 1022.000 407.680, 1031.893 406.219, 1041.785 404.759, 1051.678 403.298, 1061.571 401.838, 1071.464 401.478, 1073.903 " />
            <path fill="none" stroke-width="3.0" stroke-linecap="round" stroke-opacity="1.0" stroke="rgb(0, 0, 0)" stroke-linejoin="round" d=" M 468.900, 630.583 470.382, 633.535 " />
            <path fill="none" stroke-width="3.0" stroke-linecap="round" stroke-opacity="1.0" stroke="rgb(0, 0, 0)" stroke-linejoin="round" d=" M 470.376, 631.136 471.183, 634.764 " />
            <path fill="none" stroke-width="3.0" stroke-linecap="round" stroke-opacity="1.0" stroke="rgb(0, 0, 0)" stroke-linejoin="round" d=" M 476.495, 1121.713 475.769, 1131.686 475.154, 1140.136 474.809, 1144.882 " />
            <path fill="none" stroke-width="3.0" stroke-linecap="round" stroke-opacity="1.0" stroke="rgb(0, 0, 0)" stroke-linejoin="round" d=" M 474.414, 639.109 474.306, 639.557 " />
            <path fill="none" stroke-width="3.0" stroke-linecap="round" stroke-opacity="1.0" stroke="rgb(0, 0, 0)" stroke-linejoin="round" d=" M 475.590, 633.089 473.821, 638.813 473.686, 639.249 " />
            <path fill="none" stroke-width="3.0" stroke-linecap="round" stroke-opacity="1.0" stroke="rgb(0, 0, 0)" stroke-linejoin="round" d=" M 488.523, 658.286 487.804, 648.312 487.085, 638.338 487.015, 637.368 " />
            <path fill="none" stroke-width="3.0" stroke-linecap="round" stroke-opacity="1.0" stroke="rgb(0, 0, 0)" stroke-linejoin="round" d=" M 494.760, 425.239 496.491, 435.088 498.221, 444.937 499.951, 454.786 500.062, 455.420 501.333, 462.656 " />
            <path fill="none" stroke-width="3.0" stroke-linecap="round" stroke-opacity="1.0" stroke="rgb(0, 0, 0)" stroke-linejoin="round" d=" M 520.401, 673.742 522.997, 679.183 " />
            <path fill="none" stroke-width="3.0" stroke-linecap="round" stroke-opacity="1.0" stroke="rgb(0, 0, 0)" stroke-linejoin="round" d=" M 506.228, 644.046 510.535, 653.071 514.545, 661.472 " />
            <path fill="none" stroke-width="3.0" stroke-linecap="round" stroke-opacity="1.0" stroke="rgb(0, 0, 0)" stroke-linejoin="round" d=" M 472.585, 646.712 463.238, 650.267 453.891, 653.822 451.135, 654.870 461.103, 655.662 471.072, 656.455 478.815, 657.070 " />
            <path fill="none" stroke-width="3.0" stroke-linecap="round" stroke-opacity="1.0" stroke="rgb(0, 0, 0)" stroke-linejoin="round" d=" M 503.187, 424.506 513.148, 425.381 523.110, 426.256 533.072, 427.131 543.033, 428.005 549.529, 428.576 " />
            <path fill="none" stroke-width="3.0" stroke-linecap="round" stroke-opacity="1.0" stroke="rgb(0, 0, 0)" stroke-linejoin="round" d=" M 539.013, 652.268 544.126, 643.675 547.536, 637.945 550.389, 633.151 550.407, 633.016 " />
            <path fill="none" stroke-width="3.0" stroke-linecap="round" stroke-opacity="1.0" stroke="rgb(0, 0, 0)" stroke-linejoin="round" d=" M 535.739, 1168.499 542.722, 1171.206 552.046, 1174.820 558.107, 1177.169 560.485, 1178.091 " />
            <path fill="none" stroke-width="3.0" stroke-linecap="round" stroke-opacity="1.0" stroke="rgb(0, 0, 0)" stroke-linejoin="round" d=" M 596.797, 610.069 592.800, 619.236 588.803, 628.402 584.806, 637.569 582.326, 643.257 " />
            <path fill="none" stroke-width="3.0" stroke-linecap="round" stroke-opacity="1.0" stroke="rgb(0, 0, 0)" stroke-linejoin="round" d=" M 549.529, 471.976 558.085, 466.800 566.641, 461.623 575.197, 456.447 583.753, 451.270 592.309, 446.094 600.865, 440.918 604.007, 439.017 612.563, 433.840 621.119, 428.664 629.675, 423.487 638.231, 418.311 646.787, 413.134 649.086, 411.743 " />
            <path fill="none" stroke-width="3.0" stroke-linecap="round" stroke-opacity="1.0" stroke="rgb(0, 0, 0)" stroke-linejoin="round" d=" M 629.797, 1010.261 631.578, 1020.101 633.359, 1029.941 635.139, 1039.781 636.920, 1049.622 638.701, 1059.462 640.481, 1069.302 642.262, 1079.142 644.043, 1088.982 645.823, 1098.823 647.604, 1108.663 649.384, 1118.503 651.165, 1128.343 652.946, 1138.183 653.354, 1140.442 " />
            <path fill="none" stroke-width="3.0" stroke-linecap="round" stroke-opacity="1.0" stroke="rgb(0, 0, 0)" stroke-linejoin="round" d=" M 678.452, 1081.972 682.302, 1073.003 686.246, 1063.814 690.191, 1054.625 694.135, 1045.436 698.079, 1036.247 702.024, 1027.057 703.162, 1024.405 " />
        </g>
    </g>
</svg>
