<?xml version='1.0' encoding='ascii'?>
<svg xmlns="http://www.w3.org/2000/svg" version="1.1" width="1001" height="2138">
    <g id="View Layer_LineSet" xmlns:inkscape="http://www.inkscape.org/namespaces/inkscape" inkscape:groupmode="lineset" inkscape:label="View Layer_LineSet">
        <g xmlns:inkscape="http://www.inkscape.org/namespaces/inkscape" inkscape:groupmode="layer" id="strokes" inkscape:label="strokes">
            <path fill="none" stroke-width="3.0" stroke-linecap="round" stroke-opacity="1.0" stroke="rgb(0, 0, 0)" stroke-linejoin="round" d=" M 658.689, 636.911 667.826, 638.675 670.069, 639.108 670.424, 639.177 670.796, 639.249 670.672, 638.796 669.088, 633.016 " />
            <path fill="none" stroke-width="3.0" stroke-linecap="round" stroke-opacity="1.0" stroke="rgb(0, 0, 0)" stroke-linejoin="round" d=" M 571.340, 620.523 572.090, 610.551 572.120, 610.152 572.871, 600.180 573.621, 590.208 574.371, 580.237 575.121, 570.265 575.198, 569.237 575.948, 559.266 575.993, 558.676 576.743, 548.704 577.493, 538.732 577.991, 532.114 " />
            <path fill="none" stroke-width="3.0" stroke-linecap="round" stroke-opacity="1.0" stroke="rgb(0, 0, 0)" stroke-linejoin="round" d=" M 643.150, 510.903 640.000, 511.928 630.491, 515.024 620.982, 518.119 611.473, 521.214 601.964, 524.310 592.456, 527.405 582.947, 530.500 577.991, 532.114 568.559, 528.791 559.127, 525.469 549.695, 522.146 540.263, 518.824 530.831, 515.501 521.399, 512.179 512.483, 509.038 512.297, 508.972 504.699, 502.471 497.101, 495.970 489.503, 489.469 489.015, 489.051 481.416, 482.550 473.818, 476.048 466.220, 469.547 458.551, 462.985 " />
            <path fill="none" stroke-width="3.0" stroke-linecap="round" stroke-opacity="1.0" stroke="rgb(0, 0, 0)" stroke-linejoin="round" d=" M 512.297, 508.972 512.322, 509.097 514.276, 518.904 516.231, 528.711 518.185, 538.518 520.140, 548.325 522.094, 558.132 524.049, 567.940 526.003, 577.747 527.958, 587.554 529.912, 597.361 530.413, 599.874 " />
            <path fill="none" stroke-width="3.0" stroke-linecap="round" stroke-opacity="1.0" stroke="rgb(0, 0, 0)" stroke-linejoin="round" d=" M 473.477, 558.889 481.593, 564.731 489.709, 570.573 497.825, 576.416 505.941, 582.258 508.395, 584.025 516.511, 589.867 518.312, 591.163 519.204, 591.805 523.860, 595.157 527.586, 597.839 530.413, 599.874 539.341, 604.379 545.214, 607.342 546.858, 608.171 555.786, 612.676 564.714, 617.180 568.616, 619.149 571.340, 620.523 580.104, 625.339 585.471, 628.288 591.492, 631.596 594.076, 633.016 594.198, 633.083 594.327, 633.154 601.719, 637.216 605.840, 639.480 609.254, 639.961 614.419, 640.689 615.486, 640.839 621.538, 641.691 631.441, 643.086 632.482, 643.233 638.255, 644.046 639.261, 644.187 648.626, 640.680 653.139, 638.990 657.468, 637.368 658.689, 636.911 661.302, 635.932 665.139, 634.495 668.642, 633.183 668.893, 633.089 669.088, 633.016 674.107, 631.136 674.873, 630.849 675.581, 630.584 678.882, 629.348 679.904, 628.965 685.939, 620.992 691.974, 613.018 698.010, 605.045 698.262, 604.711 701.916, 599.884 702.123, 589.886 702.148, 588.652 702.356, 578.654 702.512, 571.123 697.227, 562.634 694.656, 558.503 691.864, 554.018 688.339, 548.354 " />
            <path fill="none" stroke-width="3.0" stroke-linecap="round" stroke-opacity="1.0" stroke="rgb(0, 0, 0)" stroke-linejoin="round" d=" M 518.312, 591.163 518.994, 591.974 523.394, 597.201 529.833, 604.852 536.273, 612.503 540.266, 617.247 546.705, 624.898 553.144, 632.549 559.584, 640.199 562.157, 643.257 570.711, 648.436 579.265, 653.616 587.819, 658.796 591.954, 661.300 595.892, 663.685 602.282, 667.554 610.836, 672.734 611.218, 672.965 618.258, 677.228 621.486, 679.182 631.379, 677.725 641.272, 676.267 651.165, 674.810 654.806, 674.273 657.376, 669.540 " />
            <path fill="none" stroke-width="3.0" stroke-linecap="round" stroke-opacity="1.0" stroke="rgb(0, 0, 0)" stroke-linejoin="round" d=" M 654.806, 674.273 655.121, 669.918 " />
            <path fill="none" stroke-width="3.0" stroke-linecap="round" stroke-opacity="1.0" stroke="rgb(0, 0, 0)" stroke-linejoin="round" d=" M 651.589, 1537.613 653.819, 1527.864 654.589, 1524.497 656.819, 1514.749 659.050, 1505.001 661.280, 1495.253 663.510, 1485.505 665.741, 1475.757 667.971, 1466.009 670.201, 1456.261 672.431, 1446.513 674.662, 1436.764 676.892, 1427.016 679.122, 1417.268 681.352, 1407.520 682.101, 1404.248 684.270, 1394.486 686.439, 1384.724 688.609, 1374.962 690.778, 1365.200 692.947, 1355.439 695.116, 1345.677 697.285, 1335.915 698.392, 1330.933 700.447, 1321.146 702.503, 1311.360 704.558, 1301.573 706.613, 1291.787 708.668, 1282.000 710.723, 1272.214 712.779, 1262.427 712.944, 1261.637 715.252, 1251.907 717.559, 1242.177 719.867, 1232.447 722.174, 1222.717 724.482, 1212.986 726.789, 1203.256 729.097, 1193.526 731.404, 1183.796 733.712, 1174.066 734.468, 1170.878 734.802, 1160.884 735.137, 1150.890 735.471, 1140.895 735.805, 1130.901 736.139, 1120.906 736.474, 1110.912 736.808, 1100.917 737.142, 1090.923 737.477, 1080.929 737.528, 1079.385 " />
            <path fill="none" stroke-width="3.0" stroke-linecap="round" stroke-opacity="1.0" stroke="rgb(0, 0, 0)" stroke-linejoin="round" d=" M 687.421, 1131.052 695.054, 1137.513 702.686, 1143.975 710.319, 1150.436 717.951, 1156.897 725.584, 1163.358 733.216, 1169.819 734.468, 1170.878 724.468, 1170.827 714.468, 1170.776 704.468, 1170.725 694.468, 1170.673 684.469, 1170.622 674.469, 1170.571 664.469, 1170.520 654.469, 1170.468 644.469, 1170.417 634.469, 1170.366 624.469, 1170.315 617.631, 1170.280 " />
            <path fill="none" stroke-width="3.0" stroke-linecap="round" stroke-opacity="1.0" stroke="rgb(0, 0, 0)" stroke-linejoin="round" d=" M 725.388, 1705.237 731.539, 1697.353 737.690, 1689.468 743.841, 1681.584 749.992, 1673.700 756.143, 1665.815 762.295, 1657.931 768.446, 1650.046 774.597, 1642.162 778.725, 1636.871 774.315, 1627.896 769.905, 1618.921 765.495, 1609.946 763.571, 1606.028 755.766, 1599.776 747.961, 1593.524 740.157, 1587.272 732.352, 1581.020 731.035, 1579.965 722.941, 1574.092 714.848, 1568.219 706.754, 1562.347 698.660, 1556.474 690.566, 1550.601 682.472, 1544.729 674.378, 1538.856 666.284, 1532.983 658.190, 1527.110 654.589, 1524.497 " />
            <path fill="none" stroke-width="3.0" stroke-linecap="round" stroke-opacity="1.0" stroke="rgb(0, 0, 0)" stroke-linejoin="round" d=" M 474.730, 1102.522 475.669, 1112.478 476.608, 1122.434 477.547, 1132.389 478.486, 1142.345 479.425, 1152.301 480.364, 1162.257 481.303, 1172.213 482.242, 1182.169 483.181, 1192.124 484.120, 1202.080 485.059, 1212.036 485.998, 1221.992 486.937, 1231.948 487.876, 1241.903 488.074, 1244.004 488.708, 1253.984 489.342, 1263.964 489.976, 1273.944 490.610, 1283.924 491.244, 1293.904 491.427, 1296.791 492.061, 1306.771 492.695, 1316.751 493.329, 1326.731 493.963, 1336.711 494.597, 1346.690 495.231, 1356.670 495.427, 1359.756 " />
            <path fill="none" stroke-width="3.0" stroke-linecap="round" stroke-opacity="1.0" stroke="rgb(0, 0, 0)" stroke-linejoin="round" d=" M 495.427, 1359.756 505.313, 1358.247 515.198, 1356.737 525.083, 1355.227 534.969, 1353.717 544.854, 1352.207 554.017, 1350.808 563.902, 1349.298 573.788, 1347.788 583.673, 1346.278 593.559, 1344.768 595.486, 1344.474 " />
            <path fill="none" stroke-width="3.0" stroke-linecap="round" stroke-opacity="1.0" stroke="rgb(0, 0, 0)" stroke-linejoin="round" d=" M 589.161, 1478.971 589.489, 1468.977 589.816, 1458.982 590.143, 1448.987 590.372, 1441.972 590.700, 1431.978 591.027, 1421.983 591.354, 1411.988 591.551, 1405.949 592.054, 1398.094 592.693, 1388.114 593.332, 1378.135 593.971, 1368.155 594.609, 1358.176 595.248, 1348.196 595.486, 1344.474 596.928, 1334.578 598.281, 1325.287 599.723, 1315.391 601.164, 1305.496 602.519, 1296.193 602.643, 1295.343 604.085, 1285.448 605.526, 1275.552 606.968, 1265.657 607.718, 1260.504 608.811, 1250.564 609.903, 1240.623 610.995, 1230.683 611.674, 1224.498 612.766, 1214.557 613.859, 1204.617 614.951, 1194.677 616.043, 1184.737 617.135, 1174.797 617.631, 1170.280 618.280, 1164.378 " />
            <path fill="none" stroke-width="3.0" stroke-linecap="round" stroke-opacity="1.0" stroke="rgb(0, 0, 0)" stroke-linejoin="round" d=" M 610.212, 1168.204 609.942, 1178.201 609.672, 1188.197 609.402, 1198.194 609.132, 1208.190 608.862, 1218.186 608.592, 1228.183 608.322, 1238.179 608.052, 1248.175 607.781, 1258.172 607.718, 1260.504 597.812, 1259.138 587.906, 1257.771 578.000, 1256.405 569.722, 1255.264 559.816, 1253.898 549.909, 1252.532 540.003, 1251.165 530.097, 1249.799 520.191, 1248.433 510.285, 1247.067 500.378, 1245.701 490.472, 1244.335 488.074, 1244.004 488.607, 1234.018 489.140, 1224.033 489.672, 1214.047 490.205, 1204.061 490.738, 1194.075 491.270, 1184.089 491.803, 1174.104 492.336, 1164.118 492.869, 1154.132 493.401, 1144.146 493.566, 1141.052 " />
            <path fill="none" stroke-width="3.0" stroke-linecap="round" stroke-opacity="1.0" stroke="rgb(0, 0, 0)" stroke-linejoin="round" d=" M 557.750, 670.605 567.590, 668.820 577.429, 667.035 587.268, 665.249 595.892, 663.685 " />
            <path fill="none" stroke-width="3.0" stroke-linecap="round" stroke-opacity="1.0" stroke="rgb(0, 0, 0)" stroke-linejoin="round" d=" M 562.157, 643.257 560.566, 653.129 558.975, 663.002 557.750, 670.605 549.450, 665.027 541.150, 659.450 532.850, 653.872 524.550, 648.294 516.251, 642.717 507.951, 637.139 499.651, 631.561 491.351, 625.983 483.362, 620.615 " />
            <path fill="none" stroke-width="3.0" stroke-linecap="round" stroke-opacity="1.0" stroke="rgb(0, 0, 0)" stroke-linejoin="round" d=" M 594.094, 633.151 594.198, 633.083 " />
            <path fill="none" stroke-width="3.0" stroke-linecap="round" stroke-opacity="1.0" stroke="rgb(0, 0, 0)" stroke-linejoin="round" d=" M 675.753, 640.300 674.099, 633.536 " />
            <path fill="none" stroke-width="3.0" stroke-linecap="round" stroke-opacity="1.0" stroke="rgb(0, 0, 0)" stroke-linejoin="round" d=" M 674.873, 630.849 674.099, 633.536 673.301, 634.761 670.672, 638.796 " />
            <path fill="none" stroke-width="3.0" stroke-linecap="round" stroke-opacity="1.0" stroke="rgb(0, 0, 0)" stroke-linejoin="round" d=" M 658.256, 657.854 658.256, 667.921 658.256, 669.393 " />
            <path fill="none" stroke-width="3.0" stroke-linecap="round" stroke-opacity="1.0" stroke="rgb(0, 0, 0)" stroke-linejoin="round" d=" M 568.616, 619.149 570.234, 620.955 576.380, 628.843 582.527, 636.731 584.906, 639.783 591.053, 647.671 597.199, 655.559 599.437, 658.430 602.585, 662.470 604.315, 664.690 608.085, 669.528 609.943, 670.018 617.165, 671.921 618.578, 672.294 624.081, 673.744 627.268, 674.584 637.131, 672.932 646.993, 671.280 650.579, 670.679 655.121, 669.918 657.376, 669.540 658.256, 669.393 661.009, 664.816 666.163, 656.246 666.305, 656.009 671.459, 647.440 672.420, 645.842 675.753, 640.300 678.500, 630.685 678.882, 629.348 " />
            <path fill="none" stroke-width="3.0" stroke-linecap="round" stroke-opacity="1.0" stroke="rgb(0, 0, 0)" stroke-linejoin="round" d=" M 594.076, 633.016 594.094, 633.151 596.947, 637.945 602.061, 646.538 605.473, 652.273 " />
            <path fill="none" stroke-width="3.0" stroke-linecap="round" stroke-opacity="1.0" stroke="rgb(0, 0, 0)" stroke-linejoin="round" d=" M 963.059, 732.386 953.062, 732.149 943.064, 731.912 933.067, 731.675 930.967, 731.625 920.970, 731.388 910.973, 731.151 900.976, 730.914 897.228, 730.825 " />
            <path fill="none" stroke-width="3.0" stroke-linecap="round" stroke-opacity="1.0" stroke="rgb(0, 0, 0)" stroke-linejoin="round" d=" M 897.228, 730.825 896.783, 740.815 896.339, 750.805 895.894, 760.795 895.471, 770.293 895.026, 780.283 894.581, 790.273 894.137, 800.263 893.692, 810.253 893.247, 820.244 892.802, 830.234 892.745, 831.519 " />
            <path fill="none" stroke-width="3.0" stroke-linecap="round" stroke-opacity="1.0" stroke="rgb(0, 0, 0)" stroke-linejoin="round" d=" M 897.228, 730.825 895.825, 740.726 894.421, 750.627 893.018, 760.528 891.884, 768.524 890.480, 778.425 889.077, 788.326 887.673, 798.227 887.348, 800.524 " />
            <path fill="none" stroke-width="3.0" stroke-linecap="round" stroke-opacity="1.0" stroke="rgb(0, 0, 0)" stroke-linejoin="round" d=" M 441.037, 1024.382 444.996, 1033.565 448.956, 1042.748 452.915, 1051.930 456.875, 1061.113 460.834, 1070.296 464.794, 1079.479 468.754, 1088.661 472.713, 1097.844 474.730, 1102.522 476.474, 1106.565 480.433, 1115.748 484.393, 1124.930 488.352, 1134.113 491.084, 1140.448 493.566, 1141.052 503.283, 1143.417 512.999, 1145.782 522.715, 1148.147 532.431, 1150.513 542.148, 1152.878 551.864, 1155.243 561.580, 1157.608 571.297, 1159.973 573.864, 1160.598 583.580, 1162.963 593.296, 1165.328 603.013, 1167.693 608.482, 1169.025 610.183, 1168.218 610.212, 1168.204 610.386, 1168.122 611.052, 1167.806 618.280, 1164.378 627.315, 1160.092 636.350, 1155.806 645.385, 1151.521 654.420, 1147.235 663.455, 1142.949 672.490, 1138.664 681.525, 1134.378 686.471, 1132.032 687.421, 1131.052 694.383, 1123.874 701.345, 1116.695 702.995, 1114.994 709.957, 1107.815 713.905, 1103.744 720.867, 1096.565 727.828, 1089.386 734.790, 1082.208 737.528, 1079.385 742.407, 1074.354 " />
            <path fill="none" stroke-width="3.0" stroke-linecap="round" stroke-opacity="1.0" stroke="rgb(0, 0, 0)" stroke-linejoin="round" d=" M 491.084, 1140.448 492.035, 1135.183 492.122, 1134.704 493.900, 1124.863 495.678, 1115.022 497.457, 1105.182 499.235, 1095.341 501.013, 1085.500 502.791, 1075.660 504.570, 1065.819 506.348, 1055.979 508.126, 1046.138 509.905, 1036.297 511.683, 1026.457 513.461, 1016.616 514.228, 1012.374 " />
            <path fill="none" stroke-width="3.0" stroke-linecap="round" stroke-opacity="1.0" stroke="rgb(0, 0, 0)" stroke-linejoin="round" d=" M 528.633, 771.342 533.332, 780.169 538.031, 788.996 542.731, 797.823 547.430, 806.650 552.130, 815.477 556.829, 824.304 561.528, 833.131 566.228, 841.958 570.927, 850.785 575.626, 859.612 580.326, 868.439 585.025, 877.266 589.601, 885.861 " />
            <path fill="none" stroke-width="3.0" stroke-linecap="round" stroke-opacity="1.0" stroke="rgb(0, 0, 0)" stroke-linejoin="round" d=" M 589.601, 885.861 598.330, 880.981 607.058, 876.100 615.786, 871.220 624.514, 866.339 633.242, 861.459 641.970, 856.578 650.698, 851.698 659.427, 846.817 668.155, 841.937 676.883, 837.056 681.195, 834.645 " />
            <path fill="none" stroke-width="3.0" stroke-linecap="round" stroke-opacity="1.0" stroke="rgb(0, 0, 0)" stroke-linejoin="round" d=" M 681.195, 834.645 677.223, 825.468 673.251, 816.291 669.279, 807.113 665.307, 797.936 661.335, 788.759 657.363, 779.581 653.391, 770.404 649.419, 761.227 645.447, 752.050 641.475, 742.872 637.503, 733.695 633.531, 724.518 629.559, 715.340 625.587, 706.163 621.615, 696.986 617.643, 687.808 613.671, 678.631 611.218, 672.965 " />
            <path fill="none" stroke-width="3.0" stroke-linecap="round" stroke-opacity="1.0" stroke="rgb(0, 0, 0)" stroke-linejoin="round" d=" M 460.738, 811.586 458.163, 811.724 448.178, 812.258 439.296, 812.733 429.310, 813.267 419.324, 813.801 409.339, 814.335 402.300, 814.712 " />
            <path fill="none" stroke-width="3.0" stroke-linecap="round" stroke-opacity="1.0" stroke="rgb(0, 0, 0)" stroke-linejoin="round" d=" M 508.395, 584.025 502.749, 592.278 497.102, 600.531 491.456, 608.785 485.809, 617.038 483.362, 620.615 477.060, 628.380 470.759, 636.144 464.457, 643.909 458.156, 651.673 451.854, 659.438 445.552, 667.203 439.251, 674.967 432.949, 682.732 426.648, 690.497 423.326, 694.590 421.602, 704.440 419.877, 714.290 418.153, 724.141 416.429, 733.991 414.705, 743.841 412.981, 753.691 411.257, 763.542 409.532, 773.392 407.808, 783.242 406.084, 793.092 404.360, 802.943 402.636, 812.793 402.300, 814.712 406.365, 823.848 410.429, 832.985 414.494, 842.122 418.559, 851.258 422.623, 860.395 426.688, 869.531 430.753, 878.668 434.818, 887.805 438.882, 896.941 442.947, 906.078 447.012, 915.215 451.076, 924.351 455.141, 933.488 459.206, 942.625 463.271, 951.761 467.335, 960.898 468.039, 962.479 472.103, 971.615 472.676, 972.903 473.290, 974.284 477.355, 983.420 478.746, 986.547 481.489, 992.711 485.553, 1001.848 488.234, 1007.874 498.087, 1009.579 507.941, 1011.286 511.808, 1011.955 514.228, 1012.374 524.081, 1014.080 533.935, 1015.786 537.415, 1016.389 547.268, 1018.095 557.122, 1019.801 558.849, 1020.100 565.699, 1021.286 575.343, 1018.643 575.926, 1018.483 578.929, 1017.660 588.573, 1015.017 593.802, 1013.585 603.447, 1010.942 608.774, 1009.482 618.419, 1006.839 628.063, 1004.196 636.929, 1001.767 644.452, 999.705 650.747, 995.369 658.982, 989.696 667.217, 984.023 675.453, 978.350 679.513, 975.553 685.734, 971.268 689.356, 968.773 690.992, 967.646 699.228, 961.973 702.140, 959.967 702.787, 959.521 703.720, 958.878 711.956, 953.205 713.659, 952.032 721.894, 946.359 723.931, 944.955 732.167, 939.283 740.402, 933.610 748.637, 927.937 756.872, 922.264 764.303, 917.145 773.675, 913.655 783.046, 910.165 792.417, 906.675 797.155, 904.911 805.344, 899.172 806.841, 898.122 " />
            <path fill="none" stroke-width="3.0" stroke-linecap="round" stroke-opacity="1.0" stroke="rgb(0, 0, 0)" stroke-linejoin="round" d=" M 764.303, 917.145 755.413, 921.724 746.523, 926.302 737.633, 930.881 728.742, 935.459 722.998, 938.418 714.108, 942.996 705.217, 947.575 700.050, 950.236 691.159, 954.815 682.269, 959.394 677.141, 962.035 668.251, 966.613 659.361, 971.192 650.471, 975.770 641.581, 980.349 632.690, 984.927 623.800, 989.506 614.910, 994.085 606.020, 998.663 597.129, 1003.242 588.239, 1007.820 579.349, 1012.399 577.765, 1013.215 576.406, 1013.915 567.516, 1018.493 564.017, 1020.295 554.148, 1018.678 544.280, 1017.060 534.412, 1015.443 524.543, 1013.825 514.675, 1012.208 504.807, 1010.590 494.939, 1008.972 488.234, 1007.874 498.182, 1006.858 508.130, 1005.842 518.079, 1004.826 528.027, 1003.810 537.975, 1002.795 544.628, 1002.115 " />
            <path fill="none" stroke-width="3.0" stroke-linecap="round" stroke-opacity="1.0" stroke="rgb(0, 0, 0)" stroke-linejoin="round" d=" M 752.280, 856.801 748.266, 859.033 739.527, 863.894 732.209, 867.964 723.470, 872.824 714.730, 877.684 705.991, 882.545 702.276, 884.611 699.914, 885.924 691.175, 890.785 682.436, 895.645 680.454, 896.747 671.714, 901.608 662.975, 906.468 654.235, 911.329 645.496, 916.189 644.002, 917.020 635.262, 921.881 627.840, 926.009 619.101, 930.869 611.139, 935.297 606.241, 938.021 603.532, 939.528 598.370, 942.399 594.799, 944.385 588.239, 951.933 587.652, 952.608 581.093, 960.156 574.979, 967.192 568.419, 974.740 561.859, 982.288 555.300, 989.836 554.035, 991.291 548.209, 997.995 544.628, 1002.115 540.599, 992.963 536.569, 983.811 532.539, 974.659 528.510, 965.507 526.253, 960.380 522.223, 951.228 518.193, 942.076 515.458, 935.864 511.428, 926.712 507.398, 917.559 503.369, 908.407 499.339, 899.255 495.309, 890.103 491.280, 880.951 487.250, 871.799 483.220, 862.646 479.191, 853.494 475.161, 844.342 471.131, 835.190 467.102, 826.038 462.729, 816.107 460.738, 811.586 458.733, 801.789 456.727, 791.992 454.721, 782.195 452.715, 772.399 450.710, 762.602 448.704, 752.805 447.176, 745.343 " />
            <path fill="none" stroke-width="3.0" stroke-linecap="round" stroke-opacity="1.0" stroke="rgb(0, 0, 0)" stroke-linejoin="round" d=" M 894.088, 839.234 900.643, 831.682 907.199, 824.130 913.754, 816.578 920.309, 809.026 926.864, 801.474 929.154, 798.836 933.699, 789.928 938.244, 781.021 942.789, 772.113 947.334, 763.206 951.879, 754.298 956.423, 745.391 960.968, 736.483 963.059, 732.386 954.227, 727.696 945.394, 723.007 938.149, 719.160 " />
            <path fill="none" stroke-width="3.0" stroke-linecap="round" stroke-opacity="1.0" stroke="rgb(0, 0, 0)" stroke-linejoin="round" d=" M 691.864, 554.018 701.632, 556.160 711.069, 558.231 718.896, 564.454 726.723, 570.678 734.550, 576.902 742.377, 583.126 750.205, 589.349 758.032, 595.573 760.159, 597.264 768.409, 602.915 776.660, 608.565 784.911, 614.216 793.161, 619.866 801.412, 625.516 809.663, 631.167 817.913, 636.817 826.164, 642.468 834.415, 648.118 842.665, 653.768 850.916, 659.419 859.166, 665.069 867.417, 670.719 875.668, 676.370 883.918, 682.020 892.169, 687.671 900.420, 693.321 908.670, 698.971 916.921, 704.622 925.172, 710.272 933.422, 715.923 938.149, 719.160 931.376, 721.091 921.759, 723.832 912.142, 726.573 905.869, 728.362 897.228, 730.825 891.226, 738.823 885.224, 746.822 881.522, 751.755 875.521, 759.754 875.137, 760.266 869.135, 768.264 863.133, 776.263 859.281, 781.396 " />
            <path fill="none" stroke-width="3.0" stroke-linecap="round" stroke-opacity="1.0" stroke="rgb(0, 0, 0)" stroke-linejoin="round" d=" M 833.657, 783.838 825.603, 789.766 817.550, 795.694 809.497, 801.623 801.443, 807.551 793.390, 813.479 785.337, 819.407 777.284, 825.336 771.031, 829.938 767.677, 839.359 764.322, 848.780 760.968, 858.200 757.614, 867.621 755.646, 873.147 746.503, 877.197 743.941, 878.331 743.540, 878.509 734.397, 882.558 729.965, 884.521 720.822, 888.571 711.679, 892.620 702.535, 896.670 693.392, 900.719 684.248, 904.769 675.105, 908.818 665.962, 912.868 656.818, 916.917 650.778, 919.592 641.635, 923.642 632.492, 927.691 623.348, 931.741 614.205, 935.790 613.322, 936.181 604.179, 940.231 595.035, 944.280 594.799, 944.385 591.041, 953.652 589.350, 957.822 585.592, 967.089 581.834, 976.356 578.077, 985.623 574.319, 994.890 573.841, 996.067 570.083, 1005.334 566.326, 1014.601 564.017, 1020.295 " />
            <path fill="none" stroke-width="3.0" stroke-linecap="round" stroke-opacity="1.0" stroke="rgb(0, 0, 0)" stroke-linejoin="round" d=" M 764.303, 917.145 762.373, 907.333 760.442, 897.521 758.511, 887.709 756.581, 877.898 755.646, 873.147 " />
            <path fill="none" stroke-width="3.0" stroke-linecap="round" stroke-opacity="1.0" stroke="rgb(0, 0, 0)" stroke-linejoin="round" d=" M 528.633, 771.342 520.030, 776.441 511.428, 781.540 502.826, 786.639 494.223, 791.738 485.621, 796.837 477.019, 801.936 468.416, 807.035 460.738, 811.586 " />
            <path fill="none" stroke-width="3.0" stroke-linecap="round" stroke-opacity="1.0" stroke="rgb(0, 0, 0)" stroke-linejoin="round" d=" M 693.622, 653.378 701.267, 646.931 708.911, 640.484 716.556, 634.037 724.200, 627.590 731.844, 621.143 739.489, 614.696 747.133, 608.249 754.778, 601.802 760.159, 597.264 " />
            <path fill="none" stroke-width="3.0" stroke-linecap="round" stroke-opacity="1.0" stroke="rgb(0, 0, 0)" stroke-linejoin="round" d=" M 694.656, 558.503 704.655, 558.337 711.069, 558.231 709.265, 568.067 707.461, 577.903 705.658, 587.739 703.854, 597.575 702.051, 607.411 700.247, 617.247 698.444, 627.083 696.640, 636.919 694.837, 646.755 693.622, 653.378 " />
            <path fill="none" stroke-width="3.0" stroke-linecap="round" stroke-opacity="1.0" stroke="rgb(0, 0, 0)" stroke-linejoin="round" d=" M 777.539, 848.615 782.632, 857.221 787.726, 865.826 792.819, 874.432 797.913, 883.038 802.035, 890.002 806.841, 898.122 811.934, 906.728 814.202, 910.559 822.602, 905.132 827.642, 901.876 835.518, 895.714 843.394, 889.552 851.270, 883.391 859.146, 877.229 867.022, 871.067 874.897, 864.905 882.773, 858.743 890.649, 852.581 895.722, 848.613 894.088, 839.234 893.994, 838.691 892.745, 831.519 891.030, 821.667 889.314, 811.816 888.138, 805.061 887.348, 800.524 881.198, 796.332 872.934, 790.701 867.021, 786.670 859.281, 781.396 851.018, 775.764 850.640, 775.507 842.169, 780.822 834.381, 785.709 825.911, 791.024 822.348, 793.260 " />
            <path fill="none" stroke-width="3.0" stroke-linecap="round" stroke-opacity="1.0" stroke="rgb(0, 0, 0)" stroke-linejoin="round" d=" M 784.537, 831.750 792.153, 825.270 799.769, 818.789 807.386, 812.309 815.002, 805.829 822.618, 799.349 830.234, 792.869 835.438, 788.441 843.055, 781.960 850.640, 775.507 855.889, 784.018 856.531, 785.061 861.780, 793.573 863.834, 796.903 869.083, 805.415 874.332, 813.926 879.581, 822.438 884.830, 830.950 890.078, 839.461 895.327, 847.973 895.722, 848.613 " />
            <path fill="none" stroke-width="3.0" stroke-linecap="round" stroke-opacity="1.0" stroke="rgb(0, 0, 0)" stroke-linejoin="round" d=" M 587.652, 952.608 584.557, 943.099 583.082, 938.571 579.986, 929.062 579.352, 927.115 579.224, 926.721 579.194, 926.629 577.917, 922.708 575.958, 916.691 572.862, 907.182 571.178, 902.010 568.082, 892.502 564.986, 882.993 562.567, 875.565 560.800, 870.138 557.704, 860.629 554.608, 851.120 551.512, 841.612 548.416, 832.103 545.320, 822.594 542.224, 813.086 539.128, 803.577 536.032, 794.068 532.936, 784.560 529.840, 775.051 528.633, 771.342 525.756, 761.764 522.880, 752.187 520.003, 742.610 517.126, 733.032 514.250, 723.455 511.373, 713.878 508.497, 704.300 505.620, 694.723 502.744, 685.146 499.867, 675.568 496.991, 665.991 494.114, 656.414 491.238, 646.836 488.361, 637.259 485.485, 627.682 483.362, 620.615 480.576, 630.219 477.789, 639.823 475.003, 649.427 472.217, 659.031 469.431, 668.635 466.644, 678.239 463.858, 687.843 461.072, 697.447 458.285, 707.051 455.499, 716.655 452.713, 726.259 449.927, 735.863 447.176, 745.343 442.923, 736.292 438.670, 727.242 434.417, 718.191 430.164, 709.141 425.911, 700.090 423.326, 694.590 " />
            <path fill="none" stroke-width="3.0" stroke-linecap="round" stroke-opacity="1.0" stroke="rgb(0, 0, 0)" stroke-linejoin="round" d=" M 486.429, 1384.916 487.327, 1394.876 488.224, 1404.835 489.122, 1414.795 490.019, 1424.755 490.917, 1434.714 491.814, 1444.674 492.712, 1454.634 493.609, 1464.593 494.507, 1474.553 495.404, 1484.513 496.301, 1494.472 497.199, 1504.432 498.096, 1514.391 498.994, 1524.351 499.891, 1534.311 500.789, 1544.270 501.686, 1554.230 502.584, 1564.190 502.875, 1567.425 501.085, 1577.264 499.295, 1587.102 497.505, 1596.941 496.221, 1603.994 497.790, 1613.870 499.360, 1623.746 500.929, 1633.622 502.498, 1643.498 504.068, 1653.374 505.637, 1663.250 505.740, 1663.897 513.257, 1670.491 520.775, 1677.086 528.292, 1683.680 535.810, 1690.275 543.327, 1696.869 550.845, 1703.463 558.362, 1710.058 565.880, 1716.652 573.398, 1723.247 580.915, 1729.841 588.433, 1736.436 595.950, 1743.030 599.997, 1746.580 607.932, 1752.665 615.868, 1758.749 623.804, 1764.834 631.333, 1770.608 640.684, 1767.064 650.035, 1763.521 659.387, 1759.978 668.738, 1756.434 678.089, 1752.891 687.440, 1749.348 696.791, 1745.804 706.143, 1742.261 715.494, 1738.718 724.845, 1735.174 728.641, 1733.736 727.507, 1723.800 726.373, 1713.865 725.388, 1705.237 724.253, 1695.302 724.124, 1694.165 723.916, 1694.008 715.942, 1687.973 707.969, 1681.937 699.995, 1675.902 692.022, 1669.867 684.049, 1663.831 683.583, 1663.479 675.609, 1657.443 675.049, 1657.019 674.960, 1656.952 667.307, 1650.515 659.655, 1644.078 652.002, 1637.641 644.349, 1631.204 636.696, 1624.767 629.044, 1618.330 621.391, 1611.893 613.738, 1605.456 606.085, 1599.019 598.433, 1592.582 592.344, 1587.460 " />
            <path fill="none" stroke-width="3.0" stroke-linecap="round" stroke-opacity="1.0" stroke="rgb(0, 0, 0)" stroke-linejoin="round" d=" M 827.642, 901.876 822.405, 893.357 819.766, 889.064 814.530, 880.544 809.293, 872.025 804.056, 863.506 798.820, 854.986 793.583, 846.467 788.347, 837.948 784.537, 831.750 775.641, 836.317 771.514, 838.436 " />
            <path fill="none" stroke-width="3.0" stroke-linecap="round" stroke-opacity="1.0" stroke="rgb(0, 0, 0)" stroke-linejoin="round" d=" M 752.280, 856.801 753.527, 846.879 754.774, 836.957 756.013, 827.109 " />
            <path fill="none" stroke-width="3.0" stroke-linecap="round" stroke-opacity="1.0" stroke="rgb(0, 0, 0)" stroke-linejoin="round" d=" M 834.381, 785.709 833.657, 783.838 823.804, 785.547 819.766, 786.247 811.347, 791.643 802.927, 797.040 794.508, 802.436 786.089, 807.832 777.670, 813.228 769.251, 818.624 760.832, 824.020 756.013, 827.109 753.654, 836.827 751.296, 846.545 748.938, 856.263 748.266, 859.033 " />
            <path fill="none" stroke-width="3.0" stroke-linecap="round" stroke-opacity="1.0" stroke="rgb(0, 0, 0)" stroke-linejoin="round" d=" M 771.031, 829.938 765.307, 838.138 759.583, 846.338 753.859, 854.538 752.280, 856.801 754.297, 866.595 755.646, 873.147 763.588, 879.224 771.529, 885.302 779.471, 891.379 787.412, 897.456 795.354, 903.533 797.155, 904.911 793.864, 895.468 790.574, 886.025 787.283, 876.581 783.993, 867.138 780.703, 857.695 777.539, 848.615 " />
            <path fill="none" stroke-width="3.0" stroke-linecap="round" stroke-opacity="1.0" stroke="rgb(0, 0, 0)" stroke-linejoin="round" d=" M 773.384, 836.692 771.031, 829.938 761.204, 828.087 756.013, 827.109 " />
            <path fill="none" stroke-width="3.0" stroke-linecap="round" stroke-opacity="1.0" stroke="rgb(0, 0, 0)" stroke-linejoin="round" d=" M 608.774, 1009.482 609.945, 1017.030 609.849, 1027.030 609.753, 1037.029 609.656, 1047.029 609.560, 1057.028 609.464, 1067.028 609.368, 1077.027 609.271, 1087.027 609.175, 1097.026 609.085, 1106.455 608.988, 1116.454 608.892, 1126.454 608.796, 1136.453 608.700, 1146.453 608.603, 1156.452 608.507, 1166.452 608.482, 1169.025 " />
            <path fill="none" stroke-width="3.0" stroke-linecap="round" stroke-opacity="1.0" stroke="rgb(0, 0, 0)" stroke-linejoin="round" d=" M 686.471, 1132.032 686.259, 1127.630 685.776, 1117.642 685.301, 1107.811 684.818, 1097.823 684.336, 1087.834 683.853, 1077.846 683.370, 1067.858 682.888, 1057.870 682.405, 1047.881 681.922, 1037.893 681.439, 1027.904 680.957, 1017.916 680.474, 1007.928 679.991, 997.939 679.509, 987.951 679.393, 985.566 " />
            <path fill="none" stroke-width="3.0" stroke-linecap="round" stroke-opacity="1.0" stroke="rgb(0, 0, 0)" stroke-linejoin="round" d=" M 679.393, 985.566 670.285, 989.693 661.176, 993.819 652.067, 997.946 642.958, 1002.073 633.850, 1006.200 624.741, 1010.327 615.632, 1014.453 609.945, 1017.030 600.165, 1014.943 593.802, 1013.585 " />
            <path fill="none" stroke-width="3.0" stroke-linecap="round" stroke-opacity="1.0" stroke="rgb(0, 0, 0)" stroke-linejoin="round" d=" M 732.209, 867.964 733.552, 858.054 734.894, 848.145 736.237, 838.235 737.580, 828.326 738.923, 818.416 740.265, 808.507 741.608, 798.597 742.951, 788.688 744.294, 778.778 744.638, 776.234 743.074, 766.357 741.509, 756.480 739.945, 746.603 738.380, 736.726 736.816, 726.850 735.251, 716.973 733.686, 707.096 732.122, 697.219 730.837, 689.106 739.805, 693.528 748.774, 697.951 757.743, 702.374 766.712, 706.797 775.680, 711.220 784.649, 715.643 793.618, 720.065 802.587, 724.488 811.555, 728.911 820.524, 733.334 829.493, 737.757 838.462, 742.180 847.430, 746.602 856.399, 751.025 865.368, 755.448 875.137, 760.266 " />
            <path fill="none" stroke-width="3.0" stroke-linecap="round" stroke-opacity="1.0" stroke="rgb(0, 0, 0)" stroke-linejoin="round" d=" M 730.837, 689.106 723.623, 682.180 716.409, 675.255 709.196, 668.329 701.982, 661.404 694.768, 654.478 693.622, 653.378 702.481, 658.016 711.341, 662.654 720.200, 667.293 729.059, 671.931 737.918, 676.569 746.777, 681.208 755.637, 685.846 764.496, 690.484 773.355, 695.123 782.214, 699.761 791.073, 704.400 799.933, 709.038 808.792, 713.676 817.651, 718.315 826.510, 722.953 835.370, 727.591 844.229, 732.230 853.088, 736.868 861.947, 741.507 870.806, 746.145 881.522, 751.755 " />
            <path fill="none" stroke-width="3.0" stroke-linecap="round" stroke-opacity="1.0" stroke="rgb(0, 0, 0)" stroke-linejoin="round" d=" M 693.622, 653.378 697.457, 662.613 701.292, 671.848 705.127, 681.084 708.962, 690.319 712.797, 699.555 716.632, 708.790 720.467, 718.026 724.302, 727.261 728.137, 736.496 731.972, 745.732 735.807, 754.967 739.642, 764.203 743.477, 773.438 744.638, 776.234 737.282, 783.007 729.925, 789.780 722.568, 796.554 715.211, 803.327 707.854, 810.100 700.498, 816.874 693.141, 823.647 685.784, 830.420 681.195, 834.645 681.075, 844.645 680.956, 854.644 680.837, 864.643 680.717, 874.642 680.598, 884.642 680.479, 894.641 680.454, 896.747 " />
            <path fill="none" stroke-width="3.0" stroke-linecap="round" stroke-opacity="1.0" stroke="rgb(0, 0, 0)" stroke-linejoin="round" d=" M 666.305, 656.009 676.259, 655.050 686.213, 654.091 693.622, 653.378 684.200, 650.029 674.777, 646.680 672.420, 645.842 " />
            <path fill="none" stroke-width="3.0" stroke-linecap="round" stroke-opacity="1.0" stroke="rgb(0, 0, 0)" stroke-linejoin="round" d=" M 681.420, 1622.757 673.200, 1617.062 664.980, 1611.368 656.760, 1605.673 648.539, 1599.978 640.319, 1594.284 632.099, 1588.589 623.879, 1582.894 615.659, 1577.200 607.439, 1571.505 599.219, 1565.810 591.982, 1560.797 " />
            <path fill="none" stroke-width="3.0" stroke-linecap="round" stroke-opacity="1.0" stroke="rgb(0, 0, 0)" stroke-linejoin="round" d=" M 679.513, 975.553 679.393, 985.566 686.076, 978.126 692.758, 970.687 694.290, 968.981 700.972, 961.542 702.787, 959.521 " />
            <path fill="none" stroke-width="3.0" stroke-linecap="round" stroke-opacity="1.0" stroke="rgb(0, 0, 0)" stroke-linejoin="round" d=" M 557.750, 670.605 554.973, 680.212 552.197, 689.819 549.420, 699.425 546.643, 709.032 543.866, 718.639 541.089, 728.246 538.313, 737.852 535.536, 747.459 532.759, 757.066 529.982, 766.672 528.633, 771.342 " />
            <path fill="none" stroke-width="3.0" stroke-linecap="round" stroke-opacity="1.0" stroke="rgb(0, 0, 0)" stroke-linejoin="round" d=" M 742.407, 1074.354 740.994, 1064.454 739.580, 1054.554 738.167, 1044.655 736.753, 1034.755 735.340, 1024.856 733.926, 1014.956 732.513, 1005.056 731.099, 995.157 729.686, 985.257 728.272, 975.358 726.859, 965.458 725.445, 955.558 723.931, 944.955 " />
            <path fill="none" stroke-width="3.0" stroke-linecap="round" stroke-opacity="1.0" stroke="rgb(0, 0, 0)" stroke-linejoin="round" d=" M 599.997, 1746.580 601.468, 1736.688 602.939, 1726.797 604.410, 1716.906 605.881, 1707.015 607.352, 1697.124 607.491, 1696.192 " />
            <path fill="none" stroke-width="3.0" stroke-linecap="round" stroke-opacity="1.0" stroke="rgb(0, 0, 0)" stroke-linejoin="round" d=" M 607.491, 1696.192 600.028, 1689.537 592.564, 1682.881 585.101, 1676.225 577.637, 1669.570 570.174, 1662.914 562.711, 1656.259 555.247, 1649.603 547.784, 1642.947 540.320, 1636.292 532.857, 1629.636 525.393, 1622.980 517.930, 1616.325 511.331, 1610.440 " />
            <path fill="none" stroke-width="3.0" stroke-linecap="round" stroke-opacity="1.0" stroke="rgb(0, 0, 0)" stroke-linejoin="round" d=" M 511.331, 1610.440 510.291, 1620.386 509.250, 1630.331 508.210, 1640.277 507.170, 1650.223 506.130, 1660.169 505.740, 1663.897 " />
            <path fill="none" stroke-width="3.0" stroke-linecap="round" stroke-opacity="1.0" stroke="rgb(0, 0, 0)" stroke-linejoin="round" d=" M 589.601, 885.861 591.134, 895.743 591.334, 897.033 592.867, 906.915 594.399, 916.797 595.932, 926.679 596.339, 929.301 597.871, 939.183 598.370, 942.399 " />
            <path fill="none" stroke-width="3.0" stroke-linecap="round" stroke-opacity="1.0" stroke="rgb(0, 0, 0)" stroke-linejoin="round" d=" M 564.017, 1020.295 573.704, 1017.815 576.060, 1017.212 578.639, 1016.552 588.327, 1014.072 598.014, 1011.592 607.702, 1009.113 617.389, 1006.633 627.077, 1004.153 636.765, 1001.673 644.452, 999.705 " />
            <path fill="none" stroke-width="3.0" stroke-linecap="round" stroke-opacity="1.0" stroke="rgb(0, 0, 0)" stroke-linejoin="round" d=" M 565.699, 1021.286 564.017, 1020.295 556.722, 1013.455 549.427, 1006.615 544.628, 1002.115 " />
            <path fill="none" stroke-width="3.0" stroke-linecap="round" stroke-opacity="1.0" stroke="rgb(0, 0, 0)" stroke-linejoin="round" d=" M 602.282, 667.554 596.495, 675.709 590.708, 683.865 584.921, 692.020 579.134, 700.175 573.346, 708.331 567.559, 716.486 561.772, 724.641 555.985, 732.797 550.198, 740.952 544.411, 749.107 538.624, 757.262 532.836, 765.418 528.633, 771.342 519.106, 768.301 509.580, 765.260 500.053, 762.220 490.527, 759.179 481.000, 756.138 471.474, 753.098 461.947, 750.057 452.421, 747.016 447.176, 745.343 " />
            <path fill="none" stroke-width="3.0" stroke-linecap="round" stroke-opacity="1.0" stroke="rgb(0, 0, 0)" stroke-linejoin="round" d=" M 763.571, 1606.028 757.913, 1614.273 752.255, 1622.519 746.596, 1630.764 740.938, 1639.010 735.280, 1647.255 729.622, 1655.500 723.964, 1663.746 722.362, 1666.081 " />
            <path fill="none" stroke-width="3.0" stroke-linecap="round" stroke-opacity="1.0" stroke="rgb(0, 0, 0)" stroke-linejoin="round" d=" M 591.718, 1541.267 601.699, 1540.658 611.681, 1540.049 621.662, 1539.439 631.643, 1538.830 641.625, 1538.221 651.589, 1537.613 654.895, 1547.050 658.202, 1556.488 661.508, 1565.925 664.815, 1575.363 668.121, 1584.800 671.428, 1594.238 674.734, 1603.675 678.041, 1613.113 681.420, 1622.757 688.288, 1630.025 695.157, 1637.293 702.025, 1644.561 708.894, 1651.829 715.762, 1659.097 722.362, 1666.081 722.917, 1676.066 723.473, 1686.050 723.916, 1694.008 " />
            <path fill="none" stroke-width="3.0" stroke-linecap="round" stroke-opacity="1.0" stroke="rgb(0, 0, 0)" stroke-linejoin="round" d=" M 674.960, 1656.952 666.477, 1651.657 657.994, 1646.362 649.511, 1641.067 641.028, 1635.772 632.544, 1630.477 624.061, 1625.182 615.578, 1619.887 607.095, 1614.592 598.612, 1609.297 592.589, 1605.538 " />
            <path fill="none" stroke-width="3.0" stroke-linecap="round" stroke-opacity="1.0" stroke="rgb(0, 0, 0)" stroke-linejoin="round" d=" M 592.589, 1605.538 594.211, 1615.405 594.419, 1616.674 596.041, 1626.542 597.663, 1636.410 599.286, 1646.277 600.908, 1656.145 602.530, 1666.012 604.152, 1675.880 605.774, 1685.747 607.491, 1696.192 " />
            <path fill="none" stroke-width="3.0" stroke-linecap="round" stroke-opacity="1.0" stroke="rgb(0, 0, 0)" stroke-linejoin="round" d=" M 633.038, 1727.201 626.679, 1719.483 620.321, 1711.765 613.962, 1704.047 607.491, 1696.192 616.135, 1691.165 624.780, 1686.137 633.424, 1681.110 642.068, 1676.082 650.712, 1671.055 659.357, 1666.027 661.291, 1664.902 669.935, 1659.874 674.960, 1656.952 " />
            <path fill="none" stroke-width="3.0" stroke-linecap="round" stroke-opacity="1.0" stroke="rgb(0, 0, 0)" stroke-linejoin="round" d=" M 589.161, 1478.971 589.432, 1488.968 589.703, 1498.964 589.973, 1508.960 590.244, 1518.957 590.515, 1528.953 590.785, 1538.949 591.056, 1548.946 591.327, 1558.942 591.598, 1568.938 591.868, 1578.935 592.093, 1587.249 592.364, 1597.246 592.589, 1605.538 582.607, 1606.140 580.028, 1606.295 570.046, 1606.898 560.064, 1607.500 550.082, 1608.102 540.100, 1608.704 530.119, 1609.306 520.137, 1609.909 511.331, 1610.440 510.810, 1605.965 509.654, 1596.032 508.497, 1586.100 507.341, 1576.167 506.344, 1567.604 505.188, 1557.672 504.031, 1547.739 502.875, 1537.806 501.719, 1527.873 500.562, 1517.940 499.406, 1508.007 498.249, 1498.074 497.093, 1488.141 495.937, 1478.208 494.780, 1468.275 494.115, 1462.557 493.130, 1452.606 492.145, 1442.654 491.159, 1432.703 490.174, 1422.752 489.189, 1412.800 488.204, 1402.849 487.219, 1392.898 486.429, 1384.916 486.995, 1374.932 487.562, 1364.948 488.128, 1354.964 488.694, 1344.980 489.261, 1334.996 489.827, 1325.012 490.393, 1315.028 490.959, 1305.044 491.427, 1296.791 " />
            <path fill="none" stroke-width="3.0" stroke-linecap="round" stroke-opacity="1.0" stroke="rgb(0, 0, 0)" stroke-linejoin="round" d=" M 663.158, 594.120 662.067, 584.180 660.976, 574.240 659.884, 564.300 658.793, 554.359 657.938, 546.575 656.847, 536.635 655.756, 526.694 655.040, 520.173 653.948, 510.233 653.647, 507.486 " />
            <path fill="none" stroke-width="3.0" stroke-linecap="round" stroke-opacity="1.0" stroke="rgb(0, 0, 0)" stroke-linejoin="round" d=" M 654.997, 505.209 653.647, 507.486 649.421, 508.861 " />
            <path fill="none" stroke-width="3.0" stroke-linecap="round" stroke-opacity="1.0" stroke="rgb(0, 0, 0)" stroke-linejoin="round" d=" M 458.551, 462.985 467.206, 467.994 475.860, 473.003 484.515, 478.013 493.170, 483.022 493.542, 483.237 502.197, 488.246 510.852, 493.255 519.507, 498.265 528.170, 503.279 536.825, 508.288 545.480, 513.297 554.135, 518.306 562.790, 523.316 571.445, 528.325 577.991, 532.114 579.349, 542.021 580.707, 551.928 581.439, 557.266 582.797, 567.173 584.155, 577.081 584.793, 581.732 586.151, 591.640 587.509, 601.547 588.868, 611.454 590.135, 620.697 " />
            <path fill="none" stroke-width="3.0" stroke-linecap="round" stroke-opacity="1.0" stroke="rgb(0, 0, 0)" stroke-linejoin="round" d=" M 590.135, 620.697 599.532, 617.277 608.929, 613.857 609.345, 613.705 618.742, 610.285 626.787, 607.357 629.313, 606.438 638.710, 603.018 648.107, 599.598 657.504, 596.178 663.158, 594.120 668.237, 585.506 673.316, 576.892 676.370, 571.712 681.450, 563.098 684.099, 558.604 686.551, 554.447 687.383, 553.035 688.499, 551.142 " />
            <path fill="none" stroke-width="3.0" stroke-linecap="round" stroke-opacity="1.0" stroke="rgb(0, 0, 0)" stroke-linejoin="round" d=" M 589.161, 1478.971 579.307, 1477.270 569.453, 1475.568 559.599, 1473.866 549.539, 1472.129 539.685, 1470.427 529.831, 1468.725 519.977, 1467.023 510.123, 1465.322 500.269, 1463.620 495.019, 1462.713 494.115, 1462.557 494.207, 1455.352 494.334, 1445.353 494.462, 1435.354 494.590, 1425.355 494.717, 1415.356 494.845, 1405.357 494.973, 1395.357 495.100, 1385.358 495.228, 1375.359 495.356, 1365.360 495.427, 1359.756 " />
            <path fill="none" stroke-width="3.0" stroke-linecap="round" stroke-opacity="1.0" stroke="rgb(0, 0, 0)" stroke-linejoin="round" d=" M 511.331, 1610.440 509.402, 1600.628 507.473, 1590.815 505.544, 1581.003 503.616, 1571.191 502.875, 1567.425 " />
            <path fill="none" stroke-width="3.0" stroke-linecap="round" stroke-opacity="1.0" stroke="rgb(0, 0, 0)" stroke-linejoin="round" d=" M 675.049, 1657.019 676.877, 1647.188 678.705, 1637.356 680.533, 1627.525 681.420, 1622.757 688.992, 1616.226 696.565, 1609.695 704.138, 1603.164 711.710, 1596.633 719.283, 1590.101 726.855, 1583.570 731.035, 1579.965 722.211, 1575.261 713.387, 1570.556 704.562, 1565.852 695.738, 1561.148 686.913, 1556.444 678.089, 1551.740 669.264, 1547.035 660.440, 1542.331 651.589, 1537.613 " />
            <path fill="none" stroke-width="3.0" stroke-linecap="round" stroke-opacity="1.0" stroke="rgb(0, 0, 0)" stroke-linejoin="round" d=" M 450.190, 1003.398 444.539, 1011.648 440.017, 1018.249 441.883, 1022.443 " />
            <path fill="none" stroke-width="3.0" stroke-linecap="round" stroke-opacity="1.0" stroke="rgb(0, 0, 0)" stroke-linejoin="round" d=" M 631.333, 1770.608 631.726, 1760.615 632.118, 1750.623 632.510, 1740.631 632.903, 1730.639 633.038, 1727.201 642.439, 1723.791 651.840, 1720.382 661.240, 1716.972 670.641, 1713.563 680.042, 1710.153 689.443, 1706.744 698.844, 1703.334 708.244, 1699.925 712.362, 1698.431 721.763, 1695.022 724.124, 1694.165 " />
            <path fill="none" stroke-width="3.0" stroke-linecap="round" stroke-opacity="1.0" stroke="rgb(0, 0, 0)" stroke-linejoin="round" d=" M 592.589, 1605.538 592.453, 1595.539 592.344, 1587.460 592.208, 1577.461 592.102, 1569.663 591.982, 1560.797 591.847, 1550.798 591.718, 1541.267 591.683, 1538.710 591.548, 1528.711 591.412, 1518.712 591.277, 1508.713 591.167, 1500.626 591.032, 1490.627 590.896, 1480.628 590.761, 1470.629 590.625, 1460.630 590.490, 1450.631 590.372, 1441.972 " />
            <path fill="none" stroke-width="3.0" stroke-linecap="round" stroke-opacity="1.0" stroke="rgb(0, 0, 0)" stroke-linejoin="round" d=" M 593.449, 397.605 584.200, 393.803 574.951, 390.000 566.613, 386.573 557.185, 389.905 547.757, 393.238 538.328, 396.570 528.900, 399.902 519.471, 403.234 510.043, 406.567 500.614, 409.899 495.396, 411.743 489.558, 419.862 483.720, 427.981 477.882, 436.100 472.044, 444.219 466.206, 452.338 460.368, 460.457 458.551, 462.985 460.088, 472.866 461.626, 482.747 463.164, 492.628 464.702, 502.509 466.240, 512.390 467.778, 522.271 469.316, 532.152 470.853, 542.033 472.391, 551.914 473.477, 558.889 " />
            <path fill="none" stroke-width="3.0" stroke-linecap="round" stroke-opacity="1.0" stroke="rgb(0, 0, 0)" stroke-linejoin="round" d=" M 591.551, 1405.949 582.538, 1401.618 573.525, 1397.287 564.512, 1392.955 555.498, 1388.624 552.671, 1387.265 543.658, 1382.934 534.645, 1378.603 525.632, 1374.271 516.618, 1369.940 507.605, 1365.609 498.592, 1361.277 495.427, 1359.756 " />
            <path fill="none" stroke-width="3.0" stroke-linecap="round" stroke-opacity="1.0" stroke="rgb(0, 0, 0)" stroke-linejoin="round" d=" M 653.647, 507.486 650.533, 505.602 650.045, 505.307 " />
            <path fill="none" stroke-width="3.0" stroke-linecap="round" stroke-opacity="1.0" stroke="rgb(0, 0, 0)" stroke-linejoin="round" d=" M 679.904, 628.965 679.332, 627.774 677.099, 623.128 676.271, 621.406 671.940, 612.393 667.608, 603.380 663.158, 594.120 " />
            <path fill="none" stroke-width="3.0" stroke-linecap="round" stroke-opacity="1.0" stroke="rgb(0, 0, 0)" stroke-linejoin="round" d=" M 663.158, 594.120 658.851, 603.145 654.543, 612.170 650.236, 621.195 645.928, 630.219 644.145, 633.955 644.081, 634.090 639.773, 643.115 639.261, 644.187 " />
            <path fill="none" stroke-width="3.0" stroke-linecap="round" stroke-opacity="1.0" stroke="rgb(0, 0, 0)" stroke-linejoin="round" d=" M 688.499, 551.142 688.339, 548.354 687.764, 538.371 687.189, 528.387 686.614, 518.404 686.040, 508.420 685.700, 502.513 " />
            <path fill="none" stroke-width="3.0" stroke-linecap="round" stroke-opacity="1.0" stroke="rgb(0, 0, 0)" stroke-linejoin="round" d=" M 663.158, 594.120 655.317, 600.326 647.475, 606.532 639.633, 612.737 631.792, 618.943 623.950, 625.148 616.109, 631.354 608.267, 637.560 605.840, 639.480 603.695, 636.914 597.280, 629.243 590.866, 621.571 590.135, 620.697 580.291, 620.606 571.340, 620.523 " />
            <path fill="none" stroke-width="3.0" stroke-linecap="round" stroke-opacity="1.0" stroke="rgb(0, 0, 0)" stroke-linejoin="round" d=" M 701.916, 599.884 692.024, 598.413 685.390, 597.427 684.542, 597.300 681.726, 596.882 679.695, 596.580 669.803, 595.109 663.158, 594.120 671.792, 589.075 678.192, 585.335 685.206, 581.236 685.667, 580.966 694.301, 575.921 702.512, 571.123 696.770, 562.936 691.028, 554.749 690.270, 553.668 688.499, 551.142 " />
            <path fill="none" stroke-width="3.0" stroke-linecap="round" stroke-opacity="1.0" stroke="rgb(0, 0, 0)" stroke-linejoin="round" d=" M 670.424, 639.177 670.177, 639.556 669.279, 640.935 667.273, 644.013 661.814, 652.392 658.999, 656.713 658.256, 657.854 655.960, 658.286 647.058, 659.963 639.624, 661.363 632.974, 662.616 629.937, 661.474 625.785, 659.912 619.535, 657.562 610.531, 654.175 609.435, 653.763 607.530, 653.047 605.473, 652.273 601.652, 650.836 595.812, 642.719 592.828, 638.574 586.988, 630.457 586.123, 629.255 585.471, 628.288 " />
            <path fill="none" stroke-width="3.0" stroke-linecap="round" stroke-opacity="1.0" stroke="rgb(0, 0, 0)" stroke-linejoin="round" d=" M 601.652, 650.836 604.906, 660.292 608.085, 669.528 617.720, 666.852 627.356, 664.176 632.974, 662.616 628.670, 671.643 627.268, 674.584 " />
            <path fill="none" stroke-width="3.0" stroke-linecap="round" stroke-opacity="1.0" stroke="rgb(0, 0, 0)" stroke-linejoin="round" d=" M 601.652, 650.836 594.406, 643.945 589.322, 639.109 582.076, 632.217 574.829, 625.326 570.234, 620.955 579.097, 625.585 586.123, 629.255 " />
            <path fill="none" stroke-width="3.0" stroke-linecap="round" stroke-opacity="1.0" stroke="rgb(0, 0, 0)" stroke-linejoin="round" d=" M 654.553, 338.152 654.068, 328.164 653.582, 318.176 653.097, 308.187 652.699, 300.002 650.969, 309.851 649.239, 319.701 647.509, 329.550 645.864, 338.915 644.134, 348.764 642.404, 358.614 640.674, 368.463 639.028, 377.828 639.514, 387.817 639.999, 397.805 640.484, 407.793 640.938, 417.127 641.296, 424.506 641.682, 432.448 642.167, 442.436 642.653, 452.424 642.766, 454.761 642.887, 457.247 643.150, 462.656 643.150, 472.656 643.150, 482.656 643.150, 492.656 643.150, 501.135 643.150, 506.250 643.150, 510.903 643.150, 513.297 643.150, 523.297 643.150, 528.117 643.150, 536.385 643.150, 543.331 643.150, 544.563 643.358, 543.376 644.366, 537.640 645.638, 530.396 646.842, 523.542 648.253, 515.513 648.867, 512.018 649.421, 508.861 " />
            <path fill="none" stroke-width="3.0" stroke-linecap="round" stroke-opacity="1.0" stroke="rgb(0, 0, 0)" stroke-linejoin="round" d=" M 643.150, 462.656 644.421, 455.420 646.151, 445.571 647.881, 435.721 649.611, 425.872 649.722, 425.238 " />
            <path fill="none" stroke-width="3.0" stroke-linecap="round" stroke-opacity="1.0" stroke="rgb(0, 0, 0)" stroke-linejoin="round" d=" M 594.954, 428.576 604.915, 427.701 614.877, 426.826 624.839, 425.951 634.800, 425.076 641.296, 424.506 " />
            <path fill="none" stroke-width="3.0" stroke-linecap="round" stroke-opacity="1.0" stroke="rgb(0, 0, 0)" stroke-linejoin="round" d=" M 654.997, 505.209 664.958, 504.335 672.176, 503.701 682.138, 502.826 683.475, 502.708 685.700, 502.513 695.661, 501.638 705.017, 500.816 705.017, 490.816 705.017, 480.816 705.017, 470.816 705.017, 460.816 705.017, 450.816 705.017, 440.816 705.017, 430.816 705.017, 420.816 705.017, 418.909 704.531, 408.921 704.046, 398.933 703.561, 388.945 703.076, 378.956 702.590, 368.968 702.105, 358.980 701.620, 348.992 701.134, 339.004 700.895, 334.082 690.934, 334.957 680.972, 335.832 671.010, 336.707 661.049, 337.581 654.553, 338.152 645.864, 338.915 635.902, 339.790 625.941, 340.665 615.979, 341.540 606.017, 342.415 596.056, 343.290 590.833, 343.749 591.318, 353.737 591.803, 363.725 592.288, 373.713 592.774, 383.701 593.259, 393.690 593.449, 397.605 593.718, 403.137 594.203, 413.125 594.688, 423.113 594.954, 428.576 594.954, 435.720 594.954, 445.720 594.954, 455.720 594.954, 465.720 594.954, 471.976 594.954, 481.976 594.954, 482.347 594.954, 483.990 594.954, 486.627 594.954, 492.362 594.954, 502.362 594.954, 510.483 604.915, 509.608 614.877, 508.733 616.250, 508.613 621.357, 508.164 629.656, 507.435 639.618, 506.560 643.150, 506.250 " />
            <path fill="none" stroke-width="3.0" stroke-linecap="round" stroke-opacity="1.0" stroke="rgb(0, 0, 0)" stroke-linejoin="round" d=" M 468.039, 962.479 464.041, 971.645 460.042, 980.811 456.044, 989.977 452.046, 999.143 450.190, 1003.398 446.192, 1012.564 445.764, 1013.545 442.002, 1022.169 441.883, 1022.443 441.037, 1024.382 " />
            <path fill="none" stroke-width="3.0" stroke-linecap="round" stroke-opacity="1.0" stroke="rgb(0, 0, 0)" stroke-linejoin="round" d=" M 546.858, 608.171 550.855, 617.338 554.852, 626.504 558.849, 635.671 562.157, 643.257 " />
            <path fill="none" stroke-width="3.0" stroke-linecap="round" stroke-opacity="1.0" stroke="rgb(0, 0, 0)" stroke-linejoin="round" d=" M 562.567, 875.565 571.912, 879.124 581.258, 882.683 589.601, 885.861 " />
            <path fill="none" stroke-width="3.0" stroke-linecap="round" stroke-opacity="1.0" stroke="rgb(0, 0, 0)" stroke-linejoin="round" d=" M 591.492, 631.596 594.094, 633.151 594.327, 633.154 " />
            <path fill="none" stroke-width="3.0" stroke-linecap="round" stroke-opacity="1.0" stroke="rgb(0, 0, 0)" stroke-linejoin="round" d=" M 617.165, 671.921 621.486, 679.182 " />
            <path fill="none" stroke-width="3.0" stroke-linecap="round" stroke-opacity="1.0" stroke="rgb(0, 0, 0)" stroke-linejoin="round" d=" M 624.081, 673.744 621.486, 679.182 " />
            <path fill="none" stroke-width="3.0" stroke-linecap="round" stroke-opacity="1.0" stroke="rgb(0, 0, 0)" stroke-linejoin="round" d=" M 638.255, 644.046 633.948, 653.071 629.937, 661.474 " />
            <path fill="none" stroke-width="3.0" stroke-linecap="round" stroke-opacity="1.0" stroke="rgb(0, 0, 0)" stroke-linejoin="round" d=" M 594.954, 471.976 586.398, 466.800 577.842, 461.623 569.286, 456.447 560.730, 451.270 552.174, 446.094 543.618, 440.917 540.476, 439.016 531.920, 433.840 523.364, 428.664 514.808, 423.487 506.252, 418.311 497.696, 413.134 495.396, 411.743 " />
            <path fill="none" stroke-width="3.0" stroke-linecap="round" stroke-opacity="1.0" stroke="rgb(0, 0, 0)" stroke-linejoin="round" d=" M 655.960, 658.286 656.679, 648.312 657.398, 638.338 657.468, 637.368 " />
            <path fill="none" stroke-width="3.0" stroke-linecap="round" stroke-opacity="1.0" stroke="rgb(0, 0, 0)" stroke-linejoin="round" d=" M 668.893, 633.089 670.661, 638.812 670.796, 639.249 " />
            <path fill="none" stroke-width="3.0" stroke-linecap="round" stroke-opacity="1.0" stroke="rgb(0, 0, 0)" stroke-linejoin="round" d=" M 670.069, 639.108 670.177, 639.556 " />
            <path fill="none" stroke-width="3.0" stroke-linecap="round" stroke-opacity="1.0" stroke="rgb(0, 0, 0)" stroke-linejoin="round" d=" M 592.054, 1398.094 602.031, 1398.776 612.008, 1399.458 621.984, 1400.140 631.961, 1400.821 641.938, 1401.503 651.915, 1402.185 661.891, 1402.867 671.868, 1403.549 682.101, 1404.248 " />
            <path fill="none" stroke-width="3.0" stroke-linecap="round" stroke-opacity="1.0" stroke="rgb(0, 0, 0)" stroke-linejoin="round" d=" M 675.581, 630.584 674.099, 633.536 " />
            <path fill="none" stroke-width="3.0" stroke-linecap="round" stroke-opacity="1.0" stroke="rgb(0, 0, 0)" stroke-linejoin="round" d=" M 593.718, 403.137 585.185, 397.922 576.652, 392.708 568.119, 387.493 566.613, 386.573 " />
            <path fill="none" stroke-width="3.0" stroke-linecap="round" stroke-opacity="1.0" stroke="rgb(0, 0, 0)" stroke-linejoin="round" d=" M 673.301, 634.761 674.107, 631.136 " />
            <path fill="none" stroke-width="3.0" stroke-linecap="round" stroke-opacity="1.0" stroke="rgb(0, 0, 0)" stroke-linejoin="round" d=" M 602.519, 1296.193 611.921, 1299.600 621.323, 1303.007 630.725, 1306.413 640.127, 1309.820 649.528, 1313.227 658.930, 1316.634 668.332, 1320.041 677.734, 1323.447 687.136, 1326.854 696.537, 1330.261 698.392, 1330.933 " />
            <path fill="none" stroke-width="3.0" stroke-linecap="round" stroke-opacity="1.0" stroke="rgb(0, 0, 0)" stroke-linejoin="round" d=" M 648.335, 423.887 656.820, 423.142 666.782, 422.267 676.744, 421.392 686.705, 420.518 696.667, 419.643 705.017, 418.909 " />
            <path fill="none" stroke-width="3.0" stroke-linecap="round" stroke-opacity="1.0" stroke="rgb(0, 0, 0)" stroke-linejoin="round" d=" M 602.643, 1295.343 612.207, 1292.421 621.770, 1289.498 631.334, 1286.576 640.897, 1283.654 650.461, 1280.731 660.024, 1277.809 669.587, 1274.886 679.151, 1271.964 688.714, 1269.041 698.278, 1266.119 707.841, 1263.197 712.944, 1261.637 " />
            <path fill="none" stroke-width="3.0" stroke-linecap="round" stroke-opacity="1.0" stroke="rgb(0, 0, 0)" stroke-linejoin="round" d=" M 893.994, 838.691 899.442, 830.305 904.890, 821.920 910.338, 813.534 915.786, 805.148 921.234, 796.763 923.701, 792.965 924.773, 791.315 930.221, 782.929 935.669, 774.544 941.117, 766.158 946.565, 757.773 952.014, 749.387 957.462, 741.001 963.059, 732.386 " />
        </g>
    </g>
</svg>
