<?xml version='1.0' encoding='ascii'?>
<svg xmlns="http://www.w3.org/2000/svg" version="1.1" width="1001" height="2138">
    <g id="View Layer_LineSet" xmlns:inkscape="http://www.inkscape.org/namespaces/inkscape" inkscape:groupmode="lineset" inkscape:label="View Layer_LineSet">
        <g xmlns:inkscape="http://www.inkscape.org/namespaces/inkscape" inkscape:groupmode="layer" id="strokes" inkscape:label="strokes">
            <path fill="none" stroke-width="3.0" stroke-linecap="round" stroke-opacity="1.0" stroke="rgb(0, 0, 0)" stroke-linejoin="round" d=" M 522.997, 679.183 527.320, 671.918 " />
            <path fill="none" stroke-width="3.0" stroke-linecap="round" stroke-opacity="1.0" stroke="rgb(0, 0, 0)" stroke-linejoin="round" d=" M 550.389, 633.151 550.156, 633.154 " />
            <path fill="none" stroke-width="3.0" stroke-linecap="round" stroke-opacity="1.0" stroke="rgb(0, 0, 0)" stroke-linejoin="round" d=" M 475.395, 633.016 474.199, 637.377 473.810, 638.797 473.686, 639.249 474.058, 639.177 474.414, 639.109 476.657, 638.675 485.794, 636.911 " />
            <path fill="none" stroke-width="3.0" stroke-linecap="round" stroke-opacity="1.0" stroke="rgb(0, 0, 0)" stroke-linejoin="round" d=" M 489.676, 674.273 489.362, 669.918 " />
            <path fill="none" stroke-width="3.0" stroke-linecap="round" stroke-opacity="1.0" stroke="rgb(0, 0, 0)" stroke-linejoin="round" d=" M 653.476, 1531.067 654.225, 1521.095 654.799, 1513.451 655.548, 1503.479 656.297, 1493.507 657.046, 1483.535 657.795, 1473.563 658.543, 1463.591 659.292, 1453.619 660.041, 1443.647 660.790, 1433.676 661.539, 1423.704 662.288, 1413.732 662.448, 1411.600 663.108, 1401.622 663.768, 1391.644 664.428, 1381.665 665.088, 1371.687 665.748, 1361.709 666.408, 1351.731 666.748, 1346.591 668.535, 1336.752 670.321, 1326.913 672.108, 1317.074 673.894, 1307.234 675.680, 1297.395 676.292, 1294.029 678.813, 1284.352 681.334, 1274.675 683.855, 1264.998 686.376, 1255.321 688.897, 1245.644 691.418, 1235.967 693.939, 1226.290 694.218, 1225.216 692.524, 1215.360 690.829, 1205.505 689.134, 1195.649 687.439, 1185.794 685.745, 1175.939 684.050, 1166.083 682.355, 1156.228 681.463, 1151.042 680.062, 1141.141 678.660, 1131.239 677.258, 1121.338 675.857, 1111.437 674.455, 1101.535 673.364, 1093.827 " />
            <path fill="none" stroke-width="3.0" stroke-linecap="round" stroke-opacity="1.0" stroke="rgb(0, 0, 0)" stroke-linejoin="round" d=" M 681.463, 1151.042 672.107, 1154.571 662.750, 1158.100 653.394, 1161.629 644.037, 1165.159 634.681, 1168.688 625.324, 1172.217 615.968, 1175.746 609.388, 1178.228 618.136, 1183.073 626.884, 1187.919 635.632, 1192.764 644.379, 1197.609 653.127, 1202.455 661.875, 1207.300 670.622, 1212.146 679.370, 1216.991 688.118, 1221.836 694.218, 1225.216 684.226, 1225.595 674.233, 1225.975 664.240, 1226.355 654.247, 1226.734 644.255, 1227.114 634.262, 1227.494 624.269, 1227.873 614.276, 1228.253 604.283, 1228.633 594.291, 1229.012 584.298, 1229.392 574.305, 1229.772 571.209, 1229.889 " />
            <path fill="none" stroke-width="3.0" stroke-linecap="round" stroke-opacity="1.0" stroke="rgb(0, 0, 0)" stroke-linejoin="round" d=" M 609.388, 1178.228 603.445, 1186.270 597.502, 1194.312 591.558, 1202.354 585.615, 1210.396 579.671, 1218.438 573.728, 1226.481 571.209, 1229.889 570.671, 1239.875 570.134, 1249.861 569.597, 1259.846 569.060, 1269.832 568.523, 1279.817 567.986, 1289.803 567.449, 1299.788 566.912, 1309.774 566.375, 1319.760 566.123, 1324.431 565.789, 1334.426 565.455, 1344.420 565.121, 1354.415 564.788, 1364.409 564.454, 1374.403 564.120, 1384.398 563.786, 1394.392 563.452, 1404.387 563.118, 1414.381 563.059, 1416.159 563.615, 1426.143 564.172, 1436.128 564.729, 1446.112 565.286, 1456.097 565.843, 1466.081 566.400, 1476.066 566.956, 1486.050 567.513, 1496.035 568.070, 1506.019 568.627, 1516.004 569.184, 1525.988 569.741, 1535.973 569.947, 1539.670 579.894, 1538.646 589.842, 1537.621 599.789, 1536.596 609.736, 1535.572 619.684, 1534.548 629.631, 1533.523 639.578, 1532.499 649.526, 1531.474 653.476, 1531.067 657.615, 1540.170 661.754, 1549.274 665.893, 1558.377 670.032, 1567.480 674.170, 1576.584 678.309, 1585.687 682.448, 1594.790 686.587, 1603.894 690.330, 1612.126 697.563, 1619.031 704.796, 1625.936 712.029, 1632.842 719.263, 1639.747 726.496, 1646.652 733.485, 1653.324 " />
            <path fill="none" stroke-width="3.0" stroke-linecap="round" stroke-opacity="1.0" stroke="rgb(0, 0, 0)" stroke-linejoin="round" d=" M 566.123, 1324.431 575.763, 1321.771 585.403, 1319.111 595.042, 1316.451 604.682, 1313.791 614.322, 1311.130 623.961, 1308.470 633.601, 1305.810 643.241, 1303.150 652.880, 1300.490 662.520, 1297.829 672.160, 1295.169 676.292, 1294.029 " />
            <path fill="none" stroke-width="3.0" stroke-linecap="round" stroke-opacity="1.0" stroke="rgb(0, 0, 0)" stroke-linejoin="round" d=" M 551.741, 1547.463 554.550, 1557.060 557.359, 1566.657 560.168, 1576.255 562.977, 1585.852 563.398, 1587.290 571.804, 1592.706 580.211, 1598.121 588.618, 1603.536 597.025, 1608.951 605.432, 1614.366 613.839, 1619.782 622.246, 1625.197 630.653, 1630.612 639.059, 1636.027 647.466, 1641.442 655.873, 1646.858 664.280, 1652.273 672.687, 1657.688 680.945, 1663.007 689.630, 1667.963 698.316, 1672.918 707.002, 1677.874 715.688, 1682.829 724.373, 1687.785 733.059, 1692.741 735.614, 1694.198 741.403, 1686.044 747.192, 1677.891 752.982, 1669.737 758.771, 1661.583 764.560, 1653.429 770.349, 1645.275 776.139, 1637.122 781.928, 1628.968 784.953, 1624.707 780.662, 1615.674 776.372, 1606.641 772.082, 1597.608 770.166, 1593.575 762.202, 1587.528 754.238, 1581.480 746.274, 1575.433 738.309, 1569.385 736.635, 1568.114 728.320, 1562.560 720.004, 1557.005 711.689, 1551.451 703.373, 1545.896 695.057, 1540.342 686.742, 1534.787 678.426, 1529.233 670.111, 1523.679 661.795, 1518.124 654.799, 1513.451 " />
            <path fill="none" stroke-width="3.0" stroke-linecap="round" stroke-opacity="1.0" stroke="rgb(0, 0, 0)" stroke-linejoin="round" d=" M 550.389, 633.151 552.991, 631.596 " />
            <path fill="none" stroke-width="3.0" stroke-linecap="round" stroke-opacity="1.0" stroke="rgb(0, 0, 0)" stroke-linejoin="round" d=" M 409.028, 1081.667 408.322, 1091.641 407.615, 1101.616 406.909, 1111.592 406.202, 1121.567 405.545, 1130.840 406.895, 1140.748 408.244, 1150.657 409.594, 1160.565 410.943, 1170.474 412.293, 1180.382 413.642, 1190.291 414.992, 1200.199 416.341, 1210.108 417.691, 1220.016 419.040, 1229.925 420.390, 1239.833 421.739, 1249.742 423.089, 1259.651 423.882, 1265.477 424.626, 1275.450 425.369, 1285.422 426.113, 1295.394 426.856, 1305.367 427.600, 1315.339 428.343, 1325.311 429.087, 1335.284 429.830, 1345.256 430.574, 1355.228 431.318, 1365.201 431.601, 1369.002 433.750, 1378.768 435.899, 1388.535 438.049, 1398.301 440.198, 1408.068 442.347, 1417.834 444.496, 1427.600 446.645, 1437.366 448.794, 1447.133 450.944, 1456.899 453.093, 1466.665 455.242, 1476.432 457.391, 1486.198 459.540, 1495.964 461.690, 1505.731 463.839, 1515.497 466.065, 1525.613 464.494, 1535.488 462.922, 1545.364 461.351, 1555.240 459.780, 1565.116 458.209, 1574.992 458.128, 1575.497 456.690, 1585.393 455.253, 1595.289 453.815, 1605.185 452.377, 1615.081 450.939, 1624.977 449.501, 1634.873 448.063, 1644.769 446.625, 1654.665 445.187, 1664.562 443.749, 1674.458 442.887, 1680.390 442.383, 1690.377 441.878, 1700.364 441.374, 1710.352 441.253, 1712.747 451.087, 1714.561 460.922, 1716.374 470.756, 1718.188 480.590, 1720.001 490.424, 1721.815 500.258, 1723.628 510.093, 1725.442 519.927, 1727.255 529.761, 1729.069 539.595, 1730.882 546.804, 1732.212 547.980, 1722.281 549.156, 1712.350 550.332, 1702.420 551.508, 1692.489 552.590, 1683.356 552.910, 1673.361 553.231, 1663.367 553.552, 1653.372 553.873, 1643.377 554.193, 1633.382 554.514, 1623.387 554.835, 1613.392 555.156, 1603.397 555.476, 1593.403 555.797, 1583.408 556.141, 1572.679 554.422, 1562.828 552.703, 1552.977 551.741, 1547.463 550.021, 1537.612 548.751, 1530.333 548.009, 1526.081 548.308, 1516.085 548.608, 1506.090 548.677, 1503.792 548.966, 1494.150 549.265, 1484.154 549.565, 1474.159 549.864, 1464.163 550.163, 1454.168 550.463, 1444.172 550.762, 1434.177 551.062, 1424.181 551.361, 1414.186 551.661, 1404.190 551.960, 1394.195 552.086, 1389.988 " />
            <path fill="none" stroke-width="3.0" stroke-linecap="round" stroke-opacity="1.0" stroke="rgb(0, 0, 0)" stroke-linejoin="round" d=" M 475.720, 1356.159 470.757, 1347.477 465.794, 1338.795 460.831, 1330.114 455.868, 1321.432 450.906, 1312.751 445.943, 1304.069 440.980, 1295.387 436.017, 1286.706 431.054, 1278.024 426.092, 1269.342 423.882, 1265.477 432.902, 1269.794 441.923, 1274.111 450.943, 1278.427 459.963, 1282.744 468.984, 1287.061 472.324, 1288.660 " />
            <path fill="none" stroke-width="3.0" stroke-linecap="round" stroke-opacity="1.0" stroke="rgb(0, 0, 0)" stroke-linejoin="round" d=" M 502.607, 1555.587 501.103, 1545.700 499.600, 1535.814 498.096, 1525.928 496.593, 1516.041 495.089, 1506.155 493.586, 1496.269 492.082, 1486.382 490.578, 1476.496 489.075, 1466.610 487.571, 1456.723 486.068, 1446.837 484.564, 1436.951 483.171, 1427.793 482.137, 1417.847 481.102, 1407.901 480.067, 1397.954 479.033, 1388.008 477.998, 1378.062 476.963, 1368.115 475.929, 1358.169 475.720, 1356.159 475.217, 1346.171 474.715, 1336.184 474.213, 1326.197 473.710, 1316.209 473.208, 1306.222 472.705, 1296.234 472.324, 1288.660 472.346, 1278.660 472.368, 1268.660 472.389, 1258.660 472.411, 1248.660 472.432, 1238.660 472.454, 1228.660 472.476, 1218.660 472.497, 1208.660 472.516, 1200.199 472.706, 1190.201 472.896, 1180.202 473.086, 1170.204 473.276, 1160.206 473.466, 1150.208 473.656, 1140.210 473.671, 1139.435 " />
            <path fill="none" stroke-width="3.0" stroke-linecap="round" stroke-opacity="1.0" stroke="rgb(0, 0, 0)" stroke-linejoin="round" d=" M 472.516, 1200.199 465.569, 1193.005 458.623, 1185.811 451.677, 1178.617 444.731, 1171.423 437.785, 1164.230 430.839, 1157.036 423.893, 1149.842 416.947, 1142.648 410.001, 1135.454 405.545, 1130.840 " />
            <path fill="none" stroke-width="3.0" stroke-linecap="round" stroke-opacity="1.0" stroke="rgb(0, 0, 0)" stroke-linejoin="round" d=" M 550.389, 633.151 550.285, 633.083 " />
            <path fill="none" stroke-width="3.0" stroke-linecap="round" stroke-opacity="1.0" stroke="rgb(0, 0, 0)" stroke-linejoin="round" d=" M 517.213, 674.583 512.909, 665.556 511.507, 662.615 " />
            <path fill="none" stroke-width="3.0" stroke-linecap="round" stroke-opacity="1.0" stroke="rgb(0, 0, 0)" stroke-linejoin="round" d=" M 559.001, 628.294 558.355, 629.252 552.514, 637.369 551.648, 638.573 545.808, 646.690 542.827, 650.834 539.013, 652.268 536.953, 653.043 535.175, 653.712 535.057, 653.756 525.698, 657.277 525.279, 657.434 517.974, 660.182 514.545, 661.472 511.507, 662.615 504.860, 661.363 496.592, 659.806 488.523, 658.286 486.227, 657.854 486.093, 657.648 480.634, 649.270 477.700, 644.766 475.204, 640.935 474.306, 639.557 474.058, 639.177 " />
            <path fill="none" stroke-width="3.0" stroke-linecap="round" stroke-opacity="1.0" stroke="rgb(0, 0, 0)" stroke-linejoin="round" d=" M 486.227, 657.854 486.227, 667.921 486.227, 669.393 " />
            <path fill="none" stroke-width="3.0" stroke-linecap="round" stroke-opacity="1.0" stroke="rgb(0, 0, 0)" stroke-linejoin="round" d=" M 465.598, 629.347 468.346, 638.962 468.728, 640.299 469.235, 641.142 472.585, 646.712 477.739, 655.281 478.815, 657.070 483.338, 664.590 486.227, 669.393 487.106, 669.540 489.362, 669.918 493.904, 670.679 503.766, 672.331 513.629, 673.983 517.213, 674.583 520.401, 673.742 526.249, 672.200 527.320, 671.918 534.542, 670.014 536.395, 669.526 540.183, 664.664 541.885, 662.480 545.551, 657.775 551.698, 649.887 557.844, 641.999 559.571, 639.782 565.717, 631.894 571.864, 624.006 574.244, 620.952 575.601, 619.437 " />
            <path fill="none" stroke-width="3.0" stroke-linecap="round" stroke-opacity="1.0" stroke="rgb(0, 0, 0)" stroke-linejoin="round" d=" M 363.343, 919.892 372.513, 923.882 381.683, 927.871 390.852, 931.861 400.022, 935.851 409.191, 939.841 418.361, 943.830 420.540, 944.778 429.710, 948.768 438.879, 952.758 445.082, 955.457 454.251, 959.447 463.421, 963.436 463.683, 963.550 472.853, 967.540 482.022, 971.530 491.192, 975.520 500.362, 979.509 509.531, 983.499 518.701, 987.489 527.870, 991.479 537.040, 995.469 546.210, 999.458 555.379, 1003.448 564.549, 1007.438 573.719, 1011.428 579.776, 1014.063 589.720, 1013.006 599.664, 1011.949 603.950, 1011.493 613.894, 1010.436 617.959, 1010.004 627.903, 1008.946 637.847, 1007.889 638.484, 1007.821 648.428, 1006.764 655.834, 1005.977 " />
            <path fill="none" stroke-width="3.0" stroke-linecap="round" stroke-opacity="1.0" stroke="rgb(0, 0, 0)" stroke-linejoin="round" d=" M 579.776, 1014.063 575.495, 1005.026 571.214, 995.989 569.332, 992.015 565.051, 982.977 560.770, 973.940 556.489, 964.903 554.204, 960.081 549.923, 951.043 545.642, 942.006 545.507, 941.721 " />
            <path fill="none" stroke-width="3.0" stroke-linecap="round" stroke-opacity="1.0" stroke="rgb(0, 0, 0)" stroke-linejoin="round" d=" M 545.507, 941.721 535.578, 940.531 525.650, 939.342 523.937, 939.136 514.008, 937.947 504.079, 936.757 494.151, 935.567 484.222, 934.377 474.293, 933.187 466.921, 932.304 456.992, 931.114 447.064, 929.924 437.135, 928.734 427.206, 927.545 420.234, 926.709 410.305, 925.519 400.376, 924.330 390.447, 923.140 380.518, 921.950 370.589, 920.760 363.343, 919.892 " />
            <path fill="none" stroke-width="3.0" stroke-linecap="round" stroke-opacity="1.0" stroke="rgb(0, 0, 0)" stroke-linejoin="round" d=" M 545.507, 941.721 536.036, 938.513 530.284, 936.565 520.813, 933.357 511.341, 930.148 501.870, 926.940 492.399, 923.732 482.927, 920.524 479.219, 919.268 469.747, 916.059 460.276, 912.851 450.804, 909.643 441.333, 906.435 431.862, 903.227 422.390, 900.018 416.340, 897.969 406.868, 894.761 397.397, 891.553 387.926, 888.344 378.454, 885.136 375.270, 884.058 " />
            <path fill="none" stroke-width="3.0" stroke-linecap="round" stroke-opacity="1.0" stroke="rgb(0, 0, 0)" stroke-linejoin="round" d=" M 375.270, 884.058 372.112, 893.546 368.954, 903.034 365.796, 912.523 363.343, 919.892 " />
            <path fill="none" stroke-width="3.0" stroke-linecap="round" stroke-opacity="1.0" stroke="rgb(0, 0, 0)" stroke-linejoin="round" d=" M 487.106, 669.540 489.676, 674.273 499.570, 675.731 509.463, 677.189 519.356, 678.646 522.997, 679.183 526.566, 677.021 533.264, 672.965 541.818, 667.786 542.246, 667.527 548.549, 663.710 553.325, 660.818 561.879, 655.638 570.433, 650.459 578.987, 645.279 582.326, 643.257 588.765, 635.606 595.205, 627.955 601.644, 620.304 604.203, 617.265 610.642, 609.614 617.081, 601.963 619.816, 598.714 " />
            <path fill="none" stroke-width="3.0" stroke-linecap="round" stroke-opacity="1.0" stroke="rgb(0, 0, 0)" stroke-linejoin="round" d=" M 582.326, 643.257 583.873, 653.136 585.421, 663.016 586.631, 670.742 " />
            <path fill="none" stroke-width="3.0" stroke-linecap="round" stroke-opacity="1.0" stroke="rgb(0, 0, 0)" stroke-linejoin="round" d=" M 548.549, 663.710 558.382, 665.526 568.216, 667.342 578.050, 669.158 586.631, 670.742 594.934, 665.168 603.236, 659.594 611.538, 654.020 619.841, 648.445 628.143, 642.871 636.445, 637.297 644.747, 631.723 653.050, 626.149 661.037, 620.786 " />
            <path fill="none" stroke-width="3.0" stroke-linecap="round" stroke-opacity="1.0" stroke="rgb(0, 0, 0)" stroke-linejoin="round" d=" M 293.182, 782.018 287.611, 780.372 287.209, 780.253 287.054, 780.207 286.988, 780.330 284.786, 784.424 283.666, 786.506 282.862, 788.001 280.913, 791.625 280.296, 792.773 278.422, 796.257 273.685, 805.064 268.949, 813.871 264.212, 822.678 259.630, 831.198 258.681, 832.962 255.843, 838.240 251.106, 847.047 247.854, 853.095 256.249, 858.527 264.645, 863.960 273.041, 869.393 281.436, 874.825 289.832, 880.258 298.228, 885.690 306.623, 891.123 315.019, 896.556 323.415, 901.988 331.810, 907.421 333.207, 908.324 342.543, 911.908 351.879, 915.491 361.215, 919.075 363.343, 919.892 371.969, 924.951 380.595, 930.011 389.220, 935.070 397.846, 940.129 406.472, 945.189 415.097, 950.248 419.363, 952.750 427.989, 957.810 429.503, 958.698 438.129, 963.758 438.823, 964.164 444.092, 967.255 444.969, 967.769 448.361, 969.759 453.710, 972.896 462.335, 977.956 463.676, 978.742 465.017, 979.529 473.643, 984.588 482.269, 989.648 490.894, 994.707 499.331, 999.656 499.881, 999.789 509.598, 1002.153 510.287, 1002.321 513.138, 1003.015 522.855, 1005.378 531.506, 1007.483 533.423, 1007.949 535.854, 1008.541 545.571, 1010.905 553.819, 1012.911 563.536, 1015.275 573.252, 1017.639 577.976, 1018.788 587.843, 1017.164 597.711, 1015.541 601.816, 1014.865 611.683, 1013.242 617.219, 1012.331 627.086, 1010.707 629.797, 1010.261 631.534, 1009.975 635.168, 1009.377 636.640, 1009.135 639.355, 1008.688 649.223, 1007.065 655.834, 1005.977 659.949, 996.863 662.097, 992.106 666.213, 982.992 670.328, 973.878 674.443, 964.764 675.697, 961.987 679.812, 952.873 683.928, 943.760 688.043, 934.646 692.159, 925.532 696.274, 916.418 700.389, 907.304 704.505, 898.190 708.620, 889.076 712.735, 879.962 716.851, 870.848 720.966, 861.734 725.082, 852.620 729.197, 843.506 733.312, 834.392 737.428, 825.278 741.846, 815.494 740.163, 805.636 738.479, 795.779 736.796, 785.922 735.113, 776.065 733.429, 766.207 731.746, 756.350 730.063, 746.493 728.379, 736.635 726.696, 726.778 725.013, 716.921 723.329, 707.063 721.646, 697.206 721.250, 694.891 714.944, 687.130 708.638, 679.369 702.332, 671.608 696.026, 663.847 689.720, 656.086 683.414, 648.325 677.108, 640.564 670.802, 632.803 664.495, 625.042 661.037, 620.786 655.417, 612.515 649.797, 604.243 644.177, 595.972 638.557, 587.700 636.972, 585.367 " />
            <path fill="none" stroke-width="3.0" stroke-linecap="round" stroke-opacity="1.0" stroke="rgb(0, 0, 0)" stroke-linejoin="round" d=" M 451.135, 654.870 447.242, 664.081 443.349, 673.293 439.456, 682.504 435.563, 691.715 431.671, 700.926 427.778, 710.137 423.885, 719.349 419.992, 728.560 416.099, 737.771 412.207, 746.982 408.314, 756.193 404.421, 765.405 400.528, 774.616 399.844, 776.234 " />
            <path fill="none" stroke-width="3.0" stroke-linecap="round" stroke-opacity="1.0" stroke="rgb(0, 0, 0)" stroke-linejoin="round" d=" M 399.844, 776.234 407.201, 783.007 414.558, 789.781 421.915, 796.554 429.272, 803.327 436.629, 810.100 443.985, 816.874 451.342, 823.647 458.699, 830.420 463.288, 834.645 " />
            <path fill="none" stroke-width="3.0" stroke-linecap="round" stroke-opacity="1.0" stroke="rgb(0, 0, 0)" stroke-linejoin="round" d=" M 463.288, 834.645 467.260, 825.468 471.232, 816.291 475.204, 807.114 479.176, 797.936 483.148, 788.759 487.120, 779.582 491.092, 770.404 495.064, 761.227 499.036, 752.050 503.008, 742.872 506.980, 733.695 510.952, 724.518 514.924, 715.340 518.896, 706.163 522.868, 696.986 526.840, 687.808 530.812, 678.631 533.264, 672.965 " />
            <path fill="none" stroke-width="3.0" stroke-linecap="round" stroke-opacity="1.0" stroke="rgb(0, 0, 0)" stroke-linejoin="round" d=" M 452.724, 553.849 442.976, 556.080 433.228, 558.310 432.906, 558.384 425.190, 564.744 417.474, 571.104 409.757, 577.465 402.041, 583.826 394.324, 590.186 386.608, 596.547 383.387, 599.201 375.278, 605.053 367.170, 610.905 359.061, 616.757 350.952, 622.609 342.843, 628.462 334.734, 634.314 326.626, 640.166 318.517, 646.018 310.408, 651.870 302.299, 657.722 294.190, 663.574 286.081, 669.426 277.973, 675.278 269.864, 681.131 261.755, 686.983 253.646, 692.835 245.537, 698.687 237.429, 704.539 229.320, 710.391 221.211, 716.243 213.102, 722.095 208.522, 725.401 " />
            <path fill="none" stroke-width="3.0" stroke-linecap="round" stroke-opacity="1.0" stroke="rgb(0, 0, 0)" stroke-linejoin="round" d=" M 499.331, 999.656 509.174, 1001.418 519.018, 1003.181 528.861, 1004.944 538.704, 1006.707 548.548, 1008.470 558.391, 1010.233 568.234, 1011.996 578.078, 1013.759 579.776, 1014.063 " />
            <path fill="none" stroke-width="3.0" stroke-linecap="round" stroke-opacity="1.0" stroke="rgb(0, 0, 0)" stroke-linejoin="round" d=" M 601.297, 998.441 594.284, 991.312 590.322, 987.283 583.310, 980.154 576.297, 973.025 569.285, 965.896 562.273, 958.766 556.547, 952.946 549.535, 945.816 546.144, 942.369 546.121, 942.345 545.507, 941.721 536.623, 937.131 533.223, 935.374 529.692, 933.549 523.832, 930.522 521.424, 929.277 512.540, 924.687 503.656, 920.096 494.772, 915.506 486.701, 911.335 477.817, 906.745 468.933, 902.154 464.064, 899.639 455.180, 895.048 446.296, 890.458 443.963, 889.252 441.051, 887.747 432.167, 883.157 423.283, 878.566 414.399, 873.976 412.990, 873.248 404.106, 868.658 395.222, 864.067 388.103, 860.389 383.737, 851.676 379.225, 842.674 374.745, 833.733 373.953, 832.153 370.395, 826.805 " />
            <path fill="none" stroke-width="3.0" stroke-linecap="round" stroke-opacity="1.0" stroke="rgb(0, 0, 0)" stroke-linejoin="round" d=" M 388.103, 860.389 383.337, 869.180 378.571, 877.971 375.270, 884.058 " />
            <path fill="none" stroke-width="3.0" stroke-linecap="round" stroke-opacity="1.0" stroke="rgb(0, 0, 0)" stroke-linejoin="round" d=" M 247.242, 730.526 237.316, 731.742 227.390, 732.957 217.465, 734.173 214.031, 734.594 204.105, 735.809 194.179, 737.025 184.253, 738.241 181.976, 738.520 " />
            <path fill="none" stroke-width="3.0" stroke-linecap="round" stroke-opacity="1.0" stroke="rgb(0, 0, 0)" stroke-linejoin="round" d=" M 181.976, 738.520 188.152, 746.385 194.328, 754.250 200.503, 762.115 206.679, 769.980 212.855, 777.845 219.031, 785.711 224.222, 792.322 225.640, 794.129 231.816, 801.994 237.992, 809.859 244.168, 817.724 249.898, 825.022 " />
            <path fill="none" stroke-width="3.0" stroke-linecap="round" stroke-opacity="1.0" stroke="rgb(0, 0, 0)" stroke-linejoin="round" d=" M 249.898, 825.022 254.066, 815.932 258.234, 806.842 262.401, 797.752 266.569, 788.662 267.251, 787.173 " />
            <path fill="none" stroke-width="3.0" stroke-linecap="round" stroke-opacity="1.0" stroke="rgb(0, 0, 0)" stroke-linejoin="round" d=" M 286.988, 780.330 279.015, 783.094 269.567, 786.370 267.251, 787.173 263.921, 777.744 261.237, 770.147 257.907, 760.718 254.576, 751.289 251.246, 741.860 247.915, 732.431 247.242, 730.526 " />
            <path fill="none" stroke-width="3.0" stroke-linecap="round" stroke-opacity="1.0" stroke="rgb(0, 0, 0)" stroke-linejoin="round" d=" M 273.925, 763.473 282.776, 758.818 291.626, 754.163 300.476, 749.507 309.327, 744.852 318.177, 740.197 327.027, 735.541 335.878, 730.886 344.728, 726.231 353.578, 721.576 362.429, 716.920 371.279, 712.265 380.129, 707.610 388.979, 702.954 397.830, 698.299 406.680, 693.644 415.078, 689.226 422.318, 682.328 429.558, 675.429 436.798, 668.531 444.037, 661.633 451.135, 654.870 " />
            <path fill="none" stroke-width="3.0" stroke-linecap="round" stroke-opacity="1.0" stroke="rgb(0, 0, 0)" stroke-linejoin="round" d=" M 469.235, 641.142 461.267, 647.185 453.300, 653.228 451.135, 654.870 442.390, 659.722 433.646, 664.573 424.902, 669.425 416.157, 674.276 407.413, 679.128 398.669, 683.980 389.925, 688.831 381.180, 693.683 372.436, 698.534 363.692, 703.386 354.948, 708.237 346.203, 713.089 337.459, 717.941 328.715, 722.792 319.970, 727.644 311.226, 732.495 302.482, 737.347 293.738, 742.198 284.993, 747.050 276.249, 751.901 268.180, 756.379 " />
            <path fill="none" stroke-width="3.0" stroke-linecap="round" stroke-opacity="1.0" stroke="rgb(0, 0, 0)" stroke-linejoin="round" d=" M 502.944, 1153.273 497.503, 1161.663 492.062, 1170.054 486.622, 1178.444 481.181, 1186.835 475.741, 1195.225 472.516, 1200.199 480.940, 1194.810 489.364, 1189.422 497.788, 1184.034 506.212, 1178.645 514.636, 1173.257 523.060, 1167.869 527.633, 1164.944 " />
            <path fill="none" stroke-width="3.0" stroke-linecap="round" stroke-opacity="1.0" stroke="rgb(0, 0, 0)" stroke-linejoin="round" d=" M 558.355, 629.252 567.218, 624.622 574.244, 620.952 566.998, 627.843 559.753, 634.735 555.155, 639.108 547.909, 646.000 542.827, 650.834 539.573, 660.290 536.395, 669.526 " />
            <path fill="none" stroke-width="3.0" stroke-linecap="round" stroke-opacity="1.0" stroke="rgb(0, 0, 0)" stroke-linejoin="round" d=" M 451.135, 654.870 443.408, 648.521 435.682, 642.173 427.956, 635.824 420.230, 629.475 412.504, 623.127 404.778, 616.778 397.051, 610.429 389.325, 604.080 383.387, 599.201 " />
            <path fill="none" stroke-width="3.0" stroke-linecap="round" stroke-opacity="1.0" stroke="rgb(0, 0, 0)" stroke-linejoin="round" d=" M 601.297, 998.441 593.204, 1004.316 585.111, 1010.190 579.776, 1014.063 577.976, 1018.788 " />
            <path fill="none" stroke-width="3.0" stroke-linecap="round" stroke-opacity="1.0" stroke="rgb(0, 0, 0)" stroke-linejoin="round" d=" M 655.834, 1005.977 645.928, 1004.608 636.022, 1003.239 633.529, 1002.895 633.509, 1002.892 623.618, 1001.525 620.781, 1001.133 611.332, 999.828 601.426, 998.459 601.297, 998.441 605.035, 990.117 609.131, 980.994 609.863, 979.365 613.959, 970.242 618.056, 961.120 618.372, 960.416 620.214, 956.314 624.310, 947.192 628.406, 938.069 632.503, 928.947 636.599, 919.825 640.696, 910.702 644.792, 901.580 648.889, 892.457 652.985, 883.335 657.081, 874.212 661.178, 865.090 665.274, 855.967 669.371, 846.845 673.467, 837.722 677.564, 828.600 681.660, 819.478 684.745, 812.608 685.738, 810.396 687.568, 800.565 689.399, 790.734 691.229, 780.903 693.059, 771.072 694.890, 761.241 696.720, 751.410 697.871, 745.230 " />
            <path fill="none" stroke-width="3.0" stroke-linecap="round" stroke-opacity="1.0" stroke="rgb(0, 0, 0)" stroke-linejoin="round" d=" M 616.467, 770.479 625.132, 775.472 633.796, 780.465 642.460, 785.458 651.125, 790.451 659.789, 795.444 668.454, 800.436 677.118, 805.429 685.738, 810.396 686.966, 810.508 696.925, 811.413 704.813, 812.129 714.772, 813.034 724.731, 813.939 734.690, 814.844 741.846, 815.494 " />
            <path fill="none" stroke-width="3.0" stroke-linecap="round" stroke-opacity="1.0" stroke="rgb(0, 0, 0)" stroke-linejoin="round" d=" M 697.871, 745.230 688.320, 748.193 678.769, 751.155 669.217, 754.118 659.666, 757.080 650.115, 760.043 640.564, 763.005 631.013, 765.968 621.462, 768.930 616.467, 770.479 " />
            <path fill="none" stroke-width="3.0" stroke-linecap="round" stroke-opacity="1.0" stroke="rgb(0, 0, 0)" stroke-linejoin="round" d=" M 333.207, 908.324 341.869, 903.327 343.332, 902.483 351.994, 897.486 360.656, 892.489 363.047, 891.110 371.709, 886.113 375.270, 884.058 375.017, 874.061 374.877, 868.562 374.623, 858.565 374.369, 848.569 374.116, 838.572 373.953, 832.153 365.369, 827.022 356.786, 821.891 348.202, 816.760 339.619, 811.629 331.036, 806.498 322.452, 801.367 313.869, 796.237 305.286, 791.106 296.702, 785.975 287.876, 780.698 287.159, 780.270 287.054, 780.207 " />
            <path fill="none" stroke-width="3.0" stroke-linecap="round" stroke-opacity="1.0" stroke="rgb(0, 0, 0)" stroke-linejoin="round" d=" M 373.953, 832.153 369.236, 840.970 364.519, 849.788 359.802, 858.606 355.086, 867.424 350.369, 876.241 345.652, 885.059 340.935, 893.877 338.262, 898.874 333.545, 907.692 333.207, 908.324 " />
            <path fill="none" stroke-width="3.0" stroke-linecap="round" stroke-opacity="1.0" stroke="rgb(0, 0, 0)" stroke-linejoin="round" d=" M 632.186, 508.973 632.164, 509.098 630.471, 518.954 628.778, 528.809 627.085, 538.665 625.392, 548.521 623.699, 558.376 622.005, 568.232 620.312, 578.088 618.619, 587.943 616.926, 597.801 616.299, 601.450 " />
            <path fill="none" stroke-width="3.0" stroke-linecap="round" stroke-opacity="1.0" stroke="rgb(0, 0, 0)" stroke-linejoin="round" d=" M 456.144, 548.354 452.724, 553.849 449.761, 558.610 444.476, 567.099 441.971, 571.123 442.178, 581.121 442.302, 587.089 442.509, 597.087 442.567, 599.884 444.756, 602.776 450.791, 610.749 456.826, 618.723 462.861, 626.696 464.579, 628.965 465.598, 629.347 468.900, 630.583 469.608, 630.849 470.376, 631.136 475.395, 633.016 475.590, 633.089 475.841, 633.183 478.444, 634.158 479.344, 634.495 483.181, 635.932 485.794, 636.911 487.015, 637.368 492.121, 639.281 501.486, 642.788 505.221, 644.188 506.228, 644.046 513.477, 643.025 523.311, 641.640 528.997, 640.839 530.094, 640.685 535.229, 639.961 538.643, 639.480 542.764, 637.216 550.156, 633.154 550.285, 633.083 550.407, 633.016 552.991, 631.596 559.001, 628.294 567.765, 623.478 573.143, 620.523 575.601, 619.437 584.747, 615.395 593.894, 611.352 596.797, 610.069 599.929, 608.685 609.075, 604.643 613.058, 602.883 616.299, 601.450 619.816, 598.714 621.176, 597.656 626.930, 593.179 634.823, 587.039 636.972, 585.367 644.865, 579.227 652.757, 573.086 660.650, 566.946 668.543, 560.805 671.006, 558.889 " />
            <path fill="none" stroke-width="3.0" stroke-linecap="round" stroke-opacity="1.0" stroke="rgb(0, 0, 0)" stroke-linejoin="round" d=" M 671.006, 558.889 672.544, 549.008 674.082, 539.127 675.620, 529.246 677.157, 519.365 678.695, 509.484 680.233, 499.603 681.771, 489.722 683.309, 479.841 684.847, 469.960 685.932, 462.985 680.094, 454.866 674.256, 446.747 668.418, 438.628 662.580, 430.509 656.742, 422.390 650.904, 414.271 649.086, 411.743 639.658, 408.411 630.229, 405.079 620.801, 401.746 611.372, 398.414 601.944, 395.082 592.516, 391.750 583.087, 388.417 577.869, 386.573 568.620, 390.375 559.371, 394.177 551.034, 397.605 " />
            <path fill="none" stroke-width="3.0" stroke-linecap="round" stroke-opacity="1.0" stroke="rgb(0, 0, 0)" stroke-linejoin="round" d=" M 685.932, 462.985 678.334, 469.486 670.736, 475.988 663.138, 482.489 655.468, 489.051 647.870, 495.552 640.272, 502.054 632.674, 508.555 632.186, 508.973 632.000, 509.038 622.568, 512.360 613.136, 515.683 603.704, 519.005 594.273, 522.328 584.841, 525.650 575.409, 528.973 566.492, 532.114 556.983, 529.018 547.474, 525.923 537.965, 522.828 528.457, 519.732 518.948, 516.637 509.439, 513.542 507.355, 512.863 501.333, 510.903 " />
            <path fill="none" stroke-width="3.0" stroke-linecap="round" stroke-opacity="1.0" stroke="rgb(0, 0, 0)" stroke-linejoin="round" d=" M 267.251, 787.173 265.412, 797.003 263.572, 806.832 261.732, 816.661 259.893, 826.491 258.681, 832.962 " />
            <path fill="none" stroke-width="3.0" stroke-linecap="round" stroke-opacity="1.0" stroke="rgb(0, 0, 0)" stroke-linejoin="round" d=" M 383.737, 851.676 388.383, 842.821 392.805, 834.393 384.893, 828.277 376.981, 822.161 369.069, 816.045 361.157, 809.929 353.245, 803.814 345.334, 797.698 337.422, 791.582 329.510, 785.466 328.769, 784.894 319.117, 782.278 309.466, 779.662 299.814, 777.046 297.929, 776.536 288.481, 779.812 287.448, 780.170 287.209, 780.253 " />
            <path fill="none" stroke-width="3.0" stroke-linecap="round" stroke-opacity="1.0" stroke="rgb(0, 0, 0)" stroke-linejoin="round" d=" M 287.448, 780.170 281.154, 772.399 274.860, 764.628 273.925, 763.473 268.180, 756.379 261.886, 748.608 255.592, 740.837 249.299, 733.065 247.242, 730.526 241.402, 729.753 231.488, 728.441 221.575, 727.129 213.550, 726.067 208.522, 725.401 199.557, 729.832 190.592, 734.262 181.976, 738.520 187.042, 747.142 192.108, 755.763 197.175, 764.385 202.241, 773.007 207.307, 781.628 212.373, 790.250 217.439, 798.872 218.455, 800.601 226.353, 806.735 234.251, 812.869 242.149, 819.003 249.898, 825.022 254.000, 834.142 255.843, 838.240 " />
            <path fill="none" stroke-width="3.0" stroke-linecap="round" stroke-opacity="1.0" stroke="rgb(0, 0, 0)" stroke-linejoin="round" d=" M 401.478, 1073.903 408.450, 1081.072 409.028, 1081.667 416.000, 1088.835 422.972, 1096.004 429.944, 1103.173 435.897, 1109.293 442.869, 1116.462 449.841, 1123.630 456.813, 1130.799 458.012, 1132.032 467.052, 1136.306 473.671, 1139.435 482.711, 1143.708 491.752, 1147.982 495.445, 1149.728 502.944, 1153.273 511.984, 1157.547 521.025, 1161.821 527.633, 1164.944 530.688, 1166.388 535.349, 1168.592 543.359, 1166.681 553.086, 1164.361 557.698, 1163.261 559.055, 1162.937 565.061, 1161.504 568.505, 1160.683 578.232, 1158.362 587.959, 1156.042 588.963, 1155.803 598.690, 1153.482 608.417, 1151.162 618.144, 1148.841 619.086, 1148.617 628.813, 1146.296 638.540, 1143.976 648.268, 1141.656 653.354, 1140.442 657.299, 1131.253 658.673, 1128.052 " />
            <path fill="none" stroke-width="3.0" stroke-linecap="round" stroke-opacity="1.0" stroke="rgb(0, 0, 0)" stroke-linejoin="round" d=" M 458.012, 1132.032 458.494, 1122.044 458.977, 1112.055 459.460, 1102.067 459.942, 1092.079 460.425, 1082.090 460.908, 1072.102 461.390, 1062.114 461.873, 1052.125 462.356, 1042.137 462.838, 1032.149 463.321, 1022.160 463.804, 1012.172 464.286, 1002.183 464.769, 992.195 465.089, 985.566 " />
            <path fill="none" stroke-width="3.0" stroke-linecap="round" stroke-opacity="1.0" stroke="rgb(0, 0, 0)" stroke-linejoin="round" d=" M 465.089, 985.566 458.407, 978.126 453.710, 972.896 " />
            <path fill="none" stroke-width="3.0" stroke-linecap="round" stroke-opacity="1.0" stroke="rgb(0, 0, 0)" stroke-linejoin="round" d=" M 297.929, 776.536 306.176, 782.192 314.423, 787.847 322.670, 793.503 330.917, 799.159 339.164, 804.815 347.411, 810.471 355.658, 816.127 363.904, 821.783 372.151, 827.438 380.398, 833.094 383.300, 835.084 " />
            <path fill="none" stroke-width="3.0" stroke-linecap="round" stroke-opacity="1.0" stroke="rgb(0, 0, 0)" stroke-linejoin="round" d=" M 379.225, 842.674 383.300, 835.084 392.805, 834.393 " />
            <path fill="none" stroke-width="3.0" stroke-linecap="round" stroke-opacity="1.0" stroke="rgb(0, 0, 0)" stroke-linejoin="round" d=" M 557.698, 1163.261 558.539, 1167.408 560.526, 1177.208 562.514, 1187.009 564.501, 1196.809 566.488, 1206.610 568.475, 1216.410 570.463, 1226.211 571.209, 1229.889 567.177, 1220.738 563.145, 1211.587 559.113, 1202.436 555.453, 1194.129 551.421, 1184.978 547.389, 1175.827 543.359, 1166.681 " />
            <path fill="none" stroke-width="3.0" stroke-linecap="round" stroke-opacity="1.0" stroke="rgb(0, 0, 0)" stroke-linejoin="round" d=" M 554.882, 885.862 564.209, 882.257 573.537, 878.653 582.021, 875.375 " />
            <path fill="none" stroke-width="3.0" stroke-linecap="round" stroke-opacity="1.0" stroke="rgb(0, 0, 0)" stroke-linejoin="round" d=" M 616.467, 770.479 611.758, 779.301 607.050, 788.123 602.341, 796.945 597.632, 805.767 592.923, 814.589 588.215, 823.411 583.506, 832.233 578.797, 841.055 574.088, 849.877 569.380, 858.699 564.671, 867.521 559.962, 876.343 554.882, 885.862 " />
            <path fill="none" stroke-width="3.0" stroke-linecap="round" stroke-opacity="1.0" stroke="rgb(0, 0, 0)" stroke-linejoin="round" d=" M 616.467, 770.479 613.347, 779.980 610.227, 789.481 607.107, 798.982 603.987, 808.483 600.867, 817.984 597.747, 827.484 594.628, 836.985 591.508, 846.486 588.388, 855.987 585.268, 865.488 583.784, 870.007 582.021, 875.375 578.901, 884.876 575.781, 894.377 572.661, 903.878 569.541, 913.379 568.887, 915.371 565.862, 924.581 565.260, 926.413 563.130, 932.899 562.995, 933.312 560.991, 939.413 557.871, 948.914 556.547, 952.946 " />
            <path fill="none" stroke-width="3.0" stroke-linecap="round" stroke-opacity="1.0" stroke="rgb(0, 0, 0)" stroke-linejoin="round" d=" M 542.246, 667.527 548.094, 675.638 553.942, 683.750 559.790, 691.862 565.638, 699.974 571.486, 708.086 577.334, 716.197 583.182, 724.309 589.030, 732.421 594.878, 740.533 600.726, 748.645 606.574, 756.756 612.422, 764.868 616.467, 770.479 613.601, 760.899 610.735, 751.318 607.869, 741.738 605.003, 732.157 602.137, 722.577 599.271, 712.996 596.406, 703.416 593.540, 693.835 590.674, 684.255 587.808, 674.674 586.631, 670.742 " />
            <path fill="none" stroke-width="3.0" stroke-linecap="round" stroke-opacity="1.0" stroke="rgb(0, 0, 0)" stroke-linejoin="round" d=" M 680.945, 1663.007 682.759, 1653.173 684.573, 1643.339 686.386, 1633.505 688.200, 1623.671 690.014, 1613.837 690.330, 1612.126 " />
            <path fill="none" stroke-width="3.0" stroke-linecap="round" stroke-opacity="1.0" stroke="rgb(0, 0, 0)" stroke-linejoin="round" d=" M 653.476, 1531.067 662.611, 1535.137 671.745, 1539.206 680.880, 1543.275 690.015, 1547.345 699.149, 1551.414 708.284, 1555.484 717.418, 1559.553 726.553, 1563.622 735.687, 1567.692 736.635, 1568.114 729.387, 1575.003 722.139, 1581.893 714.890, 1588.782 707.642, 1595.671 700.394, 1602.561 693.146, 1609.450 690.330, 1612.126 681.762, 1606.969 673.194, 1601.813 664.626, 1596.656 656.059, 1591.499 647.491, 1586.342 638.923, 1581.185 630.355, 1576.029 621.787, 1570.872 613.219, 1565.715 604.652, 1560.558 596.084, 1555.401 587.516, 1550.245 578.948, 1545.088 569.947, 1539.670 " />
            <path fill="none" stroke-width="3.0" stroke-linecap="round" stroke-opacity="1.0" stroke="rgb(0, 0, 0)" stroke-linejoin="round" d=" M 549.244, 1496.330 553.554, 1505.353 557.864, 1514.376 562.175, 1523.400 566.485, 1532.423 569.947, 1539.670 568.584, 1549.577 567.222, 1559.484 565.859, 1569.390 564.497, 1579.297 563.398, 1587.290 " />
            <path fill="none" stroke-width="3.0" stroke-linecap="round" stroke-opacity="1.0" stroke="rgb(0, 0, 0)" stroke-linejoin="round" d=" M 721.250, 694.891 717.038, 703.961 712.826, 713.030 708.614, 722.100 704.401, 731.169 700.189, 740.239 697.871, 745.230 695.033, 735.641 692.194, 726.052 689.356, 716.464 686.518, 706.875 683.680, 697.286 680.842, 687.697 678.004, 678.109 675.166, 668.520 672.327, 658.931 669.489, 649.342 666.651, 639.753 663.813, 630.165 661.037, 620.786 " />
            <path fill="none" stroke-width="3.0" stroke-linecap="round" stroke-opacity="1.0" stroke="rgb(0, 0, 0)" stroke-linejoin="round" d=" M 554.882, 885.862 553.349, 895.744 551.841, 905.463 550.309, 915.345 548.776, 925.227 548.140, 929.330 546.607, 939.212 546.121, 942.345 " />
            <path fill="none" stroke-width="3.0" stroke-linecap="round" stroke-opacity="1.0" stroke="rgb(0, 0, 0)" stroke-linejoin="round" d=" M 534.538, 1017.030 544.317, 1014.941 553.819, 1012.911 " />
            <path fill="none" stroke-width="3.0" stroke-linecap="round" stroke-opacity="1.0" stroke="rgb(0, 0, 0)" stroke-linejoin="round" d=" M 554.882, 885.862 546.153, 880.981 537.425, 876.101 528.697, 871.220 519.969, 866.340 511.241, 861.459 502.513, 856.578 493.784, 851.698 485.056, 846.818 476.328, 841.937 467.600, 837.057 463.288, 834.645 463.408, 844.645 463.527, 854.644 463.646, 864.643 463.766, 874.643 463.885, 884.642 464.004, 894.641 464.064, 899.639 " />
            <path fill="none" stroke-width="3.0" stroke-linecap="round" stroke-opacity="1.0" stroke="rgb(0, 0, 0)" stroke-linejoin="round" d=" M 465.017, 979.529 465.089, 985.566 474.198, 989.693 483.307, 993.819 492.416, 997.946 501.524, 1002.073 510.633, 1006.200 519.742, 1010.327 528.851, 1014.453 534.538, 1017.030 " />
            <path fill="none" stroke-width="3.0" stroke-linecap="round" stroke-opacity="1.0" stroke="rgb(0, 0, 0)" stroke-linejoin="round" d=" M 415.078, 689.226 413.354, 699.076 411.629, 708.926 409.905, 718.777 408.180, 728.627 406.455, 738.477 404.731, 748.327 403.006, 758.177 401.281, 768.027 399.844, 776.234 401.187, 786.143 402.530, 796.053 403.873, 805.962 405.215, 815.872 406.558, 825.781 407.901, 835.691 409.244, 845.600 410.586, 855.510 411.929, 865.419 412.990, 873.248 " />
            <path fill="none" stroke-width="3.0" stroke-linecap="round" stroke-opacity="1.0" stroke="rgb(0, 0, 0)" stroke-linejoin="round" d=" M 535.349, 1168.592 535.295, 1158.592 535.251, 1150.257 535.197, 1140.258 535.144, 1130.258 535.090, 1120.258 535.064, 1115.347 535.061, 1114.839 535.008, 1104.840 534.954, 1094.840 534.901, 1084.840 534.847, 1074.840 534.794, 1064.840 534.740, 1054.840 534.687, 1044.840 534.633, 1034.841 534.580, 1024.841 534.538, 1017.030 535.854, 1008.541 " />
            <path fill="none" stroke-width="3.0" stroke-linecap="round" stroke-opacity="1.0" stroke="rgb(0, 0, 0)" stroke-linejoin="round" d=" M 442.887, 1680.390 445.835, 1670.834 448.784, 1661.279 451.732, 1651.723 454.681, 1642.168 456.531, 1636.170 " />
            <path fill="none" stroke-width="3.0" stroke-linecap="round" stroke-opacity="1.0" stroke="rgb(0, 0, 0)" stroke-linejoin="round" d=" M 456.531, 1636.170 457.391, 1626.207 458.250, 1616.244 459.109, 1606.281 459.968, 1596.318 460.827, 1586.355 461.686, 1576.392 462.545, 1566.429 463.404, 1556.466 464.263, 1546.503 465.123, 1536.539 466.065, 1525.613 473.797, 1531.955 481.528, 1538.297 489.260, 1544.638 496.992, 1550.980 502.607, 1555.587 " />
            <path fill="none" stroke-width="3.0" stroke-linecap="round" stroke-opacity="1.0" stroke="rgb(0, 0, 0)" stroke-linejoin="round" d=" M 650.661, 1104.821 656.206, 1113.142 661.599, 1121.234 667.145, 1129.556 672.690, 1137.877 678.236, 1146.199 681.463, 1151.042 " />
            <path fill="none" stroke-width="3.0" stroke-linecap="round" stroke-opacity="1.0" stroke="rgb(0, 0, 0)" stroke-linejoin="round" d=" M 703.162, 1024.405 699.135, 1015.252 695.107, 1006.099 691.080, 996.946 687.052, 987.793 683.025, 978.640 678.997, 969.487 675.697, 961.987 " />
            <path fill="none" stroke-width="3.0" stroke-linecap="round" stroke-opacity="1.0" stroke="rgb(0, 0, 0)" stroke-linejoin="round" d=" M 432.906, 558.384 442.906, 558.518 449.761, 558.610 " />
            <path fill="none" stroke-width="3.0" stroke-linecap="round" stroke-opacity="1.0" stroke="rgb(0, 0, 0)" stroke-linejoin="round" d=" M 451.135, 654.870 449.278, 645.044 447.422, 635.218 445.566, 625.392 443.709, 615.566 441.853, 605.739 439.996, 595.913 438.140, 586.087 436.284, 576.261 434.427, 566.435 432.906, 558.384 " />
            <path fill="none" stroke-width="3.0" stroke-linecap="round" stroke-opacity="1.0" stroke="rgb(0, 0, 0)" stroke-linejoin="round" d=" M 548.966, 1494.150 549.244, 1496.330 548.677, 1503.792 " />
            <path fill="none" stroke-width="3.0" stroke-linecap="round" stroke-opacity="1.0" stroke="rgb(0, 0, 0)" stroke-linejoin="round" d=" M 770.166, 1593.575 764.934, 1602.097 759.702, 1610.620 754.470, 1619.142 749.238, 1627.664 744.006, 1636.186 738.774, 1644.708 733.485, 1653.324 734.005, 1663.310 734.525, 1673.297 735.045, 1683.283 735.566, 1693.270 735.614, 1694.198 " />
            <path fill="none" stroke-width="3.0" stroke-linecap="round" stroke-opacity="1.0" stroke="rgb(0, 0, 0)" stroke-linejoin="round" d=" M 543.578, 1690.587 542.522, 1680.643 541.466, 1670.699 540.410, 1660.755 539.354, 1650.810 538.298, 1640.866 538.025, 1638.298 534.089, 1629.105 530.152, 1619.912 526.216, 1610.720 522.279, 1601.527 518.343, 1592.334 514.406, 1583.142 510.470, 1573.949 506.534, 1564.756 502.607, 1555.587 510.992, 1550.137 519.377, 1544.688 527.762, 1539.239 536.147, 1533.790 544.531, 1528.341 546.931, 1526.781 548.009, 1526.081 " />
            <path fill="none" stroke-width="3.0" stroke-linecap="round" stroke-opacity="1.0" stroke="rgb(0, 0, 0)" stroke-linejoin="round" d=" M 502.607, 1555.587 497.643, 1564.268 492.680, 1572.949 487.716, 1581.630 482.752, 1590.311 477.789, 1598.992 472.825, 1607.673 467.861, 1616.354 462.898, 1625.036 457.934, 1633.717 456.531, 1636.170 " />
            <path fill="none" stroke-width="3.0" stroke-linecap="round" stroke-opacity="1.0" stroke="rgb(0, 0, 0)" stroke-linejoin="round" d=" M 451.659, 1672.770 452.978, 1662.857 454.298, 1652.945 455.618, 1643.032 456.531, 1636.170 466.528, 1636.431 476.525, 1636.692 486.521, 1636.953 496.518, 1637.214 506.514, 1637.475 516.511, 1637.736 526.508, 1637.997 536.504, 1638.258 538.025, 1638.298 " />
            <path fill="none" stroke-width="3.0" stroke-linecap="round" stroke-opacity="1.0" stroke="rgb(0, 0, 0)" stroke-linejoin="round" d=" M 552.590, 1683.356 549.514, 1673.841 546.438, 1664.326 543.363, 1654.811 540.287, 1645.295 538.025, 1638.298 538.911, 1628.337 539.797, 1618.376 540.684, 1608.416 541.570, 1598.455 542.456, 1588.494 543.342, 1578.534 544.228, 1568.573 545.115, 1558.612 546.001, 1548.652 546.887, 1538.691 547.420, 1532.701 548.009, 1526.081 " />
            <path fill="none" stroke-width="3.0" stroke-linecap="round" stroke-opacity="1.0" stroke="rgb(0, 0, 0)" stroke-linejoin="round" d=" M 481.325, 594.120 482.416, 584.180 483.507, 574.240 484.599, 564.300 485.690, 554.359 486.597, 546.099 487.688, 536.159 488.779, 526.219 489.149, 522.852 490.240, 512.911 490.836, 507.486 " />
            <path fill="none" stroke-width="3.0" stroke-linecap="round" stroke-opacity="1.0" stroke="rgb(0, 0, 0)" stroke-linejoin="round" d=" M 495.062, 508.862 490.836, 507.486 489.486, 505.210 " />
            <path fill="none" stroke-width="3.0" stroke-linecap="round" stroke-opacity="1.0" stroke="rgb(0, 0, 0)" stroke-linejoin="round" d=" M 455.984, 551.143 457.003, 552.870 457.932, 554.447 460.379, 558.597 465.458, 567.211 468.109, 571.706 473.188, 580.320 478.267, 588.934 481.325, 594.120 490.722, 597.540 500.119, 600.960 509.516, 604.380 515.209, 606.452 517.695, 607.357 527.093, 610.777 534.952, 613.638 544.349, 617.058 553.746, 620.478 554.348, 620.697 " />
            <path fill="none" stroke-width="3.0" stroke-linecap="round" stroke-opacity="1.0" stroke="rgb(0, 0, 0)" stroke-linejoin="round" d=" M 552.562, 1374.091 544.654, 1380.212 536.746, 1386.332 535.358, 1387.406 527.450, 1393.526 519.541, 1399.646 511.633, 1405.767 503.725, 1411.887 495.816, 1418.007 487.908, 1424.128 483.171, 1427.793 476.577, 1420.276 469.983, 1412.758 463.388, 1405.240 456.794, 1397.723 450.200, 1390.205 443.605, 1382.687 437.011, 1375.170 431.601, 1369.002 " />
            <path fill="none" stroke-width="3.0" stroke-linecap="round" stroke-opacity="1.0" stroke="rgb(0, 0, 0)" stroke-linejoin="round" d=" M 441.253, 1712.747 443.772, 1703.070 446.291, 1693.392 448.810, 1683.715 451.329, 1674.037 451.659, 1672.770 461.476, 1674.673 471.293, 1676.576 481.110, 1678.479 490.928, 1680.381 500.745, 1682.284 510.562, 1684.187 520.379, 1686.090 530.197, 1687.993 540.014, 1689.896 543.578, 1690.587 544.351, 1700.557 545.123, 1710.527 545.896, 1720.497 546.668, 1730.467 546.804, 1732.212 " />
            <path fill="none" stroke-width="3.0" stroke-linecap="round" stroke-opacity="1.0" stroke="rgb(0, 0, 0)" stroke-linejoin="round" d=" M 472.324, 1288.660 482.152, 1286.808 491.979, 1284.957 501.806, 1283.105 511.633, 1281.253 521.460, 1279.402 531.287, 1277.550 535.099, 1276.832 544.926, 1274.981 546.140, 1274.752 " />
            <path fill="none" stroke-width="3.0" stroke-linecap="round" stroke-opacity="1.0" stroke="rgb(0, 0, 0)" stroke-linejoin="round" d=" M 549.996, 1334.394 549.351, 1324.415 548.706, 1314.435 548.061, 1304.456 547.416, 1294.477 546.771, 1284.498 546.140, 1274.752 547.294, 1264.767 " />
            <path fill="none" stroke-width="3.0" stroke-linecap="round" stroke-opacity="1.0" stroke="rgb(0, 0, 0)" stroke-linejoin="round" d=" M 546.140, 1274.752 539.598, 1282.315 533.675, 1289.162 527.133, 1296.725 520.591, 1304.288 514.048, 1311.850 507.506, 1319.413 500.964, 1326.976 494.421, 1334.539 487.879, 1342.102 481.337, 1349.665 475.720, 1356.159 " />
            <path fill="none" stroke-width="3.0" stroke-linecap="round" stroke-opacity="1.0" stroke="rgb(0, 0, 0)" stroke-linejoin="round" d=" M 577.869, 386.573 569.337, 391.788 560.804, 397.002 552.271, 402.217 550.765, 403.137 " />
            <path fill="none" stroke-width="3.0" stroke-linecap="round" stroke-opacity="1.0" stroke="rgb(0, 0, 0)" stroke-linejoin="round" d=" M 490.836, 507.486 493.950, 505.602 494.438, 505.307 " />
            <path fill="none" stroke-width="3.0" stroke-linecap="round" stroke-opacity="1.0" stroke="rgb(0, 0, 0)" stroke-linejoin="round" d=" M 547.294, 1264.767 550.303, 1274.304 553.313, 1283.840 556.323, 1293.376 559.332, 1302.913 562.342, 1312.449 565.351, 1321.985 566.123, 1324.431 575.889, 1326.582 585.655, 1328.733 595.421, 1330.883 605.187, 1333.034 614.953, 1335.185 624.719, 1337.335 634.485, 1339.486 644.251, 1341.637 654.017, 1343.787 663.783, 1345.938 666.748, 1346.591 " />
            <path fill="none" stroke-width="3.0" stroke-linecap="round" stroke-opacity="1.0" stroke="rgb(0, 0, 0)" stroke-linejoin="round" d=" M 662.448, 1411.600 652.458, 1412.058 642.469, 1412.516 632.479, 1412.975 622.490, 1413.433 612.500, 1413.891 602.511, 1414.349 592.521, 1414.807 582.532, 1415.266 572.542, 1415.724 563.059, 1416.159 559.192, 1406.937 555.326, 1397.714 552.086, 1389.988 " />
            <path fill="none" stroke-width="3.0" stroke-linecap="round" stroke-opacity="1.0" stroke="rgb(0, 0, 0)" stroke-linejoin="round" d=" M 566.492, 532.114 567.242, 542.086 567.992, 552.057 568.468, 558.381 569.218, 568.353 569.257, 568.872 570.007, 578.844 570.757, 588.816 571.508, 598.787 572.258, 608.759 572.362, 610.148 573.112, 620.119 573.143, 620.523 564.184, 620.606 554.348, 620.697 " />
            <path fill="none" stroke-width="3.0" stroke-linecap="round" stroke-opacity="1.0" stroke="rgb(0, 0, 0)" stroke-linejoin="round" d=" M 464.579, 628.965 465.150, 627.777 467.383, 623.130 468.212, 621.406 472.543, 612.393 476.875, 603.380 481.325, 594.120 " />
            <path fill="none" stroke-width="3.0" stroke-linecap="round" stroke-opacity="1.0" stroke="rgb(0, 0, 0)" stroke-linejoin="round" d=" M 481.325, 594.120 471.434, 595.591 464.784, 596.580 462.757, 596.882 459.938, 597.301 459.089, 597.427 449.198, 598.898 442.567, 599.884 " />
            <path fill="none" stroke-width="3.0" stroke-linecap="round" stroke-opacity="1.0" stroke="rgb(0, 0, 0)" stroke-linejoin="round" d=" M 481.325, 594.120 489.166, 600.326 497.008, 606.532 504.849, 612.737 512.691, 618.943 520.533, 625.148 528.374, 631.354 536.216, 637.560 538.643, 639.480 540.788, 636.915 547.203, 629.243 553.617, 621.571 554.348, 620.697 555.706, 610.789 557.065, 600.882 558.423, 590.975 559.753, 581.275 561.111, 571.367 562.469, 561.460 563.084, 556.976 564.442, 547.068 565.800, 537.161 566.492, 532.114 575.147, 527.104 583.802, 522.095 592.457, 517.086 601.112, 512.077 609.767, 507.068 616.313, 503.279 624.968, 498.270 633.623, 493.260 642.278, 488.251 650.941, 483.237 659.596, 478.228 668.251, 473.219 676.906, 468.210 685.560, 463.200 685.932, 462.985 " />
            <path fill="none" stroke-width="3.0" stroke-linecap="round" stroke-opacity="1.0" stroke="rgb(0, 0, 0)" stroke-linejoin="round" d=" M 505.221, 644.188 500.914, 635.163 500.402, 634.090 500.337, 633.955 496.030, 624.930 491.723, 615.906 487.415, 606.881 483.108, 597.856 481.325, 594.120 472.691, 589.075 466.287, 585.333 459.277, 581.236 458.811, 580.964 450.177, 575.919 441.971, 571.123 447.713, 562.936 453.455, 554.749 454.346, 553.478 455.984, 551.143 456.144, 548.354 456.719, 538.371 457.294, 528.387 457.868, 518.404 458.443, 508.420 458.783, 502.513 " />
            <path fill="none" stroke-width="3.0" stroke-linecap="round" stroke-opacity="1.0" stroke="rgb(0, 0, 0)" stroke-linejoin="round" d=" M 470.382, 633.535 468.728, 640.299 " />
            <path fill="none" stroke-width="3.0" stroke-linecap="round" stroke-opacity="1.0" stroke="rgb(0, 0, 0)" stroke-linejoin="round" d=" M 536.395, 669.526 526.759, 666.850 517.124, 664.174 511.507, 662.615 " />
            <path fill="none" stroke-width="3.0" stroke-linecap="round" stroke-opacity="1.0" stroke="rgb(0, 0, 0)" stroke-linejoin="round" d=" M 473.810, 638.797 473.320, 638.044 471.183, 634.764 470.382, 633.535 469.608, 630.849 " />
            <path fill="none" stroke-width="3.0" stroke-linecap="round" stroke-opacity="1.0" stroke="rgb(0, 0, 0)" stroke-linejoin="round" d=" M 501.333, 506.250 511.295, 507.125 518.238, 507.735 523.126, 508.164 528.233, 508.613 538.195, 509.488 548.157, 510.363 549.529, 510.483 549.529, 500.483 549.529, 492.988 549.529, 486.627 549.529, 483.990 549.529, 482.347 549.529, 472.347 549.529, 471.976 549.529, 461.976 549.529, 451.976 549.529, 441.976 549.529, 435.720 549.529, 428.576 550.015, 418.588 550.500, 408.600 550.765, 403.137 551.034, 397.605 551.519, 387.617 552.004, 377.628 552.490, 367.640 552.975, 357.652 553.460, 347.664 553.650, 343.749 543.689, 342.874 533.727, 341.999 523.765, 341.124 513.804, 340.249 503.842, 339.374 498.619, 338.915 489.930, 338.152 479.968, 337.277 470.007, 336.402 460.045, 335.527 450.084, 334.653 443.588, 334.082 443.102, 344.070 442.617, 354.058 442.132, 364.047 441.647, 374.035 441.161, 384.023 440.676, 394.011 440.191, 404.000 439.705, 413.988 439.466, 418.909 439.466, 428.909 439.466, 438.909 439.466, 448.909 439.466, 458.909 439.466, 468.909 439.466, 478.909 439.466, 488.909 439.466, 498.909 439.466, 500.817 449.428, 501.691 458.783, 502.513 461.008, 502.708 470.970, 503.583 472.307, 503.701 482.269, 504.576 489.486, 505.210 " />
            <path fill="none" stroke-width="3.0" stroke-linecap="round" stroke-opacity="1.0" stroke="rgb(0, 0, 0)" stroke-linejoin="round" d=" M 439.466, 418.909 449.428, 419.784 459.389, 420.659 469.351, 421.534 479.313, 422.409 487.662, 423.142 496.147, 423.888 " />
            <path fill="none" stroke-width="3.0" stroke-linecap="round" stroke-opacity="1.0" stroke="rgb(0, 0, 0)" stroke-linejoin="round" d=" M 495.062, 508.862 496.675, 518.044 497.641, 523.542 498.844, 530.396 500.117, 537.640 501.023, 542.798 501.333, 544.563 501.333, 542.727 501.333, 536.385 501.333, 528.117 501.333, 518.117 501.333, 515.702 501.333, 510.903 501.333, 506.250 501.333, 501.135 501.333, 491.135 501.333, 481.135 501.333, 471.135 501.333, 462.656 501.596, 457.247 501.717, 454.761 502.202, 444.773 502.687, 434.784 502.801, 432.448 503.187, 424.506 503.545, 417.127 504.030, 407.138 504.516, 397.150 505.001, 387.162 505.454, 377.828 503.724, 367.979 501.994, 358.130 500.264, 348.281 498.619, 338.915 496.889, 329.066 495.159, 319.217 493.429, 309.368 491.784, 300.002 491.298, 309.990 490.813, 319.979 490.328, 329.967 489.930, 338.152 " />
            <path fill="none" stroke-width="3.0" stroke-linecap="round" stroke-opacity="1.0" stroke="rgb(0, 0, 0)" stroke-linejoin="round" d=" M 294.124, 782.564 297.929, 776.536 " />
            <path fill="none" stroke-width="3.0" stroke-linecap="round" stroke-opacity="1.0" stroke="rgb(0, 0, 0)" stroke-linejoin="round" d=" M 419.363, 952.750 417.903, 962.643 416.442, 972.536 414.982, 982.429 413.521, 992.321 412.061, 1002.214 410.600, 1012.107 409.140, 1022.000 407.680, 1031.893 406.219, 1041.785 404.759, 1051.678 403.298, 1061.571 401.838, 1071.464 401.478, 1073.903 " />
            <path fill="none" stroke-width="3.0" stroke-linecap="round" stroke-opacity="1.0" stroke="rgb(0, 0, 0)" stroke-linejoin="round" d=" M 468.900, 630.583 470.382, 633.535 " />
            <path fill="none" stroke-width="3.0" stroke-linecap="round" stroke-opacity="1.0" stroke="rgb(0, 0, 0)" stroke-linejoin="round" d=" M 470.376, 631.136 471.183, 634.764 " />
            <path fill="none" stroke-width="3.0" stroke-linecap="round" stroke-opacity="1.0" stroke="rgb(0, 0, 0)" stroke-linejoin="round" d=" M 474.414, 639.109 474.306, 639.557 " />
            <path fill="none" stroke-width="3.0" stroke-linecap="round" stroke-opacity="1.0" stroke="rgb(0, 0, 0)" stroke-linejoin="round" d=" M 475.590, 633.089 473.821, 638.813 473.686, 639.249 " />
            <path fill="none" stroke-width="3.0" stroke-linecap="round" stroke-opacity="1.0" stroke="rgb(0, 0, 0)" stroke-linejoin="round" d=" M 488.523, 658.286 487.804, 648.312 487.085, 638.338 487.015, 637.368 " />
            <path fill="none" stroke-width="3.0" stroke-linecap="round" stroke-opacity="1.0" stroke="rgb(0, 0, 0)" stroke-linejoin="round" d=" M 494.760, 425.239 496.491, 435.088 498.221, 444.937 499.951, 454.786 500.062, 455.420 501.333, 462.656 " />
            <path fill="none" stroke-width="3.0" stroke-linecap="round" stroke-opacity="1.0" stroke="rgb(0, 0, 0)" stroke-linejoin="round" d=" M 520.401, 673.742 522.997, 679.183 " />
            <path fill="none" stroke-width="3.0" stroke-linecap="round" stroke-opacity="1.0" stroke="rgb(0, 0, 0)" stroke-linejoin="round" d=" M 506.228, 644.046 510.535, 653.071 514.545, 661.472 " />
            <path fill="none" stroke-width="3.0" stroke-linecap="round" stroke-opacity="1.0" stroke="rgb(0, 0, 0)" stroke-linejoin="round" d=" M 472.585, 646.712 463.238, 650.267 453.891, 653.822 451.135, 654.870 461.103, 655.662 471.072, 656.455 478.815, 657.070 " />
            <path fill="none" stroke-width="3.0" stroke-linecap="round" stroke-opacity="1.0" stroke="rgb(0, 0, 0)" stroke-linejoin="round" d=" M 503.187, 424.506 513.148, 425.381 523.110, 426.256 533.072, 427.131 543.033, 428.005 549.529, 428.576 " />
            <path fill="none" stroke-width="3.0" stroke-linecap="round" stroke-opacity="1.0" stroke="rgb(0, 0, 0)" stroke-linejoin="round" d=" M 539.013, 652.268 544.126, 643.675 547.536, 637.945 550.389, 633.151 550.407, 633.016 " />
            <path fill="none" stroke-width="3.0" stroke-linecap="round" stroke-opacity="1.0" stroke="rgb(0, 0, 0)" stroke-linejoin="round" d=" M 596.797, 610.069 592.800, 619.236 588.803, 628.402 584.806, 637.569 582.326, 643.257 " />
            <path fill="none" stroke-width="3.0" stroke-linecap="round" stroke-opacity="1.0" stroke="rgb(0, 0, 0)" stroke-linejoin="round" d=" M 565.061, 1161.504 574.418, 1165.034 583.774, 1168.564 593.130, 1172.094 602.486, 1175.624 609.388, 1178.228 " />
            <path fill="none" stroke-width="3.0" stroke-linecap="round" stroke-opacity="1.0" stroke="rgb(0, 0, 0)" stroke-linejoin="round" d=" M 549.529, 471.976 558.085, 466.800 566.641, 461.623 575.197, 456.447 583.753, 451.270 592.309, 446.094 600.865, 440.918 604.007, 439.017 612.563, 433.840 621.119, 428.664 629.675, 423.487 638.231, 418.311 646.787, 413.134 649.086, 411.743 " />
            <path fill="none" stroke-width="3.0" stroke-linecap="round" stroke-opacity="1.0" stroke="rgb(0, 0, 0)" stroke-linejoin="round" d=" M 629.797, 1010.261 631.578, 1020.101 633.359, 1029.941 635.139, 1039.781 636.920, 1049.622 638.701, 1059.462 640.481, 1069.302 642.262, 1079.142 644.043, 1088.982 645.823, 1098.823 647.604, 1108.663 649.384, 1118.503 651.165, 1128.343 652.946, 1138.183 653.354, 1140.442 " />
            <path fill="none" stroke-width="3.0" stroke-linecap="round" stroke-opacity="1.0" stroke="rgb(0, 0, 0)" stroke-linejoin="round" d=" M 619.086, 1148.617 629.079, 1149.005 639.071, 1149.394 649.064, 1149.782 659.056, 1150.171 669.049, 1150.559 679.041, 1150.948 681.463, 1151.042 " />
            <path fill="none" stroke-width="3.0" stroke-linecap="round" stroke-opacity="1.0" stroke="rgb(0, 0, 0)" stroke-linejoin="round" d=" M 666.132, 1110.675 670.076, 1101.486 673.364, 1093.827 677.308, 1084.637 681.252, 1075.448 685.197, 1066.259 689.141, 1057.070 693.086, 1047.881 697.030, 1038.691 700.974, 1029.502 703.162, 1024.405 " />
        </g>
    </g>
</svg>
