<?xml version='1.0' encoding='ascii'?>
<svg xmlns="http://www.w3.org/2000/svg" height="2138" version="1.1" width="1001">
    <g id="View Layer_LineSet" inkscape:groupmode="lineset" inkscape:label="View Layer_LineSet" xmlns:inkscape="http://www.inkscape.org/namespaces/inkscape">
        <g id="strokes" inkscape:groupmode="layer" inkscape:label="strokes" xmlns:inkscape="http://www.inkscape.org/namespaces/inkscape">
            <path d=" M 429.449, 531.091 431.303, 540.918 433.156, 550.744 433.911, 554.744 433.911, 554.744 " fill="none" stroke="rgb(0, 0, 0)" stroke-linecap="round" stroke-linejoin="round" stroke-opacity="1.0" stroke-width="3.0" />
            <path d=" M 440.364, 588.955 441.231, 578.993 442.097, 569.030 442.632, 562.882 " fill="none" stroke="rgb(0, 0, 0)" stroke-linecap="round" stroke-linejoin="round" stroke-opacity="1.0" stroke-width="3.0" />
            <path d=" M 447.528, 506.595 441.589, 514.641 435.651, 522.687 429.713, 530.733 429.449, 531.091 " fill="none" stroke="rgb(0, 0, 0)" stroke-linecap="round" stroke-linejoin="round" stroke-opacity="1.0" stroke-width="3.0" />
            <path d=" M 416.662, 505.498 412.985, 514.797 409.308, 524.097 405.815, 532.931 415.230, 536.299 424.388, 539.576 429.449, 531.091 419.479, 531.867 409.509, 532.643 405.815, 532.931 " fill="none" stroke="rgb(0, 0, 0)" stroke-linecap="round" stroke-linejoin="round" stroke-opacity="1.0" stroke-width="3.0" />
            <path d=" M 424.388, 539.576 425.072, 549.552 425.757, 559.529 426.337, 567.978 426.337, 567.978 " fill="none" stroke="rgb(0, 0, 0)" stroke-linecap="round" stroke-linejoin="round" stroke-opacity="1.0" stroke-width="3.0" />
            <path d=" M 427.434, 583.965 428.118, 593.942 428.428, 598.452 438.327, 597.035 448.226, 595.617 458.125, 594.200 468.024, 592.782 477.923, 591.365 487.822, 589.947 492.107, 589.333 493.304, 599.262 494.501, 609.190 495.698, 619.118 496.916, 629.215 491.624, 637.700 486.332, 646.185 481.040, 654.670 475.748, 663.155 470.456, 671.640 466.320, 678.272 465.951, 678.864 464.448, 681.275 459.156, 689.760 453.864, 698.245 448.572, 706.730 443.280, 715.215 437.988, 723.700 432.696, 732.185 427.404, 740.670 422.112, 749.155 416.433, 758.260 411.756, 765.761 406.464, 774.246 401.172, 782.731 395.880, 791.216 391.109, 798.865 391.228, 808.864 391.346, 818.863 391.464, 828.863 391.583, 838.862 391.701, 848.861 391.819, 858.860 391.938, 868.860 392.056, 878.859 392.174, 888.858 392.293, 898.858 392.411, 908.857 392.530, 918.856 392.648, 928.855 392.766, 938.855 392.885, 948.854 393.003, 958.853 393.121, 968.853 393.240, 978.852 393.358, 988.851 393.476, 998.851 393.595, 1008.850 393.657, 1014.099 393.157, 1024.087 392.657, 1034.074 392.158, 1044.062 391.658, 1054.049 391.158, 1064.037 390.658, 1074.024 390.159, 1084.012 389.659, 1093.999 389.159, 1103.987 388.660, 1113.974 388.160, 1123.962 387.660, 1133.949 387.160, 1143.937 386.661, 1153.924 386.161, 1163.912 385.661, 1173.899 385.162, 1183.887 384.662, 1193.874 384.162, 1203.862 383.647, 1214.156 " fill="none" stroke="rgb(0, 0, 0)" stroke-linecap="round" stroke-linejoin="round" stroke-opacity="1.0" stroke-width="3.0" />
            <path d=" M 401.307, 1207.871 401.307, 1207.871 401.307, 1207.871 401.356, 1209.498 401.357, 1209.508 401.657, 1219.504 401.957, 1229.499 401.999, 1230.880 402.299, 1240.876 402.599, 1250.871 402.899, 1260.867 403.200, 1270.862 403.500, 1280.858 403.800, 1290.853 404.100, 1300.849 404.401, 1310.844 404.701, 1320.840 405.001, 1330.835 405.301, 1340.831 405.395, 1343.958 405.395, 1343.958 405.395, 1343.958 405.395, 1343.958 407.083, 1353.814 408.770, 1363.671 410.458, 1373.528 412.145, 1383.384 413.833, 1393.241 415.520, 1403.097 417.208, 1412.954 418.895, 1422.810 420.583, 1432.667 422.270, 1442.524 423.957, 1452.380 425.645, 1462.237 427.332, 1472.093 429.020, 1481.950 429.329, 1483.755 429.329, 1483.755 429.329, 1483.755 430.509, 1493.685 431.689, 1503.615 432.869, 1513.545 434.050, 1523.476 435.230, 1533.406 436.410, 1543.336 437.590, 1553.266 438.770, 1563.196 439.951, 1573.126 441.162, 1583.320 441.162, 1583.320 441.162, 1583.320 441.917, 1593.292 442.673, 1603.263 443.428, 1613.234 444.183, 1623.206 444.938, 1633.177 445.694, 1643.149 446.449, 1653.120 447.204, 1663.092 447.960, 1673.063 448.715, 1683.034 449.470, 1693.006 449.678, 1695.754 449.678, 1695.754 449.678, 1695.754 450.224, 1705.739 450.769, 1715.724 451.315, 1725.709 451.860, 1735.694 452.406, 1745.679 452.951, 1755.665 453.497, 1765.650 454.042, 1775.635 454.588, 1785.620 455.133, 1795.605 455.679, 1805.590 456.224, 1815.575 456.770, 1825.560 457.316, 1835.545 457.861, 1845.531 458.407, 1855.516 458.952, 1865.501 459.498, 1875.486 460.043, 1885.471 460.486, 1893.572 460.486, 1893.572 451.481, 1897.921 442.477, 1902.271 433.472, 1906.621 424.476, 1910.966 415.472, 1915.316 406.467, 1919.666 397.463, 1924.015 388.458, 1928.365 379.454, 1932.715 378.575, 1933.139 378.575, 1933.139 378.575, 1933.139 378.575, 1933.139 368.697, 1934.700 358.820, 1936.261 348.942, 1937.822 339.065, 1939.382 329.188, 1940.943 319.310, 1942.504 314.062, 1943.333 314.062, 1943.333 313.147, 1953.291 312.232, 1963.249 311.317, 1973.207 310.403, 1983.165 309.488, 1993.123 309.145, 1996.858 309.145, 1996.858 309.145, 1996.858 319.144, 1996.964 329.144, 1997.071 339.143, 1997.178 341.217, 1997.200 341.303, 1997.201 341.304, 1997.201 341.305, 1997.201 351.305, 1997.200 361.305, 1997.198 371.305, 1997.197 381.305, 1997.196 387.485, 1997.195 397.485, 1997.191 407.485, 1997.188 417.485, 1997.184 427.485, 1997.181 437.485, 1997.177 447.485, 1997.174 457.485, 1997.170 467.485, 1997.167 477.485, 1997.163 487.485, 1997.160 497.485, 1997.156 507.485, 1997.153 517.485, 1997.149 527.485, 1997.146 536.784, 1997.143 546.784, 1997.116 556.784, 1997.089 566.784, 1997.063 576.784, 1997.036 586.784, 1997.009 596.784, 1996.983 603.290, 1996.965 602.130, 1987.033 600.971, 1977.100 599.811, 1967.168 598.651, 1957.235 597.491, 1947.303 597.049, 1943.514 597.760, 1933.539 598.472, 1923.565 599.184, 1913.590 599.895, 1903.616 600.607, 1893.641 601.319, 1883.666 602.030, 1873.692 602.742, 1863.717 603.454, 1853.742 604.166, 1843.768 604.877, 1833.793 605.589, 1823.818 606.301, 1813.844 607.012, 1803.869 607.724, 1793.894 608.436, 1783.920 609.147, 1773.945 609.859, 1763.971 610.571, 1753.996 611.282, 1744.021 611.994, 1734.047 612.706, 1724.072 613.417, 1714.097 614.129, 1704.123 614.686, 1696.317 " fill="none" stroke="rgb(0, 0, 0)" stroke-linecap="round" stroke-linejoin="round" stroke-opacity="1.0" stroke-width="3.0" />
            <path d=" M 392.287, 1939.554 382.648, 1942.218 373.009, 1944.883 363.371, 1947.547 353.732, 1950.211 350.844, 1951.009 " fill="none" stroke="rgb(0, 0, 0)" stroke-linecap="round" stroke-linejoin="round" stroke-opacity="1.0" stroke-width="3.0" />
            <path d=" M 314.062, 1943.333 323.851, 1945.376 333.640, 1947.419 343.429, 1949.462 350.844, 1951.009 348.821, 1960.802 346.798, 1970.596 344.776, 1980.389 342.753, 1990.182 341.303, 1997.201 " fill="none" stroke="rgb(0, 0, 0)" stroke-linecap="round" stroke-linejoin="round" stroke-opacity="1.0" stroke-width="3.0" />
            <path d=" M 447.528, 506.595 455.712, 506.595 455.712, 506.595 " fill="none" stroke="rgb(0, 0, 0)" stroke-linecap="round" stroke-linejoin="round" stroke-opacity="1.0" stroke-width="3.0" />
            <path d=" M 511.627, 506.595 504.958, 499.144 504.555, 498.694 504.555, 498.694 " fill="none" stroke="rgb(0, 0, 0)" stroke-linecap="round" stroke-linejoin="round" stroke-opacity="1.0" stroke-width="3.0" />
            <path d=" M 511.627, 506.595 511.990, 499.727 511.990, 499.727 " fill="none" stroke="rgb(0, 0, 0)" stroke-linecap="round" stroke-linejoin="round" stroke-opacity="1.0" stroke-width="3.0" />
            <path d=" M 643.360, 762.946 641.361, 753.148 639.363, 743.350 637.365, 733.551 635.367, 723.753 633.368, 713.955 631.370, 704.156 629.372, 694.358 627.374, 684.560 625.375, 674.761 623.377, 664.963 621.379, 655.165 619.381, 645.367 617.383, 635.568 615.384, 625.770 613.386, 615.972 611.388, 606.173 610.811, 603.346 608.361, 593.651 605.911, 583.955 603.461, 574.260 601.010, 564.565 598.560, 554.870 596.259, 545.764 601.621, 537.323 606.983, 528.882 612.345, 520.442 617.355, 512.556 617.355, 512.556 " fill="none" stroke="rgb(0, 0, 0)" stroke-linecap="round" stroke-linejoin="round" stroke-opacity="1.0" stroke-width="3.0" />
            <path d=" M 401.999, 1230.880 402.299, 1240.876 402.599, 1250.871 402.899, 1260.867 403.200, 1270.862 403.500, 1280.858 403.800, 1290.853 404.100, 1300.849 404.401, 1310.844 404.701, 1320.840 405.001, 1330.835 405.301, 1340.831 405.395, 1343.958 407.083, 1353.814 408.770, 1363.671 410.458, 1373.528 412.145, 1383.384 413.833, 1393.241 415.520, 1403.097 417.208, 1412.954 418.895, 1422.810 420.582, 1432.667 422.270, 1442.524 423.957, 1452.380 425.645, 1462.237 427.332, 1472.093 429.020, 1481.950 429.329, 1483.755 430.509, 1493.685 431.689, 1503.615 432.869, 1513.545 434.050, 1523.476 435.230, 1533.406 436.410, 1543.336 437.590, 1553.266 438.770, 1563.196 439.951, 1573.126 441.162, 1583.320 441.917, 1593.292 442.673, 1603.263 443.428, 1613.234 444.183, 1623.206 444.938, 1633.177 445.694, 1643.149 446.449, 1653.120 447.204, 1663.092 447.959, 1673.063 448.715, 1683.034 449.470, 1693.006 449.678, 1695.754 450.224, 1705.739 450.769, 1715.724 451.315, 1725.709 451.860, 1735.694 452.406, 1745.679 452.951, 1755.665 453.497, 1765.650 454.042, 1775.635 454.588, 1785.620 455.133, 1795.605 455.679, 1805.590 456.224, 1815.575 456.770, 1825.560 457.316, 1835.545 457.861, 1845.531 458.407, 1855.516 458.952, 1865.501 459.498, 1875.486 460.043, 1885.471 460.486, 1893.572 " fill="none" stroke="rgb(0, 0, 0)" stroke-linecap="round" stroke-linejoin="round" stroke-opacity="1.0" stroke-width="3.0" />
            <path d=" M 447.528, 506.595 441.048, 499.028 " fill="none" stroke="rgb(0, 0, 0)" stroke-linecap="round" stroke-linejoin="round" stroke-opacity="1.0" stroke-width="3.0" />
            <path d=" M 433.088, 577.944 433.088, 577.944 431.244, 568.115 430.223, 562.672 " fill="none" stroke="rgb(0, 0, 0)" stroke-linecap="round" stroke-linejoin="round" stroke-opacity="1.0" stroke-width="3.0" />
            <path d=" M 455.712, 506.595 451.661, 515.737 447.609, 524.880 445.529, 529.572 445.529, 529.572 443.686, 533.732 443.686, 533.732 443.686, 533.732 439.468, 542.799 435.250, 551.865 433.911, 554.744 433.911, 554.744 430.223, 562.672 430.223, 562.672 430.223, 562.672 426.337, 567.978 423.550, 571.782 426.337, 567.978 " fill="none" stroke="rgb(0, 0, 0)" stroke-linecap="round" stroke-linejoin="round" stroke-opacity="1.0" stroke-width="3.0" />
            <path d=" M 423.550, 571.782 423.550, 581.782 423.550, 588.101 " fill="none" stroke="rgb(0, 0, 0)" stroke-linecap="round" stroke-linejoin="round" stroke-opacity="1.0" stroke-width="3.0" />
            <path d=" M 423.550, 588.101 427.434, 583.965 433.088, 577.944 437.104, 571.672 437.104, 571.672 441.937, 564.125 442.632, 562.882 442.632, 562.882 447.513, 554.154 452.394, 545.426 457.275, 536.698 462.156, 527.970 467.037, 519.243 471.918, 510.515 474.110, 506.595 " fill="none" stroke="rgb(0, 0, 0)" stroke-linecap="round" stroke-linejoin="round" stroke-opacity="1.0" stroke-width="3.0" />
            <path d=" M 585.296, 541.873 594.720, 545.218 596.259, 545.764 " fill="none" stroke="rgb(0, 0, 0)" stroke-linecap="round" stroke-linejoin="round" stroke-opacity="1.0" stroke-width="3.0" />
            <path d=" M 636.077, 1030.705 634.898, 1020.775 633.719, 1010.844 632.539, 1000.914 631.360, 990.984 630.181, 981.054 629.089, 971.854 627.910, 961.923 626.731, 951.993 625.817, 944.300 624.638, 934.370 623.459, 924.439 623.427, 924.175 623.103, 921.443 622.813, 919.001 623.224, 915.915 624.545, 906.003 625.865, 896.091 627.186, 886.178 628.507, 876.266 629.827, 866.353 630.068, 864.545 " fill="none" stroke="rgb(0, 0, 0)" stroke-linecap="round" stroke-linejoin="round" stroke-opacity="1.0" stroke-width="3.0" />
            <path d=" M 613.656, 988.761 618.370, 997.580 623.084, 1006.399 627.799, 1015.218 632.513, 1024.037 636.077, 1030.705 " fill="none" stroke="rgb(0, 0, 0)" stroke-linecap="round" stroke-linejoin="round" stroke-opacity="1.0" stroke-width="3.0" />
            <path d=" M 506.653, 572.566 515.969, 568.930 525.284, 565.295 534.600, 561.659 543.916, 558.023 553.231, 554.387 562.547, 550.752 571.863, 547.116 581.178, 543.480 585.296, 541.873 588.050, 551.487 590.804, 561.100 593.557, 570.714 596.311, 580.327 599.064, 589.940 601.818, 599.554 602.101, 600.542 " fill="none" stroke="rgb(0, 0, 0)" stroke-linecap="round" stroke-linejoin="round" stroke-opacity="1.0" stroke-width="3.0" />
            <path d=" M 511.627, 506.595 510.875, 516.567 510.124, 526.538 509.372, 536.510 508.620, 546.482 507.868, 556.454 507.116, 566.425 506.653, 572.566 " fill="none" stroke="rgb(0, 0, 0)" stroke-linecap="round" stroke-linejoin="round" stroke-opacity="1.0" stroke-width="3.0" />
            <path d=" M 428.428, 598.452 436.253, 592.226 440.364, 588.955 450.072, 586.555 459.780, 584.155 469.487, 581.755 479.195, 579.355 488.903, 576.954 498.611, 574.554 506.653, 572.566 " fill="none" stroke="rgb(0, 0, 0)" stroke-linecap="round" stroke-linejoin="round" stroke-opacity="1.0" stroke-width="3.0" />
            <path d=" M 492.107, 589.333 498.660, 581.780 505.213, 574.226 506.653, 572.566 507.742, 582.506 508.831, 592.447 509.921, 602.387 511.010, 612.328 512.099, 622.268 512.277, 623.890 " fill="none" stroke="rgb(0, 0, 0)" stroke-linecap="round" stroke-linejoin="round" stroke-opacity="1.0" stroke-width="3.0" />
            <path d=" M 630.068, 864.545 624.595, 856.176 619.121, 847.807 613.648, 839.438 608.175, 831.069 602.701, 822.700 597.228, 814.331 591.754, 805.961 586.281, 797.592 580.808, 789.223 575.334, 780.854 569.861, 772.485 564.388, 764.116 559.748, 757.021 554.274, 748.652 549.313, 741.066 549.081, 740.710 543.607, 732.341 538.134, 723.972 532.660, 715.603 527.187, 707.234 524.136, 702.568 522.927, 692.642 521.718, 682.715 520.510, 672.788 519.301, 662.862 519.223, 662.220 518.074, 652.788 516.866, 642.862 515.657, 632.935 515.557, 632.116 512.277, 623.890 521.955, 621.375 531.633, 618.859 541.312, 616.343 550.990, 613.827 560.669, 611.311 570.347, 608.796 580.025, 606.280 589.704, 603.764 599.382, 601.248 602.101, 600.542 594.816, 607.392 587.532, 614.243 583.519, 618.017 583.528, 618.090 584.358, 624.926 585.563, 634.853 586.769, 644.780 587.974, 654.707 589.180, 664.634 589.525, 667.481 590.746, 669.646 595.658, 678.356 600.570, 687.067 604.584, 694.184 609.496, 702.895 614.408, 711.605 618.289, 718.489 623.201, 727.200 628.113, 735.910 633.025, 744.621 637.937, 753.331 642.474, 761.375 643.171, 762.612 643.360, 762.946 648.272, 771.657 653.184, 780.367 658.096, 789.078 663.008, 797.788 667.920, 806.499 672.832, 815.209 674.288, 817.792 672.160, 827.563 670.031, 837.334 667.903, 847.105 665.775, 856.876 663.646, 866.647 661.518, 876.417 659.389, 886.188 658.390, 890.776 660.356, 900.581 662.322, 910.386 664.287, 920.191 666.253, 929.996 668.219, 939.801 668.357, 940.489 665.499, 948.477 665.243, 949.191 663.881, 952.998 660.512, 962.414 657.143, 971.829 653.774, 981.245 651.362, 987.987 650.502, 990.391 647.133, 999.806 643.764, 1009.222 640.395, 1018.637 637.026, 1028.053 636.077, 1030.705 " fill="none" stroke="rgb(0, 0, 0)" stroke-linecap="round" stroke-linejoin="round" stroke-opacity="1.0" stroke-width="3.0" />
            <path d=" M 141.280, 654.680 148.439, 661.662 155.598, 668.644 162.757, 675.625 169.916, 682.607 177.075, 689.589 184.235, 696.571 191.394, 703.553 198.553, 710.535 205.712, 717.517 212.871, 724.499 220.030, 731.481 221.828, 733.234 230.411, 738.365 238.995, 743.495 247.578, 748.626 256.162, 753.757 264.745, 758.887 273.329, 764.018 281.912, 769.149 289.699, 773.804 299.681, 774.419 309.662, 775.034 319.643, 775.648 329.624, 776.263 339.605, 776.878 347.217, 777.347 357.059, 775.580 366.902, 773.813 376.745, 772.046 386.587, 770.279 396.430, 768.512 406.273, 766.745 411.756, 765.761 " fill="none" stroke="rgb(0, 0, 0)" stroke-linecap="round" stroke-linejoin="round" stroke-opacity="1.0" stroke-width="3.0" />
            <path d=" M 668.357, 940.489 659.313, 936.222 650.269, 931.955 641.225, 927.688 632.181, 923.421 625.850, 920.434 623.428, 919.291 622.813, 919.001 " fill="none" stroke="rgb(0, 0, 0)" stroke-linecap="round" stroke-linejoin="round" stroke-opacity="1.0" stroke-width="3.0" />
            <path d=" M 609.272, 904.919 610.469, 906.548 616.392, 914.605 617.856, 916.596 " fill="none" stroke="rgb(0, 0, 0)" stroke-linecap="round" stroke-linejoin="round" stroke-opacity="1.0" stroke-width="3.0" />
            <path d=" M 609.272, 904.919 610.433, 905.618 619.000, 910.776 620.903, 911.922 " fill="none" stroke="rgb(0, 0, 0)" stroke-linecap="round" stroke-linejoin="round" stroke-opacity="1.0" stroke-width="3.0" />
            <path d=" M 277.870, 719.126 279.984, 728.900 282.099, 738.674 284.214, 748.448 286.328, 758.221 288.443, 767.995 289.699, 773.804 299.625, 772.586 309.551, 771.369 319.476, 770.152 329.402, 768.934 339.328, 767.717 349.253, 766.500 359.179, 765.282 369.105, 764.065 379.030, 762.848 388.956, 761.630 398.881, 760.413 408.807, 759.196 416.433, 758.260 " fill="none" stroke="rgb(0, 0, 0)" stroke-linecap="round" stroke-linejoin="round" stroke-opacity="1.0" stroke-width="3.0" />
            <path d=" M 405.395, 1343.958 405.395, 1343.958 405.395, 1343.958 " fill="none" stroke="rgb(0, 0, 0)" stroke-linecap="round" stroke-linejoin="round" stroke-opacity="1.0" stroke-width="3.0" />
            <path d=" M 474.110, 506.595 475.207, 504.632 479.114, 495.427 479.221, 495.174 479.221, 495.174 " fill="none" stroke="rgb(0, 0, 0)" stroke-linecap="round" stroke-linejoin="round" stroke-opacity="1.0" stroke-width="3.0" />
            <path d=" M 456.231, 505.424 466.223, 505.007 475.207, 504.632 475.207, 504.632 475.207, 504.632 467.860, 511.415 460.512, 518.198 453.164, 524.982 445.816, 531.765 443.686, 533.732 443.111, 543.715 442.537, 553.698 441.963, 563.682 441.937, 564.125 441.937, 564.125 " fill="none" stroke="rgb(0, 0, 0)" stroke-linecap="round" stroke-linejoin="round" stroke-opacity="1.0" stroke-width="3.0" />
            <path d=" M 476.622, 741.650 482.927, 749.411 483.311, 749.883 485.461, 752.529 487.983, 755.633 494.288, 763.395 500.594, 771.156 505.596, 777.312 511.901, 785.073 518.207, 792.834 524.513, 800.596 530.819, 808.357 537.124, 816.118 543.430, 823.879 547.429, 828.801 553.735, 836.563 560.040, 844.324 566.346, 852.085 572.652, 859.847 578.958, 867.608 585.263, 875.369 591.569, 883.130 594.406, 886.623 600.712, 894.384 607.018, 902.145 609.272, 904.919 610.327, 902.871 612.611, 898.437 612.825, 898.021 617.404, 889.131 620.599, 882.929 625.178, 874.039 629.757, 865.149 630.068, 864.545 632.018, 862.484 638.889, 855.219 645.761, 847.953 652.633, 840.688 659.504, 833.423 666.376, 826.158 673.247, 818.893 674.288, 817.792 669.755, 826.706 665.221, 835.619 660.688, 844.532 656.155, 853.446 651.621, 862.359 647.088, 871.272 642.555, 880.186 638.021, 889.099 633.488, 898.013 628.954, 906.926 624.421, 915.839 623.842, 916.978 623.751, 917.157 622.813, 919.001 623.562, 918.407 624.322, 917.804 632.156, 911.589 639.990, 905.374 647.824, 899.159 655.658, 892.944 658.390, 890.776 " fill="none" stroke="rgb(0, 0, 0)" stroke-linecap="round" stroke-linejoin="round" stroke-opacity="1.0" stroke-width="3.0" />
            <path d=" M 609.272, 904.919 610.393, 904.596 615.750, 903.054 625.359, 900.287 626.345, 900.003 " fill="none" stroke="rgb(0, 0, 0)" stroke-linecap="round" stroke-linejoin="round" stroke-opacity="1.0" stroke-width="3.0" />
            <path d=" M 476.622, 741.650 484.345, 735.297 492.068, 728.945 499.791, 722.592 507.514, 716.240 515.237, 709.888 522.960, 703.535 524.136, 702.568 532.947, 697.840 541.759, 693.112 550.571, 688.384 559.382, 683.655 568.194, 678.927 577.005, 674.199 585.817, 669.471 589.525, 667.481 " fill="none" stroke="rgb(0, 0, 0)" stroke-linecap="round" stroke-linejoin="round" stroke-opacity="1.0" stroke-width="3.0" />
            <path d=" M 515.557, 632.116 512.208, 641.538 508.858, 650.961 505.509, 660.383 502.768, 668.096 501.185, 672.548 497.836, 681.970 494.486, 691.393 491.137, 700.815 487.788, 710.238 484.438, 719.660 481.089, 729.082 477.740, 738.505 476.622, 741.650 " fill="none" stroke="rgb(0, 0, 0)" stroke-linecap="round" stroke-linejoin="round" stroke-opacity="1.0" stroke-width="3.0" />
            <path d=" M 644.813, 1167.417 638.091, 1165.668 " fill="none" stroke="rgb(0, 0, 0)" stroke-linecap="round" stroke-linejoin="round" stroke-opacity="1.0" stroke-width="3.0" />
            <path d=" M 636.654, 1162.138 638.091, 1165.668 635.290, 1175.267 632.489, 1184.867 629.688, 1194.467 626.887, 1204.066 624.086, 1213.666 621.285, 1223.266 618.484, 1232.865 615.683, 1242.465 612.882, 1252.065 612.175, 1254.488 " fill="none" stroke="rgb(0, 0, 0)" stroke-linecap="round" stroke-linejoin="round" stroke-opacity="1.0" stroke-width="3.0" />
            <path d=" M 614.686, 1696.317 613.686, 1686.367 612.685, 1676.418 611.685, 1666.468 610.685, 1656.518 609.684, 1646.568 608.684, 1636.618 607.684, 1626.668 606.683, 1616.719 605.683, 1606.769 604.683, 1596.819 603.682, 1586.869 602.682, 1576.919 601.682, 1566.969 600.681, 1557.019 599.681, 1547.070 598.681, 1537.120 598.310, 1533.432 598.996, 1523.456 599.683, 1513.480 600.369, 1503.503 601.056, 1493.527 601.742, 1483.550 602.428, 1473.574 603.115, 1463.598 603.801, 1453.621 604.488, 1443.645 605.174, 1433.668 605.861, 1423.692 606.547, 1413.716 607.233, 1403.739 607.920, 1393.763 608.606, 1383.786 609.293, 1373.810 609.979, 1363.833 610.666, 1353.857 611.012, 1348.822 611.135, 1338.823 611.258, 1328.824 611.382, 1318.825 611.505, 1308.825 611.628, 1298.826 611.751, 1288.827 611.875, 1278.828 611.998, 1268.828 612.117, 1259.139 612.126, 1258.427 612.175, 1254.488 612.175, 1254.488 612.175, 1254.488 620.676, 1258.059 " fill="none" stroke="rgb(0, 0, 0)" stroke-linecap="round" stroke-linejoin="round" stroke-opacity="1.0" stroke-width="3.0" />
            <path d=" M 612.127, 1258.427 612.128, 1258.427 620.676, 1258.059 623.249, 1248.396 625.822, 1238.733 628.395, 1229.070 630.969, 1219.406 633.542, 1209.743 636.115, 1200.080 638.689, 1190.417 641.262, 1180.753 643.835, 1171.090 644.813, 1167.417 642.150, 1160.868 " fill="none" stroke="rgb(0, 0, 0)" stroke-linecap="round" stroke-linejoin="round" stroke-opacity="1.0" stroke-width="3.0" />
            <path d=" M 617.708, 1031.531 627.698, 1031.082 636.077, 1030.705 646.034, 1031.624 655.992, 1032.543 664.980, 1033.373 665.339, 1033.406 672.490, 1034.738 " fill="none" stroke="rgb(0, 0, 0)" stroke-linecap="round" stroke-linejoin="round" stroke-opacity="1.0" stroke-width="3.0" />
            <path d=" M 665.339, 1033.406 662.078, 1023.953 658.817, 1014.500 655.557, 1005.046 652.296, 995.593 650.502, 990.391 " fill="none" stroke="rgb(0, 0, 0)" stroke-linecap="round" stroke-linejoin="round" stroke-opacity="1.0" stroke-width="3.0" />
            <path d=" M 613.507, 984.907 613.656, 988.761 614.330, 998.738 615.003, 1008.715 615.677, 1018.693 616.073, 1024.552 " fill="none" stroke="rgb(0, 0, 0)" stroke-linecap="round" stroke-linejoin="round" stroke-opacity="1.0" stroke-width="3.0" />
            <path d=" M 538.445, 377.760 537.120, 387.672 536.269, 394.044 534.944, 403.956 533.619, 413.868 532.294, 423.779 530.969, 433.691 529.644, 443.603 528.319, 453.515 526.994, 463.427 525.669, 473.339 524.344, 483.250 523.019, 493.162 521.956, 501.111 " fill="none" stroke="rgb(0, 0, 0)" stroke-linecap="round" stroke-linejoin="round" stroke-opacity="1.0" stroke-width="3.0" />
            <path d=" M 427.498, 502.112 429.320, 501.543 439.098, 499.446 441.048, 499.028 441.048, 499.028 449.078, 497.306 449.078, 497.306 458.856, 495.210 460.362, 494.887 460.362, 494.887 466.965, 493.471 466.965, 493.471 476.869, 494.847 479.221, 495.174 479.221, 495.174 489.126, 496.550 499.031, 497.926 504.555, 498.694 504.555, 498.694 511.990, 499.727 511.990, 499.727 521.956, 501.111 521.956, 501.111 531.773, 502.323 531.773, 502.323 541.698, 503.548 551.623, 504.773 561.547, 505.997 571.472, 507.222 581.397, 508.447 591.322, 509.672 600.550, 510.811 600.550, 510.811 610.475, 512.035 610.969, 512.096 610.969, 512.096 617.355, 512.556 627.329, 513.274 636.037, 513.901 626.062, 513.183 617.355, 512.556 " fill="none" stroke="rgb(0, 0, 0)" stroke-linecap="round" stroke-linejoin="round" stroke-opacity="1.0" stroke-width="3.0" />
            <path d=" M 610.969, 512.096 612.449, 502.206 613.929, 492.317 615.409, 482.427 616.889, 472.537 618.369, 462.647 619.849, 452.757 621.329, 442.867 622.506, 434.998 623.986, 425.108 625.466, 415.218 626.946, 405.328 628.426, 395.439 629.564, 387.839 " fill="none" stroke="rgb(0, 0, 0)" stroke-linecap="round" stroke-linejoin="round" stroke-opacity="1.0" stroke-width="3.0" />
            <path d=" M 653.868, 386.589 643.881, 387.102 633.894, 387.616 629.564, 387.839 619.624, 386.740 609.685, 385.640 599.745, 384.541 589.806, 383.441 579.867, 382.342 569.927, 381.243 559.988, 380.143 550.049, 379.044 540.109, 377.945 538.445, 377.760 528.510, 376.623 518.575, 375.485 508.640, 374.348 498.705, 373.210 488.770, 372.073 478.835, 370.935 468.900, 369.798 462.721, 369.091 452.853, 367.473 442.984, 365.856 436.565, 364.804 " fill="none" stroke="rgb(0, 0, 0)" stroke-linecap="round" stroke-linejoin="round" stroke-opacity="1.0" stroke-width="3.0" />
            <path d=" M 617.731, 1031.628 627.724, 1032.001 637.717, 1032.374 647.710, 1032.748 657.703, 1033.121 665.117, 1033.398 665.339, 1033.406 665.158, 1023.408 664.977, 1013.410 664.795, 1003.411 664.614, 993.413 664.433, 983.415 664.251, 973.416 664.070, 963.418 663.881, 952.998 " fill="none" stroke="rgb(0, 0, 0)" stroke-linecap="round" stroke-linejoin="round" stroke-opacity="1.0" stroke-width="3.0" />
            <path d=" M 665.117, 1033.398 672.490, 1034.738 672.584, 1024.738 672.678, 1014.739 672.772, 1004.739 672.866, 994.740 672.960, 984.740 673.054, 974.740 673.148, 964.741 673.242, 954.741 673.293, 949.331 665.499, 948.477 " fill="none" stroke="rgb(0, 0, 0)" stroke-linecap="round" stroke-linejoin="round" stroke-opacity="1.0" stroke-width="3.0" />
            <path d=" M 141.280, 654.680 151.275, 654.378 161.271, 654.076 163.079, 654.021 166.091, 644.486 169.103, 634.950 171.234, 628.204 173.149, 622.142 174.617, 617.496 176.355, 611.993 176.970, 610.046 179.982, 600.510 182.994, 590.975 186.006, 581.439 187.060, 578.105 185.631, 568.207 184.203, 558.310 182.775, 548.412 182.375, 545.638 173.268, 541.508 164.161, 537.378 163.143, 536.916 159.203, 546.107 155.264, 555.299 151.324, 564.490 147.385, 573.681 143.446, 582.873 139.506, 592.064 135.567, 601.255 131.627, 610.447 127.688, 619.638 123.748, 628.829 119.528, 638.676 127.583, 644.602 135.637, 650.528 141.280, 654.680 " fill="none" stroke="rgb(0, 0, 0)" stroke-linecap="round" stroke-linejoin="round" stroke-opacity="1.0" stroke-width="3.0" />
            <path d=" M 154.329, 622.021 156.966, 631.666 158.308, 636.573 160.945, 646.219 163.079, 654.021 153.647, 650.698 147.171, 648.416 137.739, 645.092 128.308, 641.769 119.528, 638.676 124.114, 629.789 128.699, 620.902 133.285, 612.015 133.802, 611.012 " fill="none" stroke="rgb(0, 0, 0)" stroke-linecap="round" stroke-linejoin="round" stroke-opacity="1.0" stroke-width="3.0" />
            <path d=" M 647.715, 1159.582 645.433, 1149.845 643.152, 1140.109 640.870, 1130.373 638.589, 1120.637 636.307, 1110.900 634.026, 1101.164 631.744, 1091.428 629.462, 1081.692 627.181, 1071.955 624.899, 1062.219 622.618, 1052.483 620.336, 1042.747 618.055, 1033.010 617.731, 1031.628 617.713, 1031.551 617.708, 1031.531 616.632, 1026.938 616.073, 1024.552 613.791, 1014.816 611.510, 1005.079 610.870, 1002.348 611.682, 992.381 612.494, 982.414 613.115, 974.791 " fill="none" stroke="rgb(0, 0, 0)" stroke-linecap="round" stroke-linejoin="round" stroke-opacity="1.0" stroke-width="3.0" />
            <path d=" M 500.943, 1013.156 510.895, 1012.177 512.095, 1012.059 518.616, 1011.418 528.568, 1010.440 538.520, 1009.461 548.472, 1008.483 558.424, 1007.504 568.376, 1006.526 578.328, 1005.547 588.280, 1004.569 598.232, 1003.591 608.184, 1002.612 610.870, 1002.348 " fill="none" stroke="rgb(0, 0, 0)" stroke-linecap="round" stroke-linejoin="round" stroke-opacity="1.0" stroke-width="3.0" />
            <path d=" M 411.014, 807.852 420.530, 804.779 430.047, 801.706 439.563, 798.633 449.079, 795.561 458.595, 792.488 468.111, 789.415 477.628, 786.342 487.144, 783.270 496.660, 780.197 505.596, 777.312 " fill="none" stroke="rgb(0, 0, 0)" stroke-linecap="round" stroke-linejoin="round" stroke-opacity="1.0" stroke-width="3.0" />
            <path d=" M 476.622, 741.650 475.708, 742.572 468.669, 749.674 461.594, 756.813 454.555, 763.916 447.516, 771.019 440.477, 778.122 433.438, 785.225 426.399, 792.328 419.359, 799.431 412.320, 806.534 411.014, 807.852 411.064, 817.851 411.114, 827.851 411.165, 837.851 411.215, 847.851 411.265, 857.851 411.315, 867.851 411.365, 877.851 411.415, 887.851 411.465, 897.850 411.515, 907.850 411.565, 917.850 411.615, 927.850 411.666, 937.850 411.716, 947.850 411.766, 957.850 411.816, 967.849 411.866, 977.849 411.916, 987.849 411.966, 997.849 412.016, 1007.849 412.053, 1015.164 411.373, 1025.141 410.693, 1035.118 410.013, 1045.095 409.333, 1055.072 408.653, 1065.049 407.973, 1075.026 407.294, 1085.002 406.614, 1094.979 405.934, 1104.956 405.254, 1114.933 404.574, 1124.910 403.894, 1134.887 403.446, 1141.459 403.343, 1142.977 403.343, 1142.977 403.260, 1144.189 403.260, 1144.189 402.580, 1154.166 401.900, 1164.142 401.220, 1174.119 400.541, 1184.096 399.861, 1194.073 399.181, 1204.050 398.780, 1209.924 " fill="none" stroke="rgb(0, 0, 0)" stroke-linecap="round" stroke-linejoin="round" stroke-opacity="1.0" stroke-width="3.0" />
            <path d=" M 512.277, 623.890 502.828, 627.166 496.916, 629.215 495.140, 639.056 493.363, 648.897 491.587, 658.738 489.811, 668.579 488.947, 673.367 487.170, 683.208 485.394, 693.049 483.618, 702.890 481.842, 712.731 480.065, 722.572 478.289, 732.413 477.397, 737.356 476.622, 741.650 479.520, 732.079 482.417, 722.508 485.315, 712.937 485.505, 712.309 488.403, 702.738 491.301, 693.167 494.199, 683.596 497.097, 674.026 497.883, 671.430 500.781, 661.859 503.678, 652.288 506.576, 642.717 509.474, 633.146 512.277, 623.890 " fill="none" stroke="rgb(0, 0, 0)" stroke-linecap="round" stroke-linejoin="round" stroke-opacity="1.0" stroke-width="3.0" />
            <path d=" M 618.289, 718.489 615.019, 709.039 611.749, 699.589 608.478, 690.139 605.208, 680.689 601.937, 671.239 598.667, 661.789 595.397, 652.339 592.126, 642.888 588.856, 633.438 585.653, 624.184 583.543, 618.086 583.519, 618.017 573.727, 620.049 563.936, 622.080 554.144, 624.111 544.353, 626.142 534.561, 628.174 524.770, 630.205 515.557, 632.116 524.951, 628.689 534.346, 625.261 543.740, 621.834 553.134, 618.406 562.529, 614.979 571.923, 611.552 581.317, 608.124 590.712, 604.697 600.106, 601.270 602.101, 600.542 " fill="none" stroke="rgb(0, 0, 0)" stroke-linecap="round" stroke-linejoin="round" stroke-opacity="1.0" stroke-width="3.0" />
            <path d=" M 393.657, 1014.099 403.640, 1014.677 412.053, 1015.164 422.050, 1014.938 432.048, 1014.713 442.045, 1014.487 452.043, 1014.261 462.040, 1014.035 472.038, 1013.809 482.035, 1013.583 492.032, 1013.357 500.943, 1013.156 " fill="none" stroke="rgb(0, 0, 0)" stroke-linecap="round" stroke-linejoin="round" stroke-opacity="1.0" stroke-width="3.0" />
            <path d=" M 411.014, 807.852 401.900, 803.737 392.786, 799.622 391.109, 798.865 " fill="none" stroke="rgb(0, 0, 0)" stroke-linecap="round" stroke-linejoin="round" stroke-opacity="1.0" stroke-width="3.0" />
            <path d=" M 612.175, 1254.488 603.709, 1249.166 595.243, 1243.844 586.776, 1238.521 578.310, 1233.199 569.844, 1227.877 561.378, 1222.555 552.912, 1217.233 544.446, 1211.910 535.980, 1206.588 527.514, 1201.266 519.048, 1195.944 511.348, 1191.103 " fill="none" stroke="rgb(0, 0, 0)" stroke-linecap="round" stroke-linejoin="round" stroke-opacity="1.0" stroke-width="3.0" />
            <path d=" M 500.500, 1184.283 500.885, 1192.085 500.952, 1193.445 501.445, 1203.432 501.937, 1213.420 502.430, 1223.408 502.923, 1233.396 503.416, 1243.384 503.909, 1253.372 504.385, 1263.021 504.385, 1263.022 504.387, 1263.059 504.880, 1273.047 505.373, 1283.035 505.866, 1293.023 506.359, 1303.011 506.852, 1312.998 507.344, 1322.986 507.837, 1332.974 507.995, 1336.170 508.877, 1346.131 509.758, 1356.092 510.640, 1366.053 511.521, 1376.014 512.403, 1385.975 513.284, 1395.936 514.166, 1405.897 515.048, 1415.858 515.929, 1425.819 516.811, 1435.781 517.692, 1445.742 518.574, 1455.703 519.456, 1465.664 520.337, 1475.625 521.219, 1485.586 522.100, 1495.547 522.982, 1505.508 523.863, 1515.469 524.745, 1525.430 525.499, 1533.948 526.056, 1543.932 526.613, 1553.917 527.170, 1563.901 527.728, 1573.886 528.285, 1583.870 528.842, 1593.855 529.399, 1603.839 529.956, 1613.824 530.514, 1623.808 531.071, 1633.793 531.628, 1643.777 532.185, 1653.762 532.742, 1663.746 533.300, 1673.730 533.857, 1683.715 534.184, 1689.583 534.394, 1699.580 534.603, 1709.578 534.812, 1719.576 535.022, 1729.574 535.231, 1739.572 535.440, 1749.569 535.650, 1759.567 535.859, 1769.565 536.068, 1779.563 536.278, 1789.561 536.487, 1799.558 536.696, 1809.556 536.906, 1819.554 537.115, 1829.552 537.324, 1839.550 537.534, 1849.547 537.743, 1859.545 537.952, 1869.543 538.161, 1879.541 538.371, 1889.539 538.580, 1899.537 538.789, 1909.534 538.999, 1919.532 539.167, 1927.567 529.987, 1923.601 520.807, 1919.635 511.628, 1915.668 502.448, 1911.702 493.268, 1907.736 484.088, 1903.769 474.909, 1899.803 465.729, 1895.837 460.486, 1893.572 " fill="none" stroke="rgb(0, 0, 0)" stroke-linecap="round" stroke-linejoin="round" stroke-opacity="1.0" stroke-width="3.0" />
            <path d=" M 405.395, 1343.958 415.366, 1343.201 425.338, 1342.444 435.309, 1341.687 445.280, 1340.930 455.252, 1340.173 465.223, 1339.417 475.194, 1338.660 485.166, 1337.903 495.137, 1337.146 505.108, 1336.389 507.995, 1336.170 517.920, 1337.389 527.846, 1338.608 537.771, 1339.827 547.697, 1341.046 557.622, 1342.265 567.548, 1343.484 577.473, 1344.703 587.398, 1345.922 597.324, 1347.141 607.249, 1348.360 611.012, 1348.822 611.012, 1348.822 " fill="none" stroke="rgb(0, 0, 0)" stroke-linecap="round" stroke-linejoin="round" stroke-opacity="1.0" stroke-width="3.0" />
            <path d=" M 387.288, 1213.144 383.647, 1214.156 387.289, 1213.138 396.919, 1210.444 397.512, 1210.279 397.512, 1210.279 398.780, 1209.924 398.820, 1209.918 400.510, 1209.645 401.357, 1209.508 401.357, 1209.508 " fill="none" stroke="rgb(0, 0, 0)" stroke-linecap="round" stroke-linejoin="round" stroke-opacity="1.0" stroke-width="3.0" />
            <path d=" M 511.348, 1191.103 511.348, 1191.103 521.091, 1188.851 530.834, 1186.599 540.578, 1184.347 550.321, 1182.095 560.064, 1179.843 569.807, 1177.590 579.550, 1175.338 589.293, 1173.086 597.808, 1171.118 597.808, 1171.118 607.551, 1168.866 617.294, 1166.614 627.037, 1164.361 636.654, 1162.138 636.654, 1162.138 642.150, 1160.868 642.650, 1160.752 645.705, 1160.046 647.715, 1159.582 645.822, 1160.537 642.650, 1160.752 " fill="none" stroke="rgb(0, 0, 0)" stroke-linecap="round" stroke-linejoin="round" stroke-opacity="1.0" stroke-width="3.0" />
            <path d=" M 610.811, 603.346 602.101, 600.542 604.536, 610.241 604.897, 611.679 605.223, 612.979 607.658, 622.678 610.092, 632.377 612.527, 642.076 614.962, 651.776 617.396, 661.475 619.831, 671.174 622.266, 680.873 624.701, 690.572 627.135, 700.271 629.570, 709.970 632.005, 719.669 634.439, 729.368 636.874, 739.067 639.309, 748.766 641.743, 758.465 642.474, 761.375 " fill="none" stroke="rgb(0, 0, 0)" stroke-linecap="round" stroke-linejoin="round" stroke-opacity="1.0" stroke-width="3.0" />
            <path d=" M 401.307, 1207.871 411.036, 1205.557 420.765, 1203.244 430.494, 1200.931 440.222, 1198.617 449.951, 1196.304 459.680, 1193.990 469.409, 1191.677 479.137, 1189.363 488.866, 1187.050 498.595, 1184.736 500.500, 1184.283 " fill="none" stroke="rgb(0, 0, 0)" stroke-linecap="round" stroke-linejoin="round" stroke-opacity="1.0" stroke-width="3.0" />
            <path d=" M 610.870, 1002.348 612.365, 992.460 613.507, 984.907 " fill="none" stroke="rgb(0, 0, 0)" stroke-linecap="round" stroke-linejoin="round" stroke-opacity="1.0" stroke-width="3.0" />
            <path d=" M 500.943, 1013.156 500.993, 1023.156 501.003, 1025.269 501.053, 1035.269 501.103, 1045.269 501.153, 1055.269 501.202, 1065.269 501.252, 1075.269 501.302, 1085.268 501.352, 1095.268 501.401, 1105.268 501.424, 1109.871 501.424, 1109.871 501.425, 1110.071 501.425, 1110.071 501.475, 1120.071 501.525, 1130.071 501.574, 1140.071 501.624, 1150.070 501.674, 1160.070 501.723, 1170.070 501.773, 1180.070 501.823, 1190.070 501.832, 1191.861 " fill="none" stroke="rgb(0, 0, 0)" stroke-linecap="round" stroke-linejoin="round" stroke-opacity="1.0" stroke-width="3.0" />
            <path d=" M 221.828, 733.234 217.488, 724.225 213.148, 715.215 208.809, 706.206 204.469, 697.197 200.129, 688.188 195.789, 679.178 191.449, 670.169 187.109, 661.160 182.770, 652.151 178.430, 643.142 174.090, 634.132 171.234, 628.204 " fill="none" stroke="rgb(0, 0, 0)" stroke-linecap="round" stroke-linejoin="round" stroke-opacity="1.0" stroke-width="3.0" />
            <path d=" M 277.870, 719.126 268.172, 721.567 258.475, 724.008 248.777, 726.450 239.080, 728.891 229.382, 731.332 221.828, 733.234 218.051, 723.974 214.274, 714.715 210.497, 705.456 206.720, 696.197 202.943, 686.937 199.166, 677.678 195.389, 668.419 191.612, 659.160 187.835, 649.900 184.058, 640.641 180.281, 631.382 176.504, 622.122 174.617, 617.496 " fill="none" stroke="rgb(0, 0, 0)" stroke-linecap="round" stroke-linejoin="round" stroke-opacity="1.0" stroke-width="3.0" />
            <path d=" M 464.448, 681.275 454.647, 683.263 444.847, 685.251 435.047, 687.239 425.246, 689.228 415.446, 691.216 405.645, 693.204 395.845, 695.192 386.045, 697.180 376.244, 699.169 366.444, 701.157 356.644, 703.145 346.843, 705.133 337.043, 707.121 327.243, 709.110 317.442, 711.098 307.642, 713.086 297.842, 715.074 295.251, 715.600 285.450, 717.588 277.870, 719.126 270.991, 711.867 264.113, 704.608 257.235, 697.349 250.357, 690.091 243.479, 682.832 236.601, 675.573 229.722, 668.314 222.844, 661.055 215.966, 653.797 209.088, 646.538 202.210, 639.279 195.332, 632.020 188.453, 624.761 181.575, 617.502 176.355, 611.993 " fill="none" stroke="rgb(0, 0, 0)" stroke-linecap="round" stroke-linejoin="round" stroke-opacity="1.0" stroke-width="3.0" />
            <path d=" M 277.870, 719.126 274.934, 709.567 271.999, 700.007 269.063, 690.448 266.128, 680.888 263.308, 671.704 " fill="none" stroke="rgb(0, 0, 0)" stroke-linecap="round" stroke-linejoin="round" stroke-opacity="1.0" stroke-width="3.0" />
            <path d=" M 295.099, 715.391 289.215, 707.305 283.331, 699.219 277.447, 691.134 271.563, 683.048 265.679, 674.962 263.308, 671.704 255.170, 665.892 247.032, 660.081 238.894, 654.269 230.756, 648.457 222.618, 642.646 214.481, 636.834 206.343, 631.022 198.205, 625.211 190.067, 619.399 181.929, 613.588 176.970, 610.046 " fill="none" stroke="rgb(0, 0, 0)" stroke-linecap="round" stroke-linejoin="round" stroke-opacity="1.0" stroke-width="3.0" />
            <path d=" M 539.167, 1927.567 529.200, 1928.381 519.233, 1929.194 509.266, 1930.007 499.300, 1930.821 489.333, 1931.634 479.366, 1932.448 469.399, 1933.261 459.432, 1934.074 449.465, 1934.888 439.498, 1935.701 429.532, 1936.515 419.565, 1937.328 409.598, 1938.141 399.631, 1938.955 392.287, 1939.554 " fill="none" stroke="rgb(0, 0, 0)" stroke-linecap="round" stroke-linejoin="round" stroke-opacity="1.0" stroke-width="3.0" />
            <path d=" M 378.575, 1933.139 378.575, 1933.139 " fill="none" stroke="rgb(0, 0, 0)" stroke-linecap="round" stroke-linejoin="round" stroke-opacity="1.0" stroke-width="3.0" />
            <path d=" M 597.049, 1943.514 597.049, 1943.514 587.408, 1940.858 577.767, 1938.202 568.126, 1935.546 558.485, 1932.890 548.845, 1930.234 539.167, 1927.567 538.825, 1937.561 538.482, 1947.556 538.140, 1957.550 537.798, 1967.544 537.455, 1977.538 537.113, 1987.532 536.784, 1997.143 " fill="none" stroke="rgb(0, 0, 0)" stroke-linecap="round" stroke-linejoin="round" stroke-opacity="1.0" stroke-width="3.0" />
            <path d=" M 182.375, 545.638 178.928, 555.026 175.481, 564.413 172.035, 573.800 168.588, 583.187 165.141, 592.574 161.694, 601.962 158.247, 611.349 154.801, 620.736 154.329, 622.021 145.516, 617.294 136.704, 612.568 133.802, 611.012 137.484, 601.715 141.165, 592.417 144.847, 583.120 148.529, 573.822 152.210, 564.525 155.892, 555.227 159.574, 545.929 163.143, 536.916 " fill="none" stroke="rgb(0, 0, 0)" stroke-linecap="round" stroke-linejoin="round" stroke-opacity="1.0" stroke-width="3.0" />
            <path d=" M 378.575, 1933.139 387.633, 1937.377 392.287, 1939.554 " fill="none" stroke="rgb(0, 0, 0)" stroke-linecap="round" stroke-linejoin="round" stroke-opacity="1.0" stroke-width="3.0" />
            <path d=" M 387.485, 1997.195 388.315, 1987.229 389.145, 1977.264 389.975, 1967.298 390.806, 1957.333 391.636, 1947.367 392.287, 1939.554 400.578, 1933.964 408.869, 1928.373 417.161, 1922.783 425.452, 1917.193 433.744, 1911.602 442.035, 1906.012 450.326, 1900.421 458.618, 1894.831 460.485, 1893.572 460.486, 1893.572 460.486, 1893.572 " fill="none" stroke="rgb(0, 0, 0)" stroke-linecap="round" stroke-linejoin="round" stroke-opacity="1.0" stroke-width="3.0" />
            <path d=" M 378.575, 1933.139 378.575, 1933.139 " fill="none" stroke="rgb(0, 0, 0)" stroke-linecap="round" stroke-linejoin="round" stroke-opacity="1.0" stroke-width="3.0" />
            <path d=" M 424.476, 1910.966 415.472, 1915.316 406.467, 1919.666 397.463, 1924.015 388.458, 1928.365 379.454, 1932.715 378.575, 1933.139 368.697, 1934.700 358.820, 1936.261 348.942, 1937.822 339.065, 1939.382 329.188, 1940.943 319.310, 1942.504 314.062, 1943.333 313.147, 1953.291 312.232, 1963.249 311.317, 1973.207 310.403, 1983.165 309.488, 1993.123 309.145, 1996.858 309.145, 1996.858 " fill="none" stroke="rgb(0, 0, 0)" stroke-linecap="round" stroke-linejoin="round" stroke-opacity="1.0" stroke-width="3.0" />
            <path d=" M 341.217, 1997.200 341.303, 1997.201 341.303, 1997.201 " fill="none" stroke="rgb(0, 0, 0)" stroke-linecap="round" stroke-linejoin="round" stroke-opacity="1.0" stroke-width="3.0" />
            <path d=" M 638.091, 1165.668 628.181, 1167.008 618.272, 1168.349 608.362, 1169.690 598.452, 1171.031 597.808, 1171.118 " fill="none" stroke="rgb(0, 0, 0)" stroke-linecap="round" stroke-linejoin="round" stroke-opacity="1.0" stroke-width="3.0" />
            <path d=" M 387.289, 1213.138 387.288, 1213.144 386.499, 1217.265 394.012, 1223.865 401.525, 1230.464 401.999, 1230.880 401.999, 1230.880 " fill="none" stroke="rgb(0, 0, 0)" stroke-linecap="round" stroke-linejoin="round" stroke-opacity="1.0" stroke-width="3.0" />
            <path d=" M 429.329, 1483.755 429.329, 1483.755 " fill="none" stroke="rgb(0, 0, 0)" stroke-linecap="round" stroke-linejoin="round" stroke-opacity="1.0" stroke-width="3.0" />
            <path d=" M 525.499, 1533.948 516.869, 1539.000 508.239, 1544.052 499.609, 1549.104 490.979, 1554.156 482.349, 1559.208 473.719, 1564.261 465.089, 1569.313 456.459, 1574.365 447.829, 1579.417 441.162, 1583.320 " fill="none" stroke="rgb(0, 0, 0)" stroke-linecap="round" stroke-linejoin="round" stroke-opacity="1.0" stroke-width="3.0" />
            <path d=" M 449.678, 1695.754 459.652, 1695.026 469.625, 1694.297 479.599, 1693.569 489.572, 1692.841 499.545, 1692.112 509.519, 1691.384 519.492, 1690.655 529.466, 1689.927 534.184, 1689.583 544.149, 1690.416 554.115, 1691.250 564.080, 1692.084 574.045, 1692.917 584.010, 1693.751 593.975, 1694.585 603.941, 1695.418 614.686, 1696.317 " fill="none" stroke="rgb(0, 0, 0)" stroke-linecap="round" stroke-linejoin="round" stroke-opacity="1.0" stroke-width="3.0" />
            <path d=" M 636.037, 513.901 637.424, 503.997 638.811, 494.094 640.198, 484.191 641.585, 474.287 642.972, 464.384 644.359, 454.481 645.746, 444.577 647.133, 434.674 648.520, 424.771 649.907, 414.867 651.294, 404.964 652.681, 395.061 653.868, 386.589 643.919, 385.573 633.971, 384.557 624.023, 383.542 614.075, 382.526 604.126, 381.510 594.178, 380.495 584.230, 379.479 574.281, 378.463 564.333, 377.448 554.385, 376.432 544.437, 375.416 534.488, 374.400 524.540, 373.385 514.592, 372.369 504.643, 371.353 494.695, 370.338 484.747, 369.322 474.799, 368.306 464.850, 367.290 454.902, 366.275 444.954, 365.259 440.497, 364.804 " fill="none" stroke="rgb(0, 0, 0)" stroke-linecap="round" stroke-linejoin="round" stroke-opacity="1.0" stroke-width="3.0" />
            <path d=" M 598.310, 1533.432 598.310, 1533.432 588.310, 1533.503 578.310, 1533.574 568.311, 1533.645 558.311, 1533.716 548.311, 1533.786 538.311, 1533.857 528.312, 1533.928 525.499, 1533.948 516.634, 1529.321 507.768, 1524.694 498.903, 1520.067 490.038, 1515.440 481.173, 1510.813 472.308, 1506.186 463.442, 1501.560 454.577, 1496.933 445.712, 1492.306 436.847, 1487.679 429.329, 1483.755 " fill="none" stroke="rgb(0, 0, 0)" stroke-linecap="round" stroke-linejoin="round" stroke-opacity="1.0" stroke-width="3.0" />
            <path d=" M 462.721, 369.091 463.062, 379.085 463.403, 389.079 463.744, 399.073 464.078, 408.871 464.419, 418.865 464.760, 428.859 465.101, 438.853 465.442, 448.848 465.783, 458.842 466.124, 468.836 466.465, 478.830 466.511, 480.172 466.511, 480.172 466.852, 490.167 466.965, 493.471 461.494, 491.998 461.494, 491.998 451.838, 489.396 450.334, 488.991 " fill="none" stroke="rgb(0, 0, 0)" stroke-linecap="round" stroke-linejoin="round" stroke-opacity="1.0" stroke-width="3.0" />
            <path d=" M 386.499, 1217.265 394.943, 1211.908 397.449, 1210.319 397.512, 1210.279 " fill="none" stroke="rgb(0, 0, 0)" stroke-linecap="round" stroke-linejoin="round" stroke-opacity="1.0" stroke-width="3.0" />
            <path d=" M 429.941, 364.804 428.759, 374.734 427.577, 384.664 426.395, 394.594 425.213, 404.524 424.032, 414.453 422.850, 424.383 421.668, 434.313 420.486, 444.243 419.304, 454.173 418.122, 464.103 416.940, 474.033 416.617, 476.748 410.732, 484.832 404.846, 492.917 398.961, 501.002 392.935, 509.280 " fill="none" stroke="rgb(0, 0, 0)" stroke-linecap="round" stroke-linejoin="round" stroke-opacity="1.0" stroke-width="3.0" />
            <path d=" M 416.617, 476.748 426.016, 480.161 426.169, 480.216 435.568, 483.629 444.968, 487.043 450.334, 488.991 " fill="none" stroke="rgb(0, 0, 0)" stroke-linecap="round" stroke-linejoin="round" stroke-opacity="1.0" stroke-width="3.0" />
            <path d=" M 406.109, 508.796 406.109, 508.796 409.224, 499.293 412.340, 489.791 415.456, 480.289 416.617, 476.748 421.177, 485.648 423.059, 489.322 427.619, 498.222 429.320, 501.543 429.320, 501.543 429.320, 501.543 437.905, 496.415 446.490, 491.287 450.334, 488.991 451.361, 479.044 452.389, 469.097 453.417, 459.150 454.444, 449.203 455.472, 439.256 456.500, 429.309 457.527, 419.362 458.421, 410.711 459.449, 400.764 460.477, 390.817 461.504, 380.870 462.532, 370.923 462.721, 369.091 472.659, 370.207 482.596, 371.324 492.534, 372.441 502.471, 373.557 512.408, 374.674 522.346, 375.791 532.283, 376.907 542.221, 378.024 552.158, 379.141 562.096, 380.257 572.033, 381.374 581.971, 382.491 591.908, 383.607 601.846, 384.724 611.783, 385.841 621.720, 386.958 629.564, 387.839 " fill="none" stroke="rgb(0, 0, 0)" stroke-linecap="round" stroke-linejoin="round" stroke-opacity="1.0" stroke-width="3.0" />
            <path d=" M 392.935, 509.280 402.928, 508.912 406.109, 508.796 415.654, 505.813 416.662, 505.498 426.207, 502.515 427.498, 502.112 " fill="none" stroke="rgb(0, 0, 0)" stroke-linecap="round" stroke-linejoin="round" stroke-opacity="1.0" stroke-width="3.0" />
            <path d=" M 441.937, 564.125 441.937, 564.125 432.013, 562.894 430.223, 562.672 " fill="none" stroke="rgb(0, 0, 0)" stroke-linecap="round" stroke-linejoin="round" stroke-opacity="1.0" stroke-width="3.0" />
            <path d=" M 460.362, 494.887 456.712, 504.197 456.231, 505.425 456.230, 505.426 455.712, 506.595 " fill="none" stroke="rgb(0, 0, 0)" stroke-linecap="round" stroke-linejoin="round" stroke-opacity="1.0" stroke-width="3.0" />
            <path d=" M 440.497, 364.804 450.497, 364.804 460.497, 364.804 469.326, 364.804 469.326, 364.804 469.326, 354.804 469.326, 344.804 469.326, 334.804 469.326, 324.804 469.326, 314.804 469.326, 304.804 469.326, 294.804 469.326, 284.804 469.326, 274.804 469.326, 264.804 469.326, 254.804 469.326, 248.970 469.829, 238.983 470.331, 228.995 470.834, 219.008 471.336, 209.021 471.839, 199.033 472.341, 189.046 472.844, 179.058 473.346, 169.071 473.848, 159.084 474.351, 149.096 474.853, 139.109 475.154, 133.127 475.154, 133.127 465.154, 133.127 455.154, 133.127 445.154, 133.127 435.154, 133.127 425.154, 133.127 415.154, 133.127 406.995, 133.127 406.995, 133.127 406.493, 143.115 405.990, 153.102 405.488, 163.090 404.985, 173.077 404.483, 183.064 403.980, 193.052 403.477, 203.039 402.975, 213.026 402.472, 223.014 401.970, 233.001 401.467, 242.989 401.166, 248.970 401.166, 258.970 401.166, 268.970 401.166, 278.970 401.166, 288.970 401.166, 298.970 401.166, 308.970 401.166, 318.970 401.166, 328.970 401.166, 338.970 401.166, 348.970 401.166, 358.970 401.166, 364.804 401.166, 364.804 " fill="none" stroke="rgb(0, 0, 0)" stroke-linecap="round" stroke-linejoin="round" stroke-opacity="1.0" stroke-width="3.0" />
            <path d=" M 401.166, 248.970 401.166, 248.970 411.166, 248.970 421.166, 248.970 431.166, 248.970 441.166, 248.970 451.166, 248.970 461.166, 248.970 469.326, 248.970 469.326, 248.970 " fill="none" stroke="rgb(0, 0, 0)" stroke-linecap="round" stroke-linejoin="round" stroke-opacity="1.0" stroke-width="3.0" />
            <path d=" M 401.166, 248.970 401.669, 238.983 402.171, 228.995 402.674, 219.008 403.177, 209.021 403.679, 199.033 404.182, 189.046 404.684, 179.058 405.187, 169.071 405.689, 159.084 406.192, 149.096 406.694, 139.109 406.995, 133.127 " fill="none" stroke="rgb(0, 0, 0)" stroke-linecap="round" stroke-linejoin="round" stroke-opacity="1.0" stroke-width="3.0" />
            <path d=" M 309.145, 1996.858 309.145, 1996.858 " fill="none" stroke="rgb(0, 0, 0)" stroke-linecap="round" stroke-linejoin="round" stroke-opacity="1.0" stroke-width="3.0" />
            <path d=" M 401.166, 364.804 401.166, 354.804 401.166, 344.804 401.166, 334.804 401.166, 324.804 401.166, 314.804 401.166, 304.804 401.166, 294.804 401.166, 284.804 401.166, 274.804 401.166, 264.804 401.166, 254.804 401.166, 248.970 " fill="none" stroke="rgb(0, 0, 0)" stroke-linecap="round" stroke-linejoin="round" stroke-opacity="1.0" stroke-width="3.0" />
            <path d=" M 427.498, 502.112 428.170, 512.089 428.842, 522.067 429.449, 531.091 " fill="none" stroke="rgb(0, 0, 0)" stroke-linecap="round" stroke-linejoin="round" stroke-opacity="1.0" stroke-width="3.0" />
            <path d=" M 437.104, 571.672 438.958, 581.499 440.364, 588.955 " fill="none" stroke="rgb(0, 0, 0)" stroke-linecap="round" stroke-linejoin="round" stroke-opacity="1.0" stroke-width="3.0" />
            <path d=" M 445.529, 529.572 445.529, 529.572 446.396, 519.610 447.262, 509.647 447.528, 506.595 449.078, 497.306 " fill="none" stroke="rgb(0, 0, 0)" stroke-linecap="round" stroke-linejoin="round" stroke-opacity="1.0" stroke-width="3.0" />
            <path d=" M 436.565, 364.804 430.068, 363.739 " fill="none" stroke="rgb(0, 0, 0)" stroke-linecap="round" stroke-linejoin="round" stroke-opacity="1.0" stroke-width="3.0" />
            <path d=" M 429.941, 364.804 419.941, 364.804 409.941, 364.804 401.166, 364.804 " fill="none" stroke="rgb(0, 0, 0)" stroke-linecap="round" stroke-linejoin="round" stroke-opacity="1.0" stroke-width="3.0" />
            <path d=" M 466.320, 678.272 456.547, 680.391 446.774, 682.510 437.001, 684.628 427.228, 686.747 417.455, 688.865 407.682, 690.984 397.909, 693.103 388.136, 695.222 378.363, 697.340 368.590, 699.459 358.817, 701.578 349.044, 703.696 339.271, 705.815 329.499, 707.933 319.726, 710.052 309.953, 712.171 300.180, 714.289 295.099, 715.391 285.326, 717.510 277.870, 719.126 " fill="none" stroke="rgb(0, 0, 0)" stroke-linecap="round" stroke-linejoin="round" stroke-opacity="1.0" stroke-width="3.0" />
            <path d=" M 441.162, 1583.320 441.162, 1583.320 " fill="none" stroke="rgb(0, 0, 0)" stroke-linecap="round" stroke-linejoin="round" stroke-opacity="1.0" stroke-width="3.0" />
            <path d=" M 474.110, 506.595 484.110, 506.595 494.110, 506.595 504.110, 506.595 511.627, 506.595 521.410, 504.521 531.192, 502.446 531.773, 502.323 531.773, 502.323 " fill="none" stroke="rgb(0, 0, 0)" stroke-linecap="round" stroke-linejoin="round" stroke-opacity="1.0" stroke-width="3.0" />
            <path d=" M 449.678, 1695.754 449.678, 1695.754 " fill="none" stroke="rgb(0, 0, 0)" stroke-linecap="round" stroke-linejoin="round" stroke-opacity="1.0" stroke-width="3.0" />
            <path d=" M 547.429, 828.801 544.984, 838.498 542.539, 848.194 540.094, 857.891 537.649, 867.587 535.204, 877.284 532.759, 886.980 530.314, 896.677 527.869, 906.373 525.424, 916.070 522.979, 925.766 520.534, 935.463 518.089, 945.159 515.644, 954.856 513.199, 964.552 510.754, 974.249 508.309, 983.945 505.864, 993.642 503.419, 1003.338 500.943, 1013.156 " fill="none" stroke="rgb(0, 0, 0)" stroke-linecap="round" stroke-linejoin="round" stroke-opacity="1.0" stroke-width="3.0" />
            <path d=" M 612.117, 1259.139 612.126, 1258.427 " fill="none" stroke="rgb(0, 0, 0)" stroke-linecap="round" stroke-linejoin="round" stroke-opacity="1.0" stroke-width="3.0" />
            <path d=" M 509.621, 1190.017 501.155, 1184.695 500.500, 1184.283 510.409, 1182.943 520.319, 1181.602 530.229, 1180.261 540.138, 1178.920 550.048, 1177.580 559.958, 1176.239 569.868, 1174.898 578.312, 1173.755 " fill="none" stroke="rgb(0, 0, 0)" stroke-linecap="round" stroke-linejoin="round" stroke-opacity="1.0" stroke-width="3.0" />
            <path d=" M 600.550, 510.811 600.550, 510.811 596.142, 519.787 591.734, 528.763 587.326, 537.739 585.296, 541.873 " fill="none" stroke="rgb(0, 0, 0)" stroke-linecap="round" stroke-linejoin="round" stroke-opacity="1.0" stroke-width="3.0" />
            <path d=" M 610.469, 906.548 610.856, 916.541 611.244, 926.533 611.631, 936.526 612.019, 946.518 612.406, 956.510 612.793, 966.503 613.115, 974.791 613.284, 979.162 " fill="none" stroke="rgb(0, 0, 0)" stroke-linecap="round" stroke-linejoin="round" stroke-opacity="1.0" stroke-width="3.0" />
            <path d=" M 645.705, 1160.046 645.822, 1160.537 " fill="none" stroke="rgb(0, 0, 0)" stroke-linecap="round" stroke-linejoin="round" stroke-opacity="1.0" stroke-width="3.0" />
            <path d=" M 665.243, 949.191 673.293, 949.331 " fill="none" stroke="rgb(0, 0, 0)" stroke-linecap="round" stroke-linejoin="round" stroke-opacity="1.0" stroke-width="3.0" />
        </g>
    </g>
</svg>
