<?xml version='1.0' encoding='ascii'?>
<svg xmlns="http://www.w3.org/2000/svg" height="2138" version="1.1" width="1001">
    <g id="View Layer_LineSet" inkscape:groupmode="lineset" inkscape:label="View Layer_LineSet" xmlns:inkscape="http://www.inkscape.org/namespaces/inkscape">
        <g id="strokes" inkscape:groupmode="layer" inkscape:label="strokes" xmlns:inkscape="http://www.inkscape.org/namespaces/inkscape">
            <path d=" M 644.549, 531.091 647.089, 538.572 " fill="none" stroke="rgb(0, 0, 0)" stroke-linecap="round" stroke-linejoin="round" stroke-opacity="1.0" stroke-width="3.0" />
            <path d=" M 695.771, 506.595 686.749, 510.909 683.264, 512.576 674.243, 516.890 665.221, 521.205 656.200, 525.519 647.178, 529.833 644.549, 531.091 " fill="none" stroke="rgb(0, 0, 0)" stroke-linecap="round" stroke-linejoin="round" stroke-opacity="1.0" stroke-width="3.0" />
            <path d=" M 629.010, 539.576 637.787, 534.783 644.549, 531.091 634.618, 532.267 629.010, 532.931 " fill="none" stroke="rgb(0, 0, 0)" stroke-linecap="round" stroke-linejoin="round" stroke-opacity="1.0" stroke-width="3.0" />
            <path d=" M 629.010, 532.931 629.010, 539.576 620.234, 534.783 613.472, 531.091 623.403, 532.267 629.010, 532.931 629.010, 522.931 629.010, 513.901 629.010, 509.280 " fill="none" stroke="rgb(0, 0, 0)" stroke-linecap="round" stroke-linejoin="round" stroke-opacity="1.0" stroke-width="3.0" />
            <path d=" M 549.508, 493.471 549.644, 490.192 549.975, 482.213 550.390, 472.221 550.804, 462.230 551.219, 452.239 551.634, 442.247 552.048, 432.256 552.463, 422.264 552.878, 412.273 553.292, 402.282 553.707, 392.290 554.122, 382.299 554.536, 372.307 554.670, 369.091 " fill="none" stroke="rgb(0, 0, 0)" stroke-linecap="round" stroke-linejoin="round" stroke-opacity="1.0" stroke-width="3.0" />
            <path d=" M 614.218, 364.804 604.244, 365.522 594.270, 366.240 584.296, 366.958 574.321, 367.676 564.347, 368.394 554.670, 369.091 545.742, 373.596 537.489, 377.760 538.227, 387.733 538.965, 397.706 539.704, 407.679 540.442, 417.651 541.180, 427.624 541.918, 437.597 542.656, 447.570 543.395, 457.542 544.133, 467.515 544.871, 477.488 545.609, 487.460 546.347, 497.433 546.620, 501.111 " fill="none" stroke="rgb(0, 0, 0)" stroke-linecap="round" stroke-linejoin="round" stroke-opacity="1.0" stroke-width="3.0" />
            <path d=" M 558.490, 512.179 555.112, 512.096 548.996, 504.185 546.620, 501.111 549.508, 493.471 551.921, 495.219 554.813, 497.313 556.594, 498.603 556.933, 498.849 557.607, 499.337 557.647, 499.366 557.789, 499.468 560.653, 501.543 562.316, 502.044 565.828, 503.103 569.011, 504.063 578.585, 506.950 584.707, 508.796 594.706, 508.905 604.706, 509.014 614.705, 509.123 620.348, 509.185 629.010, 509.280 629.010, 509.280 629.010, 509.280 " fill="none" stroke="rgb(0, 0, 0)" stroke-linecap="round" stroke-linejoin="round" stroke-opacity="1.0" stroke-width="3.0" />
            <path d=" M 613.472, 531.091 610.257, 540.560 607.042, 550.029 606.775, 550.813 " fill="none" stroke="rgb(0, 0, 0)" stroke-linecap="round" stroke-linejoin="round" stroke-opacity="1.0" stroke-width="3.0" />
            <path d=" M 501.506, 1996.838 505.851, 1996.823 504.902, 1986.869 503.953, 1976.914 503.004, 1966.959 502.055, 1957.004 501.105, 1947.049 500.156, 1937.094 499.714, 1932.452 501.603, 1922.633 503.492, 1912.813 505.381, 1902.993 507.271, 1893.173 509.160, 1883.353 511.049, 1873.533 512.938, 1863.713 514.827, 1853.893 516.717, 1844.073 518.606, 1834.253 520.495, 1824.433 522.384, 1814.613 524.274, 1804.794 526.163, 1794.974 528.052, 1785.154 529.941, 1775.334 531.831, 1765.514 533.720, 1755.694 535.609, 1745.874 537.498, 1736.054 539.388, 1726.234 541.277, 1716.414 543.166, 1706.594 543.647, 1704.092 544.787, 1694.158 545.926, 1684.223 547.065, 1674.288 548.205, 1664.353 549.344, 1654.418 550.483, 1644.483 551.623, 1634.548 552.762, 1624.613 553.901, 1614.678 555.041, 1604.744 556.180, 1594.809 557.319, 1584.874 558.459, 1574.939 559.598, 1565.004 560.737, 1555.069 561.722, 1546.479 563.491, 1536.637 565.260, 1526.794 567.029, 1516.952 568.798, 1507.110 570.566, 1497.267 572.335, 1487.425 574.104, 1477.583 575.873, 1467.740 577.642, 1457.898 579.411, 1448.056 581.179, 1438.214 582.948, 1428.371 584.717, 1418.529 586.486, 1408.687 588.255, 1398.844 590.023, 1389.002 591.792, 1379.160 593.561, 1369.317 595.330, 1359.475 596.403, 1353.501 599.796, 1344.094 603.190, 1334.688 606.583, 1325.281 609.976, 1315.874 613.369, 1306.467 616.762, 1297.061 620.155, 1287.654 623.548, 1278.247 626.942, 1268.840 628.025, 1265.836 " fill="none" stroke="rgb(0, 0, 0)" stroke-linecap="round" stroke-linejoin="round" stroke-opacity="1.0" stroke-width="3.0" />
            <path d=" M 799.144, 1893.572 798.418, 1883.598 797.692, 1873.624 796.965, 1863.651 796.239, 1853.677 795.513, 1843.704 794.787, 1833.730 794.060, 1823.756 793.334, 1813.783 792.608, 1803.809 791.882, 1793.836 791.155, 1783.862 790.429, 1773.888 789.703, 1763.915 788.976, 1753.941 788.250, 1743.968 787.524, 1733.994 786.798, 1724.021 786.071, 1714.047 785.345, 1704.073 784.739, 1695.754 783.706, 1685.807 782.673, 1675.861 781.640, 1665.914 780.606, 1655.968 779.573, 1646.021 778.540, 1636.075 777.507, 1626.129 776.474, 1616.182 775.440, 1606.236 774.407, 1596.289 773.374, 1586.343 773.060, 1583.320 772.199, 1573.357 771.338, 1563.394 770.477, 1553.431 769.617, 1543.469 768.756, 1533.506 767.895, 1523.543 767.034, 1513.580 766.173, 1503.617 765.312, 1493.654 764.457, 1483.755 763.441, 1473.807 762.426, 1463.858 761.410, 1453.910 760.395, 1443.962 759.379, 1434.013 758.364, 1424.065 757.348, 1414.117 756.333, 1404.169 755.317, 1394.220 754.302, 1384.272 753.286, 1374.324 752.271, 1364.375 751.255, 1354.427 750.187, 1343.958 748.654, 1334.076 747.121, 1324.194 745.588, 1314.312 744.055, 1304.431 742.522, 1294.549 740.988, 1284.667 739.455, 1274.785 737.922, 1264.903 736.389, 1255.022 734.856, 1245.140 733.323, 1235.258 731.790, 1225.376 730.257, 1215.495 729.165, 1208.456 729.074, 1207.871 728.383, 1208.650 721.747, 1216.131 715.111, 1223.611 708.475, 1231.092 701.839, 1238.573 695.203, 1246.054 688.567, 1253.534 681.930, 1261.015 678.544, 1264.832 " fill="none" stroke="rgb(0, 0, 0)" stroke-linecap="round" stroke-linejoin="round" stroke-opacity="1.0" stroke-width="3.0" />
            <path d=" M 750.187, 1343.958 740.244, 1345.029 730.302, 1346.100 720.359, 1347.172 710.417, 1348.243 700.474, 1349.314 690.532, 1350.385 680.590, 1351.457 670.647, 1352.528 661.617, 1353.501 " fill="none" stroke="rgb(0, 0, 0)" stroke-linecap="round" stroke-linejoin="round" stroke-opacity="1.0" stroke-width="3.0" />
            <path d=" M 629.995, 1265.836 633.388, 1275.243 636.782, 1284.650 640.175, 1294.057 643.568, 1303.463 646.961, 1312.870 650.354, 1322.277 653.747, 1331.684 657.140, 1341.090 660.534, 1350.497 661.617, 1353.501 663.386, 1363.343 665.155, 1373.186 666.924, 1383.028 668.692, 1392.870 670.461, 1402.713 672.230, 1412.555 673.999, 1422.397 675.768, 1432.240 677.536, 1442.082 679.305, 1451.924 681.074, 1461.767 682.843, 1471.609 684.612, 1481.451 686.380, 1491.294 688.149, 1501.136 689.918, 1510.978 691.687, 1520.820 693.456, 1530.663 695.224, 1540.505 696.298, 1546.479 697.437, 1556.414 698.577, 1566.349 699.716, 1576.284 700.855, 1586.219 701.995, 1596.153 703.134, 1606.088 704.273, 1616.023 705.413, 1625.958 706.552, 1635.893 707.691, 1645.828 708.831, 1655.763 709.970, 1665.698 711.109, 1675.633 712.249, 1685.567 713.388, 1695.502 714.373, 1704.092 716.262, 1713.912 718.151, 1723.732 720.041, 1733.552 721.930, 1743.372 723.819, 1753.192 725.708, 1763.012 727.598, 1772.832 729.487, 1782.652 731.376, 1792.472 733.265, 1802.292 735.155, 1812.112 737.044, 1821.931 738.933, 1831.751 740.822, 1841.571 742.712, 1851.391 744.601, 1861.211 746.490, 1871.031 748.379, 1880.851 750.269, 1890.671 752.158, 1900.491 754.047, 1910.311 755.936, 1920.131 757.826, 1929.951 758.307, 1932.453 757.358, 1942.407 756.409, 1952.362 755.459, 1962.317 754.510, 1972.272 753.561, 1982.227 752.612, 1992.182 752.169, 1996.824 762.169, 1996.856 772.169, 1996.889 782.169, 1996.921 792.169, 1996.954 795.359, 1996.964 " fill="none" stroke="rgb(0, 0, 0)" stroke-linecap="round" stroke-linejoin="round" stroke-opacity="1.0" stroke-width="3.0" />
            <path d=" M 817.832, 1533.948 811.114, 1541.356 804.397, 1548.763 797.679, 1556.171 790.962, 1563.579 784.244, 1570.987 777.527, 1578.394 773.060, 1583.320 764.045, 1578.993 755.029, 1574.666 746.014, 1570.339 736.998, 1566.013 727.983, 1561.686 718.967, 1557.359 709.952, 1553.032 700.936, 1548.705 696.298, 1546.479 703.656, 1539.707 711.015, 1532.936 718.373, 1526.164 725.731, 1519.393 733.090, 1512.621 740.448, 1505.849 747.806, 1499.078 755.165, 1492.306 762.523, 1485.535 764.457, 1483.755 771.742, 1490.606 779.027, 1497.456 786.312, 1504.307 793.596, 1511.157 800.881, 1518.008 808.166, 1524.858 815.451, 1531.709 817.832, 1533.948 " fill="none" stroke="rgb(0, 0, 0)" stroke-linecap="round" stroke-linejoin="round" stroke-opacity="1.0" stroke-width="3.0" />
            <path d=" M 866.243, 1997.195 866.243, 1997.195 " fill="none" stroke="rgb(0, 0, 0)" stroke-linecap="round" stroke-linejoin="round" stroke-opacity="1.0" stroke-width="3.0" />
            <path d=" M 868.109, 1997.201 865.607, 1987.519 863.104, 1977.837 860.601, 1968.156 858.099, 1958.474 856.169, 1951.009 852.049, 1941.898 850.989, 1939.554 844.226, 1932.188 839.985, 1927.567 839.745, 1917.570 839.506, 1907.573 839.266, 1897.576 839.027, 1887.579 838.787, 1877.582 838.548, 1867.585 838.308, 1857.587 838.068, 1847.590 837.829, 1837.593 837.589, 1827.596 837.350, 1817.599 837.110, 1807.602 836.871, 1797.605 836.631, 1787.607 836.392, 1777.610 836.152, 1767.613 835.913, 1757.616 835.673, 1747.619 835.433, 1737.622 835.194, 1727.625 834.954, 1717.628 834.715, 1707.630 834.475, 1697.633 834.282, 1689.583 833.231, 1679.638 832.180, 1669.693 831.129, 1659.749 830.078, 1649.804 829.027, 1639.860 827.976, 1629.915 826.924, 1619.970 825.873, 1610.026 824.822, 1600.081 823.771, 1590.137 822.720, 1580.192 821.669, 1570.247 820.618, 1560.303 819.567, 1550.358 818.515, 1540.414 817.832, 1533.948 817.758, 1523.948 817.684, 1513.949 817.610, 1503.949 817.536, 1493.949 817.461, 1483.949 817.387, 1473.950 817.313, 1463.950 817.239, 1453.950 817.165, 1443.951 817.091, 1433.951 817.017, 1423.951 816.943, 1413.951 816.869, 1403.952 816.795, 1393.952 816.720, 1383.952 816.646, 1373.952 816.572, 1363.953 816.498, 1353.953 816.424, 1343.953 816.366, 1336.170 814.854, 1326.285 813.342, 1316.400 811.830, 1306.515 810.318, 1296.630 808.806, 1286.745 807.294, 1276.860 805.782, 1266.975 804.270, 1257.090 802.758, 1247.205 801.246, 1237.320 799.734, 1227.435 798.221, 1217.550 796.709, 1207.665 795.197, 1197.780 793.685, 1187.895 793.133, 1184.283 788.913, 1175.217 785.294, 1167.441 " fill="none" stroke="rgb(0, 0, 0)" stroke-linecap="round" stroke-linejoin="round" stroke-opacity="1.0" stroke-width="3.0" />
            <path d=" M 814.810, 1997.027 824.810, 1997.060 834.810, 1997.092 844.810, 1997.125 854.809, 1997.158 864.809, 1997.190 866.243, 1997.195 868.109, 1997.201 866.243, 1997.195 856.243, 1997.162 854.193, 1997.156 844.193, 1997.123 834.193, 1997.090 824.193, 1997.058 814.810, 1997.027 804.810, 1996.995 795.359, 1996.964 785.359, 1996.932 775.359, 1996.899 765.359, 1996.866 762.653, 1996.858 756.515, 1996.838 756.515, 1996.837 757.926, 1986.937 759.336, 1977.037 760.747, 1967.137 762.158, 1957.237 763.568, 1947.337 764.139, 1943.333 768.101, 1935.395 769.228, 1933.139 " fill="none" stroke="rgb(0, 0, 0)" stroke-linecap="round" stroke-linejoin="round" stroke-opacity="1.0" stroke-width="3.0" />
            <path d=" M 695.771, 506.595 697.943, 506.595 " fill="none" stroke="rgb(0, 0, 0)" stroke-linecap="round" stroke-linejoin="round" stroke-opacity="1.0" stroke-width="3.0" />
            <path d=" M 701.168, 506.595 701.166, 506.575 " fill="none" stroke="rgb(0, 0, 0)" stroke-linecap="round" stroke-linejoin="round" stroke-opacity="1.0" stroke-width="3.0" />
            <path d=" M 681.811, 572.566 684.627, 562.970 687.442, 553.375 690.258, 543.780 693.073, 534.184 695.889, 524.589 698.704, 514.993 699.530, 512.179 701.168, 506.595 701.169, 506.567 " fill="none" stroke="rgb(0, 0, 0)" stroke-linecap="round" stroke-linejoin="round" stroke-opacity="1.0" stroke-width="3.0" />
            <path d=" M 472.602, 1167.709 468.382, 1176.775 464.888, 1184.283 463.376, 1194.168 461.863, 1204.053 460.351, 1213.938 458.839, 1223.823 457.327, 1233.708 455.815, 1243.594 454.303, 1253.479 452.791, 1263.364 451.279, 1273.249 449.767, 1283.134 448.255, 1293.019 446.743, 1302.904 445.231, 1312.789 443.719, 1322.674 442.207, 1332.559 441.654, 1336.170 441.580, 1346.170 441.506, 1356.169 441.432, 1366.169 441.358, 1376.169 441.284, 1386.169 441.210, 1396.168 441.135, 1406.168 441.061, 1416.168 440.987, 1426.168 440.913, 1436.167 440.839, 1446.167 440.765, 1456.167 440.691, 1466.166 440.617, 1476.166 440.543, 1486.166 440.469, 1496.166 440.394, 1506.165 440.320, 1516.165 440.246, 1526.165 440.189, 1533.948 439.137, 1543.893 438.086, 1553.837 437.035, 1563.782 435.984, 1573.726 434.933, 1583.671 433.882, 1593.616 432.831, 1603.560 431.779, 1613.505 430.728, 1623.449 429.677, 1633.394 428.626, 1643.339 427.575, 1653.283 426.524, 1663.228 425.473, 1673.172 424.421, 1683.117 423.738, 1689.583 423.499, 1699.580 423.259, 1709.577 423.019, 1719.574 422.780, 1729.571 422.540, 1739.568 422.301, 1749.565 422.061, 1759.562 421.822, 1769.560 421.582, 1779.557 421.343, 1789.554 421.103, 1799.551 420.864, 1809.548 420.624, 1819.545 420.384, 1829.542 420.145, 1839.540 419.905, 1849.537 419.666, 1859.534 419.426, 1869.531 419.187, 1879.528 418.947, 1889.525 418.708, 1899.522 418.468, 1909.519 418.229, 1919.517 418.036, 1927.567 411.273, 1934.934 407.032, 1939.554 402.911, 1948.666 401.851, 1951.009 399.349, 1960.691 396.846, 1970.373 394.343, 1980.054 391.841, 1989.736 389.911, 1997.201 399.911, 1997.168 409.911, 1997.136 419.911, 1997.103 429.911, 1997.071 439.911, 1997.038 449.911, 1997.005 459.911, 1996.973 469.911, 1996.940 479.911, 1996.908 489.911, 1996.875 495.367, 1996.858 501.506, 1996.838 501.506, 1996.838 501.506, 1996.837 500.095, 1986.937 498.684, 1977.037 497.273, 1967.137 495.863, 1957.237 494.452, 1947.337 493.881, 1943.333 489.919, 1935.395 488.793, 1933.139 " fill="none" stroke="rgb(0, 0, 0)" stroke-linecap="round" stroke-linejoin="round" stroke-opacity="1.0" stroke-width="3.0" />
            <path d=" M 484.961, 1583.320 478.243, 1575.912 471.525, 1568.505 464.808, 1561.097 458.090, 1553.689 451.373, 1546.281 444.655, 1538.874 440.189, 1533.948 447.473, 1527.097 454.758, 1520.247 462.043, 1513.396 469.328, 1506.546 476.613, 1499.695 483.898, 1492.845 491.183, 1485.994 493.564, 1483.755 " fill="none" stroke="rgb(0, 0, 0)" stroke-linecap="round" stroke-linejoin="round" stroke-opacity="1.0" stroke-width="3.0" />
            <path d=" M 458.876, 1893.572 459.602, 1883.598 460.329, 1873.624 461.055, 1863.651 461.781, 1853.677 462.508, 1843.704 463.234, 1833.730 463.960, 1823.756 464.686, 1813.783 465.413, 1803.809 466.139, 1793.836 466.865, 1783.862 467.591, 1773.888 468.318, 1763.915 469.044, 1753.941 469.770, 1743.968 470.497, 1733.994 471.223, 1724.021 471.949, 1714.047 472.675, 1704.073 473.281, 1695.754 474.314, 1685.807 475.348, 1675.861 476.381, 1665.914 477.414, 1655.968 478.447, 1646.021 479.480, 1636.075 480.514, 1626.129 481.547, 1616.182 482.580, 1606.236 483.613, 1596.289 484.647, 1586.343 484.961, 1583.320 485.821, 1573.357 486.682, 1563.394 487.543, 1553.431 488.404, 1543.469 489.265, 1533.506 490.126, 1523.543 490.987, 1513.580 491.847, 1503.617 492.708, 1493.654 493.564, 1483.755 494.579, 1473.807 495.595, 1463.858 496.610, 1453.910 497.626, 1443.962 498.641, 1434.013 499.657, 1424.065 500.672, 1414.117 501.688, 1404.169 502.703, 1394.220 503.719, 1384.272 504.734, 1374.324 505.750, 1364.375 506.765, 1354.427 507.834, 1343.958 509.367, 1334.076 510.900, 1324.194 512.433, 1314.312 513.966, 1304.431 515.499, 1294.549 517.032, 1284.667 518.565, 1274.785 520.098, 1264.903 521.631, 1255.022 523.164, 1245.140 524.697, 1235.258 526.230, 1225.376 527.763, 1215.495 528.830, 1208.620 528.946, 1207.871 529.845, 1208.885 536.481, 1216.365 543.117, 1223.846 549.754, 1231.327 556.390, 1238.807 563.026, 1246.288 569.662, 1253.769 576.298, 1261.250 579.476, 1264.832 " fill="none" stroke="rgb(0, 0, 0)" stroke-linecap="round" stroke-linejoin="round" stroke-opacity="1.0" stroke-width="3.0" />
            <path d=" M 507.834, 1343.958 497.902, 1342.789 487.971, 1341.620 478.039, 1340.452 468.108, 1339.283 458.176, 1338.114 448.245, 1336.946 441.654, 1336.170 " fill="none" stroke="rgb(0, 0, 0)" stroke-linecap="round" stroke-linejoin="round" stroke-opacity="1.0" stroke-width="3.0" />
            <path d=" M 695.771, 506.595 689.010, 504.063 " fill="none" stroke="rgb(0, 0, 0)" stroke-linecap="round" stroke-linejoin="round" stroke-opacity="1.0" stroke-width="3.0" />
            <path d=" M 562.250, 506.595 569.011, 504.063 " fill="none" stroke="rgb(0, 0, 0)" stroke-linecap="round" stroke-linejoin="round" stroke-opacity="1.0" stroke-width="3.0" />
            <path d=" M 620.348, 509.185 618.945, 513.655 615.950, 523.196 613.472, 531.091 604.451, 526.777 595.429, 522.462 586.408, 518.148 577.386, 513.834 574.756, 512.576 565.735, 508.262 562.250, 506.595 " fill="none" stroke="rgb(0, 0, 0)" stroke-linecap="round" stroke-linejoin="round" stroke-opacity="1.0" stroke-width="3.0" />
            <path d=" M 562.316, 502.044 562.250, 506.595 564.446, 512.324 568.026, 521.662 571.606, 530.999 574.652, 538.946 " fill="none" stroke="rgb(0, 0, 0)" stroke-linecap="round" stroke-linejoin="round" stroke-opacity="1.0" stroke-width="3.0" />
            <path d=" M 921.250, 919.001 911.875, 915.523 904.085, 912.633 " fill="none" stroke="rgb(0, 0, 0)" stroke-linecap="round" stroke-linejoin="round" stroke-opacity="1.0" stroke-width="3.0" />
            <path d=" M 851.345, 893.068 842.827, 898.307 834.310, 903.547 825.793, 908.786 817.275, 914.026 808.758, 919.266 800.240, 924.505 791.723, 929.745 783.206, 934.985 774.688, 940.224 766.171, 945.464 763.471, 947.125 " fill="none" stroke="rgb(0, 0, 0)" stroke-linecap="round" stroke-linejoin="round" stroke-opacity="1.0" stroke-width="3.0" />
            <path d=" M 556.852, 506.595 556.854, 506.595 " fill="none" stroke="rgb(0, 0, 0)" stroke-linecap="round" stroke-linejoin="round" stroke-opacity="1.0" stroke-width="3.0" />
            <path d=" M 396.494, 773.804 406.055, 770.874 415.616, 767.944 425.177, 765.014 434.738, 762.083 444.732, 759.021 454.293, 756.091 463.854, 753.161 469.800, 751.339 471.033, 761.262 472.266, 771.186 472.772, 775.258 474.006, 785.182 475.239, 795.105 476.472, 805.029 477.705, 814.953 478.938, 824.876 480.172, 834.800 481.405, 844.724 482.638, 854.647 483.871, 864.571 485.105, 874.495 486.338, 884.418 487.571, 894.342 488.804, 904.266 490.038, 914.189 491.271, 924.113 492.504, 934.037 493.737, 943.960 494.971, 953.884 496.204, 963.808 497.437, 973.731 498.670, 983.655 499.904, 993.579 501.137, 1003.502 502.251, 1012.468 500.375, 1022.290 498.499, 1032.113 496.623, 1041.935 494.747, 1051.758 492.871, 1061.580 490.995, 1071.403 489.119, 1081.225 487.243, 1091.048 485.367, 1100.870 483.491, 1110.693 481.616, 1120.515 479.740, 1130.337 477.864, 1140.160 475.988, 1149.982 474.112, 1159.805 472.602, 1167.709 " fill="none" stroke="rgb(0, 0, 0)" stroke-linecap="round" stroke-linejoin="round" stroke-opacity="1.0" stroke-width="3.0" />
            <path d=" M 668.840, 584.635 676.161, 577.823 679.388, 574.821 681.811, 572.566 679.691, 582.339 677.570, 592.111 675.449, 601.884 675.170, 603.170 " fill="none" stroke="rgb(0, 0, 0)" stroke-linecap="round" stroke-linejoin="round" stroke-opacity="1.0" stroke-width="3.0" />
            <path d=" M 952.993, 864.545 947.981, 855.892 942.969, 847.239 937.957, 838.586 932.945, 829.932 927.933, 821.279 922.921, 812.626 917.909, 803.973 912.896, 795.319 907.884, 786.666 902.872, 778.013 897.860, 769.359 892.848, 760.706 887.836, 752.053 882.824, 743.400 877.812, 734.746 872.800, 726.093 867.788, 717.440 862.776, 708.787 859.174, 702.568 853.877, 694.087 848.580, 685.605 843.283, 677.123 837.986, 668.641 832.688, 660.159 827.391, 651.678 822.094, 643.196 816.797, 634.714 815.174, 632.116 805.606, 629.211 796.037, 626.305 786.469, 623.400 776.900, 620.495 768.742, 618.017 758.948, 615.996 749.155, 613.975 739.361, 611.953 729.567, 609.932 719.774, 607.911 709.980, 605.889 700.187, 603.868 690.393, 601.847 684.069, 600.542 683.265, 590.574 682.460, 580.606 681.811, 572.566 " fill="none" stroke="rgb(0, 0, 0)" stroke-linecap="round" stroke-linejoin="round" stroke-opacity="1.0" stroke-width="3.0" />
            <path d=" M 519.383, 807.852 529.349, 807.035 539.316, 806.218 549.282, 805.401 559.249, 804.583 569.215, 803.766 579.182, 802.949 589.148, 802.132 599.115, 801.315 609.082, 800.498 619.048, 799.681 629.010, 798.865 " fill="none" stroke="rgb(0, 0, 0)" stroke-linecap="round" stroke-linejoin="round" stroke-opacity="1.0" stroke-width="3.0" />
            <path d=" M 629.010, 798.865 629.010, 788.865 629.010, 778.865 629.010, 768.865 629.010, 758.865 629.010, 748.865 629.010, 738.865 629.010, 728.865 629.010, 718.865 629.010, 708.865 629.010, 698.865 629.010, 688.865 629.010, 678.865 629.010, 668.865 629.010, 658.865 629.010, 648.865 629.010, 641.086 " fill="none" stroke="rgb(0, 0, 0)" stroke-linecap="round" stroke-linejoin="round" stroke-opacity="1.0" stroke-width="3.0" />
            <path d=" M 513.071, 619.682 503.212, 621.356 493.353, 623.030 483.494, 624.705 473.635, 626.379 463.776, 628.053 453.918, 629.727 444.808, 631.274 438.525, 639.053 432.241, 646.832 425.957, 654.611 419.673, 662.390 413.389, 670.169 412.717, 671.000 404.931, 677.275 397.144, 683.550 389.358, 689.824 381.571, 696.099 373.785, 702.373 365.998, 708.648 358.212, 714.922 354.351, 718.033 " fill="none" stroke="rgb(0, 0, 0)" stroke-linecap="round" stroke-linejoin="round" stroke-opacity="1.0" stroke-width="3.0" />
            <path d=" M 896.607, 880.367 889.059, 882.485 879.431, 885.187 869.802, 887.888 860.174, 890.590 851.345, 893.068 842.013, 896.661 832.681, 900.254 823.349, 903.848 814.017, 907.441 804.685, 911.035 795.353, 914.628 786.021, 918.222 776.689, 921.815 767.357, 925.409 765.943, 925.953 " fill="none" stroke="rgb(0, 0, 0)" stroke-linecap="round" stroke-linejoin="round" stroke-opacity="1.0" stroke-width="3.0" />
            <path d=" M 851.345, 893.068 861.184, 894.851 871.024, 896.635 880.864, 898.418 889.065, 899.905 898.905, 901.689 908.745, 903.472 916.727, 904.919 " fill="none" stroke="rgb(0, 0, 0)" stroke-linecap="round" stroke-linejoin="round" stroke-opacity="1.0" stroke-width="3.0" />
            <path d=" M 411.972, 671.704 404.670, 678.537 397.369, 685.370 390.068, 692.203 382.767, 699.036 375.465, 705.869 368.164, 712.702 362.313, 718.178 355.012, 725.011 350.657, 729.087 " fill="none" stroke="rgb(0, 0, 0)" stroke-linecap="round" stroke-linejoin="round" stroke-opacity="1.0" stroke-width="3.0" />
            <path d=" M 350.657, 729.087 353.827, 719.602 354.351, 718.033 362.144, 711.767 369.937, 705.501 377.731, 699.235 385.524, 692.969 393.317, 686.703 401.111, 680.437 408.904, 674.170 411.972, 671.704 412.708, 671.325 413.297, 671.022 422.189, 666.446 431.081, 661.871 439.973, 657.295 448.865, 652.720 457.757, 648.145 464.661, 644.592 473.553, 640.016 474.996, 639.273 483.888, 634.698 492.780, 630.123 501.672, 625.547 510.564, 620.972 513.071, 619.682 521.963, 615.106 530.854, 610.531 534.674, 608.565 538.262, 599.231 541.850, 589.897 545.439, 580.563 549.027, 571.229 550.280, 567.968 559.849, 565.062 569.417, 562.157 572.849, 561.115 575.179, 560.407 575.521, 560.304 579.941, 558.961 580.991, 558.643 582.077, 558.313 591.645, 555.407 592.056, 555.283 601.625, 552.377 606.775, 550.813 616.344, 547.908 624.660, 545.383 629.010, 544.062 629.010, 544.062 638.579, 541.156 647.089, 538.572 652.543, 536.916 654.793, 543.504 658.025, 552.967 660.550, 560.362 661.410, 562.878 664.642, 572.341 665.885, 575.983 666.391, 577.463 667.433, 580.514 668.840, 584.635 672.072, 594.098 674.440, 601.032 675.170, 603.170 677.849, 611.012 677.912, 611.274 678.891, 615.288 680.532, 622.021 675.929, 623.724 674.839, 624.127 671.927, 625.205 662.549, 628.675 653.170, 632.146 643.792, 635.616 639.796, 637.094 630.418, 640.565 629.010, 641.086 627.743, 641.554 618.365, 645.025 608.986, 648.495 599.608, 651.966 594.053, 654.021 584.296, 654.159 574.297, 654.300 564.298, 654.442 562.265, 654.471 552.266, 654.612 547.484, 654.680 539.289, 660.410 531.093, 666.140 530.703, 666.413 522.507, 672.144 514.312, 677.874 509.770, 681.049 503.762, 685.251 495.566, 690.981 487.371, 696.712 486.131, 697.578 477.936, 703.309 469.741, 709.039 461.545, 714.769 453.350, 720.500 445.155, 726.230 436.959, 731.960 435.138, 733.234 428.241, 740.474 426.313, 742.498 422.717, 746.274 415.820, 753.514 408.923, 760.755 402.026, 767.996 396.494, 773.804 386.516, 774.462 376.537, 775.119 366.559, 775.777 356.581, 776.435 346.602, 777.093 342.747, 777.347 344.364, 767.479 345.982, 757.611 347.599, 747.742 349.217, 737.874 350.657, 729.087 360.011, 725.550 369.365, 722.014 378.725, 718.476 388.079, 714.940 397.433, 711.404 406.787, 707.868 416.141, 704.332 425.494, 700.796 434.848, 697.260 444.202, 693.723 453.556, 690.187 462.910, 686.651 472.264, 683.115 481.618, 679.579 490.972, 676.043 500.326, 672.507 509.680, 668.971 519.034, 665.435 528.388, 661.899 537.742, 658.363 547.484, 654.680 " fill="none" stroke="rgb(0, 0, 0)" stroke-linecap="round" stroke-linejoin="round" stroke-opacity="1.0" stroke-width="3.0" />
            <path d=" M 677.849, 611.012 668.164, 613.503 658.479, 615.994 648.794, 618.484 639.109, 620.975 629.424, 623.465 619.740, 625.956 610.055, 628.447 600.370, 630.937 590.685, 633.428 581.000, 635.919 570.280, 638.675 562.095, 644.421 553.911, 650.167 547.484, 654.680 537.562, 655.926 527.640, 657.173 517.718, 658.419 507.796, 659.666 497.874, 660.912 487.952, 662.159 478.030, 663.405 468.108, 664.651 458.186, 665.898 448.264, 667.144 438.342, 668.391 428.420, 669.637 418.498, 670.884 411.972, 671.704 " fill="none" stroke="rgb(0, 0, 0)" stroke-linecap="round" stroke-linejoin="round" stroke-opacity="1.0" stroke-width="3.0" />
            <path d=" M 547.484, 654.680 544.807, 645.044 542.131, 635.409 539.454, 625.774 536.778, 616.139 536.650, 615.677 534.674, 608.565 542.008, 614.768 549.644, 621.225 557.280, 627.682 564.916, 634.139 570.280, 638.675 " fill="none" stroke="rgb(0, 0, 0)" stroke-linecap="round" stroke-linejoin="round" stroke-opacity="1.0" stroke-width="3.0" />
            <path d=" M 533.888, 1209.938 534.671, 1199.969 535.455, 1190.000 536.238, 1180.030 537.021, 1170.061 537.690, 1161.544 538.474, 1151.575 539.257, 1141.606 540.040, 1131.636 540.824, 1121.667 541.607, 1111.698 542.390, 1101.729 543.174, 1091.759 543.957, 1081.790 544.559, 1074.125 545.342, 1064.156 546.126, 1054.187 546.909, 1044.217 547.692, 1034.248 548.476, 1024.279 549.192, 1015.164 547.768, 1005.266 546.345, 995.368 544.922, 985.470 543.499, 975.572 542.075, 965.673 540.652, 955.775 539.229, 945.877 537.806, 935.979 536.382, 926.081 534.959, 916.182 533.536, 906.284 532.113, 896.386 530.689, 886.488 529.266, 876.589 527.843, 866.691 526.420, 856.793 524.996, 846.895 523.573, 836.997 522.150, 827.099 520.727, 817.200 519.383, 807.852 512.787, 800.335 506.192, 792.818 499.597, 785.301 493.002, 777.784 486.407, 770.267 479.812, 762.750 473.217, 755.233 469.800, 751.339 474.370, 742.444 478.941, 733.550 483.512, 724.656 488.083, 715.761 492.653, 706.867 497.224, 697.973 501.795, 689.078 503.762, 685.251 " fill="none" stroke="rgb(0, 0, 0)" stroke-linecap="round" stroke-linejoin="round" stroke-opacity="1.0" stroke-width="3.0" />
            <path d=" M 678.544, 1264.832 668.547, 1265.039 658.549, 1265.246 648.551, 1265.453 638.553, 1265.659 629.995, 1265.836 629.010, 1265.857 628.025, 1265.836 618.027, 1265.630 608.029, 1265.423 598.032, 1265.216 588.034, 1265.009 579.476, 1264.832 572.764, 1272.245 566.052, 1279.658 559.341, 1287.071 552.629, 1294.484 545.917, 1301.897 539.205, 1309.310 532.493, 1316.722 525.781, 1324.135 519.070, 1331.548 512.358, 1338.961 507.834, 1343.958 517.776, 1345.029 527.719, 1346.100 537.661, 1347.172 547.604, 1348.243 557.546, 1349.314 567.488, 1350.385 577.431, 1351.457 587.373, 1352.528 596.403, 1353.501 " fill="none" stroke="rgb(0, 0, 0)" stroke-linecap="round" stroke-linejoin="round" stroke-opacity="1.0" stroke-width="3.0" />
            <path d=" M 665.885, 575.983 670.510, 572.487 677.941, 566.869 679.852, 565.424 681.571, 564.125 684.794, 554.659 688.017, 545.192 691.240, 535.726 694.464, 526.260 697.687, 516.793 699.256, 512.186 701.160, 506.595 701.166, 506.576 701.166, 506.575 701.168, 506.570 701.169, 506.567 701.828, 504.632 703.117, 501.787 706.089, 495.227 " fill="none" stroke="rgb(0, 0, 0)" stroke-linecap="round" stroke-linejoin="round" stroke-opacity="1.0" stroke-width="3.0" />
            <path d=" M 698.333, 505.424 700.974, 504.826 701.150, 504.786 701.227, 504.768 701.828, 504.632 701.185, 506.082 701.164, 506.130 701.126, 506.214 698.468, 512.205 694.413, 521.346 690.358, 530.486 688.918, 533.732 " fill="none" stroke="rgb(0, 0, 0)" stroke-linecap="round" stroke-linejoin="round" stroke-opacity="1.0" stroke-width="3.0" />
            <path d=" M 757.058, 1002.067 765.981, 997.553 774.904, 993.039 783.828, 988.524 792.751, 984.010 801.674, 979.496 810.597, 974.981 819.520, 970.467 828.443, 965.953 837.366, 961.439 846.289, 956.924 855.212, 952.410 864.135, 947.896 873.058, 943.382 881.981, 938.867 890.904, 934.353 899.828, 929.839 908.751, 925.324 917.674, 920.810 921.250, 919.001 926.286, 910.362 931.322, 901.722 936.358, 893.083 941.394, 884.443 946.430, 875.804 951.466, 867.165 952.993, 864.545 946.311, 871.985 939.628, 879.424 932.946, 886.864 926.263, 894.303 919.849, 901.444 916.727, 904.919 911.493, 908.113 904.085, 912.633 " fill="none" stroke="rgb(0, 0, 0)" stroke-linecap="round" stroke-linejoin="round" stroke-opacity="1.0" stroke-width="3.0" />
            <path d=" M 782.931, 741.650 791.830, 737.088 800.729, 732.527 809.628, 727.965 818.527, 723.404 827.426, 718.842 836.325, 714.281 845.224, 709.719 854.123, 705.157 859.174, 702.568 " fill="none" stroke="rgb(0, 0, 0)" stroke-linecap="round" stroke-linejoin="round" stroke-opacity="1.0" stroke-width="3.0" />
            <path d=" M 677.912, 611.274 682.889, 602.600 684.069, 600.542 693.791, 602.883 703.513, 605.224 713.235, 607.566 722.957, 609.907 732.680, 612.249 742.402, 614.590 752.124, 616.931 761.846, 619.273 771.568, 621.614 781.290, 623.955 791.012, 626.297 800.734, 628.638 810.456, 630.980 815.174, 632.116 812.351, 641.709 809.527, 651.302 806.703, 660.895 803.879, 670.488 801.055, 680.081 798.231, 689.674 795.407, 699.267 792.583, 708.860 789.759, 718.453 786.935, 728.046 784.111, 737.639 782.931, 741.650 " fill="none" stroke="rgb(0, 0, 0)" stroke-linecap="round" stroke-linejoin="round" stroke-opacity="1.0" stroke-width="3.0" />
            <path d=" M 714.553, 501.111 715.037, 491.123 715.521, 481.135 716.006, 471.147 716.490, 461.158 716.974, 451.170 717.458, 441.182 717.942, 431.193 718.426, 421.205 718.910, 411.217 719.394, 401.229 719.878, 391.240 720.362, 381.252 720.531, 377.760 711.604, 373.255 703.351, 369.091 693.377, 368.373 683.402, 367.655 673.428, 366.937 663.454, 366.219 653.480, 365.501 643.802, 364.804 " fill="none" stroke="rgb(0, 0, 0)" stroke-linecap="round" stroke-linejoin="round" stroke-opacity="1.0" stroke-width="3.0" />
            <path d=" M 629.010, 509.280 637.672, 509.185 647.672, 509.076 657.671, 508.967 667.671, 508.857 673.313, 508.796 682.888, 505.909 689.010, 504.063 692.192, 503.103 695.704, 502.044 697.368, 501.543 700.223, 499.475 700.373, 499.366 700.413, 499.337 701.088, 498.849 701.426, 498.603 703.207, 497.313 706.089, 495.227 708.513, 493.471 714.553, 501.111 707.279, 507.973 702.908, 512.096 699.530, 512.179 " fill="none" stroke="rgb(0, 0, 0)" stroke-linecap="round" stroke-linejoin="round" stroke-opacity="1.0" stroke-width="3.0" />
            <path d=" M 702.908, 512.096 703.111, 502.098 703.117, 501.787 " fill="none" stroke="rgb(0, 0, 0)" stroke-linecap="round" stroke-linejoin="round" stroke-opacity="1.0" stroke-width="3.0" />
            <path d=" M 556.852, 506.589 556.852, 506.595 558.490, 512.179 561.306, 521.774 564.121, 531.370 566.937, 540.965 569.752, 550.561 572.568, 560.156 572.849, 561.115 " fill="none" stroke="rgb(0, 0, 0)" stroke-linecap="round" stroke-linejoin="round" stroke-opacity="1.0" stroke-width="3.0" />
            <path d=" M 594.053, 654.021 585.651, 648.598 577.250, 643.175 570.280, 638.675 567.558, 629.053 564.836, 619.430 562.532, 611.282 559.810, 601.660 557.088, 592.037 554.366, 582.415 551.645, 572.792 550.280, 567.968 " fill="none" stroke="rgb(0, 0, 0)" stroke-linecap="round" stroke-linejoin="round" stroke-opacity="1.0" stroke-width="3.0" />
            <path d=" M 529.845, 1208.885 533.888, 1209.938 537.569, 1210.101 547.560, 1210.544 557.550, 1210.987 566.251, 1211.373 576.241, 1211.816 586.231, 1212.259 596.221, 1212.702 606.212, 1213.145 616.202, 1213.588 626.192, 1214.031 629.010, 1214.156 629.010, 1214.156 629.010, 1214.156 639.000, 1213.707 648.990, 1213.259 658.980, 1212.810 668.970, 1212.362 678.960, 1211.913 688.950, 1211.464 692.493, 1211.305 702.483, 1210.857 712.473, 1210.408 720.456, 1210.049 723.249, 1209.924 " fill="none" stroke="rgb(0, 0, 0)" stroke-linecap="round" stroke-linejoin="round" stroke-opacity="1.0" stroke-width="3.0" />
            <path d=" M 629.010, 1214.156 629.010, 1204.156 629.010, 1194.156 629.010, 1184.156 629.010, 1174.156 629.010, 1164.156 629.010, 1160.510 629.010, 1150.510 629.010, 1140.510 629.010, 1130.510 629.010, 1120.510 629.010, 1110.510 629.010, 1100.510 629.010, 1090.510 629.010, 1080.510 629.010, 1070.510 629.010, 1060.510 629.010, 1050.510 629.010, 1040.510 629.010, 1033.895 629.010, 1023.895 629.010, 1014.099 " fill="none" stroke="rgb(0, 0, 0)" stroke-linecap="round" stroke-linejoin="round" stroke-opacity="1.0" stroke-width="3.0" />
            <path d=" M 629.010, 1014.099 621.607, 1014.198 611.608, 1014.331 601.608, 1014.465 591.609, 1014.598 581.610, 1014.732 571.611, 1014.865 565.443, 1014.948 555.444, 1015.081 549.192, 1015.164 539.208, 1014.591 529.225, 1014.017 519.241, 1013.444 509.258, 1012.870 502.251, 1012.468 " fill="none" stroke="rgb(0, 0, 0)" stroke-linecap="round" stroke-linejoin="round" stroke-opacity="1.0" stroke-width="3.0" />
            <path d=" M 785.294, 1167.441 783.414, 1157.619 781.534, 1147.798 779.654, 1137.976 777.774, 1128.154 775.894, 1118.333 774.015, 1108.511 772.135, 1098.689 770.255, 1088.867 768.375, 1079.046 766.495, 1069.224 764.615, 1059.402 762.736, 1049.581 760.856, 1039.759 758.976, 1029.937 757.096, 1020.115 755.764, 1013.156 756.923, 1003.223 757.058, 1002.067 757.519, 998.116 758.679, 988.183 759.838, 978.251 760.771, 970.260 761.930, 960.327 763.090, 950.395 763.338, 948.270 763.471, 947.125 764.497, 938.337 765.656, 928.404 765.943, 925.953 767.102, 916.021 768.261, 906.088 769.421, 896.156 770.580, 886.223 771.739, 876.291 772.899, 866.358 774.058, 856.426 775.217, 846.493 776.377, 836.560 777.536, 826.628 778.696, 816.695 779.855, 806.763 781.014, 796.830 782.174, 786.898 783.333, 776.965 784.492, 767.032 785.542, 758.043 791.937, 765.730 798.332, 773.418 804.727, 781.106 811.122, 788.794 817.517, 796.482 823.912, 804.170 830.307, 811.858 836.702, 819.545 843.098, 827.233 849.493, 834.921 855.888, 842.609 862.283, 850.297 868.678, 857.984 875.073, 865.672 881.468, 873.360 887.863, 881.048 889.059, 882.485 " fill="none" stroke="rgb(0, 0, 0)" stroke-linecap="round" stroke-linejoin="round" stroke-opacity="1.0" stroke-width="3.0" />
            <path d=" M 738.638, 807.852 745.494, 800.571 752.349, 793.291 759.205, 786.011 766.060, 778.731 772.916, 771.451 779.771, 764.170 785.542, 758.043 783.969, 748.167 782.931, 741.650 " fill="none" stroke="rgb(0, 0, 0)" stroke-linecap="round" stroke-linejoin="round" stroke-opacity="1.0" stroke-width="3.0" />
            <path d=" M 879.035, 913.193 888.802, 911.049 898.570, 908.905 908.337, 906.761 916.727, 904.919 910.389, 897.185 904.050, 889.450 897.712, 881.715 896.607, 880.367 890.269, 872.632 883.930, 864.898 877.592, 857.163 871.253, 849.428 864.915, 841.694 858.577, 833.959 852.238, 826.225 845.900, 818.490 839.562, 810.755 833.223, 803.021 826.885, 795.286 820.546, 787.551 814.208, 779.817 807.870, 772.082 801.531, 764.347 795.193, 756.613 788.854, 748.878 782.931, 741.650 777.370, 749.961 771.809, 758.272 766.249, 766.584 760.688, 774.895 755.127, 783.206 749.566, 791.518 744.006, 799.829 738.638, 807.852 737.215, 817.750 735.792, 827.648 734.368, 837.546 732.945, 847.444 731.522, 857.343 730.099, 867.241 728.675, 877.139 727.252, 887.037 725.829, 896.935 724.406, 906.833 722.982, 916.732 721.559, 926.630 720.136, 936.528 719.061, 944.006 717.637, 953.905 716.214, 963.803 714.791, 973.701 713.368, 983.599 711.944, 993.497 710.521, 1003.396 709.098, 1013.294 708.829, 1015.164 709.567, 1025.137 709.635, 1026.059 710.374, 1036.031 711.112, 1046.004 711.851, 1055.977 712.589, 1065.950 713.178, 1073.905 713.916, 1083.877 714.655, 1093.850 715.393, 1103.823 716.131, 1113.795 716.870, 1123.768 717.608, 1133.741 718.346, 1143.714 719.085, 1153.686 719.526, 1159.640 720.264, 1169.613 721.002, 1179.586 721.741, 1189.558 722.479, 1199.531 723.249, 1209.924 " fill="none" stroke="rgb(0, 0, 0)" stroke-linecap="round" stroke-linejoin="round" stroke-opacity="1.0" stroke-width="3.0" />
            <path d=" M 639.796, 637.094 647.872, 642.993 655.947, 648.891 664.022, 654.790 672.097, 660.689 680.172, 666.587 688.247, 672.486 696.322, 678.385 704.397, 684.283 712.472, 690.182 720.547, 696.080 728.622, 701.979 736.697, 707.877 744.772, 713.776 752.847, 719.675 760.922, 725.573 768.997, 731.472 777.072, 737.370 782.931, 741.650 776.031, 734.412 769.131, 727.173 762.231, 719.935 755.331, 712.697 748.431, 705.459 741.531, 698.221 734.631, 690.983 727.731, 683.745 720.831, 676.506 713.932, 669.268 707.032, 662.030 700.132, 654.792 693.232, 647.554 686.332, 640.316 679.432, 633.077 671.927, 625.205 " fill="none" stroke="rgb(0, 0, 0)" stroke-linecap="round" stroke-linejoin="round" stroke-opacity="1.0" stroke-width="3.0" />
            <path d=" M 769.228, 1933.139 759.247, 1932.512 758.307, 1932.453 765.549, 1925.557 772.792, 1918.662 780.034, 1911.766 787.277, 1904.871 794.519, 1897.975 799.144, 1893.572 " fill="none" stroke="rgb(0, 0, 0)" stroke-linecap="round" stroke-linejoin="round" stroke-opacity="1.0" stroke-width="3.0" />
            <path d=" M 752.169, 1996.824 756.515, 1996.838 " fill="none" stroke="rgb(0, 0, 0)" stroke-linecap="round" stroke-linejoin="round" stroke-opacity="1.0" stroke-width="3.0" />
            <path d=" M 738.638, 807.852 728.671, 807.035 718.705, 806.218 708.738, 805.401 698.772, 804.583 688.805, 803.766 678.839, 802.949 668.872, 802.132 658.905, 801.315 648.939, 800.498 638.972, 799.681 629.010, 798.865 629.010, 808.865 629.010, 818.865 629.010, 828.865 629.010, 838.865 629.010, 848.865 629.010, 858.865 629.010, 868.865 629.010, 878.865 629.010, 888.865 629.010, 898.865 629.010, 908.865 629.010, 918.865 629.010, 928.865 629.010, 938.865 629.010, 944.885 629.010, 954.885 629.010, 964.885 629.010, 974.885 629.010, 984.885 629.010, 994.885 629.010, 1004.885 629.010, 1008.440 629.010, 1014.099 636.414, 1014.198 646.413, 1014.331 656.412, 1014.465 666.411, 1014.598 676.410, 1014.732 686.409, 1014.865 696.408, 1014.999 706.408, 1015.132 708.829, 1015.164 718.820, 1014.737 728.811, 1014.309 733.234, 1014.120 743.225, 1013.692 753.216, 1013.265 755.764, 1013.156 " fill="none" stroke="rgb(0, 0, 0)" stroke-linecap="round" stroke-linejoin="round" stroke-opacity="1.0" stroke-width="3.0" />
            <path d=" M 729.074, 1207.871 738.458, 1204.416 747.843, 1200.960 757.227, 1197.505 766.611, 1194.049 775.995, 1190.594 781.305, 1188.639 788.821, 1185.871 793.133, 1184.283 " fill="none" stroke="rgb(0, 0, 0)" stroke-linecap="round" stroke-linejoin="round" stroke-opacity="1.0" stroke-width="3.0" />
            <path d=" M 396.494, 773.804 389.336, 766.821 382.178, 759.837 375.020, 752.854 367.862, 745.871 360.704, 738.888 353.546, 731.905 350.657, 729.087 360.645, 729.577 370.633, 730.067 380.621, 730.557 390.609, 731.048 400.597, 731.538 410.253, 732.012 420.241, 732.502 430.229, 732.993 435.138, 733.234 " fill="none" stroke="rgb(0, 0, 0)" stroke-linecap="round" stroke-linejoin="round" stroke-opacity="1.0" stroke-width="3.0" />
            <path d=" M 856.169, 1951.009 846.204, 1950.178 836.238, 1949.347 826.273, 1948.516 816.308, 1947.684 806.342, 1946.853 796.377, 1946.022 786.411, 1945.191 776.446, 1944.360 767.143, 1943.584 764.139, 1943.333 763.862, 1953.329 763.646, 1961.108 763.368, 1971.104 763.091, 1981.101 762.813, 1991.097 762.653, 1996.858 762.653, 1996.858 762.653, 1996.858 762.653, 1996.858 " fill="none" stroke="rgb(0, 0, 0)" stroke-linecap="round" stroke-linejoin="round" stroke-opacity="1.0" stroke-width="3.0" />
            <path d=" M 866.243, 1997.195 856.243, 1997.162 854.193, 1997.156 " fill="none" stroke="rgb(0, 0, 0)" stroke-linecap="round" stroke-linejoin="round" stroke-opacity="1.0" stroke-width="3.0" />
            <path d=" M 488.793, 1933.139 482.762, 1925.163 476.731, 1917.186 470.700, 1909.209 464.669, 1901.233 458.876, 1893.572 " fill="none" stroke="rgb(0, 0, 0)" stroke-linecap="round" stroke-linejoin="round" stroke-opacity="1.0" stroke-width="3.0" />
            <path d=" M 458.876, 1893.572 451.395, 1900.207 443.913, 1906.842 436.432, 1913.478 428.951, 1920.113 421.469, 1926.749 413.988, 1933.384 407.032, 1939.554 417.001, 1938.772 426.970, 1937.990 436.940, 1937.208 446.909, 1936.425 456.878, 1935.643 466.848, 1934.861 476.817, 1934.079 486.786, 1933.297 488.793, 1933.139 498.773, 1932.512 499.714, 1932.452 492.471, 1925.557 485.229, 1918.662 477.986, 1911.766 470.744, 1904.871 463.501, 1897.975 458.876, 1893.572 451.190, 1899.969 443.505, 1906.367 435.819, 1912.764 428.133, 1919.162 420.448, 1925.560 418.036, 1927.567 " fill="none" stroke="rgb(0, 0, 0)" stroke-linecap="round" stroke-linejoin="round" stroke-opacity="1.0" stroke-width="3.0" />
            <path d=" M 629.010, 476.748 629.010, 466.748 629.010, 456.748 629.010, 446.748 629.010, 436.748 629.010, 426.748 629.010, 416.748 629.010, 406.748 629.010, 396.748 629.010, 391.668 629.010, 381.668 629.010, 371.668 629.010, 364.804 " fill="none" stroke="rgb(0, 0, 0)" stroke-linecap="round" stroke-linejoin="round" stroke-opacity="1.0" stroke-width="3.0" />
            <path d=" M 554.670, 369.091 555.069, 379.083 555.467, 389.075 555.866, 399.067 556.105, 405.043 556.504, 415.035 556.903, 425.027 557.302, 435.020 557.700, 445.012 558.099, 455.004 558.498, 464.996 558.811, 472.823 559.210, 482.815 559.278, 484.542 559.456, 488.991 " fill="none" stroke="rgb(0, 0, 0)" stroke-linecap="round" stroke-linejoin="round" stroke-opacity="1.0" stroke-width="3.0" />
            <path d=" M 559.456, 488.991 569.305, 487.258 579.153, 485.524 589.002, 483.790 598.850, 482.057 608.699, 480.323 618.548, 478.589 629.010, 476.748 638.859, 478.481 648.707, 480.215 658.556, 481.948 668.405, 483.682 678.253, 485.416 688.102, 487.149 698.564, 488.991 " fill="none" stroke="rgb(0, 0, 0)" stroke-linecap="round" stroke-linejoin="round" stroke-opacity="1.0" stroke-width="3.0" />
            <path d=" M 543.647, 1704.092 533.717, 1702.916 523.786, 1701.739 513.856, 1700.562 503.925, 1699.385 493.995, 1698.208 484.064, 1697.032 474.134, 1695.855 473.281, 1695.754 463.358, 1694.518 453.435, 1693.282 443.511, 1692.046 433.588, 1690.810 423.738, 1689.583 " fill="none" stroke="rgb(0, 0, 0)" stroke-linecap="round" stroke-linejoin="round" stroke-opacity="1.0" stroke-width="3.0" />
            <path d=" M 839.985, 1927.567 832.299, 1921.170 824.613, 1914.772 816.928, 1908.374 809.242, 1901.977 801.556, 1895.579 799.144, 1893.572 793.113, 1901.548 787.082, 1909.525 781.051, 1917.501 775.020, 1925.478 769.228, 1933.139 779.197, 1933.922 789.166, 1934.704 799.136, 1935.486 809.105, 1936.268 819.074, 1937.050 829.044, 1937.832 839.013, 1938.615 848.982, 1939.397 850.989, 1939.554 843.508, 1932.919 836.026, 1926.283 828.545, 1919.648 821.064, 1913.012 813.582, 1906.377 806.101, 1899.742 799.144, 1893.572 " fill="none" stroke="rgb(0, 0, 0)" stroke-linecap="round" stroke-linejoin="round" stroke-opacity="1.0" stroke-width="3.0" />
            <path d=" M 401.851, 1951.009 411.817, 1950.178 421.782, 1949.347 431.748, 1948.516 441.713, 1947.684 451.678, 1946.853 461.644, 1946.022 471.609, 1945.191 481.575, 1944.359 490.877, 1943.584 493.881, 1943.333 494.159, 1953.329 494.375, 1961.108 494.652, 1971.104 494.930, 1981.101 495.207, 1991.097 495.367, 1996.858 495.367, 1996.858 495.367, 1996.858 " fill="none" stroke="rgb(0, 0, 0)" stroke-linecap="round" stroke-linejoin="round" stroke-opacity="1.0" stroke-width="3.0" />
            <path d=" M 692.493, 1211.305 682.537, 1212.240 672.581, 1213.174 662.625, 1214.109 652.669, 1215.044 642.712, 1215.978 632.756, 1216.913 629.010, 1217.265 619.054, 1216.330 609.098, 1215.395 599.142, 1214.461 589.185, 1213.526 579.229, 1212.591 569.273, 1211.657 566.251, 1211.373 " fill="none" stroke="rgb(0, 0, 0)" stroke-linecap="round" stroke-linejoin="round" stroke-opacity="1.0" stroke-width="3.0" />
            <path d=" M 629.010, 1265.857 629.010, 1263.106 629.010, 1263.106 629.010, 1253.106 629.010, 1243.106 629.010, 1233.106 629.010, 1223.106 629.010, 1217.265 629.010, 1214.156 " fill="none" stroke="rgb(0, 0, 0)" stroke-linecap="round" stroke-linejoin="round" stroke-opacity="1.0" stroke-width="3.0" />
            <path d=" M 493.564, 1483.755 500.922, 1490.527 508.280, 1497.298 515.639, 1504.070 522.997, 1510.841 530.355, 1517.613 537.714, 1524.385 545.072, 1531.156 552.430, 1537.928 559.789, 1544.700 561.722, 1546.479 552.707, 1550.806 543.692, 1555.133 534.676, 1559.460 525.661, 1563.786 516.645, 1568.113 507.630, 1572.440 498.614, 1576.767 489.599, 1581.094 484.961, 1583.320 " fill="none" stroke="rgb(0, 0, 0)" stroke-linecap="round" stroke-linejoin="round" stroke-opacity="1.0" stroke-width="3.0" />
            <path d=" M 678.544, 1264.832 685.256, 1272.245 691.968, 1279.658 698.680, 1287.071 705.392, 1294.484 712.104, 1301.897 718.815, 1309.310 725.527, 1316.722 732.239, 1324.135 738.951, 1331.548 745.663, 1338.961 750.187, 1343.958 760.118, 1342.789 770.050, 1341.620 779.981, 1340.452 789.913, 1339.283 799.844, 1338.114 809.776, 1336.945 816.366, 1336.170 " fill="none" stroke="rgb(0, 0, 0)" stroke-linecap="round" stroke-linejoin="round" stroke-opacity="1.0" stroke-width="3.0" />
            <path d=" M 714.373, 1704.092 724.304, 1702.916 734.234, 1701.739 744.165, 1700.562 754.095, 1699.385 764.026, 1698.208 773.956, 1697.032 783.887, 1695.855 784.739, 1695.754 794.663, 1694.518 804.586, 1693.282 814.509, 1692.046 824.432, 1690.810 834.282, 1689.583 " fill="none" stroke="rgb(0, 0, 0)" stroke-linecap="round" stroke-linejoin="round" stroke-opacity="1.0" stroke-width="3.0" />
            <path d=" M 528.946, 1207.871 519.562, 1204.416 510.178, 1200.960 500.794, 1197.505 491.410, 1194.049 482.026, 1190.594 476.193, 1188.446 469.138, 1185.848 464.888, 1184.283 " fill="none" stroke="rgb(0, 0, 0)" stroke-linecap="round" stroke-linejoin="round" stroke-opacity="1.0" stroke-width="3.0" />
            <path d=" M 629.010, 476.748 638.411, 480.157 647.812, 483.567 657.212, 486.977 666.613, 490.387 676.014, 493.797 685.414, 497.207 694.815, 500.617 697.368, 501.543 698.317, 491.588 698.564, 488.991 698.742, 484.542 699.141, 474.550 699.210, 472.823 699.609, 462.831 700.008, 452.839 700.406, 442.847 700.805, 432.855 701.204, 422.863 701.603, 412.871 701.916, 405.043 702.314, 395.051 702.713, 385.059 703.112, 375.067 703.351, 369.091 703.765, 379.082 704.180, 389.073 704.595, 399.065 705.009, 409.056 705.424, 419.048 705.839, 429.039 706.253, 439.030 706.668, 449.022 707.083, 459.013 707.497, 469.005 707.912, 478.996 708.046, 482.223 708.376, 490.177 708.513, 493.471 707.160, 492.862 702.929, 490.957 701.691, 490.399 700.996, 490.086 699.266, 489.307 698.564, 488.991 " fill="none" stroke="rgb(0, 0, 0)" stroke-linecap="round" stroke-linejoin="round" stroke-opacity="1.0" stroke-width="3.0" />
            <path d=" M 629.010, 509.280 629.010, 499.280 629.010, 489.280 629.010, 479.280 629.010, 476.748 " fill="none" stroke="rgb(0, 0, 0)" stroke-linecap="round" stroke-linejoin="round" stroke-opacity="1.0" stroke-width="3.0" />
            <path d=" M 629.010, 476.748 620.908, 482.609 612.806, 488.470 604.703, 494.331 596.601, 500.192 588.499, 506.053 584.707, 508.796 " fill="none" stroke="rgb(0, 0, 0)" stroke-linecap="round" stroke-linejoin="round" stroke-opacity="1.0" stroke-width="3.0" />
            <path d=" M 673.313, 508.796 665.211, 502.935 657.109, 497.073 649.006, 491.212 640.904, 485.351 632.802, 479.490 629.010, 476.748 619.610, 480.157 610.209, 483.567 600.808, 486.977 591.408, 490.387 582.007, 493.797 572.606, 497.207 563.206, 500.617 560.653, 501.543 559.704, 491.588 559.456, 488.991 558.754, 489.307 557.024, 490.086 556.330, 490.399 555.085, 490.959 550.855, 492.865 549.508, 493.471 " fill="none" stroke="rgb(0, 0, 0)" stroke-linecap="round" stroke-linejoin="round" stroke-opacity="1.0" stroke-width="3.0" />
            <path d=" M 688.918, 533.732 686.568, 543.452 684.219, 553.172 681.869, 562.892 681.571, 564.125 671.590, 563.507 661.410, 562.878 " fill="none" stroke="rgb(0, 0, 0)" stroke-linecap="round" stroke-linejoin="round" stroke-opacity="1.0" stroke-width="3.0" />
            <path d=" M 700.223, 499.475 698.333, 505.424 697.943, 506.595 696.058, 512.264 692.902, 521.753 689.746, 531.241 688.918, 533.732 683.371, 538.939 676.080, 545.783 674.795, 546.990 674.391, 547.368 667.101, 554.213 660.550, 560.362 " fill="none" stroke="rgb(0, 0, 0)" stroke-linecap="round" stroke-linejoin="round" stroke-opacity="1.0" stroke-width="3.0" />
            <path d=" M 556.186, 504.632 556.793, 504.770 556.871, 504.787 557.047, 504.827 559.681, 505.424 " fill="none" stroke="rgb(0, 0, 0)" stroke-linecap="round" stroke-linejoin="round" stroke-opacity="1.0" stroke-width="3.0" />
            <path d=" M 592.056, 555.283 584.765, 548.439 583.469, 547.222 583.225, 546.993 575.934, 540.149 574.652, 538.946 569.097, 533.732 565.941, 524.243 562.784, 514.754 561.956, 512.263 560.070, 506.595 559.681, 505.424 557.789, 499.468 " fill="none" stroke="rgb(0, 0, 0)" stroke-linecap="round" stroke-linejoin="round" stroke-opacity="1.0" stroke-width="3.0" />
            <path d=" M 569.097, 533.732 571.447, 543.452 573.797, 553.172 575.521, 560.304 " fill="none" stroke="rgb(0, 0, 0)" stroke-linecap="round" stroke-linejoin="round" stroke-opacity="1.0" stroke-width="3.0" />
            <path d=" M 556.186, 504.632 556.836, 506.098 556.857, 506.145 556.893, 506.226 559.545, 512.205 563.601, 521.345 567.657, 530.486 569.097, 533.732 " fill="none" stroke="rgb(0, 0, 0)" stroke-linecap="round" stroke-linejoin="round" stroke-opacity="1.0" stroke-width="3.0" />
            <path d=" M 551.921, 495.219 554.904, 501.803 556.186, 504.632 556.852, 506.589 556.852, 506.589 556.853, 506.591 556.853, 506.591 556.854, 506.595 558.758, 512.185 561.981, 521.651 565.205, 531.118 568.428, 540.584 571.652, 550.050 574.876, 559.516 575.179, 560.407 " fill="none" stroke="rgb(0, 0, 0)" stroke-linecap="round" stroke-linejoin="round" stroke-opacity="1.0" stroke-width="3.0" />
            <path d=" M 672.757, 133.127 662.757, 133.127 652.757, 133.127 642.757, 133.127 632.757, 133.127 622.757, 133.127 612.757, 133.127 602.757, 133.127 592.757, 133.127 585.264, 133.127 585.264, 143.127 585.264, 153.127 585.264, 163.127 585.264, 173.127 585.264, 183.127 585.264, 193.127 585.264, 203.127 585.264, 213.127 585.264, 223.127 585.264, 233.127 585.264, 243.127 585.264, 248.970 " fill="none" stroke="rgb(0, 0, 0)" stroke-linecap="round" stroke-linejoin="round" stroke-opacity="1.0" stroke-width="3.0" />
            <path d=" M 585.264, 248.970 595.264, 248.970 605.264, 248.970 615.264, 248.970 625.264, 248.970 635.264, 248.970 645.264, 248.970 655.264, 248.970 665.264, 248.970 672.757, 248.970 " fill="none" stroke="rgb(0, 0, 0)" stroke-linecap="round" stroke-linejoin="round" stroke-opacity="1.0" stroke-width="3.0" />
            <path d=" M 629.010, 364.804 639.010, 364.804 643.802, 364.804 653.802, 364.804 663.802, 364.804 672.757, 364.804 672.757, 354.804 672.757, 344.804 672.757, 334.804 672.757, 324.804 672.757, 314.804 672.757, 304.804 672.757, 294.804 672.757, 284.804 672.757, 274.804 672.757, 264.804 672.757, 254.804 672.757, 248.970 672.757, 238.970 672.757, 228.970 672.757, 218.970 672.757, 208.970 672.757, 198.970 672.757, 188.970 672.757, 178.970 672.757, 168.970 672.757, 158.970 672.757, 148.970 672.757, 138.970 672.757, 133.127 662.757, 133.127 652.757, 133.127 642.757, 133.127 632.757, 133.127 622.757, 133.127 612.757, 133.127 602.757, 133.127 592.757, 133.127 585.264, 133.127 " fill="none" stroke="rgb(0, 0, 0)" stroke-linecap="round" stroke-linejoin="round" stroke-opacity="1.0" stroke-width="3.0" />
            <path d=" M 585.264, 248.970 585.264, 258.970 585.264, 268.970 585.264, 278.970 585.264, 288.970 585.264, 298.970 585.264, 308.970 585.264, 318.970 585.264, 328.970 585.264, 338.970 585.264, 348.970 585.264, 358.970 585.264, 364.804 595.264, 364.804 605.264, 364.804 614.218, 364.804 624.218, 364.804 629.010, 364.804 " fill="none" stroke="rgb(0, 0, 0)" stroke-linecap="round" stroke-linejoin="round" stroke-opacity="1.0" stroke-width="3.0" />
            <path d=" M 444.732, 759.021 453.385, 764.032 462.039, 769.043 470.693, 774.054 472.772, 775.258 " fill="none" stroke="rgb(0, 0, 0)" stroke-linecap="round" stroke-linejoin="round" stroke-opacity="1.0" stroke-width="3.0" />
            <path d=" M 413.297, 671.022 412.717, 671.000 " fill="none" stroke="rgb(0, 0, 0)" stroke-linecap="round" stroke-linejoin="round" stroke-opacity="1.0" stroke-width="3.0" />
            <path d=" M 464.661, 644.592 456.356, 639.021 448.052, 633.450 444.808, 631.274 " fill="none" stroke="rgb(0, 0, 0)" stroke-linecap="round" stroke-linejoin="round" stroke-opacity="1.0" stroke-width="3.0" />
            <path d=" M 509.770, 681.049 510.526, 691.021 511.282, 700.992 512.038, 710.964 512.794, 720.935 513.550, 730.906 514.306, 740.878 515.062, 750.849 515.817, 760.821 516.573, 770.792 517.329, 780.763 518.085, 790.735 518.841, 800.706 519.383, 807.852 " fill="none" stroke="rgb(0, 0, 0)" stroke-linecap="round" stroke-linejoin="round" stroke-opacity="1.0" stroke-width="3.0" />
            <path d=" M 554.904, 501.803 555.106, 511.801 555.112, 512.096 " fill="none" stroke="rgb(0, 0, 0)" stroke-linecap="round" stroke-linejoin="round" stroke-opacity="1.0" stroke-width="3.0" />
            <path d=" M 560.070, 506.595 562.250, 506.595 " fill="none" stroke="rgb(0, 0, 0)" stroke-linecap="round" stroke-linejoin="round" stroke-opacity="1.0" stroke-width="3.0" />
            <path d=" M 556.853, 506.591 556.852, 506.595 " fill="none" stroke="rgb(0, 0, 0)" stroke-linecap="round" stroke-linejoin="round" stroke-opacity="1.0" stroke-width="3.0" />
            <path d=" M 562.265, 654.471 552.912, 658.010 543.559, 661.549 534.207, 665.088 530.703, 666.413 " fill="none" stroke="rgb(0, 0, 0)" stroke-linecap="round" stroke-linejoin="round" stroke-opacity="1.0" stroke-width="3.0" />
            <path d=" M 629.010, 364.804 629.010, 363.739 " fill="none" stroke="rgb(0, 0, 0)" stroke-linecap="round" stroke-linejoin="round" stroke-opacity="1.0" stroke-width="3.0" />
            <path d=" M 629.010, 544.062 629.010, 539.576 " fill="none" stroke="rgb(0, 0, 0)" stroke-linecap="round" stroke-linejoin="round" stroke-opacity="1.0" stroke-width="3.0" />
            <path d=" M 637.672, 509.185 639.076, 513.655 642.070, 523.196 644.549, 531.091 " fill="none" stroke="rgb(0, 0, 0)" stroke-linecap="round" stroke-linejoin="round" stroke-opacity="1.0" stroke-width="3.0" />
            <path d=" M 643.802, 364.804 653.802, 364.804 663.802, 364.804 672.757, 364.804 " fill="none" stroke="rgb(0, 0, 0)" stroke-linecap="round" stroke-linejoin="round" stroke-opacity="1.0" stroke-width="3.0" />
            <path d=" M 585.264, 248.970 595.264, 248.970 605.264, 248.970 615.264, 248.970 625.264, 248.970 635.264, 248.970 645.264, 248.970 655.264, 248.970 665.264, 248.970 672.757, 248.970 " fill="none" stroke="rgb(0, 0, 0)" stroke-linecap="round" stroke-linejoin="round" stroke-opacity="1.0" stroke-width="3.0" />
            <path d=" M 683.371, 538.939 686.951, 529.601 690.530, 520.264 693.574, 512.324 695.771, 506.595 695.704, 502.044 " fill="none" stroke="rgb(0, 0, 0)" stroke-linecap="round" stroke-linejoin="round" stroke-opacity="1.0" stroke-width="3.0" />
            <path d=" M 667.433, 580.514 668.909, 576.663 670.510, 572.487 " fill="none" stroke="rgb(0, 0, 0)" stroke-linecap="round" stroke-linejoin="round" stroke-opacity="1.0" stroke-width="3.0" />
            <path d=" M 701.160, 506.595 701.168, 506.595 " fill="none" stroke="rgb(0, 0, 0)" stroke-linecap="round" stroke-linejoin="round" stroke-opacity="1.0" stroke-width="3.0" />
            <path d=" M 674.839, 624.127 684.823, 624.696 694.806, 625.264 704.790, 625.832 714.774, 626.401 724.758, 626.969 734.742, 627.537 744.726, 628.106 754.709, 628.674 764.693, 629.242 774.677, 629.811 784.661, 630.379 794.645, 630.947 804.629, 631.516 815.174, 632.116 " fill="none" stroke="rgb(0, 0, 0)" stroke-linecap="round" stroke-linejoin="round" stroke-opacity="1.0" stroke-width="3.0" />
        </g>
    </g>
</svg>
