<?xml version='1.0' encoding='ascii'?>
<svg xmlns="http://www.w3.org/2000/svg" version="1.1" width="1001" height="2138">
    <g id="View Layer_LineSet" xmlns:inkscape="http://www.inkscape.org/namespaces/inkscape" inkscape:groupmode="lineset" inkscape:label="View Layer_LineSet">
        <g xmlns:inkscape="http://www.inkscape.org/namespaces/inkscape" inkscape:groupmode="layer" id="strokes" inkscape:label="strokes">
            <path fill="none" stroke-width="3.0" stroke-linecap="round" stroke-opacity="1.0" stroke="rgb(0, 0, 0)" stroke-linejoin="round" d=" M 522.997, 679.183 527.320, 671.918 " />
            <path fill="none" stroke-width="3.0" stroke-linecap="round" stroke-opacity="1.0" stroke="rgb(0, 0, 0)" stroke-linejoin="round" d=" M 550.389, 633.151 550.156, 633.154 " />
            <path fill="none" stroke-width="3.0" stroke-linecap="round" stroke-opacity="1.0" stroke="rgb(0, 0, 0)" stroke-linejoin="round" d=" M 475.395, 633.016 474.199, 637.377 473.810, 638.797 473.686, 639.249 474.058, 639.177 474.414, 639.109 476.657, 638.675 485.794, 636.911 " />
            <path fill="none" stroke-width="3.0" stroke-linecap="round" stroke-opacity="1.0" stroke="rgb(0, 0, 0)" stroke-linejoin="round" d=" M 489.676, 674.273 489.362, 669.918 " />
            <path fill="none" stroke-width="3.0" stroke-linecap="round" stroke-opacity="1.0" stroke="rgb(0, 0, 0)" stroke-linejoin="round" d=" M 503.031, 1615.499 500.447, 1605.839 498.994, 1600.408 498.387, 1598.139 495.803, 1588.479 493.218, 1578.818 490.634, 1569.158 489.268, 1564.053 486.684, 1554.393 485.868, 1551.343 483.284, 1541.682 482.651, 1539.317 480.946, 1532.945 478.362, 1523.285 476.061, 1514.685 472.968, 1505.176 469.875, 1495.666 466.781, 1486.156 463.688, 1476.647 462.862, 1474.105 459.768, 1464.596 457.149, 1456.544 458.519, 1446.638 458.893, 1443.939 460.263, 1434.033 461.633, 1424.128 463.003, 1414.222 464.373, 1404.316 465.743, 1394.410 467.113, 1384.505 468.484, 1374.599 469.080, 1370.285 471.020, 1360.475 472.960, 1350.665 474.901, 1340.855 476.841, 1331.045 478.781, 1321.235 480.721, 1311.425 482.661, 1301.615 484.601, 1291.805 486.541, 1281.995 488.481, 1272.185 490.421, 1262.375 490.891, 1260.002 493.509, 1250.351 496.128, 1240.700 498.746, 1231.049 501.365, 1221.397 503.983, 1211.746 506.602, 1202.095 509.221, 1192.444 511.839, 1182.793 514.458, 1173.142 517.076, 1163.491 517.927, 1160.356 520.545, 1150.705 521.604, 1146.802 " />
            <path fill="none" stroke-width="3.0" stroke-linecap="round" stroke-opacity="1.0" stroke="rgb(0, 0, 0)" stroke-linejoin="round" d=" M 490.891, 1260.002 490.211, 1250.025 489.531, 1240.048 488.851, 1230.071 488.171, 1220.094 487.491, 1210.117 486.811, 1200.141 486.385, 1193.886 484.635, 1203.731 482.885, 1213.577 481.136, 1223.423 479.929, 1230.213 478.179, 1240.059 476.429, 1249.905 474.680, 1259.750 472.930, 1269.596 472.149, 1273.992 471.948, 1275.122 470.198, 1284.968 468.449, 1294.814 466.699, 1304.660 464.949, 1314.505 463.472, 1322.818 461.722, 1332.664 459.973, 1342.509 458.223, 1352.355 457.531, 1356.248 457.493, 1366.248 457.455, 1376.248 457.417, 1386.248 457.379, 1396.248 457.370, 1398.474 457.337, 1407.352 457.298, 1417.352 457.260, 1427.352 457.245, 1431.414 457.207, 1441.414 457.169, 1451.414 457.149, 1456.544 " />
            <path fill="none" stroke-width="3.0" stroke-linecap="round" stroke-opacity="1.0" stroke="rgb(0, 0, 0)" stroke-linejoin="round" d=" M 457.531, 1356.248 463.885, 1363.970 469.080, 1370.285 477.804, 1375.174 486.527, 1380.064 495.250, 1384.953 503.974, 1389.842 512.697, 1394.731 521.420, 1399.620 530.144, 1404.509 538.867, 1409.398 547.590, 1414.287 552.276, 1416.913 " />
            <path fill="none" stroke-width="3.0" stroke-linecap="round" stroke-opacity="1.0" stroke="rgb(0, 0, 0)" stroke-linejoin="round" d=" M 545.293, 1744.455 542.541, 1734.841 539.789, 1725.227 537.037, 1715.613 534.285, 1705.999 531.657, 1696.819 " />
            <path fill="none" stroke-width="3.0" stroke-linecap="round" stroke-opacity="1.0" stroke="rgb(0, 0, 0)" stroke-linejoin="round" d=" M 531.657, 1696.819 526.035, 1705.089 520.413, 1713.359 514.791, 1721.629 510.415, 1728.065 " />
            <path fill="none" stroke-width="3.0" stroke-linecap="round" stroke-opacity="1.0" stroke="rgb(0, 0, 0)" stroke-linejoin="round" d=" M 418.744, 1696.477 427.506, 1699.496 436.960, 1702.754 446.415, 1706.012 455.869, 1709.269 465.324, 1712.527 474.778, 1715.785 484.233, 1719.043 493.687, 1722.300 503.142, 1725.558 510.415, 1728.065 511.174, 1738.036 511.933, 1748.007 512.691, 1757.978 513.450, 1767.949 513.627, 1770.277 " />
            <path fill="none" stroke-width="3.0" stroke-linecap="round" stroke-opacity="1.0" stroke="rgb(0, 0, 0)" stroke-linejoin="round" d=" M 498.994, 1600.408 493.806, 1608.957 488.617, 1617.506 483.428, 1626.054 478.240, 1634.603 473.051, 1643.151 467.863, 1651.700 463.987, 1658.086 456.362, 1664.556 448.737, 1671.026 445.957, 1673.386 438.940, 1679.339 431.315, 1685.809 423.691, 1692.280 418.744, 1696.477 418.079, 1705.084 417.308, 1715.054 416.537, 1725.024 415.818, 1734.330 425.204, 1737.780 434.590, 1741.229 443.976, 1744.679 453.363, 1748.129 462.749, 1751.578 472.135, 1755.028 481.521, 1758.478 490.907, 1761.927 500.293, 1765.377 509.680, 1768.827 513.627, 1770.277 521.377, 1763.958 529.127, 1757.638 536.877, 1751.318 544.627, 1744.998 545.293, 1744.455 550.278, 1735.785 555.263, 1727.116 560.247, 1718.447 565.232, 1709.778 570.216, 1701.109 575.201, 1692.440 580.185, 1683.770 585.170, 1675.101 590.154, 1666.432 595.139, 1657.763 600.123, 1649.094 605.108, 1640.425 610.093, 1631.755 615.077, 1623.086 620.062, 1614.417 621.009, 1612.769 620.229, 1602.799 619.450, 1592.830 618.670, 1582.860 617.890, 1572.891 617.110, 1562.921 616.331, 1552.952 615.551, 1542.982 614.984, 1535.740 605.009, 1536.444 595.034, 1537.148 588.832, 1537.586 587.525, 1527.672 586.217, 1517.758 584.910, 1507.844 583.603, 1497.930 582.296, 1488.015 580.989, 1478.101 579.682, 1468.187 578.879, 1462.100 577.572, 1452.185 576.265, 1442.271 574.958, 1432.357 573.651, 1422.443 572.344, 1412.529 571.179, 1403.696 568.080, 1394.188 564.981, 1384.681 564.631, 1383.605 " />
            <path fill="none" stroke-width="3.0" stroke-linecap="round" stroke-opacity="1.0" stroke="rgb(0, 0, 0)" stroke-linejoin="round" d=" M 550.389, 633.151 552.991, 631.596 " />
            <path fill="none" stroke-width="3.0" stroke-linecap="round" stroke-opacity="1.0" stroke="rgb(0, 0, 0)" stroke-linejoin="round" d=" M 406.838, 1079.414 407.185, 1089.408 407.532, 1099.402 407.879, 1109.396 408.227, 1119.390 408.574, 1129.384 408.921, 1139.378 409.268, 1149.372 409.615, 1159.366 409.962, 1169.360 410.015, 1170.878 412.335, 1180.605 414.656, 1190.332 416.977, 1200.059 419.297, 1209.786 421.618, 1219.513 423.938, 1229.240 426.259, 1238.968 428.579, 1248.695 430.900, 1258.422 431.630, 1261.483 433.487, 1271.310 435.343, 1281.136 437.200, 1290.962 439.057, 1300.788 440.913, 1310.614 442.770, 1320.440 444.430, 1329.227 445.656, 1339.152 446.882, 1349.077 448.107, 1359.001 449.333, 1368.926 450.559, 1378.850 451.785, 1388.775 453.011, 1398.700 454.084, 1407.385 455.388, 1417.300 456.692, 1427.215 457.245, 1431.414 " />
            <path fill="none" stroke-width="3.0" stroke-linecap="round" stroke-opacity="1.0" stroke="rgb(0, 0, 0)" stroke-linejoin="round" d=" M 550.389, 633.151 550.285, 633.083 " />
            <path fill="none" stroke-width="3.0" stroke-linecap="round" stroke-opacity="1.0" stroke="rgb(0, 0, 0)" stroke-linejoin="round" d=" M 517.213, 674.583 512.909, 665.556 511.507, 662.615 " />
            <path fill="none" stroke-width="3.0" stroke-linecap="round" stroke-opacity="1.0" stroke="rgb(0, 0, 0)" stroke-linejoin="round" d=" M 559.001, 628.294 558.355, 629.252 552.514, 637.369 551.648, 638.573 545.808, 646.690 542.827, 650.834 539.013, 652.268 536.953, 653.043 535.175, 653.712 535.057, 653.756 525.698, 657.277 525.279, 657.434 517.974, 660.182 514.545, 661.472 511.507, 662.615 504.860, 661.363 496.592, 659.806 488.523, 658.286 486.227, 657.854 486.093, 657.648 480.634, 649.270 477.700, 644.766 475.204, 640.935 474.306, 639.557 474.058, 639.177 " />
            <path fill="none" stroke-width="3.0" stroke-linecap="round" stroke-opacity="1.0" stroke="rgb(0, 0, 0)" stroke-linejoin="round" d=" M 486.227, 657.854 486.227, 667.921 486.227, 669.393 " />
            <path fill="none" stroke-width="3.0" stroke-linecap="round" stroke-opacity="1.0" stroke="rgb(0, 0, 0)" stroke-linejoin="round" d=" M 465.598, 629.347 468.346, 638.962 468.728, 640.299 469.235, 641.142 472.585, 646.712 477.739, 655.281 478.815, 657.070 483.338, 664.590 486.227, 669.393 487.106, 669.540 489.362, 669.918 493.904, 670.679 503.766, 672.331 513.629, 673.983 517.213, 674.583 520.401, 673.742 526.249, 672.200 527.320, 671.918 534.542, 670.014 536.395, 669.526 540.183, 664.664 541.885, 662.480 545.551, 657.775 551.698, 649.887 557.844, 641.999 559.571, 639.782 565.717, 631.894 571.864, 624.006 574.244, 620.952 575.601, 619.437 " />
            <path fill="none" stroke-width="3.0" stroke-linecap="round" stroke-opacity="1.0" stroke="rgb(0, 0, 0)" stroke-linejoin="round" d=" M 363.343, 919.892 372.513, 923.882 381.683, 927.871 390.852, 931.861 400.022, 935.851 409.191, 939.841 418.361, 943.830 420.540, 944.778 429.710, 948.768 438.879, 952.758 442.663, 954.404 451.832, 958.394 461.002, 962.384 463.683, 963.550 472.853, 967.540 482.022, 971.530 491.192, 975.520 500.362, 979.509 509.531, 983.499 518.701, 987.489 527.870, 991.479 537.040, 995.469 546.210, 999.458 555.379, 1003.448 564.549, 1007.438 573.719, 1011.428 579.776, 1014.063 589.720, 1013.006 599.664, 1011.949 609.608, 1010.891 619.552, 1009.834 629.496, 1008.777 639.440, 1007.720 649.384, 1006.663 655.834, 1005.977 " />
            <path fill="none" stroke-width="3.0" stroke-linecap="round" stroke-opacity="1.0" stroke="rgb(0, 0, 0)" stroke-linejoin="round" d=" M 579.776, 1014.063 575.495, 1005.026 571.214, 995.989 569.332, 992.015 565.051, 982.977 560.770, 973.940 556.489, 964.903 554.204, 960.081 549.923, 951.043 545.642, 942.006 545.507, 941.721 " />
            <path fill="none" stroke-width="3.0" stroke-linecap="round" stroke-opacity="1.0" stroke="rgb(0, 0, 0)" stroke-linejoin="round" d=" M 545.507, 941.721 535.578, 940.531 525.650, 939.342 523.937, 939.136 514.008, 937.947 504.079, 936.757 494.151, 935.567 484.222, 934.377 474.293, 933.187 464.364, 931.998 461.833, 931.694 451.904, 930.504 441.975, 929.315 432.046, 928.125 422.117, 926.935 420.234, 926.709 410.305, 925.519 400.376, 924.330 390.447, 923.140 380.518, 921.950 370.589, 920.760 363.343, 919.892 " />
            <path fill="none" stroke-width="3.0" stroke-linecap="round" stroke-opacity="1.0" stroke="rgb(0, 0, 0)" stroke-linejoin="round" d=" M 545.507, 941.721 536.036, 938.513 530.284, 936.565 520.813, 933.357 511.341, 930.148 501.870, 926.940 492.399, 923.732 487.356, 922.024 477.884, 918.816 468.413, 915.608 458.942, 912.399 449.470, 909.191 439.999, 905.983 430.527, 902.775 421.056, 899.567 416.340, 897.969 406.868, 894.761 397.397, 891.553 387.926, 888.344 378.454, 885.136 375.270, 884.058 " />
            <path fill="none" stroke-width="3.0" stroke-linecap="round" stroke-opacity="1.0" stroke="rgb(0, 0, 0)" stroke-linejoin="round" d=" M 375.270, 884.058 372.112, 893.546 368.954, 903.034 365.796, 912.523 363.343, 919.892 " />
            <path fill="none" stroke-width="3.0" stroke-linecap="round" stroke-opacity="1.0" stroke="rgb(0, 0, 0)" stroke-linejoin="round" d=" M 487.106, 669.540 489.676, 674.273 499.570, 675.731 509.463, 677.189 519.356, 678.646 522.997, 679.183 526.566, 677.021 533.264, 672.965 541.818, 667.786 542.246, 667.527 548.549, 663.710 553.325, 660.818 561.879, 655.638 570.433, 650.459 578.987, 645.279 582.326, 643.257 588.765, 635.606 595.205, 627.955 601.644, 620.304 604.203, 617.265 610.642, 609.614 617.081, 601.963 619.816, 598.714 " />
            <path fill="none" stroke-width="3.0" stroke-linecap="round" stroke-opacity="1.0" stroke="rgb(0, 0, 0)" stroke-linejoin="round" d=" M 582.326, 643.257 583.873, 653.136 585.421, 663.016 586.631, 670.742 " />
            <path fill="none" stroke-width="3.0" stroke-linecap="round" stroke-opacity="1.0" stroke="rgb(0, 0, 0)" stroke-linejoin="round" d=" M 548.549, 663.710 558.382, 665.526 568.216, 667.342 578.050, 669.158 586.631, 670.742 594.934, 665.168 603.236, 659.594 611.538, 654.020 619.841, 648.445 628.143, 642.871 636.445, 637.297 644.747, 631.723 653.050, 626.149 661.037, 620.786 " />
            <path fill="none" stroke-width="3.0" stroke-linecap="round" stroke-opacity="1.0" stroke="rgb(0, 0, 0)" stroke-linejoin="round" d=" M 293.182, 782.018 287.611, 780.372 287.209, 780.253 287.054, 780.207 286.988, 780.330 284.786, 784.424 283.666, 786.506 282.862, 788.001 280.913, 791.625 280.296, 792.773 278.422, 796.257 273.685, 805.064 268.949, 813.871 264.212, 822.678 259.630, 831.198 258.681, 832.962 255.843, 838.240 251.106, 847.047 247.854, 853.095 256.249, 858.527 264.645, 863.960 273.041, 869.393 281.436, 874.825 289.832, 880.258 298.228, 885.690 306.623, 891.123 315.019, 896.556 323.415, 901.988 331.810, 907.421 333.207, 908.324 342.543, 911.908 351.879, 915.491 361.215, 919.075 363.343, 919.892 371.969, 924.951 380.595, 930.011 389.220, 935.070 397.846, 940.129 406.472, 945.189 415.097, 950.248 419.363, 952.750 427.989, 957.810 429.503, 958.698 438.129, 963.758 438.578, 964.021 440.533, 965.168 448.361, 969.759 453.710, 972.896 454.187, 973.176 462.812, 978.235 465.017, 979.529 473.643, 984.588 482.269, 989.648 490.894, 994.707 491.176, 994.872 499.331, 999.656 506.571, 1001.417 516.288, 1003.781 526.005, 1006.145 535.854, 1008.541 545.571, 1010.905 553.819, 1012.911 563.536, 1015.275 565.873, 1015.844 568.342, 1016.444 577.976, 1018.788 580.380, 1018.392 590.247, 1016.769 600.114, 1015.145 609.716, 1013.565 619.583, 1011.942 629.450, 1010.318 629.797, 1010.261 632.163, 1009.872 642.030, 1008.248 651.897, 1006.625 655.834, 1005.977 659.949, 996.863 662.097, 992.106 662.232, 991.807 665.867, 983.756 667.909, 979.235 672.024, 970.121 675.697, 961.987 679.812, 952.873 683.928, 943.760 688.043, 934.646 692.159, 925.532 696.274, 916.418 700.389, 907.304 704.505, 898.190 708.620, 889.076 712.735, 879.962 716.851, 870.848 720.966, 861.734 725.082, 852.620 729.197, 843.506 733.312, 834.392 737.428, 825.278 741.846, 815.494 740.163, 805.636 738.479, 795.779 736.796, 785.922 735.113, 776.065 733.429, 766.207 731.746, 756.350 730.063, 746.493 728.379, 736.635 726.696, 726.778 725.013, 716.921 723.329, 707.063 721.646, 697.206 721.250, 694.891 714.944, 687.130 708.638, 679.369 702.332, 671.608 696.026, 663.847 689.720, 656.086 683.414, 648.325 677.108, 640.564 670.802, 632.803 664.495, 625.042 661.037, 620.786 655.417, 612.515 649.797, 604.243 644.177, 595.972 638.557, 587.700 636.972, 585.367 " />
            <path fill="none" stroke-width="3.0" stroke-linecap="round" stroke-opacity="1.0" stroke="rgb(0, 0, 0)" stroke-linejoin="round" d=" M 451.135, 654.870 447.242, 664.081 443.349, 673.293 439.456, 682.504 435.563, 691.715 431.671, 700.926 427.778, 710.137 423.885, 719.349 419.992, 728.560 416.099, 737.771 412.207, 746.982 408.314, 756.193 404.421, 765.405 400.528, 774.616 399.844, 776.234 " />
            <path fill="none" stroke-width="3.0" stroke-linecap="round" stroke-opacity="1.0" stroke="rgb(0, 0, 0)" stroke-linejoin="round" d=" M 399.844, 776.234 407.201, 783.007 414.558, 789.781 421.915, 796.554 429.272, 803.327 436.629, 810.100 443.985, 816.874 451.342, 823.647 458.699, 830.420 463.288, 834.645 " />
            <path fill="none" stroke-width="3.0" stroke-linecap="round" stroke-opacity="1.0" stroke="rgb(0, 0, 0)" stroke-linejoin="round" d=" M 463.288, 834.645 467.260, 825.468 471.232, 816.291 475.204, 807.114 479.176, 797.936 483.148, 788.759 487.120, 779.582 491.092, 770.404 495.064, 761.227 499.036, 752.050 503.008, 742.872 506.980, 733.695 510.952, 724.518 514.924, 715.340 518.896, 706.163 522.868, 696.986 526.840, 687.808 530.812, 678.631 533.264, 672.965 " />
            <path fill="none" stroke-width="3.0" stroke-linecap="round" stroke-opacity="1.0" stroke="rgb(0, 0, 0)" stroke-linejoin="round" d=" M 452.724, 553.849 442.976, 556.080 433.228, 558.310 432.906, 558.384 425.190, 564.744 417.474, 571.104 409.757, 577.465 402.041, 583.826 394.324, 590.186 386.608, 596.547 383.387, 599.201 375.278, 605.053 367.170, 610.905 359.061, 616.757 350.952, 622.609 342.843, 628.462 334.734, 634.314 326.626, 640.166 318.517, 646.018 310.408, 651.870 302.299, 657.722 294.190, 663.574 286.081, 669.426 277.973, 675.278 269.864, 681.131 261.755, 686.983 253.646, 692.835 245.537, 698.687 237.429, 704.539 229.320, 710.391 221.211, 716.243 213.102, 722.095 208.522, 725.401 " />
            <path fill="none" stroke-width="3.0" stroke-linecap="round" stroke-opacity="1.0" stroke="rgb(0, 0, 0)" stroke-linejoin="round" d=" M 499.331, 999.656 509.174, 1001.418 519.018, 1003.181 528.861, 1004.944 538.704, 1006.707 548.548, 1008.470 558.391, 1010.233 567.040, 1011.782 567.869, 1011.931 577.712, 1013.693 579.776, 1014.063 " />
            <path fill="none" stroke-width="3.0" stroke-linecap="round" stroke-opacity="1.0" stroke="rgb(0, 0, 0)" stroke-linejoin="round" d=" M 601.297, 998.441 598.043, 995.134 591.031, 988.004 590.322, 987.283 583.310, 980.154 576.297, 973.025 569.549, 966.164 562.537, 959.035 556.547, 952.946 549.535, 945.816 546.121, 942.345 545.507, 941.721 540.809, 939.293 538.299, 937.997 533.223, 935.374 524.339, 930.784 515.448, 926.189 506.564, 921.599 498.913, 917.645 490.029, 913.055 481.144, 908.464 472.260, 903.874 464.064, 899.639 455.180, 895.048 446.296, 890.458 443.963, 889.252 441.051, 887.747 432.167, 883.157 423.283, 878.566 414.399, 873.976 412.990, 873.248 404.106, 868.658 395.222, 864.067 388.103, 860.389 383.737, 851.676 379.225, 842.674 374.745, 833.733 373.953, 832.153 370.395, 826.805 " />
            <path fill="none" stroke-width="3.0" stroke-linecap="round" stroke-opacity="1.0" stroke="rgb(0, 0, 0)" stroke-linejoin="round" d=" M 388.103, 860.389 383.337, 869.180 378.571, 877.971 375.270, 884.058 " />
            <path fill="none" stroke-width="3.0" stroke-linecap="round" stroke-opacity="1.0" stroke="rgb(0, 0, 0)" stroke-linejoin="round" d=" M 247.242, 730.526 237.316, 731.742 227.390, 732.957 217.465, 734.173 214.031, 734.594 204.105, 735.809 194.179, 737.025 184.253, 738.241 181.976, 738.520 " />
            <path fill="none" stroke-width="3.0" stroke-linecap="round" stroke-opacity="1.0" stroke="rgb(0, 0, 0)" stroke-linejoin="round" d=" M 181.976, 738.520 188.152, 746.385 194.328, 754.250 200.503, 762.115 206.679, 769.980 212.855, 777.845 219.031, 785.711 224.222, 792.322 225.640, 794.129 231.816, 801.994 237.992, 809.859 244.168, 817.724 249.898, 825.022 " />
            <path fill="none" stroke-width="3.0" stroke-linecap="round" stroke-opacity="1.0" stroke="rgb(0, 0, 0)" stroke-linejoin="round" d=" M 249.898, 825.022 254.066, 815.932 258.234, 806.842 262.401, 797.752 266.569, 788.662 267.251, 787.173 " />
            <path fill="none" stroke-width="3.0" stroke-linecap="round" stroke-opacity="1.0" stroke="rgb(0, 0, 0)" stroke-linejoin="round" d=" M 286.988, 780.330 279.015, 783.094 269.567, 786.370 267.251, 787.173 263.921, 777.744 261.237, 770.147 257.907, 760.718 254.576, 751.289 251.246, 741.860 247.915, 732.431 247.242, 730.526 " />
            <path fill="none" stroke-width="3.0" stroke-linecap="round" stroke-opacity="1.0" stroke="rgb(0, 0, 0)" stroke-linejoin="round" d=" M 273.925, 763.473 282.776, 758.818 291.626, 754.163 300.476, 749.507 309.327, 744.852 318.177, 740.197 327.027, 735.541 335.878, 730.886 344.728, 726.231 353.578, 721.576 362.429, 716.920 371.279, 712.265 380.129, 707.610 388.979, 702.954 397.830, 698.299 406.680, 693.644 415.078, 689.226 422.318, 682.328 429.558, 675.429 436.798, 668.531 444.037, 661.633 451.135, 654.870 " />
            <path fill="none" stroke-width="3.0" stroke-linecap="round" stroke-opacity="1.0" stroke="rgb(0, 0, 0)" stroke-linejoin="round" d=" M 469.235, 641.142 461.267, 647.185 453.300, 653.228 451.135, 654.870 442.390, 659.722 433.646, 664.573 424.902, 669.425 416.157, 674.276 407.413, 679.128 398.669, 683.980 389.925, 688.831 381.180, 693.683 372.436, 698.534 363.692, 703.386 354.948, 708.237 346.203, 713.089 337.459, 717.941 328.715, 722.792 319.970, 727.644 311.226, 732.495 302.482, 737.347 293.738, 742.198 284.993, 747.050 276.249, 751.901 268.180, 756.379 " />
            <path fill="none" stroke-width="3.0" stroke-linecap="round" stroke-opacity="1.0" stroke="rgb(0, 0, 0)" stroke-linejoin="round" d=" M 456.450, 1130.426 448.910, 1136.995 441.370, 1143.563 433.829, 1150.132 426.289, 1156.701 418.749, 1163.269 411.209, 1169.838 410.015, 1170.878 420.015, 1170.827 430.015, 1170.776 440.015, 1170.725 450.014, 1170.673 460.014, 1170.622 470.014, 1170.571 480.014, 1170.520 490.014, 1170.468 496.578, 1170.435 " />
            <path fill="none" stroke-width="3.0" stroke-linecap="round" stroke-opacity="1.0" stroke="rgb(0, 0, 0)" stroke-linejoin="round" d=" M 558.355, 629.252 567.218, 624.622 574.244, 620.952 566.998, 627.843 559.753, 634.735 555.155, 639.108 547.909, 646.000 542.827, 650.834 539.573, 660.290 536.395, 669.526 " />
            <path fill="none" stroke-width="3.0" stroke-linecap="round" stroke-opacity="1.0" stroke="rgb(0, 0, 0)" stroke-linejoin="round" d=" M 451.135, 654.870 443.408, 648.521 435.682, 642.173 427.956, 635.824 420.230, 629.475 412.504, 623.127 404.778, 616.778 397.051, 610.429 389.325, 604.080 383.387, 599.201 " />
            <path fill="none" stroke-width="3.0" stroke-linecap="round" stroke-opacity="1.0" stroke="rgb(0, 0, 0)" stroke-linejoin="round" d=" M 601.297, 998.441 593.204, 1004.316 585.111, 1010.190 579.776, 1014.063 577.976, 1018.788 " />
            <path fill="none" stroke-width="3.0" stroke-linecap="round" stroke-opacity="1.0" stroke="rgb(0, 0, 0)" stroke-linejoin="round" d=" M 655.834, 1005.977 645.928, 1004.608 636.022, 1003.239 626.116, 1001.870 616.210, 1000.502 606.304, 999.133 601.297, 998.441 605.393, 989.319 609.490, 980.196 613.586, 971.074 617.682, 961.951 618.372, 960.416 622.468, 951.294 626.565, 942.171 628.341, 938.215 632.438, 929.092 636.534, 919.970 640.630, 910.847 644.727, 901.725 648.823, 892.603 652.920, 883.480 657.016, 874.358 661.113, 865.235 665.209, 856.113 669.305, 846.990 673.402, 837.868 677.498, 828.745 681.595, 819.623 684.745, 812.608 685.738, 810.396 687.568, 800.565 689.399, 790.734 691.229, 780.903 693.059, 771.072 694.890, 761.241 696.720, 751.410 697.871, 745.230 " />
            <path fill="none" stroke-width="3.0" stroke-linecap="round" stroke-opacity="1.0" stroke="rgb(0, 0, 0)" stroke-linejoin="round" d=" M 616.467, 770.479 625.132, 775.472 633.796, 780.465 642.460, 785.458 651.125, 790.451 659.789, 795.444 668.454, 800.436 677.118, 805.429 685.738, 810.396 686.966, 810.508 696.925, 811.413 704.813, 812.129 714.772, 813.034 724.731, 813.939 734.690, 814.844 741.846, 815.494 " />
            <path fill="none" stroke-width="3.0" stroke-linecap="round" stroke-opacity="1.0" stroke="rgb(0, 0, 0)" stroke-linejoin="round" d=" M 697.871, 745.230 688.320, 748.193 678.769, 751.155 669.217, 754.118 659.666, 757.080 650.115, 760.043 640.564, 763.005 631.013, 765.968 621.462, 768.930 616.467, 770.479 " />
            <path fill="none" stroke-width="3.0" stroke-linecap="round" stroke-opacity="1.0" stroke="rgb(0, 0, 0)" stroke-linejoin="round" d=" M 333.207, 908.324 341.869, 903.327 343.332, 902.483 351.994, 897.486 360.656, 892.489 363.047, 891.110 371.709, 886.113 375.270, 884.058 375.017, 874.061 374.877, 868.562 374.623, 858.565 374.369, 848.569 374.116, 838.572 373.953, 832.153 365.369, 827.022 356.786, 821.891 348.202, 816.760 339.619, 811.629 331.036, 806.498 322.452, 801.367 313.869, 796.237 305.286, 791.106 296.702, 785.975 287.876, 780.698 287.159, 780.270 287.054, 780.207 " />
            <path fill="none" stroke-width="3.0" stroke-linecap="round" stroke-opacity="1.0" stroke="rgb(0, 0, 0)" stroke-linejoin="round" d=" M 373.953, 832.153 369.236, 840.970 364.519, 849.788 359.802, 858.606 355.086, 867.424 350.369, 876.241 345.652, 885.059 340.935, 893.877 338.262, 898.874 333.545, 907.692 333.207, 908.324 " />
            <path fill="none" stroke-width="3.0" stroke-linecap="round" stroke-opacity="1.0" stroke="rgb(0, 0, 0)" stroke-linejoin="round" d=" M 632.186, 508.973 632.164, 509.098 630.471, 518.954 628.778, 528.809 627.085, 538.665 625.392, 548.521 623.699, 558.376 622.005, 568.232 620.312, 578.088 618.619, 587.943 616.926, 597.801 616.299, 601.450 " />
            <path fill="none" stroke-width="3.0" stroke-linecap="round" stroke-opacity="1.0" stroke="rgb(0, 0, 0)" stroke-linejoin="round" d=" M 456.144, 548.354 452.724, 553.849 449.761, 558.610 444.476, 567.099 441.971, 571.123 442.178, 581.121 442.302, 587.089 442.509, 597.087 442.567, 599.884 444.756, 602.776 450.791, 610.749 456.826, 618.723 462.861, 626.696 464.579, 628.965 465.598, 629.347 468.900, 630.583 469.608, 630.849 470.376, 631.136 475.395, 633.016 475.590, 633.089 475.841, 633.183 478.444, 634.158 479.344, 634.495 483.181, 635.932 485.794, 636.911 487.015, 637.368 492.121, 639.281 501.486, 642.788 505.221, 644.188 506.228, 644.046 513.477, 643.025 523.311, 641.640 528.997, 640.839 530.094, 640.685 535.229, 639.961 538.643, 639.480 542.764, 637.216 550.156, 633.154 550.285, 633.083 550.407, 633.016 552.991, 631.596 559.001, 628.294 567.765, 623.478 573.143, 620.523 575.601, 619.437 584.747, 615.395 593.894, 611.352 596.797, 610.069 599.929, 608.685 609.075, 604.643 613.058, 602.883 616.299, 601.450 619.816, 598.714 621.176, 597.656 626.930, 593.179 634.823, 587.039 636.972, 585.367 644.865, 579.227 652.757, 573.086 660.650, 566.946 668.543, 560.805 671.006, 558.889 " />
            <path fill="none" stroke-width="3.0" stroke-linecap="round" stroke-opacity="1.0" stroke="rgb(0, 0, 0)" stroke-linejoin="round" d=" M 671.006, 558.889 672.544, 549.008 674.082, 539.127 675.620, 529.246 677.157, 519.365 678.695, 509.484 680.233, 499.603 681.771, 489.722 683.309, 479.841 684.847, 469.960 685.932, 462.985 680.094, 454.866 674.256, 446.747 668.418, 438.628 662.580, 430.509 656.742, 422.390 650.904, 414.271 649.086, 411.743 639.658, 408.411 630.229, 405.079 620.801, 401.746 611.372, 398.414 601.944, 395.082 592.516, 391.750 583.087, 388.417 577.869, 386.573 568.620, 390.375 559.371, 394.177 551.034, 397.605 " />
            <path fill="none" stroke-width="3.0" stroke-linecap="round" stroke-opacity="1.0" stroke="rgb(0, 0, 0)" stroke-linejoin="round" d=" M 685.932, 462.985 678.334, 469.486 670.736, 475.988 663.138, 482.489 655.468, 489.051 647.870, 495.552 640.272, 502.054 632.674, 508.555 632.186, 508.973 632.000, 509.038 622.568, 512.360 613.136, 515.683 603.704, 519.005 594.273, 522.328 584.841, 525.650 575.409, 528.973 566.492, 532.114 556.983, 529.018 547.474, 525.923 537.965, 522.828 528.457, 519.732 518.948, 516.637 509.439, 513.542 507.355, 512.863 501.333, 510.903 " />
            <path fill="none" stroke-width="3.0" stroke-linecap="round" stroke-opacity="1.0" stroke="rgb(0, 0, 0)" stroke-linejoin="round" d=" M 267.251, 787.173 265.412, 797.003 263.572, 806.832 261.732, 816.661 259.893, 826.491 258.681, 832.962 " />
            <path fill="none" stroke-width="3.0" stroke-linecap="round" stroke-opacity="1.0" stroke="rgb(0, 0, 0)" stroke-linejoin="round" d=" M 383.737, 851.676 388.383, 842.821 392.805, 834.393 384.893, 828.277 376.981, 822.161 369.069, 816.045 361.157, 809.929 353.245, 803.814 345.334, 797.698 337.422, 791.582 329.510, 785.466 328.769, 784.894 319.117, 782.278 309.466, 779.662 299.814, 777.046 297.929, 776.536 288.481, 779.812 287.448, 780.170 287.209, 780.253 " />
            <path fill="none" stroke-width="3.0" stroke-linecap="round" stroke-opacity="1.0" stroke="rgb(0, 0, 0)" stroke-linejoin="round" d=" M 287.448, 780.170 281.154, 772.399 274.860, 764.628 273.925, 763.473 268.180, 756.379 261.886, 748.608 255.592, 740.837 249.299, 733.065 247.242, 730.526 241.402, 729.753 231.488, 728.441 221.575, 727.129 213.550, 726.067 208.522, 725.401 199.557, 729.832 190.592, 734.262 181.976, 738.520 187.042, 747.142 192.108, 755.763 197.175, 764.385 202.241, 773.007 207.307, 781.628 212.373, 790.250 217.439, 798.872 218.455, 800.601 226.353, 806.735 234.251, 812.869 242.149, 819.003 249.898, 825.022 254.000, 834.142 255.843, 838.240 " />
            <path fill="none" stroke-width="3.0" stroke-linecap="round" stroke-opacity="1.0" stroke="rgb(0, 0, 0)" stroke-linejoin="round" d=" M 401.478, 1073.903 406.838, 1079.414 413.810, 1086.583 420.782, 1093.752 427.754, 1100.921 430.559, 1103.805 437.531, 1110.974 441.585, 1115.142 448.557, 1122.311 455.529, 1129.480 456.450, 1130.426 458.012, 1132.032 467.052, 1136.306 476.093, 1140.580 485.134, 1144.854 494.174, 1149.127 503.215, 1153.401 503.852, 1153.702 504.410, 1153.966 509.397, 1156.323 " />
            <path fill="none" stroke-width="3.0" stroke-linecap="round" stroke-opacity="1.0" stroke="rgb(0, 0, 0)" stroke-linejoin="round" d=" M 458.012, 1132.032 458.341, 1125.221 458.823, 1115.233 459.147, 1108.526 459.630, 1098.538 460.113, 1088.550 460.595, 1078.561 461.078, 1068.573 461.561, 1058.585 462.044, 1048.596 462.526, 1038.608 463.009, 1028.620 463.492, 1018.631 463.974, 1008.643 464.457, 998.655 464.940, 988.666 465.089, 985.566 " />
            <path fill="none" stroke-width="3.0" stroke-linecap="round" stroke-opacity="1.0" stroke="rgb(0, 0, 0)" stroke-linejoin="round" d=" M 465.089, 985.566 458.407, 978.126 453.710, 972.896 " />
            <path fill="none" stroke-width="3.0" stroke-linecap="round" stroke-opacity="1.0" stroke="rgb(0, 0, 0)" stroke-linejoin="round" d=" M 297.929, 776.536 306.176, 782.192 314.423, 787.847 322.670, 793.503 330.917, 799.159 339.164, 804.815 347.411, 810.471 355.658, 816.127 363.904, 821.783 372.151, 827.438 380.398, 833.094 383.300, 835.084 " />
            <path fill="none" stroke-width="3.0" stroke-linecap="round" stroke-opacity="1.0" stroke="rgb(0, 0, 0)" stroke-linejoin="round" d=" M 379.225, 842.674 383.300, 835.084 392.805, 834.393 " />
            <path fill="none" stroke-width="3.0" stroke-linecap="round" stroke-opacity="1.0" stroke="rgb(0, 0, 0)" stroke-linejoin="round" d=" M 554.882, 885.862 564.209, 882.257 573.537, 878.653 582.021, 875.375 " />
            <path fill="none" stroke-width="3.0" stroke-linecap="round" stroke-opacity="1.0" stroke="rgb(0, 0, 0)" stroke-linejoin="round" d=" M 616.467, 770.479 611.758, 779.301 607.050, 788.123 602.341, 796.945 597.632, 805.767 592.923, 814.589 588.215, 823.411 583.506, 832.233 578.797, 841.055 574.088, 849.877 569.380, 858.699 564.671, 867.521 559.962, 876.343 554.882, 885.862 " />
            <path fill="none" stroke-width="3.0" stroke-linecap="round" stroke-opacity="1.0" stroke="rgb(0, 0, 0)" stroke-linejoin="round" d=" M 616.467, 770.479 613.347, 779.980 610.227, 789.481 607.107, 798.982 603.987, 808.483 600.867, 817.984 597.747, 827.484 594.628, 836.985 591.508, 846.486 588.388, 855.987 585.268, 865.488 583.784, 870.007 582.021, 875.375 578.901, 884.876 575.781, 894.377 573.142, 902.412 570.022, 911.913 568.486, 916.591 566.309, 923.220 565.260, 926.413 565.143, 926.770 564.640, 928.304 561.595, 937.576 558.475, 947.077 556.547, 952.946 " />
            <path fill="none" stroke-width="3.0" stroke-linecap="round" stroke-opacity="1.0" stroke="rgb(0, 0, 0)" stroke-linejoin="round" d=" M 542.246, 667.527 548.094, 675.638 553.942, 683.750 559.790, 691.862 565.638, 699.974 571.486, 708.086 577.334, 716.197 583.182, 724.309 589.030, 732.421 594.878, 740.533 600.726, 748.645 606.574, 756.756 612.422, 764.868 616.467, 770.479 613.601, 760.899 610.735, 751.318 607.869, 741.738 605.003, 732.157 602.137, 722.577 599.271, 712.996 596.406, 703.416 593.540, 693.835 590.674, 684.255 587.808, 674.674 586.631, 670.742 " />
            <path fill="none" stroke-width="3.0" stroke-linecap="round" stroke-opacity="1.0" stroke="rgb(0, 0, 0)" stroke-linejoin="round" d=" M 721.250, 694.891 717.038, 703.961 712.826, 713.030 708.614, 722.100 704.401, 731.169 700.189, 740.239 697.871, 745.230 695.033, 735.641 692.194, 726.052 689.356, 716.464 686.518, 706.875 683.680, 697.286 680.842, 687.697 678.004, 678.109 675.166, 668.520 672.327, 658.931 669.489, 649.342 666.651, 639.753 663.813, 630.165 661.037, 620.786 " />
            <path fill="none" stroke-width="3.0" stroke-linecap="round" stroke-opacity="1.0" stroke="rgb(0, 0, 0)" stroke-linejoin="round" d=" M 554.882, 885.862 553.349, 895.744 553.138, 897.100 551.606, 906.982 550.073, 916.864 548.541, 926.745 548.140, 929.330 546.607, 939.212 546.121, 942.345 " />
            <path fill="none" stroke-width="3.0" stroke-linecap="round" stroke-opacity="1.0" stroke="rgb(0, 0, 0)" stroke-linejoin="round" d=" M 534.538, 1017.030 544.317, 1014.941 553.819, 1012.911 " />
            <path fill="none" stroke-width="3.0" stroke-linecap="round" stroke-opacity="1.0" stroke="rgb(0, 0, 0)" stroke-linejoin="round" d=" M 554.882, 885.862 546.153, 880.981 537.425, 876.101 528.697, 871.220 519.969, 866.340 511.241, 861.459 502.513, 856.578 493.784, 851.698 485.056, 846.818 476.328, 841.937 467.600, 837.057 463.288, 834.645 463.408, 844.645 463.527, 854.644 463.646, 864.643 463.766, 874.643 463.885, 884.642 464.004, 894.641 464.064, 899.639 " />
            <path fill="none" stroke-width="3.0" stroke-linecap="round" stroke-opacity="1.0" stroke="rgb(0, 0, 0)" stroke-linejoin="round" d=" M 465.017, 979.529 465.089, 985.566 474.198, 989.693 483.307, 993.819 492.416, 997.946 501.524, 1002.073 510.633, 1006.200 519.742, 1010.327 528.851, 1014.453 534.538, 1017.030 " />
            <path fill="none" stroke-width="3.0" stroke-linecap="round" stroke-opacity="1.0" stroke="rgb(0, 0, 0)" stroke-linejoin="round" d=" M 415.078, 689.226 413.354, 699.076 411.629, 708.926 409.905, 718.777 408.180, 728.627 406.455, 738.477 404.731, 748.327 403.006, 758.177 401.281, 768.027 399.844, 776.234 401.187, 786.143 402.530, 796.053 403.873, 805.962 405.215, 815.872 406.558, 825.781 407.901, 835.691 409.244, 845.600 410.586, 855.510 411.929, 865.419 412.990, 873.248 " />
            <path fill="none" stroke-width="3.0" stroke-linecap="round" stroke-opacity="1.0" stroke="rgb(0, 0, 0)" stroke-linejoin="round" d=" M 636.484, 1143.821 636.322, 1144.505 634.015, 1154.235 631.708, 1163.966 629.401, 1173.696 627.094, 1183.426 624.787, 1193.157 622.480, 1202.887 620.173, 1212.617 617.866, 1222.347 615.559, 1232.078 613.252, 1241.808 610.945, 1251.538 608.639, 1261.268 606.213, 1271.500 602.735, 1280.875 599.258, 1290.251 595.780, 1299.627 592.302, 1309.003 588.825, 1318.379 585.347, 1327.754 584.317, 1330.532 583.344, 1333.156 579.866, 1342.531 576.388, 1351.907 574.397, 1357.275 570.919, 1366.651 567.442, 1376.027 564.631, 1383.605 561.153, 1392.981 557.675, 1402.357 555.382, 1408.539 553.669, 1413.157 552.276, 1416.913 " />
            <path fill="none" stroke-width="3.0" stroke-linecap="round" stroke-opacity="1.0" stroke="rgb(0, 0, 0)" stroke-linejoin="round" d=" M 606.213, 1271.500 608.813, 1261.844 611.413, 1252.187 614.013, 1242.531 616.613, 1232.875 619.213, 1223.219 621.813, 1213.563 624.413, 1203.907 627.013, 1194.251 629.613, 1184.595 632.213, 1174.939 634.813, 1165.283 637.413, 1155.627 640.013, 1145.971 640.688, 1143.464 " />
            <path fill="none" stroke-width="3.0" stroke-linecap="round" stroke-opacity="1.0" stroke="rgb(0, 0, 0)" stroke-linejoin="round" d=" M 521.604, 1146.802 531.601, 1146.543 541.598, 1146.283 551.594, 1146.024 561.591, 1145.764 571.725, 1145.502 581.722, 1145.242 591.718, 1144.983 601.715, 1144.724 611.712, 1144.464 621.708, 1144.205 631.705, 1143.945 636.484, 1143.821 " />
            <path fill="none" stroke-width="3.0" stroke-linecap="round" stroke-opacity="1.0" stroke="rgb(0, 0, 0)" stroke-linejoin="round" d=" M 697.535, 1037.515 699.782, 1033.602 699.482, 1032.978 " />
            <path fill="none" stroke-width="3.0" stroke-linecap="round" stroke-opacity="1.0" stroke="rgb(0, 0, 0)" stroke-linejoin="round" d=" M 703.162, 1024.405 699.135, 1015.252 695.107, 1006.099 691.080, 996.946 687.052, 987.793 683.025, 978.640 678.997, 969.487 675.697, 961.987 " />
            <path fill="none" stroke-width="3.0" stroke-linecap="round" stroke-opacity="1.0" stroke="rgb(0, 0, 0)" stroke-linejoin="round" d=" M 636.322, 1144.505 640.688, 1143.464 650.415, 1141.143 653.354, 1140.442 657.299, 1131.253 661.243, 1122.064 665.188, 1112.874 669.132, 1103.685 673.076, 1094.496 677.021, 1085.307 680.965, 1076.118 684.910, 1066.928 688.854, 1057.739 692.798, 1048.550 696.743, 1039.361 697.535, 1037.515 697.977, 1036.486 699.398, 1033.175 699.482, 1032.978 703.162, 1024.405 " />
            <path fill="none" stroke-width="3.0" stroke-linecap="round" stroke-opacity="1.0" stroke="rgb(0, 0, 0)" stroke-linejoin="round" d=" M 432.906, 558.384 442.906, 558.518 449.761, 558.610 " />
            <path fill="none" stroke-width="3.0" stroke-linecap="round" stroke-opacity="1.0" stroke="rgb(0, 0, 0)" stroke-linejoin="round" d=" M 451.135, 654.870 449.278, 645.044 447.422, 635.218 445.566, 625.392 443.709, 615.566 441.853, 605.739 439.996, 595.913 438.140, 586.087 436.284, 576.261 434.427, 566.435 432.906, 558.384 " />
            <path fill="none" stroke-width="3.0" stroke-linecap="round" stroke-opacity="1.0" stroke="rgb(0, 0, 0)" stroke-linejoin="round" d=" M 621.009, 1612.769 611.505, 1609.661 602.000, 1606.553 592.495, 1603.445 583.747, 1600.585 " />
            <path fill="none" stroke-width="3.0" stroke-linecap="round" stroke-opacity="1.0" stroke="rgb(0, 0, 0)" stroke-linejoin="round" d=" M 583.747, 1600.585 578.987, 1609.379 574.227, 1618.174 569.466, 1626.968 564.706, 1635.762 559.946, 1644.557 555.186, 1653.351 550.426, 1662.145 545.665, 1670.940 540.905, 1679.734 536.145, 1688.528 531.657, 1696.819 " />
            <path fill="none" stroke-width="3.0" stroke-linecap="round" stroke-opacity="1.0" stroke="rgb(0, 0, 0)" stroke-linejoin="round" d=" M 397.255, 1677.828 404.313, 1670.744 411.371, 1663.660 418.429, 1656.576 425.487, 1649.492 432.545, 1642.407 439.327, 1635.600 442.954, 1626.281 446.581, 1616.962 450.207, 1607.643 453.834, 1598.324 457.461, 1589.005 461.088, 1579.685 464.715, 1570.366 468.342, 1561.047 471.969, 1551.728 472.795, 1549.606 " />
            <path fill="none" stroke-width="3.0" stroke-linecap="round" stroke-opacity="1.0" stroke="rgb(0, 0, 0)" stroke-linejoin="round" d=" M 472.795, 1549.606 463.973, 1554.315 455.151, 1559.024 446.330, 1563.733 437.508, 1568.443 428.686, 1573.152 419.864, 1577.861 411.043, 1582.570 402.221, 1587.280 393.399, 1591.989 391.249, 1593.137 " />
            <path fill="none" stroke-width="3.0" stroke-linecap="round" stroke-opacity="1.0" stroke="rgb(0, 0, 0)" stroke-linejoin="round" d=" M 391.249, 1593.137 398.744, 1599.756 406.239, 1606.376 413.734, 1612.996 421.230, 1619.616 428.725, 1626.236 436.220, 1632.856 439.327, 1635.600 " />
            <path fill="none" stroke-width="3.0" stroke-linecap="round" stroke-opacity="1.0" stroke="rgb(0, 0, 0)" stroke-linejoin="round" d=" M 445.957, 1673.386 444.228, 1663.536 442.500, 1653.686 440.772, 1643.837 439.327, 1635.600 447.771, 1630.244 456.216, 1624.888 464.660, 1619.531 473.105, 1614.175 481.550, 1608.819 489.994, 1603.462 498.387, 1598.139 " />
            <path fill="none" stroke-width="3.0" stroke-linecap="round" stroke-opacity="1.0" stroke="rgb(0, 0, 0)" stroke-linejoin="round" d=" M 481.325, 594.120 482.416, 584.180 483.507, 574.240 484.599, 564.300 485.690, 554.359 486.597, 546.099 487.688, 536.159 488.779, 526.219 489.149, 522.852 490.240, 512.911 490.836, 507.486 " />
            <path fill="none" stroke-width="3.0" stroke-linecap="round" stroke-opacity="1.0" stroke="rgb(0, 0, 0)" stroke-linejoin="round" d=" M 495.062, 508.862 490.836, 507.486 489.486, 505.210 " />
            <path fill="none" stroke-width="3.0" stroke-linecap="round" stroke-opacity="1.0" stroke="rgb(0, 0, 0)" stroke-linejoin="round" d=" M 455.984, 551.143 457.003, 552.870 457.932, 554.447 460.379, 558.597 465.458, 567.211 468.109, 571.706 473.188, 580.320 478.267, 588.934 481.325, 594.120 490.722, 597.540 500.119, 600.960 509.516, 604.380 515.209, 606.452 517.695, 607.357 527.093, 610.777 534.952, 613.638 544.349, 617.058 553.746, 620.478 554.348, 620.697 " />
            <path fill="none" stroke-width="3.0" stroke-linecap="round" stroke-opacity="1.0" stroke="rgb(0, 0, 0)" stroke-linejoin="round" d=" M 588.832, 1537.586 588.027, 1547.554 587.223, 1557.522 586.418, 1567.489 585.614, 1577.457 584.809, 1587.424 584.005, 1597.392 583.747, 1600.585 " />
            <path fill="none" stroke-width="3.0" stroke-linecap="round" stroke-opacity="1.0" stroke="rgb(0, 0, 0)" stroke-linejoin="round" d=" M 463.987, 1658.086 472.666, 1663.053 478.959, 1666.655 487.637, 1671.623 496.316, 1676.591 504.995, 1681.558 513.674, 1686.526 522.353, 1691.494 531.032, 1696.461 531.657, 1696.819 528.337, 1687.387 525.016, 1677.954 521.696, 1668.522 518.376, 1659.089 515.055, 1649.656 513.015, 1643.860 509.694, 1634.427 506.374, 1624.995 503.031, 1615.499 496.273, 1622.870 489.516, 1630.241 482.758, 1637.612 476.000, 1644.983 469.242, 1652.354 463.987, 1658.086 " />
            <path fill="none" stroke-width="3.0" stroke-linecap="round" stroke-opacity="1.0" stroke="rgb(0, 0, 0)" stroke-linejoin="round" d=" M 552.276, 1416.913 554.483, 1426.667 556.691, 1436.420 558.898, 1446.173 561.105, 1455.927 563.313, 1465.680 565.520, 1475.433 567.727, 1485.187 568.299, 1487.712 569.655, 1497.620 571.011, 1507.528 572.367, 1517.435 573.723, 1527.343 575.079, 1537.250 576.435, 1547.158 577.762, 1556.859 579.118, 1566.767 580.474, 1576.674 581.830, 1586.582 583.186, 1596.490 583.747, 1600.585 573.913, 1602.402 564.888, 1604.069 555.055, 1605.886 545.221, 1607.703 535.388, 1609.520 525.554, 1611.337 515.721, 1613.154 505.887, 1614.971 503.031, 1615.499 " />
            <path fill="none" stroke-width="3.0" stroke-linecap="round" stroke-opacity="1.0" stroke="rgb(0, 0, 0)" stroke-linejoin="round" d=" M 578.879, 1462.100 579.331, 1452.110 579.782, 1442.120 580.233, 1432.130 580.684, 1422.140 581.135, 1412.151 581.586, 1402.161 582.038, 1392.171 582.489, 1382.181 582.940, 1372.191 583.391, 1362.202 583.842, 1352.212 584.294, 1342.222 584.708, 1333.053 584.317, 1330.532 " />
            <path fill="none" stroke-width="3.0" stroke-linecap="round" stroke-opacity="1.0" stroke="rgb(0, 0, 0)" stroke-linejoin="round" d=" M 471.442, 1539.323 463.138, 1544.895 454.835, 1550.467 446.531, 1556.039 438.227, 1561.612 429.924, 1567.184 421.620, 1572.756 413.316, 1578.328 405.013, 1583.900 396.709, 1589.473 391.249, 1593.137 383.353, 1599.273 375.457, 1605.410 367.562, 1611.546 359.666, 1617.683 358.188, 1618.831 353.837, 1627.835 349.486, 1636.839 345.136, 1645.843 342.989, 1650.286 349.018, 1658.264 355.047, 1666.242 361.077, 1674.220 367.106, 1682.198 373.135, 1690.176 379.164, 1698.155 385.193, 1706.133 391.222, 1714.111 394.819, 1718.870 403.421, 1713.772 412.024, 1708.673 418.079, 1705.084 " />
            <path fill="none" stroke-width="3.0" stroke-linecap="round" stroke-opacity="1.0" stroke="rgb(0, 0, 0)" stroke-linejoin="round" d=" M 358.188, 1618.831 363.709, 1627.169 369.230, 1635.507 374.751, 1643.844 380.272, 1652.182 385.793, 1660.520 391.315, 1668.857 396.836, 1677.195 397.255, 1677.828 396.663, 1687.811 396.070, 1697.793 395.477, 1707.776 394.885, 1717.758 394.819, 1718.870 " />
            <path fill="none" stroke-width="3.0" stroke-linecap="round" stroke-opacity="1.0" stroke="rgb(0, 0, 0)" stroke-linejoin="round" d=" M 431.630, 1261.483 441.185, 1264.433 450.740, 1267.383 460.295, 1270.333 469.850, 1273.283 472.149, 1273.992 " />
            <path fill="none" stroke-width="3.0" stroke-linecap="round" stroke-opacity="1.0" stroke="rgb(0, 0, 0)" stroke-linejoin="round" d=" M 552.276, 1416.913 543.045, 1420.759 533.814, 1424.605 524.583, 1428.450 515.352, 1432.296 506.121, 1436.142 496.890, 1439.987 487.659, 1443.833 478.428, 1447.679 469.198, 1451.524 460.374, 1455.200 457.149, 1456.544 " />
            <path fill="none" stroke-width="3.0" stroke-linecap="round" stroke-opacity="1.0" stroke="rgb(0, 0, 0)" stroke-linejoin="round" d=" M 476.061, 1514.685 485.659, 1511.878 495.257, 1509.072 504.855, 1506.265 514.453, 1503.458 524.051, 1500.651 533.649, 1497.845 543.247, 1495.038 552.845, 1492.231 562.443, 1489.425 568.299, 1487.712 568.641, 1477.718 568.984, 1467.724 569.327, 1457.730 569.669, 1447.736 570.012, 1437.742 570.355, 1427.748 570.697, 1417.753 571.040, 1407.759 571.179, 1403.696 " />
            <path fill="none" stroke-width="3.0" stroke-linecap="round" stroke-opacity="1.0" stroke="rgb(0, 0, 0)" stroke-linejoin="round" d=" M 577.869, 386.573 569.337, 391.788 560.804, 397.002 552.271, 402.217 550.765, 403.137 " />
            <path fill="none" stroke-width="3.0" stroke-linecap="round" stroke-opacity="1.0" stroke="rgb(0, 0, 0)" stroke-linejoin="round" d=" M 490.836, 507.486 493.950, 505.602 494.438, 505.307 " />
            <path fill="none" stroke-width="3.0" stroke-linecap="round" stroke-opacity="1.0" stroke="rgb(0, 0, 0)" stroke-linejoin="round" d=" M 584.708, 1333.053 580.791, 1342.254 576.875, 1351.455 574.397, 1357.275 " />
            <path fill="none" stroke-width="3.0" stroke-linecap="round" stroke-opacity="1.0" stroke="rgb(0, 0, 0)" stroke-linejoin="round" d=" M 606.213, 1271.500 596.262, 1270.508 586.312, 1269.515 576.361, 1268.523 574.668, 1268.355 564.718, 1267.362 554.767, 1266.370 544.816, 1265.378 534.866, 1264.386 524.915, 1263.394 514.964, 1262.402 505.014, 1261.410 495.063, 1260.418 490.891, 1260.002 492.155, 1250.082 493.420, 1240.162 494.685, 1230.243 495.950, 1220.323 497.214, 1210.403 498.479, 1200.484 499.744, 1190.564 501.009, 1180.644 502.273, 1170.724 503.538, 1160.805 504.410, 1153.966 " />
            <path fill="none" stroke-width="3.0" stroke-linecap="round" stroke-opacity="1.0" stroke="rgb(0, 0, 0)" stroke-linejoin="round" d=" M 566.492, 532.114 567.242, 542.086 567.992, 552.057 568.468, 558.381 569.218, 568.353 569.257, 568.872 570.007, 578.844 570.757, 588.816 571.508, 598.787 572.258, 608.759 572.362, 610.148 573.112, 620.119 573.143, 620.523 564.184, 620.606 554.348, 620.697 " />
            <path fill="none" stroke-width="3.0" stroke-linecap="round" stroke-opacity="1.0" stroke="rgb(0, 0, 0)" stroke-linejoin="round" d=" M 439.875, 1107.492 447.006, 1114.504 454.136, 1121.515 457.296, 1124.622 466.749, 1127.883 476.203, 1131.143 485.656, 1134.404 495.110, 1137.664 504.563, 1140.925 514.017, 1144.185 521.604, 1146.802 524.059, 1137.108 526.514, 1127.414 528.969, 1117.720 531.427, 1108.013 " />
            <path fill="none" stroke-width="3.0" stroke-linecap="round" stroke-opacity="1.0" stroke="rgb(0, 0, 0)" stroke-linejoin="round" d=" M 464.579, 628.965 465.150, 627.777 467.383, 623.130 468.212, 621.406 472.543, 612.393 476.875, 603.380 481.325, 594.120 " />
            <path fill="none" stroke-width="3.0" stroke-linecap="round" stroke-opacity="1.0" stroke="rgb(0, 0, 0)" stroke-linejoin="round" d=" M 481.325, 594.120 471.434, 595.591 464.784, 596.580 462.757, 596.882 459.938, 597.301 459.089, 597.427 449.198, 598.898 442.567, 599.884 " />
            <path fill="none" stroke-width="3.0" stroke-linecap="round" stroke-opacity="1.0" stroke="rgb(0, 0, 0)" stroke-linejoin="round" d=" M 481.325, 594.120 489.166, 600.326 497.008, 606.532 504.849, 612.737 512.691, 618.943 520.533, 625.148 528.374, 631.354 536.216, 637.560 538.643, 639.480 540.788, 636.915 547.203, 629.243 553.617, 621.571 554.348, 620.697 555.706, 610.789 557.065, 600.882 558.423, 590.975 559.753, 581.275 561.111, 571.367 562.469, 561.460 563.084, 556.976 564.442, 547.068 565.800, 537.161 566.492, 532.114 575.147, 527.104 583.802, 522.095 592.457, 517.086 601.112, 512.077 609.767, 507.068 616.313, 503.279 624.968, 498.270 633.623, 493.260 642.278, 488.251 650.941, 483.237 659.596, 478.228 668.251, 473.219 676.906, 468.210 685.560, 463.200 685.932, 462.985 " />
            <path fill="none" stroke-width="3.0" stroke-linecap="round" stroke-opacity="1.0" stroke="rgb(0, 0, 0)" stroke-linejoin="round" d=" M 505.221, 644.188 500.914, 635.163 500.402, 634.090 500.337, 633.955 496.030, 624.930 491.723, 615.906 487.415, 606.881 483.108, 597.856 481.325, 594.120 472.691, 589.075 466.287, 585.333 459.277, 581.236 458.811, 580.964 450.177, 575.919 441.971, 571.123 447.713, 562.936 453.455, 554.749 454.346, 553.478 455.984, 551.143 456.144, 548.354 456.719, 538.371 457.294, 528.387 457.868, 518.404 458.443, 508.420 458.783, 502.513 " />
            <path fill="none" stroke-width="3.0" stroke-linecap="round" stroke-opacity="1.0" stroke="rgb(0, 0, 0)" stroke-linejoin="round" d=" M 470.382, 633.535 468.728, 640.299 " />
            <path fill="none" stroke-width="3.0" stroke-linecap="round" stroke-opacity="1.0" stroke="rgb(0, 0, 0)" stroke-linejoin="round" d=" M 536.395, 669.526 526.759, 666.850 517.124, 664.174 511.507, 662.615 " />
            <path fill="none" stroke-width="3.0" stroke-linecap="round" stroke-opacity="1.0" stroke="rgb(0, 0, 0)" stroke-linejoin="round" d=" M 473.810, 638.797 473.320, 638.044 471.183, 634.764 470.382, 633.535 469.608, 630.849 " />
            <path fill="none" stroke-width="3.0" stroke-linecap="round" stroke-opacity="1.0" stroke="rgb(0, 0, 0)" stroke-linejoin="round" d=" M 457.296, 1124.622 458.341, 1125.221 460.804, 1126.633 " />
            <path fill="none" stroke-width="3.0" stroke-linecap="round" stroke-opacity="1.0" stroke="rgb(0, 0, 0)" stroke-linejoin="round" d=" M 501.333, 506.250 511.295, 507.125 518.238, 507.735 523.126, 508.164 528.233, 508.613 538.195, 509.488 548.157, 510.363 549.529, 510.483 549.529, 500.483 549.529, 492.988 549.529, 486.627 549.529, 483.990 549.529, 482.347 549.529, 472.347 549.529, 471.976 549.529, 461.976 549.529, 451.976 549.529, 441.976 549.529, 435.720 549.529, 428.576 550.015, 418.588 550.500, 408.600 550.765, 403.137 551.034, 397.605 551.519, 387.617 552.004, 377.628 552.490, 367.640 552.975, 357.652 553.460, 347.664 553.650, 343.749 543.689, 342.874 533.727, 341.999 523.765, 341.124 513.804, 340.249 503.842, 339.374 498.619, 338.915 489.930, 338.152 479.968, 337.277 470.007, 336.402 460.045, 335.527 450.084, 334.653 443.588, 334.082 443.102, 344.070 442.617, 354.058 442.132, 364.047 441.647, 374.035 441.161, 384.023 440.676, 394.011 440.191, 404.000 439.705, 413.988 439.466, 418.909 439.466, 428.909 439.466, 438.909 439.466, 448.909 439.466, 458.909 439.466, 468.909 439.466, 478.909 439.466, 488.909 439.466, 498.909 439.466, 500.817 449.428, 501.691 458.783, 502.513 461.008, 502.708 470.970, 503.583 472.307, 503.701 482.269, 504.576 489.486, 505.210 " />
            <path fill="none" stroke-width="3.0" stroke-linecap="round" stroke-opacity="1.0" stroke="rgb(0, 0, 0)" stroke-linejoin="round" d=" M 439.466, 418.909 449.428, 419.784 459.389, 420.659 469.351, 421.534 479.313, 422.409 487.662, 423.142 496.147, 423.888 " />
            <path fill="none" stroke-width="3.0" stroke-linecap="round" stroke-opacity="1.0" stroke="rgb(0, 0, 0)" stroke-linejoin="round" d=" M 495.062, 508.862 496.675, 518.044 497.641, 523.542 498.844, 530.396 500.117, 537.640 501.023, 542.798 501.333, 544.563 501.333, 542.727 501.333, 536.385 501.333, 528.117 501.333, 518.117 501.333, 515.702 501.333, 510.903 501.333, 506.250 501.333, 501.135 501.333, 491.135 501.333, 481.135 501.333, 471.135 501.333, 462.656 501.596, 457.247 501.717, 454.761 502.202, 444.773 502.687, 434.784 502.801, 432.448 503.187, 424.506 503.545, 417.127 504.030, 407.138 504.516, 397.150 505.001, 387.162 505.454, 377.828 503.724, 367.979 501.994, 358.130 500.264, 348.281 498.619, 338.915 496.889, 329.066 495.159, 319.217 493.429, 309.368 491.784, 300.002 491.298, 309.990 490.813, 319.979 490.328, 329.967 489.930, 338.152 " />
            <path fill="none" stroke-width="3.0" stroke-linecap="round" stroke-opacity="1.0" stroke="rgb(0, 0, 0)" stroke-linejoin="round" d=" M 294.124, 782.564 297.929, 776.536 " />
            <path fill="none" stroke-width="3.0" stroke-linecap="round" stroke-opacity="1.0" stroke="rgb(0, 0, 0)" stroke-linejoin="round" d=" M 419.363, 952.750 417.903, 962.643 416.442, 972.536 414.982, 982.429 413.521, 992.321 412.061, 1002.214 410.600, 1012.107 409.140, 1022.000 407.680, 1031.893 406.219, 1041.785 404.759, 1051.678 403.298, 1061.571 401.838, 1071.464 401.478, 1073.903 " />
            <path fill="none" stroke-width="3.0" stroke-linecap="round" stroke-opacity="1.0" stroke="rgb(0, 0, 0)" stroke-linejoin="round" d=" M 468.900, 630.583 470.382, 633.535 " />
            <path fill="none" stroke-width="3.0" stroke-linecap="round" stroke-opacity="1.0" stroke="rgb(0, 0, 0)" stroke-linejoin="round" d=" M 462.862, 1474.105 464.166, 1484.020 465.470, 1493.935 466.775, 1503.849 468.079, 1513.764 469.384, 1523.678 470.688, 1533.593 471.442, 1539.323 472.746, 1549.237 472.795, 1549.606 " />
            <path fill="none" stroke-width="3.0" stroke-linecap="round" stroke-opacity="1.0" stroke="rgb(0, 0, 0)" stroke-linejoin="round" d=" M 470.376, 631.136 471.183, 634.764 " />
            <path fill="none" stroke-width="3.0" stroke-linecap="round" stroke-opacity="1.0" stroke="rgb(0, 0, 0)" stroke-linejoin="round" d=" M 474.414, 639.109 474.306, 639.557 " />
            <path fill="none" stroke-width="3.0" stroke-linecap="round" stroke-opacity="1.0" stroke="rgb(0, 0, 0)" stroke-linejoin="round" d=" M 475.590, 633.089 473.821, 638.813 473.686, 639.249 " />
            <path fill="none" stroke-width="3.0" stroke-linecap="round" stroke-opacity="1.0" stroke="rgb(0, 0, 0)" stroke-linejoin="round" d=" M 488.523, 658.286 487.804, 648.312 487.085, 638.338 487.015, 637.368 " />
            <path fill="none" stroke-width="3.0" stroke-linecap="round" stroke-opacity="1.0" stroke="rgb(0, 0, 0)" stroke-linejoin="round" d=" M 494.760, 425.239 496.491, 435.088 498.221, 444.937 499.951, 454.786 500.062, 455.420 501.333, 462.656 " />
            <path fill="none" stroke-width="3.0" stroke-linecap="round" stroke-opacity="1.0" stroke="rgb(0, 0, 0)" stroke-linejoin="round" d=" M 503.852, 1153.702 499.865, 1162.873 496.578, 1170.435 492.592, 1179.606 488.605, 1188.777 486.385, 1193.886 " />
            <path fill="none" stroke-width="3.0" stroke-linecap="round" stroke-opacity="1.0" stroke="rgb(0, 0, 0)" stroke-linejoin="round" d=" M 520.401, 673.742 522.997, 679.183 " />
            <path fill="none" stroke-width="3.0" stroke-linecap="round" stroke-opacity="1.0" stroke="rgb(0, 0, 0)" stroke-linejoin="round" d=" M 506.228, 644.046 510.535, 653.071 514.545, 661.472 " />
            <path fill="none" stroke-width="3.0" stroke-linecap="round" stroke-opacity="1.0" stroke="rgb(0, 0, 0)" stroke-linejoin="round" d=" M 472.585, 646.712 463.238, 650.267 453.891, 653.822 451.135, 654.870 461.103, 655.662 471.072, 656.455 478.815, 657.070 " />
            <path fill="none" stroke-width="3.0" stroke-linecap="round" stroke-opacity="1.0" stroke="rgb(0, 0, 0)" stroke-linejoin="round" d=" M 535.022, 1107.479 534.968, 1097.479 534.915, 1087.479 534.861, 1077.480 534.808, 1067.480 534.754, 1057.480 534.701, 1047.480 534.647, 1037.480 534.594, 1027.480 534.538, 1017.030 535.854, 1008.541 " />
            <path fill="none" stroke-width="3.0" stroke-linecap="round" stroke-opacity="1.0" stroke="rgb(0, 0, 0)" stroke-linejoin="round" d=" M 463.472, 1322.818 453.995, 1326.008 444.430, 1329.227 " />
            <path fill="none" stroke-width="3.0" stroke-linecap="round" stroke-opacity="1.0" stroke="rgb(0, 0, 0)" stroke-linejoin="round" d=" M 503.187, 424.506 513.148, 425.381 523.110, 426.256 533.072, 427.131 543.033, 428.005 549.529, 428.576 " />
            <path fill="none" stroke-width="3.0" stroke-linecap="round" stroke-opacity="1.0" stroke="rgb(0, 0, 0)" stroke-linejoin="round" d=" M 539.013, 652.268 544.126, 643.675 547.536, 637.945 550.389, 633.151 550.407, 633.016 " />
            <path fill="none" stroke-width="3.0" stroke-linecap="round" stroke-opacity="1.0" stroke="rgb(0, 0, 0)" stroke-linejoin="round" d=" M 457.337, 1407.352 454.084, 1407.385 " />
            <path fill="none" stroke-width="3.0" stroke-linecap="round" stroke-opacity="1.0" stroke="rgb(0, 0, 0)" stroke-linejoin="round" d=" M 485.868, 1551.343 475.955, 1550.026 472.795, 1549.606 " />
            <path fill="none" stroke-width="3.0" stroke-linecap="round" stroke-opacity="1.0" stroke="rgb(0, 0, 0)" stroke-linejoin="round" d=" M 596.797, 610.069 592.800, 619.236 588.803, 628.402 584.806, 637.569 582.326, 643.257 " />
            <path fill="none" stroke-width="3.0" stroke-linecap="round" stroke-opacity="1.0" stroke="rgb(0, 0, 0)" stroke-linejoin="round" d=" M 549.529, 471.976 558.085, 466.800 566.641, 461.623 575.197, 456.447 583.753, 451.270 592.309, 446.094 600.865, 440.918 604.007, 439.017 612.563, 433.840 621.119, 428.664 629.675, 423.487 638.231, 418.311 646.787, 413.134 649.086, 411.743 " />
            <path fill="none" stroke-width="3.0" stroke-linecap="round" stroke-opacity="1.0" stroke="rgb(0, 0, 0)" stroke-linejoin="round" d=" M 629.797, 1010.261 631.578, 1020.101 633.359, 1029.941 635.139, 1039.781 636.920, 1049.622 638.701, 1059.462 640.481, 1069.302 642.262, 1079.142 644.043, 1088.982 645.823, 1098.823 647.604, 1108.663 649.384, 1118.503 649.777, 1120.674 651.558, 1130.514 653.354, 1140.442 " />
        </g>
    </g>
</svg>
