<?xml version='1.0' encoding='ascii'?>
<svg xmlns="http://www.w3.org/2000/svg" version="1.1" width="1001" height="2138">
    <g id="View Layer_LineSet" xmlns:inkscape="http://www.inkscape.org/namespaces/inkscape" inkscape:groupmode="lineset" inkscape:label="View Layer_LineSet">
        <g xmlns:inkscape="http://www.inkscape.org/namespaces/inkscape" inkscape:groupmode="layer" id="strokes" inkscape:label="strokes">
            <path fill="none" stroke-width="3.0" stroke-linecap="round" stroke-opacity="1.0" stroke="rgb(0, 0, 0)" stroke-linejoin="round" d=" M 558.794, 585.420 560.632, 575.590 561.264, 572.210 563.102, 562.380 564.940, 552.551 566.778, 542.721 568.617, 532.892 570.455, 523.062 572.293, 513.232 573.720, 505.597 567.063, 498.135 560.405, 490.674 553.748, 483.212 547.091, 475.750 540.433, 468.288 533.776, 460.827 527.118, 453.365 519.974, 445.357 511.171, 440.613 502.368, 435.869 493.564, 431.125 484.761, 426.381 475.958, 421.637 467.155, 416.893 458.352, 412.149 454.280, 409.955 444.525, 412.154 437.317, 413.780 " />
            <path fill="none" stroke-width="3.0" stroke-linecap="round" stroke-opacity="1.0" stroke="rgb(0, 0, 0)" stroke-linejoin="round" d=" M 529.395, 1607.692 529.519, 1606.409 530.479, 1596.455 531.439, 1586.502 532.400, 1576.548 533.360, 1566.594 534.320, 1556.640 535.280, 1546.686 536.240, 1536.733 537.200, 1526.779 538.161, 1516.825 539.121, 1506.871 540.081, 1496.917 541.041, 1486.964 542.001, 1477.010 542.961, 1467.056 543.922, 1457.102 544.882, 1447.148 545.841, 1437.199 545.383, 1427.210 544.925, 1417.220 544.467, 1407.231 544.009, 1397.241 543.551, 1387.252 543.092, 1377.262 542.634, 1367.273 542.176, 1357.283 541.718, 1347.294 541.260, 1337.304 540.802, 1327.315 540.343, 1317.325 539.978, 1309.360 540.774, 1299.392 541.571, 1289.424 542.367, 1279.456 543.163, 1269.487 543.959, 1259.519 544.755, 1249.551 545.552, 1239.583 546.348, 1229.614 547.144, 1219.646 547.940, 1209.678 548.737, 1199.710 549.533, 1189.741 550.064, 1183.096 551.349, 1173.179 552.634, 1163.262 553.919, 1153.344 555.205, 1143.427 556.490, 1133.510 557.775, 1123.593 559.060, 1113.676 559.362, 1111.345 " />
            <path fill="none" stroke-width="3.0" stroke-linecap="round" stroke-opacity="1.0" stroke="rgb(0, 0, 0)" stroke-linejoin="round" d=" M 295.157, 1073.235 295.479, 1083.229 295.801, 1093.224 296.123, 1103.219 296.445, 1113.214 296.767, 1123.209 297.089, 1133.204 297.411, 1143.198 297.733, 1153.193 297.803, 1155.359 299.768, 1165.164 301.733, 1174.969 303.698, 1184.774 305.663, 1194.579 307.629, 1204.384 309.594, 1214.189 311.559, 1223.994 313.524, 1233.799 315.489, 1243.604 317.454, 1253.409 319.427, 1263.249 321.228, 1273.085 323.029, 1282.922 324.831, 1292.758 326.632, 1302.595 328.434, 1312.431 330.235, 1322.267 332.036, 1332.104 332.736, 1335.923 333.953, 1345.849 335.170, 1355.775 336.387, 1365.700 337.604, 1375.626 338.821, 1385.552 340.039, 1395.477 341.256, 1405.403 342.473, 1415.329 342.705, 1417.226 344.112, 1427.127 345.518, 1437.028 346.924, 1446.928 348.330, 1456.829 349.736, 1466.729 350.351, 1471.058 351.757, 1480.958 353.163, 1490.859 354.252, 1498.526 354.817, 1502.505 356.038, 1511.100 357.444, 1521.001 358.850, 1530.902 360.256, 1540.802 360.398, 1541.797 361.234, 1547.687 362.165, 1554.241 " />
            <path fill="none" stroke-width="3.0" stroke-linecap="round" stroke-opacity="1.0" stroke="rgb(0, 0, 0)" stroke-linejoin="round" d=" M 265.349, 1619.890 268.563, 1610.421 271.777, 1600.951 274.992, 1591.482 278.206, 1582.013 280.760, 1574.488 " />
            <path fill="none" stroke-width="3.0" stroke-linecap="round" stroke-opacity="1.0" stroke="rgb(0, 0, 0)" stroke-linejoin="round" d=" M 280.760, 1574.488 271.300, 1571.245 261.841, 1568.002 252.381, 1564.759 248.098, 1563.291 " />
            <path fill="none" stroke-width="3.0" stroke-linecap="round" stroke-opacity="1.0" stroke="rgb(0, 0, 0)" stroke-linejoin="round" d=" M 360.398, 1541.797 351.912, 1536.507 351.726, 1536.391 343.240, 1531.101 334.754, 1525.811 330.521, 1523.172 322.263, 1517.532 315.613, 1512.990 307.355, 1507.350 305.089, 1505.803 296.832, 1500.162 289.410, 1495.094 284.229, 1503.647 279.048, 1512.200 273.867, 1520.753 268.685, 1529.306 263.504, 1537.859 258.323, 1546.412 253.142, 1554.965 248.098, 1563.291 243.814, 1572.327 239.529, 1581.363 235.245, 1590.398 232.123, 1596.984 240.356, 1602.660 248.589, 1608.336 256.822, 1614.012 265.349, 1619.890 273.907, 1625.063 282.465, 1630.236 291.023, 1635.409 299.581, 1640.582 308.139, 1645.755 316.697, 1650.928 325.255, 1656.101 333.813, 1661.275 342.371, 1666.448 350.929, 1671.621 359.487, 1676.794 368.045, 1681.967 376.603, 1687.140 379.973, 1689.177 389.919, 1690.214 399.865, 1691.251 409.811, 1692.287 419.758, 1693.324 429.704, 1694.361 439.650, 1695.398 449.596, 1696.435 459.542, 1697.471 464.397, 1697.977 464.107, 1687.982 463.817, 1677.986 463.527, 1667.990 463.237, 1657.994 463.144, 1654.793 463.599, 1644.803 463.933, 1637.441 464.200, 1631.573 464.655, 1621.583 465.109, 1611.594 465.563, 1601.604 466.017, 1591.614 466.241, 1586.701 466.695, 1576.712 467.149, 1566.722 467.604, 1556.732 468.058, 1546.743 468.509, 1536.829 468.963, 1526.839 469.416, 1516.878 469.793, 1508.595 470.247, 1498.606 470.610, 1490.625 469.330, 1480.708 468.051, 1470.790 466.771, 1460.872 465.492, 1450.954 464.212, 1441.036 462.933, 1431.118 461.653, 1421.201 461.409, 1419.307 460.130, 1409.390 458.850, 1399.472 457.571, 1389.554 456.291, 1379.636 454.981, 1369.482 455.628, 1359.503 456.275, 1349.524 456.306, 1349.048 456.953, 1339.069 457.600, 1329.090 458.247, 1319.111 458.894, 1309.132 459.541, 1299.153 459.579, 1298.568 460.226, 1288.589 460.873, 1278.610 461.520, 1268.631 462.167, 1258.652 462.285, 1256.830 462.932, 1246.851 463.078, 1244.604 461.807, 1234.685 460.537, 1224.766 459.266, 1214.847 457.996, 1204.928 456.726, 1195.009 456.507, 1193.305 455.423, 1184.841 464.209, 1180.064 472.994, 1175.288 481.779, 1170.511 487.972, 1167.144 496.757, 1162.367 505.542, 1157.590 513.404, 1153.316 520.788, 1146.572 528.172, 1139.829 535.556, 1133.085 542.294, 1126.933 546.468, 1123.121 553.852, 1116.377 559.362, 1111.345 564.192, 1102.589 569.021, 1093.832 573.850, 1085.075 578.680, 1076.319 583.509, 1067.562 588.338, 1058.806 592.253, 1051.706 589.151, 1045.433 584.719, 1036.469 580.287, 1027.505 579.245, 1025.400 574.813, 1016.435 570.381, 1007.471 565.948, 998.507 563.522, 993.600 " />
            <path fill="none" stroke-width="3.0" stroke-linecap="round" stroke-opacity="1.0" stroke="rgb(0, 0, 0)" stroke-linejoin="round" d=" M 506.429, 686.741 514.922, 681.462 523.415, 676.183 531.908, 670.904 540.400, 665.625 548.909, 660.336 " />
            <path fill="none" stroke-width="3.0" stroke-linecap="round" stroke-opacity="1.0" stroke="rgb(0, 0, 0)" stroke-linejoin="round" d=" M 548.909, 660.336 544.016, 651.615 539.123, 642.893 534.230, 634.172 530.343, 627.245 " />
            <path fill="none" stroke-width="3.0" stroke-linecap="round" stroke-opacity="1.0" stroke="rgb(0, 0, 0)" stroke-linejoin="round" d=" M 259.962, 477.502 253.493, 469.876 247.734, 463.087 238.268, 466.312 228.803, 469.538 219.337, 472.763 209.872, 475.989 204.629, 477.776 197.525, 484.814 190.421, 491.851 183.317, 498.889 176.212, 505.927 169.108, 512.965 162.004, 520.003 154.900, 527.041 147.796, 534.078 140.692, 541.116 136.549, 545.220 137.511, 555.173 138.474, 565.127 139.436, 575.081 139.960, 580.509 136.583, 589.921 133.206, 599.334 129.829, 608.746 126.452, 618.159 123.075, 627.571 119.698, 636.984 116.321, 646.396 112.943, 655.809 109.566, 665.221 106.189, 674.634 102.812, 684.046 99.435, 693.459 96.058, 702.871 92.681, 712.284 89.304, 721.696 85.927, 731.109 82.549, 740.521 79.172, 749.934 75.795, 759.346 72.418, 768.759 69.212, 777.694 74.778, 786.002 80.344, 794.310 85.909, 802.618 91.475, 810.926 97.041, 819.234 102.607, 827.542 108.172, 835.850 113.738, 844.158 119.304, 852.466 124.870, 860.774 127.379, 864.519 137.374, 864.847 147.368, 865.174 157.363, 865.501 167.358, 865.828 177.352, 866.156 187.347, 866.483 197.341, 866.810 207.336, 867.138 217.331, 867.465 227.325, 867.792 237.320, 868.120 247.315, 868.447 257.309, 868.774 267.304, 869.102 277.299, 869.429 287.293, 869.756 297.288, 870.084 301.472, 870.221 311.372, 870.545 319.656, 870.816 329.524, 872.435 339.392, 874.054 347.097, 875.319 352.487, 876.203 362.355, 877.822 372.223, 879.442 382.091, 881.061 391.959, 882.680 401.828, 884.299 412.280, 886.014 " />
            <path fill="none" stroke-width="3.0" stroke-linecap="round" stroke-opacity="1.0" stroke="rgb(0, 0, 0)" stroke-linejoin="round" d=" M 94.122, 794.903 85.894, 789.219 77.667, 783.535 69.212, 777.694 77.174, 771.644 85.136, 765.594 93.098, 759.543 101.060, 753.493 109.022, 747.443 116.984, 741.393 124.947, 735.342 132.909, 729.292 135.043, 727.670 " />
            <path fill="none" stroke-width="3.0" stroke-linecap="round" stroke-opacity="1.0" stroke="rgb(0, 0, 0)" stroke-linejoin="round" d=" M 135.043, 727.670 135.377, 717.676 135.711, 707.682 136.045, 697.687 136.379, 687.693 136.713, 677.698 137.047, 667.704 137.381, 657.709 137.715, 647.715 138.049, 637.721 138.383, 627.726 138.716, 617.732 139.050, 607.737 139.384, 597.743 139.718, 587.748 139.960, 580.509 " />
            <path fill="none" stroke-width="3.0" stroke-linecap="round" stroke-opacity="1.0" stroke="rgb(0, 0, 0)" stroke-linejoin="round" d=" M 135.043, 727.670 135.619, 717.687 136.196, 707.704 136.773, 697.720 137.349, 687.737 137.926, 677.754 138.503, 667.770 139.079, 657.787 139.656, 647.803 140.233, 637.820 140.809, 627.837 141.386, 617.853 141.962, 607.870 142.539, 597.887 143.116, 587.903 143.692, 577.920 144.269, 567.937 144.923, 556.617 " />
            <path fill="none" stroke-width="3.0" stroke-linecap="round" stroke-opacity="1.0" stroke="rgb(0, 0, 0)" stroke-linejoin="round" d=" M 144.923, 556.617 142.889, 566.408 140.855, 576.199 139.960, 580.509 " />
            <path fill="none" stroke-width="3.0" stroke-linecap="round" stroke-opacity="1.0" stroke="rgb(0, 0, 0)" stroke-linejoin="round" d=" M 395.442, 639.370 405.213, 641.498 414.984, 643.627 424.755, 645.755 434.526, 647.883 437.886, 648.615 " />
            <path fill="none" stroke-width="3.0" stroke-linecap="round" stroke-opacity="1.0" stroke="rgb(0, 0, 0)" stroke-linejoin="round" d=" M 354.213, 593.669 355.905, 597.480 359.964, 606.619 361.024, 609.007 368.523, 615.623 376.022, 622.239 383.521, 628.854 391.020, 635.470 395.442, 639.370 399.181, 648.645 402.921, 657.919 406.128, 665.873 407.630, 669.598 411.369, 678.872 412.661, 682.076 " />
            <path fill="none" stroke-width="3.0" stroke-linecap="round" stroke-opacity="1.0" stroke="rgb(0, 0, 0)" stroke-linejoin="round" d=" M 591.234, 1043.725 588.201, 1034.196 585.168, 1024.667 582.135, 1015.138 579.102, 1005.609 576.069, 996.080 573.036, 986.551 570.003, 977.022 566.970, 967.493 563.937, 957.964 560.904, 948.435 557.871, 938.906 554.838, 929.377 551.485, 918.842 554.420, 909.282 557.355, 899.723 560.290, 890.163 563.225, 880.603 566.160, 871.044 569.095, 861.484 572.031, 851.925 574.966, 842.365 577.901, 832.806 580.836, 823.246 583.771, 813.687 586.706, 804.127 589.641, 794.567 592.576, 785.008 595.511, 775.448 598.446, 765.889 601.382, 756.329 602.809, 751.680 605.394, 742.020 607.978, 732.360 610.563, 722.700 613.148, 713.040 615.733, 703.380 618.317, 693.719 620.902, 684.059 623.487, 674.399 626.071, 664.739 628.656, 655.079 629.971, 650.165 623.616, 642.444 617.262, 634.723 610.907, 627.001 604.552, 619.280 598.583, 612.026 " />
            <path fill="none" stroke-width="3.0" stroke-linecap="round" stroke-opacity="1.0" stroke="rgb(0, 0, 0)" stroke-linejoin="round" d=" M 412.661, 682.076 420.626, 688.123 428.591, 694.169 436.556, 700.216 444.521, 706.262 452.486, 712.309 460.451, 718.355 463.707, 720.827 " />
            <path fill="none" stroke-width="3.0" stroke-linecap="round" stroke-opacity="1.0" stroke="rgb(0, 0, 0)" stroke-linejoin="round" d=" M 393.379, 787.781 400.621, 780.885 407.864, 773.990 415.107, 767.095 422.349, 760.200 429.592, 753.305 436.835, 746.410 444.078, 739.514 451.320, 732.619 458.563, 725.724 463.707, 720.827 462.727, 710.875 461.747, 700.923 460.766, 690.972 459.786, 681.020 458.806, 671.068 457.826, 661.116 457.543, 658.241 " />
            <path fill="none" stroke-width="3.0" stroke-linecap="round" stroke-opacity="1.0" stroke="rgb(0, 0, 0)" stroke-linejoin="round" d=" M 608.945, 634.368 606.995, 630.163 602.787, 621.091 598.583, 612.026 594.375, 602.955 590.167, 593.883 585.960, 584.811 585.095, 582.946 575.463, 580.256 571.533, 579.159 563.251, 573.554 561.264, 572.210 " />
            <path fill="none" stroke-width="3.0" stroke-linecap="round" stroke-opacity="1.0" stroke="rgb(0, 0, 0)" stroke-linejoin="round" d=" M 338.649, 750.576 328.666, 751.172 318.684, 751.768 318.457, 751.782 308.475, 752.378 298.492, 752.974 288.510, 753.571 278.528, 754.167 268.546, 754.763 258.564, 755.359 248.581, 755.955 238.599, 756.552 228.617, 757.148 218.635, 757.744 208.653, 758.340 198.670, 758.937 188.688, 759.533 178.706, 760.129 168.724, 760.725 158.742, 761.322 148.759, 761.918 138.777, 762.514 128.795, 763.110 121.673, 763.536 125.166, 754.166 128.659, 744.795 132.152, 735.425 135.043, 727.670 137.932, 718.097 140.820, 708.523 143.709, 698.949 146.598, 689.376 149.487, 679.802 152.376, 670.229 155.265, 660.655 158.153, 651.081 161.042, 641.508 163.931, 631.934 166.820, 622.360 169.709, 612.787 172.598, 603.213 175.486, 593.639 178.288, 584.356 181.176, 574.783 181.677, 573.125 182.948, 568.910 " />
            <path fill="none" stroke-width="3.0" stroke-linecap="round" stroke-opacity="1.0" stroke="rgb(0, 0, 0)" stroke-linejoin="round" d=" M 182.948, 568.910 175.490, 566.499 165.975, 563.423 156.460, 560.347 146.945, 557.271 144.923, 556.617 " />
            <path fill="none" stroke-width="3.0" stroke-linecap="round" stroke-opacity="1.0" stroke="rgb(0, 0, 0)" stroke-linejoin="round" d=" M 127.379, 864.519 123.068, 855.496 118.758, 846.473 114.447, 837.450 110.136, 828.426 105.826, 819.403 101.515, 810.380 97.204, 801.357 94.122, 794.903 " />
            <path fill="none" stroke-width="3.0" stroke-linecap="round" stroke-opacity="1.0" stroke="rgb(0, 0, 0)" stroke-linejoin="round" d=" M 94.122, 794.903 99.321, 786.361 104.520, 777.819 109.719, 769.277 114.918, 760.735 120.117, 752.193 125.317, 743.650 130.516, 735.108 135.043, 727.670 " />
            <path fill="none" stroke-width="3.0" stroke-linecap="round" stroke-opacity="1.0" stroke="rgb(0, 0, 0)" stroke-linejoin="round" d=" M 321.202, 770.551 312.068, 774.621 302.934, 778.691 293.800, 782.762 288.856, 784.965 279.722, 789.035 272.112, 792.426 262.113, 792.565 252.114, 792.704 242.115, 792.843 232.116, 792.983 222.117, 793.122 212.118, 793.261 202.119, 793.400 192.120, 793.539 182.121, 793.678 172.122, 793.818 162.123, 793.957 152.124, 794.096 142.125, 794.235 132.126, 794.374 122.127, 794.514 112.128, 794.653 102.129, 794.792 94.122, 794.903 100.721, 787.390 107.320, 779.877 113.919, 772.364 120.519, 764.850 121.673, 763.536 " />
            <path fill="none" stroke-width="3.0" stroke-linecap="round" stroke-opacity="1.0" stroke="rgb(0, 0, 0)" stroke-linejoin="round" d=" M 338.649, 750.576 330.184, 755.900 321.719, 761.224 313.254, 766.548 304.789, 771.872 296.325, 777.197 295.096, 777.969 286.631, 783.294 278.166, 788.618 272.112, 792.426 277.298, 800.976 282.484, 809.526 287.669, 818.077 292.855, 826.627 294.812, 829.854 299.998, 838.405 305.184, 846.955 310.370, 855.505 315.555, 864.055 319.656, 870.816 326.295, 863.338 332.934, 855.860 339.574, 848.382 341.185, 846.567 347.824, 839.089 354.464, 831.611 361.103, 824.133 367.742, 816.655 374.381, 809.177 381.021, 801.699 387.660, 794.222 393.379, 787.781 " />
            <path fill="none" stroke-width="3.0" stroke-linecap="round" stroke-opacity="1.0" stroke="rgb(0, 0, 0)" stroke-linejoin="round" d=" M 321.202, 770.551 327.781, 763.019 334.359, 755.487 338.649, 750.576 " />
            <path fill="none" stroke-width="3.0" stroke-linecap="round" stroke-opacity="1.0" stroke="rgb(0, 0, 0)" stroke-linejoin="round" d=" M 530.472, 1101.950 521.954, 1107.190 521.560, 1107.432 513.042, 1112.672 504.524, 1117.911 496.007, 1123.150 487.489, 1128.390 478.972, 1133.629 470.454, 1138.868 461.936, 1144.107 459.184, 1145.801 " />
            <path fill="none" stroke-width="3.0" stroke-linecap="round" stroke-opacity="1.0" stroke="rgb(0, 0, 0)" stroke-linejoin="round" d=" M 447.756, 1075.458 449.360, 1085.329 450.963, 1095.199 451.777, 1100.209 453.381, 1110.079 454.984, 1119.950 456.588, 1129.821 457.982, 1138.406 459.184, 1145.801 458.225, 1155.755 457.266, 1165.708 456.307, 1175.662 455.423, 1184.841 " />
            <path fill="none" stroke-width="3.0" stroke-linecap="round" stroke-opacity="1.0" stroke="rgb(0, 0, 0)" stroke-linejoin="round" d=" M 513.404, 1153.316 516.557, 1143.826 519.711, 1134.336 522.864, 1124.846 526.017, 1115.356 528.414, 1108.142 530.472, 1101.950 " />
            <path fill="none" stroke-width="3.0" stroke-linecap="round" stroke-opacity="1.0" stroke="rgb(0, 0, 0)" stroke-linejoin="round" d=" M 136.549, 545.220 142.470, 553.279 144.923, 556.617 152.991, 550.709 161.059, 544.801 169.127, 538.893 177.195, 532.985 181.631, 529.737 188.673, 522.637 195.715, 515.537 202.757, 508.437 209.798, 501.336 216.840, 494.236 223.882, 487.136 230.924, 480.036 237.966, 472.936 245.008, 465.835 247.734, 463.087 " />
            <path fill="none" stroke-width="3.0" stroke-linecap="round" stroke-opacity="1.0" stroke="rgb(0, 0, 0)" stroke-linejoin="round" d=" M 181.631, 529.737 172.173, 532.985 162.715, 536.233 153.258, 539.482 143.800, 542.730 136.549, 545.220 " />
            <path fill="none" stroke-width="3.0" stroke-linecap="round" stroke-opacity="1.0" stroke="rgb(0, 0, 0)" stroke-linejoin="round" d=" M 585.095, 582.946 581.310, 591.039 580.605, 592.547 576.370, 601.606 572.134, 610.665 567.898, 619.723 563.663, 628.782 559.427, 637.841 555.191, 646.899 550.956, 655.958 548.909, 660.336 558.087, 656.366 567.265, 652.396 576.443, 648.426 585.622, 644.456 594.800, 640.486 603.978, 636.516 608.945, 634.368 616.940, 640.375 624.935, 646.381 629.971, 650.165 " />
            <path fill="none" stroke-width="3.0" stroke-linecap="round" stroke-opacity="1.0" stroke="rgb(0, 0, 0)" stroke-linejoin="round" d=" M 390.543, 536.878 389.570, 546.831 388.596, 556.783 388.186, 560.973 387.213, 570.926 386.885, 574.281 385.911, 584.234 384.938, 594.186 383.964, 604.139 383.111, 612.867 " />
            <path fill="none" stroke-width="3.0" stroke-linecap="round" stroke-opacity="1.0" stroke="rgb(0, 0, 0)" stroke-linejoin="round" d=" M 346.724, 518.640 346.302, 519.185 346.285, 519.207 345.813, 519.816 345.277, 520.508 339.150, 528.411 333.024, 536.315 330.355, 539.757 330.033, 549.752 329.759, 558.261 336.840, 565.322 343.920, 572.384 345.428, 573.887 347.788, 576.241 348.497, 576.948 354.180, 582.845 356.553, 585.308 356.740, 585.502 357.703, 586.502 358.207, 587.025 362.828, 591.820 362.904, 591.899 369.843, 599.099 370.266, 599.538 377.205, 606.739 383.111, 612.867 388.701, 616.515 397.076, 621.981 405.450, 627.446 408.090, 629.169 416.465, 634.635 424.839, 640.100 425.010, 640.212 433.384, 645.677 434.493, 646.400 434.822, 646.615 437.886, 648.615 446.260, 654.080 454.286, 659.318 457.543, 658.241 467.037, 655.102 476.532, 651.963 480.520, 650.644 490.014, 647.505 497.467, 645.040 497.474, 645.038 506.968, 641.899 509.794, 640.964 512.414, 640.098 512.870, 639.947 522.365, 636.808 524.266, 636.179 529.890, 627.911 530.343, 627.245 535.968, 618.977 541.592, 610.708 541.724, 610.515 547.348, 602.247 552.405, 594.813 557.606, 587.167 558.794, 585.420 " />
            <path fill="none" stroke-width="3.0" stroke-linecap="round" stroke-opacity="1.0" stroke="rgb(0, 0, 0)" stroke-linejoin="round" d=" M 454.286, 659.318 455.742, 649.425 457.197, 639.531 458.652, 629.638 460.107, 619.744 461.562, 609.850 463.018, 599.957 464.473, 590.063 464.585, 589.303 465.255, 584.745 465.312, 584.361 465.657, 582.009 " />
            <path fill="none" stroke-width="3.0" stroke-linecap="round" stroke-opacity="1.0" stroke="rgb(0, 0, 0)" stroke-linejoin="round" d=" M 573.720, 505.597 567.747, 513.617 561.774, 521.638 555.801, 529.658 549.781, 537.741 543.808, 545.761 537.835, 553.781 536.874, 555.072 536.273, 555.299 530.609, 557.441 526.784, 558.888 526.585, 558.964 517.232, 562.501 507.878, 566.039 498.525, 569.577 489.172, 573.115 479.819, 576.653 470.465, 580.191 465.657, 582.009 458.701, 577.830 450.466, 572.882 441.894, 567.731 433.322, 562.581 424.750, 557.431 417.747, 553.223 410.231, 548.707 406.532, 546.485 397.960, 541.335 390.543, 536.878 389.910, 536.073 388.812, 534.679 388.519, 534.307 382.333, 526.450 376.147, 518.593 374.301, 516.246 372.655, 514.156 369.371, 509.984 366.521, 506.365 366.194, 505.949 364.229, 503.453 363.278, 502.245 360.902, 499.228 360.654, 498.912 354.468, 491.054 349.147, 484.295 353.722, 475.404 358.298, 466.512 362.874, 457.620 367.450, 448.729 372.025, 439.837 375.451, 433.181 " />
            <path fill="none" stroke-width="3.0" stroke-linecap="round" stroke-opacity="1.0" stroke="rgb(0, 0, 0)" stroke-linejoin="round" d=" M 198.834, 538.099 189.840, 533.727 181.631, 529.737 181.967, 539.731 182.303, 549.726 182.577, 557.877 182.914, 567.871 182.948, 568.910 " />
            <path fill="none" stroke-width="3.0" stroke-linecap="round" stroke-opacity="1.0" stroke="rgb(0, 0, 0)" stroke-linejoin="round" d=" M 279.991, 495.550 279.853, 496.357 279.658, 497.506 279.649, 497.555 279.310, 499.541 277.629, 509.399 276.258, 517.440 " />
            <path fill="none" stroke-width="3.0" stroke-linecap="round" stroke-opacity="1.0" stroke="rgb(0, 0, 0)" stroke-linejoin="round" d=" M 178.288, 584.356 184.222, 591.553 192.367, 585.751 200.511, 579.949 208.656, 574.147 216.801, 568.345 224.945, 562.543 233.090, 556.741 241.235, 550.939 249.379, 545.136 252.312, 543.047 259.143, 535.743 265.973, 528.439 272.803, 521.135 276.258, 517.440 281.987, 509.244 287.050, 502.001 289.189, 498.941 " />
            <path fill="none" stroke-width="3.0" stroke-linecap="round" stroke-opacity="1.0" stroke="rgb(0, 0, 0)" stroke-linejoin="round" d=" M 348.347, 495.626 338.686, 493.047 329.024, 490.468 319.362, 487.889 309.701, 485.309 300.039, 482.730 290.378, 480.151 280.716, 477.572 276.625, 476.479 266.626, 476.594 261.240, 476.655 259.962, 477.502 " />
            <path fill="none" stroke-width="3.0" stroke-linecap="round" stroke-opacity="1.0" stroke="rgb(0, 0, 0)" stroke-linejoin="round" d=" M 279.991, 495.550 272.947, 488.452 265.903, 481.354 261.240, 476.655 " />
            <path fill="none" stroke-width="3.0" stroke-linecap="round" stroke-opacity="1.0" stroke="rgb(0, 0, 0)" stroke-linejoin="round" d=" M 184.222, 591.553 191.792, 585.019 199.362, 578.484 206.931, 571.950 212.505, 567.138 205.914, 559.618 203.626, 557.006 198.614, 551.287 205.042, 543.627 211.470, 535.966 217.898, 528.306 224.326, 520.646 230.754, 512.985 237.182, 505.325 243.610, 497.665 250.038, 490.004 256.466, 482.344 260.247, 477.838 261.240, 476.655 264.695, 486.039 268.151, 495.423 268.345, 495.949 268.359, 495.989 268.360, 495.990 268.389, 496.070 271.845, 505.454 275.300, 514.838 276.258, 517.440 268.371, 523.588 260.485, 529.736 252.598, 535.884 244.711, 542.032 236.824, 548.180 228.938, 554.328 221.051, 560.477 213.164, 566.625 212.505, 567.138 " />
            <path fill="none" stroke-width="3.0" stroke-linecap="round" stroke-opacity="1.0" stroke="rgb(0, 0, 0)" stroke-linejoin="round" d=" M 279.991, 495.550 278.253, 485.702 276.625, 476.479 " />
            <path fill="none" stroke-width="3.0" stroke-linecap="round" stroke-opacity="1.0" stroke="rgb(0, 0, 0)" stroke-linejoin="round" d=" M 448.978, 1143.819 447.237, 1133.972 445.496, 1124.124 443.754, 1114.277 442.013, 1104.430 441.071, 1099.101 439.330, 1089.253 437.588, 1079.406 435.847, 1069.559 434.106, 1059.712 432.365, 1049.865 430.623, 1040.017 428.882, 1030.170 427.141, 1020.323 425.400, 1010.475 424.864, 1007.446 423.833, 997.500 422.803, 987.553 421.772, 977.606 420.741, 967.660 420.369, 964.065 419.338, 954.119 418.961, 950.483 417.930, 940.537 417.361, 935.043 416.599, 927.688 415.568, 917.741 414.537, 907.795 413.507, 897.848 412.476, 887.901 412.280, 886.014 " />
            <path fill="none" stroke-width="3.0" stroke-linecap="round" stroke-opacity="1.0" stroke="rgb(0, 0, 0)" stroke-linejoin="round" d=" M 335.627, 982.898 345.268, 985.551 354.910, 988.203 364.552, 990.855 369.341, 992.173 378.982, 994.825 388.624, 997.477 398.266, 1000.130 407.908, 1002.782 417.550, 1005.434 424.864, 1007.446 433.895, 1003.152 442.926, 998.857 451.957, 994.563 460.988, 990.268 470.019, 985.974 479.049, 981.679 488.080, 977.385 497.111, 973.090 497.854, 972.737 " />
            <path fill="none" stroke-width="3.0" stroke-linecap="round" stroke-opacity="1.0" stroke="rgb(0, 0, 0)" stroke-linejoin="round" d=" M 407.630, 669.598 401.145, 677.210 394.661, 684.823 388.176, 692.435 381.691, 700.047 375.207, 707.660 368.722, 715.272 362.237, 722.885 355.753, 730.497 349.268, 738.109 342.783, 745.722 338.649, 750.576 345.988, 743.783 353.327, 736.991 360.666, 730.198 368.005, 723.406 375.344, 716.614 382.683, 709.821 390.023, 703.029 397.362, 696.236 404.701, 689.444 412.661, 682.076 " />
            <path fill="none" stroke-width="3.0" stroke-linecap="round" stroke-opacity="1.0" stroke="rgb(0, 0, 0)" stroke-linejoin="round" d=" M 531.475, 831.668 522.376, 835.817 513.277, 839.966 504.179, 844.114 495.080, 848.263 485.981, 852.411 476.882, 856.560 467.783, 860.708 458.684, 864.857 449.585, 869.005 440.486, 873.154 431.388, 877.302 422.289, 881.451 412.280, 886.014 410.391, 876.194 408.501, 866.374 406.612, 856.554 404.722, 846.734 402.833, 836.915 400.943, 827.095 399.054, 817.275 397.164, 807.455 395.275, 797.635 393.379, 787.781 383.652, 785.459 373.925, 783.137 364.199, 780.815 354.472, 778.493 344.745, 776.171 335.018, 773.849 327.802, 772.126 321.202, 770.551 330.169, 767.422 339.611, 764.127 349.053, 760.833 358.495, 757.538 367.936, 754.244 377.378, 750.949 386.820, 747.655 396.262, 744.360 405.703, 741.066 415.145, 737.772 424.587, 734.477 434.029, 731.183 443.470, 727.888 452.912, 724.594 462.354, 721.299 463.707, 720.827 " />
            <path fill="none" stroke-width="3.0" stroke-linecap="round" stroke-opacity="1.0" stroke="rgb(0, 0, 0)" stroke-linejoin="round" d=" M 309.445, 918.543 313.213, 927.806 316.982, 937.069 320.750, 946.332 324.519, 955.594 328.287, 964.857 332.055, 974.120 335.132, 981.682 335.627, 982.898 " />
            <path fill="none" stroke-width="3.0" stroke-linecap="round" stroke-opacity="1.0" stroke="rgb(0, 0, 0)" stroke-linejoin="round" d=" M 406.128, 665.873 398.681, 672.547 391.235, 679.222 383.788, 685.896 376.341, 692.571 368.895, 699.245 361.448, 705.919 354.001, 712.594 351.076, 715.215 344.419, 722.678 337.762, 730.140 331.106, 737.602 324.449, 745.065 318.457, 751.782 " />
            <path fill="none" stroke-width="3.0" stroke-linecap="round" stroke-opacity="1.0" stroke="rgb(0, 0, 0)" stroke-linejoin="round" d=" M 455.423, 1184.841 446.165, 1181.061 436.907, 1177.282 427.649, 1173.502 424.496, 1172.215 415.238, 1168.435 405.980, 1164.656 396.722, 1160.876 387.464, 1157.096 378.206, 1153.317 368.947, 1149.537 359.689, 1145.757 350.431, 1141.978 341.173, 1138.198 331.915, 1134.418 322.656, 1130.639 319.019, 1129.154 " />
            <path fill="none" stroke-width="3.0" stroke-linecap="round" stroke-opacity="1.0" stroke="rgb(0, 0, 0)" stroke-linejoin="round" d=" M 323.257, 1241.460 333.254, 1241.684 343.252, 1241.909 353.249, 1242.134 363.247, 1242.359 373.244, 1242.584 383.242, 1242.809 393.239, 1243.033 403.237, 1243.258 413.234, 1243.483 423.231, 1243.708 433.456, 1243.938 443.453, 1244.163 453.451, 1244.388 463.078, 1244.604 " />
            <path fill="none" stroke-width="3.0" stroke-linecap="round" stroke-opacity="1.0" stroke="rgb(0, 0, 0)" stroke-linejoin="round" d=" M 301.472, 870.221 303.100, 880.087 304.728, 889.954 306.356, 899.821 307.984, 909.687 309.445, 918.543 308.043, 928.445 306.641, 938.346 305.239, 948.247 303.837, 958.148 302.435, 968.050 301.033, 977.951 299.631, 987.852 298.229, 997.753 296.827, 1007.654 295.425, 1017.556 294.023, 1027.457 292.621, 1037.358 291.219, 1047.259 289.864, 1056.833 " />
            <path fill="none" stroke-width="3.0" stroke-linecap="round" stroke-opacity="1.0" stroke="rgb(0, 0, 0)" stroke-linejoin="round" d=" M 551.485, 918.842 544.431, 925.930 537.378, 933.019 530.745, 939.683 523.692, 946.772 516.638, 953.860 509.584, 960.948 504.891, 965.666 497.854, 972.737 " />
            <path fill="none" stroke-width="3.0" stroke-linecap="round" stroke-opacity="1.0" stroke="rgb(0, 0, 0)" stroke-linejoin="round" d=" M 531.475, 831.668 529.157, 841.396 526.838, 851.124 524.520, 860.851 522.202, 870.579 519.883, 880.306 517.565, 890.034 515.247, 899.761 512.928, 909.489 510.610, 919.216 508.158, 929.503 508.124, 929.644 507.067, 934.080 504.749, 943.807 502.431, 953.535 500.112, 963.262 499.594, 965.438 497.854, 972.737 499.945, 982.516 502.035, 992.295 504.126, 1002.074 506.216, 1011.853 508.307, 1021.632 510.397, 1031.411 512.488, 1041.190 514.578, 1050.969 516.669, 1060.748 518.759, 1070.527 520.850, 1080.306 522.940, 1090.085 524.696, 1098.300 " />
            <path fill="none" stroke-width="3.0" stroke-linecap="round" stroke-opacity="1.0" stroke="rgb(0, 0, 0)" stroke-linejoin="round" d=" M 506.429, 686.741 498.612, 692.978 490.795, 699.215 482.978, 705.452 475.161, 711.688 467.344, 717.925 463.707, 720.827 468.923, 729.359 474.139, 737.891 479.356, 746.422 484.572, 754.954 489.788, 763.486 495.005, 772.017 500.221, 780.549 505.437, 789.081 510.653, 797.613 515.870, 806.144 521.086, 814.676 526.302, 823.208 531.475, 831.668 " />
            <path fill="none" stroke-width="3.0" stroke-linecap="round" stroke-opacity="1.0" stroke="rgb(0, 0, 0)" stroke-linejoin="round" d=" M 531.475, 831.668 529.772, 821.815 528.069, 811.961 526.366, 802.107 524.663, 792.253 522.960, 782.399 521.257, 772.545 519.555, 762.691 517.852, 752.837 516.149, 742.983 514.446, 733.129 512.743, 723.275 511.040, 713.421 509.337, 703.567 507.634, 693.714 506.429, 686.741 504.329, 676.964 502.230, 667.187 500.130, 657.410 498.031, 647.633 497.475, 645.042 497.474, 645.038 " />
            <path fill="none" stroke-width="3.0" stroke-linecap="round" stroke-opacity="1.0" stroke="rgb(0, 0, 0)" stroke-linejoin="round" d=" M 592.253, 1051.706 584.495, 1058.016 576.737, 1064.325 568.979, 1070.635 561.220, 1076.944 553.462, 1083.253 545.704, 1089.563 537.945, 1095.872 530.472, 1101.950 528.398, 1095.264 525.435, 1085.713 522.472, 1076.162 519.509, 1066.611 516.546, 1057.060 513.583, 1047.509 510.620, 1037.958 509.289, 1033.667 501.017, 1039.285 492.744, 1044.904 484.472, 1050.522 476.199, 1056.141 467.927, 1061.759 459.654, 1067.377 451.382, 1072.996 447.756, 1075.458 " />
            <path fill="none" stroke-width="3.0" stroke-linecap="round" stroke-opacity="1.0" stroke="rgb(0, 0, 0)" stroke-linejoin="round" d=" M 311.372, 870.545 313.482, 880.320 315.592, 890.094 317.702, 899.869 319.813, 909.644 321.923, 919.419 324.033, 929.194 326.143, 938.969 328.253, 948.743 330.363, 958.518 332.474, 968.293 334.584, 978.068 335.327, 981.510 335.627, 982.898 334.090, 992.780 332.553, 1002.661 331.016, 1012.542 329.878, 1019.853 328.341, 1029.734 326.804, 1039.616 325.267, 1049.497 323.730, 1059.378 322.193, 1069.259 320.656, 1079.140 319.119, 1089.021 317.582, 1098.903 316.045, 1108.784 314.508, 1118.665 312.982, 1128.473 " />
            <path fill="none" stroke-width="3.0" stroke-linecap="round" stroke-opacity="1.0" stroke="rgb(0, 0, 0)" stroke-linejoin="round" d=" M 289.864, 1056.833 292.935, 1066.350 295.157, 1073.235 298.228, 1082.751 301.299, 1092.268 304.370, 1101.785 307.441, 1111.302 310.512, 1120.818 312.982, 1128.473 318.274, 1129.070 319.019, 1129.154 321.224, 1129.403 331.161, 1130.524 341.098, 1131.645 348.112, 1132.437 358.049, 1133.558 367.986, 1134.679 377.923, 1135.801 387.860, 1136.922 397.797, 1138.043 407.734, 1139.165 417.671, 1140.286 420.900, 1140.650 422.049, 1140.780 422.653, 1140.848 423.270, 1140.918 432.695, 1141.982 442.632, 1143.103 443.429, 1143.193 448.978, 1143.819 " />
            <path fill="none" stroke-width="3.0" stroke-linecap="round" stroke-opacity="1.0" stroke="rgb(0, 0, 0)" stroke-linejoin="round" d=" M 608.945, 634.368 608.423, 644.354 607.900, 654.340 607.378, 664.327 606.856, 674.313 606.333, 684.299 605.811, 694.286 605.289, 704.272 604.766, 714.258 604.244, 724.245 603.722, 734.231 603.199, 744.217 602.809, 751.680 596.153, 759.144 589.497, 766.607 582.841, 774.070 576.186, 781.534 569.530, 788.997 562.874, 796.460 556.218, 803.923 549.563, 811.387 542.907, 818.850 536.251, 826.313 531.475, 831.668 532.488, 821.720 533.500, 811.771 534.512, 801.823 535.524, 791.874 536.537, 781.925 537.549, 771.977 538.561, 762.028 539.574, 752.079 540.586, 742.131 541.598, 732.182 542.611, 722.234 543.623, 712.285 544.635, 702.336 545.647, 692.388 546.660, 682.439 547.672, 672.490 548.684, 662.542 548.909, 660.336 " />
            <path fill="none" stroke-width="3.0" stroke-linecap="round" stroke-opacity="1.0" stroke="rgb(0, 0, 0)" stroke-linejoin="round" d=" M 279.991, 495.550 282.428, 496.448 288.528, 498.697 288.908, 498.837 289.174, 498.935 289.189, 498.941 298.572, 502.400 307.954, 505.859 317.337, 509.318 326.720, 512.777 336.103, 516.236 345.813, 519.816 " />
            <path fill="none" stroke-width="3.0" stroke-linecap="round" stroke-opacity="1.0" stroke="rgb(0, 0, 0)" stroke-linejoin="round" d=" M 379.973, 1689.177 381.919, 1679.368 383.865, 1669.559 385.812, 1659.751 387.758, 1649.942 389.704, 1640.133 390.076, 1638.259 " />
            <path fill="none" stroke-width="3.0" stroke-linecap="round" stroke-opacity="1.0" stroke="rgb(0, 0, 0)" stroke-linejoin="round" d=" M 390.076, 1638.259 381.438, 1633.220 372.800, 1628.181 364.163, 1623.143 355.525, 1618.104 346.887, 1613.065 338.250, 1608.026 329.612, 1602.987 320.974, 1597.948 312.337, 1592.909 303.699, 1587.870 295.061, 1582.831 286.424, 1577.792 280.760, 1574.488 " />
            <path fill="none" stroke-width="3.0" stroke-linecap="round" stroke-opacity="1.0" stroke="rgb(0, 0, 0)" stroke-linejoin="round" d=" M 463.933, 1637.441 473.841, 1638.800 483.748, 1640.159 493.655, 1641.518 503.562, 1642.877 513.470, 1644.236 523.377, 1645.595 533.284, 1646.954 536.050, 1647.333 534.474, 1637.458 532.898, 1627.583 531.322, 1617.708 529.746, 1607.833 529.519, 1606.409 " />
            <path fill="none" stroke-width="3.0" stroke-linecap="round" stroke-opacity="1.0" stroke="rgb(0, 0, 0)" stroke-linejoin="round" d=" M 463.144, 1654.793 453.391, 1652.586 443.638, 1650.379 433.884, 1648.172 424.131, 1645.965 414.377, 1643.758 404.624, 1641.551 394.870, 1639.344 390.076, 1638.259 " />
            <path fill="none" stroke-width="3.0" stroke-linecap="round" stroke-opacity="1.0" stroke="rgb(0, 0, 0)" stroke-linejoin="round" d=" M 529.395, 1607.692 531.051, 1617.554 532.706, 1627.416 534.362, 1637.278 536.050, 1647.333 " />
            <path fill="none" stroke-width="3.0" stroke-linecap="round" stroke-opacity="1.0" stroke="rgb(0, 0, 0)" stroke-linejoin="round" d=" M 318.274, 1129.070 318.717, 1139.060 319.160, 1149.050 319.603, 1159.040 320.046, 1169.031 320.489, 1179.021 320.932, 1189.011 321.374, 1199.001 321.817, 1208.991 322.260, 1218.981 322.703, 1228.972 323.146, 1238.962 323.257, 1241.460 325.583, 1251.185 327.909, 1260.911 330.235, 1270.637 332.561, 1280.362 334.888, 1290.088 337.214, 1299.814 339.540, 1309.539 341.866, 1319.265 344.192, 1328.991 346.518, 1338.716 348.845, 1348.442 351.171, 1358.168 353.497, 1367.893 355.132, 1374.729 355.981, 1384.692 356.831, 1394.656 357.680, 1404.620 358.529, 1414.584 359.379, 1424.548 360.228, 1434.512 361.078, 1444.476 361.927, 1454.439 362.776, 1464.403 363.079, 1467.953 363.928, 1477.917 364.619, 1486.023 366.269, 1495.886 367.918, 1505.749 369.567, 1515.612 371.216, 1525.475 372.866, 1535.338 374.515, 1545.201 375.522, 1551.225 377.172, 1561.088 377.258, 1561.608 378.908, 1571.471 380.164, 1578.982 381.813, 1588.845 383.462, 1598.708 385.111, 1608.571 386.761, 1618.434 388.410, 1628.297 390.076, 1638.259 386.923, 1628.769 383.771, 1619.279 380.618, 1609.789 377.465, 1600.299 374.313, 1590.809 371.160, 1581.319 368.008, 1571.829 367.156, 1569.266 364.004, 1559.776 362.165, 1554.241 355.029, 1547.235 347.894, 1540.229 340.758, 1533.223 333.622, 1526.217 330.521, 1523.172 323.559, 1530.351 321.459, 1532.517 314.498, 1539.696 307.536, 1546.875 300.575, 1554.054 293.613, 1561.233 286.652, 1568.412 280.760, 1574.488 290.464, 1572.074 300.169, 1569.661 309.873, 1567.247 319.577, 1564.833 329.282, 1562.420 338.986, 1560.006 348.690, 1557.592 350.820, 1557.062 360.524, 1554.649 362.165, 1554.241 " />
            <path fill="none" stroke-width="3.0" stroke-linecap="round" stroke-opacity="1.0" stroke="rgb(0, 0, 0)" stroke-linejoin="round" d=" M 308.147, 1481.350 317.255, 1485.479 326.363, 1489.607 335.471, 1493.736 344.579, 1497.864 353.687, 1501.993 354.817, 1502.505 " />
            <path fill="none" stroke-width="3.0" stroke-linecap="round" stroke-opacity="1.0" stroke="rgb(0, 0, 0)" stroke-linejoin="round" d=" M 459.184, 1145.801 449.255, 1144.606 439.327, 1143.412 429.399, 1142.217 420.948, 1141.200 411.020, 1140.006 401.092, 1138.811 391.163, 1137.617 381.235, 1136.422 371.306, 1135.227 361.378, 1134.033 351.450, 1132.838 348.112, 1132.437 " />
            <path fill="none" stroke-width="3.0" stroke-linecap="round" stroke-opacity="1.0" stroke="rgb(0, 0, 0)" stroke-linejoin="round" d=" M 355.132, 1374.729 350.133, 1366.067 345.135, 1357.406 340.136, 1348.745 335.137, 1340.084 332.736, 1335.923 " />
            <path fill="none" stroke-width="3.0" stroke-linecap="round" stroke-opacity="1.0" stroke="rgb(0, 0, 0)" stroke-linejoin="round" d=" M 342.705, 1417.226 345.741, 1426.755 348.776, 1436.283 351.811, 1445.811 354.846, 1455.339 357.881, 1464.868 359.168, 1468.907 362.203, 1478.436 364.619, 1486.023 374.610, 1486.457 384.601, 1486.891 394.591, 1487.324 404.582, 1487.758 414.572, 1488.192 424.563, 1488.626 434.554, 1489.060 439.912, 1489.292 444.271, 1489.482 454.262, 1489.915 464.253, 1490.349 470.610, 1490.625 " />
            <path fill="none" stroke-width="3.0" stroke-linecap="round" stroke-opacity="1.0" stroke="rgb(0, 0, 0)" stroke-linejoin="round" d=" M 350.351, 1471.058 340.636, 1473.427 330.920, 1475.796 321.205, 1478.166 311.490, 1480.535 308.147, 1481.350 306.906, 1491.273 305.665, 1501.196 305.089, 1505.803 " />
            <path fill="none" stroke-width="3.0" stroke-linecap="round" stroke-opacity="1.0" stroke="rgb(0, 0, 0)" stroke-linejoin="round" d=" M 573.720, 505.597 565.915, 499.347 558.109, 493.096 550.303, 486.846 542.497, 480.595 534.691, 474.344 526.885, 468.094 519.080, 461.843 511.274, 455.593 503.468, 449.342 495.662, 443.092 487.856, 436.841 480.051, 430.591 472.245, 424.340 464.439, 418.090 456.633, 411.839 454.280, 409.955 " />
            <path fill="none" stroke-width="3.0" stroke-linecap="round" stroke-opacity="1.0" stroke="rgb(0, 0, 0)" stroke-linejoin="round" d=" M 545.841, 1437.199 536.059, 1435.126 526.276, 1433.053 516.493, 1430.980 506.710, 1428.907 496.928, 1426.834 487.145, 1424.761 477.362, 1422.688 467.579, 1420.615 461.409, 1419.307 " />
            <path fill="none" stroke-width="3.0" stroke-linecap="round" stroke-opacity="1.0" stroke="rgb(0, 0, 0)" stroke-linejoin="round" d=" M 454.981, 1369.482 444.995, 1370.007 442.856, 1370.119 442.581, 1370.134 441.456, 1370.193 431.470, 1370.718 421.484, 1371.242 411.498, 1371.767 401.511, 1372.292 391.525, 1372.816 381.539, 1373.341 371.553, 1373.866 361.567, 1374.390 355.132, 1374.729 352.081, 1365.205 349.031, 1355.682 345.981, 1346.158 342.931, 1336.635 339.881, 1327.111 336.830, 1317.588 333.780, 1308.064 330.730, 1298.541 327.680, 1289.017 324.630, 1279.494 321.579, 1269.971 319.427, 1263.249 " />
            <path fill="none" stroke-width="3.0" stroke-linecap="round" stroke-opacity="1.0" stroke="rgb(0, 0, 0)" stroke-linejoin="round" d=" M 323.257, 1241.460 320.422, 1231.870 317.587, 1222.280 314.752, 1212.690 311.917, 1203.101 309.082, 1193.511 306.247, 1183.921 303.412, 1174.332 300.577, 1164.742 297.803, 1155.359 " />
            <path fill="none" stroke-width="3.0" stroke-linecap="round" stroke-opacity="1.0" stroke="rgb(0, 0, 0)" stroke-linejoin="round" d=" M 349.147, 484.295 349.077, 494.295 349.066, 495.818 349.045, 498.808 348.986, 507.160 348.926, 515.800 348.896, 520.112 348.890, 520.951 348.885, 521.654 348.815, 531.654 348.745, 541.654 348.716, 545.792 348.695, 548.778 348.625, 558.778 348.555, 568.778 348.531, 572.090 348.497, 576.948 348.021, 575.290 345.261, 565.678 344.916, 564.474 343.772, 560.491 " />
            <path fill="none" stroke-width="3.0" stroke-linecap="round" stroke-opacity="1.0" stroke="rgb(0, 0, 0)" stroke-linejoin="round" d=" M 349.147, 484.295 348.443, 494.271 348.347, 495.626 348.125, 498.775 347.630, 505.802 347.548, 506.961 346.844, 516.936 346.724, 518.640 346.676, 519.318 346.674, 519.346 346.620, 520.114 346.563, 520.917 346.389, 523.392 345.685, 533.367 345.575, 534.926 344.872, 544.901 344.168, 554.876 343.772, 560.491 " />
            <path fill="none" stroke-width="3.0" stroke-linecap="round" stroke-opacity="1.0" stroke="rgb(0, 0, 0)" stroke-linejoin="round" d=" M 349.147, 484.295 356.809, 490.721 364.471, 497.147 365.087, 497.664 367.218, 499.451 368.553, 500.571 368.851, 500.821 369.340, 501.231 372.175, 503.608 379.837, 510.034 381.837, 511.712 389.499, 518.137 397.161, 524.563 404.823, 530.989 412.485, 537.415 414.480, 539.088 422.142, 545.514 424.823, 547.762 427.020, 549.605 427.339, 549.872 435.001, 556.298 439.327, 559.927 446.989, 566.353 447.630, 566.891 455.293, 573.317 462.955, 579.742 465.657, 582.009 " />
            <path fill="none" stroke-width="3.0" stroke-linecap="round" stroke-opacity="1.0" stroke="rgb(0, 0, 0)" stroke-linejoin="round" d=" M 330.355, 539.757 337.354, 532.614 344.352, 525.471 346.389, 523.392 " />
            <path fill="none" stroke-width="3.0" stroke-linecap="round" stroke-opacity="1.0" stroke="rgb(0, 0, 0)" stroke-linejoin="round" d=" M 382.344, 430.025 382.709, 430.319 390.482, 436.610 398.256, 442.901 406.030, 449.191 413.803, 455.481 421.577, 461.772 425.138, 464.653 432.911, 470.944 440.685, 477.234 448.459, 483.525 456.232, 489.815 457.323, 490.698 465.096, 496.988 471.310, 502.016 479.083, 508.307 486.857, 514.597 494.631, 520.887 502.404, 527.178 510.178, 533.469 517.952, 539.759 525.725, 546.049 533.499, 552.340 536.874, 555.072 536.785, 555.645 535.718, 562.512 535.054, 566.781 535.036, 566.900 533.500, 576.781 531.963, 586.663 530.427, 596.544 528.891, 606.425 528.502, 608.929 526.966, 618.810 526.672, 620.701 525.136, 630.583 524.266, 636.179 " />
            <path fill="none" stroke-width="3.0" stroke-linecap="round" stroke-opacity="1.0" stroke="rgb(0, 0, 0)" stroke-linejoin="round" d=" M 343.772, 560.491 333.896, 558.919 329.759, 558.261 335.370, 549.983 340.980, 541.705 345.575, 534.926 " />
            <path fill="none" stroke-width="3.0" stroke-linecap="round" stroke-opacity="1.0" stroke="rgb(0, 0, 0)" stroke-linejoin="round" d=" M 345.892, 583.980 348.167, 593.718 349.851, 600.923 " />
            <path fill="none" stroke-width="3.0" stroke-linecap="round" stroke-opacity="1.0" stroke="rgb(0, 0, 0)" stroke-linejoin="round" d=" M 355.905, 597.480 349.851, 600.923 354.213, 593.669 357.517, 588.173 358.207, 587.025 " />
            <path fill="none" stroke-width="3.0" stroke-linecap="round" stroke-opacity="1.0" stroke="rgb(0, 0, 0)" stroke-linejoin="round" d=" M 382.286, 430.357 380.556, 440.206 378.826, 450.055 377.096, 459.904 375.451, 469.270 375.451, 459.270 375.451, 451.433 375.451, 441.433 375.451, 433.181 375.451, 430.957 375.451, 420.957 375.451, 410.957 375.451, 400.957 375.451, 390.957 375.451, 387.363 375.971, 377.376 376.492, 367.390 377.013, 357.403 377.458, 348.874 377.979, 338.887 378.500, 328.901 379.021, 318.914 379.542, 308.928 379.572, 308.364 381.302, 298.514 383.032, 288.665 384.762, 278.816 386.407, 269.451 388.137, 259.601 389.867, 249.752 391.597, 239.903 393.243, 230.537 392.722, 240.524 392.201, 250.510 391.680, 260.497 391.235, 269.026 " />
            <path fill="none" stroke-width="3.0" stroke-linecap="round" stroke-opacity="1.0" stroke="rgb(0, 0, 0)" stroke-linejoin="round" d=" M 437.317, 343.616 427.356, 344.491 417.394, 345.366 407.432, 346.241 397.471, 347.116 389.121, 347.849 379.159, 348.724 377.458, 348.874 367.497, 349.749 357.535, 350.623 347.573, 351.498 337.612, 352.373 327.254, 353.283 " />
            <path fill="none" stroke-width="3.0" stroke-linecap="round" stroke-opacity="1.0" stroke="rgb(0, 0, 0)" stroke-linejoin="round" d=" M 375.451, 430.957 365.489, 431.832 355.527, 432.707 345.566, 433.582 335.604, 434.457 327.254, 435.190 327.254, 425.190 327.254, 415.190 327.254, 405.190 327.254, 395.190 327.254, 385.190 327.254, 375.190 327.254, 365.190 327.254, 355.190 327.254, 353.283 327.775, 343.297 328.296, 333.310 328.817, 323.324 329.338, 313.337 329.859, 303.351 330.380, 293.364 330.901, 283.378 331.376, 274.284 341.337, 273.409 351.299, 272.534 361.261, 271.659 371.222, 270.784 381.184, 269.909 386.407, 269.451 391.235, 269.026 401.196, 268.152 411.158, 267.277 421.120, 266.402 431.081, 265.527 441.438, 264.617 440.918, 274.604 440.397, 284.590 439.876, 294.576 439.355, 304.563 438.834, 314.549 438.313, 324.536 437.792, 334.522 437.317, 343.616 437.317, 353.616 437.317, 363.616 437.317, 373.616 437.317, 383.616 437.317, 393.616 437.317, 403.616 437.317, 413.780 437.317, 423.780 437.317, 425.523 427.356, 426.398 417.394, 427.273 407.432, 428.148 397.471, 429.023 387.509, 429.898 382.709, 430.319 " />
            <path fill="none" stroke-width="3.0" stroke-linecap="round" stroke-opacity="1.0" stroke="rgb(0, 0, 0)" stroke-linejoin="round" d=" M 181.677, 573.125 189.737, 567.206 197.797, 561.287 203.626, 557.006 " />
            <path fill="none" stroke-width="3.0" stroke-linecap="round" stroke-opacity="1.0" stroke="rgb(0, 0, 0)" stroke-linejoin="round" d=" M 347.788, 576.241 347.321, 578.149 345.892, 583.980 " />
            <path fill="none" stroke-width="3.0" stroke-linecap="round" stroke-opacity="1.0" stroke="rgb(0, 0, 0)" stroke-linejoin="round" d=" M 356.038, 1511.100 354.357, 1520.958 352.677, 1530.816 351.726, 1536.391 " />
            <path fill="none" stroke-width="3.0" stroke-linecap="round" stroke-opacity="1.0" stroke="rgb(0, 0, 0)" stroke-linejoin="round" d=" M 356.553, 585.308 350.145, 584.510 345.892, 583.980 " />
            <path fill="none" stroke-width="3.0" stroke-linecap="round" stroke-opacity="1.0" stroke="rgb(0, 0, 0)" stroke-linejoin="round" d=" M 345.428, 573.887 347.321, 578.149 " />
            <path fill="none" stroke-width="3.0" stroke-linecap="round" stroke-opacity="1.0" stroke="rgb(0, 0, 0)" stroke-linejoin="round" d=" M 287.050, 502.001 296.580, 505.030 306.110, 508.059 315.641, 511.088 325.171, 514.117 334.701, 517.146 344.231, 520.175 345.277, 520.508 " />
            <path fill="none" stroke-width="3.0" stroke-linecap="round" stroke-opacity="1.0" stroke="rgb(0, 0, 0)" stroke-linejoin="round" d=" M 388.701, 616.515 391.530, 626.107 394.359, 635.698 395.442, 639.370 " />
            <path fill="none" stroke-width="3.0" stroke-linecap="round" stroke-opacity="1.0" stroke="rgb(0, 0, 0)" stroke-linejoin="round" d=" M 347.630, 505.802 337.743, 504.303 327.855, 502.805 317.968, 501.306 308.081, 499.807 298.194, 498.309 288.307, 496.810 286.983, 496.610 279.991, 495.550 " />
            <path fill="none" stroke-width="3.0" stroke-linecap="round" stroke-opacity="1.0" stroke="rgb(0, 0, 0)" stroke-linejoin="round" d=" M 466.241, 1586.701 475.730, 1589.855 485.220, 1593.009 494.709, 1596.164 504.199, 1599.318 513.689, 1602.472 523.178, 1605.626 529.395, 1607.692 " />
            <path fill="none" stroke-width="3.0" stroke-linecap="round" stroke-opacity="1.0" stroke="rgb(0, 0, 0)" stroke-linejoin="round" d=" M 459.579, 1298.568 469.490, 1299.898 479.401, 1301.229 489.312, 1302.559 499.223, 1303.890 509.134, 1305.220 519.045, 1306.550 528.957, 1307.881 538.868, 1309.211 539.978, 1309.360 " />
            <path fill="none" stroke-width="3.0" stroke-linecap="round" stroke-opacity="1.0" stroke="rgb(0, 0, 0)" stroke-linejoin="round" d=" M 487.972, 1167.144 497.657, 1169.632 507.343, 1172.120 517.028, 1174.609 526.714, 1177.097 536.399, 1179.585 546.085, 1182.073 550.064, 1183.096 " />
            <path fill="none" stroke-width="3.0" stroke-linecap="round" stroke-opacity="1.0" stroke="rgb(0, 0, 0)" stroke-linejoin="round" d=" M 552.405, 594.813 560.143, 588.480 567.882, 582.146 571.533, 579.159 " />
            <path fill="none" stroke-width="3.0" stroke-linecap="round" stroke-opacity="1.0" stroke="rgb(0, 0, 0)" stroke-linejoin="round" d=" M 541.724, 610.515 550.163, 605.151 558.602, 599.786 567.042, 594.422 575.481, 589.057 577.410, 587.831 578.237, 587.305 585.095, 582.946 " />
            <path fill="none" stroke-width="3.0" stroke-linecap="round" stroke-opacity="1.0" stroke="rgb(0, 0, 0)" stroke-linejoin="round" d=" M 589.151, 1045.433 591.234, 1043.725 " />
        </g>
    </g>
</svg>
