<?xml version='1.0' encoding='ascii'?>
<svg xmlns="http://www.w3.org/2000/svg" version="1.1" width="1001" height="2138">
    <g id="View Layer_LineSet" xmlns:inkscape="http://www.inkscape.org/namespaces/inkscape" inkscape:groupmode="lineset" inkscape:label="View Layer_LineSet">
        <g xmlns:inkscape="http://www.inkscape.org/namespaces/inkscape" inkscape:groupmode="layer" id="strokes" inkscape:label="strokes">
            <path fill="none" stroke-width="3.0" stroke-linecap="round" stroke-opacity="1.0" stroke="rgb(0, 0, 0)" stroke-linejoin="round" d=" M 522.997, 679.183 527.320, 671.918 " />
            <path fill="none" stroke-width="3.0" stroke-linecap="round" stroke-opacity="1.0" stroke="rgb(0, 0, 0)" stroke-linejoin="round" d=" M 550.389, 633.151 550.156, 633.154 " />
            <path fill="none" stroke-width="3.0" stroke-linecap="round" stroke-opacity="1.0" stroke="rgb(0, 0, 0)" stroke-linejoin="round" d=" M 475.395, 633.016 474.199, 637.377 473.810, 638.797 473.686, 639.249 474.058, 639.177 474.414, 639.109 476.657, 638.675 485.794, 636.911 " />
            <path fill="none" stroke-width="3.0" stroke-linecap="round" stroke-opacity="1.0" stroke="rgb(0, 0, 0)" stroke-linejoin="round" d=" M 489.676, 674.273 489.362, 669.918 " />
            <path fill="none" stroke-width="3.0" stroke-linecap="round" stroke-opacity="1.0" stroke="rgb(0, 0, 0)" stroke-linejoin="round" d=" M 526.191, 1164.263 526.852, 1170.280 527.944, 1180.220 529.036, 1190.160 530.128, 1200.100 531.220, 1210.040 532.312, 1219.981 532.863, 1224.995 533.955, 1234.936 535.047, 1244.876 536.140, 1254.816 536.764, 1260.504 538.204, 1270.400 539.643, 1280.296 541.082, 1290.191 541.856, 1295.512 541.984, 1296.391 543.423, 1306.287 544.862, 1316.183 545.675, 1321.777 547.115, 1331.673 547.721, 1335.843 548.975, 1344.469 549.469, 1354.456 549.963, 1364.444 550.350, 1372.264 550.843, 1382.252 551.337, 1392.240 551.831, 1402.228 551.997, 1405.595 552.020, 1406.370 552.305, 1416.366 552.590, 1426.362 552.875, 1436.358 553.160, 1446.354 553.445, 1456.350 553.730, 1466.346 553.999, 1475.799 554.073, 1478.381 " />
            <path fill="none" stroke-width="3.0" stroke-linecap="round" stroke-opacity="1.0" stroke="rgb(0, 0, 0)" stroke-linejoin="round" d=" M 541.155, 1744.878 539.663, 1734.990 538.171, 1725.102 536.679, 1715.214 535.186, 1705.326 533.694, 1695.438 533.478, 1694.007 " />
            <path fill="none" stroke-width="3.0" stroke-linecap="round" stroke-opacity="1.0" stroke="rgb(0, 0, 0)" stroke-linejoin="round" d=" M 533.478, 1694.007 526.954, 1701.586 520.430, 1709.165 513.906, 1716.743 507.302, 1724.415 " />
            <path fill="none" stroke-width="3.0" stroke-linecap="round" stroke-opacity="1.0" stroke="rgb(0, 0, 0)" stroke-linejoin="round" d=" M 417.104, 1690.785 426.474, 1694.279 432.511, 1696.530 441.881, 1700.023 451.251, 1703.517 460.621, 1707.010 469.991, 1710.504 479.360, 1713.997 488.730, 1717.491 498.100, 1720.984 507.302, 1724.415 507.696, 1734.407 508.090, 1744.400 508.483, 1754.392 508.877, 1764.384 509.027, 1768.185 " />
            <path fill="none" stroke-width="3.0" stroke-linecap="round" stroke-opacity="1.0" stroke="rgb(0, 0, 0)" stroke-linejoin="round" d=" M 550.727, 1587.608 542.915, 1593.851 541.493, 1594.988 533.681, 1601.231 525.869, 1607.474 518.058, 1613.718 510.246, 1619.961 502.434, 1626.204 494.623, 1632.448 486.811, 1638.691 479.000, 1644.934 471.188, 1651.178 467.135, 1654.417 459.047, 1660.296 450.958, 1666.176 445.401, 1670.216 437.312, 1676.096 436.090, 1676.984 428.001, 1682.864 419.912, 1688.744 417.104, 1690.785 416.079, 1700.732 415.471, 1706.630 414.445, 1716.577 413.419, 1726.524 412.970, 1730.883 422.292, 1734.503 431.614, 1738.123 440.935, 1741.743 450.257, 1745.363 459.579, 1748.983 468.901, 1752.603 478.223, 1756.223 487.544, 1759.843 496.866, 1763.463 506.188, 1767.083 509.027, 1768.185 517.121, 1762.313 525.216, 1756.441 533.310, 1750.569 541.155, 1744.878 548.856, 1738.499 556.557, 1732.119 564.258, 1725.740 571.959, 1719.360 579.659, 1712.981 587.360, 1706.602 595.061, 1700.222 602.762, 1693.843 610.463, 1687.463 618.163, 1681.084 625.864, 1674.704 633.565, 1668.325 638.142, 1664.534 640.044, 1654.716 641.946, 1644.899 643.848, 1635.081 645.751, 1625.264 647.653, 1615.447 649.569, 1605.557 647.715, 1595.731 645.860, 1585.904 644.005, 1576.077 642.526, 1568.238 643.492, 1558.285 644.458, 1548.332 645.424, 1538.378 646.390, 1528.425 647.356, 1518.472 648.322, 1508.519 649.288, 1498.566 650.255, 1488.612 651.221, 1478.659 652.187, 1468.706 653.153, 1458.753 654.119, 1448.799 655.085, 1438.846 656.051, 1428.893 657.017, 1418.940 657.983, 1408.987 658.949, 1399.033 659.915, 1389.080 660.185, 1386.306 659.445, 1376.333 658.705, 1366.360 657.966, 1356.388 657.226, 1346.415 656.487, 1336.443 655.747, 1326.470 655.007, 1316.497 654.268, 1306.525 653.528, 1296.552 653.279, 1293.195 " />
            <path fill="none" stroke-width="3.0" stroke-linecap="round" stroke-opacity="1.0" stroke="rgb(0, 0, 0)" stroke-linejoin="round" d=" M 550.389, 633.151 552.991, 631.596 " />
            <path fill="none" stroke-width="3.0" stroke-linecap="round" stroke-opacity="1.0" stroke="rgb(0, 0, 0)" stroke-linejoin="round" d=" M 406.960, 1079.540 407.294, 1089.534 407.629, 1099.529 407.963, 1109.523 408.297, 1119.517 408.631, 1129.512 408.966, 1139.506 409.300, 1149.501 409.634, 1159.495 409.968, 1169.490 410.015, 1170.878 412.335, 1180.605 414.656, 1190.332 416.977, 1200.059 419.297, 1209.786 421.618, 1219.513 423.938, 1229.240 426.259, 1238.968 428.579, 1248.695 430.900, 1258.422 431.630, 1261.483 433.487, 1271.310 435.343, 1281.136 437.200, 1290.962 439.057, 1300.788 440.913, 1310.614 442.770, 1320.440 444.430, 1329.227 445.656, 1339.152 446.882, 1349.077 448.107, 1359.001 449.333, 1368.926 450.559, 1378.850 451.785, 1388.775 453.011, 1398.700 454.084, 1407.385 455.388, 1417.300 456.692, 1427.215 457.997, 1437.129 459.301, 1447.044 460.606, 1456.958 461.910, 1466.873 463.214, 1476.787 464.519, 1486.702 465.823, 1496.616 467.128, 1506.531 468.432, 1516.446 469.736, 1526.360 471.041, 1536.275 471.442, 1539.323 472.746, 1549.237 472.795, 1549.606 " />
            <path fill="none" stroke-width="3.0" stroke-linecap="round" stroke-opacity="1.0" stroke="rgb(0, 0, 0)" stroke-linejoin="round" d=" M 550.389, 633.151 550.285, 633.083 " />
            <path fill="none" stroke-width="3.0" stroke-linecap="round" stroke-opacity="1.0" stroke="rgb(0, 0, 0)" stroke-linejoin="round" d=" M 517.213, 674.583 512.909, 665.556 511.507, 662.615 " />
            <path fill="none" stroke-width="3.0" stroke-linecap="round" stroke-opacity="1.0" stroke="rgb(0, 0, 0)" stroke-linejoin="round" d=" M 559.001, 628.294 558.355, 629.252 552.514, 637.369 551.648, 638.573 545.808, 646.690 542.827, 650.834 539.013, 652.268 536.953, 653.043 535.175, 653.712 535.057, 653.756 525.698, 657.277 525.279, 657.434 517.974, 660.182 514.545, 661.472 511.507, 662.615 504.860, 661.363 496.592, 659.806 488.523, 658.286 486.227, 657.854 486.093, 657.648 480.634, 649.270 477.700, 644.766 475.204, 640.935 474.306, 639.557 474.058, 639.177 " />
            <path fill="none" stroke-width="3.0" stroke-linecap="round" stroke-opacity="1.0" stroke="rgb(0, 0, 0)" stroke-linejoin="round" d=" M 486.227, 657.854 486.227, 667.921 486.227, 669.393 " />
            <path fill="none" stroke-width="3.0" stroke-linecap="round" stroke-opacity="1.0" stroke="rgb(0, 0, 0)" stroke-linejoin="round" d=" M 465.598, 629.347 468.346, 638.962 468.728, 640.299 469.235, 641.142 472.585, 646.712 477.739, 655.281 478.815, 657.070 483.338, 664.590 486.227, 669.393 487.106, 669.540 489.362, 669.918 493.904, 670.679 503.766, 672.331 513.629, 673.983 517.213, 674.583 520.401, 673.742 526.249, 672.200 527.320, 671.918 534.542, 670.014 536.395, 669.526 540.183, 664.664 541.885, 662.480 545.551, 657.775 551.698, 649.887 557.844, 641.999 559.571, 639.782 565.717, 631.894 571.864, 624.006 574.244, 620.952 575.601, 619.437 " />
            <path fill="none" stroke-width="3.0" stroke-linecap="round" stroke-opacity="1.0" stroke="rgb(0, 0, 0)" stroke-linejoin="round" d=" M 363.343, 919.892 372.513, 923.882 381.683, 927.871 390.852, 931.861 400.022, 935.851 409.191, 939.841 418.361, 943.830 420.540, 944.778 429.710, 948.768 438.879, 952.758 442.663, 954.404 451.832, 958.394 461.002, 962.384 463.683, 963.550 472.853, 967.540 482.022, 971.530 491.192, 975.520 500.362, 979.509 509.531, 983.499 518.701, 987.489 527.870, 991.479 537.040, 995.469 546.210, 999.458 555.379, 1003.448 564.549, 1007.438 573.719, 1011.428 579.776, 1014.063 589.720, 1013.006 599.664, 1011.949 609.608, 1010.891 619.552, 1009.834 629.496, 1008.777 639.440, 1007.720 649.384, 1006.663 655.834, 1005.977 " />
            <path fill="none" stroke-width="3.0" stroke-linecap="round" stroke-opacity="1.0" stroke="rgb(0, 0, 0)" stroke-linejoin="round" d=" M 579.776, 1014.063 575.495, 1005.026 571.214, 995.989 569.332, 992.015 565.051, 982.977 560.770, 973.940 556.489, 964.903 554.204, 960.081 549.923, 951.043 545.642, 942.006 545.507, 941.721 " />
            <path fill="none" stroke-width="3.0" stroke-linecap="round" stroke-opacity="1.0" stroke="rgb(0, 0, 0)" stroke-linejoin="round" d=" M 545.507, 941.721 535.578, 940.531 525.650, 939.342 523.937, 939.136 514.008, 937.947 504.079, 936.757 494.151, 935.567 484.222, 934.377 474.293, 933.187 464.364, 931.998 461.819, 931.693 451.890, 930.503 441.961, 929.313 432.032, 928.123 422.103, 926.933 420.234, 926.709 410.305, 925.519 400.376, 924.330 390.447, 923.140 380.518, 921.950 370.589, 920.760 363.343, 919.892 " />
            <path fill="none" stroke-width="3.0" stroke-linecap="round" stroke-opacity="1.0" stroke="rgb(0, 0, 0)" stroke-linejoin="round" d=" M 545.507, 941.721 536.036, 938.513 530.284, 936.565 520.813, 933.357 511.341, 930.148 501.870, 926.940 492.399, 923.732 487.324, 922.013 477.853, 918.805 468.382, 915.597 458.910, 912.389 449.439, 909.181 439.967, 905.972 430.496, 902.764 421.025, 899.556 416.340, 897.969 406.868, 894.761 397.397, 891.553 387.926, 888.344 378.454, 885.136 375.270, 884.058 " />
            <path fill="none" stroke-width="3.0" stroke-linecap="round" stroke-opacity="1.0" stroke="rgb(0, 0, 0)" stroke-linejoin="round" d=" M 375.270, 884.058 372.112, 893.546 368.954, 903.034 365.796, 912.523 363.343, 919.892 " />
            <path fill="none" stroke-width="3.0" stroke-linecap="round" stroke-opacity="1.0" stroke="rgb(0, 0, 0)" stroke-linejoin="round" d=" M 487.106, 669.540 489.676, 674.273 499.570, 675.731 509.463, 677.189 519.356, 678.646 522.997, 679.183 526.566, 677.021 533.264, 672.965 541.818, 667.786 542.246, 667.527 548.549, 663.710 553.325, 660.818 561.879, 655.638 570.433, 650.459 578.987, 645.279 582.326, 643.257 588.765, 635.606 595.205, 627.955 601.644, 620.304 604.203, 617.265 610.642, 609.614 617.081, 601.963 619.816, 598.714 " />
            <path fill="none" stroke-width="3.0" stroke-linecap="round" stroke-opacity="1.0" stroke="rgb(0, 0, 0)" stroke-linejoin="round" d=" M 582.326, 643.257 583.873, 653.136 585.421, 663.016 586.631, 670.742 " />
            <path fill="none" stroke-width="3.0" stroke-linecap="round" stroke-opacity="1.0" stroke="rgb(0, 0, 0)" stroke-linejoin="round" d=" M 548.549, 663.710 558.382, 665.526 568.216, 667.342 578.050, 669.158 586.631, 670.742 594.934, 665.168 603.236, 659.594 611.538, 654.020 619.841, 648.445 628.143, 642.871 636.445, 637.297 644.747, 631.723 653.050, 626.149 661.037, 620.786 " />
            <path fill="none" stroke-width="3.0" stroke-linecap="round" stroke-opacity="1.0" stroke="rgb(0, 0, 0)" stroke-linejoin="round" d=" M 293.182, 782.018 287.611, 780.372 287.209, 780.253 287.054, 780.207 286.988, 780.330 284.786, 784.424 283.666, 786.506 282.862, 788.001 280.913, 791.625 280.296, 792.773 278.422, 796.257 273.685, 805.064 268.949, 813.871 264.212, 822.678 259.630, 831.198 258.681, 832.962 255.843, 838.240 251.106, 847.047 247.854, 853.095 256.249, 858.527 264.645, 863.960 273.041, 869.393 281.436, 874.825 289.832, 880.258 298.228, 885.690 306.623, 891.123 315.019, 896.556 323.415, 901.988 331.810, 907.421 333.207, 908.324 342.543, 911.908 351.879, 915.491 361.215, 919.075 363.343, 919.892 371.969, 924.951 380.595, 930.011 389.220, 935.070 397.846, 940.129 406.472, 945.189 415.097, 950.248 419.363, 952.750 427.989, 957.810 429.503, 958.698 438.129, 963.758 438.578, 964.021 440.570, 965.189 448.361, 969.759 453.710, 972.896 454.187, 973.176 455.893, 974.177 464.519, 979.236 465.017, 979.529 473.643, 984.588 482.269, 989.648 490.894, 994.707 491.176, 994.872 499.331, 999.656 507.607, 1001.669 517.323, 1004.033 527.040, 1006.396 535.854, 1008.541 545.571, 1010.905 553.819, 1012.911 563.536, 1015.275 566.020, 1015.879 568.342, 1016.444 577.976, 1018.788 582.167, 1018.098 592.034, 1016.475 601.901, 1014.851 605.790, 1014.211 615.657, 1012.588 625.525, 1010.964 629.797, 1010.261 633.183, 1009.704 643.051, 1008.080 652.918, 1006.457 655.834, 1005.977 659.949, 996.863 662.097, 992.106 664.912, 985.872 669.027, 976.758 670.320, 973.896 671.060, 972.257 675.175, 963.143 675.697, 961.987 679.812, 952.873 683.928, 943.760 688.043, 934.646 692.159, 925.532 696.274, 916.418 700.389, 907.304 704.505, 898.190 708.620, 889.076 712.735, 879.962 716.851, 870.848 720.966, 861.734 725.082, 852.620 729.197, 843.506 733.312, 834.392 737.428, 825.278 741.846, 815.494 740.163, 805.636 738.479, 795.779 736.796, 785.922 735.113, 776.065 733.429, 766.207 731.746, 756.350 730.063, 746.493 728.379, 736.635 726.696, 726.778 725.013, 716.921 723.329, 707.063 721.646, 697.206 721.250, 694.891 714.944, 687.130 708.638, 679.369 702.332, 671.608 696.026, 663.847 689.720, 656.086 683.414, 648.325 677.108, 640.564 670.802, 632.803 664.495, 625.042 661.037, 620.786 655.417, 612.515 649.797, 604.243 644.177, 595.972 638.557, 587.700 636.972, 585.367 " />
            <path fill="none" stroke-width="3.0" stroke-linecap="round" stroke-opacity="1.0" stroke="rgb(0, 0, 0)" stroke-linejoin="round" d=" M 451.135, 654.870 447.242, 664.081 443.349, 673.293 439.456, 682.504 435.563, 691.715 431.671, 700.926 427.778, 710.137 423.885, 719.349 419.992, 728.560 416.099, 737.771 412.207, 746.982 408.314, 756.193 404.421, 765.405 400.528, 774.616 399.844, 776.234 " />
            <path fill="none" stroke-width="3.0" stroke-linecap="round" stroke-opacity="1.0" stroke="rgb(0, 0, 0)" stroke-linejoin="round" d=" M 399.844, 776.234 407.201, 783.007 414.558, 789.781 421.915, 796.554 429.272, 803.327 436.629, 810.100 443.985, 816.874 451.342, 823.647 458.699, 830.420 463.288, 834.645 " />
            <path fill="none" stroke-width="3.0" stroke-linecap="round" stroke-opacity="1.0" stroke="rgb(0, 0, 0)" stroke-linejoin="round" d=" M 463.288, 834.645 467.260, 825.468 471.232, 816.291 475.204, 807.114 479.176, 797.936 483.148, 788.759 487.120, 779.582 491.092, 770.404 495.064, 761.227 499.036, 752.050 503.008, 742.872 506.980, 733.695 510.952, 724.518 514.924, 715.340 518.896, 706.163 522.868, 696.986 526.840, 687.808 530.812, 678.631 533.264, 672.965 " />
            <path fill="none" stroke-width="3.0" stroke-linecap="round" stroke-opacity="1.0" stroke="rgb(0, 0, 0)" stroke-linejoin="round" d=" M 452.724, 553.849 442.976, 556.080 433.228, 558.310 432.906, 558.384 425.190, 564.744 417.474, 571.104 409.757, 577.465 402.041, 583.826 394.324, 590.186 386.608, 596.547 383.387, 599.201 375.278, 605.053 367.170, 610.905 359.061, 616.757 350.952, 622.609 342.843, 628.462 334.734, 634.314 326.626, 640.166 318.517, 646.018 310.408, 651.870 302.299, 657.722 294.190, 663.574 286.081, 669.426 277.973, 675.278 269.864, 681.131 261.755, 686.983 253.646, 692.835 245.537, 698.687 237.429, 704.539 229.320, 710.391 221.211, 716.243 213.102, 722.095 208.522, 725.401 " />
            <path fill="none" stroke-width="3.0" stroke-linecap="round" stroke-opacity="1.0" stroke="rgb(0, 0, 0)" stroke-linejoin="round" d=" M 499.331, 999.656 509.174, 1001.418 519.018, 1003.181 528.861, 1004.944 538.704, 1006.707 548.548, 1008.470 558.391, 1010.233 567.091, 1011.791 567.869, 1011.931 577.712, 1013.693 579.776, 1014.063 " />
            <path fill="none" stroke-width="3.0" stroke-linecap="round" stroke-opacity="1.0" stroke="rgb(0, 0, 0)" stroke-linejoin="round" d=" M 601.297, 998.441 594.284, 991.312 590.322, 987.283 589.493, 986.441 582.481, 979.311 575.468, 972.182 569.549, 966.164 562.537, 959.035 556.547, 952.946 549.535, 945.816 546.121, 942.345 545.507, 941.721 541.019, 939.402 538.299, 937.997 533.223, 935.374 524.339, 930.784 515.448, 926.189 506.564, 921.599 498.880, 917.628 489.995, 913.038 481.111, 908.447 472.227, 903.857 464.064, 899.639 455.180, 895.048 446.296, 890.458 443.963, 889.252 441.051, 887.747 432.167, 883.157 423.283, 878.566 414.399, 873.976 412.990, 873.248 404.106, 868.658 395.222, 864.067 388.103, 860.389 383.737, 851.676 379.225, 842.674 374.745, 833.733 373.953, 832.153 370.395, 826.805 " />
            <path fill="none" stroke-width="3.0" stroke-linecap="round" stroke-opacity="1.0" stroke="rgb(0, 0, 0)" stroke-linejoin="round" d=" M 388.103, 860.389 383.337, 869.180 378.571, 877.971 375.270, 884.058 " />
            <path fill="none" stroke-width="3.0" stroke-linecap="round" stroke-opacity="1.0" stroke="rgb(0, 0, 0)" stroke-linejoin="round" d=" M 247.242, 730.526 237.316, 731.742 227.390, 732.957 217.465, 734.173 214.031, 734.594 204.105, 735.809 194.179, 737.025 184.253, 738.241 181.976, 738.520 " />
            <path fill="none" stroke-width="3.0" stroke-linecap="round" stroke-opacity="1.0" stroke="rgb(0, 0, 0)" stroke-linejoin="round" d=" M 181.976, 738.520 188.152, 746.385 194.328, 754.250 200.503, 762.115 206.679, 769.980 212.855, 777.845 219.031, 785.711 224.222, 792.322 225.640, 794.129 231.816, 801.994 237.992, 809.859 244.168, 817.724 249.898, 825.022 " />
            <path fill="none" stroke-width="3.0" stroke-linecap="round" stroke-opacity="1.0" stroke="rgb(0, 0, 0)" stroke-linejoin="round" d=" M 249.898, 825.022 254.066, 815.932 258.234, 806.842 262.401, 797.752 266.569, 788.662 267.251, 787.173 " />
            <path fill="none" stroke-width="3.0" stroke-linecap="round" stroke-opacity="1.0" stroke="rgb(0, 0, 0)" stroke-linejoin="round" d=" M 286.988, 780.330 279.015, 783.094 269.567, 786.370 267.251, 787.173 263.921, 777.744 261.237, 770.147 257.907, 760.718 254.576, 751.289 251.246, 741.860 247.915, 732.431 247.242, 730.526 " />
            <path fill="none" stroke-width="3.0" stroke-linecap="round" stroke-opacity="1.0" stroke="rgb(0, 0, 0)" stroke-linejoin="round" d=" M 273.925, 763.473 282.776, 758.818 291.626, 754.163 300.476, 749.507 309.327, 744.852 318.177, 740.197 327.027, 735.541 335.878, 730.886 344.728, 726.231 353.578, 721.576 362.429, 716.920 371.279, 712.265 380.129, 707.610 388.979, 702.954 397.830, 698.299 406.680, 693.644 415.078, 689.226 422.318, 682.328 429.558, 675.429 436.798, 668.531 444.037, 661.633 451.135, 654.870 " />
            <path fill="none" stroke-width="3.0" stroke-linecap="round" stroke-opacity="1.0" stroke="rgb(0, 0, 0)" stroke-linejoin="round" d=" M 469.235, 641.142 461.267, 647.185 453.300, 653.228 451.135, 654.870 442.390, 659.722 433.646, 664.573 424.902, 669.425 416.157, 674.276 407.413, 679.128 398.669, 683.980 389.925, 688.831 381.180, 693.683 372.436, 698.534 363.692, 703.386 354.948, 708.237 346.203, 713.089 337.459, 717.941 328.715, 722.792 319.970, 727.644 311.226, 732.495 302.482, 737.347 293.738, 742.198 284.993, 747.050 276.249, 751.901 268.180, 756.379 " />
            <path fill="none" stroke-width="3.0" stroke-linecap="round" stroke-opacity="1.0" stroke="rgb(0, 0, 0)" stroke-linejoin="round" d=" M 457.060, 1131.054 449.428, 1137.515 441.795, 1143.976 434.163, 1150.437 426.530, 1156.898 418.898, 1163.359 411.265, 1169.820 410.015, 1170.878 420.015, 1170.827 430.015, 1170.776 440.015, 1170.725 450.014, 1170.673 460.014, 1170.622 470.014, 1170.571 480.014, 1170.520 490.014, 1170.468 500.014, 1170.417 510.014, 1170.366 520.013, 1170.315 526.852, 1170.280 " />
            <path fill="none" stroke-width="3.0" stroke-linecap="round" stroke-opacity="1.0" stroke="rgb(0, 0, 0)" stroke-linejoin="round" d=" M 558.355, 629.252 567.218, 624.622 574.244, 620.952 566.998, 627.843 559.753, 634.735 555.155, 639.108 547.909, 646.000 542.827, 650.834 539.573, 660.290 536.395, 669.526 " />
            <path fill="none" stroke-width="3.0" stroke-linecap="round" stroke-opacity="1.0" stroke="rgb(0, 0, 0)" stroke-linejoin="round" d=" M 451.135, 654.870 443.408, 648.521 435.682, 642.173 427.956, 635.824 420.230, 629.475 412.504, 623.127 404.778, 616.778 397.051, 610.429 389.325, 604.080 383.387, 599.201 " />
            <path fill="none" stroke-width="3.0" stroke-linecap="round" stroke-opacity="1.0" stroke="rgb(0, 0, 0)" stroke-linejoin="round" d=" M 601.297, 998.441 593.204, 1004.316 585.111, 1010.190 579.776, 1014.063 577.976, 1018.788 " />
            <path fill="none" stroke-width="3.0" stroke-linecap="round" stroke-opacity="1.0" stroke="rgb(0, 0, 0)" stroke-linejoin="round" d=" M 655.834, 1005.977 645.928, 1004.608 636.022, 1003.239 626.116, 1001.870 616.210, 1000.502 606.304, 999.133 601.297, 998.441 605.393, 989.319 609.490, 980.196 613.586, 971.074 617.682, 961.951 618.372, 960.416 622.468, 951.294 626.565, 942.171 629.293, 936.096 633.389, 926.973 637.486, 917.851 641.582, 908.728 645.679, 899.606 649.775, 890.483 653.871, 881.361 657.968, 872.238 662.064, 863.116 666.161, 853.993 670.257, 844.871 674.354, 835.748 678.450, 826.626 682.546, 817.504 684.745, 812.608 685.738, 810.396 687.568, 800.565 689.399, 790.734 691.229, 780.903 693.059, 771.072 694.890, 761.241 696.720, 751.410 697.871, 745.230 " />
            <path fill="none" stroke-width="3.0" stroke-linecap="round" stroke-opacity="1.0" stroke="rgb(0, 0, 0)" stroke-linejoin="round" d=" M 616.467, 770.479 625.132, 775.472 633.796, 780.465 642.460, 785.458 651.125, 790.451 659.789, 795.444 668.454, 800.436 677.118, 805.429 685.738, 810.396 686.966, 810.508 696.925, 811.413 704.813, 812.129 714.772, 813.034 724.731, 813.939 734.690, 814.844 741.846, 815.494 " />
            <path fill="none" stroke-width="3.0" stroke-linecap="round" stroke-opacity="1.0" stroke="rgb(0, 0, 0)" stroke-linejoin="round" d=" M 697.871, 745.230 688.320, 748.193 678.769, 751.155 669.217, 754.118 659.666, 757.080 650.115, 760.043 640.564, 763.005 631.013, 765.968 621.462, 768.930 616.467, 770.479 " />
            <path fill="none" stroke-width="3.0" stroke-linecap="round" stroke-opacity="1.0" stroke="rgb(0, 0, 0)" stroke-linejoin="round" d=" M 333.207, 908.324 341.869, 903.327 343.332, 902.483 351.994, 897.486 360.656, 892.489 363.047, 891.110 371.709, 886.113 375.270, 884.058 375.017, 874.061 374.877, 868.562 374.623, 858.565 374.369, 848.569 374.116, 838.572 373.953, 832.153 365.369, 827.022 356.786, 821.891 348.202, 816.760 339.619, 811.629 331.036, 806.498 322.452, 801.367 313.869, 796.237 305.286, 791.106 296.702, 785.975 287.876, 780.698 287.159, 780.270 287.054, 780.207 " />
            <path fill="none" stroke-width="3.0" stroke-linecap="round" stroke-opacity="1.0" stroke="rgb(0, 0, 0)" stroke-linejoin="round" d=" M 373.953, 832.153 369.236, 840.970 364.519, 849.788 359.802, 858.606 355.086, 867.424 350.369, 876.241 345.652, 885.059 340.935, 893.877 338.262, 898.874 333.545, 907.692 333.207, 908.324 " />
            <path fill="none" stroke-width="3.0" stroke-linecap="round" stroke-opacity="1.0" stroke="rgb(0, 0, 0)" stroke-linejoin="round" d=" M 632.186, 508.973 632.164, 509.098 630.471, 518.954 628.778, 528.809 627.085, 538.665 625.392, 548.521 623.699, 558.376 622.005, 568.232 620.312, 578.088 618.619, 587.943 616.926, 597.801 616.299, 601.450 " />
            <path fill="none" stroke-width="3.0" stroke-linecap="round" stroke-opacity="1.0" stroke="rgb(0, 0, 0)" stroke-linejoin="round" d=" M 456.144, 548.354 452.724, 553.849 449.761, 558.610 444.476, 567.099 441.971, 571.123 442.178, 581.121 442.302, 587.089 442.509, 597.087 442.567, 599.884 444.756, 602.776 450.791, 610.749 456.826, 618.723 462.861, 626.696 464.579, 628.965 465.598, 629.347 468.900, 630.583 469.608, 630.849 470.376, 631.136 475.395, 633.016 475.590, 633.089 475.841, 633.183 478.444, 634.158 479.344, 634.495 483.181, 635.932 485.794, 636.911 487.015, 637.368 492.121, 639.281 501.486, 642.788 505.221, 644.188 506.228, 644.046 513.477, 643.025 523.311, 641.640 528.997, 640.839 530.094, 640.685 535.229, 639.961 538.643, 639.480 542.764, 637.216 550.156, 633.154 550.285, 633.083 550.407, 633.016 552.991, 631.596 559.001, 628.294 567.765, 623.478 573.143, 620.523 575.601, 619.437 584.747, 615.395 593.894, 611.352 596.797, 610.069 599.929, 608.685 609.075, 604.643 613.058, 602.883 616.299, 601.450 619.816, 598.714 621.176, 597.656 626.930, 593.179 634.823, 587.039 636.972, 585.367 644.865, 579.227 652.757, 573.086 660.650, 566.946 668.543, 560.805 671.006, 558.889 " />
            <path fill="none" stroke-width="3.0" stroke-linecap="round" stroke-opacity="1.0" stroke="rgb(0, 0, 0)" stroke-linejoin="round" d=" M 671.006, 558.889 672.544, 549.008 674.082, 539.127 675.620, 529.246 677.157, 519.365 678.695, 509.484 680.233, 499.603 681.771, 489.722 683.309, 479.841 684.847, 469.960 685.932, 462.985 680.094, 454.866 674.256, 446.747 668.418, 438.628 662.580, 430.509 656.742, 422.390 650.904, 414.271 649.086, 411.743 639.658, 408.411 630.229, 405.079 620.801, 401.746 611.372, 398.414 601.944, 395.082 592.516, 391.750 583.087, 388.417 577.869, 386.573 568.620, 390.375 559.371, 394.177 551.034, 397.605 " />
            <path fill="none" stroke-width="3.0" stroke-linecap="round" stroke-opacity="1.0" stroke="rgb(0, 0, 0)" stroke-linejoin="round" d=" M 685.932, 462.985 678.334, 469.486 670.736, 475.988 663.138, 482.489 655.468, 489.051 647.870, 495.552 640.272, 502.054 632.674, 508.555 632.186, 508.973 632.000, 509.038 622.568, 512.360 613.136, 515.683 603.704, 519.005 594.273, 522.328 584.841, 525.650 575.409, 528.973 566.492, 532.114 556.983, 529.018 547.474, 525.923 537.965, 522.828 528.457, 519.732 518.948, 516.637 509.439, 513.542 507.355, 512.863 501.333, 510.903 " />
            <path fill="none" stroke-width="3.0" stroke-linecap="round" stroke-opacity="1.0" stroke="rgb(0, 0, 0)" stroke-linejoin="round" d=" M 267.251, 787.173 265.412, 797.003 263.572, 806.832 261.732, 816.661 259.893, 826.491 258.681, 832.962 " />
            <path fill="none" stroke-width="3.0" stroke-linecap="round" stroke-opacity="1.0" stroke="rgb(0, 0, 0)" stroke-linejoin="round" d=" M 383.737, 851.676 388.383, 842.821 392.805, 834.393 384.893, 828.277 376.981, 822.161 369.069, 816.045 361.157, 809.929 353.245, 803.814 345.334, 797.698 337.422, 791.582 329.510, 785.466 328.769, 784.894 319.117, 782.278 309.466, 779.662 299.814, 777.046 297.929, 776.536 288.481, 779.812 287.448, 780.170 287.209, 780.253 " />
            <path fill="none" stroke-width="3.0" stroke-linecap="round" stroke-opacity="1.0" stroke="rgb(0, 0, 0)" stroke-linejoin="round" d=" M 287.448, 780.170 281.154, 772.399 274.860, 764.628 273.925, 763.473 268.180, 756.379 261.886, 748.608 255.592, 740.837 249.299, 733.065 247.242, 730.526 241.402, 729.753 231.488, 728.441 221.575, 727.129 213.550, 726.067 208.522, 725.401 199.557, 729.832 190.592, 734.262 181.976, 738.520 187.042, 747.142 192.108, 755.763 197.175, 764.385 202.241, 773.007 207.307, 781.628 212.373, 790.250 217.439, 798.872 218.455, 800.601 226.353, 806.735 234.251, 812.869 242.149, 819.003 249.898, 825.022 254.000, 834.142 255.843, 838.240 " />
            <path fill="none" stroke-width="3.0" stroke-linecap="round" stroke-opacity="1.0" stroke="rgb(0, 0, 0)" stroke-linejoin="round" d=" M 401.478, 1073.903 406.960, 1079.540 413.932, 1086.708 420.904, 1093.877 427.876, 1101.046 430.559, 1103.805 437.531, 1110.974 441.585, 1115.142 448.557, 1122.311 455.529, 1129.480 457.060, 1131.054 458.012, 1132.032 467.052, 1136.306 476.093, 1140.580 485.134, 1144.854 494.174, 1149.127 503.215, 1153.401 512.256, 1157.675 521.296, 1161.949 526.191, 1164.263 533.448, 1167.693 534.144, 1168.023 534.268, 1168.081 534.315, 1168.103 535.349, 1168.592 545.076, 1166.272 554.803, 1163.951 564.530, 1161.631 570.897, 1160.112 580.624, 1157.792 590.351, 1155.471 600.078, 1153.151 609.805, 1150.831 619.532, 1148.510 629.259, 1146.190 638.986, 1143.870 648.713, 1141.549 650.915, 1141.024 653.354, 1140.442 657.299, 1131.253 661.243, 1122.064 665.188, 1112.874 668.072, 1106.155 669.787, 1102.160 673.731, 1092.971 677.676, 1083.781 681.620, 1074.592 685.564, 1065.403 689.509, 1056.214 693.453, 1047.024 697.397, 1037.835 701.342, 1028.646 703.162, 1024.405 " />
            <path fill="none" stroke-width="3.0" stroke-linecap="round" stroke-opacity="1.0" stroke="rgb(0, 0, 0)" stroke-linejoin="round" d=" M 458.012, 1132.032 458.224, 1127.630 458.707, 1117.642 459.182, 1107.811 459.665, 1097.823 460.147, 1087.834 460.630, 1077.846 461.113, 1067.858 461.595, 1057.870 462.078, 1047.881 462.561, 1037.893 463.043, 1027.904 463.526, 1017.916 464.009, 1007.928 464.491, 997.939 464.974, 987.951 465.089, 985.566 " />
            <path fill="none" stroke-width="3.0" stroke-linecap="round" stroke-opacity="1.0" stroke="rgb(0, 0, 0)" stroke-linejoin="round" d=" M 465.089, 985.566 458.407, 978.126 453.710, 972.896 " />
            <path fill="none" stroke-width="3.0" stroke-linecap="round" stroke-opacity="1.0" stroke="rgb(0, 0, 0)" stroke-linejoin="round" d=" M 297.929, 776.536 306.176, 782.192 314.423, 787.847 322.670, 793.503 330.917, 799.159 339.164, 804.815 347.411, 810.471 355.658, 816.127 363.904, 821.783 372.151, 827.438 380.398, 833.094 383.300, 835.084 " />
            <path fill="none" stroke-width="3.0" stroke-linecap="round" stroke-opacity="1.0" stroke="rgb(0, 0, 0)" stroke-linejoin="round" d=" M 379.225, 842.674 383.300, 835.084 392.805, 834.393 " />
            <path fill="none" stroke-width="3.0" stroke-linecap="round" stroke-opacity="1.0" stroke="rgb(0, 0, 0)" stroke-linejoin="round" d=" M 554.882, 885.862 564.209, 882.257 573.537, 878.653 582.021, 875.375 " />
            <path fill="none" stroke-width="3.0" stroke-linecap="round" stroke-opacity="1.0" stroke="rgb(0, 0, 0)" stroke-linejoin="round" d=" M 616.467, 770.479 611.758, 779.301 607.050, 788.123 602.341, 796.945 597.632, 805.767 592.923, 814.589 588.215, 823.411 583.506, 832.233 578.797, 841.055 574.088, 849.877 569.380, 858.699 564.671, 867.521 559.962, 876.343 554.882, 885.862 " />
            <path fill="none" stroke-width="3.0" stroke-linecap="round" stroke-opacity="1.0" stroke="rgb(0, 0, 0)" stroke-linejoin="round" d=" M 616.467, 770.479 613.347, 779.980 610.227, 789.481 607.107, 798.982 603.987, 808.483 600.867, 817.984 597.747, 827.484 594.628, 836.985 591.508, 846.486 588.388, 855.987 585.268, 865.488 583.784, 870.007 582.021, 875.375 578.901, 884.876 575.781, 894.377 573.279, 901.995 570.159, 911.496 568.486, 916.590 566.480, 922.698 565.260, 926.413 565.143, 926.770 565.043, 927.076 561.923, 936.577 561.316, 938.426 558.196, 947.926 556.547, 952.946 " />
            <path fill="none" stroke-width="3.0" stroke-linecap="round" stroke-opacity="1.0" stroke="rgb(0, 0, 0)" stroke-linejoin="round" d=" M 542.246, 667.527 548.094, 675.638 553.942, 683.750 559.790, 691.862 565.638, 699.974 571.486, 708.086 577.334, 716.197 583.182, 724.309 589.030, 732.421 594.878, 740.533 600.726, 748.645 606.574, 756.756 612.422, 764.868 616.467, 770.479 613.601, 760.899 610.735, 751.318 607.869, 741.738 605.003, 732.157 602.137, 722.577 599.271, 712.996 596.406, 703.416 593.540, 693.835 590.674, 684.255 587.808, 674.674 586.631, 670.742 " />
            <path fill="none" stroke-width="3.0" stroke-linecap="round" stroke-opacity="1.0" stroke="rgb(0, 0, 0)" stroke-linejoin="round" d=" M 721.250, 694.891 717.038, 703.961 712.826, 713.030 708.614, 722.100 704.401, 731.169 700.189, 740.239 697.871, 745.230 695.033, 735.641 692.194, 726.052 689.356, 716.464 686.518, 706.875 683.680, 697.286 680.842, 687.697 678.004, 678.109 675.166, 668.520 672.327, 658.931 669.489, 649.342 666.651, 639.753 663.813, 630.165 661.037, 620.786 " />
            <path fill="none" stroke-width="3.0" stroke-linecap="round" stroke-opacity="1.0" stroke="rgb(0, 0, 0)" stroke-linejoin="round" d=" M 554.882, 885.862 553.349, 895.744 553.149, 897.033 551.616, 906.915 550.084, 916.797 548.551, 926.679 548.140, 929.330 546.607, 939.212 546.121, 942.345 " />
            <path fill="none" stroke-width="3.0" stroke-linecap="round" stroke-opacity="1.0" stroke="rgb(0, 0, 0)" stroke-linejoin="round" d=" M 534.538, 1017.030 544.317, 1014.941 553.819, 1012.911 " />
            <path fill="none" stroke-width="3.0" stroke-linecap="round" stroke-opacity="1.0" stroke="rgb(0, 0, 0)" stroke-linejoin="round" d=" M 554.882, 885.862 546.153, 880.981 537.425, 876.101 528.697, 871.220 519.969, 866.340 511.241, 861.459 502.513, 856.578 493.784, 851.698 485.056, 846.818 476.328, 841.937 467.600, 837.057 463.288, 834.645 463.408, 844.645 463.527, 854.644 463.646, 864.643 463.766, 874.643 463.885, 884.642 464.004, 894.641 464.064, 899.639 " />
            <path fill="none" stroke-width="3.0" stroke-linecap="round" stroke-opacity="1.0" stroke="rgb(0, 0, 0)" stroke-linejoin="round" d=" M 465.017, 979.529 465.089, 985.566 474.198, 989.693 483.307, 993.819 492.416, 997.946 501.524, 1002.073 510.633, 1006.200 519.742, 1010.327 528.851, 1014.453 534.538, 1017.030 " />
            <path fill="none" stroke-width="3.0" stroke-linecap="round" stroke-opacity="1.0" stroke="rgb(0, 0, 0)" stroke-linejoin="round" d=" M 415.078, 689.226 413.354, 699.076 411.629, 708.926 409.905, 718.777 408.180, 728.627 406.455, 738.477 404.731, 748.327 403.006, 758.177 401.281, 768.027 399.844, 776.234 401.187, 786.143 402.530, 796.053 403.873, 805.962 405.215, 815.872 406.558, 825.781 407.901, 835.691 409.244, 845.600 410.586, 855.510 411.929, 865.419 412.990, 873.248 " />
            <path fill="none" stroke-width="3.0" stroke-linecap="round" stroke-opacity="1.0" stroke="rgb(0, 0, 0)" stroke-linejoin="round" d=" M 649.033, 1359.950 649.668, 1349.970 650.302, 1339.990 650.937, 1330.010 651.572, 1320.030 652.207, 1310.051 652.842, 1300.071 653.279, 1293.195 653.914, 1283.215 654.549, 1273.236 655.184, 1263.256 655.819, 1253.276 656.409, 1244.004 657.348, 1234.048 658.287, 1224.093 659.226, 1214.137 660.165, 1204.181 661.104, 1194.225 662.043, 1184.269 662.982, 1174.313 663.921, 1164.358 664.859, 1154.402 665.798, 1144.446 666.737, 1134.490 667.676, 1124.534 668.615, 1114.579 669.554, 1104.623 669.787, 1102.160 " />
            <path fill="none" stroke-width="3.0" stroke-linecap="round" stroke-opacity="1.0" stroke="rgb(0, 0, 0)" stroke-linejoin="round" d=" M 535.349, 1168.592 535.295, 1158.592 535.242, 1148.592 535.188, 1138.592 535.135, 1128.593 535.081, 1118.593 535.028, 1108.593 535.017, 1106.520 534.963, 1096.520 534.910, 1086.520 534.856, 1076.520 534.803, 1066.520 534.749, 1056.520 534.696, 1046.520 534.642, 1036.521 534.589, 1026.521 534.538, 1017.030 535.854, 1008.541 " />
            <path fill="none" stroke-width="3.0" stroke-linecap="round" stroke-opacity="1.0" stroke="rgb(0, 0, 0)" stroke-linejoin="round" d=" M 702.448, 1022.783 704.465, 1018.249 698.814, 1009.999 693.246, 1001.870 " />
            <path fill="none" stroke-width="3.0" stroke-linecap="round" stroke-opacity="1.0" stroke="rgb(0, 0, 0)" stroke-linejoin="round" d=" M 703.162, 1024.405 702.448, 1022.783 702.319, 1022.489 698.291, 1013.336 698.194, 1013.116 694.167, 1003.963 693.246, 1001.870 689.219, 992.717 685.191, 983.564 681.164, 974.411 677.136, 965.258 675.697, 961.987 " />
            <path fill="none" stroke-width="3.0" stroke-linecap="round" stroke-opacity="1.0" stroke="rgb(0, 0, 0)" stroke-linejoin="round" d=" M 432.906, 558.384 442.906, 558.518 449.761, 558.610 " />
            <path fill="none" stroke-width="3.0" stroke-linecap="round" stroke-opacity="1.0" stroke="rgb(0, 0, 0)" stroke-linejoin="round" d=" M 451.135, 654.870 449.278, 645.044 447.422, 635.218 445.566, 625.392 443.709, 615.566 441.853, 605.739 439.996, 595.913 438.140, 586.087 436.284, 576.261 434.427, 566.435 432.906, 558.384 " />
            <path fill="none" stroke-width="3.0" stroke-linecap="round" stroke-opacity="1.0" stroke="rgb(0, 0, 0)" stroke-linejoin="round" d=" M 638.142, 1664.534 637.041, 1654.594 635.940, 1644.655 634.839, 1634.716 633.738, 1624.777 632.637, 1614.838 632.178, 1610.689 " />
            <path fill="none" stroke-width="3.0" stroke-linecap="round" stroke-opacity="1.0" stroke="rgb(0, 0, 0)" stroke-linejoin="round" d=" M 632.178, 1610.689 624.537, 1617.140 616.895, 1623.590 609.254, 1630.041 601.612, 1636.491 593.971, 1642.942 586.330, 1649.392 578.688, 1655.843 571.047, 1662.293 563.406, 1668.744 555.764, 1675.195 548.123, 1681.645 540.481, 1688.096 533.478, 1694.007 " />
            <path fill="none" stroke-width="3.0" stroke-linecap="round" stroke-opacity="1.0" stroke="rgb(0, 0, 0)" stroke-linejoin="round" d=" M 397.255, 1677.828 404.313, 1670.744 411.371, 1663.660 418.429, 1656.576 425.487, 1649.492 432.545, 1642.407 439.327, 1635.600 442.954, 1626.281 446.581, 1616.962 450.207, 1607.643 453.834, 1598.324 457.461, 1589.005 461.088, 1579.685 464.715, 1570.366 468.342, 1561.047 471.969, 1551.728 472.795, 1549.606 482.708, 1550.923 492.621, 1552.240 502.533, 1553.557 512.446, 1554.874 522.359, 1556.191 532.272, 1557.508 542.185, 1558.825 551.533, 1560.067 " />
            <path fill="none" stroke-width="3.0" stroke-linecap="round" stroke-opacity="1.0" stroke="rgb(0, 0, 0)" stroke-linejoin="round" d=" M 472.795, 1549.606 463.973, 1554.315 455.151, 1559.024 446.330, 1563.733 437.508, 1568.443 428.686, 1573.152 419.864, 1577.861 411.043, 1582.570 402.221, 1587.280 393.399, 1591.989 391.249, 1593.137 " />
            <path fill="none" stroke-width="3.0" stroke-linecap="round" stroke-opacity="1.0" stroke="rgb(0, 0, 0)" stroke-linejoin="round" d=" M 391.249, 1593.137 398.744, 1599.756 406.239, 1606.376 413.734, 1612.996 421.230, 1619.616 428.725, 1626.236 436.220, 1632.856 439.327, 1635.600 " />
            <path fill="none" stroke-width="3.0" stroke-linecap="round" stroke-opacity="1.0" stroke="rgb(0, 0, 0)" stroke-linejoin="round" d=" M 445.401, 1670.216 443.672, 1660.366 441.944, 1650.517 440.216, 1640.667 439.327, 1635.600 447.771, 1630.244 456.216, 1624.888 464.660, 1619.531 473.105, 1614.175 481.550, 1608.819 489.994, 1603.462 498.439, 1598.106 506.883, 1592.750 515.328, 1587.394 523.772, 1582.037 532.217, 1576.681 540.661, 1571.325 549.106, 1565.969 551.403, 1564.512 " />
            <path fill="none" stroke-width="3.0" stroke-linecap="round" stroke-opacity="1.0" stroke="rgb(0, 0, 0)" stroke-linejoin="round" d=" M 481.325, 594.120 482.416, 584.180 483.507, 574.240 484.599, 564.300 485.690, 554.359 486.597, 546.099 487.688, 536.159 488.779, 526.219 489.149, 522.852 490.240, 512.911 490.836, 507.486 " />
            <path fill="none" stroke-width="3.0" stroke-linecap="round" stroke-opacity="1.0" stroke="rgb(0, 0, 0)" stroke-linejoin="round" d=" M 495.062, 508.862 490.836, 507.486 489.486, 505.210 " />
            <path fill="none" stroke-width="3.0" stroke-linecap="round" stroke-opacity="1.0" stroke="rgb(0, 0, 0)" stroke-linejoin="round" d=" M 455.984, 551.143 457.003, 552.870 457.932, 554.447 460.379, 558.597 465.458, 567.211 468.109, 571.706 473.188, 580.320 478.267, 588.934 481.325, 594.120 490.722, 597.540 500.119, 600.960 509.516, 604.380 515.209, 606.452 517.695, 607.357 527.093, 610.777 534.952, 613.638 544.349, 617.058 553.746, 620.478 554.348, 620.697 " />
            <path fill="none" stroke-width="3.0" stroke-linecap="round" stroke-opacity="1.0" stroke="rgb(0, 0, 0)" stroke-linejoin="round" d=" M 642.526, 1568.238 640.158, 1577.954 637.789, 1587.669 635.421, 1597.385 633.053, 1607.100 632.178, 1610.689 " />
            <path fill="none" stroke-width="3.0" stroke-linecap="round" stroke-opacity="1.0" stroke="rgb(0, 0, 0)" stroke-linejoin="round" d=" M 550.237, 1604.348 541.671, 1609.508 533.106, 1614.669 524.540, 1619.830 515.975, 1624.991 507.409, 1630.151 498.844, 1635.312 490.278, 1640.473 481.713, 1645.634 473.147, 1650.794 467.135, 1654.417 475.723, 1659.541 483.052, 1663.915 491.639, 1669.040 500.227, 1674.164 508.814, 1679.289 517.401, 1684.413 525.988, 1689.538 533.478, 1694.007 535.315, 1684.178 537.153, 1674.348 538.990, 1664.518 540.827, 1654.688 542.665, 1644.859 544.502, 1635.029 546.339, 1625.199 547.118, 1621.033 548.955, 1611.204 550.237, 1604.348 " />
            <path fill="none" stroke-width="3.0" stroke-linecap="round" stroke-opacity="1.0" stroke="rgb(0, 0, 0)" stroke-linejoin="round" d=" M 649.033, 1359.950 649.103, 1369.949 649.173, 1379.949 649.243, 1389.949 649.314, 1399.949 649.384, 1409.948 649.454, 1419.948 649.524, 1429.948 649.594, 1439.948 649.665, 1449.947 649.735, 1459.947 649.763, 1464.019 648.573, 1473.947 647.383, 1483.876 646.192, 1493.805 645.002, 1503.734 643.811, 1513.663 642.621, 1523.592 641.430, 1533.521 640.240, 1543.450 639.049, 1553.379 637.859, 1563.307 636.669, 1573.236 635.478, 1583.165 634.288, 1593.094 633.097, 1603.023 632.178, 1610.689 622.208, 1609.918 612.238, 1609.146 602.267, 1608.375 592.297, 1607.603 582.327, 1606.831 572.357, 1606.060 564.511, 1605.453 554.541, 1604.681 550.237, 1604.348 550.541, 1594.352 550.747, 1587.592 551.051, 1577.596 551.356, 1567.601 551.660, 1557.605 551.964, 1547.610 552.269, 1537.615 552.573, 1527.619 552.878, 1517.624 553.182, 1507.629 553.487, 1497.633 553.791, 1487.638 554.073, 1478.381 " />
            <path fill="none" stroke-width="3.0" stroke-linecap="round" stroke-opacity="1.0" stroke="rgb(0, 0, 0)" stroke-linejoin="round" d=" M 471.442, 1539.323 463.138, 1544.895 454.835, 1550.467 446.531, 1556.039 438.227, 1561.612 429.924, 1567.184 421.620, 1572.756 413.316, 1578.328 405.013, 1583.900 396.709, 1589.473 391.249, 1593.137 383.353, 1599.273 375.457, 1605.410 367.562, 1611.546 359.666, 1617.683 358.188, 1618.831 353.837, 1627.835 349.486, 1636.839 345.136, 1645.843 342.989, 1650.286 349.018, 1658.264 355.047, 1666.242 361.077, 1674.220 367.106, 1682.198 373.135, 1690.176 379.164, 1698.155 385.193, 1706.133 391.222, 1714.111 394.819, 1718.870 403.421, 1713.772 412.024, 1708.673 415.471, 1706.630 " />
            <path fill="none" stroke-width="3.0" stroke-linecap="round" stroke-opacity="1.0" stroke="rgb(0, 0, 0)" stroke-linejoin="round" d=" M 358.188, 1618.831 363.709, 1627.169 369.230, 1635.507 374.751, 1643.844 380.272, 1652.182 385.793, 1660.520 391.315, 1668.857 396.836, 1677.195 397.255, 1677.828 396.663, 1687.811 396.070, 1697.793 395.477, 1707.776 394.885, 1717.758 394.819, 1718.870 " />
            <path fill="none" stroke-width="3.0" stroke-linecap="round" stroke-opacity="1.0" stroke="rgb(0, 0, 0)" stroke-linejoin="round" d=" M 431.630, 1261.483 441.185, 1264.433 450.740, 1267.383 460.295, 1270.333 469.850, 1273.283 479.405, 1276.233 488.960, 1279.182 498.515, 1282.132 508.070, 1285.082 517.625, 1288.032 527.180, 1290.982 536.735, 1293.932 541.856, 1295.512 " />
            <path fill="none" stroke-width="3.0" stroke-linecap="round" stroke-opacity="1.0" stroke="rgb(0, 0, 0)" stroke-linejoin="round" d=" M 536.764, 1260.504 536.494, 1250.507 536.224, 1240.511 535.954, 1230.515 535.684, 1220.518 535.414, 1210.522 535.144, 1200.526 534.874, 1190.529 534.604, 1180.533 534.334, 1170.537 534.268, 1168.081 " />
            <path fill="none" stroke-width="3.0" stroke-linecap="round" stroke-opacity="1.0" stroke="rgb(0, 0, 0)" stroke-linejoin="round" d=" M 548.975, 1344.469 558.858, 1345.998 568.740, 1347.527 578.623, 1349.056 583.948, 1349.880 593.830, 1351.409 603.713, 1352.938 613.595, 1354.467 623.477, 1355.996 633.360, 1357.525 643.242, 1359.054 649.033, 1359.950 639.984, 1364.206 630.935, 1368.463 621.886, 1372.719 612.837, 1376.976 603.788, 1381.232 594.740, 1385.489 585.691, 1389.746 582.070, 1391.449 573.021, 1395.705 563.973, 1399.962 554.924, 1404.218 551.997, 1405.595 " />
            <path fill="none" stroke-width="3.0" stroke-linecap="round" stroke-opacity="1.0" stroke="rgb(0, 0, 0)" stroke-linejoin="round" d=" M 554.073, 1478.381 563.962, 1476.896 573.851, 1475.412 578.308, 1474.743 588.198, 1473.259 598.087, 1471.775 607.976, 1470.290 617.865, 1468.806 627.754, 1467.322 637.644, 1465.838 647.533, 1464.353 649.763, 1464.019 651.093, 1454.107 652.422, 1444.196 653.751, 1434.285 655.080, 1424.373 656.409, 1414.462 657.738, 1404.551 659.067, 1394.640 660.185, 1386.306 " />
            <path fill="none" stroke-width="3.0" stroke-linecap="round" stroke-opacity="1.0" stroke="rgb(0, 0, 0)" stroke-linejoin="round" d=" M 577.869, 386.573 569.337, 391.788 560.804, 397.002 552.271, 402.217 550.765, 403.137 " />
            <path fill="none" stroke-width="3.0" stroke-linecap="round" stroke-opacity="1.0" stroke="rgb(0, 0, 0)" stroke-linejoin="round" d=" M 490.836, 507.486 493.950, 505.602 494.438, 505.307 " />
            <path fill="none" stroke-width="3.0" stroke-linecap="round" stroke-opacity="1.0" stroke="rgb(0, 0, 0)" stroke-linejoin="round" d=" M 650.915, 1141.024 651.448, 1151.010 651.980, 1160.996 652.513, 1170.981 653.046, 1180.967 653.579, 1190.953 654.111, 1200.939 654.644, 1210.925 655.177, 1220.910 655.709, 1230.896 656.242, 1240.882 656.409, 1244.004 646.502, 1245.370 636.596, 1246.736 626.690, 1248.103 616.784, 1249.469 606.877, 1250.835 596.971, 1252.201 587.065, 1253.567 577.159, 1254.933 572.682, 1255.551 562.775, 1256.917 552.869, 1258.283 542.963, 1259.649 536.764, 1260.504 " />
            <path fill="none" stroke-width="3.0" stroke-linecap="round" stroke-opacity="1.0" stroke="rgb(0, 0, 0)" stroke-linejoin="round" d=" M 566.492, 532.114 567.242, 542.086 567.992, 552.057 568.468, 558.381 569.218, 568.353 569.257, 568.872 570.007, 578.844 570.757, 588.816 571.508, 598.787 572.258, 608.759 572.362, 610.148 573.112, 620.119 573.143, 620.523 564.184, 620.606 554.348, 620.697 " />
            <path fill="none" stroke-width="3.0" stroke-linecap="round" stroke-opacity="1.0" stroke="rgb(0, 0, 0)" stroke-linejoin="round" d=" M 464.579, 628.965 465.150, 627.777 467.383, 623.130 468.212, 621.406 472.543, 612.393 476.875, 603.380 481.325, 594.120 " />
            <path fill="none" stroke-width="3.0" stroke-linecap="round" stroke-opacity="1.0" stroke="rgb(0, 0, 0)" stroke-linejoin="round" d=" M 481.325, 594.120 471.434, 595.591 464.784, 596.580 462.757, 596.882 459.938, 597.301 459.089, 597.427 449.198, 598.898 442.567, 599.884 " />
            <path fill="none" stroke-width="3.0" stroke-linecap="round" stroke-opacity="1.0" stroke="rgb(0, 0, 0)" stroke-linejoin="round" d=" M 481.325, 594.120 489.166, 600.326 497.008, 606.532 504.849, 612.737 512.691, 618.943 520.533, 625.148 528.374, 631.354 536.216, 637.560 538.643, 639.480 540.788, 636.915 547.203, 629.243 553.617, 621.571 554.348, 620.697 555.706, 610.789 557.065, 600.882 558.423, 590.975 559.753, 581.275 561.111, 571.367 562.469, 561.460 563.084, 556.976 564.442, 547.068 565.800, 537.161 566.492, 532.114 575.147, 527.104 583.802, 522.095 592.457, 517.086 601.112, 512.077 609.767, 507.068 616.313, 503.279 624.968, 498.270 633.623, 493.260 642.278, 488.251 650.941, 483.237 659.596, 478.228 668.251, 473.219 676.906, 468.210 685.560, 463.200 685.932, 462.985 " />
            <path fill="none" stroke-width="3.0" stroke-linecap="round" stroke-opacity="1.0" stroke="rgb(0, 0, 0)" stroke-linejoin="round" d=" M 505.221, 644.188 500.914, 635.163 500.402, 634.090 500.337, 633.955 496.030, 624.930 491.723, 615.906 487.415, 606.881 483.108, 597.856 481.325, 594.120 472.691, 589.075 466.287, 585.333 459.277, 581.236 458.811, 580.964 450.177, 575.919 441.971, 571.123 447.713, 562.936 453.455, 554.749 454.346, 553.478 455.984, 551.143 456.144, 548.354 456.719, 538.371 457.294, 528.387 457.868, 518.404 458.443, 508.420 458.783, 502.513 " />
            <path fill="none" stroke-width="3.0" stroke-linecap="round" stroke-opacity="1.0" stroke="rgb(0, 0, 0)" stroke-linejoin="round" d=" M 470.382, 633.535 468.728, 640.299 " />
            <path fill="none" stroke-width="3.0" stroke-linecap="round" stroke-opacity="1.0" stroke="rgb(0, 0, 0)" stroke-linejoin="round" d=" M 536.395, 669.526 526.759, 666.850 517.124, 664.174 511.507, 662.615 " />
            <path fill="none" stroke-width="3.0" stroke-linecap="round" stroke-opacity="1.0" stroke="rgb(0, 0, 0)" stroke-linejoin="round" d=" M 473.810, 638.797 473.320, 638.044 471.183, 634.764 470.382, 633.535 469.608, 630.849 " />
            <path fill="none" stroke-width="3.0" stroke-linecap="round" stroke-opacity="1.0" stroke="rgb(0, 0, 0)" stroke-linejoin="round" d=" M 501.333, 506.250 511.295, 507.125 518.238, 507.735 523.126, 508.164 528.233, 508.613 538.195, 509.488 548.157, 510.363 549.529, 510.483 549.529, 500.483 549.529, 492.988 549.529, 486.627 549.529, 483.990 549.529, 482.347 549.529, 472.347 549.529, 471.976 549.529, 461.976 549.529, 451.976 549.529, 441.976 549.529, 435.720 549.529, 428.576 550.015, 418.588 550.500, 408.600 550.765, 403.137 551.034, 397.605 551.519, 387.617 552.004, 377.628 552.490, 367.640 552.975, 357.652 553.460, 347.664 553.650, 343.749 543.689, 342.874 533.727, 341.999 523.765, 341.124 513.804, 340.249 503.842, 339.374 498.619, 338.915 489.930, 338.152 479.968, 337.277 470.007, 336.402 460.045, 335.527 450.084, 334.653 443.588, 334.082 443.102, 344.070 442.617, 354.058 442.132, 364.047 441.647, 374.035 441.161, 384.023 440.676, 394.011 440.191, 404.000 439.705, 413.988 439.466, 418.909 439.466, 428.909 439.466, 438.909 439.466, 448.909 439.466, 458.909 439.466, 468.909 439.466, 478.909 439.466, 488.909 439.466, 498.909 439.466, 500.817 449.428, 501.691 458.783, 502.513 461.008, 502.708 470.970, 503.583 472.307, 503.701 482.269, 504.576 489.486, 505.210 " />
            <path fill="none" stroke-width="3.0" stroke-linecap="round" stroke-opacity="1.0" stroke="rgb(0, 0, 0)" stroke-linejoin="round" d=" M 439.466, 418.909 449.428, 419.784 459.389, 420.659 469.351, 421.534 479.313, 422.409 487.662, 423.142 496.147, 423.888 " />
            <path fill="none" stroke-width="3.0" stroke-linecap="round" stroke-opacity="1.0" stroke="rgb(0, 0, 0)" stroke-linejoin="round" d=" M 495.062, 508.862 496.675, 518.044 497.641, 523.542 498.844, 530.396 500.117, 537.640 501.023, 542.798 501.333, 544.563 501.333, 542.727 501.333, 536.385 501.333, 528.117 501.333, 518.117 501.333, 515.702 501.333, 510.903 501.333, 506.250 501.333, 501.135 501.333, 491.135 501.333, 481.135 501.333, 471.135 501.333, 462.656 501.596, 457.247 501.717, 454.761 502.202, 444.773 502.687, 434.784 502.801, 432.448 503.187, 424.506 503.545, 417.127 504.030, 407.138 504.516, 397.150 505.001, 387.162 505.454, 377.828 503.724, 367.979 501.994, 358.130 500.264, 348.281 498.619, 338.915 496.889, 329.066 495.159, 319.217 493.429, 309.368 491.784, 300.002 491.298, 309.990 490.813, 319.979 490.328, 329.967 489.930, 338.152 " />
            <path fill="none" stroke-width="3.0" stroke-linecap="round" stroke-opacity="1.0" stroke="rgb(0, 0, 0)" stroke-linejoin="round" d=" M 294.124, 782.564 297.929, 776.536 " />
            <path fill="none" stroke-width="3.0" stroke-linecap="round" stroke-opacity="1.0" stroke="rgb(0, 0, 0)" stroke-linejoin="round" d=" M 419.363, 952.750 417.903, 962.643 416.442, 972.536 414.982, 982.429 413.521, 992.321 412.061, 1002.214 410.600, 1012.107 409.140, 1022.000 407.680, 1031.893 406.219, 1041.785 404.759, 1051.678 403.298, 1061.571 401.838, 1071.464 401.478, 1073.903 " />
            <path fill="none" stroke-width="3.0" stroke-linecap="round" stroke-opacity="1.0" stroke="rgb(0, 0, 0)" stroke-linejoin="round" d=" M 468.900, 630.583 470.382, 633.535 " />
            <path fill="none" stroke-width="3.0" stroke-linecap="round" stroke-opacity="1.0" stroke="rgb(0, 0, 0)" stroke-linejoin="round" d=" M 470.376, 631.136 471.183, 634.764 " />
            <path fill="none" stroke-width="3.0" stroke-linecap="round" stroke-opacity="1.0" stroke="rgb(0, 0, 0)" stroke-linejoin="round" d=" M 474.414, 639.109 474.306, 639.557 " />
            <path fill="none" stroke-width="3.0" stroke-linecap="round" stroke-opacity="1.0" stroke="rgb(0, 0, 0)" stroke-linejoin="round" d=" M 475.590, 633.089 473.821, 638.813 473.686, 639.249 " />
            <path fill="none" stroke-width="3.0" stroke-linecap="round" stroke-opacity="1.0" stroke="rgb(0, 0, 0)" stroke-linejoin="round" d=" M 488.523, 658.286 487.804, 648.312 487.085, 638.338 487.015, 637.368 " />
            <path fill="none" stroke-width="3.0" stroke-linecap="round" stroke-opacity="1.0" stroke="rgb(0, 0, 0)" stroke-linejoin="round" d=" M 494.760, 425.239 496.491, 435.088 498.221, 444.937 499.951, 454.786 500.062, 455.420 501.333, 462.656 " />
            <path fill="none" stroke-width="3.0" stroke-linecap="round" stroke-opacity="1.0" stroke="rgb(0, 0, 0)" stroke-linejoin="round" d=" M 520.401, 673.742 522.997, 679.183 " />
            <path fill="none" stroke-width="3.0" stroke-linecap="round" stroke-opacity="1.0" stroke="rgb(0, 0, 0)" stroke-linejoin="round" d=" M 506.228, 644.046 510.535, 653.071 514.545, 661.472 " />
            <path fill="none" stroke-width="3.0" stroke-linecap="round" stroke-opacity="1.0" stroke="rgb(0, 0, 0)" stroke-linejoin="round" d=" M 472.585, 646.712 463.238, 650.267 453.891, 653.822 451.135, 654.870 461.103, 655.662 471.072, 656.455 478.815, 657.070 " />
            <path fill="none" stroke-width="3.0" stroke-linecap="round" stroke-opacity="1.0" stroke="rgb(0, 0, 0)" stroke-linejoin="round" d=" M 541.984, 1296.391 532.506, 1299.581 523.029, 1302.772 513.551, 1305.962 504.073, 1309.152 494.596, 1312.342 485.118, 1315.532 475.641, 1318.722 466.163, 1321.912 456.686, 1325.102 447.208, 1328.292 444.430, 1329.227 " />
            <path fill="none" stroke-width="3.0" stroke-linecap="round" stroke-opacity="1.0" stroke="rgb(0, 0, 0)" stroke-linejoin="round" d=" M 503.187, 424.506 513.148, 425.381 523.110, 426.256 533.072, 427.131 543.033, 428.005 549.529, 428.576 " />
            <path fill="none" stroke-width="3.0" stroke-linecap="round" stroke-opacity="1.0" stroke="rgb(0, 0, 0)" stroke-linejoin="round" d=" M 539.013, 652.268 544.126, 643.675 547.536, 637.945 550.389, 633.151 550.407, 633.016 " />
            <path fill="none" stroke-width="3.0" stroke-linecap="round" stroke-opacity="1.0" stroke="rgb(0, 0, 0)" stroke-linejoin="round" d=" M 552.020, 1406.370 542.020, 1406.474 532.021, 1406.577 522.021, 1406.681 512.022, 1406.785 502.022, 1406.888 492.023, 1406.992 482.023, 1407.096 472.024, 1407.199 462.024, 1407.303 454.084, 1407.385 " />
            <path fill="none" stroke-width="3.0" stroke-linecap="round" stroke-opacity="1.0" stroke="rgb(0, 0, 0)" stroke-linejoin="round" d=" M 550.350, 1372.264 549.428, 1362.307 548.506, 1352.349 547.584, 1342.392 546.662, 1332.435 545.740, 1322.477 545.675, 1321.777 " />
            <path fill="none" stroke-width="3.0" stroke-linecap="round" stroke-opacity="1.0" stroke="rgb(0, 0, 0)" stroke-linejoin="round" d=" M 553.999, 1475.799 553.707, 1485.795 553.414, 1495.791 553.122, 1505.786 552.829, 1515.782 552.698, 1520.251 552.406, 1530.247 552.113, 1540.242 551.820, 1550.238 551.630, 1556.753 551.533, 1560.067 551.403, 1564.512 551.110, 1574.508 550.817, 1584.503 550.727, 1587.608 550.434, 1597.603 550.328, 1601.209 550.237, 1604.348 " />
            <path fill="none" stroke-width="3.0" stroke-linecap="round" stroke-opacity="1.0" stroke="rgb(0, 0, 0)" stroke-linejoin="round" d=" M 596.797, 610.069 592.800, 619.236 588.803, 628.402 584.806, 637.569 582.326, 643.257 " />
            <path fill="none" stroke-width="3.0" stroke-linecap="round" stroke-opacity="1.0" stroke="rgb(0, 0, 0)" stroke-linejoin="round" d=" M 549.529, 471.976 558.085, 466.800 566.641, 461.623 575.197, 456.447 583.753, 451.270 592.309, 446.094 600.865, 440.918 604.007, 439.017 612.563, 433.840 621.119, 428.664 629.675, 423.487 638.231, 418.311 646.787, 413.134 649.086, 411.743 " />
            <path fill="none" stroke-width="3.0" stroke-linecap="round" stroke-opacity="1.0" stroke="rgb(0, 0, 0)" stroke-linejoin="round" d=" M 629.797, 1010.261 631.578, 1020.101 633.359, 1029.941 635.139, 1039.781 636.920, 1049.622 638.701, 1059.462 640.481, 1069.302 642.262, 1079.142 644.043, 1088.982 645.823, 1098.823 647.604, 1108.663 649.384, 1118.503 651.165, 1128.343 652.331, 1134.785 652.416, 1135.255 653.354, 1140.442 " />
        </g>
    </g>
</svg>
