<?xml version='1.0' encoding='ascii'?>
<svg xmlns="http://www.w3.org/2000/svg" version="1.1" width="1001" height="2138">
    <g id="View Layer_LineSet" xmlns:inkscape="http://www.inkscape.org/namespaces/inkscape" inkscape:groupmode="lineset" inkscape:label="View Layer_LineSet">
        <g xmlns:inkscape="http://www.inkscape.org/namespaces/inkscape" inkscape:groupmode="layer" id="strokes" inkscape:label="strokes">
            <path fill="none" stroke-width="3.0" stroke-linecap="round" stroke-opacity="1.0" stroke="rgb(0, 0, 0)" stroke-linejoin="round" d=" M 414.292, 676.852 418.737, 669.478 " />
            <path fill="none" stroke-width="3.0" stroke-linecap="round" stroke-opacity="1.0" stroke="rgb(0, 0, 0)" stroke-linejoin="round" d=" M 366.211, 633.005 366.195, 633.103 366.044, 634.076 365.130, 639.959 374.717, 637.468 377.215, 636.818 378.161, 636.573 " />
            <path fill="none" stroke-width="3.0" stroke-linecap="round" stroke-opacity="1.0" stroke="rgb(0, 0, 0)" stroke-linejoin="round" d=" M 379.666, 674.041 379.376, 669.648 " />
            <path fill="none" stroke-width="3.0" stroke-linecap="round" stroke-opacity="1.0" stroke="rgb(0, 0, 0)" stroke-linejoin="round" d=" M 529.395, 1607.692 529.519, 1606.409 530.479, 1596.455 531.439, 1586.502 532.400, 1576.548 533.360, 1566.594 534.320, 1556.640 535.280, 1546.686 536.240, 1536.733 537.200, 1526.779 538.161, 1516.825 539.121, 1506.871 540.081, 1496.917 541.041, 1486.964 542.001, 1477.010 542.961, 1467.056 543.922, 1457.102 544.882, 1447.148 545.841, 1437.199 545.383, 1427.210 544.925, 1417.220 544.467, 1407.231 544.009, 1397.241 543.551, 1387.252 543.092, 1377.262 542.634, 1367.273 542.176, 1357.283 541.718, 1347.294 541.260, 1337.304 540.802, 1327.315 540.343, 1317.325 539.978, 1309.360 540.774, 1299.392 541.571, 1289.424 542.367, 1279.456 543.163, 1269.487 543.959, 1259.519 544.755, 1249.551 545.552, 1239.583 546.348, 1229.614 547.144, 1219.646 547.940, 1209.678 548.737, 1199.710 549.533, 1189.741 550.064, 1183.096 551.349, 1173.179 552.634, 1163.262 553.919, 1153.344 555.205, 1143.427 556.490, 1133.510 557.775, 1123.593 559.060, 1113.676 559.362, 1111.345 " />
            <path fill="none" stroke-width="3.0" stroke-linecap="round" stroke-opacity="1.0" stroke="rgb(0, 0, 0)" stroke-linejoin="round" d=" M 299.034, 1041.350 296.119, 1050.916 294.598, 1055.908 294.920, 1065.903 295.242, 1075.897 295.564, 1085.892 295.887, 1095.887 296.209, 1105.882 296.531, 1115.877 296.853, 1125.871 297.175, 1135.866 297.497, 1145.861 297.803, 1155.359 299.768, 1165.164 301.733, 1174.969 303.698, 1184.774 305.663, 1194.579 307.629, 1204.384 309.594, 1214.189 311.559, 1223.994 313.524, 1233.799 315.489, 1243.604 317.454, 1253.409 319.427, 1263.249 321.228, 1273.085 323.029, 1282.922 324.831, 1292.758 326.632, 1302.595 328.434, 1312.431 330.235, 1322.267 332.036, 1332.104 332.736, 1335.923 333.953, 1345.849 335.170, 1355.775 336.387, 1365.700 337.604, 1375.626 338.821, 1385.552 340.039, 1395.477 341.256, 1405.403 342.473, 1415.329 342.705, 1417.226 344.112, 1427.127 345.518, 1437.028 346.924, 1446.928 348.330, 1456.829 349.736, 1466.729 350.351, 1471.058 351.757, 1480.958 353.163, 1490.859 354.252, 1498.526 354.817, 1502.505 356.038, 1511.100 357.444, 1521.001 358.850, 1530.902 360.256, 1540.802 360.398, 1541.797 361.234, 1547.687 362.165, 1554.241 " />
            <path fill="none" stroke-width="3.0" stroke-linecap="round" stroke-opacity="1.0" stroke="rgb(0, 0, 0)" stroke-linejoin="round" d=" M 265.349, 1619.890 268.563, 1610.421 271.777, 1600.951 274.992, 1591.482 278.206, 1582.013 280.760, 1574.488 " />
            <path fill="none" stroke-width="3.0" stroke-linecap="round" stroke-opacity="1.0" stroke="rgb(0, 0, 0)" stroke-linejoin="round" d=" M 280.760, 1574.488 271.300, 1571.245 261.841, 1568.002 252.381, 1564.759 248.098, 1563.291 " />
            <path fill="none" stroke-width="3.0" stroke-linecap="round" stroke-opacity="1.0" stroke="rgb(0, 0, 0)" stroke-linejoin="round" d=" M 360.398, 1541.797 351.912, 1536.507 351.726, 1536.391 343.240, 1531.101 334.754, 1525.811 330.521, 1523.172 322.263, 1517.532 315.613, 1512.990 307.355, 1507.350 305.089, 1505.803 296.832, 1500.162 289.410, 1495.094 284.229, 1503.647 279.048, 1512.200 273.867, 1520.753 268.685, 1529.306 263.504, 1537.859 258.323, 1546.412 253.142, 1554.965 248.098, 1563.291 243.814, 1572.327 239.529, 1581.363 235.245, 1590.398 232.123, 1596.984 240.356, 1602.660 248.589, 1608.336 256.822, 1614.012 265.349, 1619.890 273.907, 1625.063 282.465, 1630.236 291.023, 1635.409 299.581, 1640.582 308.139, 1645.755 316.697, 1650.928 325.255, 1656.101 333.813, 1661.275 342.371, 1666.448 350.929, 1671.621 359.487, 1676.794 368.045, 1681.967 376.603, 1687.140 379.973, 1689.177 389.919, 1690.214 399.865, 1691.251 409.811, 1692.287 419.758, 1693.324 429.704, 1694.361 439.650, 1695.398 449.596, 1696.435 459.542, 1697.471 464.397, 1697.977 464.107, 1687.982 463.817, 1677.986 463.527, 1667.990 463.237, 1657.994 463.144, 1654.793 463.599, 1644.803 463.933, 1637.441 464.200, 1631.573 464.655, 1621.583 465.109, 1611.594 465.563, 1601.604 466.017, 1591.614 466.241, 1586.701 466.695, 1576.712 467.149, 1566.722 467.604, 1556.732 468.058, 1546.743 468.509, 1536.829 468.963, 1526.839 469.416, 1516.878 469.793, 1508.595 470.247, 1498.606 470.610, 1490.625 469.330, 1480.708 468.051, 1470.790 466.771, 1460.872 465.492, 1450.954 464.212, 1441.036 462.933, 1431.118 461.653, 1421.201 461.409, 1419.307 460.130, 1409.390 458.850, 1399.472 457.571, 1389.554 456.291, 1379.636 454.981, 1369.482 455.628, 1359.503 456.275, 1349.524 456.306, 1349.048 456.953, 1339.069 457.600, 1329.090 458.247, 1319.111 458.894, 1309.132 459.541, 1299.153 459.579, 1298.568 460.226, 1288.589 460.873, 1278.610 461.520, 1268.631 462.167, 1258.652 462.285, 1256.830 462.932, 1246.851 463.078, 1244.604 461.807, 1234.685 460.537, 1224.766 459.266, 1214.847 457.996, 1204.928 456.726, 1195.009 456.507, 1193.305 455.423, 1184.841 464.209, 1180.064 472.994, 1175.288 481.779, 1170.511 487.972, 1167.144 496.757, 1162.367 505.542, 1157.590 513.404, 1153.316 520.788, 1146.572 528.172, 1139.829 535.556, 1133.085 542.294, 1126.933 546.468, 1123.121 553.852, 1116.377 559.362, 1111.345 564.192, 1102.589 569.021, 1093.832 573.850, 1085.075 578.680, 1076.319 583.509, 1067.562 588.338, 1058.806 592.253, 1051.706 587.896, 1042.706 583.538, 1033.705 579.180, 1024.705 574.822, 1015.704 570.464, 1006.704 566.107, 997.703 564.942, 995.297 " />
            <path fill="none" stroke-width="3.0" stroke-linecap="round" stroke-opacity="1.0" stroke="rgb(0, 0, 0)" stroke-linejoin="round" d=" M 408.923, 672.597 404.437, 663.659 403.095, 660.985 " />
            <path fill="none" stroke-width="3.0" stroke-linecap="round" stroke-opacity="1.0" stroke="rgb(0, 0, 0)" stroke-linejoin="round" d=" M 450.854, 624.376 450.641, 624.708 445.030, 632.985 443.616, 635.070 438.005, 643.347 435.365, 647.240 431.027, 649.088 422.944, 652.531 420.958, 653.377 417.434, 654.877 408.968, 658.483 405.754, 659.852 403.095, 660.985 402.033, 660.858 400.474, 660.673 393.822, 659.881 383.892, 658.700 378.614, 658.072 378.374, 658.044 376.530, 657.824 375.543, 656.547 369.428, 648.635 364.721, 642.544 362.863, 640.141 362.132, 639.195 358.542, 634.550 358.211, 633.628 357.004, 630.257 " />
            <path fill="none" stroke-width="3.0" stroke-linecap="round" stroke-opacity="1.0" stroke="rgb(0, 0, 0)" stroke-linejoin="round" d=" M 376.530, 657.824 376.530, 667.824 376.530, 669.296 376.530, 669.364 " />
            <path fill="none" stroke-width="3.0" stroke-linecap="round" stroke-opacity="1.0" stroke="rgb(0, 0, 0)" stroke-linejoin="round" d=" M 349.369, 622.100 350.434, 625.029 353.851, 634.427 354.657, 636.646 356.397, 641.431 358.978, 645.013 364.826, 653.125 368.266, 657.898 369.305, 659.339 375.152, 667.452 376.530, 669.364 376.578, 669.368 379.376, 669.648 383.633, 670.073 393.583, 671.066 403.534, 672.059 405.430, 672.248 408.364, 672.541 408.923, 672.597 411.710, 671.711 417.110, 669.995 418.737, 669.478 428.268, 666.449 428.613, 666.339 429.265, 665.440 433.319, 659.850 433.320, 659.850 439.191, 651.755 445.062, 643.660 450.843, 635.688 456.714, 627.594 462.586, 619.499 465.516, 615.458 466.276, 614.561 " />
            <path fill="none" stroke-width="3.0" stroke-linecap="round" stroke-opacity="1.0" stroke="rgb(0, 0, 0)" stroke-linejoin="round" d=" M 274.513, 926.806 283.911, 930.223 293.309, 933.641 302.707, 937.058 312.105, 940.475 312.824, 940.737 322.222, 944.154 331.620, 947.571 341.018, 950.989 350.416, 954.406 359.814, 957.823 363.863, 959.296 365.183, 959.776 369.657, 961.402 379.055, 964.820 388.453, 968.237 397.851, 971.654 402.046, 973.180 411.444, 976.597 420.841, 980.014 430.239, 983.432 439.637, 986.849 449.035, 990.266 458.433, 993.684 467.831, 997.101 477.229, 1000.518 486.627, 1003.936 496.288, 1007.449 506.133, 1005.692 515.977, 1003.935 525.822, 1002.178 535.666, 1000.421 541.795, 999.327 550.207, 997.826 560.052, 996.069 564.897, 995.204 566.987, 994.831 " />
            <path fill="none" stroke-width="3.0" stroke-linecap="round" stroke-opacity="1.0" stroke="rgb(0, 0, 0)" stroke-linejoin="round" d=" M 496.288, 1007.449 491.341, 998.758 486.394, 990.067 484.316, 986.415 479.369, 977.725 478.342, 975.921 473.568, 967.533 472.059, 964.882 467.112, 956.192 464.668, 951.899 459.936, 943.585 456.413, 937.396 " />
            <path fill="none" stroke-width="3.0" stroke-linecap="round" stroke-opacity="1.0" stroke="rgb(0, 0, 0)" stroke-linejoin="round" d=" M 456.413, 937.396 446.430, 936.814 436.446, 936.233 426.463, 935.652 417.684, 935.141 407.701, 934.560 404.815, 934.392 394.832, 933.811 384.849, 933.229 374.866, 932.648 364.882, 932.067 354.899, 931.486 344.916, 930.905 334.933, 930.323 324.950, 929.742 314.415, 929.129 304.432, 928.548 294.449, 927.966 284.465, 927.385 274.513, 926.806 " />
            <path fill="none" stroke-width="3.0" stroke-linecap="round" stroke-opacity="1.0" stroke="rgb(0, 0, 0)" stroke-linejoin="round" d=" M 456.413, 937.396 446.774, 934.730 437.136, 932.064 429.024, 929.820 419.386, 927.154 417.551, 926.647 407.913, 923.981 398.274, 921.315 388.636, 918.649 378.998, 915.983 369.360, 913.318 362.410, 911.395 358.977, 910.446 349.339, 907.780 339.701, 905.114 330.063, 902.448 320.425, 899.782 319.279, 899.465 309.641, 896.800 300.002, 894.134 290.364, 891.468 285.962, 890.250 " />
            <path fill="none" stroke-width="3.0" stroke-linecap="round" stroke-opacity="1.0" stroke="rgb(0, 0, 0)" stroke-linejoin="round" d=" M 285.962, 890.250 282.973, 899.793 279.984, 909.336 276.996, 918.879 274.513, 926.806 " />
            <path fill="none" stroke-width="3.0" stroke-linecap="round" stroke-opacity="1.0" stroke="rgb(0, 0, 0)" stroke-linejoin="round" d=" M 376.578, 669.368 379.666, 674.041 389.633, 674.850 399.600, 675.659 407.154, 676.272 410.536, 676.547 413.171, 676.761 414.292, 676.852 422.470, 671.096 429.721, 665.992 436.868, 660.962 437.702, 660.375 445.879, 654.619 454.056, 648.863 462.234, 643.107 470.396, 637.362 476.394, 629.361 482.393, 621.360 484.036, 619.169 490.034, 611.168 496.033, 603.167 500.714, 596.923 501.981, 595.233 " />
            <path fill="none" stroke-width="3.0" stroke-linecap="round" stroke-opacity="1.0" stroke="rgb(0, 0, 0)" stroke-linejoin="round" d=" M 470.396, 637.362 471.413, 647.311 472.430, 657.259 473.184, 664.629 " />
            <path fill="none" stroke-width="3.0" stroke-linecap="round" stroke-opacity="1.0" stroke="rgb(0, 0, 0)" stroke-linejoin="round" d=" M 437.702, 660.375 447.630, 661.565 457.559, 662.756 467.488, 663.946 473.184, 664.629 481.066, 658.474 488.948, 652.320 496.829, 646.166 504.711, 640.011 512.593, 633.857 520.475, 627.702 528.357, 621.548 536.238, 615.393 542.858, 610.225 " />
            <path fill="none" stroke-width="3.0" stroke-linecap="round" stroke-opacity="1.0" stroke="rgb(0, 0, 0)" stroke-linejoin="round" d=" M 153.826, 867.300 158.779, 870.011 164.696, 873.249 173.468, 878.050 182.240, 882.852 191.012, 887.653 199.784, 892.454 208.556, 897.255 217.328, 902.056 226.100, 906.858 234.872, 911.659 243.644, 916.460 244.789, 917.087 254.293, 920.194 263.798, 923.302 273.303, 926.410 274.513, 926.806 283.407, 931.377 292.301, 935.949 301.195, 940.521 310.089, 945.092 312.086, 946.119 320.980, 950.690 327.155, 953.864 336.048, 958.436 336.871, 958.859 345.765, 963.430 352.751, 967.021 355.136, 968.247 355.204, 968.282 361.013, 971.268 369.907, 975.839 378.801, 980.411 386.016, 984.120 386.892, 984.570 393.179, 987.802 396.559, 989.538 405.452, 994.110 413.194, 998.089 418.273, 999.041 422.854, 999.899 432.684, 1001.740 442.513, 1003.581 446.301, 1004.291 456.131, 1006.132 465.960, 1007.973 468.437, 1008.437 478.266, 1010.278 488.095, 1012.119 489.758, 1012.430 498.489, 1010.441 508.239, 1008.219 508.781, 1008.095 518.531, 1005.873 528.281, 1003.651 538.031, 1001.430 539.985, 1000.984 542.454, 1000.422 542.692, 1000.368 546.562, 999.486 550.436, 998.603 551.731, 998.308 555.270, 997.501 564.942, 995.297 566.987, 994.831 570.316, 985.401 573.644, 975.972 576.973, 966.542 580.301, 957.112 583.630, 947.682 586.959, 938.253 590.287, 928.823 593.616, 919.393 596.944, 909.963 600.273, 900.534 603.602, 891.104 606.930, 881.674 610.259, 872.244 613.588, 862.815 616.916, 853.385 620.245, 843.955 623.573, 834.525 626.902, 825.096 630.231, 815.666 633.559, 806.236 635.914, 799.565 633.708, 789.811 631.503, 780.057 629.297, 770.304 627.091, 760.550 624.885, 750.796 622.679, 741.043 620.473, 731.289 618.268, 721.535 616.062, 711.781 613.856, 702.028 611.650, 692.274 609.444, 682.521 608.972, 680.430 602.116, 673.150 595.260, 665.870 588.404, 658.590 581.549, 651.310 574.693, 644.030 567.837, 636.750 560.981, 629.470 554.125, 622.190 547.270, 614.910 542.858, 610.225 537.168, 602.001 531.478, 593.777 525.788, 585.554 520.975, 578.597 " />
            <path fill="none" stroke-width="3.0" stroke-linecap="round" stroke-opacity="1.0" stroke="rgb(0, 0, 0)" stroke-linejoin="round" d=" M 330.273, 657.352 326.819, 666.737 323.364, 676.121 319.910, 685.505 316.455, 694.890 313.000, 704.274 309.546, 713.658 306.091, 723.043 302.636, 732.427 299.182, 741.811 295.727, 751.196 292.272, 760.580 288.818, 769.964 285.363, 779.349 284.492, 781.713 " />
            <path fill="none" stroke-width="3.0" stroke-linecap="round" stroke-opacity="1.0" stroke="rgb(0, 0, 0)" stroke-linejoin="round" d=" M 284.492, 781.713 292.876, 787.164 301.260, 792.615 309.644, 798.066 318.028, 803.516 326.412, 808.967 333.511, 813.583 331.876, 823.449 330.241, 833.314 328.606, 843.180 326.972, 853.045 325.337, 862.910 323.929, 871.405 322.826, 878.060 " />
            <path fill="none" stroke-width="3.0" stroke-linecap="round" stroke-opacity="1.0" stroke="rgb(0, 0, 0)" stroke-linejoin="round" d=" M 452.452, 881.369 445.602, 877.465 436.914, 872.514 428.226, 867.562 419.538, 862.611 410.850, 857.659 402.162, 852.708 393.474, 847.756 384.786, 842.805 376.098, 837.854 367.409, 832.902 358.721, 827.951 350.033, 822.999 341.345, 818.048 333.511, 813.583 338.543, 804.941 343.574, 796.299 348.606, 787.657 353.637, 779.015 358.669, 770.373 363.700, 761.731 368.732, 753.089 373.763, 744.447 378.794, 735.805 383.826, 727.163 388.857, 718.521 393.889, 709.879 398.920, 701.237 403.952, 692.595 408.983, 683.953 409.824, 682.509 411.866, 679.002 413.171, 676.761 " />
            <path fill="none" stroke-width="3.0" stroke-linecap="round" stroke-opacity="1.0" stroke="rgb(0, 0, 0)" stroke-linejoin="round" d=" M 338.872, 552.075 329.292, 554.942 319.712, 557.809 310.132, 560.677 305.015, 562.208 297.621, 568.940 290.226, 575.672 282.831, 582.404 275.437, 589.136 268.042, 595.867 260.647, 602.599 256.866, 606.041 249.132, 612.379 241.397, 618.717 233.662, 625.055 225.927, 631.393 218.192, 637.731 210.457, 644.070 202.722, 650.408 194.987, 656.746 187.252, 663.084 179.517, 669.422 171.783, 675.760 164.048, 682.098 156.313, 688.436 148.578, 694.774 140.843, 701.112 133.108, 707.450 125.373, 713.788 117.638, 720.126 109.903, 726.465 102.168, 732.803 94.434, 739.141 89.978, 742.792 " />
            <path fill="none" stroke-width="3.0" stroke-linecap="round" stroke-opacity="1.0" stroke="rgb(0, 0, 0)" stroke-linejoin="round" d=" M 413.194, 998.089 423.131, 999.209 433.069, 1000.328 443.006, 1001.447 452.943, 1002.566 462.880, 1003.686 472.817, 1004.805 482.754, 1005.924 492.692, 1007.043 496.288, 1007.449 " />
            <path fill="none" stroke-width="3.0" stroke-linecap="round" stroke-opacity="1.0" stroke="rgb(0, 0, 0)" stroke-linejoin="round" d=" M 515.556, 990.567 508.120, 983.881 501.924, 978.311 500.163, 976.728 492.933, 970.228 489.769, 967.384 486.597, 964.533 485.631, 963.663 482.947, 961.251 475.511, 954.565 474.043, 953.245 466.606, 946.560 466.045, 946.056 462.692, 943.041 456.413, 937.396 447.274, 933.336 443.519, 931.669 439.406, 929.842 436.491, 928.547 434.049, 927.462 427.958, 924.757 426.182, 923.968 417.043, 919.909 410.167, 916.854 401.028, 912.795 391.889, 908.736 382.667, 904.640 378.771, 902.910 369.632, 898.850 360.493, 894.791 351.354, 890.732 344.374, 887.631 335.235, 883.572 333.945, 882.999 327.833, 880.284 322.826, 878.060 313.687, 874.001 304.548, 869.942 295.432, 865.892 290.882, 856.987 290.090, 855.436 286.072, 847.572 281.523, 838.667 281.450, 838.525 274.805, 833.492 " />
            <path fill="none" stroke-width="3.0" stroke-linecap="round" stroke-opacity="1.0" stroke="rgb(0, 0, 0)" stroke-linejoin="round" d=" M 295.432, 865.892 291.808, 875.213 288.185, 884.533 285.962, 890.250 " />
            <path fill="none" stroke-width="3.0" stroke-linecap="round" stroke-opacity="1.0" stroke="rgb(0, 0, 0)" stroke-linejoin="round" d=" M 132.924, 745.395 123.080, 747.155 113.236, 748.914 103.392, 750.673 96.588, 751.889 86.743, 753.649 76.899, 755.408 67.055, 757.167 65.223, 757.495 " />
            <path fill="none" stroke-width="3.0" stroke-linecap="round" stroke-opacity="1.0" stroke="rgb(0, 0, 0)" stroke-linejoin="round" d=" M 65.223, 757.495 72.435, 764.423 79.646, 771.351 86.857, 778.279 94.068, 785.207 101.279, 792.135 108.491, 799.063 114.890, 805.211 116.134, 806.406 123.345, 813.334 130.556, 820.262 137.767, 827.190 144.979, 834.118 150.343, 839.272 " />
            <path fill="none" stroke-width="3.0" stroke-linecap="round" stroke-opacity="1.0" stroke="rgb(0, 0, 0)" stroke-linejoin="round" d=" M 150.343, 839.272 154.255, 830.069 158.167, 820.866 162.079, 811.663 165.990, 802.460 166.876, 800.377 " />
            <path fill="none" stroke-width="3.0" stroke-linecap="round" stroke-opacity="1.0" stroke="rgb(0, 0, 0)" stroke-linejoin="round" d=" M 290.090, 855.436 294.366, 846.397 297.540, 839.686 289.172, 834.210 280.804, 828.734 272.437, 823.259 264.069, 817.783 255.702, 812.307 247.334, 806.832 238.966, 801.356 230.599, 795.880 228.191, 794.305 218.427, 792.148 208.662, 789.991 198.778, 787.807 189.474, 791.473 185.973, 792.852 177.874, 796.043 168.570, 799.709 166.876, 800.377 161.622, 791.869 156.367, 783.360 153.286, 778.370 148.032, 769.862 142.778, 761.353 137.524, 752.845 132.924, 745.395 " />
            <path fill="none" stroke-width="3.0" stroke-linecap="round" stroke-opacity="1.0" stroke="rgb(0, 0, 0)" stroke-linejoin="round" d=" M 291.835, 694.008 299.072, 687.107 306.309, 680.205 313.546, 673.304 320.783, 666.403 328.020, 659.502 330.273, 657.352 " />
            <path fill="none" stroke-width="3.0" stroke-linecap="round" stroke-opacity="1.0" stroke="rgb(0, 0, 0)" stroke-linejoin="round" d=" M 354.657, 636.646 347.035, 643.119 339.412, 649.592 331.790, 656.065 330.273, 657.352 321.837, 662.722 313.401, 668.092 304.965, 673.461 296.529, 678.831 288.093, 684.200 279.657, 689.570 271.221, 694.940 262.785, 700.309 254.349, 705.679 245.913, 711.049 237.477, 716.418 229.041, 721.788 220.605, 727.157 212.169, 732.527 203.732, 737.897 195.296, 743.266 186.860, 748.636 178.424, 754.005 169.988, 759.375 161.552, 764.745 157.463, 767.348 " />
            <path fill="none" stroke-width="3.0" stroke-linecap="round" stroke-opacity="1.0" stroke="rgb(0, 0, 0)" stroke-linejoin="round" d=" M 450.641, 624.708 459.133, 619.427 465.516, 615.458 458.634, 622.712 451.752, 629.967 446.664, 635.331 439.781, 642.586 435.365, 647.240 432.032, 656.668 428.698, 666.097 428.613, 666.339 " />
            <path fill="none" stroke-width="3.0" stroke-linecap="round" stroke-opacity="1.0" stroke="rgb(0, 0, 0)" stroke-linejoin="round" d=" M 330.273, 657.352 322.077, 651.623 313.881, 645.894 305.685, 640.165 297.489, 634.436 289.293, 628.707 281.096, 622.978 272.900, 617.249 264.704, 611.520 256.866, 606.041 " />
            <path fill="none" stroke-width="3.0" stroke-linecap="round" stroke-opacity="1.0" stroke="rgb(0, 0, 0)" stroke-linejoin="round" d=" M 515.556, 990.567 508.035, 997.157 500.513, 1003.747 496.288, 1007.449 489.758, 1012.430 " />
            <path fill="none" stroke-width="3.0" stroke-linecap="round" stroke-opacity="1.0" stroke="rgb(0, 0, 0)" stroke-linejoin="round" d=" M 566.987, 994.831 564.621, 994.635 554.655, 993.809 548.883, 993.330 538.917, 992.504 537.617, 992.396 527.652, 991.570 517.686, 990.744 515.556, 990.567 518.909, 981.146 522.262, 971.725 523.338, 968.702 526.691, 959.281 530.044, 949.860 532.665, 942.494 533.344, 940.587 536.697, 931.165 540.050, 921.744 543.403, 912.323 546.756, 902.902 550.109, 893.481 553.462, 884.060 556.815, 874.639 560.168, 865.218 563.521, 855.797 566.874, 846.375 570.227, 836.954 573.580, 827.533 576.933, 818.112 580.286, 808.691 584.032, 798.164 584.163, 797.797 585.291, 788.298 586.469, 778.367 587.648, 768.437 588.827, 758.507 590.006, 748.577 591.184, 738.646 591.971, 732.015 " />
            <path fill="none" stroke-width="3.0" stroke-linecap="round" stroke-opacity="1.0" stroke="rgb(0, 0, 0)" stroke-linejoin="round" d=" M 509.357, 762.328 514.914, 764.963 523.950, 769.248 532.986, 773.532 542.022, 777.816 551.057, 782.100 560.093, 786.385 569.129, 790.669 578.165, 794.953 579.176, 795.432 584.163, 797.797 584.249, 797.800 594.243, 798.141 604.237, 798.483 614.231, 798.824 624.226, 799.166 634.220, 799.507 635.914, 799.565 " />
            <path fill="none" stroke-width="3.0" stroke-linecap="round" stroke-opacity="1.0" stroke="rgb(0, 0, 0)" stroke-linejoin="round" d=" M 591.971, 732.015 582.583, 735.460 573.195, 738.905 563.807, 742.349 554.419, 745.794 545.031, 749.239 535.643, 752.683 526.255, 756.128 516.868, 759.573 515.192, 760.187 509.357, 762.328 " />
            <path fill="none" stroke-width="3.0" stroke-linecap="round" stroke-opacity="1.0" stroke="rgb(0, 0, 0)" stroke-linejoin="round" d=" M 530.472, 1101.950 521.954, 1107.190 521.560, 1107.432 513.042, 1112.672 504.524, 1117.911 496.007, 1123.150 487.489, 1128.390 478.972, 1133.629 470.454, 1138.868 461.936, 1144.107 459.184, 1145.801 " />
            <path fill="none" stroke-width="3.0" stroke-linecap="round" stroke-opacity="1.0" stroke="rgb(0, 0, 0)" stroke-linejoin="round" d=" M 452.760, 1074.020 453.651, 1083.980 454.543, 1093.941 455.135, 1100.557 456.026, 1110.517 456.917, 1120.477 457.733, 1129.587 458.624, 1139.547 459.184, 1145.801 458.225, 1155.755 457.266, 1165.708 456.307, 1175.662 455.423, 1184.841 " />
            <path fill="none" stroke-width="3.0" stroke-linecap="round" stroke-opacity="1.0" stroke="rgb(0, 0, 0)" stroke-linejoin="round" d=" M 513.404, 1153.316 516.557, 1143.826 519.711, 1134.336 522.864, 1124.846 526.017, 1115.356 528.414, 1108.142 530.472, 1101.950 " />
            <path fill="none" stroke-width="3.0" stroke-linecap="round" stroke-opacity="1.0" stroke="rgb(0, 0, 0)" stroke-linejoin="round" d=" M 244.789, 917.087 253.238, 911.579 261.616, 906.119 268.125, 901.876 276.503, 896.416 284.880, 890.955 285.962, 890.250 285.093, 880.288 284.224, 870.326 284.041, 868.226 283.172, 858.264 282.303, 848.301 281.450, 838.525 272.515, 834.034 263.581, 829.542 254.646, 825.051 245.711, 820.560 236.777, 816.068 227.842, 811.577 218.907, 807.086 209.973, 802.595 201.038, 798.103 192.103, 793.612 189.121, 792.113 " />
            <path fill="none" stroke-width="3.0" stroke-linecap="round" stroke-opacity="1.0" stroke="rgb(0, 0, 0)" stroke-linejoin="round" d=" M 281.450, 838.525 277.221, 847.587 272.992, 856.649 268.764, 865.711 264.535, 874.772 260.306, 883.834 256.077, 892.896 251.848, 901.958 248.664, 908.783 244.789, 917.087 " />
            <path fill="none" stroke-width="3.0" stroke-linecap="round" stroke-opacity="1.0" stroke="rgb(0, 0, 0)" stroke-linejoin="round" d=" M 520.493, 499.992 519.098, 508.578 517.495, 518.449 515.891, 528.319 514.288, 538.190 512.684, 548.061 511.081, 557.931 509.477, 567.802 507.874, 577.672 507.485, 580.065 505.882, 589.935 505.862, 590.057 505.314, 593.429 " />
            <path fill="none" stroke-width="3.0" stroke-linecap="round" stroke-opacity="1.0" stroke="rgb(0, 0, 0)" stroke-linejoin="round" d=" M 340.679, 548.479 338.872, 552.075 334.492, 560.793 330.002, 569.728 327.874, 573.962 328.250, 577.031 329.466, 586.956 330.681, 596.882 331.381, 602.597 338.161, 609.947 344.941, 617.298 349.369, 622.100 352.908, 625.936 353.537, 626.618 356.546, 629.881 356.851, 630.212 357.004, 630.257 360.834, 631.401 364.222, 632.412 365.720, 632.859 366.211, 633.005 366.552, 633.108 366.985, 633.237 374.862, 635.588 377.179, 636.280 378.161, 636.573 378.428, 636.652 388.010, 639.513 393.733, 641.221 396.865, 642.156 399.257, 642.870 409.057, 640.881 413.775, 639.923 414.024, 639.873 421.239, 638.408 431.039, 636.419 432.604, 636.102 435.316, 634.359 442.806, 629.546 450.854, 624.376 459.267, 618.970 465.339, 615.069 466.276, 614.561 475.070, 609.801 478.233, 608.089 485.052, 604.398 493.846, 599.637 495.339, 598.829 500.526, 596.021 501.981, 595.233 505.314, 593.429 510.826, 588.209 518.087, 581.332 520.975, 578.597 528.235, 571.720 535.496, 564.844 542.756, 557.967 550.017, 551.091 553.610, 547.688 " />
            <path fill="none" stroke-width="3.0" stroke-linecap="round" stroke-opacity="1.0" stroke="rgb(0, 0, 0)" stroke-linejoin="round" d=" M 553.610, 547.688 555.029, 537.789 556.448, 527.890 557.868, 517.992 559.287, 508.093 560.706, 498.194 562.126, 488.295 563.545, 478.396 564.964, 468.498 566.383, 458.599 567.488, 450.895 560.883, 443.386 554.278, 435.878 547.673, 428.370 541.068, 420.862 534.462, 413.354 527.857, 405.846 524.576, 402.115 514.943, 399.429 505.311, 396.742 495.678, 394.056 486.046, 391.370 476.413, 388.683 466.781, 385.997 457.149, 383.310 450.418, 381.433 441.489, 385.935 441.164, 386.099 " />
            <path fill="none" stroke-width="3.0" stroke-linecap="round" stroke-opacity="1.0" stroke="rgb(0, 0, 0)" stroke-linejoin="round" d=" M 567.488, 450.895 560.573, 458.119 553.659, 465.343 546.744, 472.567 539.829, 479.791 539.182, 480.467 532.268, 487.691 525.353, 494.915 520.493, 499.992 514.022, 502.826 504.862, 506.837 495.702, 510.849 486.541, 514.860 477.381, 518.871 468.221, 522.882 458.657, 527.071 448.967, 524.598 439.278, 522.126 429.588, 519.654 419.899, 517.181 410.209, 514.709 400.520, 512.237 395.654, 510.995 " />
            <path fill="none" stroke-width="3.0" stroke-linecap="round" stroke-opacity="1.0" stroke="rgb(0, 0, 0)" stroke-linejoin="round" d=" M 194.091, 793.581 189.121, 792.113 187.945, 794.617 186.733, 797.199 186.179, 798.378 185.816, 799.153 184.807, 801.303 183.455, 804.183 179.205, 813.235 178.785, 814.130 174.536, 823.182 170.287, 832.234 166.038, 841.286 163.536, 846.615 160.687, 852.684 159.987, 854.175 155.738, 863.228 153.826, 867.300 158.611, 870.375 164.696, 873.249 " />
            <path fill="none" stroke-width="3.0" stroke-linecap="round" stroke-opacity="1.0" stroke="rgb(0, 0, 0)" stroke-linejoin="round" d=" M 166.876, 800.377 165.701, 810.308 164.526, 820.239 163.351, 830.169 162.176, 840.100 161.001, 850.031 160.687, 852.684 " />
            <path fill="none" stroke-width="3.0" stroke-linecap="round" stroke-opacity="1.0" stroke="rgb(0, 0, 0)" stroke-linejoin="round" d=" M 185.973, 792.852 178.520, 786.185 171.067, 779.518 163.614, 772.850 163.102, 772.393 157.463, 767.348 150.010, 760.680 142.557, 754.013 135.104, 747.346 132.924, 745.395 122.942, 744.790 119.280, 744.568 109.299, 743.963 99.317, 743.358 93.575, 743.010 89.978, 742.792 81.380, 747.899 72.782, 753.005 65.223, 757.495 71.104, 765.582 76.986, 773.670 82.867, 781.758 88.748, 789.846 94.629, 797.933 100.510, 806.021 106.391, 814.109 108.574, 817.111 117.408, 821.798 126.241, 826.485 135.075, 831.171 143.909, 835.858 150.343, 839.272 155.776, 847.667 159.987, 854.175 " />
            <path fill="none" stroke-width="3.0" stroke-linecap="round" stroke-opacity="1.0" stroke="rgb(0, 0, 0)" stroke-linejoin="round" d=" M 198.778, 787.807 207.402, 792.869 216.026, 797.931 224.651, 802.993 233.275, 808.054 241.899, 813.116 250.523, 818.178 259.148, 823.240 267.772, 828.302 276.396, 833.363 285.021, 838.425 289.282, 840.926 " />
            <path fill="none" stroke-width="3.0" stroke-linecap="round" stroke-opacity="1.0" stroke="rgb(0, 0, 0)" stroke-linejoin="round" d=" M 286.072, 847.572 289.282, 840.926 297.540, 839.686 " />
            <path fill="none" stroke-width="3.0" stroke-linecap="round" stroke-opacity="1.0" stroke="rgb(0, 0, 0)" stroke-linejoin="round" d=" M 341.879, 985.156 351.847, 985.955 361.815, 986.754 371.783, 987.553 380.018, 988.213 389.986, 989.012 396.559, 989.538 " />
            <path fill="none" stroke-width="3.0" stroke-linecap="round" stroke-opacity="1.0" stroke="rgb(0, 0, 0)" stroke-linejoin="round" d=" M 382.667, 904.640 392.154, 901.477 401.640, 898.313 410.465, 895.370 419.952, 892.207 429.438, 889.043 438.924, 885.880 448.411, 882.716 452.452, 881.369 461.552, 877.223 470.653, 873.078 479.753, 868.932 484.764, 866.650 " />
            <path fill="none" stroke-width="3.0" stroke-linecap="round" stroke-opacity="1.0" stroke="rgb(0, 0, 0)" stroke-linejoin="round" d=" M 509.357, 762.328 505.061, 771.315 500.748, 780.337 496.435, 789.359 492.122, 798.382 487.810, 807.404 484.832, 813.633 480.519, 822.655 476.206, 831.677 474.885, 834.441 470.572, 843.463 466.259, 852.486 461.946, 861.508 457.633, 870.530 456.257, 873.408 452.452, 881.369 " />
            <path fill="none" stroke-width="3.0" stroke-linecap="round" stroke-opacity="1.0" stroke="rgb(0, 0, 0)" stroke-linejoin="round" d=" M 509.357, 762.328 507.062, 772.062 504.768, 781.795 502.474, 791.528 500.179, 801.261 499.371, 804.689 497.076, 814.423 494.782, 824.156 493.495, 829.617 491.200, 839.350 490.082, 844.095 487.787, 853.828 487.418, 855.393 486.154, 860.757 485.825, 862.151 484.764, 866.650 482.470, 876.383 480.556, 884.503 478.261, 894.236 475.967, 903.969 473.672, 913.702 471.378, 923.436 470.496, 927.175 470.456, 927.347 468.161, 937.081 467.450, 940.096 466.954, 942.200 466.045, 946.056 " />
            <path fill="none" stroke-width="3.0" stroke-linecap="round" stroke-opacity="1.0" stroke="rgb(0, 0, 0)" stroke-linejoin="round" d=" M 429.721, 665.992 436.092, 673.700 442.464, 681.407 448.835, 689.115 455.207, 696.822 461.578, 704.530 467.949, 712.237 474.321, 719.945 480.692, 727.652 487.063, 735.360 493.435, 743.067 499.806, 750.775 506.178, 758.482 507.066, 759.557 509.357, 762.328 507.465, 757.217 503.993, 747.839 500.520, 738.462 497.048, 729.084 493.576, 719.706 490.104, 710.328 486.632, 700.950 483.160, 691.572 479.688, 682.194 476.215, 672.817 473.184, 664.629 " />
            <path fill="none" stroke-width="3.0" stroke-linecap="round" stroke-opacity="1.0" stroke="rgb(0, 0, 0)" stroke-linejoin="round" d=" M 608.972, 680.430 605.842, 689.927 602.712, 699.425 599.582, 708.922 596.452, 718.420 593.322, 727.918 591.971, 732.015 588.231, 722.741 584.491, 713.467 580.751, 704.192 577.011, 694.918 573.271, 685.644 569.531, 676.369 565.791, 667.095 562.051, 657.821 558.311, 648.547 554.571, 639.272 550.831, 629.998 547.092, 620.724 543.352, 611.449 542.858, 610.225 " />
            <path fill="none" stroke-width="3.0" stroke-linecap="round" stroke-opacity="1.0" stroke="rgb(0, 0, 0)" stroke-linejoin="round" d=" M 163.102, 772.393 171.644, 767.192 180.185, 761.992 188.726, 756.791 197.267, 751.590 205.809, 746.389 214.350, 741.189 222.891, 735.988 231.432, 730.787 239.974, 725.587 248.515, 720.386 257.056, 715.185 265.597, 709.984 274.138, 704.784 282.680, 699.583 291.835, 694.008 291.001, 703.973 290.167, 713.938 289.332, 723.903 288.498, 733.869 287.664, 743.834 286.830, 753.799 285.995, 763.764 285.161, 773.729 284.492, 781.713 288.517, 790.867 292.542, 800.021 296.567, 809.176 300.592, 818.330 304.617, 827.484 308.642, 836.638 312.667, 845.792 316.692, 854.947 320.717, 864.101 323.929, 871.405 " />
            <path fill="none" stroke-width="3.0" stroke-linecap="round" stroke-opacity="1.0" stroke="rgb(0, 0, 0)" stroke-linejoin="round" d=" M 455.423, 1184.841 446.165, 1181.061 436.907, 1177.282 427.649, 1173.502 424.496, 1172.215 415.238, 1168.435 405.980, 1164.656 396.722, 1160.876 387.464, 1157.096 378.206, 1153.317 368.947, 1149.537 359.689, 1145.757 350.431, 1141.978 341.173, 1138.198 331.915, 1134.418 322.656, 1130.639 318.264, 1128.846 " />
            <path fill="none" stroke-width="3.0" stroke-linecap="round" stroke-opacity="1.0" stroke="rgb(0, 0, 0)" stroke-linejoin="round" d=" M 338.271, 1062.923 335.367, 1072.492 332.463, 1082.061 329.559, 1091.630 326.655, 1101.199 323.750, 1110.768 321.966, 1116.648 319.062, 1126.217 318.264, 1128.846 318.707, 1138.836 319.150, 1148.826 319.593, 1158.816 320.036, 1168.806 320.479, 1178.797 320.922, 1188.787 321.365, 1198.777 321.807, 1208.767 322.250, 1218.757 322.693, 1228.747 323.136, 1238.738 323.257, 1241.460 325.583, 1251.185 327.909, 1260.911 330.235, 1270.637 332.561, 1280.362 334.888, 1290.088 337.214, 1299.814 339.540, 1309.539 341.866, 1319.265 344.192, 1328.991 346.518, 1338.716 348.845, 1348.442 351.171, 1358.168 353.497, 1367.893 355.132, 1374.729 355.981, 1384.692 356.831, 1394.656 357.680, 1404.620 358.529, 1414.584 359.379, 1424.548 360.228, 1434.512 361.078, 1444.476 361.927, 1454.439 362.776, 1464.403 363.079, 1467.953 363.928, 1477.917 364.619, 1486.023 366.269, 1495.886 367.918, 1505.749 369.567, 1515.612 371.216, 1525.475 372.866, 1535.338 374.515, 1545.201 375.522, 1551.225 377.172, 1561.088 377.258, 1561.608 378.908, 1571.471 380.164, 1578.982 381.813, 1588.845 383.462, 1598.708 385.111, 1608.571 386.761, 1618.434 388.410, 1628.297 390.076, 1638.259 386.923, 1628.769 383.771, 1619.279 380.618, 1609.789 377.465, 1600.299 374.313, 1590.809 371.160, 1581.319 368.008, 1571.829 367.156, 1569.266 364.004, 1559.776 362.165, 1554.241 355.029, 1547.235 347.894, 1540.229 340.758, 1533.223 333.622, 1526.217 330.521, 1523.172 " />
            <path fill="none" stroke-width="3.0" stroke-linecap="round" stroke-opacity="1.0" stroke="rgb(0, 0, 0)" stroke-linejoin="round" d=" M 297.803, 1155.359 300.638, 1164.949 303.473, 1174.539 306.308, 1184.128 309.143, 1193.718 311.978, 1203.308 314.813, 1212.898 317.648, 1222.487 320.483, 1232.077 323.257, 1241.460 333.254, 1241.684 343.252, 1241.909 353.249, 1242.134 363.247, 1242.359 373.244, 1242.584 383.242, 1242.809 393.239, 1243.033 403.237, 1243.258 413.234, 1243.483 423.231, 1243.708 433.456, 1243.938 443.453, 1244.163 453.451, 1244.388 463.078, 1244.604 " />
            <path fill="none" stroke-width="3.0" stroke-linecap="round" stroke-opacity="1.0" stroke="rgb(0, 0, 0)" stroke-linejoin="round" d=" M 294.598, 1055.908 296.314, 1061.196 " />
            <path fill="none" stroke-width="3.0" stroke-linecap="round" stroke-opacity="1.0" stroke="rgb(0, 0, 0)" stroke-linejoin="round" d=" M 592.253, 1051.706 584.495, 1058.016 576.737, 1064.325 568.979, 1070.635 561.220, 1076.944 553.462, 1083.253 545.704, 1089.563 537.945, 1095.872 530.472, 1101.950 527.997, 1092.261 525.522, 1082.573 524.345, 1077.967 521.870, 1068.278 519.395, 1058.589 516.920, 1048.900 514.445, 1039.212 512.065, 1029.896 " />
            <path fill="none" stroke-width="3.0" stroke-linecap="round" stroke-opacity="1.0" stroke="rgb(0, 0, 0)" stroke-linejoin="round" d=" M 482.451, 1128.829 481.295, 1118.896 480.139, 1108.963 479.453, 1103.074 478.297, 1093.141 477.141, 1083.208 475.985, 1073.275 474.828, 1063.342 473.672, 1053.409 472.516, 1043.476 471.360, 1033.543 470.203, 1023.610 469.047, 1013.677 468.437, 1008.437 " />
            <path fill="none" stroke-width="3.0" stroke-linecap="round" stroke-opacity="1.0" stroke="rgb(0, 0, 0)" stroke-linejoin="round" d=" M 361.013, 971.268 352.920, 977.142 344.827, 983.016 341.879, 985.156 341.154, 995.129 340.429, 1005.103 339.703, 1015.077 339.654, 1015.761 338.929, 1025.734 338.204, 1035.708 337.478, 1045.682 336.753, 1055.655 336.028, 1065.629 335.303, 1075.603 334.578, 1085.576 333.853, 1095.550 333.128, 1105.524 332.403, 1115.497 331.677, 1125.471 331.096, 1133.469 " />
            <path fill="none" stroke-width="3.0" stroke-linecap="round" stroke-opacity="1.0" stroke="rgb(0, 0, 0)" stroke-linejoin="round" d=" M 329.308, 1130.174 331.096, 1133.469 341.091, 1133.163 351.087, 1132.856 351.495, 1132.844 " />
            <path fill="none" stroke-width="3.0" stroke-linecap="round" stroke-opacity="1.0" stroke="rgb(0, 0, 0)" stroke-linejoin="round" d=" M 305.015, 562.208 315.004, 561.729 324.992, 561.249 334.492, 560.793 " />
            <path fill="none" stroke-width="3.0" stroke-linecap="round" stroke-opacity="1.0" stroke="rgb(0, 0, 0)" stroke-linejoin="round" d=" M 330.273, 657.352 327.708, 647.687 325.142, 638.022 322.576, 628.357 320.010, 618.692 317.444, 609.026 314.878, 599.361 312.313, 589.696 309.747, 580.031 307.181, 570.365 305.015, 562.208 " />
            <path fill="none" stroke-width="3.0" stroke-linecap="round" stroke-opacity="1.0" stroke="rgb(0, 0, 0)" stroke-linejoin="round" d=" M 379.973, 1689.177 381.919, 1679.368 383.865, 1669.559 385.812, 1659.751 387.758, 1649.942 389.704, 1640.133 390.076, 1638.259 " />
            <path fill="none" stroke-width="3.0" stroke-linecap="round" stroke-opacity="1.0" stroke="rgb(0, 0, 0)" stroke-linejoin="round" d=" M 463.144, 1654.793 453.391, 1652.586 443.638, 1650.379 433.884, 1648.172 424.131, 1645.965 414.377, 1643.758 404.624, 1641.551 394.870, 1639.344 390.076, 1638.259 381.438, 1633.220 372.800, 1628.181 364.163, 1623.143 355.525, 1618.104 346.887, 1613.065 338.250, 1608.026 329.612, 1602.987 320.974, 1597.948 312.337, 1592.909 303.699, 1587.870 295.061, 1582.831 286.424, 1577.792 280.760, 1574.488 " />
            <path fill="none" stroke-width="3.0" stroke-linecap="round" stroke-opacity="1.0" stroke="rgb(0, 0, 0)" stroke-linejoin="round" d=" M 295.418, 1067.732 300.189, 1076.521 302.919, 1081.553 " />
            <path fill="none" stroke-width="3.0" stroke-linecap="round" stroke-opacity="1.0" stroke="rgb(0, 0, 0)" stroke-linejoin="round" d=" M 372.074, 594.380 373.060, 584.429 374.047, 574.478 375.034, 564.526 376.021, 554.575 377.007, 544.624 377.294, 541.728 378.281, 531.777 379.268, 521.826 379.922, 515.233 380.720, 507.185 " />
            <path fill="none" stroke-width="3.0" stroke-linecap="round" stroke-opacity="1.0" stroke="rgb(0, 0, 0)" stroke-linejoin="round" d=" M 385.000, 508.277 380.720, 507.185 379.076, 505.005 " />
            <path fill="none" stroke-width="3.0" stroke-linecap="round" stroke-opacity="1.0" stroke="rgb(0, 0, 0)" stroke-linejoin="round" d=" M 340.465, 553.160 342.656, 556.017 344.455, 558.363 350.540, 566.299 352.310, 568.607 358.395, 576.543 364.480, 584.478 370.566, 592.413 372.074, 594.380 381.669, 597.197 391.264, 600.014 395.073, 601.133 398.605, 602.170 408.200, 604.987 417.132, 607.610 426.727, 610.427 436.322, 613.244 445.917, 616.061 447.028, 616.388 " />
            <path fill="none" stroke-width="3.0" stroke-linecap="round" stroke-opacity="1.0" stroke="rgb(0, 0, 0)" stroke-linejoin="round" d=" M 463.933, 1637.441 473.841, 1638.800 483.748, 1640.159 493.655, 1641.518 503.562, 1642.877 513.470, 1644.236 523.377, 1645.595 533.284, 1646.954 536.050, 1647.333 534.474, 1637.458 532.898, 1627.583 531.322, 1617.708 529.746, 1607.833 529.519, 1606.409 " />
            <path fill="none" stroke-width="3.0" stroke-linecap="round" stroke-opacity="1.0" stroke="rgb(0, 0, 0)" stroke-linejoin="round" d=" M 529.395, 1607.692 531.051, 1617.554 532.706, 1627.416 534.362, 1637.278 536.050, 1647.333 " />
            <path fill="none" stroke-width="3.0" stroke-linecap="round" stroke-opacity="1.0" stroke="rgb(0, 0, 0)" stroke-linejoin="round" d=" M 330.521, 1523.172 323.559, 1530.351 321.459, 1532.517 314.498, 1539.696 307.536, 1546.875 300.575, 1554.054 293.613, 1561.233 286.652, 1568.412 280.760, 1574.488 290.464, 1572.074 300.169, 1569.661 309.873, 1567.247 319.577, 1564.833 329.282, 1562.420 338.986, 1560.006 348.690, 1557.592 350.820, 1557.062 360.524, 1554.649 362.165, 1554.241 " />
            <path fill="none" stroke-width="3.0" stroke-linecap="round" stroke-opacity="1.0" stroke="rgb(0, 0, 0)" stroke-linejoin="round" d=" M 308.147, 1481.350 317.255, 1485.479 326.363, 1489.607 335.471, 1493.736 344.579, 1497.864 353.687, 1501.993 354.817, 1502.505 " />
            <path fill="none" stroke-width="3.0" stroke-linecap="round" stroke-opacity="1.0" stroke="rgb(0, 0, 0)" stroke-linejoin="round" d=" M 459.184, 1145.801 449.255, 1144.606 439.327, 1143.412 429.399, 1142.217 420.948, 1141.200 411.020, 1140.006 401.092, 1138.811 391.163, 1137.617 381.235, 1136.422 371.306, 1135.227 361.378, 1134.033 351.495, 1132.844 " />
            <path fill="none" stroke-width="3.0" stroke-linecap="round" stroke-opacity="1.0" stroke="rgb(0, 0, 0)" stroke-linejoin="round" d=" M 355.132, 1374.729 350.133, 1366.067 345.135, 1357.406 340.136, 1348.745 335.137, 1340.084 332.736, 1335.923 " />
            <path fill="none" stroke-width="3.0" stroke-linecap="round" stroke-opacity="1.0" stroke="rgb(0, 0, 0)" stroke-linejoin="round" d=" M 342.705, 1417.226 345.741, 1426.755 348.776, 1436.283 351.811, 1445.811 354.846, 1455.339 357.881, 1464.868 359.168, 1468.907 362.203, 1478.436 364.619, 1486.023 374.610, 1486.457 384.601, 1486.891 394.591, 1487.324 404.582, 1487.758 414.572, 1488.192 424.563, 1488.626 434.554, 1489.060 439.912, 1489.292 444.271, 1489.482 454.262, 1489.915 464.253, 1490.349 470.610, 1490.625 " />
            <path fill="none" stroke-width="3.0" stroke-linecap="round" stroke-opacity="1.0" stroke="rgb(0, 0, 0)" stroke-linejoin="round" d=" M 350.351, 1471.058 340.636, 1473.427 330.920, 1475.796 321.205, 1478.166 311.490, 1480.535 308.147, 1481.350 306.906, 1491.273 305.665, 1501.196 305.089, 1505.803 " />
            <path fill="none" stroke-width="3.0" stroke-linecap="round" stroke-opacity="1.0" stroke="rgb(0, 0, 0)" stroke-linejoin="round" d=" M 450.418, 381.433 442.375, 387.375 441.065, 388.343 " />
            <path fill="none" stroke-width="3.0" stroke-linecap="round" stroke-opacity="1.0" stroke="rgb(0, 0, 0)" stroke-linejoin="round" d=" M 380.720, 507.185 383.547, 505.120 383.954, 504.822 " />
            <path fill="none" stroke-width="3.0" stroke-linecap="round" stroke-opacity="1.0" stroke="rgb(0, 0, 0)" stroke-linejoin="round" d=" M 545.841, 1437.199 536.059, 1435.126 526.276, 1433.053 516.493, 1430.980 506.710, 1428.907 496.928, 1426.834 487.145, 1424.761 477.362, 1422.688 467.579, 1420.615 461.409, 1419.307 " />
            <path fill="none" stroke-width="3.0" stroke-linecap="round" stroke-opacity="1.0" stroke="rgb(0, 0, 0)" stroke-linejoin="round" d=" M 454.981, 1369.482 444.995, 1370.007 442.856, 1370.119 442.581, 1370.134 441.456, 1370.193 431.470, 1370.718 421.484, 1371.242 411.498, 1371.767 401.511, 1372.292 391.525, 1372.816 381.539, 1373.341 371.553, 1373.866 361.567, 1374.390 355.132, 1374.729 352.081, 1365.205 349.031, 1355.682 345.981, 1346.158 342.931, 1336.635 339.881, 1327.111 336.830, 1317.588 333.780, 1308.064 330.730, 1298.541 327.680, 1289.017 324.630, 1279.494 321.579, 1269.971 319.427, 1263.249 " />
            <path fill="none" stroke-width="3.0" stroke-linecap="round" stroke-opacity="1.0" stroke="rgb(0, 0, 0)" stroke-linejoin="round" d=" M 551.731, 998.308 550.612, 999.199 544.602, 1003.985 536.779, 1010.215 528.957, 1016.444 521.134, 1022.674 513.312, 1028.904 512.065, 1029.896 506.343, 1021.696 500.620, 1013.495 498.489, 1010.441 " />
            <path fill="none" stroke-width="3.0" stroke-linecap="round" stroke-opacity="1.0" stroke="rgb(0, 0, 0)" stroke-linejoin="round" d=" M 458.657, 527.071 459.414, 537.042 460.171, 547.013 460.928, 556.984 461.686, 566.956 462.443, 576.927 463.200, 586.898 463.957, 596.870 464.552, 604.710 465.309, 614.681 465.339, 615.069 456.390, 615.713 447.028, 616.388 " />
            <path fill="none" stroke-width="3.0" stroke-linecap="round" stroke-opacity="1.0" stroke="rgb(0, 0, 0)" stroke-linejoin="round" d=" M 356.851, 630.212 356.925, 630.037 360.835, 620.833 364.745, 611.630 368.655, 602.426 372.074, 594.380 " />
            <path fill="none" stroke-width="3.0" stroke-linecap="round" stroke-opacity="1.0" stroke="rgb(0, 0, 0)" stroke-linejoin="round" d=" M 372.074, 594.380 362.271, 596.359 352.469, 598.339 349.747, 598.888 348.665, 599.107 346.034, 599.638 344.818, 599.883 335.016, 601.863 331.381, 602.597 " />
            <path fill="none" stroke-width="3.0" stroke-linecap="round" stroke-opacity="1.0" stroke="rgb(0, 0, 0)" stroke-linejoin="round" d=" M 372.074, 594.380 380.307, 600.055 388.541, 605.730 396.774, 611.406 401.470, 614.642 409.234, 619.994 413.245, 622.758 421.478, 628.433 429.333, 633.847 432.604, 636.102 433.963, 634.243 439.868, 626.173 445.773, 618.103 447.028, 616.388 448.319, 606.471 449.610, 596.555 450.901, 586.639 452.192, 576.722 453.483, 566.806 454.775, 556.890 456.066, 546.974 457.357, 537.057 458.657, 527.071 466.850, 521.336 475.042, 515.602 483.235, 509.868 491.427, 504.133 499.620, 498.399 500.176, 498.010 508.368, 492.276 516.561, 486.541 524.753, 480.807 532.946, 475.073 533.813, 474.465 542.006, 468.731 550.198, 462.996 558.391, 457.262 566.584, 451.528 567.488, 450.895 " />
            <path fill="none" stroke-width="3.0" stroke-linecap="round" stroke-opacity="1.0" stroke="rgb(0, 0, 0)" stroke-linejoin="round" d=" M 399.257, 642.870 394.367, 634.147 389.477, 625.424 384.587, 616.702 379.697, 607.979 374.807, 599.256 372.074, 594.380 362.995, 590.186 353.917, 585.993 350.954, 584.624 344.152, 581.482 343.889, 581.360 334.811, 577.167 327.874, 573.962 333.052, 565.407 338.230, 556.852 340.465, 553.160 340.537, 551.577 340.679, 548.479 341.138, 538.489 341.596, 528.500 342.054, 518.510 342.512, 508.521 342.716, 504.071 " />
            <path fill="none" stroke-width="3.0" stroke-linecap="round" stroke-opacity="1.0" stroke="rgb(0, 0, 0)" stroke-linejoin="round" d=" M 352.908, 625.936 357.227, 632.540 358.542, 634.550 358.103, 635.959 356.397, 641.431 " />
            <path fill="none" stroke-width="3.0" stroke-linecap="round" stroke-opacity="1.0" stroke="rgb(0, 0, 0)" stroke-linejoin="round" d=" M 428.613, 666.339 418.826, 664.286 409.039, 662.232 403.095, 660.985 " />
            <path fill="none" stroke-width="3.0" stroke-linecap="round" stroke-opacity="1.0" stroke="rgb(0, 0, 0)" stroke-linejoin="round" d=" M 395.654, 505.431 396.935, 505.464 401.791, 505.589 411.788, 505.845 414.868, 505.924 424.865, 506.181 434.861, 506.438 439.466, 506.556 439.466, 496.556 439.466, 486.556 439.466, 482.070 439.466, 481.043 439.466, 477.819 439.466, 467.819 439.466, 465.217 439.466, 464.277 439.466, 454.277 439.466, 444.277 439.466, 434.277 439.466, 425.572 439.466, 424.649 439.906, 414.659 440.346, 404.668 440.786, 394.678 441.065, 388.343 441.164, 386.099 441.604, 376.108 442.044, 366.118 442.484, 356.128 442.924, 346.137 443.212, 339.579 433.216, 339.322 423.219, 339.065 413.222, 338.809 403.226, 338.552 393.229, 338.295 387.795, 338.155 377.798, 337.899 374.515, 337.814 364.519, 337.557 354.522, 337.301 344.525, 337.044 334.529, 336.787 332.377, 336.732 331.937, 346.722 331.497, 356.713 331.057, 366.703 330.617, 376.693 330.177, 386.683 329.737, 396.674 329.297, 406.664 328.857, 416.654 328.631, 421.802 328.631, 431.802 328.630, 441.802 328.630, 451.802 328.630, 461.802 328.630, 471.802 328.630, 481.802 328.630, 491.802 328.630, 501.802 328.630, 503.709 338.627, 503.966 342.716, 504.071 344.104, 504.107 354.100, 504.364 355.634, 504.403 365.631, 504.660 375.627, 504.917 377.106, 504.954 378.191, 504.982 " />
            <path fill="none" stroke-width="3.0" stroke-linecap="round" stroke-opacity="1.0" stroke="rgb(0, 0, 0)" stroke-linejoin="round" d=" M 328.631, 421.802 338.627, 422.059 348.624, 422.316 358.621, 422.573 368.617, 422.829 372.443, 422.928 375.117, 422.996 " />
            <path fill="none" stroke-width="3.0" stroke-linecap="round" stroke-opacity="1.0" stroke="rgb(0, 0, 0)" stroke-linejoin="round" d=" M 385.000, 508.277 386.042, 511.719 388.498, 519.833 391.395, 529.405 392.438, 532.852 395.335, 542.423 395.654, 543.477 395.654, 533.477 395.654, 528.992 395.654, 518.992 395.654, 512.165 395.654, 510.995 395.654, 506.199 395.654, 505.431 395.654, 496.277 395.654, 486.277 395.654, 476.277 395.654, 466.277 395.654, 462.515 395.654, 461.570 396.094, 451.579 396.306, 446.772 396.746, 436.781 397.186, 426.791 397.328, 423.567 397.460, 420.558 397.900, 410.568 398.020, 407.849 398.460, 397.859 398.900, 387.869 399.340, 377.879 399.401, 376.499 396.504, 366.928 393.607, 357.357 390.710, 347.786 387.795, 338.155 384.898, 328.584 382.001, 319.013 379.104, 309.442 376.189, 299.812 375.749, 309.802 375.309, 319.792 374.869, 329.783 374.515, 337.814 " />
            <path fill="none" stroke-width="3.0" stroke-linecap="round" stroke-opacity="1.0" stroke="rgb(0, 0, 0)" stroke-linejoin="round" d=" M 195.170, 794.115 198.778, 787.807 " />
            <path fill="none" stroke-width="3.0" stroke-linecap="round" stroke-opacity="1.0" stroke="rgb(0, 0, 0)" stroke-linejoin="round" d=" M 312.086, 946.119 310.728, 956.026 309.370, 965.934 308.013, 975.841 306.655, 985.748 305.297, 995.656 303.939, 1005.563 302.581, 1015.470 301.223, 1025.378 299.865, 1035.285 299.034, 1041.350 297.676, 1051.258 297.404, 1053.247 296.903, 1056.900 296.314, 1061.196 295.418, 1067.732 " />
            <path fill="none" stroke-width="3.0" stroke-linecap="round" stroke-opacity="1.0" stroke="rgb(0, 0, 0)" stroke-linejoin="round" d=" M 302.919, 1081.553 306.006, 1091.065 309.092, 1100.577 312.178, 1110.089 315.265, 1119.601 318.264, 1128.846 328.193, 1130.040 329.308, 1130.174 " />
            <path fill="none" stroke-width="3.0" stroke-linecap="round" stroke-opacity="1.0" stroke="rgb(0, 0, 0)" stroke-linejoin="round" d=" M 327.155, 953.864 331.412, 962.912 335.670, 971.961 339.166, 979.390 341.879, 985.156 " />
            <path fill="none" stroke-width="3.0" stroke-linecap="round" stroke-opacity="1.0" stroke="rgb(0, 0, 0)" stroke-linejoin="round" d=" M 356.038, 1511.100 354.357, 1520.958 352.677, 1530.816 351.726, 1536.391 " />
            <path fill="none" stroke-width="3.0" stroke-linecap="round" stroke-opacity="1.0" stroke="rgb(0, 0, 0)" stroke-linejoin="round" d=" M 364.222, 632.412 362.132, 639.195 " />
            <path fill="none" stroke-width="3.0" stroke-linecap="round" stroke-opacity="1.0" stroke="rgb(0, 0, 0)" stroke-linejoin="round" d=" M 366.985, 633.237 365.130, 639.959 " />
            <path fill="none" stroke-width="3.0" stroke-linecap="round" stroke-opacity="1.0" stroke="rgb(0, 0, 0)" stroke-linejoin="round" d=" M 378.614, 658.072 377.957, 648.094 377.300, 638.115 377.215, 636.818 " />
            <path fill="none" stroke-width="3.0" stroke-linecap="round" stroke-opacity="1.0" stroke="rgb(0, 0, 0)" stroke-linejoin="round" d=" M 381.860, 415.996 384.757, 425.568 387.654, 435.139 390.551, 444.710 391.839, 448.966 394.736, 458.537 395.654, 461.570 " />
            <path fill="none" stroke-width="3.0" stroke-linecap="round" stroke-opacity="1.0" stroke="rgb(0, 0, 0)" stroke-linejoin="round" d=" M 358.978, 645.013 349.791, 648.962 340.604, 652.911 331.417, 656.861 330.273, 657.352 340.272, 657.496 350.271, 657.640 360.270, 657.784 368.266, 657.898 " />
            <path fill="none" stroke-width="3.0" stroke-linecap="round" stroke-opacity="1.0" stroke="rgb(0, 0, 0)" stroke-linejoin="round" d=" M 411.710, 671.711 414.292, 676.852 " />
            <path fill="none" stroke-width="3.0" stroke-linecap="round" stroke-opacity="1.0" stroke="rgb(0, 0, 0)" stroke-linejoin="round" d=" M 396.865, 642.156 401.353, 651.092 405.754, 659.852 " />
            <path fill="none" stroke-width="3.0" stroke-linecap="round" stroke-opacity="1.0" stroke="rgb(0, 0, 0)" stroke-linejoin="round" d=" M 397.328, 423.567 407.324, 423.824 417.321, 424.080 427.318, 424.337 437.314, 424.594 439.466, 424.649 " />
            <path fill="none" stroke-width="3.0" stroke-linecap="round" stroke-opacity="1.0" stroke="rgb(0, 0, 0)" stroke-linejoin="round" d=" M 431.027, 649.088 436.190, 640.523 439.680, 634.733 442.806, 629.546 " />
            <path fill="none" stroke-width="3.0" stroke-linecap="round" stroke-opacity="1.0" stroke="rgb(0, 0, 0)" stroke-linejoin="round" d=" M 414.685, 1070.330 420.752, 1070.918 430.705, 1071.882 440.659, 1072.847 450.612, 1073.812 452.760, 1074.020 " />
            <path fill="none" stroke-width="3.0" stroke-linecap="round" stroke-opacity="1.0" stroke="rgb(0, 0, 0)" stroke-linejoin="round" d=" M 485.052, 604.398 480.989, 613.535 476.927, 622.673 472.864, 631.811 470.396, 637.362 " />
            <path fill="none" stroke-width="3.0" stroke-linecap="round" stroke-opacity="1.0" stroke="rgb(0, 0, 0)" stroke-linejoin="round" d=" M 439.466, 464.277 447.542, 458.379 455.617, 452.481 463.692, 446.583 471.768, 440.685 479.843, 434.787 482.942, 432.524 491.017, 426.626 499.092, 420.728 507.168, 414.829 515.243, 408.931 523.319, 403.033 524.576, 402.115 " />
            <path fill="none" stroke-width="3.0" stroke-linecap="round" stroke-opacity="1.0" stroke="rgb(0, 0, 0)" stroke-linejoin="round" d=" M 466.241, 1586.701 475.730, 1589.855 485.220, 1593.009 494.709, 1596.164 504.199, 1599.318 513.689, 1602.472 523.178, 1605.626 529.395, 1607.692 " />
            <path fill="none" stroke-width="3.0" stroke-linecap="round" stroke-opacity="1.0" stroke="rgb(0, 0, 0)" stroke-linejoin="round" d=" M 480.556, 884.503 472.463, 890.377 464.370, 896.251 456.277, 902.125 448.184, 907.999 440.091, 913.873 431.998, 919.747 426.182, 923.968 " />
            <path fill="none" stroke-width="3.0" stroke-linecap="round" stroke-opacity="1.0" stroke="rgb(0, 0, 0)" stroke-linejoin="round" d=" M 459.579, 1298.568 469.490, 1299.898 479.401, 1301.229 489.312, 1302.559 499.223, 1303.890 509.134, 1305.220 519.045, 1306.550 528.957, 1307.881 538.868, 1309.211 539.978, 1309.360 " />
            <path fill="none" stroke-width="3.0" stroke-linecap="round" stroke-opacity="1.0" stroke="rgb(0, 0, 0)" stroke-linejoin="round" d=" M 487.972, 1167.144 497.657, 1169.632 507.343, 1172.120 517.028, 1174.609 526.714, 1177.097 536.399, 1179.585 546.085, 1182.073 550.064, 1183.096 " />
        </g>
    </g>
</svg>
