<?xml version='1.0' encoding='ascii'?>
<svg xmlns="http://www.w3.org/2000/svg" version="1.1" width="1001" height="2138">
    <g id="View Layer_LineSet" xmlns:inkscape="http://www.inkscape.org/namespaces/inkscape" inkscape:groupmode="lineset" inkscape:label="View Layer_LineSet">
        <g xmlns:inkscape="http://www.inkscape.org/namespaces/inkscape" inkscape:groupmode="layer" id="strokes" inkscape:label="strokes">
            <path fill="none" stroke-width="3.0" stroke-linecap="round" stroke-opacity="1.0" stroke="rgb(0, 0, 0)" stroke-linejoin="round" d=" M 359.997, 636.023 359.727, 628.391 " />
            <path fill="none" stroke-width="3.0" stroke-linecap="round" stroke-opacity="1.0" stroke="rgb(0, 0, 0)" stroke-linejoin="round" d=" M 358.745, 600.663 358.515, 599.517 " />
            <path fill="none" stroke-width="3.0" stroke-linecap="round" stroke-opacity="1.0" stroke="rgb(0, 0, 0)" stroke-linejoin="round" d=" M 558.109, 594.730 558.361, 593.463 560.308, 583.655 561.194, 579.192 562.373, 573.251 564.320, 563.442 566.268, 553.634 568.215, 543.825 570.162, 534.016 572.109, 524.208 574.056, 514.399 575.333, 507.970 574.671, 497.992 574.009, 488.014 573.347, 478.036 572.685, 468.058 572.023, 458.080 571.634, 452.216 562.367, 448.456 553.101, 444.697 543.834, 440.937 534.568, 437.177 525.302, 433.418 516.035, 429.658 506.769, 425.899 497.503, 422.139 487.531, 418.094 477.587, 417.036 467.643, 415.978 457.699, 414.920 447.755, 413.862 437.811, 412.804 427.867, 411.746 417.923, 410.688 409.940, 409.839 408.402, 411.082 " />
            <path fill="none" stroke-width="3.0" stroke-linecap="round" stroke-opacity="1.0" stroke="rgb(0, 0, 0)" stroke-linejoin="round" d=" M 529.395, 1607.692 529.519, 1606.409 530.479, 1596.455 531.439, 1586.502 532.400, 1576.548 533.360, 1566.594 534.320, 1556.640 535.280, 1546.686 536.240, 1536.733 537.200, 1526.779 538.161, 1516.825 539.121, 1506.871 540.081, 1496.917 541.041, 1486.964 542.001, 1477.010 542.961, 1467.056 543.922, 1457.102 544.882, 1447.148 545.841, 1437.199 545.383, 1427.210 544.925, 1417.220 544.467, 1407.231 544.009, 1397.241 543.551, 1387.252 543.092, 1377.262 542.634, 1367.273 542.176, 1357.283 541.718, 1347.294 541.260, 1337.304 540.802, 1327.315 540.343, 1317.325 539.978, 1309.360 540.774, 1299.392 541.571, 1289.424 542.367, 1279.456 543.163, 1269.487 543.959, 1259.519 544.755, 1249.551 545.552, 1239.583 546.348, 1229.614 547.144, 1219.646 547.940, 1209.678 548.737, 1199.710 549.533, 1189.741 550.064, 1183.096 551.349, 1173.179 552.634, 1163.262 553.919, 1153.344 555.205, 1143.427 556.490, 1133.510 557.775, 1123.593 559.060, 1113.676 559.362, 1111.345 " />
            <path fill="none" stroke-width="3.0" stroke-linecap="round" stroke-opacity="1.0" stroke="rgb(0, 0, 0)" stroke-linejoin="round" d=" M 295.114, 1071.899 295.436, 1081.894 295.758, 1091.889 296.080, 1101.883 296.402, 1111.878 296.724, 1121.873 297.046, 1131.868 297.368, 1141.863 297.690, 1151.857 297.803, 1155.359 299.768, 1165.164 301.733, 1174.969 303.698, 1184.774 305.663, 1194.579 307.629, 1204.384 309.594, 1214.189 311.559, 1223.994 313.524, 1233.799 315.489, 1243.604 317.454, 1253.409 319.427, 1263.249 321.228, 1273.085 323.029, 1282.922 324.831, 1292.758 326.632, 1302.595 328.434, 1312.431 330.235, 1322.267 332.036, 1332.104 332.736, 1335.923 333.953, 1345.849 335.170, 1355.775 336.387, 1365.700 337.604, 1375.626 338.821, 1385.552 340.039, 1395.477 341.256, 1405.403 342.473, 1415.329 342.705, 1417.226 344.112, 1427.127 345.518, 1437.028 346.924, 1446.928 348.330, 1456.829 349.736, 1466.729 350.351, 1471.058 351.757, 1480.958 353.163, 1490.859 354.252, 1498.526 354.817, 1502.505 356.038, 1511.100 357.444, 1521.001 358.850, 1530.902 360.256, 1540.802 360.398, 1541.797 361.234, 1547.687 362.165, 1554.241 " />
            <path fill="none" stroke-width="3.0" stroke-linecap="round" stroke-opacity="1.0" stroke="rgb(0, 0, 0)" stroke-linejoin="round" d=" M 265.349, 1619.890 268.563, 1610.421 271.777, 1600.951 274.992, 1591.482 278.206, 1582.013 280.760, 1574.488 " />
            <path fill="none" stroke-width="3.0" stroke-linecap="round" stroke-opacity="1.0" stroke="rgb(0, 0, 0)" stroke-linejoin="round" d=" M 280.760, 1574.488 271.300, 1571.245 261.841, 1568.002 252.381, 1564.759 248.098, 1563.291 " />
            <path fill="none" stroke-width="3.0" stroke-linecap="round" stroke-opacity="1.0" stroke="rgb(0, 0, 0)" stroke-linejoin="round" d=" M 360.398, 1541.797 351.912, 1536.507 351.726, 1536.391 343.240, 1531.101 334.754, 1525.811 330.521, 1523.172 322.263, 1517.532 315.613, 1512.990 307.355, 1507.350 305.089, 1505.803 296.832, 1500.162 289.410, 1495.094 284.229, 1503.647 279.048, 1512.200 273.867, 1520.753 268.685, 1529.306 263.504, 1537.859 258.323, 1546.412 253.142, 1554.965 248.098, 1563.291 243.814, 1572.327 239.529, 1581.363 235.245, 1590.398 232.123, 1596.984 240.356, 1602.660 248.589, 1608.336 256.822, 1614.012 265.349, 1619.890 273.907, 1625.063 282.465, 1630.236 291.023, 1635.409 299.581, 1640.582 308.139, 1645.755 316.697, 1650.928 325.255, 1656.101 333.813, 1661.275 342.371, 1666.448 350.929, 1671.621 359.487, 1676.794 368.045, 1681.967 376.603, 1687.140 379.973, 1689.177 389.919, 1690.214 399.865, 1691.251 409.811, 1692.287 419.758, 1693.324 429.704, 1694.361 439.650, 1695.398 449.596, 1696.435 459.542, 1697.471 464.397, 1697.977 464.107, 1687.982 463.817, 1677.986 463.527, 1667.990 463.237, 1657.994 463.144, 1654.793 463.599, 1644.803 463.933, 1637.441 464.200, 1631.573 464.655, 1621.583 465.109, 1611.594 465.563, 1601.604 466.017, 1591.614 466.241, 1586.701 466.695, 1576.712 467.149, 1566.722 467.604, 1556.732 468.058, 1546.743 468.509, 1536.829 468.963, 1526.839 469.416, 1516.878 469.793, 1508.595 470.247, 1498.606 470.610, 1490.625 469.330, 1480.708 468.051, 1470.790 466.771, 1460.872 465.492, 1450.954 464.212, 1441.036 462.933, 1431.118 461.653, 1421.201 461.409, 1419.307 460.130, 1409.390 458.850, 1399.472 457.571, 1389.554 456.291, 1379.636 454.981, 1369.482 455.628, 1359.503 456.275, 1349.524 456.306, 1349.048 456.953, 1339.069 457.600, 1329.090 458.247, 1319.111 458.894, 1309.132 459.541, 1299.153 459.579, 1298.568 460.226, 1288.589 460.873, 1278.610 461.520, 1268.631 462.167, 1258.652 462.285, 1256.830 462.932, 1246.851 463.078, 1244.604 461.807, 1234.685 460.537, 1224.766 459.266, 1214.847 457.996, 1204.928 456.726, 1195.009 456.507, 1193.305 455.423, 1184.841 464.209, 1180.064 472.994, 1175.288 481.779, 1170.511 487.972, 1167.144 496.757, 1162.367 505.542, 1157.590 513.404, 1153.316 520.788, 1146.572 528.172, 1139.829 535.556, 1133.085 542.294, 1126.933 546.468, 1123.121 553.852, 1116.377 559.362, 1111.345 564.192, 1102.589 569.021, 1093.832 573.850, 1085.075 578.680, 1076.319 583.509, 1067.562 588.338, 1058.806 592.253, 1051.706 587.821, 1042.742 584.793, 1036.619 582.194, 1031.362 577.761, 1022.398 573.329, 1013.434 568.896, 1004.470 564.464, 995.506 563.522, 993.600 " />
            <path fill="none" stroke-width="3.0" stroke-linecap="round" stroke-opacity="1.0" stroke="rgb(0, 0, 0)" stroke-linejoin="round" d=" M 358.745, 600.663 366.814, 602.718 " />
            <path fill="none" stroke-width="3.0" stroke-linecap="round" stroke-opacity="1.0" stroke="rgb(0, 0, 0)" stroke-linejoin="round" d=" M 533.743, 653.288 537.549, 644.041 541.355, 634.794 545.162, 625.547 548.968, 616.299 549.124, 615.920 " />
            <path fill="none" stroke-width="3.0" stroke-linecap="round" stroke-opacity="1.0" stroke="rgb(0, 0, 0)" stroke-linejoin="round" d=" M 549.124, 615.920 544.282, 608.962 " />
            <path fill="none" stroke-width="3.0" stroke-linecap="round" stroke-opacity="1.0" stroke="rgb(0, 0, 0)" stroke-linejoin="round" d=" M 358.745, 600.663 358.689, 599.562 " />
            <path fill="none" stroke-width="3.0" stroke-linecap="round" stroke-opacity="1.0" stroke="rgb(0, 0, 0)" stroke-linejoin="round" d=" M 351.782, 611.411 351.969, 613.365 352.919, 623.320 353.203, 626.288 " />
            <path fill="none" stroke-width="3.0" stroke-linecap="round" stroke-opacity="1.0" stroke="rgb(0, 0, 0)" stroke-linejoin="round" d=" M 367.424, 601.857 366.814, 602.718 366.488, 603.178 359.979, 610.769 359.137, 611.750 357.797, 613.313 357.329, 613.859 356.807, 614.467 353.040, 612.176 352.934, 612.112 351.782, 611.411 352.518, 601.438 352.771, 598.008 " />
            <path fill="none" stroke-width="3.0" stroke-linecap="round" stroke-opacity="1.0" stroke="rgb(0, 0, 0)" stroke-linejoin="round" d=" M 157.951, 562.461 156.461, 561.404 155.297, 560.579 147.140, 554.796 143.913, 552.509 135.304, 557.596 126.695, 562.684 118.086, 567.771 109.477, 572.859 100.868, 577.946 92.259, 583.034 86.983, 586.151 85.068, 595.966 83.152, 605.781 81.237, 615.596 79.321, 625.411 77.406, 635.225 75.490, 645.040 73.575, 654.855 71.659, 664.670 70.701, 669.579 75.700, 678.240 80.698, 686.901 85.697, 695.562 88.724, 700.807 90.991, 710.547 93.258, 720.286 95.525, 730.026 97.792, 739.766 100.059, 749.505 102.325, 759.245 104.592, 768.985 106.859, 778.724 109.126, 788.464 111.393, 798.204 113.660, 807.943 115.927, 817.683 118.194, 827.423 120.461, 837.162 122.728, 846.902 124.995, 856.641 127.262, 866.381 129.529, 876.121 131.796, 885.860 134.063, 895.600 135.670, 902.502 143.985, 908.057 152.301, 913.612 160.616, 919.167 168.931, 924.722 177.247, 930.276 185.562, 935.831 193.877, 941.386 202.192, 946.941 210.508, 952.495 218.823, 958.050 224.073, 961.557 233.560, 958.395 243.047, 955.233 252.534, 952.071 262.021, 948.909 271.508, 945.748 280.995, 942.586 290.481, 939.424 299.968, 936.262 307.847, 933.636 314.629, 931.376 324.116, 928.214 333.602, 925.052 343.089, 921.890 350.068, 919.564 353.937, 918.275 363.424, 915.113 372.911, 911.951 382.398, 908.789 391.885, 905.627 401.372, 902.465 410.859, 899.303 420.346, 896.142 421.320, 895.817 430.807, 892.655 433.596, 891.726 443.352, 889.532 453.108, 887.338 462.865, 885.144 472.621, 882.950 482.377, 880.756 492.134, 878.562 500.007, 876.791 " />
            <path fill="none" stroke-width="3.0" stroke-linecap="round" stroke-opacity="1.0" stroke="rgb(0, 0, 0)" stroke-linejoin="round" d=" M 168.002, 908.866 158.191, 906.935 148.379, 905.004 138.567, 903.073 135.670, 902.502 140.617, 893.812 145.564, 885.121 150.511, 876.431 155.458, 867.740 160.405, 859.049 165.352, 850.359 170.299, 841.668 175.547, 832.450 " />
            <path fill="none" stroke-width="3.0" stroke-linecap="round" stroke-opacity="1.0" stroke="rgb(0, 0, 0)" stroke-linejoin="round" d=" M 175.547, 832.450 170.041, 824.102 164.535, 815.754 159.029, 807.406 153.524, 799.059 148.018, 790.711 142.512, 782.363 137.007, 774.015 131.501, 765.667 125.995, 757.319 120.490, 748.971 114.984, 740.623 109.478, 732.276 103.972, 723.928 98.467, 715.580 92.961, 707.232 88.724, 700.807 " />
            <path fill="none" stroke-width="3.0" stroke-linecap="round" stroke-opacity="1.0" stroke="rgb(0, 0, 0)" stroke-linejoin="round" d=" M 175.547, 832.450 171.195, 823.447 166.844, 814.443 162.493, 805.439 158.141, 796.436 153.790, 787.432 149.438, 778.428 145.087, 769.425 140.736, 760.421 136.384, 751.417 132.033, 742.414 127.682, 733.410 123.330, 724.406 118.979, 715.403 114.628, 706.399 110.276, 697.396 105.925, 688.392 101.573, 679.388 98.985, 674.031 " />
            <path fill="none" stroke-width="3.0" stroke-linecap="round" stroke-opacity="1.0" stroke="rgb(0, 0, 0)" stroke-linejoin="round" d=" M 98.985, 674.031 95.406, 683.369 91.828, 692.707 88.724, 700.807 " />
            <path fill="none" stroke-width="3.0" stroke-linecap="round" stroke-opacity="1.0" stroke="rgb(0, 0, 0)" stroke-linejoin="round" d=" M 419.468, 648.597 423.274, 647.961 426.205, 647.471 428.929, 647.016 438.792, 645.367 448.655, 643.719 458.519, 642.070 468.382, 640.422 478.245, 638.773 488.108, 637.124 495.604, 635.871 " />
            <path fill="none" stroke-width="3.0" stroke-linecap="round" stroke-opacity="1.0" stroke="rgb(0, 0, 0)" stroke-linejoin="round" d=" M 359.112, 628.897 359.997, 636.023 369.781, 638.092 379.565, 640.160 389.348, 642.229 399.132, 644.298 408.916, 646.366 413.962, 647.433 419.468, 648.597 421.490, 652.887 422.505, 655.042 423.562, 657.283 427.825, 666.329 432.088, 675.374 436.351, 684.420 436.533, 684.807 " />
            <path fill="none" stroke-width="3.0" stroke-linecap="round" stroke-opacity="1.0" stroke="rgb(0, 0, 0)" stroke-linejoin="round" d=" M 585.396, 1036.010 582.098, 1026.570 578.800, 1017.129 575.503, 1007.689 572.205, 998.248 568.908, 988.807 565.610, 979.367 562.312, 969.926 559.015, 960.485 555.717, 951.045 552.419, 941.604 549.122, 932.163 545.824, 922.723 542.526, 913.282 541.293, 909.751 543.408, 899.977 545.523, 890.204 547.638, 880.430 549.754, 870.656 551.869, 860.882 553.984, 851.109 556.099, 841.335 558.214, 831.561 560.330, 821.787 562.445, 812.014 564.560, 802.240 566.675, 792.466 567.857, 787.007 568.114, 777.010 568.371, 767.013 568.628, 757.016 568.885, 747.020 569.142, 737.023 569.399, 727.026 569.656, 717.030 569.914, 707.033 570.171, 697.036 570.273, 693.045 569.892, 683.052 569.510, 673.060 569.129, 663.067 568.747, 653.074 568.365, 643.081 567.984, 633.089 567.602, 623.096 567.221, 613.103 566.839, 603.111 566.457, 593.118 566.076, 583.125 565.782, 575.421 562.373, 573.251 " />
            <path fill="none" stroke-width="3.0" stroke-linecap="round" stroke-opacity="1.0" stroke="rgb(0, 0, 0)" stroke-linejoin="round" d=" M 436.533, 684.807 446.396, 686.462 456.258, 688.116 466.120, 689.770 475.982, 691.424 485.845, 693.078 495.707, 694.733 505.569, 696.387 515.431, 698.041 517.943, 698.462 " />
            <path fill="none" stroke-width="3.0" stroke-linecap="round" stroke-opacity="1.0" stroke="rgb(0, 0, 0)" stroke-linejoin="round" d=" M 487.144, 784.576 490.511, 775.160 493.879, 765.744 497.247, 756.328 500.614, 746.912 503.982, 737.497 507.350, 728.081 510.717, 718.665 514.085, 709.249 517.453, 699.833 517.943, 698.462 514.868, 688.947 511.794, 679.431 508.719, 669.915 505.645, 660.400 502.570, 650.884 499.496, 641.369 497.851, 636.278 " />
            <path fill="none" stroke-width="3.0" stroke-linecap="round" stroke-opacity="1.0" stroke="rgb(0, 0, 0)" stroke-linejoin="round" d=" M 413.962, 647.433 406.425, 654.005 398.887, 660.577 391.350, 667.149 383.813, 673.721 376.276, 680.293 369.128, 686.525 363.470, 694.771 357.813, 703.017 352.155, 711.263 346.498, 719.508 340.850, 727.739 338.313, 737.412 335.776, 747.085 333.239, 756.758 330.702, 766.430 328.165, 776.103 325.627, 785.776 323.090, 795.449 320.451, 805.510 " />
            <path fill="none" stroke-width="3.0" stroke-linecap="round" stroke-opacity="1.0" stroke="rgb(0, 0, 0)" stroke-linejoin="round" d=" M 340.850, 727.739 348.180, 720.936 355.509, 714.133 362.838, 707.330 370.167, 700.526 377.496, 693.723 384.825, 686.920 392.155, 680.117 399.484, 673.314 406.813, 666.511 414.142, 659.707 421.490, 652.887 " />
            <path fill="none" stroke-width="3.0" stroke-linecap="round" stroke-opacity="1.0" stroke="rgb(0, 0, 0)" stroke-linejoin="round" d=" M 168.002, 908.866 168.143, 907.441 169.126, 897.490 169.826, 890.394 170.809, 880.442 171.791, 870.490 171.878, 869.605 172.861, 859.654 173.843, 849.702 174.826, 839.751 175.547, 832.450 173.292, 822.708 171.037, 812.965 168.782, 803.223 166.527, 793.480 164.272, 783.738 162.017, 773.995 159.762, 764.253 157.507, 754.511 155.252, 744.768 152.997, 735.026 150.742, 725.283 148.487, 715.541 146.232, 705.798 143.978, 696.056 141.723, 686.313 140.633, 681.608 138.378, 671.865 138.332, 671.665 143.748, 663.258 149.163, 654.851 151.997, 650.453 " />
            <path fill="none" stroke-width="3.0" stroke-linecap="round" stroke-opacity="1.0" stroke="rgb(0, 0, 0)" stroke-linejoin="round" d=" M 138.332, 671.665 128.350, 672.265 118.368, 672.865 108.386, 673.466 107.223, 673.536 98.985, 674.031 " />
            <path fill="none" stroke-width="3.0" stroke-linecap="round" stroke-opacity="1.0" stroke="rgb(0, 0, 0)" stroke-linejoin="round" d=" M 288.325, 545.530 285.600, 535.909 282.874, 526.288 282.351, 524.440 " />
            <path fill="none" stroke-width="3.0" stroke-linecap="round" stroke-opacity="1.0" stroke="rgb(0, 0, 0)" stroke-linejoin="round" d=" M 332.894, 535.781 322.916, 535.124 312.937, 534.466 312.414, 534.432 302.924, 531.278 293.435, 528.124 283.945, 524.970 282.351, 524.440 273.100, 528.239 263.850, 532.038 254.599, 535.837 245.349, 539.635 236.099, 543.434 226.848, 547.233 217.598, 551.032 214.195, 552.429 " />
            <path fill="none" stroke-width="3.0" stroke-linecap="round" stroke-opacity="1.0" stroke="rgb(0, 0, 0)" stroke-linejoin="round" d=" M 288.325, 545.530 278.368, 546.457 268.411, 547.384 260.610, 548.110 250.653, 549.036 240.696, 549.963 230.739, 550.890 220.782, 551.816 214.195, 552.429 204.238, 553.356 194.281, 554.282 184.324, 555.209 174.367, 556.136 164.410, 557.062 159.033, 557.563 155.297, 560.579 " />
            <path fill="none" stroke-width="3.0" stroke-linecap="round" stroke-opacity="1.0" stroke="rgb(0, 0, 0)" stroke-linejoin="round" d=" M 278.839, 580.578 287.039, 586.302 295.239, 592.026 303.439, 597.749 309.739, 602.147 " />
            <path fill="none" stroke-width="3.0" stroke-linecap="round" stroke-opacity="1.0" stroke="rgb(0, 0, 0)" stroke-linejoin="round" d=" M 180.618, 581.166 190.617, 581.018 200.616, 580.870 210.615, 580.723 220.614, 580.575 230.931, 580.422 240.571, 583.080 250.212, 585.737 259.852, 588.395 269.493, 591.052 279.133, 593.710 288.773, 596.368 298.414, 599.025 308.054, 601.683 309.739, 602.147 319.404, 604.715 329.069, 607.282 338.734, 609.849 348.398, 612.417 351.969, 613.365 " />
            <path fill="none" stroke-width="3.0" stroke-linecap="round" stroke-opacity="1.0" stroke="rgb(0, 0, 0)" stroke-linejoin="round" d=" M 353.203, 626.288 357.020, 630.620 359.112, 628.897 359.292, 628.749 359.727, 628.391 367.447, 622.035 371.633, 618.589 372.599, 617.793 380.319, 611.437 383.913, 608.478 384.695, 607.623 " />
            <path fill="none" stroke-width="3.0" stroke-linecap="round" stroke-opacity="1.0" stroke="rgb(0, 0, 0)" stroke-linejoin="round" d=" M 366.488, 603.178 376.056, 606.088 383.913, 608.478 374.149, 610.635 364.384, 612.793 357.374, 614.342 356.807, 614.467 356.810, 614.651 356.941, 624.650 357.020, 630.620 " />
            <path fill="none" stroke-width="3.0" stroke-linecap="round" stroke-opacity="1.0" stroke="rgb(0, 0, 0)" stroke-linejoin="round" d=" M 340.073, 594.204 330.312, 592.032 320.551, 589.860 310.789, 587.688 301.028, 585.516 291.267, 583.344 281.506, 581.172 278.839, 580.578 268.865, 579.861 258.890, 579.143 248.916, 578.426 238.942, 577.708 228.968, 576.991 218.994, 576.273 209.019, 575.556 199.045, 574.839 189.071, 574.121 179.097, 573.404 176.928, 573.248 174.469, 573.071 184.189, 570.720 193.909, 568.369 203.628, 566.017 213.348, 563.666 223.068, 561.315 232.788, 558.964 242.507, 556.613 252.227, 554.262 261.947, 551.911 271.666, 549.560 281.386, 547.209 288.325, 545.530 297.408, 541.346 306.490, 537.161 312.414, 534.432 306.531, 542.518 300.647, 550.604 294.764, 558.690 288.881, 566.776 282.997, 574.863 278.839, 580.578 " />
            <path fill="none" stroke-width="3.0" stroke-linecap="round" stroke-opacity="1.0" stroke="rgb(0, 0, 0)" stroke-linejoin="round" d=" M 224.073, 961.557 216.785, 954.709 209.498, 947.861 202.211, 941.013 194.924, 934.165 187.636, 927.317 180.349, 920.469 173.062, 913.620 168.002, 908.866 177.369, 905.364 186.736, 901.863 196.103, 898.361 205.470, 894.860 214.837, 891.358 224.204, 887.856 233.571, 884.355 242.938, 880.853 252.305, 877.352 261.672, 873.850 271.038, 870.349 280.405, 866.847 289.772, 863.345 299.139, 859.844 308.506, 856.342 311.799, 855.111 321.166, 851.609 330.533, 848.108 339.900, 844.606 349.267, 841.105 358.634, 837.603 364.367, 835.460 372.058, 829.068 376.578, 825.310 384.268, 818.918 391.959, 812.526 399.649, 806.133 407.339, 799.741 412.947, 795.079 " />
            <path fill="none" stroke-width="3.0" stroke-linecap="round" stroke-opacity="1.0" stroke="rgb(0, 0, 0)" stroke-linejoin="round" d=" M 387.354, 776.648 383.714, 785.962 380.074, 795.275 376.433, 804.589 372.793, 813.903 369.153, 823.217 365.512, 832.531 364.367, 835.460 372.128, 841.767 372.811, 842.322 380.571, 848.629 388.331, 854.937 396.091, 861.244 400.703, 864.992 408.463, 871.299 416.223, 877.606 423.984, 883.913 431.744, 890.221 433.596, 891.726 438.066, 882.781 442.536, 873.835 444.363, 870.180 448.834, 861.234 453.304, 852.289 457.774, 843.344 462.245, 834.399 466.715, 825.454 471.185, 816.509 475.656, 807.563 480.126, 798.618 484.596, 789.673 487.144, 784.576 " />
            <path fill="none" stroke-width="3.0" stroke-linecap="round" stroke-opacity="1.0" stroke="rgb(0, 0, 0)" stroke-linejoin="round" d=" M 412.947, 795.079 404.833, 789.235 396.718, 783.391 388.603, 777.547 387.354, 776.648 " />
            <path fill="none" stroke-width="3.0" stroke-linecap="round" stroke-opacity="1.0" stroke="rgb(0, 0, 0)" stroke-linejoin="round" d=" M 530.472, 1101.950 521.954, 1107.190 521.560, 1107.432 513.042, 1112.672 504.524, 1117.911 496.007, 1123.150 487.489, 1128.390 478.972, 1133.629 470.454, 1138.868 461.936, 1144.107 459.184, 1145.801 " />
            <path fill="none" stroke-width="3.0" stroke-linecap="round" stroke-opacity="1.0" stroke="rgb(0, 0, 0)" stroke-linejoin="round" d=" M 458.797, 1143.421 459.184, 1145.801 458.225, 1155.755 457.266, 1165.708 456.307, 1175.662 455.423, 1184.841 " />
            <path fill="none" stroke-width="3.0" stroke-linecap="round" stroke-opacity="1.0" stroke="rgb(0, 0, 0)" stroke-linejoin="round" d=" M 513.404, 1153.316 516.557, 1143.826 519.711, 1134.336 522.864, 1124.846 526.017, 1115.356 528.414, 1108.142 530.472, 1101.950 " />
            <path fill="none" stroke-width="3.0" stroke-linecap="round" stroke-opacity="1.0" stroke="rgb(0, 0, 0)" stroke-linejoin="round" d=" M 70.701, 669.579 80.580, 671.134 90.458, 672.689 98.985, 674.031 105.152, 666.160 108.792, 661.514 114.959, 653.642 121.127, 645.771 127.294, 637.899 130.116, 634.298 131.779, 624.437 133.443, 614.576 135.106, 604.716 136.770, 594.855 138.433, 584.994 140.097, 575.134 140.542, 572.496 142.205, 562.635 143.868, 552.775 143.913, 552.509 " />
            <path fill="none" stroke-width="3.0" stroke-linecap="round" stroke-opacity="1.0" stroke="rgb(0, 0, 0)" stroke-linejoin="round" d=" M 130.116, 634.298 121.518, 639.404 112.919, 644.509 110.850, 645.738 102.252, 650.844 93.654, 655.950 85.055, 661.056 76.457, 666.161 70.701, 669.579 " />
            <path fill="none" stroke-width="3.0" stroke-linecap="round" stroke-opacity="1.0" stroke="rgb(0, 0, 0)" stroke-linejoin="round" d=" M 440.156, 543.114 438.389, 552.957 436.623, 562.799 434.856, 572.642 433.089, 582.485 431.323, 592.327 429.556, 602.170 427.790, 612.013 426.023, 621.856 425.776, 623.235 " />
            <path fill="none" stroke-width="3.0" stroke-linecap="round" stroke-opacity="1.0" stroke="rgb(0, 0, 0)" stroke-linejoin="round" d=" M 347.795, 518.592 347.482, 518.781 340.970, 526.369 334.458, 533.958 332.894, 535.781 327.969, 541.520 326.743, 542.948 323.291, 546.971 323.680, 556.964 324.069, 566.956 324.458, 576.949 324.549, 579.300 331.763, 586.226 334.204, 588.569 340.073, 594.204 340.744, 594.848 350.416, 597.389 352.771, 598.008 352.863, 598.032 352.877, 598.036 355.946, 598.842 356.407, 598.963 358.394, 599.485 358.515, 599.517 358.689, 599.562 358.990, 599.642 367.424, 601.857 368.050, 602.022 374.221, 603.643 381.906, 606.563 384.695, 607.623 394.042, 611.176 403.390, 614.728 412.738, 618.280 419.293, 620.771 419.599, 620.888 425.776, 623.235 435.616, 625.016 438.974, 625.624 441.738, 626.124 450.560, 627.720 454.426, 628.420 464.266, 630.200 471.492, 631.508 481.333, 633.289 491.173, 635.069 495.604, 635.871 497.851, 636.278 507.691, 638.059 514.769, 639.339 521.737, 632.167 525.598, 628.193 532.566, 621.021 536.271, 617.208 537.272, 616.177 544.282, 608.962 545.062, 608.159 549.914, 603.165 556.882, 595.993 557.642, 595.211 558.109, 594.730 " />
            <path fill="none" stroke-width="3.0" stroke-linecap="round" stroke-opacity="1.0" stroke="rgb(0, 0, 0)" stroke-linejoin="round" d=" M 514.769, 639.339 516.817, 629.551 518.865, 619.763 519.038, 618.935 519.443, 616.996 521.491, 607.208 523.539, 597.420 525.587, 587.632 526.477, 583.378 528.525, 573.589 530.572, 563.801 532.080, 556.596 " />
            <path fill="none" stroke-width="3.0" stroke-linecap="round" stroke-opacity="1.0" stroke="rgb(0, 0, 0)" stroke-linejoin="round" d=" M 575.333, 507.970 568.686, 515.442 562.040, 522.914 555.361, 530.422 549.415, 537.107 542.769, 544.579 536.123, 552.051 533.573, 554.917 532.080, 556.596 522.186, 555.145 512.292, 553.694 502.397, 552.243 492.503, 550.792 482.609, 549.340 472.715, 547.889 462.821, 546.438 452.927, 544.987 443.033, 543.536 440.156, 543.114 439.476, 542.800 430.397, 538.607 421.318, 534.415 412.239, 530.222 407.372, 527.975 398.293, 523.782 394.270, 521.924 385.191, 517.732 376.112, 513.539 371.971, 511.627 371.458, 511.390 370.174, 505.069 368.183, 495.269 366.398, 486.486 364.407, 476.686 362.416, 466.887 360.425, 457.087 359.960, 454.800 " />
            <path fill="none" stroke-width="3.0" stroke-linecap="round" stroke-opacity="1.0" stroke="rgb(0, 0, 0)" stroke-linejoin="round" d=" M 159.149, 639.350 149.297, 637.636 139.445, 635.921 130.116, 634.298 132.263, 644.064 134.411, 653.831 136.558, 663.598 138.332, 671.665 " />
            <path fill="none" stroke-width="3.0" stroke-linecap="round" stroke-opacity="1.0" stroke="rgb(0, 0, 0)" stroke-linejoin="round" d=" M 140.633, 681.608 148.135, 674.995 155.636, 668.381 163.137, 661.768 166.280, 658.998 169.587, 649.560 172.895, 640.123 176.203, 630.686 179.511, 621.249 182.819, 611.812 186.127, 602.375 189.474, 592.825 183.425, 584.862 180.618, 581.166 175.525, 574.460 174.973, 573.734 174.469, 573.071 " />
            <path fill="none" stroke-width="3.0" stroke-linecap="round" stroke-opacity="1.0" stroke="rgb(0, 0, 0)" stroke-linejoin="round" d=" M 166.280, 658.998 157.698, 653.864 151.997, 650.453 149.498, 648.958 150.789, 639.042 152.080, 629.125 153.372, 619.209 154.663, 609.293 155.955, 599.376 157.246, 589.460 158.283, 581.496 158.459, 580.145 158.720, 578.142 158.769, 577.766 159.124, 575.045 160.415, 565.129 161.048, 560.272 159.033, 557.563 " />
            <path fill="none" stroke-width="3.0" stroke-linecap="round" stroke-opacity="1.0" stroke="rgb(0, 0, 0)" stroke-linejoin="round" d=" M 174.469, 573.071 171.297, 570.046 164.060, 563.145 161.048, 560.272 " />
            <path fill="none" stroke-width="3.0" stroke-linecap="round" stroke-opacity="1.0" stroke="rgb(0, 0, 0)" stroke-linejoin="round" d=" M 157.951, 562.461 161.048, 560.272 167.625, 567.804 170.035, 570.564 173.190, 574.177 173.698, 574.759 179.310, 581.185 185.887, 588.718 189.474, 592.825 " />
            <path fill="none" stroke-width="3.0" stroke-linecap="round" stroke-opacity="1.0" stroke="rgb(0, 0, 0)" stroke-linejoin="round" d=" M 230.931, 580.422 221.015, 579.131 211.098, 577.840 201.182, 576.549 191.266, 575.258 181.350, 573.967 176.550, 573.342 174.469, 573.071 171.411, 569.999 164.357, 562.912 159.033, 557.563 " />
            <path fill="none" stroke-width="3.0" stroke-linecap="round" stroke-opacity="1.0" stroke="rgb(0, 0, 0)" stroke-linejoin="round" d=" M 461.234, 1143.643 459.734, 1133.756 458.235, 1123.870 456.735, 1113.983 455.235, 1104.096 454.692, 1100.511 453.192, 1090.624 451.692, 1080.737 450.193, 1070.850 448.693, 1060.963 447.194, 1051.076 445.694, 1041.189 444.195, 1031.302 442.695, 1021.415 441.195, 1011.528 440.867, 1009.363 444.941, 1000.231 449.015, 991.098 453.089, 981.966 457.163, 972.833 461.168, 963.854 465.242, 954.722 469.316, 945.589 471.496, 940.702 475.570, 931.570 477.268, 927.765 477.441, 927.375 481.515, 918.243 485.589, 909.110 489.663, 899.978 493.737, 890.845 497.811, 881.713 500.007, 876.791 " />
            <path fill="none" stroke-width="3.0" stroke-linecap="round" stroke-opacity="1.0" stroke="rgb(0, 0, 0)" stroke-linejoin="round" d=" M 336.916, 984.395 346.640, 986.731 356.363, 989.066 366.087, 991.402 369.424, 992.203 379.147, 994.539 388.871, 996.874 398.594, 999.210 408.318, 1001.545 418.041, 1003.881 427.764, 1006.216 437.488, 1008.552 440.867, 1009.363 449.076, 1003.653 457.285, 997.943 465.495, 992.232 473.704, 986.521 481.913, 980.811 490.122, 975.101 498.331, 969.390 503.422, 965.849 " />
            <path fill="none" stroke-width="3.0" stroke-linecap="round" stroke-opacity="1.0" stroke="rgb(0, 0, 0)" stroke-linejoin="round" d=" M 387.354, 776.648 378.172, 780.609 368.990, 784.570 359.809, 788.531 350.626, 792.492 346.527, 794.261 337.345, 798.222 328.163, 802.183 320.451, 805.510 311.269, 809.471 302.087, 813.433 292.905, 817.394 283.723, 821.355 274.541, 825.316 265.359, 829.277 256.177, 833.238 246.995, 837.200 237.813, 841.161 228.631, 845.122 219.449, 849.083 210.267, 853.044 201.085, 857.005 191.903, 860.967 182.721, 864.928 173.539, 868.889 171.878, 869.605 " />
            <path fill="none" stroke-width="3.0" stroke-linecap="round" stroke-opacity="1.0" stroke="rgb(0, 0, 0)" stroke-linejoin="round" d=" M 422.505, 655.042 419.728, 664.648 416.952, 674.255 414.175, 683.862 411.398, 693.469 408.621, 703.075 405.844, 712.682 403.067, 722.289 400.290, 731.895 397.513, 741.502 394.737, 751.109 391.960, 760.716 389.183, 770.322 387.354, 776.648 392.075, 767.832 396.796, 759.016 401.516, 750.201 406.237, 741.385 410.958, 732.569 415.678, 723.754 420.399, 714.938 425.120, 706.123 429.840, 697.307 434.561, 688.491 436.533, 684.807 " />
            <path fill="none" stroke-width="3.0" stroke-linecap="round" stroke-opacity="1.0" stroke="rgb(0, 0, 0)" stroke-linejoin="round" d=" M 567.857, 787.007 561.828, 794.985 555.799, 802.963 549.769, 810.941 543.740, 818.919 537.711, 826.897 531.682, 834.875 525.653, 842.854 519.624, 850.832 513.595, 858.810 507.566, 866.788 501.537, 874.766 500.007, 876.791 498.625, 866.887 497.244, 856.983 495.862, 847.079 494.481, 837.175 493.099, 827.271 491.718, 817.366 490.336, 807.462 488.955, 797.558 487.573, 787.654 487.144, 784.576 477.242, 785.978 467.341, 787.379 457.440, 788.781 447.539, 790.183 437.637, 791.584 427.736, 792.986 417.835, 794.387 412.947, 795.079 420.306, 788.308 427.664, 781.537 435.023, 774.765 442.382, 767.994 449.740, 761.223 457.099, 754.451 464.457, 747.680 471.816, 740.908 479.174, 734.137 486.533, 727.366 493.892, 720.594 501.250, 713.823 508.609, 707.052 515.967, 700.280 517.943, 698.462 " />
            <path fill="none" stroke-width="3.0" stroke-linecap="round" stroke-opacity="1.0" stroke="rgb(0, 0, 0)" stroke-linejoin="round" d=" M 455.423, 1184.841 446.165, 1181.061 436.907, 1177.282 427.649, 1173.502 424.496, 1172.215 415.238, 1168.435 405.980, 1164.656 396.722, 1160.876 387.464, 1157.096 378.206, 1153.317 368.947, 1149.537 359.689, 1145.757 350.431, 1141.978 341.173, 1138.198 331.915, 1134.418 323.820, 1131.114 " />
            <path fill="none" stroke-width="3.0" stroke-linecap="round" stroke-opacity="1.0" stroke="rgb(0, 0, 0)" stroke-linejoin="round" d=" M 323.257, 1241.460 333.254, 1241.684 343.252, 1241.909 353.249, 1242.134 363.247, 1242.359 373.244, 1242.584 383.242, 1242.809 393.239, 1243.033 403.237, 1243.258 413.234, 1243.483 423.231, 1243.708 433.456, 1243.938 443.453, 1244.163 453.451, 1244.388 463.078, 1244.604 " />
            <path fill="none" stroke-width="3.0" stroke-linecap="round" stroke-opacity="1.0" stroke="rgb(0, 0, 0)" stroke-linejoin="round" d=" M 541.293, 909.751 535.698, 918.039 530.102, 926.328 526.169, 932.154 520.573, 940.443 514.978, 948.731 509.383, 957.019 503.789, 965.305 503.422, 965.849 " />
            <path fill="none" stroke-width="3.0" stroke-linecap="round" stroke-opacity="1.0" stroke="rgb(0, 0, 0)" stroke-linejoin="round" d=" M 567.857, 787.007 564.467, 796.415 561.077, 805.823 557.688, 815.231 554.298, 824.639 550.909, 834.047 547.519, 843.455 544.129, 852.863 540.740, 862.271 537.350, 871.679 533.961, 881.087 530.571, 890.495 527.181, 899.903 523.792, 909.311 520.402, 918.719 517.013, 928.127 516.313, 930.068 516.287, 930.141 515.429, 932.523 512.039, 941.931 508.650, 951.339 505.260, 960.747 503.620, 965.299 503.422, 965.849 505.424, 975.647 507.426, 985.444 509.428, 995.242 511.430, 1005.039 513.432, 1014.837 515.434, 1024.634 517.436, 1034.432 519.438, 1044.229 521.440, 1054.027 523.442, 1063.824 525.444, 1073.622 527.446, 1083.420 529.322, 1092.600 " />
            <path fill="none" stroke-width="3.0" stroke-linecap="round" stroke-opacity="1.0" stroke="rgb(0, 0, 0)" stroke-linejoin="round" d=" M 533.743, 653.288 530.442, 662.728 527.140, 672.167 523.839, 681.606 520.537, 691.046 517.943, 698.462 522.854, 707.174 527.764, 715.885 532.675, 724.596 537.585, 733.307 542.496, 742.018 547.407, 750.730 552.317, 759.441 557.228, 768.152 562.139, 776.863 567.049, 785.575 567.857, 787.007 " />
            <path fill="none" stroke-width="3.0" stroke-linecap="round" stroke-opacity="1.0" stroke="rgb(0, 0, 0)" stroke-linejoin="round" d=" M 549.124, 615.920 550.212, 625.860 551.301, 635.801 552.389, 645.742 553.478, 655.682 554.566, 665.623 555.654, 675.563 556.743, 685.504 557.831, 695.445 558.920, 705.385 560.008, 715.326 561.097, 725.266 562.185, 735.207 563.273, 745.147 564.362, 755.088 565.450, 765.029 566.539, 774.969 567.627, 784.910 567.857, 787.007 565.385, 777.317 562.913, 767.627 560.441, 757.938 557.969, 748.248 555.497, 738.558 553.025, 728.869 550.553, 719.179 548.081, 709.489 545.609, 699.800 543.137, 690.110 540.665, 680.420 538.193, 670.731 535.721, 661.041 533.743, 653.288 530.656, 643.777 527.569, 634.265 525.598, 628.193 " />
            <path fill="none" stroke-width="3.0" stroke-linecap="round" stroke-opacity="1.0" stroke="rgb(0, 0, 0)" stroke-linejoin="round" d=" M 592.253, 1051.706 584.495, 1058.016 576.737, 1064.325 568.979, 1070.635 561.220, 1076.944 553.462, 1083.253 545.704, 1089.563 537.945, 1095.872 530.472, 1101.950 527.902, 1093.665 524.939, 1084.114 521.976, 1074.563 519.013, 1065.012 516.050, 1055.461 513.087, 1045.910 510.124, 1036.359 509.289, 1033.667 517.332, 1027.725 525.375, 1021.782 533.418, 1015.840 541.461, 1009.898 549.504, 1003.956 557.547, 998.014 558.658, 997.193 563.522, 993.600 554.747, 988.804 551.751, 987.167 " />
            <path fill="none" stroke-width="3.0" stroke-linecap="round" stroke-opacity="1.0" stroke="rgb(0, 0, 0)" stroke-linejoin="round" d=" M 336.916, 984.395 335.483, 994.292 334.049, 1004.188 332.615, 1014.085 331.999, 1018.337 330.565, 1028.233 329.132, 1038.130 327.698, 1048.027 326.264, 1057.923 324.830, 1067.820 323.396, 1077.717 321.963, 1087.614 320.529, 1097.510 319.095, 1107.407 317.661, 1117.304 316.228, 1127.200 315.767, 1130.380 " />
            <path fill="none" stroke-width="3.0" stroke-linecap="round" stroke-opacity="1.0" stroke="rgb(0, 0, 0)" stroke-linejoin="round" d=" M 290.176, 1057.919 293.507, 1067.349 295.114, 1071.899 298.444, 1081.328 301.774, 1090.757 305.104, 1100.187 308.434, 1109.616 311.764, 1119.045 315.094, 1128.474 315.767, 1130.380 318.343, 1130.614 319.995, 1130.765 323.820, 1131.114 333.779, 1132.022 343.738, 1132.930 353.696, 1133.838 363.655, 1134.746 373.614, 1135.654 378.727, 1136.120 388.685, 1137.028 398.644, 1137.936 408.603, 1138.844 418.562, 1139.752 420.839, 1139.960 422.073, 1140.073 422.782, 1140.137 423.391, 1140.193 432.594, 1141.032 " />
            <path fill="none" stroke-width="3.0" stroke-linecap="round" stroke-opacity="1.0" stroke="rgb(0, 0, 0)" stroke-linejoin="round" d=" M 545.062, 608.159 549.124, 615.920 552.928, 606.672 556.732, 597.423 557.642, 595.211 " />
            <path fill="none" stroke-width="3.0" stroke-linecap="round" stroke-opacity="1.0" stroke="rgb(0, 0, 0)" stroke-linejoin="round" d=" M 288.325, 545.530 285.713, 555.183 283.100, 564.836 280.487, 574.488 278.839, 580.578 268.839, 580.546 258.839, 580.513 248.839, 580.480 238.839, 580.448 230.931, 580.422 220.988, 579.352 211.046, 578.282 201.103, 577.213 191.161, 576.143 181.218, 575.073 175.525, 574.460 " />
            <path fill="none" stroke-width="3.0" stroke-linecap="round" stroke-opacity="1.0" stroke="rgb(0, 0, 0)" stroke-linejoin="round" d=" M 379.973, 1689.177 381.919, 1679.368 383.865, 1669.559 385.812, 1659.751 387.758, 1649.942 389.704, 1640.133 390.076, 1638.259 " />
            <path fill="none" stroke-width="3.0" stroke-linecap="round" stroke-opacity="1.0" stroke="rgb(0, 0, 0)" stroke-linejoin="round" d=" M 390.076, 1638.259 381.438, 1633.220 372.800, 1628.181 364.163, 1623.143 355.525, 1618.104 346.887, 1613.065 338.250, 1608.026 329.612, 1602.987 320.974, 1597.948 312.337, 1592.909 303.699, 1587.870 295.061, 1582.831 286.424, 1577.792 280.760, 1574.488 " />
            <path fill="none" stroke-width="3.0" stroke-linecap="round" stroke-opacity="1.0" stroke="rgb(0, 0, 0)" stroke-linejoin="round" d=" M 463.933, 1637.441 473.841, 1638.800 483.748, 1640.159 493.655, 1641.518 503.562, 1642.877 513.470, 1644.236 523.377, 1645.595 533.284, 1646.954 536.050, 1647.333 534.474, 1637.458 532.898, 1627.583 531.322, 1617.708 529.746, 1607.833 529.519, 1606.409 " />
            <path fill="none" stroke-width="3.0" stroke-linecap="round" stroke-opacity="1.0" stroke="rgb(0, 0, 0)" stroke-linejoin="round" d=" M 463.144, 1654.793 453.391, 1652.586 443.638, 1650.379 433.884, 1648.172 424.131, 1645.965 414.377, 1643.758 404.624, 1641.551 394.870, 1639.344 390.076, 1638.259 " />
            <path fill="none" stroke-width="3.0" stroke-linecap="round" stroke-opacity="1.0" stroke="rgb(0, 0, 0)" stroke-linejoin="round" d=" M 529.395, 1607.692 531.051, 1617.554 532.706, 1627.416 534.362, 1637.278 536.050, 1647.333 " />
            <path fill="none" stroke-width="3.0" stroke-linecap="round" stroke-opacity="1.0" stroke="rgb(0, 0, 0)" stroke-linejoin="round" d=" M 318.343, 1130.614 318.786, 1140.605 319.229, 1150.595 319.671, 1160.585 320.114, 1170.575 320.557, 1180.565 321.000, 1190.556 321.443, 1200.546 321.886, 1210.536 322.329, 1220.526 322.772, 1230.516 323.257, 1241.460 325.583, 1251.185 327.909, 1260.911 330.235, 1270.637 332.561, 1280.362 334.888, 1290.088 337.214, 1299.814 339.540, 1309.539 341.866, 1319.265 344.192, 1328.991 346.518, 1338.716 348.845, 1348.442 351.171, 1358.168 353.497, 1367.893 355.132, 1374.729 355.981, 1384.692 356.831, 1394.656 357.680, 1404.620 358.529, 1414.584 359.379, 1424.548 360.228, 1434.512 361.078, 1444.476 361.927, 1454.439 362.776, 1464.403 363.079, 1467.953 363.928, 1477.917 364.619, 1486.023 366.269, 1495.886 367.918, 1505.749 369.567, 1515.612 371.216, 1525.475 372.866, 1535.338 374.515, 1545.201 375.522, 1551.225 377.172, 1561.088 377.258, 1561.608 378.908, 1571.471 380.164, 1578.982 381.813, 1588.845 383.462, 1598.708 385.111, 1608.571 386.761, 1618.434 388.410, 1628.297 390.076, 1638.259 386.923, 1628.769 383.771, 1619.279 380.618, 1609.789 377.465, 1600.299 374.313, 1590.809 371.160, 1581.319 368.008, 1571.829 367.156, 1569.266 364.004, 1559.776 362.165, 1554.241 355.029, 1547.235 347.894, 1540.229 340.758, 1533.223 333.622, 1526.217 330.521, 1523.172 323.559, 1530.351 321.459, 1532.517 314.498, 1539.696 307.536, 1546.875 300.575, 1554.054 293.613, 1561.233 286.652, 1568.412 280.760, 1574.488 290.464, 1572.074 300.169, 1569.661 309.873, 1567.247 319.577, 1564.833 329.282, 1562.420 338.986, 1560.006 348.690, 1557.592 350.820, 1557.062 360.524, 1554.649 362.165, 1554.241 " />
            <path fill="none" stroke-width="3.0" stroke-linecap="round" stroke-opacity="1.0" stroke="rgb(0, 0, 0)" stroke-linejoin="round" d=" M 308.147, 1481.350 317.255, 1485.479 326.363, 1489.607 335.471, 1493.736 344.579, 1497.864 353.687, 1501.993 354.817, 1502.505 " />
            <path fill="none" stroke-width="3.0" stroke-linecap="round" stroke-opacity="1.0" stroke="rgb(0, 0, 0)" stroke-linejoin="round" d=" M 459.184, 1145.801 449.255, 1144.606 439.327, 1143.412 429.399, 1142.217 420.948, 1141.200 411.020, 1140.006 401.092, 1138.811 391.163, 1137.617 381.235, 1136.422 378.727, 1136.120 " />
            <path fill="none" stroke-width="3.0" stroke-linecap="round" stroke-opacity="1.0" stroke="rgb(0, 0, 0)" stroke-linejoin="round" d=" M 355.132, 1374.729 350.133, 1366.067 345.135, 1357.406 340.136, 1348.745 335.137, 1340.084 332.736, 1335.923 " />
            <path fill="none" stroke-width="3.0" stroke-linecap="round" stroke-opacity="1.0" stroke="rgb(0, 0, 0)" stroke-linejoin="round" d=" M 342.705, 1417.226 345.741, 1426.755 348.776, 1436.283 351.811, 1445.811 354.846, 1455.339 357.881, 1464.868 359.168, 1468.907 362.203, 1478.436 364.619, 1486.023 374.610, 1486.457 384.601, 1486.891 394.591, 1487.324 404.582, 1487.758 414.572, 1488.192 424.563, 1488.626 434.554, 1489.060 439.912, 1489.292 444.271, 1489.482 454.262, 1489.915 464.253, 1490.349 470.610, 1490.625 " />
            <path fill="none" stroke-width="3.0" stroke-linecap="round" stroke-opacity="1.0" stroke="rgb(0, 0, 0)" stroke-linejoin="round" d=" M 350.351, 1471.058 340.636, 1473.427 330.920, 1475.796 321.205, 1478.166 311.490, 1480.535 308.147, 1481.350 306.906, 1491.273 305.665, 1501.196 305.089, 1505.803 " />
            <path fill="none" stroke-width="3.0" stroke-linecap="round" stroke-opacity="1.0" stroke="rgb(0, 0, 0)" stroke-linejoin="round" d=" M 571.634, 452.216 561.960, 449.680 552.287, 447.145 542.614, 444.610 532.940, 442.075 523.267, 439.540 513.594, 437.005 503.920, 434.469 494.247, 431.934 484.574, 429.399 474.901, 426.864 465.227, 424.329 455.554, 421.794 445.881, 419.258 436.207, 416.723 426.534, 414.188 416.861, 411.653 409.940, 409.839 " />
            <path fill="none" stroke-width="3.0" stroke-linecap="round" stroke-opacity="1.0" stroke="rgb(0, 0, 0)" stroke-linejoin="round" d=" M 545.841, 1437.199 536.059, 1435.126 526.276, 1433.053 516.493, 1430.980 506.710, 1428.907 496.928, 1426.834 487.145, 1424.761 477.362, 1422.688 467.579, 1420.615 461.409, 1419.307 " />
            <path fill="none" stroke-width="3.0" stroke-linecap="round" stroke-opacity="1.0" stroke="rgb(0, 0, 0)" stroke-linejoin="round" d=" M 454.981, 1369.482 444.995, 1370.007 442.856, 1370.119 442.581, 1370.134 441.456, 1370.193 431.470, 1370.718 421.484, 1371.242 411.498, 1371.767 401.511, 1372.292 391.525, 1372.816 381.539, 1373.341 371.553, 1373.866 361.567, 1374.390 355.132, 1374.729 352.081, 1365.205 349.031, 1355.682 345.981, 1346.158 342.931, 1336.635 339.881, 1327.111 336.830, 1317.588 333.780, 1308.064 330.730, 1298.541 327.680, 1289.017 324.630, 1279.494 321.579, 1269.971 319.427, 1263.249 " />
            <path fill="none" stroke-width="3.0" stroke-linecap="round" stroke-opacity="1.0" stroke="rgb(0, 0, 0)" stroke-linejoin="round" d=" M 323.257, 1241.460 320.422, 1231.870 317.587, 1222.280 314.752, 1212.690 311.917, 1203.101 309.082, 1193.511 306.247, 1183.921 303.412, 1174.332 300.577, 1164.742 297.803, 1155.359 " />
            <path fill="none" stroke-width="3.0" stroke-linecap="round" stroke-opacity="1.0" stroke="rgb(0, 0, 0)" stroke-linejoin="round" d=" M 371.458, 511.390 371.475, 511.947 371.775, 521.943 372.074, 531.938 372.267, 538.374 372.566, 548.369 372.865, 558.365 372.925, 560.352 373.224, 570.347 373.384, 575.672 373.683, 585.668 373.894, 592.723 374.194, 602.719 374.221, 603.643 369.431, 599.024 362.732, 592.565 360.732, 590.636 " />
            <path fill="none" stroke-width="3.0" stroke-linecap="round" stroke-opacity="1.0" stroke="rgb(0, 0, 0)" stroke-linejoin="round" d=" M 323.291, 546.971 331.038, 540.648 336.696, 536.031 344.443, 529.708 346.166, 528.302 " />
            <path fill="none" stroke-width="3.0" stroke-linecap="round" stroke-opacity="1.0" stroke="rgb(0, 0, 0)" stroke-linejoin="round" d=" M 346.166, 528.302 347.482, 518.781 " />
            <path fill="none" stroke-width="3.0" stroke-linecap="round" stroke-opacity="1.0" stroke="rgb(0, 0, 0)" stroke-linejoin="round" d=" M 358.353, 455.659 356.698, 465.521 355.044, 475.384 353.389, 485.246 351.735, 495.108 350.080, 504.970 348.426, 514.832 347.795, 518.592 346.166, 528.302 348.148, 536.785 349.601, 543.004 351.877, 552.741 354.152, 562.479 356.428, 572.217 358.703, 581.954 359.416, 585.006 360.732, 590.636 " />
            <path fill="none" stroke-width="3.0" stroke-linecap="round" stroke-opacity="1.0" stroke="rgb(0, 0, 0)" stroke-linejoin="round" d=" M 324.549, 579.300 328.452, 570.093 332.355, 560.886 336.257, 551.679 340.160, 542.472 342.722, 536.428 346.166, 528.302 345.489, 536.610 344.677, 546.577 344.242, 551.909 343.430, 561.876 342.680, 571.090 341.868, 581.057 341.055, 591.024 340.744, 594.848 350.529, 592.786 355.296, 591.782 355.687, 591.699 360.732, 590.636 362.073, 580.727 362.161, 580.078 363.502, 570.168 364.844, 560.259 366.185, 550.349 367.526, 540.440 367.845, 538.082 369.187, 528.173 370.528, 518.263 371.374, 512.012 371.458, 511.390 372.070, 511.562 381.696, 514.271 391.323, 516.981 396.390, 518.407 406.016, 521.116 411.385, 522.627 421.011, 525.336 430.637, 528.046 440.263, 530.755 449.889, 533.464 459.515, 536.173 469.141, 538.882 478.767, 541.591 484.262, 543.138 493.888, 545.847 503.514, 548.557 513.140, 551.266 522.766, 553.975 532.080, 556.596 " />
            <path fill="none" stroke-width="3.0" stroke-linecap="round" stroke-opacity="1.0" stroke="rgb(0, 0, 0)" stroke-linejoin="round" d=" M 357.020, 630.620 354.389, 620.972 353.086, 616.194 353.006, 615.900 352.342, 613.464 351.782, 611.411 " />
            <path fill="none" stroke-width="3.0" stroke-linecap="round" stroke-opacity="1.0" stroke="rgb(0, 0, 0)" stroke-linejoin="round" d=" M 364.161, 452.555 369.293, 461.138 374.425, 469.721 379.557, 478.303 380.464, 479.821 385.596, 488.403 385.757, 488.672 385.757, 478.672 385.757, 477.313 385.757, 467.313 385.757, 457.882 385.757, 447.882 385.757, 441.014 385.757, 431.014 385.757, 429.371 385.757, 419.371 385.757, 409.371 385.757, 406.765 386.451, 396.789 387.146, 386.813 387.841, 376.837 388.535, 366.861 389.204, 357.265 389.898, 347.289 390.593, 337.314 391.288, 327.338 391.386, 325.918 386.254, 317.335 381.122, 308.753 375.990, 300.170 370.858, 291.587 369.790, 289.802 364.658, 281.219 359.526, 272.636 354.394, 264.054 349.262, 255.471 348.194, 253.685 347.500, 263.661 346.805, 273.637 346.110, 283.613 345.416, 293.589 344.747, 303.185 " />
            <path fill="none" stroke-width="3.0" stroke-linecap="round" stroke-opacity="1.0" stroke="rgb(0, 0, 0)" stroke-linejoin="round" d=" M 408.402, 347.006 399.582, 351.719 390.762, 356.432 389.204, 357.265 " />
            <path fill="none" stroke-width="3.0" stroke-linecap="round" stroke-opacity="1.0" stroke="rgb(0, 0, 0)" stroke-linejoin="round" d=" M 359.960, 454.800 358.353, 455.659 349.533, 460.372 340.713, 465.085 331.894, 469.799 323.074, 474.512 319.920, 476.198 319.920, 466.198 319.920, 456.198 319.920, 446.198 319.920, 436.198 319.920, 426.198 319.920, 416.198 319.920, 406.198 319.920, 396.198 319.920, 394.291 320.614, 384.315 321.309, 374.339 322.004, 364.363 322.698, 354.387 323.393, 344.411 324.088, 334.436 324.782, 324.460 325.477, 314.484 325.550, 313.444 334.369, 308.731 343.189, 304.018 344.747, 303.185 353.567, 298.472 362.387, 293.758 369.790, 289.802 378.610, 285.089 387.430, 280.375 396.249, 275.662 405.069, 270.949 414.031, 266.159 413.337, 276.135 412.642, 286.111 411.947, 296.087 411.253, 306.063 410.558, 316.039 409.863, 326.014 409.169, 335.990 408.474, 345.966 408.402, 347.006 408.402, 357.006 408.402, 367.006 408.402, 377.006 408.402, 387.006 408.402, 397.006 408.402, 407.006 408.402, 411.082 408.402, 419.833 408.402, 428.913 406.879, 429.727 398.059, 434.440 389.240, 439.153 385.757, 441.014 " />
            <path fill="none" stroke-width="3.0" stroke-linecap="round" stroke-opacity="1.0" stroke="rgb(0, 0, 0)" stroke-linejoin="round" d=" M 307.847, 933.636 306.439, 943.537 305.031, 953.437 303.624, 963.338 302.216, 973.238 300.809, 983.138 299.401, 993.039 297.993, 1002.939 296.586, 1012.840 295.178, 1022.740 293.771, 1032.641 292.363, 1042.541 290.955, 1052.441 290.176, 1057.919 " />
            <path fill="none" stroke-width="3.0" stroke-linecap="round" stroke-opacity="1.0" stroke="rgb(0, 0, 0)" stroke-linejoin="round" d=" M 314.629, 931.376 318.504, 940.594 322.379, 949.813 326.254, 959.032 330.129, 968.250 334.005, 977.469 335.602, 981.268 336.916, 984.395 338.343, 978.853 340.836, 969.168 343.329, 959.484 345.822, 949.800 348.315, 940.116 350.808, 930.431 353.301, 920.747 353.937, 918.275 " />
            <path fill="none" stroke-width="3.0" stroke-linecap="round" stroke-opacity="1.0" stroke="rgb(0, 0, 0)" stroke-linejoin="round" d=" M 353.040, 612.176 352.993, 608.102 352.877, 598.036 " />
            <path fill="none" stroke-width="3.0" stroke-linecap="round" stroke-opacity="1.0" stroke="rgb(0, 0, 0)" stroke-linejoin="round" d=" M 356.038, 1511.100 354.357, 1520.958 352.677, 1530.816 351.726, 1536.391 " />
            <path fill="none" stroke-width="3.0" stroke-linecap="round" stroke-opacity="1.0" stroke="rgb(0, 0, 0)" stroke-linejoin="round" d=" M 355.946, 598.842 356.311, 602.808 357.229, 612.766 357.329, 613.859 " />
            <path fill="none" stroke-width="3.0" stroke-linecap="round" stroke-opacity="1.0" stroke="rgb(0, 0, 0)" stroke-linejoin="round" d=" M 359.292, 628.749 359.997, 636.023 " />
            <path fill="none" stroke-width="3.0" stroke-linecap="round" stroke-opacity="1.0" stroke="rgb(0, 0, 0)" stroke-linejoin="round" d=" M 356.407, 598.963 356.716, 602.162 357.681, 612.115 357.797, 613.313 " />
            <path fill="none" stroke-width="3.0" stroke-linecap="round" stroke-opacity="1.0" stroke="rgb(0, 0, 0)" stroke-linejoin="round" d=" M 359.137, 611.750 358.783, 601.756 358.745, 600.663 358.990, 599.642 " />
            <path fill="none" stroke-width="3.0" stroke-linecap="round" stroke-opacity="1.0" stroke="rgb(0, 0, 0)" stroke-linejoin="round" d=" M 356.311, 602.808 352.993, 608.102 " />
            <path fill="none" stroke-width="3.0" stroke-linecap="round" stroke-opacity="1.0" stroke="rgb(0, 0, 0)" stroke-linejoin="round" d=" M 342.564, 382.189 333.745, 386.902 324.925, 391.616 319.920, 394.291 " />
            <path fill="none" stroke-width="3.0" stroke-linecap="round" stroke-opacity="1.0" stroke="rgb(0, 0, 0)" stroke-linejoin="round" d=" M 419.293, 620.771 419.304, 622.522 419.307, 623.127 419.359, 631.266 419.422, 641.266 419.431, 642.665 419.468, 648.597 " />
            <path fill="none" stroke-width="3.0" stroke-linecap="round" stroke-opacity="1.0" stroke="rgb(0, 0, 0)" stroke-linejoin="round" d=" M 466.241, 1586.701 475.730, 1589.855 485.220, 1593.009 494.709, 1596.164 504.199, 1599.318 513.689, 1602.472 523.178, 1605.626 529.395, 1607.692 " />
            <path fill="none" stroke-width="3.0" stroke-linecap="round" stroke-opacity="1.0" stroke="rgb(0, 0, 0)" stroke-linejoin="round" d=" M 459.579, 1298.568 469.490, 1299.898 479.401, 1301.229 489.312, 1302.559 499.223, 1303.890 509.134, 1305.220 519.045, 1306.550 528.957, 1307.881 538.868, 1309.211 539.978, 1309.360 " />
            <path fill="none" stroke-width="3.0" stroke-linecap="round" stroke-opacity="1.0" stroke="rgb(0, 0, 0)" stroke-linejoin="round" d=" M 487.972, 1167.144 497.657, 1169.632 507.343, 1172.120 517.028, 1174.609 526.714, 1177.097 536.399, 1179.585 546.085, 1182.073 550.064, 1183.096 " />
            <path fill="none" stroke-width="3.0" stroke-linecap="round" stroke-opacity="1.0" stroke="rgb(0, 0, 0)" stroke-linejoin="round" d=" M 558.361, 593.463 562.164, 584.215 565.782, 575.421 " />
            <path fill="none" stroke-width="3.0" stroke-linecap="round" stroke-opacity="1.0" stroke="rgb(0, 0, 0)" stroke-linejoin="round" d=" M 385.757, 457.882 395.425, 460.437 405.093, 462.991 412.978, 465.074 422.646, 467.629 432.314, 470.183 441.982, 472.737 451.651, 475.292 461.319, 477.846 470.987, 480.401 480.655, 482.955 490.324, 485.510 499.992, 488.064 509.660, 490.619 519.328, 493.173 528.997, 495.728 538.665, 498.282 548.567, 500.898 558.236, 503.453 567.904, 506.007 575.333, 507.970 " />
            <path fill="none" stroke-width="3.0" stroke-linecap="round" stroke-opacity="1.0" stroke="rgb(0, 0, 0)" stroke-linejoin="round" d=" M 584.793, 1036.619 585.396, 1036.010 " />
        </g>
    </g>
</svg>
