<?xml version='1.0' encoding='ascii'?>
<svg xmlns="http://www.w3.org/2000/svg" height="1000" version="1.1" width="500">
    <g id="View Layer_LineSet" inkscape:groupmode="lineset" inkscape:label="View Layer_LineSet" xmlns:inkscape="http://www.inkscape.org/namespaces/inkscape">
        <g id="strokes" inkscape:groupmode="layer" inkscape:label="strokes" xmlns:inkscape="http://www.inkscape.org/namespaces/inkscape">
            <path d=" M 216.762, 200.556 226.710, 199.536 236.658, 198.516 244.063, 197.757 250.000, 193.695 255.937, 197.756 265.885, 198.776 275.833, 199.796 283.238, 200.555 " fill="none" stroke="rgb(0, 0, 0)" stroke-linecap="butt" stroke-linejoin="round" stroke-opacity="1.0" stroke-width="1.0000001192092896" />
            <path d=" M 257.322, 231.962 260.537, 241.431 262.503, 247.220 " fill="none" stroke="rgb(0, 0, 0)" stroke-linecap="butt" stroke-linejoin="round" stroke-opacity="1.0" stroke-width="1.0000001192092896" />
            <path d=" M 266.581, 259.230 268.801, 253.437 269.556, 251.469 " fill="none" stroke="rgb(0, 0, 0)" stroke-linecap="butt" stroke-linejoin="round" stroke-opacity="1.0" stroke-width="1.0000001192092896" />
            <path d=" M 281.460, 220.419 275.566, 223.237 266.545, 227.552 257.523, 231.866 257.322, 231.962 " fill="none" stroke="rgb(0, 0, 0)" stroke-linecap="butt" stroke-linejoin="round" stroke-opacity="1.0" stroke-width="1.0000001192092896" />
            <path d=" M 250.000, 235.961 257.322, 231.962 250.000, 232.829 " fill="none" stroke="rgb(0, 0, 0)" stroke-linecap="butt" stroke-linejoin="round" stroke-opacity="1.0" stroke-width="1.0000001192092896" />
            <path d=" M 250.000, 232.829 250.000, 235.961 242.678, 231.962 250.000, 232.829 250.000, 223.862 250.000, 221.684 " fill="none" stroke="rgb(0, 0, 0)" stroke-linecap="butt" stroke-linejoin="round" stroke-opacity="1.0" stroke-width="1.0000001192092896" />
            <path d=" M 225.118, 251.507 226.326, 252.630 233.419, 259.230 243.074, 261.836 246.083, 262.648 247.972, 263.158 250.000, 263.705 250.000, 263.705 250.000, 263.705 252.028, 263.158 253.917, 262.648 263.571, 260.042 266.581, 259.230 273.674, 252.630 274.882, 251.507 " fill="none" stroke="rgb(0, 0, 0)" stroke-linecap="butt" stroke-linejoin="round" stroke-opacity="1.0" stroke-width="1.0000001192092896" />
            <path d=" M 396.837, 399.163 393.060, 391.465 390.218, 389.354 385.952, 380.310 381.685, 371.266 377.418, 362.222 373.151, 353.178 368.884, 344.134 364.617, 335.090 360.350, 326.046 356.084, 317.002 355.591, 315.958 351.348, 306.902 347.106, 297.847 342.863, 288.791 340.463, 283.668 330.817, 281.032 321.171, 278.396 311.525, 275.760 301.878, 273.123 292.232, 270.487 282.586, 267.851 276.053, 266.065 275.251, 256.097 274.882, 251.507 277.697, 241.911 280.512, 232.316 283.231, 223.050 284.003, 220.419 284.004, 220.406 " fill="none" stroke="rgb(0, 0, 0)" stroke-linecap="butt" stroke-linejoin="round" stroke-opacity="1.0" stroke-width="1.0000001192092896" />
            <path d=" M 269.690, 275.696 271.789, 265.919 273.887, 256.142 274.882, 251.507 276.952, 241.723 277.291, 240.119 " fill="none" stroke="rgb(0, 0, 0)" stroke-linecap="butt" stroke-linejoin="round" stroke-opacity="1.0" stroke-width="1.0000001192092896" />
            <path d=" M 284.002, 220.410 284.003, 220.419 283.999, 220.419 " fill="none" stroke="rgb(0, 0, 0)" stroke-linecap="butt" stroke-linejoin="round" stroke-opacity="1.0" stroke-width="1.0000001192092896" />
            <path d=" M 250.000, 278.202 259.920, 276.939 269.690, 275.696 275.202, 267.352 276.053, 266.065 " fill="none" stroke="rgb(0, 0, 0)" stroke-linecap="butt" stroke-linejoin="round" stroke-opacity="1.0" stroke-width="1.0000001192092896" />
            <path d=" M 281.460, 220.419 278.274, 219.226 " fill="none" stroke="rgb(0, 0, 0)" stroke-linecap="butt" stroke-linejoin="round" stroke-opacity="1.0" stroke-width="1.0000001192092896" />
            <path d=" M 264.941, 254.400 265.022, 254.638 266.581, 259.230 263.625, 255.081 263.454, 254.841 " fill="none" stroke="rgb(0, 0, 0)" stroke-linecap="butt" stroke-linejoin="round" stroke-opacity="1.0" stroke-width="1.0000001192092896" />
            <path d=" M 250.000, 235.961 250.000, 245.961 250.000, 251.137 " fill="none" stroke="rgb(0, 0, 0)" stroke-linecap="butt" stroke-linejoin="round" stroke-opacity="1.0" stroke-width="1.0000001192092896" />
            <path d=" M 242.678, 231.962 233.656, 227.648 224.635, 223.334 224.434, 223.237 218.540, 220.419 " fill="none" stroke="rgb(0, 0, 0)" stroke-linecap="butt" stroke-linejoin="round" stroke-opacity="1.0" stroke-width="1.0000001192092896" />
            <path d=" M 218.572, 218.275 218.540, 220.419 219.575, 223.119 223.155, 232.456 224.385, 235.664 " fill="none" stroke="rgb(0, 0, 0)" stroke-linecap="butt" stroke-linejoin="round" stroke-opacity="1.0" stroke-width="1.0000001192092896" />
            <path d=" M 233.419, 259.230 234.978, 254.638 235.059, 254.401 " fill="none" stroke="rgb(0, 0, 0)" stroke-linecap="butt" stroke-linejoin="round" stroke-opacity="1.0" stroke-width="1.0000001192092896" />
            <path d=" M 215.997, 220.416 215.997, 220.419 216.769, 223.050 219.584, 232.646 222.400, 242.241 225.118, 251.507 224.317, 261.474 223.947, 266.065 214.301, 268.701 204.655, 271.338 195.009, 273.974 185.362, 276.610 175.716, 279.247 166.070, 281.883 159.537, 283.668 155.295, 292.724 151.052, 301.779 146.809, 310.834 144.409, 315.958 140.142, 325.002 135.875, 334.046 131.608, 343.090 127.342, 352.134 123.075, 361.178 118.808, 370.222 114.541, 379.266 110.274, 388.310 109.782, 389.354 106.938, 391.466 103.162, 399.163 " fill="none" stroke="rgb(0, 0, 0)" stroke-linecap="butt" stroke-linejoin="round" stroke-opacity="1.0" stroke-width="1.0000001192092896" />
            <path d=" M 218.540, 220.419 219.109, 223.107 220.336, 228.905 " fill="none" stroke="rgb(0, 0, 0)" stroke-linecap="butt" stroke-linejoin="round" stroke-opacity="1.0" stroke-width="1.0000001192092896" />
            <path d=" M 218.540, 220.419 217.513, 220.419 " fill="none" stroke="rgb(0, 0, 0)" stroke-linecap="butt" stroke-linejoin="round" stroke-opacity="1.0" stroke-width="1.0000001192092896" />
            <path d=" M 223.947, 266.065 229.459, 274.409 230.310, 275.696 " fill="none" stroke="rgb(0, 0, 0)" stroke-linecap="butt" stroke-linejoin="round" stroke-opacity="1.0" stroke-width="1.0000001192092896" />
            <path d=" M 250.000, 263.705 250.000, 273.705 250.000, 278.202 240.080, 276.939 230.310, 275.696 228.211, 265.919 226.113, 256.142 225.118, 251.507 " fill="none" stroke="rgb(0, 0, 0)" stroke-linecap="butt" stroke-linejoin="round" stroke-opacity="1.0" stroke-width="1.0000001192092896" />
            <path d=" M 230.310, 275.696 238.015, 269.322 245.720, 262.948 246.083, 262.648 " fill="none" stroke="rgb(0, 0, 0)" stroke-linecap="butt" stroke-linejoin="round" stroke-opacity="1.0" stroke-width="1.0000001192092896" />
            <path d=" M 237.497, 247.221 240.712, 237.752 242.678, 231.962 245.257, 223.746 245.918, 221.639 " fill="none" stroke="rgb(0, 0, 0)" stroke-linecap="butt" stroke-linejoin="round" stroke-opacity="1.0" stroke-width="1.0000001192092896" />
            <path d=" M 221.726, 219.226 218.540, 220.419 219.894, 218.673 " fill="none" stroke="rgb(0, 0, 0)" stroke-linecap="butt" stroke-linejoin="round" stroke-opacity="1.0" stroke-width="1.0000001192092896" />
            <path d=" M 258.841, 248.368 253.038, 240.224 250.000, 235.961 244.197, 244.105 241.159, 248.368 " fill="none" stroke="rgb(0, 0, 0)" stroke-linecap="butt" stroke-linejoin="round" stroke-opacity="1.0" stroke-width="1.0000001192092896" />
            <path d=" M 364.242, 414.362 364.575, 414.419 " fill="none" stroke="rgb(0, 0, 0)" stroke-linecap="butt" stroke-linejoin="round" stroke-opacity="1.0" stroke-width="1.0000001192092896" />
            <path d=" M 364.242, 414.362 364.579, 414.444 " fill="none" stroke="rgb(0, 0, 0)" stroke-linecap="butt" stroke-linejoin="round" stroke-opacity="1.0" stroke-width="1.0000001192092896" />
            <path d=" M 387.970, 420.094 388.184, 420.146 388.250, 420.109 " fill="none" stroke="rgb(0, 0, 0)" stroke-linecap="butt" stroke-linejoin="round" stroke-opacity="1.0" stroke-width="1.0000001192092896" />
            <path d=" M 363.435, 408.086 364.242, 414.362 361.185, 404.841 360.273, 402.003 354.287, 393.993 348.300, 385.983 342.314, 377.973 336.328, 369.963 330.341, 361.953 324.355, 353.943 322.359, 351.273 321.201, 361.206 320.043, 371.138 318.884, 381.071 317.726, 391.004 316.568, 400.936 315.409, 410.869 314.251, 420.802 313.092, 430.734 311.934, 440.667 310.776, 450.600 309.729, 459.571 311.612, 469.392 313.495, 479.213 315.378, 489.034 317.261, 498.855 319.143, 508.677 321.026, 518.498 322.909, 528.319 324.792, 538.140 325.973, 544.303 " fill="none" stroke="rgb(0, 0, 0)" stroke-linecap="butt" stroke-linejoin="round" stroke-opacity="1.0" stroke-width="1.0000001192092896" />
            <path d=" M 371.270, 380.235 368.562, 389.861 367.512, 393.594 366.502, 397.185 366.225, 398.168 " fill="none" stroke="rgb(0, 0, 0)" stroke-linecap="butt" stroke-linejoin="round" stroke-opacity="1.0" stroke-width="1.0000001192092896" />
            <path d=" M 393.060, 391.465 384.339, 396.358 380.298, 398.626 " fill="none" stroke="rgb(0, 0, 0)" stroke-linecap="butt" stroke-linejoin="round" stroke-opacity="1.0" stroke-width="1.0000001192092896" />
            <path d=" M 385.222, 398.786 392.531, 391.960 393.060, 391.465 384.171, 386.884 375.282, 382.303 371.270, 380.235 " fill="none" stroke="rgb(0, 0, 0)" stroke-linecap="butt" stroke-linejoin="round" stroke-opacity="1.0" stroke-width="1.0000001192092896" />
            <path d=" M 360.273, 402.003 364.783, 393.078 369.292, 384.152 371.270, 380.235 " fill="none" stroke="rgb(0, 0, 0)" stroke-linecap="butt" stroke-linejoin="round" stroke-opacity="1.0" stroke-width="1.0000001192092896" />
            <path d=" M 371.270, 380.235 362.666, 375.140 354.061, 370.045 345.457, 364.950 336.852, 359.854 328.247, 354.759 322.359, 351.273 " fill="none" stroke="rgb(0, 0, 0)" stroke-linecap="butt" stroke-linejoin="round" stroke-opacity="1.0" stroke-width="1.0000001192092896" />
            <path d=" M 371.270, 380.235 365.538, 372.041 359.805, 363.847 354.073, 355.654 348.340, 347.460 342.608, 339.266 336.875, 331.072 331.143, 322.878 326.607, 316.394 " fill="none" stroke="rgb(0, 0, 0)" stroke-linecap="butt" stroke-linejoin="round" stroke-opacity="1.0" stroke-width="1.0000001192092896" />
            <path d=" M 294.408, 551.849 293.670, 541.877 292.931, 531.904 292.873, 531.119 292.135, 521.147 291.396, 511.174 290.658, 501.201 289.920, 491.228 289.755, 488.999 289.016, 479.026 288.278, 469.054 287.613, 460.073 288.982, 450.167 290.350, 440.261 291.719, 430.355 293.088, 420.449 294.456, 410.543 295.825, 400.637 297.193, 390.731 298.562, 380.825 299.931, 370.920 301.284, 361.127 306.210, 352.424 311.136, 343.722 316.063, 335.020 320.989, 326.317 325.916, 317.615 326.607, 316.394 325.398, 326.321 324.189, 336.248 322.980, 346.174 322.359, 351.273 " fill="none" stroke="rgb(0, 0, 0)" stroke-linecap="butt" stroke-linejoin="round" stroke-opacity="1.0" stroke-width="1.0000001192092896" />
            <path d=" M 326.607, 316.394 336.605, 316.244 346.604, 316.093 355.591, 315.958 357.961, 325.673 360.331, 335.388 362.701, 345.103 365.070, 354.818 367.440, 364.533 369.810, 374.248 371.270, 380.235 380.281, 384.572 389.292, 388.908 390.218, 389.354 " fill="none" stroke="rgb(0, 0, 0)" stroke-linecap="butt" stroke-linejoin="round" stroke-opacity="1.0" stroke-width="1.0000001192092896" />
            <path d=" M 269.690, 275.696 279.627, 276.816 289.565, 277.935 299.502, 279.054 309.439, 280.174 319.376, 281.293 329.313, 282.412 339.250, 283.532 340.463, 283.668 336.564, 292.877 332.665, 302.086 328.766, 311.294 326.607, 316.394 " fill="none" stroke="rgb(0, 0, 0)" stroke-linecap="butt" stroke-linejoin="round" stroke-opacity="1.0" stroke-width="1.0000001192092896" />
            <path d=" M 408.288, 414.187 406.816, 404.296 406.661, 403.259 404.395, 399.409 396.837, 399.163 391.779, 398.999 389.586, 398.927 385.222, 398.786 380.298, 398.626 373.965, 398.420 368.225, 398.233 367.568, 398.212 367.035, 398.195 366.225, 398.168 365.741, 398.153 362.506, 398.047 362.854, 401.805 363.039, 403.801 363.435, 408.086 364.414, 413.526 364.561, 414.341 364.575, 414.419 364.579, 414.444 365.378, 418.881 375.364, 419.417 385.349, 419.954 387.970, 420.094 388.117, 420.102 388.140, 420.103 388.187, 420.106 388.191, 420.106 388.250, 420.109 398.235, 420.645 405.112, 421.014 408.288, 414.187 " fill="none" stroke="rgb(0, 0, 0)" stroke-linecap="butt" stroke-linejoin="round" stroke-opacity="1.0" stroke-width="1.0000001192092896" />
            <path d=" M 367.341, 403.382 375.736, 403.356 385.736, 403.324 388.588, 403.316 398.587, 403.284 398.858, 403.283 406.661, 403.259 399.736, 405.072 394.092, 406.550 384.418, 409.083 374.744, 411.615 372.088, 412.311 368.131, 413.347 " fill="none" stroke="rgb(0, 0, 0)" stroke-linecap="butt" stroke-linejoin="round" stroke-opacity="1.0" stroke-width="1.0000001192092896" />
            <path d=" M 368.131, 413.347 374.481, 413.479 376.889, 413.530 386.887, 413.739 396.885, 413.948 399.144, 413.996 408.288, 414.187 " fill="none" stroke="rgb(0, 0, 0)" stroke-linecap="butt" stroke-linejoin="round" stroke-opacity="1.0" stroke-width="1.0000001192092896" />
            <path d=" M 362.506, 398.047 365.370, 401.208 366.659, 402.629 367.341, 403.382 367.588, 406.489 367.886, 410.260 368.131, 413.347 367.740, 414.132 367.359, 414.898 367.263, 415.092 365.378, 418.881 " fill="none" stroke="rgb(0, 0, 0)" stroke-linecap="butt" stroke-linejoin="round" stroke-opacity="1.0" stroke-width="1.0000001192092896" />
            <path d=" M 362.506, 398.047 363.740, 407.002 363.867, 407.920 363.923, 408.324 364.549, 412.870 364.750, 414.329 364.767, 414.452 364.773, 414.490 365.378, 418.881 " fill="none" stroke="rgb(0, 0, 0)" stroke-linecap="butt" stroke-linejoin="round" stroke-opacity="1.0" stroke-width="1.0000001192092896" />
            <path d=" M 408.288, 414.187 398.348, 415.275 396.506, 415.476 386.566, 416.564 381.854, 417.079 380.751, 417.200 377.473, 417.558 367.532, 418.646 365.378, 418.881 365.900, 414.763 365.914, 414.649 365.965, 414.249 366.553, 409.608 366.915, 406.748 367.341, 403.382 377.284, 402.316 378.887, 402.144 385.404, 401.445 395.347, 400.379 397.329, 400.166 404.395, 399.409 " fill="none" stroke="rgb(0, 0, 0)" stroke-linecap="butt" stroke-linejoin="round" stroke-opacity="1.0" stroke-width="1.0000001192092896" />
            <path d=" M 91.712, 414.187 100.856, 413.996 110.854, 413.786 120.852, 413.577 123.115, 413.530 125.620, 413.477 131.869, 413.346 " fill="none" stroke="rgb(0, 0, 0)" stroke-linecap="butt" stroke-linejoin="round" stroke-opacity="1.0" stroke-width="1.0000001192092896" />
            <path d=" M 131.869, 413.346 127.964, 412.324 118.290, 409.791 108.616, 407.259 106.577, 406.725 100.264, 405.072 93.339, 403.259 " fill="none" stroke="rgb(0, 0, 0)" stroke-linecap="butt" stroke-linejoin="round" stroke-opacity="1.0" stroke-width="1.0000001192092896" />
            <path d=" M 135.758, 414.362 136.567, 408.092 136.963, 403.801 137.147, 401.806 137.494, 398.047 134.259, 398.153 133.775, 398.168 132.965, 398.195 132.432, 398.212 131.775, 398.233 126.034, 398.420 119.697, 398.626 115.085, 398.776 110.414, 398.927 108.219, 398.999 103.162, 399.163 95.605, 399.409 93.339, 403.259 91.866, 413.150 91.712, 414.187 94.888, 421.014 104.873, 420.478 111.750, 420.109 111.809, 420.106 111.813, 420.106 111.859, 420.103 111.883, 420.102 112.029, 420.094 122.015, 419.558 132.000, 419.022 134.622, 418.881 135.422, 414.443 135.426, 414.420 135.441, 414.341 135.587, 413.530 136.567, 408.092 " fill="none" stroke="rgb(0, 0, 0)" stroke-linecap="butt" stroke-linejoin="round" stroke-opacity="1.0" stroke-width="1.0000001192092896" />
            <path d=" M 134.622, 418.881 132.737, 415.092 132.647, 414.910 132.259, 414.131 131.869, 413.346 132.112, 410.284 132.409, 406.533 132.659, 403.382 " fill="none" stroke="rgb(0, 0, 0)" stroke-linecap="butt" stroke-linejoin="round" stroke-opacity="1.0" stroke-width="1.0000001192092896" />
            <path d=" M 137.494, 398.047 134.630, 401.207 133.342, 402.628 132.659, 403.382 123.928, 403.354 113.928, 403.323 113.018, 403.320 103.018, 403.289 101.141, 403.283 93.339, 403.259 " fill="none" stroke="rgb(0, 0, 0)" stroke-linecap="butt" stroke-linejoin="round" stroke-opacity="1.0" stroke-width="1.0000001192092896" />
            <path d=" M 134.622, 418.881 134.100, 414.762 134.087, 414.656 134.035, 414.248 133.450, 409.626 133.090, 406.789 132.659, 403.382 122.716, 402.316 120.530, 402.081 116.234, 401.621 106.291, 400.554 102.670, 400.166 95.605, 399.409 " fill="none" stroke="rgb(0, 0, 0)" stroke-linecap="butt" stroke-linejoin="round" stroke-opacity="1.0" stroke-width="1.0000001192092896" />
            <path d=" M 91.712, 414.187 101.653, 415.275 103.494, 415.476 113.435, 416.564 118.271, 417.093 119.492, 417.226 122.527, 417.558 132.467, 418.646 134.622, 418.881 135.227, 414.490 135.232, 414.454 135.250, 414.328 135.451, 412.869 136.076, 408.334 136.132, 407.929 136.260, 407.000 137.494, 398.047 " fill="none" stroke="rgb(0, 0, 0)" stroke-linecap="butt" stroke-linejoin="round" stroke-opacity="1.0" stroke-width="1.0000001192092896" />
            <path d=" M 287.613, 460.073 283.890, 469.354 280.167, 478.635 279.372, 480.617 275.649, 489.898 271.927, 499.179 268.204, 508.461 264.481, 517.742 260.758, 527.023 259.090, 531.183 255.367, 540.464 251.644, 549.745 250.000, 553.844 " fill="none" stroke="rgb(0, 0, 0)" stroke-linecap="butt" stroke-linejoin="round" stroke-opacity="1.0" stroke-width="1.0000001192092896" />
            <path d=" M 174.027, 544.303 175.653, 544.697 176.529, 544.909 186.248, 547.266 195.966, 549.623 205.176, 551.856 206.392, 551.910 206.518, 551.916 206.817, 551.929 209.706, 552.057 219.696, 552.500 229.686, 552.943 231.319, 553.015 241.309, 553.458 249.805, 553.835 250.000, 553.844 250.001, 553.844 250.002, 553.844 250.195, 553.835 260.185, 553.386 268.672, 553.005 278.662, 552.556 288.652, 552.108 290.299, 552.034 293.210, 551.903 293.481, 551.891 293.596, 551.886 294.408, 551.849 304.134, 549.524 313.860, 547.199 323.487, 544.897 324.347, 544.691 325.973, 544.303 " fill="none" stroke="rgb(0, 0, 0)" stroke-linecap="butt" stroke-linejoin="round" stroke-opacity="1.0" stroke-width="1.0000001192092896" />
            <path d=" M 287.613, 460.073 277.614, 459.939 267.615, 459.806 257.616, 459.672 253.359, 459.616 250.000, 459.571 " fill="none" stroke="rgb(0, 0, 0)" stroke-linecap="butt" stroke-linejoin="round" stroke-opacity="1.0" stroke-width="1.0000001192092896" />
            <path d=" M 250.000, 459.571 250.000, 469.571 250.000, 479.571 250.000, 489.571 250.000, 499.571 250.000, 509.571 250.000, 519.571 250.000, 529.571 250.000, 539.571 250.000, 549.571 250.000, 553.844 246.277, 544.562 242.554, 535.281 240.910, 531.183 237.188, 521.901 233.465, 512.620 229.742, 503.339 226.019, 494.058 222.296, 484.777 220.628, 480.617 216.905, 471.336 213.182, 462.055 212.387, 460.073 " fill="none" stroke="rgb(0, 0, 0)" stroke-linecap="butt" stroke-linejoin="round" stroke-opacity="1.0" stroke-width="1.0000001192092896" />
            <path d=" M 287.613, 460.073 297.610, 459.846 307.608, 459.619 309.729, 459.571 308.875, 449.607 308.020, 439.644 307.165, 429.681 306.310, 419.717 305.456, 409.754 304.601, 399.790 303.746, 389.827 302.891, 379.864 302.036, 369.900 301.284, 361.127 " fill="none" stroke="rgb(0, 0, 0)" stroke-linecap="butt" stroke-linejoin="round" stroke-opacity="1.0" stroke-width="1.0000001192092896" />
            <path d=" M 322.359, 351.273 313.301, 355.508 304.242, 359.744 301.284, 361.127 291.301, 360.546 281.317, 359.966 271.334, 359.386 261.351, 358.805 251.368, 358.225 250.000, 358.146 " fill="none" stroke="rgb(0, 0, 0)" stroke-linecap="butt" stroke-linejoin="round" stroke-opacity="1.0" stroke-width="1.0000001192092896" />
            <path d=" M 325.973, 544.303 321.829, 535.202 320.058, 531.314 315.913, 522.213 311.769, 513.112 307.624, 504.012 307.202, 503.085 303.057, 493.984 298.912, 484.884 294.768, 475.783 290.623, 466.682 287.613, 460.073 284.151, 450.691 280.689, 441.309 277.227, 431.928 273.765, 422.546 270.303, 413.165 266.841, 403.783 263.379, 394.401 259.917, 385.020 256.455, 375.638 252.993, 366.257 250.000, 358.146 " fill="none" stroke="rgb(0, 0, 0)" stroke-linecap="butt" stroke-linejoin="round" stroke-opacity="1.0" stroke-width="1.0000001192092896" />
            <path d=" M 250.000, 358.146 250.000, 368.146 250.000, 378.146 250.000, 388.146 250.000, 398.146 250.000, 408.146 250.000, 418.146 250.000, 428.146 250.000, 438.146 250.000, 448.146 250.000, 456.904 250.000, 459.571 246.641, 459.616 236.642, 459.749 226.643, 459.882 216.644, 460.016 212.387, 460.073 " fill="none" stroke="rgb(0, 0, 0)" stroke-linecap="butt" stroke-linejoin="round" stroke-opacity="1.0" stroke-width="1.0000001192092896" />
            <path d=" M 253.917, 262.648 261.622, 269.022 269.327, 275.396 269.690, 275.696 277.825, 281.513 285.959, 287.329 294.093, 293.146 302.228, 298.962 310.362, 304.779 318.497, 310.595 326.607, 316.394 " fill="none" stroke="rgb(0, 0, 0)" stroke-linecap="butt" stroke-linejoin="round" stroke-opacity="1.0" stroke-width="1.0000001192092896" />
            <path d=" M 250.000, 358.146 258.781, 353.360 267.561, 348.575 276.342, 343.789 285.122, 339.003 293.903, 334.218 302.684, 329.432 311.464, 324.647 320.245, 319.862 326.607, 316.394 317.657, 311.932 308.708, 307.471 299.758, 303.009 290.809, 298.547 281.859, 294.085 272.910, 289.623 263.961, 285.162 255.011, 280.700 250.000, 278.202 " fill="none" stroke="rgb(0, 0, 0)" stroke-linecap="butt" stroke-linejoin="round" stroke-opacity="1.0" stroke-width="1.0000001192092896" />
            <path d=" M 173.397, 316.387 182.347, 311.925 191.296, 307.464 200.246, 303.003 209.196, 298.542 218.145, 294.080 227.095, 289.619 236.045, 285.158 244.995, 280.697 250.000, 278.202 250.000, 288.202 250.000, 298.202 250.000, 308.202 250.000, 318.202 250.000, 328.202 250.000, 338.202 250.000, 348.202 250.000, 358.146 " fill="none" stroke="rgb(0, 0, 0)" stroke-linecap="butt" stroke-linejoin="round" stroke-opacity="1.0" stroke-width="1.0000001192092896" />
            <path d=" M 173.397, 316.387 178.322, 325.090 183.247, 333.793 188.172, 342.496 193.098, 351.199 198.023, 359.902 198.716, 361.127 200.085, 371.033 201.453, 380.939 202.822, 390.845 204.191, 400.751 205.559, 410.657 206.928, 420.562 208.297, 430.468 209.665, 440.374 211.034, 450.280 212.387, 460.073 211.604, 470.042 210.820, 480.011 210.105, 489.112 209.322, 499.081 208.539, 509.051 207.755, 519.020 206.972, 528.989 206.805, 531.119 206.022, 541.088 205.238, 551.057 205.176, 551.856 " fill="none" stroke="rgb(0, 0, 0)" stroke-linecap="butt" stroke-linejoin="round" stroke-opacity="1.0" stroke-width="1.0000001192092896" />
            <path d=" M 173.397, 316.387 169.496, 307.179 165.596, 297.971 161.695, 288.763 159.537, 283.668 169.474, 282.549 179.412, 281.430 189.349, 280.310 199.286, 279.191 209.223, 278.072 219.160, 276.952 229.097, 275.833 230.310, 275.696 222.175, 281.512 214.040, 287.328 205.905, 293.144 197.771, 298.960 189.636, 304.776 181.501, 310.592 173.397, 316.387 " fill="none" stroke="rgb(0, 0, 0)" stroke-linecap="butt" stroke-linejoin="round" stroke-opacity="1.0" stroke-width="1.0000001192092896" />
            <path d=" M 198.716, 361.127 197.861, 371.091 197.007, 381.054 196.152, 391.017 195.297, 400.981 194.442, 410.944 193.588, 420.908 192.733, 430.871 191.878, 440.834 191.023, 450.798 190.271, 459.571 " fill="none" stroke="rgb(0, 0, 0)" stroke-linecap="butt" stroke-linejoin="round" stroke-opacity="1.0" stroke-width="1.0000001192092896" />
            <path d=" M 190.271, 459.571 200.268, 459.798 210.265, 460.024 212.387, 460.073 " fill="none" stroke="rgb(0, 0, 0)" stroke-linecap="butt" stroke-linejoin="round" stroke-opacity="1.0" stroke-width="1.0000001192092896" />
            <path d=" M 250.000, 358.146 240.017, 358.726 230.034, 359.306 220.051, 359.887 210.067, 360.467 200.084, 361.048 198.716, 361.127 189.657, 356.892 180.599, 352.656 177.641, 351.273 " fill="none" stroke="rgb(0, 0, 0)" stroke-linecap="butt" stroke-linejoin="round" stroke-opacity="1.0" stroke-width="1.0000001192092896" />
            <path d=" M 135.758, 414.362 138.816, 404.841 139.726, 402.005 145.713, 393.995 151.699, 385.985 157.685, 377.974 163.672, 369.964 169.658, 361.954 175.645, 353.944 177.641, 351.273 178.799, 361.206 179.957, 371.138 181.116, 381.071 182.274, 391.004 183.432, 400.936 184.591, 410.869 185.749, 420.802 186.908, 430.734 188.066, 440.667 189.224, 450.600 190.271, 459.571 188.388, 469.392 186.505, 479.213 184.622, 489.034 182.739, 498.855 180.857, 508.677 178.974, 518.498 177.091, 528.319 175.208, 538.140 174.027, 544.303 " fill="none" stroke="rgb(0, 0, 0)" stroke-linecap="butt" stroke-linejoin="round" stroke-opacity="1.0" stroke-width="1.0000001192092896" />
            <path d=" M 173.397, 316.387 182.177, 321.173 190.957, 325.959 199.737, 330.746 208.518, 335.532 217.298, 340.318 226.078, 345.105 234.858, 349.891 243.638, 354.677 250.000, 358.146 246.538, 367.527 243.076, 376.909 239.614, 386.290 236.152, 395.672 232.690, 405.054 229.228, 414.435 225.766, 423.817 222.304, 433.198 218.842, 442.580 215.380, 451.962 212.387, 460.073 208.242, 469.173 204.098, 478.274 199.953, 487.375 195.808, 496.475 192.798, 503.085 188.654, 512.186 184.509, 521.286 180.364, 530.387 179.942, 531.314 175.797, 540.414 174.027, 544.303 " fill="none" stroke="rgb(0, 0, 0)" stroke-linecap="butt" stroke-linejoin="round" stroke-opacity="1.0" stroke-width="1.0000001192092896" />
            <path d=" M 133.775, 398.168 133.498, 397.184 132.488, 393.591 129.779, 383.964 128.730, 380.235 134.462, 372.041 140.195, 363.847 145.927, 355.653 151.659, 347.459 157.392, 339.265 163.124, 331.071 168.856, 322.877 173.397, 316.387 174.604, 326.314 175.812, 336.240 177.020, 346.167 177.641, 351.273 " fill="none" stroke="rgb(0, 0, 0)" stroke-linecap="butt" stroke-linejoin="round" stroke-opacity="1.0" stroke-width="1.0000001192092896" />
            <path d=" M 111.750, 420.109 111.815, 420.146 112.029, 420.094 " fill="none" stroke="rgb(0, 0, 0)" stroke-linecap="butt" stroke-linejoin="round" stroke-opacity="1.0" stroke-width="1.0000001192092896" />
            <path d=" M 128.730, 380.235 119.841, 384.816 110.952, 389.397 106.938, 391.466 " fill="none" stroke="rgb(0, 0, 0)" stroke-linecap="butt" stroke-linejoin="round" stroke-opacity="1.0" stroke-width="1.0000001192092896" />
            <path d=" M 115.085, 398.776 107.642, 392.098 106.938, 391.466 115.659, 396.360 119.697, 398.626 " fill="none" stroke="rgb(0, 0, 0)" stroke-linecap="butt" stroke-linejoin="round" stroke-opacity="1.0" stroke-width="1.0000001192092896" />
            <path d=" M 177.641, 351.273 169.036, 356.368 160.431, 361.463 151.827, 366.558 143.222, 371.654 134.618, 376.749 128.730, 380.235 " fill="none" stroke="rgb(0, 0, 0)" stroke-linecap="butt" stroke-linejoin="round" stroke-opacity="1.0" stroke-width="1.0000001192092896" />
            <path d=" M 128.730, 380.235 133.239, 389.161 137.747, 398.087 139.726, 402.005 " fill="none" stroke="rgb(0, 0, 0)" stroke-linecap="butt" stroke-linejoin="round" stroke-opacity="1.0" stroke-width="1.0000001192092896" />
            <path d=" M 173.397, 316.387 163.398, 316.239 153.399, 316.091 144.409, 315.958 142.039, 325.673 139.669, 335.388 137.300, 345.103 134.930, 354.818 132.560, 364.534 130.190, 374.249 128.730, 380.235 119.719, 384.571 110.708, 388.908 109.782, 389.354 " fill="none" stroke="rgb(0, 0, 0)" stroke-linecap="butt" stroke-linejoin="round" stroke-opacity="1.0" stroke-width="1.0000001192092896" />
            <path d=" M 216.769, 223.050 215.177, 223.011 211.175, 217.835 212.536, 214.235 213.673, 215.058 214.182, 215.427 215.036, 216.045 215.043, 216.051 215.875, 216.653 216.035, 216.769 216.353, 216.999 216.438, 217.061 217.788, 218.038 217.802, 218.043 218.572, 218.275 219.894, 218.673 220.227, 218.774 221.726, 219.226 229.123, 221.456 239.122, 221.565 240.649, 221.582 245.918, 221.639 248.671, 221.670 250.000, 221.684 250.000, 221.684 250.000, 221.684 250.000, 221.684 251.329, 221.670 254.082, 221.639 259.351, 221.582 269.350, 221.473 270.877, 221.456 278.274, 219.226 279.773, 218.774 280.106, 218.673 281.428, 218.275 282.198, 218.043 282.212, 218.038 283.558, 217.064 283.647, 216.999 283.965, 216.769 284.125, 216.653 284.953, 216.053 284.964, 216.045 285.818, 215.427 286.322, 215.062 287.464, 214.235 290.311, 217.835 284.823, 223.011 283.231, 223.050 " fill="none" stroke="rgb(0, 0, 0)" stroke-linecap="butt" stroke-linejoin="round" stroke-opacity="1.0" stroke-width="1.0000001192092896" />
            <path d=" M 250.000, 221.684 250.000, 211.684 250.000, 206.354 " fill="none" stroke="rgb(0, 0, 0)" stroke-linecap="butt" stroke-linejoin="round" stroke-opacity="1.0" stroke-width="1.0000001192092896" />
            <path d=" M 250.000, 206.354 241.898, 212.215 233.795, 218.076 229.123, 221.456 " fill="none" stroke="rgb(0, 0, 0)" stroke-linecap="butt" stroke-linejoin="round" stroke-opacity="1.0" stroke-width="1.0000001192092896" />
            <path d=" M 215.177, 223.011 215.079, 218.161 " fill="none" stroke="rgb(0, 0, 0)" stroke-linecap="butt" stroke-linejoin="round" stroke-opacity="1.0" stroke-width="1.0000001192092896" />
            <path d=" M 215.177, 223.011 214.321, 216.489 " fill="none" stroke="rgb(0, 0, 0)" stroke-linecap="butt" stroke-linejoin="round" stroke-opacity="1.0" stroke-width="1.0000001192092896" />
            <path d=" M 243.028, 153.603 233.054, 154.321 223.080, 155.039 214.968, 155.623 206.872, 159.708 207.611, 169.681 208.349, 179.654 209.087, 189.626 209.825, 199.599 210.563, 209.572 211.175, 217.835 " fill="none" stroke="rgb(0, 0, 0)" stroke-linecap="butt" stroke-linejoin="round" stroke-opacity="1.0" stroke-width="1.0000001192092896" />
            <path d=" M 217.224, 212.124 227.072, 210.390 236.921, 208.656 246.770, 206.923 250.000, 206.354 " fill="none" stroke="rgb(0, 0, 0)" stroke-linecap="butt" stroke-linejoin="round" stroke-opacity="1.0" stroke-width="1.0000001192092896" />
            <path d=" M 250.000, 206.354 244.318, 198.125 238.636, 189.896 232.953, 181.668 227.271, 173.439 225.428, 170.770 219.746, 162.541 214.968, 155.623 " fill="none" stroke="rgb(0, 0, 0)" stroke-linecap="butt" stroke-linejoin="round" stroke-opacity="1.0" stroke-width="1.0000001192092896" />
            <path d=" M 212.536, 214.235 212.600, 212.690 212.756, 208.929 213.171, 198.938 213.585, 188.947 214.000, 178.955 214.415, 168.964 214.829, 158.972 214.968, 155.623 215.367, 165.615 215.645, 172.565 216.044, 182.557 216.443, 192.549 216.841, 202.541 217.224, 212.124 " fill="none" stroke="rgb(0, 0, 0)" stroke-linecap="butt" stroke-linejoin="round" stroke-opacity="1.0" stroke-width="1.0000001192092896" />
            <path d=" M 282.776, 212.124 272.927, 210.390 263.079, 208.656 253.230, 206.923 250.000, 206.354 250.000, 196.354 250.000, 186.354 250.000, 176.354 250.000, 166.262 250.000, 156.262 250.000, 153.603 " fill="none" stroke="rgb(0, 0, 0)" stroke-linecap="butt" stroke-linejoin="round" stroke-opacity="1.0" stroke-width="1.0000001192092896" />
            <path d=" M 250.000, 206.354 240.599, 209.764 231.199, 213.174 221.798, 216.584 217.788, 218.038 217.224, 212.124 215.751, 212.787 215.164, 213.051 213.171, 213.949 212.536, 214.235 212.309, 212.046 212.077, 209.814 211.044, 199.867 210.011, 189.921 208.977, 179.974 207.944, 170.028 206.872, 159.708 " fill="none" stroke="rgb(0, 0, 0)" stroke-linecap="butt" stroke-linejoin="round" stroke-opacity="1.0" stroke-width="1.0000001192092896" />
            <path d=" M 270.877, 221.456 262.775, 215.595 254.672, 209.734 250.000, 206.354 " fill="none" stroke="rgb(0, 0, 0)" stroke-linecap="butt" stroke-linejoin="round" stroke-opacity="1.0" stroke-width="1.0000001192092896" />
            <path d=" M 290.311, 217.835 290.795, 207.847 291.279, 197.858 291.763, 187.870 292.247, 177.882 292.731, 167.894 293.128, 159.708 285.032, 155.623 275.057, 154.905 265.083, 154.187 256.972, 153.603 " fill="none" stroke="rgb(0, 0, 0)" stroke-linecap="butt" stroke-linejoin="round" stroke-opacity="1.0" stroke-width="1.0000001192092896" />
            <path d=" M 282.776, 212.124 282.212, 218.038 272.811, 214.628 263.411, 211.218 254.010, 207.809 250.000, 206.354 255.682, 198.125 261.364, 189.896 267.047, 181.668 272.729, 173.439 274.572, 170.770 280.254, 162.541 285.032, 155.623 " fill="none" stroke="rgb(0, 0, 0)" stroke-linecap="butt" stroke-linejoin="round" stroke-opacity="1.0" stroke-width="1.0000001192092896" />
            <path d=" M 293.128, 159.708 292.094, 169.655 291.061, 179.601 290.028, 189.548 288.995, 199.494 287.923, 209.818 287.692, 212.036 287.464, 214.235 286.826, 213.948 284.833, 213.050 284.249, 212.787 282.776, 212.124 283.175, 202.132 283.574, 192.139 283.973, 182.147 284.355, 172.565 284.754, 162.573 285.032, 155.623 285.446, 165.614 285.861, 175.605 286.276, 185.597 286.690, 195.588 287.105, 205.580 287.244, 208.934 287.400, 212.682 287.464, 214.235 " fill="none" stroke="rgb(0, 0, 0)" stroke-linecap="butt" stroke-linejoin="round" stroke-opacity="1.0" stroke-width="1.0000001192092896" />
            <path d=" M 213.673, 215.058 214.321, 216.489 215.079, 218.161 215.683, 219.494 215.997, 220.416 215.997, 220.416 215.997, 220.417 215.998, 220.419 216.895, 223.053 220.118, 232.520 222.490, 239.483 222.713, 240.139 225.230, 247.529 226.041, 248.143 226.993, 248.862 230.445, 251.471 233.844, 254.041 235.059, 254.401 236.546, 254.841 243.434, 256.882 250.000, 258.827 250.001, 258.827 250.002, 258.827 256.566, 256.882 263.454, 254.841 264.941, 254.400 266.155, 254.041 269.556, 251.469 273.006, 248.861 273.958, 248.141 274.768, 247.529 277.291, 240.119 277.515, 239.462 280.738, 229.996 283.102, 223.053 283.999, 220.419 284.002, 220.410 284.003, 220.407 284.004, 220.406 284.314, 219.494 284.921, 218.153 285.680, 216.478 286.322, 215.062 " fill="none" stroke="rgb(0, 0, 0)" stroke-linecap="butt" stroke-linejoin="round" stroke-opacity="1.0" stroke-width="1.0000001192092896" />
            <path d=" M 263.703, 246.844 266.155, 254.041 256.313, 252.272 250.000, 251.137 " fill="none" stroke="rgb(0, 0, 0)" stroke-linecap="butt" stroke-linejoin="round" stroke-opacity="1.0" stroke-width="1.0000001192092896" />
            <path d=" M 250.000, 251.137 250.000, 258.827 " fill="none" stroke="rgb(0, 0, 0)" stroke-linecap="butt" stroke-linejoin="round" stroke-opacity="1.0" stroke-width="1.0000001192092896" />
            <path d=" M 283.558, 217.064 282.667, 219.867 282.483, 220.419 281.595, 223.090 280.133, 227.485 279.669, 228.882 278.230, 233.207 275.617, 235.660 271.575, 239.454 271.374, 239.643 264.085, 246.485 263.703, 246.844 262.503, 247.220 258.841, 248.368 250.000, 251.137 250.000, 251.137 250.000, 251.137 241.159, 248.368 237.497, 247.221 236.296, 246.844 235.918, 246.489 228.626, 239.645 228.424, 239.456 224.385, 235.664 221.767, 233.207 220.336, 228.905 219.872, 227.510 218.402, 223.090 217.513, 220.419 217.330, 219.867 216.438, 217.061 " fill="none" stroke="rgb(0, 0, 0)" stroke-linecap="butt" stroke-linejoin="round" stroke-opacity="1.0" stroke-width="1.0000001192092896" />
            <path d=" M 278.230, 233.207 275.881, 242.927 274.768, 247.529 264.787, 246.911 263.703, 246.844 " fill="none" stroke="rgb(0, 0, 0)" stroke-linecap="butt" stroke-linejoin="round" stroke-opacity="1.0" stroke-width="1.0000001192092896" />
            <path d=" M 284.314, 219.494 284.011, 220.177 282.731, 223.062 278.676, 232.203 278.230, 233.207 " fill="none" stroke="rgb(0, 0, 0)" stroke-linecap="butt" stroke-linejoin="round" stroke-opacity="1.0" stroke-width="1.0000001192092896" />
            <path d=" M 284.953, 216.053 284.314, 219.494 284.031, 219.558 282.667, 219.867 " fill="none" stroke="rgb(0, 0, 0)" stroke-linecap="butt" stroke-linejoin="round" stroke-opacity="1.0" stroke-width="1.0000001192092896" />
            <path d=" M 221.767, 233.207 224.117, 242.927 225.230, 247.529 235.211, 246.911 236.296, 246.844 233.844, 254.041 243.686, 252.272 250.000, 251.137 " fill="none" stroke="rgb(0, 0, 0)" stroke-linecap="butt" stroke-linejoin="round" stroke-opacity="1.0" stroke-width="1.0000001192092896" />
            <path d=" M 217.330, 219.867 215.969, 219.559 215.683, 219.494 " fill="none" stroke="rgb(0, 0, 0)" stroke-linecap="butt" stroke-linejoin="round" stroke-opacity="1.0" stroke-width="1.0000001192092896" />
            <path d=" M 215.043, 216.051 215.683, 219.494 215.989, 220.185 217.266, 223.062 221.322, 232.203 221.767, 233.207 " fill="none" stroke="rgb(0, 0, 0)" stroke-linecap="butt" stroke-linejoin="round" stroke-opacity="1.0" stroke-width="1.0000001192092896" />
            <path d=" M 229.385, 44.429 229.385, 44.429 229.385, 54.429 229.385, 64.429 229.385, 74.429 229.385, 84.429 229.385, 94.429 229.385, 99.018 229.385, 109.018 229.385, 119.018 229.385, 129.018 229.385, 139.018 229.385, 149.018 229.385, 153.603 229.385, 153.603 " fill="none" stroke="rgb(0, 0, 0)" stroke-linecap="butt" stroke-linejoin="round" stroke-opacity="1.0" stroke-width="1.0000001192092896" />
            <path d=" M 229.385, 99.018 229.385, 99.018 " fill="none" stroke="rgb(0, 0, 0)" stroke-linecap="butt" stroke-linejoin="round" stroke-opacity="1.0" stroke-width="1.0000001192092896" />
            <path d=" M 270.615, 153.603 270.615, 153.603 270.615, 143.603 270.615, 133.603 270.615, 123.603 270.615, 113.603 270.615, 103.603 270.615, 99.018 270.615, 89.018 270.615, 79.018 270.615, 69.018 270.615, 59.018 270.615, 49.018 270.615, 44.429 270.615, 44.429 260.615, 44.429 250.615, 44.429 240.615, 44.429 230.615, 44.429 229.385, 44.429 " fill="none" stroke="rgb(0, 0, 0)" stroke-linecap="butt" stroke-linejoin="round" stroke-opacity="1.0" stroke-width="1.0000001192092896" />
            <path d=" M 270.615, 153.603 270.615, 153.603 264.587, 145.623 258.560, 137.644 252.533, 129.664 246.506, 121.685 240.479, 113.705 234.452, 105.725 229.385, 99.018 229.385, 99.018 229.385, 99.018 239.385, 99.018 249.385, 99.018 259.385, 99.018 269.385, 99.018 270.615, 99.018 270.615, 99.018 " fill="none" stroke="rgb(0, 0, 0)" stroke-linecap="butt" stroke-linejoin="round" stroke-opacity="1.0" stroke-width="1.0000001192092896" />
            <path d=" M 270.615, 44.429 260.615, 44.429 250.615, 44.429 240.615, 44.429 230.615, 44.429 229.385, 44.429 " fill="none" stroke="rgb(0, 0, 0)" stroke-linecap="butt" stroke-linejoin="round" stroke-opacity="1.0" stroke-width="1.0000001192092896" />
            <path d=" M 229.385, 99.018 239.385, 99.018 249.385, 99.018 259.385, 99.018 269.385, 99.018 270.615, 99.018 264.588, 91.038 258.561, 83.059 252.534, 75.079 246.507, 67.099 240.480, 59.119 234.453, 51.140 229.385, 44.429 " fill="none" stroke="rgb(0, 0, 0)" stroke-linecap="butt" stroke-linejoin="round" stroke-opacity="1.0" stroke-width="1.0000001192092896" />
            <path d=" M 229.385, 153.603 229.385, 143.603 229.385, 133.603 229.385, 123.603 229.385, 113.603 229.385, 103.603 229.385, 99.018 229.385, 99.018 235.413, 106.998 241.440, 114.977 247.467, 122.957 253.494, 130.936 259.521, 138.916 265.548, 146.895 270.615, 153.603 " fill="none" stroke="rgb(0, 0, 0)" stroke-linecap="butt" stroke-linejoin="round" stroke-opacity="1.0" stroke-width="1.0000001192092896" />
            <path d=" M 229.385, 153.603 239.385, 153.603 243.028, 153.603 250.000, 153.603 " fill="none" stroke="rgb(0, 0, 0)" stroke-linecap="butt" stroke-linejoin="round" stroke-opacity="1.0" stroke-width="1.0000001192092896" />
            <path d=" M 212.018, 876.534 204.817, 883.472 197.615, 890.411 194.498, 893.415 194.435, 893.475 189.307, 898.416 186.803, 903.554 184.269, 913.227 181.735, 922.901 181.106, 925.302 191.106, 925.302 201.106, 925.302 211.106, 925.302 221.106, 925.302 230.801, 925.302 233.693, 925.302 235.741, 925.302 234.901, 915.338 234.061, 905.373 233.221, 895.408 233.078, 893.715 233.801, 883.741 234.523, 873.767 235.245, 863.793 235.967, 853.819 236.689, 843.845 237.412, 833.871 238.134, 823.898 238.856, 813.924 239.578, 803.950 240.300, 793.976 241.079, 783.218 241.053, 773.218 241.027, 763.218 241.000, 753.218 240.974, 743.218 240.947, 733.218 240.921, 723.218 240.895, 713.218 240.882, 708.459 241.492, 698.478 242.101, 688.496 242.711, 678.515 243.320, 668.533 243.930, 658.552 244.539, 648.571 245.149, 638.589 245.759, 628.608 246.368, 618.626 246.514, 616.237 247.379, 606.274 248.245, 596.312 249.110, 586.349 249.994, 576.176 " fill="none" stroke="rgb(0, 0, 0)" stroke-linecap="butt" stroke-linejoin="round" stroke-opacity="1.0" stroke-width="1.0000001192092896" />
            <path d=" M 230.182, 900.078 228.812, 900.188 218.844, 900.986 208.876, 901.785 198.908, 902.584 188.940, 903.383 186.803, 903.554 " fill="none" stroke="rgb(0, 0, 0)" stroke-linecap="butt" stroke-linejoin="round" stroke-opacity="1.0" stroke-width="1.0000001192092896" />
            <path d=" M 227.830, 895.130 218.034, 897.141 208.238, 899.153 198.443, 901.164 188.647, 903.175 186.803, 903.554 195.768, 907.985 204.733, 912.417 213.697, 916.848 222.662, 921.279 230.801, 925.302 230.556, 915.305 230.383, 908.270 230.182, 900.078 228.032, 895.557 227.830, 895.130 " fill="none" stroke="rgb(0, 0, 0)" stroke-linecap="butt" stroke-linejoin="round" stroke-opacity="1.0" stroke-width="1.0000001192092896" />
            <path d=" M 227.830, 895.130 221.352, 887.512 214.874, 879.893 212.018, 876.534 " fill="none" stroke="rgb(0, 0, 0)" stroke-linecap="butt" stroke-linejoin="round" stroke-opacity="1.0" stroke-width="1.0000001192092896" />
            <path d=" M 189.307, 898.416 199.271, 897.566 209.235, 896.716 219.198, 895.866 227.830, 895.130 233.078, 893.715 " fill="none" stroke="rgb(0, 0, 0)" stroke-linecap="butt" stroke-linejoin="round" stroke-opacity="1.0" stroke-width="1.0000001192092896" />
            <path d=" M 233.078, 893.715 225.330, 887.394 217.581, 881.072 212.018, 876.534 211.555, 866.545 211.091, 856.555 210.628, 846.566 210.165, 836.577 209.702, 826.587 209.238, 816.598 208.775, 806.609 208.312, 796.620 207.849, 786.630 207.689, 783.180 207.556, 773.181 207.422, 763.182 207.289, 753.183 207.156, 743.184 207.023, 733.185 206.979, 729.917 206.673, 719.922 206.367, 709.927 206.061, 699.932 205.754, 689.936 205.537, 682.846 205.386, 672.848 205.235, 662.849 205.084, 652.850 204.933, 642.851 204.782, 632.852 204.632, 622.853 204.538, 616.635 204.844, 606.640 205.149, 596.644 205.455, 586.649 205.761, 576.654 206.067, 566.658 206.373, 556.663 206.518, 551.916 " fill="none" stroke="rgb(0, 0, 0)" stroke-linecap="butt" stroke-linejoin="round" stroke-opacity="1.0" stroke-width="1.0000001192092896" />
            <path d=" M 233.078, 893.715 233.273, 903.713 233.468, 913.711 233.662, 923.709 233.693, 925.302 " fill="none" stroke="rgb(0, 0, 0)" stroke-linecap="butt" stroke-linejoin="round" stroke-opacity="1.0" stroke-width="1.0000001192092896" />
            <path d=" M 250.006, 576.176 250.872, 586.138 251.737, 596.100 252.602, 606.063 253.486, 616.237 254.096, 626.218 254.705, 636.200 255.315, 646.181 255.924, 656.162 256.534, 666.144 257.143, 676.125 257.753, 686.107 258.363, 696.088 258.972, 706.069 259.118, 708.459 259.092, 718.459 259.065, 728.459 259.039, 738.459 259.012, 748.459 258.986, 758.459 258.960, 768.459 258.933, 778.459 258.921, 783.218 259.643, 793.192 260.365, 803.166 261.087, 813.139 261.809, 823.113 262.532, 833.087 263.254, 843.061 263.976, 853.035 264.698, 863.009 265.420, 872.983 266.143, 882.957 266.922, 893.715 266.082, 903.679 265.242, 913.644 264.402, 923.609 264.259, 925.302 266.307, 925.302 269.200, 925.302 279.200, 925.302 289.200, 925.302 299.200, 925.302 309.200, 925.302 318.894, 925.302 316.360, 915.629 313.826, 905.955 313.197, 903.554 310.693, 898.416 305.565, 893.475 305.502, 893.415 298.301, 886.476 291.100, 879.538 287.982, 876.534 " fill="none" stroke="rgb(0, 0, 0)" stroke-linecap="butt" stroke-linejoin="round" stroke-opacity="1.0" stroke-width="1.0000001192092896" />
            <path d=" M 313.197, 903.554 304.232, 907.985 295.267, 912.417 286.303, 916.848 277.338, 921.279 269.200, 925.302 269.444, 915.305 269.617, 908.270 269.818, 900.078 " fill="none" stroke="rgb(0, 0, 0)" stroke-linecap="butt" stroke-linejoin="round" stroke-opacity="1.0" stroke-width="1.0000001192092896" />
            <path d=" M 313.197, 903.554 303.229, 902.755 293.260, 901.956 283.292, 901.158 273.324, 900.359 271.188, 900.188 269.818, 900.078 271.968, 895.557 272.170, 895.130 " fill="none" stroke="rgb(0, 0, 0)" stroke-linecap="butt" stroke-linejoin="round" stroke-opacity="1.0" stroke-width="1.0000001192092896" />
            <path d=" M 272.170, 895.130 282.134, 895.980 292.098, 896.830 302.062, 897.680 310.693, 898.416 " fill="none" stroke="rgb(0, 0, 0)" stroke-linecap="butt" stroke-linejoin="round" stroke-opacity="1.0" stroke-width="1.0000001192092896" />
            <path d=" M 287.982, 876.534 281.504, 884.152 275.027, 891.771 272.170, 895.130 " fill="none" stroke="rgb(0, 0, 0)" stroke-linecap="butt" stroke-linejoin="round" stroke-opacity="1.0" stroke-width="1.0000001192092896" />
            <path d=" M 266.922, 893.715 272.170, 895.130 281.966, 897.141 291.762, 899.153 301.557, 901.164 311.353, 903.175 313.197, 903.554 " fill="none" stroke="rgb(0, 0, 0)" stroke-linecap="butt" stroke-linejoin="round" stroke-opacity="1.0" stroke-width="1.0000001192092896" />
            <path d=" M 293.481, 551.891 293.787, 561.886 294.093, 571.882 294.399, 581.877 294.705, 591.872 295.010, 601.868 295.316, 611.863 295.462, 616.635 295.311, 626.634 295.160, 636.633 295.010, 646.632 294.859, 656.630 294.708, 666.629 294.557, 676.628 294.463, 682.847 294.157, 692.842 293.850, 702.837 293.544, 712.832 293.238, 722.828 293.021, 729.917 292.887, 739.917 292.754, 749.916 292.621, 759.915 292.488, 769.914 292.355, 779.913 292.311, 783.180 291.848, 793.169 291.385, 803.159 290.922, 813.148 290.458, 823.137 289.995, 833.126 289.532, 843.116 289.069, 853.105 288.605, 863.094 288.142, 873.083 287.982, 876.534 280.234, 882.855 272.485, 889.176 266.922, 893.715 " fill="none" stroke="rgb(0, 0, 0)" stroke-linecap="butt" stroke-linejoin="round" stroke-opacity="1.0" stroke-width="1.0000001192092896" />
            <path d=" M 266.307, 925.302 266.501, 915.304 266.696, 905.306 266.891, 895.308 266.922, 893.715 " fill="none" stroke="rgb(0, 0, 0)" stroke-linecap="butt" stroke-linejoin="round" stroke-opacity="1.0" stroke-width="1.0000001192092896" />
            <path d=" M 269.818, 900.078 268.439, 909.982 267.061, 919.887 266.752, 922.101 266.307, 925.302 266.307, 925.302 " fill="none" stroke="rgb(0, 0, 0)" stroke-linecap="butt" stroke-linejoin="round" stroke-opacity="1.0" stroke-width="1.0000001192092896" />
            <path d=" M 268.401, 575.937 275.583, 568.979 282.766, 562.021 289.948, 555.063 293.210, 551.903 " fill="none" stroke="rgb(0, 0, 0)" stroke-linecap="butt" stroke-linejoin="round" stroke-opacity="1.0" stroke-width="1.0000001192092896" />
            <path d=" M 231.599, 575.937 241.598, 576.067 249.945, 576.175 249.994, 576.176 250.000, 576.176 250.006, 576.176 250.055, 576.175 260.054, 576.045 268.401, 575.937 " fill="none" stroke="rgb(0, 0, 0)" stroke-linecap="butt" stroke-linejoin="round" stroke-opacity="1.0" stroke-width="1.0000001192092896" />
            <path d=" M 305.565, 893.475 306.491, 883.518 307.417, 873.561 308.343, 863.604 309.269, 853.647 310.195, 843.690 311.121, 833.733 312.047, 823.776 312.973, 813.819 313.899, 803.862 314.825, 793.905 315.837, 783.013 315.953, 773.014 316.068, 763.014 316.183, 753.015 316.298, 743.016 316.413, 733.016 316.528, 723.017 316.643, 713.018 316.686, 709.269 317.778, 699.329 318.870, 689.389 319.962, 679.449 321.054, 669.509 322.146, 659.568 323.238, 649.628 324.330, 639.688 325.422, 629.748 326.514, 619.808 326.863, 616.625 326.514, 606.631 326.164, 596.637 325.815, 586.643 325.465, 576.649 325.115, 566.656 324.766, 556.662 324.416, 546.668 324.347, 544.691 " fill="none" stroke="rgb(0, 0, 0)" stroke-linecap="butt" stroke-linejoin="round" stroke-opacity="1.0" stroke-width="1.0000001192092896" />
            <path d=" M 326.863, 616.625 322.469, 625.607 318.074, 634.590 313.679, 643.572 309.284, 652.555 304.889, 661.537 300.494, 670.520 296.099, 679.502 294.463, 682.847 " fill="none" stroke="rgb(0, 0, 0)" stroke-linecap="butt" stroke-linejoin="round" stroke-opacity="1.0" stroke-width="1.0000001192092896" />
            <path d=" M 294.463, 682.847 300.900, 690.500 307.336, 698.152 313.773, 705.805 316.686, 709.269 309.151, 715.844 301.616, 722.418 294.081, 728.992 293.021, 729.917 " fill="none" stroke="rgb(0, 0, 0)" stroke-linecap="butt" stroke-linejoin="round" stroke-opacity="1.0" stroke-width="1.0000001192092896" />
            <path d=" M 293.596, 551.886 298.167, 560.780 302.737, 569.675 307.308, 578.569 311.878, 587.463 316.449, 596.358 321.019, 605.252 325.590, 614.147 326.863, 616.625 316.863, 616.628 306.863, 616.631 296.863, 616.635 295.462, 616.635 " fill="none" stroke="rgb(0, 0, 0)" stroke-linecap="butt" stroke-linejoin="round" stroke-opacity="1.0" stroke-width="1.0000001192092896" />
            <path d=" M 293.021, 729.917 284.571, 724.569 276.121, 719.221 267.672, 713.873 259.118, 708.459 267.215, 702.591 275.313, 696.723 283.410, 690.856 291.508, 684.988 294.463, 682.847 289.223, 674.329 283.983, 665.812 278.744, 657.294 273.504, 648.777 268.264, 640.260 263.025, 631.742 257.785, 623.225 253.486, 616.237 " fill="none" stroke="rgb(0, 0, 0)" stroke-linecap="butt" stroke-linejoin="round" stroke-opacity="1.0" stroke-width="1.0000001192092896" />
            <path d=" M 250.195, 553.835 256.553, 561.553 262.911, 569.272 268.401, 575.937 273.938, 584.264 279.475, 592.591 285.012, 600.919 290.549, 609.246 295.462, 616.635 285.463, 616.540 275.463, 616.445 265.464, 616.350 255.464, 616.256 253.486, 616.237 256.957, 606.858 260.428, 597.480 263.899, 588.102 267.370, 578.724 268.401, 575.937 " fill="none" stroke="rgb(0, 0, 0)" stroke-linecap="butt" stroke-linejoin="round" stroke-opacity="1.0" stroke-width="1.0000001192092896" />
            <path d=" M 315.837, 783.013 311.889, 773.825 307.941, 764.638 303.993, 755.450 300.045, 746.263 296.096, 737.075 293.021, 729.917 287.631, 738.341 282.242, 746.765 276.853, 755.188 271.464, 763.612 266.075, 772.035 260.686, 780.459 258.921, 783.218 " fill="none" stroke="rgb(0, 0, 0)" stroke-linecap="butt" stroke-linejoin="round" stroke-opacity="1.0" stroke-width="1.0000001192092896" />
            <path d=" M 258.921, 783.218 268.921, 783.207 278.921, 783.195 288.921, 783.184 292.311, 783.180 302.311, 783.109 312.311, 783.038 315.837, 783.013 312.983, 792.597 310.128, 802.181 307.274, 811.765 304.419, 821.349 301.565, 830.932 298.710, 840.516 295.855, 850.100 293.001, 859.684 290.146, 869.268 287.982, 876.534 285.009, 866.986 282.035, 857.438 279.062, 847.891 276.088, 838.343 273.115, 828.795 270.141, 819.248 267.168, 809.700 264.194, 800.152 261.221, 790.604 258.921, 783.218 " fill="none" stroke="rgb(0, 0, 0)" stroke-linecap="butt" stroke-linejoin="round" stroke-opacity="1.0" stroke-width="1.0000001192092896" />
            <path d=" M 204.538, 616.635 194.538, 616.632 184.538, 616.629 174.538, 616.625 173.137, 616.625 " fill="none" stroke="rgb(0, 0, 0)" stroke-linecap="butt" stroke-linejoin="round" stroke-opacity="1.0" stroke-width="1.0000001192092896" />
            <path d=" M 173.137, 616.625 177.531, 625.607 181.926, 634.590 186.321, 643.572 190.716, 652.555 195.111, 661.537 199.506, 670.520 203.901, 679.502 205.537, 682.846 " fill="none" stroke="rgb(0, 0, 0)" stroke-linecap="butt" stroke-linejoin="round" stroke-opacity="1.0" stroke-width="1.0000001192092896" />
            <path d=" M 175.653, 544.697 175.303, 554.691 174.954, 564.685 174.604, 574.678 174.254, 584.672 173.905, 594.666 173.555, 604.660 173.205, 614.654 173.137, 616.625 174.228, 626.565 175.320, 636.505 176.412, 646.446 177.504, 656.386 178.596, 666.326 179.688, 676.266 180.780, 686.206 181.872, 696.147 182.964, 706.087 183.314, 709.269 183.429, 719.269 183.544, 729.268 183.659, 739.267 183.774, 749.267 183.889, 759.266 184.004, 769.265 184.119, 779.265 184.163, 783.013 185.089, 792.970 186.015, 802.927 186.940, 812.884 187.866, 822.841 188.792, 832.798 189.718, 842.755 190.644, 852.712 191.570, 862.669 192.496, 872.626 193.422, 882.583 194.435, 893.475 " fill="none" stroke="rgb(0, 0, 0)" stroke-linecap="butt" stroke-linejoin="round" stroke-opacity="1.0" stroke-width="1.0000001192092896" />
            <path d=" M 206.979, 729.917 199.444, 723.343 191.909, 716.769 184.374, 710.195 183.314, 709.269 189.750, 701.616 196.187, 693.963 202.624, 686.310 205.537, 682.846 " fill="none" stroke="rgb(0, 0, 0)" stroke-linecap="butt" stroke-linejoin="round" stroke-opacity="1.0" stroke-width="1.0000001192092896" />
            <path d=" M 246.514, 616.237 241.274, 624.754 236.035, 633.272 230.795, 641.789 225.555, 650.306 220.316, 658.824 215.076, 667.341 209.836, 675.858 205.537, 682.846 213.635, 688.714 221.732, 694.582 229.830, 700.450 237.927, 706.318 240.882, 708.459 232.432, 713.807 223.983, 719.155 215.533, 724.504 206.979, 729.917 " fill="none" stroke="rgb(0, 0, 0)" stroke-linecap="butt" stroke-linejoin="round" stroke-opacity="1.0" stroke-width="1.0000001192092896" />
            <path d=" M 231.599, 575.937 235.070, 585.315 238.541, 594.694 242.012, 604.072 245.483, 613.450 246.514, 616.237 236.514, 616.332 226.515, 616.426 216.515, 616.521 206.516, 616.616 204.538, 616.635 210.075, 608.308 215.612, 599.981 221.149, 591.653 226.686, 583.326 231.599, 575.937 " fill="none" stroke="rgb(0, 0, 0)" stroke-linecap="butt" stroke-linejoin="round" stroke-opacity="1.0" stroke-width="1.0000001192092896" />
            <path d=" M 184.163, 783.013 188.111, 773.825 192.059, 764.638 196.007, 755.450 199.955, 746.263 203.904, 737.075 206.979, 729.917 212.369, 738.341 217.758, 746.765 223.147, 755.188 228.536, 763.612 233.925, 772.035 239.314, 780.459 241.079, 783.218 " fill="none" stroke="rgb(0, 0, 0)" stroke-linecap="butt" stroke-linejoin="round" stroke-opacity="1.0" stroke-width="1.0000001192092896" />
            <path d=" M 207.689, 783.180 217.689, 783.191 227.689, 783.203 237.689, 783.214 241.079, 783.218 238.106, 792.766 235.132, 802.313 232.159, 811.861 229.186, 821.409 226.212, 830.956 223.239, 840.504 220.265, 850.052 217.292, 859.599 214.318, 869.147 212.018, 876.534 209.163, 866.950 206.309, 857.366 203.454, 847.782 200.600, 838.198 197.745, 828.614 194.890, 819.030 192.036, 809.446 189.181, 799.862 186.327, 790.279 184.163, 783.013 194.162, 783.084 204.162, 783.155 207.689, 783.180 " fill="none" stroke="rgb(0, 0, 0)" stroke-linecap="butt" stroke-linejoin="round" stroke-opacity="1.0" stroke-width="1.0000001192092896" />
            <path d=" M 135.422, 414.443 135.758, 414.362 135.426, 414.420 " fill="none" stroke="rgb(0, 0, 0)" stroke-linecap="butt" stroke-linejoin="round" stroke-opacity="1.0" stroke-width="1.0000001192092896" />
            <path d=" M 206.392, 551.910 201.821, 560.804 197.250, 569.699 192.680, 578.593 188.109, 587.487 183.539, 596.382 178.968, 605.276 174.398, 614.171 173.137, 616.625 " fill="none" stroke="rgb(0, 0, 0)" stroke-linecap="butt" stroke-linejoin="round" stroke-opacity="1.0" stroke-width="1.0000001192092896" />
            <path d=" M 212.077, 209.814 211.586, 210.452 " fill="none" stroke="rgb(0, 0, 0)" stroke-linecap="butt" stroke-linejoin="round" stroke-opacity="1.0" stroke-width="1.0000001192092896" />
            <path d=" M 215.998, 220.419 215.997, 220.419 215.997, 220.417 " fill="none" stroke="rgb(0, 0, 0)" stroke-linecap="butt" stroke-linejoin="round" stroke-opacity="1.0" stroke-width="1.0000001192092896" />
            <path d=" M 222.713, 240.139 224.783, 249.923 225.118, 251.507 " fill="none" stroke="rgb(0, 0, 0)" stroke-linecap="butt" stroke-linejoin="round" stroke-opacity="1.0" stroke-width="1.0000001192092896" />
            <path d=" M 229.385, 44.429 229.385, 54.429 229.385, 64.429 229.385, 74.429 229.385, 84.429 229.385, 94.429 229.385, 99.018 229.385, 99.018 " fill="none" stroke="rgb(0, 0, 0)" stroke-linecap="butt" stroke-linejoin="round" stroke-opacity="1.0" stroke-width="1.0000001192092896" />
            <path d=" M 206.817, 551.929 213.999, 558.887 221.182, 565.845 228.364, 572.803 231.599, 575.937 " fill="none" stroke="rgb(0, 0, 0)" stroke-linecap="butt" stroke-linejoin="round" stroke-opacity="1.0" stroke-width="1.0000001192092896" />
            <path d=" M 230.445, 251.471 231.199, 253.437 233.419, 259.230 " fill="none" stroke="rgb(0, 0, 0)" stroke-linecap="butt" stroke-linejoin="round" stroke-opacity="1.0" stroke-width="1.0000001192092896" />
            <path d=" M 233.693, 925.302 233.693, 925.302 233.248, 922.101 231.869, 912.197 230.491, 902.292 230.182, 900.078 " fill="none" stroke="rgb(0, 0, 0)" stroke-linecap="butt" stroke-linejoin="round" stroke-opacity="1.0" stroke-width="1.0000001192092896" />
            <path d=" M 250.000, 258.827 250.000, 259.408 250.000, 263.705 " fill="none" stroke="rgb(0, 0, 0)" stroke-linecap="butt" stroke-linejoin="round" stroke-opacity="1.0" stroke-width="1.0000001192092896" />
            <path d=" M 236.546, 254.841 236.375, 255.081 233.419, 259.230 " fill="none" stroke="rgb(0, 0, 0)" stroke-linecap="butt" stroke-linejoin="round" stroke-opacity="1.0" stroke-width="1.0000001192092896" />
            <path d=" M 250.000, 153.603 250.000, 153.101 " fill="none" stroke="rgb(0, 0, 0)" stroke-linecap="butt" stroke-linejoin="round" stroke-opacity="1.0" stroke-width="1.0000001192092896" />
            <path d=" M 250.000, 553.844 250.000, 563.844 250.000, 573.844 250.000, 576.105 250.000, 576.105 250.000, 576.176 " fill="none" stroke="rgb(0, 0, 0)" stroke-linecap="butt" stroke-linejoin="round" stroke-opacity="1.0" stroke-width="1.0000001192092896" />
            <path d=" M 249.805, 553.835 243.447, 561.554 237.089, 569.272 231.599, 575.937 " fill="none" stroke="rgb(0, 0, 0)" stroke-linecap="butt" stroke-linejoin="round" stroke-opacity="1.0" stroke-width="1.0000001192092896" />
            <path d=" M 254.082, 221.639 254.743, 223.746 257.322, 231.962 " fill="none" stroke="rgb(0, 0, 0)" stroke-linecap="butt" stroke-linejoin="round" stroke-opacity="1.0" stroke-width="1.0000001192092896" />
            <path d=" M 250.000, 153.603 256.972, 153.603 266.972, 153.603 270.615, 153.603 " fill="none" stroke="rgb(0, 0, 0)" stroke-linecap="butt" stroke-linejoin="round" stroke-opacity="1.0" stroke-width="1.0000001192092896" />
            <path d=" M 270.615, 44.430 270.615, 44.429 " fill="none" stroke="rgb(0, 0, 0)" stroke-linecap="butt" stroke-linejoin="round" stroke-opacity="1.0" stroke-width="1.0000001192092896" />
            <path d=" M 275.617, 235.660 279.196, 226.323 280.425, 223.119 281.460, 220.419 281.428, 218.275 " fill="none" stroke="rgb(0, 0, 0)" stroke-linecap="butt" stroke-linejoin="round" stroke-opacity="1.0" stroke-width="1.0000001192092896" />
            <path d=" M 279.669, 228.882 280.891, 223.107 281.460, 220.419 " fill="none" stroke="rgb(0, 0, 0)" stroke-linecap="butt" stroke-linejoin="round" stroke-opacity="1.0" stroke-width="1.0000001192092896" />
            <path d=" M 280.106, 218.673 281.460, 220.419 282.483, 220.419 " fill="none" stroke="rgb(0, 0, 0)" stroke-linecap="butt" stroke-linejoin="round" stroke-opacity="1.0" stroke-width="1.0000001192092896" />
            <path d=" M 284.921, 218.153 284.823, 223.011 " fill="none" stroke="rgb(0, 0, 0)" stroke-linecap="butt" stroke-linejoin="round" stroke-opacity="1.0" stroke-width="1.0000001192092896" />
            <path d=" M 285.680, 216.478 284.823, 223.011 " fill="none" stroke="rgb(0, 0, 0)" stroke-linecap="butt" stroke-linejoin="round" stroke-opacity="1.0" stroke-width="1.0000001192092896" />
        </g>
    </g>
</svg>
