<?xml version='1.0' encoding='ascii'?>
<svg xmlns="http://www.w3.org/2000/svg" height="1000" version="1.1" width="500">
    <g id="View Layer_LineSet" inkscape:groupmode="lineset" inkscape:label="View Layer_LineSet" xmlns:inkscape="http://www.inkscape.org/namespaces/inkscape">
        <g id="strokes" inkscape:groupmode="layer" inkscape:label="strokes" xmlns:inkscape="http://www.inkscape.org/namespaces/inkscape">
            <path d=" M 236.446, 316.367 235.152, 317.451 235.147, 317.456 230.849, 321.058 " fill="none" stroke="rgb(0, 0, 0)" stroke-linecap="butt" stroke-linejoin="round" stroke-opacity="1.0" stroke-width="1.0000001192092896" />
            <path d=" M 236.445, 316.360 239.202, 312.353 235.997, 313.421 235.328, 313.776 229.127, 321.621 222.925, 329.466 220.680, 332.307 225.914, 327.587 225.921, 327.581 " fill="none" stroke="rgb(0, 0, 0)" stroke-linecap="butt" stroke-linejoin="round" stroke-opacity="1.0" stroke-width="1.0000001192092896" />
            <path d=" M 266.901, 372.337 261.935, 381.017 256.969, 389.696 255.766, 391.798 " fill="none" stroke="rgb(0, 0, 0)" stroke-linecap="butt" stroke-linejoin="round" stroke-opacity="1.0" stroke-width="1.0000001192092896" />
            <path d=" M 216.519, 231.962 218.372, 241.789 218.621, 243.108 218.621, 243.108 " fill="none" stroke="rgb(0, 0, 0)" stroke-linecap="butt" stroke-linejoin="round" stroke-opacity="1.0" stroke-width="1.0000001192092896" />
            <path d=" M 221.662, 259.230 222.529, 249.267 222.731, 246.943 " fill="none" stroke="rgb(0, 0, 0)" stroke-linecap="butt" stroke-linejoin="round" stroke-opacity="1.0" stroke-width="1.0000001192092896" />
            <path d=" M 225.038, 220.419 219.100, 228.465 216.519, 231.962 " fill="none" stroke="rgb(0, 0, 0)" stroke-linecap="butt" stroke-linejoin="round" stroke-opacity="1.0" stroke-width="1.0000001192092896" />
            <path d=" M 210.493, 219.902 206.816, 229.201 205.382, 232.829 214.134, 235.961 216.519, 231.962 206.549, 232.738 205.382, 232.829 " fill="none" stroke="rgb(0, 0, 0)" stroke-linecap="butt" stroke-linejoin="round" stroke-opacity="1.0" stroke-width="1.0000001192092896" />
            <path d=" M 289.959, 237.043 296.486, 229.468 302.050, 223.011 302.050, 223.011 " fill="none" stroke="rgb(0, 0, 0)" stroke-linecap="butt" stroke-linejoin="round" stroke-opacity="1.0" stroke-width="1.0000001192092896" />
            <path d=" M 289.959, 237.043 295.125, 238.877 " fill="none" stroke="rgb(0, 0, 0)" stroke-linecap="butt" stroke-linejoin="round" stroke-opacity="1.0" stroke-width="1.0000001192092896" />
            <path d=" M 319.349, 531.200 316.982, 521.484 314.616, 511.768 312.249, 502.052 309.883, 492.336 307.516, 482.620 305.150, 472.904 302.783, 463.188 301.715, 458.803 303.213, 448.916 304.711, 439.029 306.209, 429.142 307.707, 419.255 309.206, 409.368 310.704, 399.481 312.202, 389.593 313.700, 379.706 315.198, 369.819 316.696, 359.932 318.194, 350.045 318.792, 346.100 316.739, 336.313 314.686, 326.526 312.633, 316.739 310.580, 306.952 308.527, 297.165 306.474, 287.378 304.422, 277.591 302.369, 267.804 301.982, 265.961 299.528, 256.267 297.073, 246.573 295.125, 238.877 300.487, 230.436 305.066, 223.228 305.066, 223.228 " fill="none" stroke="rgb(0, 0, 0)" stroke-linecap="butt" stroke-linejoin="round" stroke-opacity="1.0" stroke-width="1.0000001192092896" />
            <path d=" M 252.900, 251.507 243.192, 253.907 233.484, 256.307 223.777, 258.707 221.662, 259.230 216.038, 263.705 " fill="none" stroke="rgb(0, 0, 0)" stroke-linecap="butt" stroke-linejoin="round" stroke-opacity="1.0" stroke-width="1.0000001192092896" />
            <path d=" M 221.662, 259.230 231.662, 259.303 241.662, 259.376 246.045, 259.408 " fill="none" stroke="rgb(0, 0, 0)" stroke-linecap="butt" stroke-linejoin="round" stroke-opacity="1.0" stroke-width="1.0000001192092896" />
            <path d=" M 198.519, 363.853 198.519, 363.853 198.452, 358.146 203.744, 349.660 209.036, 341.175 214.328, 332.690 219.620, 324.205 224.912, 315.720 230.203, 307.235 235.495, 298.750 240.787, 290.265 246.079, 281.780 248.311, 278.202 247.114, 268.273 246.045, 259.408 252.598, 251.854 252.900, 251.507 " fill="none" stroke="rgb(0, 0, 0)" stroke-linecap="butt" stroke-linejoin="round" stroke-opacity="1.0" stroke-width="1.0000001192092896" />
            <path d=" M 215.569, 256.878 216.038, 263.705 225.937, 262.288 235.836, 260.870 245.735, 259.452 246.045, 259.408 " fill="none" stroke="rgb(0, 0, 0)" stroke-linecap="butt" stroke-linejoin="round" stroke-opacity="1.0" stroke-width="1.0000001192092896" />
            <path d=" M 252.900, 251.507 260.627, 245.159 268.355, 238.812 276.082, 232.465 283.810, 226.118 289.482, 221.460 289.482, 221.460 " fill="none" stroke="rgb(0, 0, 0)" stroke-linecap="butt" stroke-linejoin="round" stroke-opacity="1.0" stroke-width="1.0000001192092896" />
            <path d=" M 255.244, 220.419 254.492, 230.391 253.740, 240.362 252.988, 250.334 252.900, 251.507 " fill="none" stroke="rgb(0, 0, 0)" stroke-linecap="butt" stroke-linejoin="round" stroke-opacity="1.0" stroke-width="1.0000001192092896" />
            <path d=" M 252.900, 251.507 246.225, 244.060 239.551, 236.613 232.751, 229.025 " fill="none" stroke="rgb(0, 0, 0)" stroke-linecap="butt" stroke-linejoin="round" stroke-opacity="1.0" stroke-width="1.0000001192092896" />
            <path d=" M 255.244, 220.419 245.244, 220.419 237.564, 220.419 " fill="none" stroke="rgb(0, 0, 0)" stroke-linecap="butt" stroke-linejoin="round" stroke-opacity="1.0" stroke-width="1.0000001192092896" />
            <path d=" M 255.244, 220.419 251.911, 216.696 251.911, 216.696 " fill="none" stroke="rgb(0, 0, 0)" stroke-linecap="butt" stroke-linejoin="round" stroke-opacity="1.0" stroke-width="1.0000001192092896" />
            <path d=" M 264.737, 218.406 264.737, 218.406 255.244, 220.419 255.415, 217.182 255.415, 217.182 " fill="none" stroke="rgb(0, 0, 0)" stroke-linecap="butt" stroke-linejoin="round" stroke-opacity="1.0" stroke-width="1.0000001192092896" />
            <path d=" M 289.959, 237.043 293.798, 246.277 297.637, 255.511 301.476, 264.744 301.982, 265.961 299.751, 266.065 " fill="none" stroke="rgb(0, 0, 0)" stroke-linecap="butt" stroke-linejoin="round" stroke-opacity="1.0" stroke-width="1.0000001192092896" />
            <path d=" M 256.628, 275.696 255.105, 265.813 253.581, 255.930 252.900, 251.507 262.215, 247.871 271.531, 244.235 280.847, 240.599 289.959, 237.043 293.156, 246.518 296.353, 255.994 299.550, 265.469 299.751, 266.065 " fill="none" stroke="rgb(0, 0, 0)" stroke-linecap="butt" stroke-linejoin="round" stroke-opacity="1.0" stroke-width="1.0000001192092896" />
            <path d=" M 252.900, 251.507 262.449, 254.474 271.999, 257.441 281.548, 260.409 291.098, 263.376 299.751, 266.065 " fill="none" stroke="rgb(0, 0, 0)" stroke-linecap="butt" stroke-linejoin="round" stroke-opacity="1.0" stroke-width="1.0000001192092896" />
            <path d=" M 248.311, 278.202 256.628, 275.696 266.388, 273.517 276.147, 271.337 285.907, 269.157 295.666, 266.977 299.751, 266.065 299.817, 276.065 299.861, 282.883 289.866, 283.181 279.870, 283.479 273.527, 283.668 271.544, 293.470 269.561, 303.271 267.578, 313.073 266.994, 315.958 260.642, 323.681 254.290, 331.405 249.543, 337.178 249.541, 337.180 243.189, 344.904 236.837, 352.627 230.486, 360.351 224.134, 368.075 217.782, 375.798 211.430, 383.522 206.634, 389.354 198.827, 389.858 188.848, 390.503 178.869, 391.147 173.944, 391.465 " fill="none" stroke="rgb(0, 0, 0)" stroke-linecap="butt" stroke-linejoin="round" stroke-opacity="1.0" stroke-width="1.0000001192092896" />
            <path d=" M 246.045, 259.408 251.493, 267.794 256.628, 275.696 " fill="none" stroke="rgb(0, 0, 0)" stroke-linecap="butt" stroke-linejoin="round" stroke-opacity="1.0" stroke-width="1.0000001192092896" />
            <path d=" M 225.038, 220.419 221.985, 216.853 " fill="none" stroke="rgb(0, 0, 0)" stroke-linecap="butt" stroke-linejoin="round" stroke-opacity="1.0" stroke-width="1.0000001192092896" />
            <path d=" M 220.126, 251.085 221.662, 259.230 219.396, 252.225 " fill="none" stroke="rgb(0, 0, 0)" stroke-linecap="butt" stroke-linejoin="round" stroke-opacity="1.0" stroke-width="1.0000001192092896" />
            <path d=" M 214.134, 235.961 214.818, 245.937 215.052, 249.345 215.052, 249.345 " fill="none" stroke="rgb(0, 0, 0)" stroke-linecap="butt" stroke-linejoin="round" stroke-opacity="1.0" stroke-width="1.0000001192092896" />
            <path d=" M 216.519, 231.962 215.847, 221.985 215.599, 218.306 " fill="none" stroke="rgb(0, 0, 0)" stroke-linecap="butt" stroke-linejoin="round" stroke-opacity="1.0" stroke-width="1.0000001192092896" />
            <path d=" M 173.944, 391.465 164.007, 392.581 154.069, 393.697 144.132, 394.813 134.194, 395.928 133.296, 396.029 133.278, 396.031 123.340, 397.147 113.403, 398.263 103.465, 399.378 94.792, 400.352 84.939, 398.641 81.528, 398.048 81.527, 398.047 81.527, 398.047 81.527, 398.047 81.527, 398.048 71.579, 399.072 61.632, 400.096 51.684, 401.120 41.737, 402.144 31.789, 403.169 29.722, 403.381 29.721, 403.382 29.719, 403.382 29.718, 403.382 29.604, 413.346 29.604, 413.346 29.604, 413.346 29.604, 413.347 32.193, 414.187 42.070, 415.755 51.946, 417.324 61.822, 418.892 71.698, 420.461 75.186, 421.014 75.207, 421.011 85.036, 419.172 93.097, 417.665 93.606, 417.570 93.633, 417.565 93.670, 417.558 103.661, 417.138 113.652, 416.719 123.643, 416.300 133.634, 415.880 142.438, 415.511 " fill="none" stroke="rgb(0, 0, 0)" stroke-linecap="butt" stroke-linejoin="round" stroke-opacity="1.0" stroke-width="1.0000001192092896" />
            <path d=" M 95.451, 411.809 93.670, 417.558 " fill="none" stroke="rgb(0, 0, 0)" stroke-linecap="butt" stroke-linejoin="round" stroke-opacity="1.0" stroke-width="1.0000001192092896" />
            <path d=" M 95.451, 411.809 105.420, 412.594 115.389, 413.380 125.358, 414.165 135.327, 414.950 142.438, 415.511 142.657, 415.528 152.626, 416.313 162.595, 417.099 172.564, 417.884 182.533, 418.669 192.502, 419.455 199.184, 419.981 201.278, 420.146 204.293, 418.474 204.293, 418.474 208.056, 416.387 208.056, 416.387 210.473, 415.047 219.218, 410.197 226.576, 406.117 226.576, 406.117 235.164, 401.355 235.164, 401.354 235.165, 401.354 235.165, 401.354 235.165, 401.354 241.699, 393.784 248.234, 386.214 251.173, 382.809 257.388, 375.609 257.388, 375.608 263.922, 368.038 265.027, 366.758 265.027, 366.758 268.967, 362.194 275.501, 354.624 278.972, 350.602 278.972, 350.602 285.507, 343.032 292.041, 335.463 298.233, 328.288 298.235, 328.287 298.235, 328.287 " fill="none" stroke="rgb(0, 0, 0)" stroke-linecap="butt" stroke-linejoin="round" stroke-opacity="1.0" stroke-width="1.0000001192092896" />
            <path d=" M 230.849, 321.058 225.921, 327.581 219.893, 335.560 213.865, 343.539 207.838, 351.519 201.975, 359.279 201.975, 359.279 198.949, 363.284 198.949, 363.284 198.519, 363.853 196.036, 367.140 190.008, 375.119 186.144, 380.235 176.563, 383.098 166.981, 385.961 157.400, 388.824 147.818, 391.687 138.237, 394.549 133.278, 396.031 " fill="none" stroke="rgb(0, 0, 0)" stroke-linecap="butt" stroke-linejoin="round" stroke-opacity="1.0" stroke-width="1.0000001192092896" />
            <path d=" M 173.944, 391.465 181.302, 384.693 186.143, 380.235 186.144, 380.235 " fill="none" stroke="rgb(0, 0, 0)" stroke-linecap="butt" stroke-linejoin="round" stroke-opacity="1.0" stroke-width="1.0000001192092896" />
            <path d=" M 94.792, 400.352 94.826, 400.942 95.198, 407.409 95.198, 407.415 95.210, 407.619 95.210, 407.625 95.451, 411.809 " fill="none" stroke="rgb(0, 0, 0)" stroke-linecap="butt" stroke-linejoin="round" stroke-opacity="1.0" stroke-width="1.0000001192092896" />
            <path d=" M 95.451, 411.809 95.452, 411.809 95.453, 411.808 105.133, 409.300 114.813, 406.791 124.493, 404.282 134.173, 401.773 143.853, 399.264 153.534, 396.755 163.214, 394.246 172.894, 391.737 173.928, 391.469 173.938, 391.467 173.944, 391.465 " fill="none" stroke="rgb(0, 0, 0)" stroke-linecap="butt" stroke-linejoin="round" stroke-opacity="1.0" stroke-width="1.0000001192092896" />
            <path d=" M 206.634, 389.354 204.920, 399.206 203.206, 409.058 201.493, 418.910 201.278, 420.146 201.278, 420.146 201.278, 420.146 199.159, 417.923 192.260, 410.684 185.361, 403.445 178.462, 396.206 173.944, 391.465 " fill="none" stroke="rgb(0, 0, 0)" stroke-linecap="butt" stroke-linejoin="round" stroke-opacity="1.0" stroke-width="1.0000001192092896" />
            <path d=" M 234.372, 316.394 234.365, 316.404 230.849, 321.058 " fill="none" stroke="rgb(0, 0, 0)" stroke-linecap="butt" stroke-linejoin="round" stroke-opacity="1.0" stroke-width="1.0000001192092896" />
            <path d=" M 266.994, 315.958 259.166, 322.181 251.339, 328.404 246.151, 332.528 246.148, 332.531 238.320, 338.754 230.493, 344.977 222.665, 351.200 214.837, 357.423 207.010, 363.646 199.182, 369.870 198.596, 370.335 190.769, 376.558 186.146, 380.234 186.144, 380.235 186.144, 380.235 195.280, 384.301 198.780, 385.859 206.634, 389.354 215.852, 393.231 225.069, 397.108 234.287, 400.985 235.165, 401.354 238.657, 391.984 242.150, 382.614 245.642, 373.244 249.135, 363.873 252.627, 354.503 255.858, 345.836 255.858, 345.835 259.351, 336.464 262.843, 327.094 266.336, 317.724 266.994, 315.958 " fill="none" stroke="rgb(0, 0, 0)" stroke-linecap="butt" stroke-linejoin="round" stroke-opacity="1.0" stroke-width="1.0000001192092896" />
            <path d=" M 298.235, 328.287 288.933, 324.616 279.631, 320.945 270.329, 317.274 266.994, 315.958 256.995, 316.091 246.996, 316.225 236.997, 316.359 234.381, 316.394 234.372, 316.394 " fill="none" stroke="rgb(0, 0, 0)" stroke-linecap="butt" stroke-linejoin="round" stroke-opacity="1.0" stroke-width="1.0000001192092896" />
            <path d=" M 298.235, 328.287 293.390, 319.539 288.546, 310.790 283.702, 302.042 278.857, 293.294 274.013, 284.546 273.527, 283.668 " fill="none" stroke="rgb(0, 0, 0)" stroke-linecap="butt" stroke-linejoin="round" stroke-opacity="1.0" stroke-width="1.0000001192092896" />
            <path d=" M 273.527, 283.668 265.854, 290.081 258.181, 296.495 250.508, 302.908 242.835, 309.321 235.163, 315.734 234.377, 316.390 234.372, 316.394 " fill="none" stroke="rgb(0, 0, 0)" stroke-linecap="butt" stroke-linejoin="round" stroke-opacity="1.0" stroke-width="1.0000001192092896" />
            <path d=" M 32.193, 414.187 32.193, 414.187 32.255, 404.187 32.260, 403.259 " fill="none" stroke="rgb(0, 0, 0)" stroke-linecap="butt" stroke-linejoin="round" stroke-opacity="1.0" stroke-width="1.0000001192092896" />
            <path d=" M 32.260, 403.259 29.714, 412.930 29.604, 413.346 29.604, 413.347 " fill="none" stroke="rgb(0, 0, 0)" stroke-linecap="butt" stroke-linejoin="round" stroke-opacity="1.0" stroke-width="1.0000001192092896" />
            <path d=" M 75.186, 421.014 75.187, 421.014 84.291, 416.878 93.396, 412.742 95.451, 411.809 88.582, 404.541 83.732, 399.409 73.760, 400.155 63.787, 400.901 53.815, 401.647 43.843, 402.393 33.871, 403.139 32.260, 403.259 29.718, 403.382 " fill="none" stroke="rgb(0, 0, 0)" stroke-linecap="butt" stroke-linejoin="round" stroke-opacity="1.0" stroke-width="1.0000001192092896" />
            <path d=" M 81.527, 398.047 83.732, 399.409 " fill="none" stroke="rgb(0, 0, 0)" stroke-linecap="butt" stroke-linejoin="round" stroke-opacity="1.0" stroke-width="1.0000001192092896" />
            <path d=" M 83.732, 399.409 90.393, 399.977 94.792, 400.352 " fill="none" stroke="rgb(0, 0, 0)" stroke-linecap="butt" stroke-linejoin="round" stroke-opacity="1.0" stroke-width="1.0000001192092896" />
            <path d=" M 29.718, 403.382 39.691, 402.648 49.665, 401.915 59.638, 401.181 69.611, 400.447 79.584, 399.714 83.732, 399.409 80.054, 408.708 76.376, 418.007 75.187, 421.014 75.186, 421.014 75.186, 421.014 65.946, 417.192 56.705, 413.370 47.464, 409.548 38.223, 405.726 32.260, 403.259 " fill="none" stroke="rgb(0, 0, 0)" stroke-linecap="butt" stroke-linejoin="round" stroke-opacity="1.0" stroke-width="1.0000001192092896" />
            <path d=" M 81.528, 398.048 81.527, 398.047 71.579, 399.072 61.632, 400.096 51.684, 401.120 41.737, 402.144 31.790, 403.169 29.718, 403.382 29.604, 413.346 29.604, 413.346 " fill="none" stroke="rgb(0, 0, 0)" stroke-linecap="butt" stroke-linejoin="round" stroke-opacity="1.0" stroke-width="1.0000001192092896" />
            <path d=" M 93.611, 417.635 93.606, 417.570 " fill="none" stroke="rgb(0, 0, 0)" stroke-linecap="butt" stroke-linejoin="round" stroke-opacity="1.0" stroke-width="1.0000001192092896" />
            <path d=" M 29.604, 413.346 29.604, 413.346 " fill="none" stroke="rgb(0, 0, 0)" stroke-linecap="butt" stroke-linejoin="round" stroke-opacity="1.0" stroke-width="1.0000001192092896" />
            <path d=" M 202.067, 551.849 202.747, 541.872 203.427, 531.896 204.106, 521.919 204.371, 518.043 205.050, 508.066 205.730, 498.089 206.410, 488.113 207.090, 478.136 207.770, 468.159 208.321, 460.073 208.260, 450.073 208.200, 440.073 208.139, 430.073 208.078, 420.073 208.056, 416.387 " fill="none" stroke="rgb(0, 0, 0)" stroke-linecap="butt" stroke-linejoin="round" stroke-opacity="1.0" stroke-width="1.0000001192092896" />
            <path d=" M 208.321, 460.073 206.908, 469.972 205.495, 479.872 204.082, 489.772 202.669, 499.671 201.255, 509.571 199.842, 519.471 198.429, 529.370 197.016, 539.270 195.603, 549.169 194.935, 553.844 " fill="none" stroke="rgb(0, 0, 0)" stroke-linecap="butt" stroke-linejoin="round" stroke-opacity="1.0" stroke-width="1.0000001192092896" />
            <path d=" M 196.305, 553.463 194.935, 553.844 196.306, 553.460 202.067, 551.849 202.085, 551.846 203.143, 551.679 203.143, 551.679 203.258, 551.661 203.258, 551.661 203.267, 551.660 203.267, 551.660 203.267, 551.660 203.267, 551.660 213.145, 550.099 223.022, 548.539 232.900, 546.979 242.777, 545.419 249.804, 544.309 249.842, 544.303 250.000, 544.271 250.000, 544.271 250.011, 544.269 250.011, 544.269 259.818, 542.317 269.626, 540.365 279.434, 538.413 289.241, 536.462 299.049, 534.510 308.857, 532.558 314.835, 531.368 314.835, 531.368 314.872, 531.361 314.873, 531.361 316.111, 531.114 316.111, 531.114 317.866, 531.161 317.867, 531.161 317.892, 531.161 319.349, 531.200 317.892, 531.161 " fill="none" stroke="rgb(0, 0, 0)" stroke-linecap="butt" stroke-linejoin="round" stroke-opacity="1.0" stroke-width="1.0000001192092896" />
            <path d=" M 208.321, 460.073 199.652, 459.571 " fill="none" stroke="rgb(0, 0, 0)" stroke-linecap="butt" stroke-linejoin="round" stroke-opacity="1.0" stroke-width="1.0000001192092896" />
            <path d=" M 199.184, 419.981 199.302, 429.980 199.420, 439.980 199.539, 449.979 199.652, 459.571 199.153, 469.558 198.653, 479.546 198.153, 489.533 197.653, 499.521 197.154, 509.508 196.654, 519.496 196.154, 529.483 195.655, 539.471 195.155, 549.458 194.935, 553.844 " fill="none" stroke="rgb(0, 0, 0)" stroke-linecap="butt" stroke-linejoin="round" stroke-opacity="1.0" stroke-width="1.0000001192092896" />
            <path d=" M 208.321, 460.073 218.320, 459.949 228.320, 459.826 238.319, 459.702 248.318, 459.579 248.978, 459.571 " fill="none" stroke="rgb(0, 0, 0)" stroke-linecap="butt" stroke-linejoin="round" stroke-opacity="1.0" stroke-width="1.0000001192092896" />
            <path d=" M 248.978, 459.571 245.112, 450.348 241.247, 441.125 237.382, 431.902 233.517, 422.679 229.652, 413.457 226.576, 406.117 226.576, 406.117 " fill="none" stroke="rgb(0, 0, 0)" stroke-linecap="butt" stroke-linejoin="round" stroke-opacity="1.0" stroke-width="1.0000001192092896" />
            <path d=" M 249.842, 544.303 249.842, 544.303 249.740, 534.303 249.638, 524.304 249.536, 514.304 249.434, 504.305 249.332, 494.305 249.230, 484.306 249.128, 474.306 249.044, 466.044 248.978, 459.571 249.974, 449.621 250.971, 439.670 251.968, 429.720 252.964, 419.770 253.961, 409.820 254.958, 399.870 255.954, 389.919 256.951, 379.969 257.388, 375.609 257.388, 375.608 " fill="none" stroke="rgb(0, 0, 0)" stroke-linecap="butt" stroke-linejoin="round" stroke-opacity="1.0" stroke-width="1.0000001192092896" />
            <path d=" M 249.842, 544.303 249.842, 544.303 245.421, 535.333 240.999, 526.364 236.578, 517.394 232.156, 508.425 227.735, 499.455 225.039, 493.986 220.617, 485.016 216.196, 476.047 211.774, 467.077 208.321, 460.073 207.357, 450.119 206.394, 440.166 205.430, 430.212 204.466, 420.259 204.293, 418.474 " fill="none" stroke="rgb(0, 0, 0)" stroke-linecap="butt" stroke-linejoin="round" stroke-opacity="1.0" stroke-width="1.0000001192092896" />
            <path d=" M 318.792, 346.100 316.477, 336.372 314.163, 326.643 311.848, 316.915 309.534, 307.187 307.220, 297.458 304.905, 287.730 302.591, 278.001 300.276, 268.273 299.751, 266.065 291.448, 271.639 283.145, 277.212 274.843, 282.785 273.527, 283.668 264.483, 279.402 256.628, 275.696 251.830, 284.470 247.032, 293.244 242.234, 302.018 237.436, 310.792 234.376, 316.388 234.372, 316.394 " fill="none" stroke="rgb(0, 0, 0)" stroke-linecap="butt" stroke-linejoin="round" stroke-opacity="1.0" stroke-width="1.0000001192092896" />
            <path d=" M 198.452, 358.146 204.974, 350.565 211.496, 342.984 218.018, 335.404 224.539, 327.823 231.061, 320.243 234.350, 316.420 234.372, 316.394 234.375, 316.387 237.803, 306.993 241.232, 297.599 244.660, 288.206 248.089, 278.812 248.311, 278.202 " fill="none" stroke="rgb(0, 0, 0)" stroke-linecap="butt" stroke-linejoin="round" stroke-opacity="1.0" stroke-width="1.0000001192092896" />
            <path d=" M 318.792, 346.100 316.805, 355.901 314.818, 365.702 312.832, 375.502 310.845, 385.303 308.858, 395.104 306.872, 404.904 304.885, 414.705 302.898, 424.506 300.912, 434.306 298.925, 444.107 296.938, 453.908 295.946, 458.803 " fill="none" stroke="rgb(0, 0, 0)" stroke-linecap="butt" stroke-linejoin="round" stroke-opacity="1.0" stroke-width="1.0000001192092896" />
            <path d=" M 295.946, 458.803 301.715, 458.803 " fill="none" stroke="rgb(0, 0, 0)" stroke-linecap="butt" stroke-linejoin="round" stroke-opacity="1.0" stroke-width="1.0000001192092896" />
            <path d=" M 299.861, 282.883 302.730, 292.462 305.599, 302.042 308.467, 311.622 311.336, 321.202 314.205, 330.781 317.073, 340.361 318.792, 346.100 309.292, 349.222 308.207, 349.579 " fill="none" stroke="rgb(0, 0, 0)" stroke-linecap="butt" stroke-linejoin="round" stroke-opacity="1.0" stroke-width="1.0000001192092896" />
            <path d=" M 298.235, 328.287 298.235, 328.287 298.235, 328.288 302.477, 337.343 306.718, 346.399 308.207, 349.579 307.092, 359.516 305.976, 369.454 304.860, 379.391 303.745, 389.329 302.629, 399.267 301.514, 409.204 300.398, 419.142 299.283, 429.079 298.167, 439.017 297.052, 448.954 295.946, 458.803 298.632, 468.436 301.318, 478.068 304.005, 487.701 306.691, 497.333 309.377, 506.966 312.028, 516.471 314.714, 526.103 316.111, 531.114 " fill="none" stroke="rgb(0, 0, 0)" stroke-linecap="butt" stroke-linejoin="round" stroke-opacity="1.0" stroke-width="1.0000001192092896" />
            <path d=" M 316.111, 531.114 309.268, 523.822 302.426, 516.530 295.583, 509.238 288.740, 501.945 281.897, 494.653 275.055, 487.361 268.212, 480.069 261.369, 472.776 254.526, 465.484 251.915, 462.701 248.978, 459.571 254.685, 459.478 259.881, 459.393 269.880, 459.229 279.879, 459.066 289.877, 458.903 295.946, 458.803 " fill="none" stroke="rgb(0, 0, 0)" stroke-linecap="butt" stroke-linejoin="round" stroke-opacity="1.0" stroke-width="1.0000001192092896" />
            <path d=" M 319.349, 531.200 316.273, 521.685 313.197, 512.169 310.121, 502.654 307.045, 493.139 303.969, 483.624 300.893, 474.109 297.818, 464.593 295.946, 458.803 292.762, 449.324 289.577, 439.844 286.393, 430.365 283.209, 420.885 280.025, 411.406 276.840, 401.927 273.656, 392.447 270.472, 382.968 267.288, 373.488 265.027, 366.759 265.027, 366.758 " fill="none" stroke="rgb(0, 0, 0)" stroke-linecap="butt" stroke-linejoin="round" stroke-opacity="1.0" stroke-width="1.0000001192092896" />
            <path d=" M 298.235, 328.287 298.593, 318.293 298.951, 308.300 299.309, 298.306 299.667, 288.312 299.861, 282.883 301.103, 292.805 302.345, 302.728 303.586, 312.651 304.828, 322.573 306.070, 332.496 307.311, 342.418 308.207, 349.579 298.213, 349.929 288.219, 350.279 278.973, 350.602 278.972, 350.602 " fill="none" stroke="rgb(0, 0, 0)" stroke-linecap="butt" stroke-linejoin="round" stroke-opacity="1.0" stroke-width="1.0000001192092896" />
            <path d=" M 75.207, 421.011 85.043, 419.207 93.611, 417.635 103.602, 417.206 113.592, 416.777 123.583, 416.347 133.574, 415.918 142.657, 415.528 " fill="none" stroke="rgb(0, 0, 0)" stroke-linecap="butt" stroke-linejoin="round" stroke-opacity="1.0" stroke-width="1.0000001192092896" />
            <path d=" M 216.751, 153.603 215.569, 163.533 214.387, 173.463 213.205, 183.392 212.023, 193.322 210.841, 203.252 210.472, 206.354 204.587, 214.439 199.312, 221.684 " fill="none" stroke="rgb(0, 0, 0)" stroke-linecap="butt" stroke-linejoin="round" stroke-opacity="1.0" stroke-width="1.0000001192092896" />
            <path d=" M 313.869, 223.862 315.256, 213.958 316.643, 204.055 318.030, 194.152 319.417, 184.248 320.804, 174.345 322.272, 163.868 312.323, 162.853 302.375, 161.837 292.427, 160.821 282.479, 159.806 272.530, 158.790 262.582, 157.774 252.634, 156.758 242.685, 155.743 232.737, 154.727 222.789, 153.711 221.726, 153.603 " fill="none" stroke="rgb(0, 0, 0)" stroke-linecap="butt" stroke-linejoin="round" stroke-opacity="1.0" stroke-width="1.0000001192092896" />
            <path d=" M 215.599, 218.306 216.458, 218.038 221.985, 216.853 221.985, 216.853 224.144, 216.390 224.144, 216.390 225.769, 216.042 225.769, 216.042 231.086, 214.902 231.086, 214.902 234.197, 214.235 234.197, 214.235 236.252, 214.520 236.252, 214.520 239.973, 215.037 239.973, 215.037 249.878, 216.413 251.911, 216.696 251.911, 216.696 255.414, 217.182 255.415, 217.182 260.111, 217.835 260.111, 217.835 264.737, 218.406 264.737, 218.406 274.662, 219.631 284.587, 220.855 289.482, 221.460 289.482, 221.460 297.147, 222.406 297.147, 222.406 302.050, 223.011 302.050, 223.011 302.056, 223.011 302.056, 223.011 302.056, 223.011 305.066, 223.228 313.869, 223.862 305.066, 223.228 " fill="none" stroke="rgb(0, 0, 0)" stroke-linecap="butt" stroke-linejoin="round" stroke-opacity="1.0" stroke-width="1.0000001192092896" />
            <path d=" M 205.520, 221.456 205.520, 221.456 208.636, 211.954 210.472, 206.354 " fill="none" stroke="rgb(0, 0, 0)" stroke-linecap="butt" stroke-linejoin="round" stroke-opacity="1.0" stroke-width="1.0000001192092896" />
            <path d=" M 199.312, 221.684 205.520, 221.456 210.493, 219.902 215.599, 218.306 " fill="none" stroke="rgb(0, 0, 0)" stroke-linecap="butt" stroke-linejoin="round" stroke-opacity="1.0" stroke-width="1.0000001192092896" />
            <path d=" M 322.272, 163.868 312.285, 164.382 310.819, 164.457 " fill="none" stroke="rgb(0, 0, 0)" stroke-linecap="butt" stroke-linejoin="round" stroke-opacity="1.0" stroke-width="1.0000001192092896" />
            <path d=" M 310.819, 164.457 311.332, 174.444 311.845, 184.431 312.357, 194.418 312.870, 204.405 312.909, 205.171 313.181, 210.454 313.694, 220.441 313.869, 223.862 " fill="none" stroke="rgb(0, 0, 0)" stroke-linecap="butt" stroke-linejoin="round" stroke-opacity="1.0" stroke-width="1.0000001192092896" />
            <path d=" M 219.873, 153.603 229.741, 155.220 232.198, 155.623 242.133, 156.760 252.068, 157.898 262.003, 159.035 267.881, 159.708 277.821, 160.808 287.760, 161.907 297.699, 163.006 307.639, 164.106 310.819, 164.457 309.339, 174.347 307.859, 184.237 307.493, 186.680 306.013, 196.570 304.533, 206.460 303.053, 216.350 302.056, 223.011 " fill="none" stroke="rgb(0, 0, 0)" stroke-linecap="butt" stroke-linejoin="round" stroke-opacity="1.0" stroke-width="1.0000001192092896" />
            <path d=" M 267.881, 159.708 272.392, 168.063 277.142, 176.862 281.893, 185.662 286.643, 194.462 291.394, 203.261 296.144, 212.061 300.895, 220.860 302.056, 223.011 " fill="none" stroke="rgb(0, 0, 0)" stroke-linecap="butt" stroke-linejoin="round" stroke-opacity="1.0" stroke-width="1.0000001192092896" />
            <path d=" M 234.197, 214.235 237.407, 209.039 237.407, 209.039 242.662, 200.532 247.918, 192.024 253.173, 183.517 258.429, 175.009 263.403, 166.957 267.881, 159.708 266.855, 167.381 265.530, 177.293 264.205, 187.205 262.880, 197.117 261.555, 207.029 260.230, 216.941 260.111, 217.835 " fill="none" stroke="rgb(0, 0, 0)" stroke-linecap="butt" stroke-linejoin="round" stroke-opacity="1.0" stroke-width="1.0000001192092896" />
            <path d=" M 210.472, 206.354 214.409, 197.161 215.477, 194.667 219.413, 185.475 222.767, 177.644 226.704, 168.452 230.640, 159.259 232.198, 155.623 " fill="none" stroke="rgb(0, 0, 0)" stroke-linecap="butt" stroke-linejoin="round" stroke-opacity="1.0" stroke-width="1.0000001192092896" />
            <path d=" M 210.472, 206.354 214.973, 207.988 224.372, 211.402 226.360, 212.124 " fill="none" stroke="rgb(0, 0, 0)" stroke-linecap="butt" stroke-linejoin="round" stroke-opacity="1.0" stroke-width="1.0000001192092896" />
            <path d=" M 226.360, 212.124 227.388, 202.177 228.416, 192.229 229.443, 182.282 230.171, 175.236 231.199, 165.288 232.198, 155.623 " fill="none" stroke="rgb(0, 0, 0)" stroke-linecap="butt" stroke-linejoin="round" stroke-opacity="1.0" stroke-width="1.0000001192092896" />
            <path d=" M 322.272, 163.868 312.313, 162.957 302.355, 162.045 292.397, 161.134 282.438, 160.222 272.480, 159.310 262.522, 158.399 252.563, 157.487 242.605, 156.575 232.198, 155.623 " fill="none" stroke="rgb(0, 0, 0)" stroke-linecap="butt" stroke-linejoin="round" stroke-opacity="1.0" stroke-width="1.0000001192092896" />
            <path d=" M 210.472, 206.354 213.508, 212.279 216.458, 218.038 216.458, 218.038 216.458, 218.038 225.043, 212.910 226.360, 212.124 231.619, 213.540 231.619, 213.540 234.197, 214.235 233.983, 207.968 233.983, 207.968 233.642, 197.974 233.301, 187.979 232.961, 177.985 232.837, 174.368 232.496, 164.374 232.198, 155.623 242.135, 156.739 252.073, 157.856 262.010, 158.973 271.947, 160.089 281.885, 161.206 291.822, 162.323 301.760, 163.439 310.819, 164.457 " fill="none" stroke="rgb(0, 0, 0)" stroke-linecap="butt" stroke-linejoin="round" stroke-opacity="1.0" stroke-width="1.0000001192092896" />
            <path d=" M 213.739, 258.827 215.569, 256.878 218.233, 254.041 219.396, 252.225 219.396, 252.225 220.126, 251.085 220.126, 251.085 222.403, 247.529 222.731, 246.943 222.731, 246.943 227.612, 238.215 232.493, 229.487 232.751, 229.025 232.751, 229.025 237.564, 220.419 " fill="none" stroke="rgb(0, 0, 0)" stroke-linecap="butt" stroke-linejoin="round" stroke-opacity="1.0" stroke-width="1.0000001192092896" />
            <path d=" M 216.883, 246.844 218.233, 254.041 218.233, 254.041 218.233, 254.041 215.242, 252.108 213.739, 251.137 " fill="none" stroke="rgb(0, 0, 0)" stroke-linecap="butt" stroke-linejoin="round" stroke-opacity="1.0" stroke-width="1.0000001192092896" />
            <path d=" M 213.739, 251.137 213.739, 258.827 " fill="none" stroke="rgb(0, 0, 0)" stroke-linecap="butt" stroke-linejoin="round" stroke-opacity="1.0" stroke-width="1.0000001192092896" />
            <path d=" M 228.895, 220.419 227.619, 223.299 227.619, 223.299 224.096, 231.247 224.096, 231.247 223.228, 233.207 223.228, 233.207 223.228, 233.207 219.010, 242.274 218.621, 243.108 218.621, 243.108 217.339, 245.866 217.339, 245.866 216.883, 246.844 216.883, 246.844 216.883, 246.844 215.052, 249.345 213.739, 251.137 215.052, 249.345 " fill="none" stroke="rgb(0, 0, 0)" stroke-linecap="butt" stroke-linejoin="round" stroke-opacity="1.0" stroke-width="1.0000001192092896" />
            <path d=" M 223.228, 233.207 222.653, 243.190 222.404, 247.529 222.403, 247.529 222.403, 247.529 216.883, 246.844 " fill="none" stroke="rgb(0, 0, 0)" stroke-linecap="butt" stroke-linejoin="round" stroke-opacity="1.0" stroke-width="1.0000001192092896" />
            <path d=" M 238.081, 219.494 238.081, 219.494 230.734, 226.277 223.386, 233.060 223.228, 233.207 " fill="none" stroke="rgb(0, 0, 0)" stroke-linecap="butt" stroke-linejoin="round" stroke-opacity="1.0" stroke-width="1.0000001192092896" />
            <path d=" M 238.081, 219.494 238.081, 219.494 229.139, 219.867 " fill="none" stroke="rgb(0, 0, 0)" stroke-linecap="butt" stroke-linejoin="round" stroke-opacity="1.0" stroke-width="1.0000001192092896" />
            <path d=" M 231.086, 214.902 229.139, 219.868 229.139, 219.869 228.895, 220.419 " fill="none" stroke="rgb(0, 0, 0)" stroke-linecap="butt" stroke-linejoin="round" stroke-opacity="1.0" stroke-width="1.0000001192092896" />
            <path d=" M 238.081, 219.494 238.081, 219.494 236.252, 214.520 236.252, 214.520 " fill="none" stroke="rgb(0, 0, 0)" stroke-linecap="butt" stroke-linejoin="round" stroke-opacity="1.0" stroke-width="1.0000001192092896" />
            <path d=" M 237.564, 220.419 238.081, 219.494 239.973, 215.037 239.973, 215.037 " fill="none" stroke="rgb(0, 0, 0)" stroke-linecap="butt" stroke-linejoin="round" stroke-opacity="1.0" stroke-width="1.0000001192092896" />
            <path d=" M 203.191, 99.018 203.694, 89.031 204.196, 79.043 204.699, 69.056 205.201, 59.069 205.704, 49.081 205.938, 44.430 205.938, 44.429 215.938, 44.429 225.938, 44.429 235.938, 44.429 238.056, 44.429 " fill="none" stroke="rgb(0, 0, 0)" stroke-linecap="butt" stroke-linejoin="round" stroke-opacity="1.0" stroke-width="1.0000001192092896" />
            <path d=" M 221.726, 153.603 231.726, 153.603 235.310, 153.603 235.310, 153.603 235.310, 143.603 235.310, 133.603 235.310, 123.603 235.310, 113.603 235.310, 103.603 235.310, 99.018 235.813, 89.031 236.315, 79.043 236.818, 69.056 237.320, 59.069 237.822, 49.081 238.056, 44.429 228.056, 44.429 218.056, 44.429 208.056, 44.429 205.938, 44.429 205.435, 54.417 204.933, 64.404 204.430, 74.392 203.928, 84.379 203.425, 94.366 203.191, 99.018 203.191, 109.018 203.191, 119.018 203.191, 129.018 203.191, 139.018 203.191, 149.018 203.191, 153.603 203.191, 153.603 " fill="none" stroke="rgb(0, 0, 0)" stroke-linecap="butt" stroke-linejoin="round" stroke-opacity="1.0" stroke-width="1.0000001192092896" />
            <path d=" M 205.938, 44.429 205.938, 44.430 210.676, 53.236 215.414, 62.042 220.153, 70.848 224.891, 79.654 229.629, 88.460 234.368, 97.266 235.310, 99.018 235.310, 99.018 235.310, 99.018 225.310, 99.018 215.310, 99.018 205.310, 99.018 203.191, 99.018 203.191, 99.018 203.191, 99.018 208.263, 107.637 213.334, 116.255 218.405, 124.874 223.477, 133.493 228.548, 142.111 233.620, 150.730 235.310, 153.603 235.310, 153.603 " fill="none" stroke="rgb(0, 0, 0)" stroke-linecap="butt" stroke-linejoin="round" stroke-opacity="1.0" stroke-width="1.0000001192092896" />
            <path d=" M 267.100, 925.302 277.100, 925.302 287.100, 925.301 297.100, 925.301 298.438, 925.301 298.438, 925.301 " fill="none" stroke="rgb(0, 0, 0)" stroke-linecap="butt" stroke-linejoin="round" stroke-opacity="1.0" stroke-width="1.0000001192092896" />
            <path d=" M 163.434, 899.868 162.145, 900.078 161.230, 910.036 160.315, 919.994 159.828, 925.302 " fill="none" stroke="rgb(0, 0, 0)" stroke-linecap="butt" stroke-linejoin="round" stroke-opacity="1.0" stroke-width="1.0000001192092896" />
            <path d=" M 203.501, 559.853 203.797, 569.849 204.093, 579.844 204.390, 589.840 204.686, 599.835 204.982, 609.831 205.184, 616.635 206.863, 626.493 208.542, 636.351 210.221, 646.209 211.901, 656.067 213.580, 665.925 215.259, 675.783 216.462, 682.846 217.638, 692.777 218.815, 702.708 219.991, 712.638 221.168, 722.569 222.038, 729.917 222.790, 739.889 223.541, 749.861 224.292, 759.833 225.043, 769.804 225.795, 779.776 226.051, 783.180 226.596, 793.165 227.141, 803.150 227.685, 813.136 228.230, 823.121 228.775, 833.106 229.320, 843.091 229.864, 853.076 230.409, 863.061 230.954, 873.046 231.144, 876.534 222.135, 880.874 217.362, 883.174 " fill="none" stroke="rgb(0, 0, 0)" stroke-linecap="butt" stroke-linejoin="round" stroke-opacity="1.0" stroke-width="1.0000001192092896" />
            <path d=" M 162.145, 900.078 162.145, 900.078 " fill="none" stroke="rgb(0, 0, 0)" stroke-linecap="butt" stroke-linejoin="round" stroke-opacity="1.0" stroke-width="1.0000001192092896" />
            <path d=" M 298.438, 925.301 298.438, 925.301 " fill="none" stroke="rgb(0, 0, 0)" stroke-linecap="butt" stroke-linejoin="round" stroke-opacity="1.0" stroke-width="1.0000001192092896" />
            <path d=" M 267.098, 925.302 267.098, 925.302 267.100, 925.302 267.101, 925.302 277.101, 925.302 287.101, 925.301 297.101, 925.301 298.438, 925.301 298.438, 925.301 297.286, 915.367 296.133, 905.434 295.497, 899.950 296.202, 889.975 296.907, 880.000 297.612, 870.025 298.317, 860.050 299.022, 850.075 299.727, 840.100 300.432, 830.125 301.137, 820.149 301.842, 810.174 302.547, 800.199 303.252, 790.224 303.808, 782.353 302.812, 772.403 301.817, 762.452 300.821, 752.502 299.826, 742.552 298.830, 732.601 297.835, 722.651 296.839, 712.701 296.091, 705.226 296.771, 695.249 297.451, 685.272 298.131, 675.296 298.811, 665.319 299.491, 655.342 300.170, 645.365 300.850, 635.388 301.530, 625.411 302.077, 617.390 302.200, 607.391 302.324, 597.392 302.447, 587.393 302.571, 577.393 302.613, 573.995 302.625, 573.019 " fill="none" stroke="rgb(0, 0, 0)" stroke-linecap="butt" stroke-linejoin="round" stroke-opacity="1.0" stroke-width="1.0000001192092896" />
            <path d=" M 174.982, 925.302 177.006, 915.509 179.031, 905.717 179.478, 903.554 " fill="none" stroke="rgb(0, 0, 0)" stroke-linecap="butt" stroke-linejoin="round" stroke-opacity="1.0" stroke-width="1.0000001192092896" />
            <path d=" M 179.478, 903.554 172.774, 910.974 166.070, 918.394 159.828, 925.302 " fill="none" stroke="rgb(0, 0, 0)" stroke-linecap="butt" stroke-linejoin="round" stroke-opacity="1.0" stroke-width="1.0000001192092896" />
            <path d=" M 203.258, 551.661 203.258, 551.670 203.498, 559.750 203.498, 559.750 203.501, 559.853 203.797, 569.849 204.093, 579.844 204.390, 589.840 204.686, 599.835 204.982, 609.831 205.184, 616.635 205.184, 616.635 205.184, 616.635 205.184, 616.635 206.863, 626.493 208.542, 636.351 210.221, 646.209 211.901, 656.067 213.580, 665.925 215.259, 675.783 216.462, 682.846 216.462, 682.846 216.462, 682.847 216.462, 682.847 216.462, 682.847 217.639, 692.777 218.815, 702.708 219.991, 712.638 221.168, 722.569 222.038, 729.917 222.038, 729.917 222.038, 729.917 222.038, 729.917 222.038, 729.917 222.790, 739.889 223.541, 749.861 224.292, 759.833 225.044, 769.804 225.795, 779.776 226.051, 783.180 226.051, 783.181 226.051, 783.182 226.596, 793.167 227.141, 803.152 227.686, 813.138 228.230, 823.123 228.775, 833.108 229.320, 843.093 229.865, 853.078 230.409, 863.063 230.954, 873.048 231.144, 876.534 231.144, 876.534 231.144, 876.534 231.144, 876.534 231.144, 876.534 231.144, 876.534 222.135, 880.874 217.362, 883.174 208.353, 887.514 199.344, 891.854 192.545, 895.130 182.675, 896.736 172.805, 898.343 163.434, 899.868 162.145, 900.078 162.145, 900.078 162.145, 900.078 161.230, 910.036 160.315, 919.994 159.828, 925.302 159.828, 925.302 169.828, 925.302 174.981, 925.302 174.982, 925.302 184.982, 925.302 192.621, 925.302 " fill="none" stroke="rgb(0, 0, 0)" stroke-linecap="butt" stroke-linejoin="round" stroke-opacity="1.0" stroke-width="1.0000001192092896" />
            <path d=" M 199.007, 898.416 189.336, 900.960 179.478, 903.554 169.673, 901.588 162.145, 900.078 " fill="none" stroke="rgb(0, 0, 0)" stroke-linecap="butt" stroke-linejoin="round" stroke-opacity="1.0" stroke-width="1.0000001192092896" />
            <path d=" M 196.744, 925.302 196.744, 925.302 206.744, 925.302 216.744, 925.302 226.744, 925.302 236.744, 925.302 246.744, 925.302 256.744, 925.302 267.098, 925.302 " fill="none" stroke="rgb(0, 0, 0)" stroke-linecap="butt" stroke-linejoin="round" stroke-opacity="1.0" stroke-width="1.0000001192092896" />
            <path d=" M 199.007, 898.416 198.168, 908.381 197.329, 918.346 196.744, 925.302 " fill="none" stroke="rgb(0, 0, 0)" stroke-linecap="butt" stroke-linejoin="round" stroke-opacity="1.0" stroke-width="1.0000001192092896" />
            <path d=" M 268.221, 893.645 258.245, 894.333 248.269, 895.020 238.292, 895.708 228.316, 896.396 218.340, 897.083 208.363, 897.771 199.007, 898.416 " fill="none" stroke="rgb(0, 0, 0)" stroke-linecap="butt" stroke-linejoin="round" stroke-opacity="1.0" stroke-width="1.0000001192092896" />
            <path d=" M 268.221, 893.645 277.964, 895.897 287.707, 898.150 295.497, 899.950 295.497, 899.950 295.497, 899.950 288.037, 906.610 280.577, 913.270 273.117, 919.929 267.098, 925.302 " fill="none" stroke="rgb(0, 0, 0)" stroke-linecap="butt" stroke-linejoin="round" stroke-opacity="1.0" stroke-width="1.0000001192092896" />
            <path d=" M 196.744, 925.302 190.526, 917.470 184.308, 909.639 179.478, 903.554 187.883, 898.136 192.545, 895.130 192.545, 895.130 192.545, 895.130 199.007, 898.416 " fill="none" stroke="rgb(0, 0, 0)" stroke-linecap="butt" stroke-linejoin="round" stroke-opacity="1.0" stroke-width="1.0000001192092896" />
            <path d=" M 267.098, 925.302 257.797, 921.630 248.496, 917.957 239.195, 914.285 229.894, 910.612 220.592, 906.939 211.291, 903.267 201.990, 899.594 199.007, 898.416 207.272, 892.788 215.538, 887.160 223.804, 881.532 231.144, 876.534 " fill="none" stroke="rgb(0, 0, 0)" stroke-linecap="butt" stroke-linejoin="round" stroke-opacity="1.0" stroke-width="1.0000001192092896" />
            <path d=" M 250.000, 544.271 250.488, 554.259 250.975, 564.247 251.463, 574.235 251.554, 576.092 251.554, 576.093 251.554, 576.095 252.041, 586.083 252.529, 596.071 253.016, 606.060 253.504, 616.048 253.532, 616.625 254.419, 626.586 255.306, 636.546 256.192, 646.507 257.079, 656.467 257.966, 666.428 258.853, 676.389 259.740, 686.349 260.627, 696.310 261.513, 706.270 261.780, 709.269 262.335, 719.254 262.889, 729.239 263.443, 739.223 263.997, 749.208 264.551, 759.193 265.105, 769.177 265.659, 779.162 265.873, 783.013 266.085, 793.011 266.298, 803.008 266.510, 813.006 266.722, 823.004 266.934, 833.002 267.146, 842.999 267.359, 852.997 267.571, 862.995 267.783, 872.993 267.995, 882.990 268.221, 893.645 259.142, 889.455 250.062, 885.264 240.982, 881.074 231.902, 876.884 231.144, 876.534 " fill="none" stroke="rgb(0, 0, 0)" stroke-linecap="butt" stroke-linejoin="round" stroke-opacity="1.0" stroke-width="1.0000001192092896" />
            <path d=" M 302.613, 573.995 306.631, 573.829 309.222, 564.171 311.814, 554.513 314.406, 544.854 316.998, 535.196 318.005, 531.444 317.893, 531.163 317.893, 531.162 " fill="none" stroke="rgb(0, 0, 0)" stroke-linecap="butt" stroke-linejoin="round" stroke-opacity="1.0" stroke-width="1.0000001192092896" />
            <path d=" M 318.005, 531.444 314.535, 540.822 311.066, 550.201 307.596, 559.580 304.127, 568.959 302.625, 573.019 " fill="none" stroke="rgb(0, 0, 0)" stroke-linecap="butt" stroke-linejoin="round" stroke-opacity="1.0" stroke-width="1.0000001192092896" />
            <path d=" M 314.835, 531.368 312.022, 540.964 309.208, 550.561 306.395, 560.157 303.582, 569.753 302.625, 573.019 306.631, 573.829 " fill="none" stroke="rgb(0, 0, 0)" stroke-linecap="butt" stroke-linejoin="round" stroke-opacity="1.0" stroke-width="1.0000001192092896" />
            <path d=" M 317.865, 531.161 317.865, 531.162 318.005, 531.444 314.873, 531.361 " fill="none" stroke="rgb(0, 0, 0)" stroke-linecap="butt" stroke-linejoin="round" stroke-opacity="1.0" stroke-width="1.0000001192092896" />
            <path d=" M 196.279, 553.598 203.498, 559.750 203.498, 559.750 " fill="none" stroke="rgb(0, 0, 0)" stroke-linecap="butt" stroke-linejoin="round" stroke-opacity="1.0" stroke-width="1.0000001192092896" />
            <path d=" M 196.306, 553.460 196.305, 553.463 196.279, 553.598 203.501, 559.853 203.501, 559.853 " fill="none" stroke="rgb(0, 0, 0)" stroke-linecap="butt" stroke-linejoin="round" stroke-opacity="1.0" stroke-width="1.0000001192092896" />
            <path d=" M 253.532, 616.625 248.647, 625.351 243.763, 634.077 238.878, 642.803 233.994, 651.528 229.109, 660.254 224.224, 668.980 219.340, 677.706 216.462, 682.847 225.101, 687.883 233.740, 692.920 242.379, 697.957 251.017, 702.994 259.656, 708.031 261.780, 709.269 " fill="none" stroke="rgb(0, 0, 0)" stroke-linecap="butt" stroke-linejoin="round" stroke-opacity="1.0" stroke-width="1.0000001192092896" />
            <path d=" M 253.532, 616.625 243.532, 616.627 233.532, 616.629 223.532, 616.631 213.532, 616.633 205.184, 616.635 " fill="none" stroke="rgb(0, 0, 0)" stroke-linecap="butt" stroke-linejoin="round" stroke-opacity="1.0" stroke-width="1.0000001192092896" />
            <path d=" M 253.532, 616.625 263.531, 616.783 273.530, 616.940 283.528, 617.098 293.527, 617.255 302.077, 617.390 302.077, 617.390 302.077, 617.390 298.060, 626.548 294.044, 635.706 290.027, 644.864 286.011, 654.022 281.994, 663.180 277.978, 672.338 273.961, 681.496 269.945, 690.654 265.928, 699.812 261.780, 709.269 " fill="none" stroke="rgb(0, 0, 0)" stroke-linecap="butt" stroke-linejoin="round" stroke-opacity="1.0" stroke-width="1.0000001192092896" />
            <path d=" M 265.873, 783.013 259.507, 775.301 253.140, 767.590 246.774, 759.878 240.407, 752.167 234.041, 744.455 227.674, 736.744 222.038, 729.917 230.912, 725.307 239.786, 720.697 248.660, 716.086 257.533, 711.476 261.780, 709.269 271.712, 708.099 281.643, 706.929 291.574, 705.759 296.091, 705.226 296.091, 705.226 296.091, 705.226 292.470, 714.548 288.849, 723.869 285.228, 733.190 281.607, 742.512 277.986, 751.833 274.365, 761.154 270.744, 770.476 267.122, 779.797 265.873, 783.013 " fill="none" stroke="rgb(0, 0, 0)" stroke-linecap="butt" stroke-linejoin="round" stroke-opacity="1.0" stroke-width="1.0000001192092896" />
            <path d=" M 250.011, 544.269 258.786, 549.064 267.561, 553.859 276.337, 558.654 285.112, 563.449 293.888, 568.245 302.625, 573.019 302.625, 573.019 302.625, 573.019 302.625, 573.019 301.473, 574.041 293.997, 580.682 286.520, 587.323 279.044, 593.964 271.567, 600.605 264.091, 607.246 256.614, 613.887 253.532, 616.625 247.413, 608.716 241.293, 600.807 235.174, 592.898 229.054, 584.989 222.935, 577.080 222.012, 575.886 215.892, 567.977 209.773, 560.068 203.653, 552.159 203.273, 551.668 203.267, 551.660 " fill="none" stroke="rgb(0, 0, 0)" stroke-linecap="butt" stroke-linejoin="round" stroke-opacity="1.0" stroke-width="1.0000001192092896" />
            <path d=" M 265.873, 783.013 275.872, 782.839 285.870, 782.665 295.869, 782.491 303.808, 782.353 303.808, 782.353 303.808, 782.353 300.762, 791.878 297.717, 801.403 294.671, 810.928 291.625, 820.453 288.580, 829.978 285.534, 839.502 282.488, 849.027 279.443, 858.552 276.397, 868.077 273.351, 877.602 270.305, 887.127 268.221, 893.645 267.867, 903.639 267.512, 913.633 267.158, 923.626 267.098, 925.302 " fill="none" stroke="rgb(0, 0, 0)" stroke-linecap="butt" stroke-linejoin="round" stroke-opacity="1.0" stroke-width="1.0000001192092896" />
            <path d=" M 226.051, 783.180 236.051, 783.138 246.051, 783.096 256.051, 783.054 265.873, 783.013 262.392, 792.387 258.911, 801.762 255.430, 811.136 251.948, 820.511 248.467, 829.885 244.986, 839.260 241.505, 848.634 238.023, 858.009 234.542, 867.383 231.144, 876.534 " fill="none" stroke="rgb(0, 0, 0)" stroke-linecap="butt" stroke-linejoin="round" stroke-opacity="1.0" stroke-width="1.0000001192092896" />
            <path d=" M 216.462, 682.846 216.462, 682.846 216.462, 682.847 " fill="none" stroke="rgb(0, 0, 0)" stroke-linecap="butt" stroke-linejoin="round" stroke-opacity="1.0" stroke-width="1.0000001192092896" />
            <path d=" M 205.184, 616.635 205.184, 616.635 205.184, 616.635 " fill="none" stroke="rgb(0, 0, 0)" stroke-linecap="butt" stroke-linejoin="round" stroke-opacity="1.0" stroke-width="1.0000001192092896" />
            <path d=" M 222.038, 729.917 222.038, 729.917 222.038, 729.917 " fill="none" stroke="rgb(0, 0, 0)" stroke-linecap="butt" stroke-linejoin="round" stroke-opacity="1.0" stroke-width="1.0000001192092896" />
            <path d=" M 226.051, 783.180 226.051, 783.180 " fill="none" stroke="rgb(0, 0, 0)" stroke-linecap="butt" stroke-linejoin="round" stroke-opacity="1.0" stroke-width="1.0000001192092896" />
            <path d=" M 29.719, 403.382 29.718, 403.382 " fill="none" stroke="rgb(0, 0, 0)" stroke-linecap="butt" stroke-linejoin="round" stroke-opacity="1.0" stroke-width="1.0000001192092896" />
            <path d=" M 81.527, 398.048 81.527, 398.047 81.527, 398.047 " fill="none" stroke="rgb(0, 0, 0)" stroke-linecap="butt" stroke-linejoin="round" stroke-opacity="1.0" stroke-width="1.0000001192092896" />
            <path d=" M 93.097, 417.665 93.611, 417.635 " fill="none" stroke="rgb(0, 0, 0)" stroke-linecap="butt" stroke-linejoin="round" stroke-opacity="1.0" stroke-width="1.0000001192092896" />
            <path d=" M 192.622, 925.302 196.744, 925.302 " fill="none" stroke="rgb(0, 0, 0)" stroke-linecap="butt" stroke-linejoin="round" stroke-opacity="1.0" stroke-width="1.0000001192092896" />
            <path d=" M 192.621, 925.302 192.622, 925.302 " fill="none" stroke="rgb(0, 0, 0)" stroke-linecap="butt" stroke-linejoin="round" stroke-opacity="1.0" stroke-width="1.0000001192092896" />
            <path d=" M 203.191, 153.603 203.191, 143.603 203.191, 133.603 203.191, 123.603 203.191, 113.603 203.191, 103.603 203.191, 99.018 203.191, 99.018 " fill="none" stroke="rgb(0, 0, 0)" stroke-linecap="butt" stroke-linejoin="round" stroke-opacity="1.0" stroke-width="1.0000001192092896" />
            <path d=" M 203.143, 551.679 203.067, 551.701 196.279, 553.598 " fill="none" stroke="rgb(0, 0, 0)" stroke-linecap="butt" stroke-linejoin="round" stroke-opacity="1.0" stroke-width="1.0000001192092896" />
            <path d=" M 201.975, 359.279 201.975, 359.279 198.452, 358.146 198.949, 363.284 198.949, 363.284 " fill="none" stroke="rgb(0, 0, 0)" stroke-linecap="butt" stroke-linejoin="round" stroke-opacity="1.0" stroke-width="1.0000001192092896" />
            <path d=" M 215.599, 218.306 216.271, 228.284 216.519, 231.962 " fill="none" stroke="rgb(0, 0, 0)" stroke-linecap="butt" stroke-linejoin="round" stroke-opacity="1.0" stroke-width="1.0000001192092896" />
            <path d=" M 217.339, 245.866 217.339, 245.866 214.260, 236.352 214.134, 235.961 " fill="none" stroke="rgb(0, 0, 0)" stroke-linecap="butt" stroke-linejoin="round" stroke-opacity="1.0" stroke-width="1.0000001192092896" />
            <path d=" M 224.096, 231.247 224.096, 231.247 224.963, 221.284 225.038, 220.419 225.769, 216.042 " fill="none" stroke="rgb(0, 0, 0)" stroke-linecap="butt" stroke-linejoin="round" stroke-opacity="1.0" stroke-width="1.0000001192092896" />
            <path d=" M 224.144, 216.390 225.038, 220.419 " fill="none" stroke="rgb(0, 0, 0)" stroke-linecap="butt" stroke-linejoin="round" stroke-opacity="1.0" stroke-width="1.0000001192092896" />
            <path d=" M 219.873, 153.603 216.810, 153.101 " fill="none" stroke="rgb(0, 0, 0)" stroke-linecap="butt" stroke-linejoin="round" stroke-opacity="1.0" stroke-width="1.0000001192092896" />
            <path d=" M 198.519, 363.853 196.036, 367.140 " fill="none" stroke="rgb(0, 0, 0)" stroke-linecap="butt" stroke-linejoin="round" stroke-opacity="1.0" stroke-width="1.0000001192092896" />
            <path d=" M 216.751, 153.603 206.751, 153.603 203.191, 153.603 " fill="none" stroke="rgb(0, 0, 0)" stroke-linecap="butt" stroke-linejoin="round" stroke-opacity="1.0" stroke-width="1.0000001192092896" />
            <path d=" M 230.849, 321.058 234.059, 330.529 237.268, 340.000 240.477, 349.471 243.290, 357.772 250.159, 359.406 " fill="none" stroke="rgb(0, 0, 0)" stroke-linecap="butt" stroke-linejoin="round" stroke-opacity="1.0" stroke-width="1.0000001192092896" />
            <path d=" M 227.619, 223.299 227.619, 223.299 225.038, 220.419 228.895, 220.419 228.895, 220.419 " fill="none" stroke="rgb(0, 0, 0)" stroke-linecap="butt" stroke-linejoin="round" stroke-opacity="1.0" stroke-width="1.0000001192092896" />
            <path d=" M 231.144, 876.534 231.144, 876.534 231.144, 876.534 " fill="none" stroke="rgb(0, 0, 0)" stroke-linecap="butt" stroke-linejoin="round" stroke-opacity="1.0" stroke-width="1.0000001192092896" />
            <path d=" M 267.098, 925.302 267.098, 925.302 " fill="none" stroke="rgb(0, 0, 0)" stroke-linecap="butt" stroke-linejoin="round" stroke-opacity="1.0" stroke-width="1.0000001192092896" />
            <path d=" M 267.098, 925.302 267.098, 925.302 " fill="none" stroke="rgb(0, 0, 0)" stroke-linecap="butt" stroke-linejoin="round" stroke-opacity="1.0" stroke-width="1.0000001192092896" />
            <path d=" M 297.147, 222.406 297.147, 222.406 292.739, 231.382 289.959, 237.043 " fill="none" stroke="rgb(0, 0, 0)" stroke-linecap="butt" stroke-linejoin="round" stroke-opacity="1.0" stroke-width="1.0000001192092896" />
        </g>
    </g>
</svg>
