<svg xmlns="http://www.w3.org/2000/svg" viewBox="-200 0 1920 1080"><defs/><path fill="#323232" d="M942 86l19 5 17 1-16-7z"/><path fill="#0c0c0c" d="M972 152l14-16-12 12-9 17z"/><path fill="#030303" d="M875 134l6-4 16-15-8 8z"/><path fill="#757575" d="M961 91l17 24 12-4-12-19z"/><path fill="#4a4a4a" d="M979 134l-5 14 12-12 6-15z"/><path fill="#181818" d="M852 158l-5 6 2-1 5-5z"/><path fill="#242424" d="M861 149h2l18-19-6 4z"/><path fill="#838383" d="M978 115l1 19 13-13-2-10z"/><path fill="#232323" d="M852 158h2l9-9h-2z"/><path fill="#3c3c3c" d="M897 115l20-10 25-19-14 6z"/><path fill="#0a0a0a" d="M926 212l1-4-7 9-1 3z"/><path fill="#616161" d="M965 165l9-17-19 17-2 16z"/><path fill="#5c5c5c" d="M881 130l14-1 22-24-20 10z"/><path fill="#979797" d="M917 105h22l22-14-19-5z"/><path fill="#2f2f2f" d="M1069 77l15 18 7 1-10-14z"/><path fill="#838383" d="M854 158l-5 5 9 6 7-7z"/><path fill="#818181" d="M863 149l15 3 17-23-14 1z"/><path fill="#6f6f6f" d="M849 163l-7 5 9 6 7-5z"/><path fill="#303030" d="M1014 98l12-6 21-21-14 9z"/><path fill="#898989" d="M854 158l11 4 13-10-15-3z"/><path fill="#9e9e9e" d="M956 149l-1 16 19-17 5-14z"/><path fill="#303030" d="M1089 113l-8 23 8-13 4-13z"/><path fill="#7b7b7b" d="M953 181l2-16-17 18 2 11z"/><path fill="#444" d="M1084 95l5 18 4-3-2-14z"/><path fill="#d5d5d5" d="M939 105l16 22 23-12-17-24z"/><path fill="#cbcbcb" d="M955 127l1 22 23-15-1-19z"/><path fill="#7f7f7f" d="M940 194l-2-11-14 16 3 9z"/><path fill="#878787" d="M927 208l-3-9-11 11 7 7z"/><path fill="#6c6c6c" d="M842 168l-28 25 8 8 29-27z"/><path fill="#8f8f8f" d="M915 225l5-8-7-7-5 6z"/><path fill="#909090" d="M909 232l6-7-7-9-4 5z"/><path fill="#c9c9c9" d="M895 129l17 7 27-31h-22z"/><path fill="#3b3b3b" d="M1071 155l10-19-13 13-4 18z"/><path fill="#717171" d="M774 233l-8 7 11 4 7-7z"/><path fill="#6b6b6b" d="M780 226l-6 7 10 4 6-7z"/><path fill="#5e5e5e" d="M789 217l-9 9 10 4 9-9z"/><path fill="#c3c3c3" d="M934 166l4 17 17-18 1-16z"/><path fill="#646464" d="M814 193l-25 24 10 4 23-20z"/><path fill="#555" d="M766 240l-6 6 11 2 6-4z"/><path fill="#8f8f8f" d="M1026 92l19 5 24-20-22-6z"/><path fill="#7c7c7c" d="M881 261l28-29-5-11-28 34z"/><path fill="#4c4c4c" d="M993 128l9-4 24-32-12 6z"/><path fill="#d2d2d2" d="M865 162l-7 7 14 10 6-7z"/><path fill="#d7d7d7" d="M878 152l11 9 23-25-17-7z"/><path fill="#d5d5d5" d="M865 162l13 10 11-11-11-9z"/><path fill="#c2c2c2" d="M858 169l-7 5 16 10 5-5z"/><path fill="#f7f7f7" d="M912 136l16 17 27-26-16-22z"/><path fill="#eee" d="M928 153l6 13 22-17-1-22z"/><path fill="#d4d4d4" d="M914 189l10 10 14-16-4-17z"/><path fill="#8a8a8a" d="M1067 129l1 20 13-13 8-23z"/><path fill="#dadada" d="M904 199l9 11 11-11-10-10z"/><path fill="#dadada" d="M904 199l-5 6 9 11 5-6z"/><path fill="#616161" d="M1064 167l4-18-18 23 2 13z"/><path fill="#444" d="M978 145l8-1 16-20-9 4z"/><path fill="#797979" d="M860 290l21-29-5-6-23 24z"/><path fill="#494949" d="M760 246l-21 18 9 1 23-17z"/><path fill="#cecece" d="M899 205l-4 5 9 11 4-5z"/><path fill="#f9f9f9" d="M889 161l16 15 23-23-16-17z"/><path fill="#878787" d="M850 302l10-12-7-11-11 11z"/><path fill="#cdcdcd" d="M1045 97l15 20 24-22-15-18z"/><path fill="#fafafa" d="M878 172l-6 7 17 15 6-6zM905 176l9 13 20-23-6-13z"/><path fill="#525252" d="M971 154l7 2 8-12-8 1z"/><path fill="#fafafa" d="M878 172l17 16 10-12-16-15z"/><path fill="#898989" d="M841 311l9-9-8-12-6 8z"/><path fill="#c2c2c2" d="M1060 117l7 12 22-16-5-18z"/><path fill="#626262" d="M971 154l-6 10 8 1 5-9z"/><path fill="#fdfdfd" d="M895 188l-6 6 10 11 5-6z"/><path fill="#6e6e6e" d="M965 164l-6 7 8 3 6-9z"/><path fill="#e5e5e5" d="M872 179l-5 5 17 15 5-5z"/><path fill="#fcfcfc" d="M895 188l9 11 10-10-9-13z"/><path fill="#7a7a7a" d="M834 319l7-8-5-13-6 8z"/><path fill="#c8c8c8" d="M851 174l-29 27 14 14 31-31z"/><path fill="#e7e7e7" d="M889 194l-5 5 11 11 4-5z"/><path fill="#646464" d="M1052 185l-2-13-11 17 4 9z"/><path fill="#737373" d="M821 330l13-11-4-13-11 11z"/><path fill="#c2c2c2" d="M895 210l-27 36 8 9 28-34z"/><path fill="#bcbcbc" d="M1002 124l18 7 25-34-19-5z"/><path fill="#5b5b5b" d="M1043 198l-4-9-5 9 4 8z"/><path fill="#c5c5c5" d="M784 237l-7 7 20 14 5-6z"/><path fill="#191919" d="M884 268l-6 10 5-4 5-9z"/><path fill="#1b1b1b" d="M707 290l-14 11 3 3 12-14z"/><path fill="#c5c5c5" d="M790 230l-6 7 18 15 6-7z"/><path fill="#7e7e7e" d="M799 346l22-16-2-13-22 16z"/><path fill="#a5a5a5" d="M1046 161l4 11 18-23-1-20z"/><path fill="#575757" d="M1032 215l6-9-4-8-5 9z"/><path fill="#707070" d="M959 171l-22 23 10 3 20-23z"/><path fill="#cdcdcd" d="M822 201l-23 20 16 17 21-23z"/><path fill="#cacaca" d="M799 221l-9 9 18 15 7-7z"/><path fill="#535353" d="M739 264l-18 14 11 4 16-17z"/><path fill="#eee" d="M867 184l-31 31 23 17 25-33z"/><path fill="#030303" d="M878 278l-8 7 5-5 8-6z"/><path fill="#9f9f9f" d="M777 244l-6 4 20 15 6-5z"/><path fill="#505050" d="M1026 225l6-10-3-8-5 8z"/><path fill="#d1d1d1" d="M868 246l-24 24 9 9 23-24z"/><path fill="#eee" d="M884 199l-25 33 9 14 27-36z"/><path fill="#e3e3e3" d="M844 270l-9 9 7 11 11-11z"/><path fill="#bebebe" d="M986 144l17 9 17-22-18-7z"/><path fill="#e7e7e7" d="M835 279l-7 7 8 12 6-8z"/><path fill="#d7d7d7" d="M828 286l-5 8 7 12 6-8z"/><path fill="#e8e8e8" d="M1036 146l10 15 21-32-7-12z"/><path fill="#f6f6f6" d="M1020 131l16 15 24-29-15-20z"/><path fill="#060606" d="M776 363l-12 13 9-8 5-6z"/><path fill="#737373" d="M785 360l14-14-2-13-16 17z"/><path fill="#acacac" d="M1033 179l6 10 11-17-4-11z"/><path fill="#c8c8c8" d="M973 165l-6 9 18 9 4-9z"/><path fill="#c2c2c2" d="M978 156l17 9 8-12-17-9z"/><path fill="#c4c4c4" d="M978 156l-5 9 16 9 6-9z"/><path fill="#f1f1f1" d="M859 232l-24 27 9 11 24-24z"/><path fill="#dcdcdc" d="M823 294l-10 9 6 14 11-11z"/><path fill="#525252" d="M1007 253l19-28-2-10-20 27z"/><path fill="#b5b5b5" d="M771 248l-23 17 18 16 25-18z"/><path fill="#f9f9f9" d="M826 267l-7 7 9 12 7-7z"/><path fill="#f3f3f3" d="M835 259l-9 8 9 12 9-9z"/><path fill="#fdfdfd" d="M836 215l-21 23 20 21 24-27z"/><path fill="#fafafa" d="M808 245l-6 7 17 22 7-7z"/><path fill="#f8f8f8" d="M802 252l-5 6 17 21 5-5z"/><path fill="#797979" d="M937 194l-23 28 10 2 23-27z"/><path fill="#ededed" d="M819 274l-5 5 9 15 5-8z"/><path fill="#fefefe" d="M815 238l-7 7 18 22 9-8z"/><path fill="#535353" d="M676 314l8 15 12-25-3-3z"/><path fill="#bcbcbc" d="M1026 189l8 9 5-9-6-10z"/><path fill="#6c6c6c" d="M721 278l-13 12 12 6 12-14z"/><path fill="#050505" d="M1136 165l13 10 1 1-10-8z"/><path fill="#cbcbcb" d="M1026 189l-5 9 8 9 5-9z"/><path fill="#d1d1d1" d="M813 303l-21 18 5 12 22-16z"/><path fill="#6b6b6b" d="M914 222l-18 27 7 4 21-29z"/><path fill="#cfcfcf" d="M797 258l-6 5 13 21 10-5z"/><path fill="#eaeaea" d="M1020 166l13 13 13-18-10-15z"/><path fill="#f4f4f4" d="M1003 153l17 13 16-20-16-15z"/><path fill="#b8b8b8" d="M967 174l-20 23 15 10 23-24z"/><path fill="#dfdfdf" d="M814 279l-10 5 9 19 10-9z"/><path fill="#8f8f8f" d="M778 362l7-2-4-10-8 1z"/><path fill="#c5c5c5" d="M1021 198l-5 8 8 9 5-8z"/><path fill="#616161" d="M896 249l-8 16h7l8-12z"/><path fill="#141414" d="M1149 175l6 11-1-3-4-7z"/><path fill="#6d6d6d" d="M888 265l-5 9 8 2 4-11z"/><path fill="#1c1c1c" d="M1093 169l11-2 17-8-8 2z"/><path fill="#585858" d="M989 281l18-28-3-11-18 28z"/><path fill="#f5f5f5" d="M989 174l-4 9 17 12 5-9z"/><path fill="#f8f8f8" d="M995 165l17 12 8-11-17-13z"/><path fill="#f5f5f5" d="M1012 177l14 12 7-10-13-13z"/><path fill="#4c4c4c" d="M883 274l-8 6 8 1 8-5z"/><path fill="#f8f8f8" d="M995 165l-6 9 18 12 5-9z"/><path fill="#fafafa" d="M1012 177l-5 9 14 12 5-9z"/><path fill="#404040" d="M975 305l14-24-3-11-12 30z"/><path fill="#fafafa" d="M1007 186l-5 9 14 11 5-8z"/><path fill="#797979" d="M708 290l-12 14 13 5 11-13z"/><path fill="#353535" d="M966 324l9-19-1-5-11 18z"/><path fill="#b2b2b2" d="M792 321l-19 17 8 12 16-17z"/><path fill="#e5e5e5" d="M804 284l-20 19 8 18 21-18z"/><path fill="#b8b8b8" d="M748 265l-16 17 15 18 19-19z"/><path fill="#f1f1f1" d="M791 263l-25 18 18 22 20-19z"/><path fill="#454545" d="M958 335l8-11-3-6-6 9z"/><path fill="#b3b3b3" d="M1016 206l-18 25 6 11 20-27z"/><path fill="#5c5c5c" d="M1104 167l16 4 16-6-15-6z"/><path fill="#dfdfdf" d="M985 183l-23 24 18 13 22-25z"/><path fill="#c5c5c5" d="M947 197l-23 27 17 9 21-26z"/><path fill="#545454" d="M676 314l-22 19 9 4 21-8z"/><path fill="#232323" d="M776 363l2-1-5-11v11z"/><path fill="#555" d="M949 346l9-11-1-8-8 8z"/><path fill="#0f0f0f" d="M918 378l-11 11-8 9 14-12z"/><path fill="#e7e7e7" d="M1002 195l-22 25 18 11 18-25z"/><path fill="#bdbdbd" d="M773 338l-9 4 9 9 8-1z"/><path fill="#ddd" d="M784 303l-21 17 10 18 19-17z"/><path fill="#0f0f0f" d="M1143 218l10-18-10 16-7 16z"/><path fill="#ccc" d="M732 282l-12 14 16 15 11-11z"/><path fill="#777" d="M1120 171l15 12 14-8-13-10z"/><path fill="silver" d="M924 224l-21 29 16 9 22-29z"/><path fill="#4e4e4e" d="M875 280l-34 30 9 1 33-30z"/><path fill="#ebebeb" d="M766 281l-19 19 16 20 21-17z"/><path fill="#7a7a7a" d="M1141 194l2 22 10-16 2-14z"/><path fill="#515151" d="M1070 192l10-3 24-22-11 2z"/><path fill="#9a9a9a" d="M709 309l-13-5-12 25 20-2z"/><path fill="#b7b7b7" d="M903 253l-8 12 17 10 7-13z"/><path fill="#858585" d="M1135 183l6 11 14-8-6-11z"/><path fill="#b0b0b0" d="M895 265l-4 11 16 8 5-9z"/><path fill="#070707" d="M1031 241l2-1 14-21-3 5z"/><path fill="#252525" d="M837 314l-12 15 6-1 10-18z"/><path fill="#a4a4a4" d="M998 231l-18 29 6 10 18-28z"/><path fill="#ebebeb" d="M962 207l-21 26 21 14 18-27z"/><path fill="#0c0c0c" d="M887 408l-4 7 16-17 8-9z"/><path fill="#8e8e8e" d="M891 276l-8 5 18 9 6-6z"/><path fill="#1a1a1a" d="M1024 251l3-1 6-10-2 1z"/><path fill="#f1f1f1" d="M763 320l-13 10 14 12 9-4z"/><path fill="#a8a8a8" d="M980 260l-17 29 11 11 12-30z"/><path fill="#1a1a1a" d="M1024 251l-6 9h2l7-10z"/><path fill="#bcbcbc" d="M963 289l-11 15 11 14 11-18z"/><path fill="#4f4f4f" d="M918 378l31-32v-11l-30 32z"/><path fill="#cecece" d="M720 296l-11 13 14 21 13-19z"/><path fill="#fcfcfc" d="M747 300l-11 11 14 19 13-10z"/><path fill="#3a3a3a" d="M1136 232l7-16-13 19-4 14z"/><path fill="#c5c5c5" d="M952 304l-5 10 10 13 6-9z"/><path fill="#f7f7f7" d="M980 220l-18 27 18 13 18-29z"/><path fill="#bfbfbf" d="M947 314l-7 8 9 13 8-8z"/><path fill="#515151" d="M627 351l23-1 13-13-9-4z"/><path fill="#3f3f3f" d="M764 342l-1 11 10 9v-11z"/><path fill="#efefef" d="M941 233l-22 29 24 13 19-28z"/><path fill="#656565" d="M1047 219l12 1 21-31-10 3z"/><path fill="#a0a0a0" d="M1080 189l19 4 21-22-16-4z"/><path fill="#fbfbfb" d="M962 247l-19 28 20 14 17-29z"/><path fill="#262626" d="M825 329l-16 18 5-2 17-17z"/><path fill="#4f4f4f" d="M1126 249l4-14-19 28 1 7z"/><path fill="#f5f5f5" d="M919 262l-7 13 22 15 9-15z"/><path fill="#f8f8f8" d="M912 275l-5 9 23 15 4-9zM943 275l-9 15 18 14 11-15z"/><path fill="#bdbdbd" d="M723 330l-14-21-5 18 11 8z"/><path fill="#f9f9f9" d="M934 290l-4 9 17 15 5-10z"/><path fill="#a9a9a9" d="M1126 217l4 18 13-19-2-22z"/><path fill="#9d9d9d" d="M883 281l-33 30 20 10 31-31z"/><path fill="#3d3d3d" d="M867 423l-5 21 21-29 4-7z"/><path fill="#656565" d="M841 310l-10 18 9-1 10-16z"/><path fill="#cfcfcf" d="M907 284l-6 6 22 15 7-6z"/><path fill="#020202" d="M985 308l-30 39 2-2 30-40z"/><path fill="#e6e6e6" d="M930 299l-7 6 17 17 7-8z"/><path fill="#7a7a7a" d="M1033 240l9 7 17-27-12-1z"/><path fill="#545454" d="M907 389l11-11 1-11-13 11z"/><path fill="#b7b7b7" d="M736 311l-13 19 23 24 4-24z"/><path fill="#d7d7d7" d="M1099 193l18 13 18-23-15-12z"/><path fill="#0f0f0f" d="M955 347l-7 9 3-1 6-10z"/><path fill="#888" d="M1027 250l8 8 7-11-9-7z"/><path fill="#171717" d="M948 356l-7 9 4-2 6-8z"/><path fill="#575757" d="M1112 270l-1-7-14 18 4 5z"/><path fill="#8d8d8d" d="M1027 250l-7 10 10 5 5-7z"/><path fill="#dadada" d="M1117 206l9 11 15-23-6-11z"/><path fill="#7b7b7b" d="M750 330l-4 24 17-1 1-11z"/><path fill="#7a7a7a" d="M715 335l-11-8-20 2 14 14z"/><path fill="#a4a4a4" d="M940 322l-26 32 5 13 30-32z"/><path fill="#0b0b0b" d="M941 365l-5 6 3-3 6-5z"/><path fill="#797979" d="M1020 260l-10 10 12 5 8-10z"/><path fill="#5b5b5b" d="M1101 286l-4-5-6 9 4 7z"/><path fill="#515151" d="M1087 308l8-11-4-7-5 10z"/><path fill="#afafaf" d="M1105 248l6 15 19-28-4-18z"/><path fill="#373737" d="M1079 321l8-13-1-8-6 12z"/><path fill="#c5c5c5" d="M1059 220l18 7 22-34-19-4z"/><path fill="#5c5c5c" d="M887 408l20-19-1-11-23 21z"/><path fill="#777" d="M698 343l-14-14-21 8 18 17z"/><path fill="#6e6e6e" d="M1010 270l-23 35 9 3 26-33z"/><path fill="#e3e3e3" d="M901 290l-31 31 25 18 28-34z"/><path fill="#e3e3e3" d="M923 305l-28 34 19 15 26-32z"/><path fill="#323232" d="M1055 354l24-33 1-9-25 35z"/><path fill="#5a5a5a" d="M831 328l-17 17 7 6 19-24z"/><path fill="#afafaf" d="M850 311l-10 16 21 9 9-15z"/><path fill="#e7e7e7" d="M1095 239l10 9 21-31-9-11z"/><path fill="#b6b6b6" d="M1089 275l8 6 14-18-6-15z"/><path fill="#d4d4d4" d="M1042 247l18 11 17-31-18-7z"/><path fill="#f4f4f4" d="M1077 227l18 12 22-33-18-13z"/><path fill="#929292" d="M715 335l22 21 9-2-23-24z"/><path fill="#aeaeae" d="M914 354l-16 13 8 11 13-11z"/><path fill="#616161" d="M987 305l-30 40 6 5 33-42z"/><path fill="#d7d7d7" d="M1035 258l18 12 7-12-18-11z"/><path fill="#cecece" d="M1035 258l-5 7 18 11 5-6z"/><path fill="#c6c6c6" d="M1082 284l9 6 6-9-8-6z"/><path fill="#444" d="M867 423l20-15-4-9-11 14z"/><path fill="#c8c8c8" d="M1082 284l-4 9 8 7 5-10z"/><path fill="#7d7d7d" d="M659 364l22-10-18-17-13 13z"/><path fill="#292929" d="M1031 393l24-39v-7l-27 44z"/><path fill="#616161" d="M957 345l-6 10 8 3 4-8z"/><path fill="#5c5c5c" d="M951 355l-6 8 7 3 7-8z"/><path fill="#aeaeae" d="M1078 293l-5 14 7 5 6-12z"/><path fill="silver" d="M1030 265l-8 10 17 10 9-9z"/><path fill="#444" d="M945 363l-6 5h9l4-2z"/><path fill="#ededed" d="M1080 270l9 5 16-27-10-9z"/><path fill="#fcfcfc" d="M1060 258l20 12 15-31-18-12z"/><path fill="#2a2a2a" d="M1025 405l6-12-3-2-4 9z"/><path fill="#f1f1f1" d="M1072 280l10 4 7-9-9-5z"/><path fill="#313131" d="M1019 417l6-12-1-5-6 10z"/><path fill="#fefefe" d="M1053 270l19 10 8-10-20-12z"/><path fill="#eee" d="M895 339l-16 14 19 14 16-13zM1072 280l-7 6 13 7 4-9z"/><path fill="#3d3d3d" d="M939 368l-7 5 9 1 7-6z"/><path fill="#3b3b3b" d="M1010 426l9-9-1-7-7 8z"/><path fill="#b0b0b0" d="M898 367l-24 23 9 9 23-21z"/><path fill="#e2e2e2" d="M870 321l-9 15 18 17 16-14z"/><path fill="#6a6a6a" d="M627 351l1 28 31-15-9-14z"/><path fill="#474747" d="M746 354l36 10 2-8-21-3z"/><path fill="#f1f1f1" d="M1053 270l-5 6 17 10 7-6z"/><path fill="#949494" d="M698 343l28 19 11-6-22-21z"/><path fill="#a8a8a8" d="M1073 307l-25 34 7 6 25-35z"/><path fill="#363636" d="M998 436l12-10 1-8-9 9z"/><path fill="#cbcbcb" d="M1022 275l-26 33 16 9 27-32z"/><path fill="#e3e3e3" d="M1065 286l-6 10 14 11 5-14z"/><path fill="#4c4c4c" d="M814 345l-30 11-2 8 39-13z"/><path fill="#e8e8e8" d="M1048 276l-9 9 20 11 6-10z"/><path fill="#515151" d="M720 271l2-2-9 1 1 2z"/><path fill="#a2a2a2" d="M840 327l-19 24 19 8 21-23z"/><path fill="#494949" d="M701 273l4 1 9-2-1-2z"/><path fill="#2d2d2d" d="M731 273l4 1-13-5-2 2z"/><path fill="#5a5a5a" d="M603 392l25-13-1-28-27 22z"/><path fill="#e7e7e7" d="M1059 296l-25 36 14 9 25-34z"/><path fill="#0b0b0b" d="M898 407l-9 4 4 1 8-9z"/><path fill="#a7a7a7" d="M1048 341l-31 47 11 3 27-44z"/><path fill="#bebebe" d="M996 308l-33 42 17 12 32-45z"/><path fill="#a5a5a5" d="M874 390l-12 19 10 4 11-14z"/><path fill="#4b4b4b" d="M932 373l-23 22 9 3 23-24z"/><path fill="#d4d4d4" d="M879 353l-16 27 11 10 24-23z"/><path fill="#2d2d2d" d="M977 461l21-25 4-9-24 25z"/><path fill="#f6f6f6" d="M1039 285l-27 32 22 15 25-36z"/><path fill="#333" d="M705 274l-4-1-10 4h5z"/><path fill="#0a0a0a" d="M950 491l-5 9 14-18 6-7z"/><path fill="#b7b7b7" d="M963 350l-4 8 17 11 4-7z"/><path fill="#989898" d="M681 354l26 20 19-12-28-19z"/><path fill="#b0b0b0" d="M959 358l-7 8 17 9 7-6z"/><path fill="#d9d9d9" d="M861 336l-21 23 23 21 16-27z"/><path fill="#686868" d="M737 356l37 17 8-9-36-10z"/><path fill="#373737" d="M742 280h4l-11-6-4-1z"/><path fill="#ababab" d="M1017 388l-6 8 13 4 4-9z"/><path fill="#8e8e8e" d="M952 366l-4 2 18 11 3-4z"/><path fill="#252525" d="M889 411l-13 10 1 1 16-10z"/><path fill="#343434" d="M714 274l17-1-11-2-11 2z"/><path fill="#292929" d="M876 421l-4-8-10-4 15 13z"/><path fill="#acacac" d="M1011 396l-4 7 11 7 6-10z"/><path fill="#9e9e9e" d="M1007 403l-3 6 7 9 7-8z"/><path fill="#2d2d2d" d="M709 273l-4 1-9 3-1 2z"/><path fill="#ebebeb" d="M1034 332l-32 46 15 10 31-47z"/><path fill="#989898" d="M1004 409l-8 7 6 11 9-9z"/><path fill="#414141" d="M688 279h7l1-2h-5z"/><path fill="#969696" d="M948 368l-7 6 20 10 5-5z"/><path fill="#f9f9f9" d="M1012 317l-32 45 22 16 32-46z"/><path fill="#636363" d="M639 249h4l-8-2-3 1z"/><path fill="#040404" d="M487 87l19 9-16-8-17-5z"/><path fill="#464646" d="M909 395l-8 8 6 2 11-7z"/><path fill="#1a1a1a" d="M618 245l2 1 12 2 3-1z"/><path fill="#424242" d="M965 475l12-14 1-9-11 10z"/><path fill="#898989" d="M821 351l-39 13 42 6 16-11z"/><path fill="#a6a6a6" d="M863 380l-13 25 12 4 12-19z"/><path fill="#5c5c5c" d="M742 280l-11-7-17 1 7 5z"/><path fill="#f3f3f3" d="M1002 378l-4 8 13 10 6-8z"/><path fill="#5e5e5e" d="M647 253h4l-8-4h-4z"/><path fill="#464646" d="M623 248l16 1-7-1-12-2z"/><path fill="#fdfdfd" d="M980 362l-4 7 22 17 4-8z"/><path fill="#2d2d2d" d="M1115 324l3 16 3-3-2-8z"/><path fill="#434343" d="M600 373l-26 15v9l29-5z"/><path fill="#efefef" d="M998 386l-6 7 15 10 4-7z"/><path fill="#515151" d="M714 274l-5-1-14 6v3z"/><path fill="#a1a1a1" d="M681 354l-22 10 24 24 24-14z"/><path fill="#010101" d="M1058 335l10-8 15-14-12 11z"/><path fill="#f5f5f5" d="M976 369l-7 6 23 18 6-7z"/><path fill="#9a9a9a" d="M774 373l-37-17-11 6 32 23z"/><path fill="#323232" d="M929 504l-10 35 26-39 5-9z"/><path fill="#3b3b3b" d="M620 246l-2-1-13 4h5z"/><path fill="#6e6e6e" d="M753 290h4l-11-10h-4z"/><path fill="#333" d="M901 403l-8 9 7-2 7-5z"/><path fill="#323232" d="M1118 340v11l2-6 1-8z"/><path fill="#9a9a9a" d="M996 416l-24 23 6 13 24-25z"/><path fill="#1f1f1f" d="M685 290l4-8-1-3-4 11z"/><path fill="#e6e6e6" d="M992 393l-5 4 17 12 3-6z"/><path fill="#444" d="M689 282h6v-3h-7z"/><path fill="#d4d4d4" d="M969 375l-3 4 21 18 5-4z"/><path fill="#171717" d="M524 167l6 15-3-25-5-18z"/><path fill="#5a5a5a" d="M626 253h21l-8-4-16-1z"/><path fill="#d5d5d5" d="M840 359l-16 11 26 35 13-25z"/><path fill="#a0a0a0" d="M941 374l-23 24 16 11 27-25z"/><path fill="#dedede" d="M987 397l-5 5 14 14 8-7z"/><path fill="#5f5f5f" d="M623 248l-3-2-10 3-6 4z"/><path fill="#414141" d="M850 405l27 24v-7l-15-13z"/><path fill="#353535" d="M893 412l-16 10v7l23-19z"/><path fill="#d3d3d3" d="M966 379l-5 5 21 18 5-5z"/><path fill="#474747" d="M495 103l20 9-9-16-19-9z"/><path fill="#656565" d="M950 491l15-16 2-13-19 15z"/><path fill="#181818" d="M689 314l-4-24h-1l3 25z"/><path fill="#777" d="M753 290l-11-10-21-1 11 12z"/><path fill="#545454" d="M598 254l6-1 6-4h-5z"/><path fill="#6c6c6c" d="M1068 327l15 1 18-13-18-2z"/><path fill="#191919" d="M662 263l6 5-11-10-6-5z"/><path fill="#7e7e7e" d="M655 263h7l-11-10h-4z"/><path fill="#8a8a8a" d="M721 279l-7-5-19 8 6 7z"/><path fill="#1a1a1a" d="M1114 361l4-10-6 14-3 10z"/><path fill="#959595" d="M824 370l-42-6-8 9 31 17z"/><path fill="#a2a2a2" d="M972 439l-13 10 8 13 11-10z"/><path fill="#949494" d="M626 253l-3-5-19 5v6z"/><path fill="#b5b5b5" d="M628 379l21 33 34-24-24-24z"/><path fill="#9b9b9b" d="M1107 353l5 12 6-14v-11z"/><path fill="#686868" d="M465 98l22-11-14-4-12 8z"/><path fill="#dcdcdc" d="M982 402l-25 23 15 14 24-23z"/><path fill="#aeaeae" d="M758 385l-32-23-19 12 30 28z"/><path fill="#2c2c2c" d="M523 199l7 7v-24l-6-15z"/><path fill="#767676" d="M655 263l-8-10h-21l8 10z"/><path fill="#9c9c9c" d="M1083 328l16 8 16-12-14-9z"/><path fill="#9f9f9f" d="M918 398l-11 7 17 12 10-8z"/><path fill="#a5a5a5" d="M1099 336l8 17 11-13-3-16z"/><path fill="#5d5d5d" d="M697 289h4l-6-7h-6z"/><path fill="#424242" d="M1041 356l9-2 18-27-10 8z"/><path fill="#e8e8e8" d="M961 384l-27 25 23 16 25-23z"/><path fill="#8d8d8d" d="M756 301l3-1-2-10h-4zM697 294v-5l-8-7-4 8z"/><path fill="#0a0a0a" d="M574 388l-25 3-4-7 29 13z"/><path fill="#4c4c4c" d="M759 300l5 2-4-7-3-5z"/><path fill="#878787" d="M601 261l3-2v-6l-6 1z"/><path fill="#030303" d="M456 119l-3 32-1 5 5-32z"/><path fill="#656565" d="M598 266l3-5-3-7-4 4z"/><path fill="#3f3f3f" d="M595 284l3-18-4-8-4 26z"/><path fill="#a3a3a3" d="M907 405l-7 5 15 15 9-8z"/><path fill="#646464" d="M1109 375l3-10-16 23 2 8z"/><path fill="#2f2f2f" d="M764 302l6 2-3-4-7-5zM523 208l7 11v-13l-7-7z"/><path fill="#6a6a6a" d="M501 128l21 11-7-27-20-9z"/><path fill="#2c2c2c" d="M703 335l-14-21-2 1 15 26z"/><path fill="#ababab" d="M959 449l-14 14 3 14 19-15z"/><path fill="#949494" d="M701 289l15 9 16-7-11-12z"/><path fill="#444" d="M457 124l8-26-4-7-5 28z"/><path fill="#8d8d8d" d="M756 301l-3-11-21 1 14 15z"/><path fill="#c5c5c5" d="M805 390l21 26 24-11-26-35z"/><path fill="#dcdcdc" d="M957 425l-11 10 13 14 13-10z"/><path fill="#969696" d="M634 263l-8-10-22 6 7 11z"/><path fill="#979797" d="M701 312l-4-18-12-4 4 24z"/><path fill="#646464" d="M1029 375h7l14-21-9 2z"/><path fill="#3a3a3a" d="M523 208l-2 11 7 10 2-10z"/><path fill="#cdcdcd" d="M805 390l-31-17-16 12 32 22z"/><path fill="#888" d="M663 273h4l-5-10h-7z"/><path fill="#595959" d="M929 504l21-13-2-14-12 9z"/><path fill="#eaeaea" d="M934 409l-10 8 22 18 11-10z"/><path fill="#a9a9a9" d="M1092 379l4 9 16-23-5-12z"/><path fill="#b8b8b8" d="M1050 354l14 4 19-30-15-1z"/><path fill="#cecece" d="M737 402l-30-28-24 14 32 28z"/><path fill="#565656" d="M667 273l6 1-5-6-6-5z"/><path fill="#6d6d6d" d="M1024 384h8l4-9h-7z"/><path fill="#0f0f0f" d="M770 304l6 4 3 1-12-9z"/><path fill="#404040" d="M521 219l-2 10 7 9 2-9z"/><path fill="#626262" d="M1098 396l-2-8-10 19 2 5z"/><path fill="#9f9f9f" d="M900 410l-23 19 17 16 21-20z"/><path fill="#bdbdbd" d="M467 116l28-13-8-16-22 11z"/><path fill="#767676" d="M701 289h-4l16 11 3-2zM663 273l-8-10h-21l7 9z"/><path fill="#777" d="M1024 384l-4 9 10-1 2-8z"/><path fill="#838383" d="M877 429l-27-24-24 11 35 22z"/><path fill="#464646" d="M519 229l-6 19 10 8 3-18z"/><path fill="#1b1b1b" d="M673 274l7 4-2-1-10-9z"/><path fill="#404040" d="M607 305l-12-21h-5l12 27z"/><path fill="#d5d5d5" d="M946 435l-9 14 8 14 14-14z"/><path fill="#828282" d="M607 272l4-2-7-11-3 2z"/><path fill="#131313" d="M448 165l-6 17-4 9 7-12z"/><path fill="#9c9c9c" d="M597 425l52-13-21-33-25 13z"/><path fill="#565656" d="M1088 412l-2-5-4 8 1 7z"/><path fill="#cbcbcb" d="M1080 366l12 13 15-26-8-17z"/><path fill="#eaeaea" d="M924 417l-9 8 22 24 9-14z"/><path fill="#292929" d="M445 179l-7 12-3 9 8-10z"/><path fill="#828282" d="M1020 393l-5 7 11 1 4-9z"/><path fill="#686868" d="M453 135l14-19-2-18-8 26z"/><path fill="#9a9a9a" d="M716 298l13 9 17-1-14-15z"/><path fill="#a7a7a7" d="M697 289v5l17 9-1-3z"/><path fill="#e8e8e8" d="M1064 358l16 8 19-30-16-8z"/><path fill="#272727" d="M429 207l11-8 3-9-8 10z"/><path fill="#868686" d="M501 156l23 11-2-28-21-11z"/><path fill="#9f9f9f" d="M606 275l1-3-6-11-3 5z"/><path fill="#050505" d="M981 445l-6 9 4-5 6-9z"/><path fill="#464646" d="M513 248l-2 21 11 7 1-20z"/><path fill="#4b4b4b" d="M424 218l12-5 4-14-11 8z"/><path fill="#5e5e5e" d="M1077 430l6-8-1-7-6 9z"/><path fill="#c9c9c9" d="M790 407l-32-22-21 17 27 22z"/><path fill="#282828" d="M749 303h5l10-1-5-2z"/><path fill="#bfbfbf" d="M1036 375l14 5 14-22-14-4z"/><path fill="#5a5a5a" d="M421 234l11-4 4-17-12 5z"/><path fill="#565656" d="M1072 438l5-8-1-6-5 6z"/><path fill="#121212" d="M975 454l-7 10 6-6 5-9z"/><path fill="#a3a3a3" d="M1080 399l6 8 10-19-4-9z"/><path fill="#a0a0a0" d="M945 463l-21 16 12 7 12-9z"/><path fill="#e1e1e1" d="M649 412l34 31 32-27-32-28z"/><path fill="#969696" d="M713 328l-12-16-12 2 14 21z"/><path fill="#030303" d="M776 308l11 8 4 4-12-11z"/><path fill="#333" d="M879 358l2-1-6-3z"/><path fill="#767676" d="M1015 400l-13 14 11 2 13-15z"/><path fill="#949494" d="M611 270l8 10 22-8-7-9z"/><path fill="#888" d="M608 290l-2-15-8-9-3 18z"/><path fill="#060606" d="M1035 500l-4 12 5-13 5-9z"/><path fill="#e0e0e0" d="M790 407l21 24 15-15-21-26z"/><path fill="#2e2e2e" d="M754 303l5 2 11-1-6-2z"/><path fill="#434343" d="M716 298l-3 2 18 6-2 1z"/><path fill="#c3c3c3" d="M697 294l4 18 19-2-6-7z"/><path fill="#212121" d="M968 464l-6 9 7-6 5-9z"/><path fill="#c7c7c7" d="M1032 384l14 5 4-9-14-5z"/><path fill="#545454" d="M661 280l2-2 4-5h-4z"/><path fill="#6e6e6e" d="M884 362h3l-6-5-2 1z"/><path fill="#5b5b5b" d="M418 255l10-6 4-19-11 4z"/><path fill="#565656" d="M1061 454l11-16-1-8-11 16z"/><path fill="#3a3a3a" d="M718 354l-15-19-1 6 16 22z"/><path fill="#d7d7d7" d="M469 135l32-7-6-25-28 13z"/><path fill="#9b9b9b" d="M451 151l18-16-2-19-14 19z"/><path fill="#3f3f3f" d="M663 278l6-1 4-3-6-1z"/><path fill="#adadad" d="M1075 407l7 8 4-8-6-8z"/><path fill="#cdcdcd" d="M1032 384l-2 8 13 5 3-8z"/><path fill="#1c1c1c" d="M1035 500l-5 9-5 12 6-9z"/><path fill="#535353" d="M511 296l11 5v-25l-11-7z"/><path fill="#7e7e7e" d="M661 280l2-7-22-1 8 9z"/><path fill="#0f0f0f" d="M856 351h13l-2-1z"/><path fill="#414141" d="M713 300l1 3 20 4-3-1z"/><path fill="#e8e8e8" d="M1066 388l14 11 12-20-12-13z"/><path fill="#eee" d="M1050 380l16 8 14-22-16-8z"/><path fill="#c8c8c8" d="M1030 392l-4 9 12 4 5-8z"/><path fill="#868686" d="M611 270l-4 2 11 9 1-1z"/><path fill="#909090" d="M500 182l23 17 1-32-23-11z"/><path fill="#7f7f7f" d="M1002 414l-10 15 12 2 9-15z"/><path fill="#bababa" d="M1075 407l-6 7 7 10 6-9z"/><path fill="#5d5d5d" d="M428 249l-10 6-3 20 11-3z"/><path fill="#242424" d="M731 306l3 1 20-4h-5z"/><path fill="#e2e2e2" d="M764 424l-27-22-22 14 30 28z"/><path fill="#a1a1a1" d="M890 370h2l-5-8h-3z"/><path fill="#424242" d="M759 305l7 5 10-2-6-4z"/><path fill="#333" d="M669 277l5 3 6-2-7-4z"/><path fill="#868686" d="M866 357l9-3-6-3h-8z"/><path fill="#5d5d5d" d="M1052 468l9-14-1-8-11 14z"/><path fill="#7b7b7b" d="M894 445l-17-16-16 9 22 20z"/><path fill="#131313" d="M962 473l-17 17 9-6 15-17z"/><path fill="#858585" d="M868 360l11-2-4-4-9 3z"/><path fill="#a8a8a8" d="M937 449l-25 26 12 4 21-16z"/><path fill="#cacaca" d="M915 425l-21 20 18 30 25-26z"/><path fill="#b4b4b4" d="M1069 414l-4 8 6 8 5-6z"/><path fill="#b1b1b1" d="M448 165l20-9 1-21-18 16z"/><path fill="#f5f5f5" d="M1046 389l16 7 4-8-16-8z"/><path fill="#555" d="M511 313l12 7-1-19-11-5z"/><path fill="#f2f2f2" d="M1062 396l13 11 5-8-14-11z"/><path fill="#7d7d7d" d="M607 272l-1 3 11 8 1-2z"/><path fill="#7b7b7b" d="M992 429l-7 11h11l8-9z"/><path fill="#787878" d="M884 362l-5-4-11 2 5 6z"/><path fill="#737373" d="M550 403l47 22 6-33-29 5z"/><path fill="#f4f4f4" d="M1046 389l-3 8 14 8 5-9z"/><path fill="#9c9c9c" d="M619 280l13 4 17-3-8-9z"/><path fill="#424242" d="M618 322l-11-17-5 6 16 21z"/><path fill="#b7b7b7" d="M1026 401l-13 15 13 6 12-17z"/><path fill="#7c7c7c" d="M616 301l-8-11-13-6 12 21z"/><path fill="#5a5a5a" d="M1046 480l6-12-3-8-5 10z"/><path fill="#f5f5f5" d="M1062 396l-5 9 12 9 6-7z"/><path fill="#282828" d="M1030 509l-17 19-4 10 16-17z"/><path fill="#a3a3a3" d="M714 303l6 7h19l-5-3z"/><path fill="#dadada" d="M764 424l29 26 18-19-21-24z"/><path fill="#3f3f3f" d="M674 280l4 3 9 2-7-7z"/><path fill="#626262" d="M426 272l-11 3v25l11-5z"/><path fill="#747474" d="M734 307l5 3 20-5-5-2z"/><path fill="#9d9d9d" d="M498 194l25 14v-9l-23-17z"/><path fill="#eee" d="M1043 397l-5 8 14 7 5-7z"/><path fill="#b8b8b8" d="M1065 422l-12 15 7 9 11-16zM701 312l12 16 15-5-8-13z"/><path fill="#bcbcbc" d="M445 179l21-5 2-18-20 9z"/><path fill="#f0f0f0" d="M468 156h33v-28l-32 7z"/><path fill="#7a7a7a" d="M985 440l-6 9h11l6-9z"/><path fill="#6e6e6e" d="M934 502l2-16-12-7 9 24z"/><path fill="#5b5b5b" d="M861 351h-5l-7 6h4z"/><path fill="#a0a0a0" d="M892 375l3 1-3-6h-2z"/><path fill="#1c1c1c" d="M849 407l-8-23-3-5 9 28z"/><path fill="#2f2f2f" d="M895 376l1 2-1-5-3-3z"/><path fill="#545454" d="M511 325l13 11-1-16-12-7z"/><path fill="#202020" d="M937 498l-1 3h3l5-7z"/><path fill="#f5f5f5" d="M1057 405l-5 7 13 10 4-8z"/><path fill="#3d3d3d" d="M896 378l6 4v-3l-7-6z"/><path fill="#131313" d="M945 490l-8 8 7-4 10-10z"/><path fill="#4f4f4f" d="M1041 490l5-10-2-10-5 9z"/><path fill="#eaeaea" d="M745 444l-30-28-32 27 29 26z"/><path fill="#858585" d="M890 370l-6-8-11 4 6 8z"/><path fill="#0f0f0f" d="M936 501l-2 1-1 1 6-2z"/><path fill="#4a4a4a" d="M766 310l8 5 13 1-11-8z"/><path fill="#afafaf" d="M811 431l35 23 15-16-35-22z"/><path fill="#3a3a3a" d="M619 280l-1 1 14 2v1z"/><path fill="#383838" d="M841 384l3-16 1-7-7 18z"/><path fill="#bababa" d="M443 190l20-3 3-13-21 5z"/><path fill="#a6a6a6" d="M498 194l-2 9 25 16 2-11z"/><path fill="#292929" d="M902 382l10 5 1-1-11-7z"/><path fill="#090909" d="M651 281l3-1 15-3-6 1z"/><path fill="#7b7b7b" d="M979 449l-5 9 11 1 5-10z"/><path fill="#b8b8b8" d="M443 190l-3 9 21-2 2-10z"/><path fill="#535353" d="M513 336l13 13-2-13-13-11z"/><path fill="#a1a1a1" d="M606 275l2 15 13-1-4-6z"/><path fill="#aeaeae" d="M866 357l-5-6-8 6-1 3z"/><path fill="#8b8b8b" d="M725 345l-12-17-10 7 15 19z"/><path fill="#565656" d="M528 379l22 24 24-6-29-13z"/><path fill="#e2e2e2" d="M1038 405l-12 17 14 7 12-17z"/><path fill="#b6b6b6" d="M440 199l-4 14 21-2 4-14z"/><path fill="#3f3f3f" d="M844 368l3-5 2-6-4 4z"/><path fill="#b8b8b8" d="M496 203l-3 13 26 13 2-10z"/><path fill="#5b5b5b" d="M1035 500l6-10-2-11-6 9z"/><path fill="#cbcbcb" d="M1013 416l-9 15 11 5 11-14z"/><path fill="#eee" d="M1052 412l-12 17 13 8 12-15z"/><path fill="#c2c2c2" d="M1053 437l-12 14 8 9 11-14z"/><path fill="#959595" d="M739 310l7 7 20-7-7-5z"/><path fill="#777" d="M892 375l-2-5-11 4 8 5z"/><path fill="#4f4f4f" d="M528 379l17 5-14-18-16-15z"/><path fill="#7d7d7d" d="M974 458l-5 9 9 1 7-9z"/><path fill="#b8b8b8" d="M436 213l-4 17 19-1 6-18z"/><path fill="#1f1f1f" d="M618 281l-1 2h16-1z"/><path fill="#272727" d="M678 283l7 6 11 7-9-11z"/><path fill="#535353" d="M515 351l16 15-5-17-13-13z"/><path fill="#5a5a5a" d="M426 295l-11 5-1 23 10-7z"/><path fill="#171717" d="M1013 528l-6 9-6 12 8-11z"/><path fill="#f4f4f4" d="M466 174l34 8 1-26h-33z"/><path fill="#c6c6c6" d="M493 216l-9 18 29 14 6-19z"/><path fill="#888" d="M847 363l5-3 1-3h-4z"/><path fill="#b3b3b3" d="M868 360l-2-3-14 3 1 6z"/><path fill="#bababa" d="M720 310l8 13 18-6-7-7z"/><path fill="#e8e8e8" d="M745 444l27 28 21-22-29-26z"/><path fill="#3c3c3c" d="M729 367l-11-13v9l15 14z"/><path fill="#0b0b0b" d="M912 387l10 8 2 3-11-12z"/><path fill="#3b3b3b" d="M654 280l4 1 16-1-5-3z"/><path fill="#616161" d="M1030 509l5-9-2-12-6 9z"/><path fill="#b9b9b9" d="M432 230l-4 19 20 1 3-21z"/><path fill="#cbcbcb" d="M1004 431l-8 9 12 5 7-9z"/><path fill="#5d5d5d" d="M887 379l1 1 7-4-3-1z"/><path fill="#383838" d="M774 315l7 5 13 2-7-6z"/><path fill="#b3b3b3" d="M649 412l-52 13 32 40 54-22z"/><path fill="#c4c4c4" d="M1041 451l-6 10 9 9 5-10z"/><path fill="#c7c7c7" d="M484 234l-4 23 31 12 2-21z"/><path fill="#777" d="M888 380l4 2 4-4-1-2z"/><path fill="#f0f0f0" d="M1026 422l-11 14 13 8 12-15z"/><path fill="#f4f4f4" d="M1040 429l-12 15 13 7 12-14z"/><path fill="#afafaf" d="M873 366l-5-6-15 6 5 8z"/><path fill="#f9f9f9" d="M463 187l35 7 2-12-34-8z"/><path fill="#c6c6c6" d="M996 440l-6 9 12 4 6-8z"/><path fill="#0d0d0d" d="M999 550l-8 14 10-15 6-12z"/><path fill="#7b7b7b" d="M969 467l-15 17 9 3 15-19z"/><path fill="#0b0b0b" d="M816 343l-7-8-7-8 7 11z"/><path fill="#686868" d="M892 382l4 4 6-4-6-4z"/><path fill="#676767" d="M912 475l17 31 4-3-9-24z"/><path fill="#b9b9b9" d="M426 272h19l3-22-20-1z"/><path fill="#afafaf" d="M850 369l3-3-1-6-5 3z"/><path fill="gray" d="M658 281l2 4 18-2-4-3z"/><path fill="#7a7a7a" d="M847 374l3-5-3-6-3 5z"/><path fill="#a8a8a8" d="M883 458l26 24 3-7-18-30z"/><path fill="#bdbdbd" d="M1035 461l-5 8 9 10 5-9z"/><path fill="#fafafa" d="M463 187l-2 10 35 6 2-9z"/><path fill="#a2a2a2" d="M608 290l8 11 10-4-5-8z"/><path fill="#777" d="M849 390l-2-16-3-6-3 16z"/><path fill="#7a7a7a" d="M623 314l-7-13-9 4 11 17z"/><path fill="#5b5b5b" d="M424 316l-10 7-3 24 11-11z"/><path fill="#878787" d="M617 283l4 6 16-3-4-3z"/><path fill="#999" d="M746 317l8 7 20-9-8-5z"/><path fill="#bbb" d="M713 328l12 17 13-11-10-11z"/><path fill="silver" d="M990 449l-5 10 10 3 7-9z"/><path fill="#ececec" d="M1015 436l-7 9 12 7 8-8z"/><path fill="#e8e8e8" d="M712 469l31 24 29-21-27-28z"/><path fill="#b1b1b1" d="M858 374l9 6 12-6-6-8z"/><path fill="#fcfcfc" d="M461 197l-4 14 36 5 3-13z"/><path fill="#f2f2f2" d="M1028 444l-8 8 15 9 6-10z"/><path fill="#696969" d="M1013 528l17-19-3-12-15 20z"/><path fill="#606060" d="M857 407l-8-17-8-6 8 23z"/><path fill="#1a1a1a" d="M685 289l6 7 12 8-7-8z"/><path fill="#c8c8c8" d="M793 450l31 22 22-18-35-23z"/><path fill="#cdcdcd" d="M511 269l-31-12-5 25 36 14z"/><path fill="#535353" d="M633 283l4 3 21-5-4-1z"/><path fill="#434343" d="M896 386l9 3 7-2-10-5z"/><path fill="#fcfcfc" d="M457 211l-6 18 33 5 9-18z"/><path fill="#bbb" d="M883 458l-22-20-15 16 23 23z"/><path fill="#878787" d="M954 484l-10 10h10l9-7z"/><path fill="#3a3a3a" d="M626 333l-8-11v10l9 14z"/><path fill="#999" d="M867 380l10 2 10-3-8-5z"/><path fill="#c4c4c4" d="M1030 469l-7 9 10 10 6-9z"/><path fill="#1f1f1f" d="M939 501l-6 2-4 3 18-6z"/><path fill="#020202" d="M922 395l11 11 4 4-13-12z"/><path fill="#b9b9b9" d="M985 459l-7 9 11 4 6-10z"/><path fill="#6e6e6e" d="M944 494l-5 7 8-1 7-6z"/><path fill="#e5e5e5" d="M1008 445l-6 8 12 6 6-7z"/><path fill="#3e3e3e" d="M781 320l7 6 14 1-8-5z"/><path fill="#bbb" d="M728 323l10 11 16-10-8-7z"/><path fill="#b4b4b4" d="M426 295l17-1 2-22h-19z"/><path fill="#ededed" d="M1020 452l-6 7 16 10 5-8z"/><path fill="#6a6a6a" d="M877 382l1 1 10-3-1-1z"/><path fill="#a6a6a6" d="M858 375v-1l-5-8-3 3z"/><path fill="#111" d="M990 563l-13 19 14-18 8-14z"/><path fill="#fafafa" d="M451 229l-3 21 32 7 4-23z"/><path fill="#959595" d="M734 353l-9-8-7 9 11 13z"/><path fill="#363636" d="M735 373l-6-6 4 10 7 6z"/><path fill="#4a4a4a" d="M660 285l6 4h19l-7-6z"/><path fill="#dcdcdc" d="M856 381l2-6-8-6-3 5z"/><path fill="#e6e6e6" d="M1002 453l-7 9 13 7 6-10z"/><path fill="#939393" d="M878 383l3 2 11-3-4-2z"/><path fill="#c8c8c8" d="M1023 478l-7 8 11 11 6-9z"/><path fill="#5b5b5b" d="M422 336l-11 11-7 28 16-15z"/><path fill="#b5b5b5" d="M621 289l5 8 12-6-1-5z"/><path fill="#5e5e5e" d="M868 425l-11-18h-8l14 24z"/><path fill="#060606" d="M825 352l-9-9-7-5 11 10z"/><path fill="#aeaeae" d="M637 286l1 5 22-6-2-4z"/><path fill="#d0d0d0" d="M511 296l-36-14-4 18 40 13z"/><path fill="#f0f0f0" d="M1014 459l-6 10 15 9 7-9z"/><path fill="#a9a9a9" d="M978 468l-15 19 10 3 16-18z"/><path fill="#d0d0d0" d="M859 393l-3-12-9-7 2 16z"/><path fill="#9a9a9a" d="M754 324l6 7 21-11-7-5z"/><path fill="#474747" d="M858 374v1l10 7-1-2z"/><path fill="#565656" d="M905 389l8 8 9-2-10-8z"/><path fill="#656565" d="M1007 537l6-9-1-11-7 7z"/><path fill="#0e0e0e" d="M691 296l6 5 11 8-5-5z"/><path fill="#4d4d4d" d="M867 380l1 2 10 1-1-1z"/><path fill="#8d8d8d" d="M881 385l4 5 11-4-4-4z"/><path fill="#f5f5f5" d="M445 272l30 10 5-25-32-7z"/><path fill="#ccc" d="M655 501l57-32-29-26-54 22z"/><path fill="#e5e5e5" d="M995 462l-6 10 12 5 7-8z"/><path fill="#a5a5a5" d="M616 301l7 13 10-8-7-9z"/><path fill="#a7a7a7" d="M424 316l17-5 2-17-17 1z"/><path fill="#e8e8e8" d="M858 375l-2 6 13 5-1-4z"/><path fill="#d1d1d1" d="M793 450l-21 22 27 21 25-21z"/><path fill="#5b5b5b" d="M809 338l-7-11-14-1 7 9z"/><path fill="#f2f2f2" d="M1008 469l-7 8 15 9 7-8z"/><path fill="#5c5c5c" d="M909 482l18 27 2-3-17-31z"/><path fill="#b5b5b5" d="M868 382l1 4 12-1-3-2z"/><path fill="#cdcdcd" d="M511 313l-40-13v12l40 13z"/><path fill="#bcbcbc" d="M725 345l9 8 12-12-8-7z"/><path fill="#c7c7c7" d="M867 406l-8-13-10-3 8 17z"/><path fill="#9c9c9c" d="M963 487l-9 7 11 3 8-7z"/><path fill="#313131" d="M735 373l5 10 6 6-4-10z"/><path fill="#767676" d="M629 324l-6-10-5 8 8 11z"/><path fill="#b9b9b9" d="M738 334l8 7 14-10-6-7z"/><path fill="#e9e9e9" d="M856 381l3 12h13l-3-7z"/><path fill="#626262" d="M999 550l8-13-2-13-6 9z"/><path fill="#c1c1c1" d="M869 477l27 20 13-15-26-24z"/><path fill="#bebebe" d="M1016 486l-15 16 11 15 15-20z"/><path fill="#3a3a3a" d="M630 341l-4-8 1 13 5 8z"/><path fill="#0b0b0b" d="M976 580l-18 21 19-19 13-19z"/><path fill="#939393" d="M564 309l23-2-7-2-18 1z"/><path fill="#848484" d="M638 291l6 7 22-9-6-4z"/><path fill="#989898" d="M741 359l-7-6-5 14 6 6z"/><path fill="#6e6e6e" d="M666 289l4 4 21 3-6-7z"/><path fill="#969696" d="M954 494l-7 6 12 2 6-5z"/><path fill="#666" d="M885 390l6 4 14-5-9-3z"/><path fill="#c9c9c9" d="M869 386l3 7 13-3-4-5z"/><path fill="#d9d9d9" d="M989 472l-16 18 13 5 15-18z"/><path fill="#efefef" d="M443 294l28 6 4-18-30-10z"/><path fill="#5e5e5e" d="M590 311l6-3h-5l-4-1z"/><path fill="#c8c8c8" d="M511 325l-40-13 2 15 40 9z"/><path fill="#b1b1b1" d="M626 297l7 9 11-8-6-7z"/><path fill="#010101" d="M949 423l-6-7-1-2 5 7z"/><path fill="#5e5e5e" d="M879 439l-11-14-5 6 14 17z"/><path fill="#999" d="M760 331l5 5 23-10-7-6z"/><path fill="#595959" d="M913 397l11 10 9-1-11-11z"/><path fill="#070707" d="M714 316l-6-7-11-8 8 6z"/><path fill="#b2b2b2" d="M422 336l19-8v-17l-17 5z"/><path fill="#7d7d7d" d="M420 360l-16 15-10 37 28-16z"/><path fill="#8b8b8b" d="M947 500l-18 6 23 5 7-9z"/><path fill="#d4d4d4" d="M772 472l-29 21 28 22 28-22z"/><path fill="#3a3a3a" d="M539 317l6-1 4-3h-5z"/><path fill="#767676" d="M564 309l-2-3-13 7-4 3z"/><path fill="#cacaca" d="M513 336l-40-9-1 11 43 13z"/><path fill="#e1e1e1" d="M1001 477l-15 18 15 7 15-16z"/><path fill="#c2c2c2" d="M869 477l-23-23-22 18 34 17z"/><path fill="#484848" d="M565 309l25 2-3-4-23 2z"/><path fill="#dadada" d="M859 393l8 13 11-4-6-9z"/><path fill="#dbdbdb" d="M712 469l-57 32 26 31 62-39z"/><path fill="#bdbdbd" d="M876 419l-9-13-10 1 11 18z"/><path fill="#9a9a9a" d="M623 314l6 10 8-11-4-7z"/><path fill="#a7a7a7" d="M515 351l-43-13 27 37 29 4z"/><path fill="#3c3c3c" d="M820 348l-11-10-14-3 11 8z"/><path fill="#c7c7c7" d="M973 490l-8 7 14 5 7-7z"/><path fill="#ededed" d="M441 311l30 1v-12l-28-6z"/><path fill="#bababa" d="M734 353l7 6 10-11-5-7z"/><path fill="#b2b2b2" d="M872 393l6 9 13-8-6-4z"/><path fill="#a1a1a1" d="M891 394l9 8 13-5-8-8z"/><path fill="#bebebe" d="M1001 502l-6 9 10 13 7-7z"/><path fill="#363636" d="M630 341l2 13 6 6-4-12z"/><path fill="#555" d="M670 293l5 5 22 3-6-5z"/><path fill="#333" d="M742 379l4 10 6 9-2-11z"/><path fill="#afafaf" d="M746 341l5 7 14-12-5-5z"/><path fill="#696969" d="M990 563l9-13v-17l-10 10z"/><path fill="#a0a0a0" d="M741 359l-6 14 7 6 6-15z"/><path fill="#5c5c5c" d="M565 309h-1l-19 7-2 5z"/><path fill="#a6a6a6" d="M644 298l3 6 23-11-4-4z"/><path fill="#646464" d="M886 446l-7-7-2 9 7 6z"/><path fill="#7e7e7e" d="M633 330l-4-6-3 9 4 8z"/><path fill="#555" d="M924 407l9 8 9-1-9-8z"/><path fill="#777" d="M538 322l5-1 2-5-6 1z"/><path fill="silver" d="M965 497l-6 5 15 5 5-5z"/><path fill="#afafaf" d="M633 306l4 7 10-9-3-6z"/><path fill="#8e8e8e" d="M499 375l15 35 36-7-22-24z"/><path fill="#c1c1c1" d="M420 360l25-11-4-21-19 8z"/><path fill="#727272" d="M952 511l-23-5-2 3 17 11z"/><path fill="#b5b5b5" d="M795 335l-7-9-23 10 6 10z"/><path fill="#0c0c0c" d="M976 580l-20 21-25 25 27-25z"/><path fill="#e9e9e9" d="M986 495l-7 7 16 9 6-9z"/><path fill="#f4f4f4" d="M441 328l32-1-2-15-30-1z"/><path fill="#bfbfbf" d="M995 511l-6 8 10 14 6-9z"/><path fill="#1b1b1b" d="M720 323l-6-7-9-9 5 9z"/><path fill="#939393" d="M596 321l6-2-6-11-6 3z"/><path fill="#d5d5d5" d="M867 406l9 13 11-8-9-9z"/><path fill="#4b4b4b" d="M602 319l8 4-7-10-7-5z"/><path fill="#989898" d="M927 509l-18-27-13 15 27 22z"/><path fill="#bcbcbc" d="M886 431l-10-12-8 6 11 14z"/><path fill="#5f5f5f" d="M886 446l-2 8 7 7 2-8z"/><path fill="#afafaf" d="M900 402l11 11 13-6-11-10z"/><path fill="#dfdfdf" d="M878 402l9 9 13-9-9-8z"/><path fill="#b2b2b2" d="M959 502l-7 9 14 3 8-7z"/><path fill="#bfbfbf" d="M759 355l-8-7-10 11 7 5z"/><path fill="#9b9b9b" d="M629 324l4 6 9-11-5-6z"/><path fill="#626262" d="M947 421l-5-7-9 1 6 7z"/><path fill="#e6e6e6" d="M979 502l-5 5 15 12 6-8z"/><path fill="#252525" d="M634 348l4 12 4 6-4-11z"/><path fill="#6b6b6b" d="M596 321l-6-10-25-2 6 9z"/><path fill="#9f9f9f" d="M647 304l2 6 26-12-5-5z"/><path fill="#c6c6c6" d="M771 346l-6-10-14 12 8 7z"/><path fill="#efefef" d="M445 349l27-11 1-11-32 1z"/><path fill="#474747" d="M705 307l-8-6-22-3 8 6z"/><path fill="#424242" d="M893 453l-2 8 6 7v-7z"/><path fill="#949494" d="M514 410l26 37 57-22-47-22z"/><path fill="#797979" d="M633 330l-3 11 4 7 4-10z"/><path fill="#a2a2a2" d="M637 313l5 6 7-9-2-6zM748 364l-6 15 8 8 7-14z"/><path fill="#c7c7c7" d="M824 472l-25 21 37 21 22-25z"/><path fill="#939393" d="M858 489l31 22 7-14-27-20z"/><path fill="#959595" d="M394 412l-10 39 42-15-4-40z"/><path fill="#bbb" d="M989 519l-9 9 9 15 10-10z"/><path fill="#646464" d="M953 428l-6-7-8 1 5 6z"/><path fill="#e0e0e0" d="M876 419l10 12 12-11-11-9z"/><path fill="#c3c3c3" d="M743 493l-62 39 29 21 61-38z"/><path fill="#b1b1b1" d="M806 343l-11-8-24 11 8 9z"/><path fill="#ddd" d="M887 411l11 9 13-7-11-11z"/><path fill="#bebebe" d="M893 438l-7-7-7 8 7 7z"/><path fill="#d7d7d7" d="M974 507l-8 7 14 14 9-9z"/><path fill="#8a8a8a" d="M571 318l-6-9-22 12 3 13z"/><path fill="#7d7d7d" d="M990 563l-1-20-14 14 1 23z"/><path fill="#b4b4b4" d="M911 413l7 7 15-5-9-8z"/><path fill="#ababab" d="M944 520l13 2 9-8-14-3z"/><path fill="#141414" d="M956 601l-27 23-24 18 26-16z"/><path fill="#d3d3d3" d="M422 396l34-17-11-30-25 11z"/><path fill="#3d3d3d" d="M897 461v7l9 17 2-9z"/><path fill="#959595" d="M645 326l-3-7-9 11 5 8z"/><path fill="#252525" d="M388 581l23-11-24-67 2 18z"/><path fill="#c4c4c4" d="M767 363l-8-8-11 9 9 9z"/><path fill="#838383" d="M541 334h5l-3-13-5 1z"/><path fill="#b5b5b5" d="M893 438l-7 8 7 7 5-9z"/><path fill="#6c6c6c" d="M638 338l-4 10 4 7 4-9z"/><path fill="#ececec" d="M456 379l43-4-27-37-27 11z"/><path fill="#4e4e4e" d="M965 440l-12-12h-9l13 11z"/><path fill="#c8c8c8" d="M779 355l-8-9-12 9 8 8z"/><path fill="#e0e0e0" d="M886 431l7 7 12-11-7-7z"/><path fill="#9c9c9c" d="M683 304l-8-6-26 12 4 7z"/><path fill="#4d4d4d" d="M750 387l2 11 25 26-1-10z"/><path fill="#545454" d="M538 342l3-8-3-12-3 9z"/><path fill="#3e3e3e" d="M843 369l-23-21-14-5 24 24z"/><path fill="#d8d8d8" d="M898 420l7 7 13-7-7-7z"/><path fill="#c2c2c2" d="M939 422l-6-7-15 5 6 7z"/><path fill="#9f9f9f" d="M653 317l-4-7-7 9 3 7z"/><path fill="#7d7d7d" d="M944 520l-17-11-4 10 27 17z"/><path fill="#c9c9c9" d="M957 522l4 11 19-5-14-14z"/><path fill="#7a7a7a" d="M710 316l-5-9-22-3 6 10z"/><path fill="#bcbcbc" d="M804 533l32-19-37-21-28 22z"/><path fill="#080808" d="M638 355l4 11 13 29-4-10z"/><path fill="#1f1f1f" d="M739 347l-19-24-10-7 17 22z"/><path fill="#a5a5a5" d="M898 444l-5 9 4 8 6-9z"/><path fill="#7f7f7f" d="M602 333l2-2-2-12-6 2z"/><path fill="#c5c5c5" d="M944 428l-5-6-15 5 6 5z"/><path fill="#d8d8d8" d="M989 543l-9-15-19 5 14 24z"/><path fill="#e3e3e3" d="M911 434l-6-7-12 11 5 6z"/><path fill="#a7a7a7" d="M561 486l68-21-32-40-57 22z"/><path fill="#4f4f4f" d="M908 476l-2 9 11 13 1-9z"/><path fill="#e4e4e4" d="M924 427l-6-7-13 7 6 7z"/><path fill="#6e6e6e" d="M602 333l-6-12-25-3 4 7z"/><path fill="#b4b4b4" d="M944 520l6 16 11-3-4-11z"/><path fill="#969696" d="M651 333l-6-7-7 12 4 8z"/><path fill="#717171" d="M604 331l7 1-1-9-8-4z"/><path fill="#4a4a4a" d="M977 451l-12-11-8-1 12 13z"/><path fill="#a0a0a0" d="M956 601l20-21-1-23-22 10z"/><path fill="#e0e0e0" d="M917 441l-6-7-13 10 5 8z"/><path fill="#e1e1e1" d="M930 432l-6-5-13 7 6 7z"/><path fill="#bfbfbf" d="M957 439l-13-11-14 4 13 12z"/><path fill="#aeaeae" d="M659 325l-6-8-8 9 6 7z"/><path fill="#2e2e2e" d="M541 362l-3-20-3-11 2 29z"/><path fill="#b9b9b9" d="M903 452l-6 9 11 15 8-10z"/><path fill="#888" d="M923 519l-27-22-7 14 35 25z"/><path fill="#b6b6b6" d="M689 314l-6-10-30 13 6 8z"/><path fill="#a0a0a0" d="M757 373l-7 14 26 27 5-14z"/><path fill="#4b4b4b" d="M918 489l-1 9 8 11 1-10z"/><path fill="#202020" d="M611 332l8 5 3 2-12-16z"/><path fill="#7f7f7f" d="M546 334l7 9 22-18-4-7z"/><path fill="#cfcfcf" d="M456 379l14 37 44-6-15-35z"/><path fill="#aaa" d="M830 367l-24-24-27 12 27 24z"/><path fill="#afafaf" d="M858 489l-22 25 39 12 14-15z"/><path fill="#e5e5e5" d="M943 444l-13-12-13 9 11 13z"/><path fill="#707070" d="M642 346l-4 9 13 30 5-11z"/><path fill="#e8e8e8" d="M928 454l-11-13-14 11 13 14z"/><path fill="#d5d5d5" d="M953 567l22-10-14-24-11 3z"/><path fill="#494949" d="M988 461l-11-10-8 1 11 10z"/><path fill="#d0d0d0" d="M422 396l4 40 44-20-14-37z"/><path fill="#454545" d="M926 499l-1 10 7 8 1-9z"/><path fill="#c3c3c3" d="M794 389l-27-26-10 10 24 27z"/><path fill="#4d4d4d" d="M546 334h-5l11 10 1-1z"/><path fill="silver" d="M916 466l-8 10 10 13 8-11zM969 452l-12-13-14 5 13 13z"/><path d="M1009 480l-1-2 6 9 2 1z"/><path fill="#b8b8b8" d="M584 524l71-23-26-36-68 21z"/><path fill="#c4c4c4" d="M806 379l-27-24-12 8 27 26z"/><path fill="#a2a2a2" d="M745 571l59-38-33-18-61 38z"/><path fill="#b3b3b3" d="M384 451l3 52 55-17-16-50z"/><path fill="#8e8e8e" d="M938 584l-9 40 27-23-3-34z"/><path fill="#737373" d="M727 338l-17-22-21-2 17 23z"/><path fill="#b2b2b2" d="M950 536l-27-17 1 17 29 31z"/><path fill="#3f3f3f" d="M933 508l-1 9 7 8 1-8z"/><path fill="#ddd" d="M956 457l-13-13-15 10 12 13z"/><path fill="#a6a6a6" d="M664 362l-13-29-9 13 14 28z"/><path fill="#4b4b4b" d="M999 470l-11-9-8 1 11 9z"/><path fill="#1b1b1b" d="M597 340l3-3 4-6-2 2z"/><path fill="#424242" d="M410 646l1-76-23 11 7 57z"/><path fill="#e3e3e3" d="M940 467l-12-13-12 12 10 12z"/><path fill="#797979" d="M541 334l-3 8 11 7 3-5z"/><path fill="#afafaf" d="M926 478l-8 11 8 10 8-10z"/><path fill="#363636" d="M940 517l-1 8 8 8v-8z"/><path fill="#7e7e7e" d="M597 340l5-7-27-8 7 20z"/><path fill="#252525" d="M651 385l4 10 15 24-3-13z"/><path fill="#bdbdbd" d="M980 462l-11-10-13 5 11 11z"/><path fill="#b8b8b8" d="M609 559l72-27-26-31-71 23z"/><path fill="#c2c2c2" d="M677 349l-18-24-8 8 13 29z"/><path fill="#1a1a1a" d="M755 366l-16-19-12-9 14 17z"/><path fill="#272727" d="M545 382l-4-20-4-2 7 24z"/><path fill="#393939" d="M600 337h4l7-5-7-1z"/><path fill="#bebebe" d="M706 337l-17-23-30 11 18 24z"/><path fill="#505050" d="M1008 478l-9-8-8 1 10 9z"/><path fill="#4a4a4a" d="M870 394l-27-25-13-2 27 26z"/><path fill="#3b3b3b" d="M776 414l1 10 28 31-3-10z"/><path fill="#999" d="M553 343l14 3 15-1-7-20z"/><path fill="#202020" d="M947 525v8l13 22-1-7z"/><path fill="#d7d7d7" d="M967 468l-11-11-16 10 9 10z"/><path fill="#dbdbdb" d="M949 477l-9-10-14 11 8 11z"/><path fill="#adadad" d="M836 514l-32 19 42 20 29-27z"/><path fill="#a7a7a7" d="M934 489l-8 10 7 9 8-10z"/><path fill="#a9a9a9" d="M915 550l9-14-35-25-14 15z"/><path fill="#616161" d="M538 342l3 20 8-1v-12z"/><path fill="#5c5c5c" d="M917 614l-16 31 28-21 9-40z"/><path fill="silver" d="M470 416l17 47 53-16-26-37z"/><path fill="#626262" d="M1008 478l-7 2 6 9 7-2z"/><path fill="#b3b3b3" d="M991 471l-11-9-13 6 10 8z"/><path fill="#070707" d="M553 343l-1 1 12 1 3 1z"/><path fill="#494949" d="M604 337l4 3 11-3-8-5z"/><path fill="#010101" d="M805 455l12 11 6 4-11-9z"/><path fill="#c9c9c9" d="M938 584l15-17-29-31-9 14z"/><path fill="#b2b2b2" d="M638 591l72-38-29-21-72 27z"/><path fill="#1f1f1f" d="M959 548l1 7 5 10-1-9z"/><path fill="#9b9b9b" d="M941 498l-8 10 7 9 8-10z"/><path fill="#7f7f7f" d="M656 374l-5 11 16 21 4-11z"/><path fill="#d0d0d0" d="M959 485l-10-8-15 12 7 9z"/><path fill="#5f5f5f" d="M1014 487l-7 2 14 24 7-2z"/><path fill="#c4c4c4" d="M977 476l-10-8-18 9 10 8z"/><path fill="#b1b1b1" d="M1001 480l-10-9-14 5 10 8z"/><path fill="#4c4c4c" d="M552 344l-3 5 17-3-2-1z"/><path fill="#858585" d="M781 400l-5 14 26 31 4-14z"/><path fill="#4d4d4d" d="M608 340l6 6 16 3-11-12z"/><path fill="#434343" d="M402 694l8-48-15-8-2 51z"/><path fill="#050505" d="M897 413l-11-8-7-4 10 6z"/><path fill="#353535" d="M964 556l1 9 5 3-4-11z"/><path fill="#222" d="M549 394l-4-12-1 2 3 13z"/><path fill="#d6d6d6" d="M426 436l16 50 45-23-17-47z"/><path fill="#545454" d="M541 362l4 20 5-8-1-13z"/><path fill="#aaa" d="M857 393l-27-26-24 12 29 25z"/><path fill="#0a0a0a" d="M583 340h3l18-3h-4z"/><path fill="#9e9e9e" d="M947 525l8-9-7-9-8 10z"/><path fill="#737373" d="M741 355l-14-17-21-1 14 18z"/><path fill="#131313" d="M852 688l10-10-38 29-12 19z"/><path fill="#cacaca" d="M1001 480l-14 4 6 11 14-6z"/><path fill="#aeaeae" d="M681 382l-17-20-8 12 15 21z"/><path fill="#606060" d="M1028 511l-7 2 11 14 6-4z"/><path fill="#d0d0d0" d="M966 493l-7-8-18 13 7 9z"/><path fill="#cbcbcb" d="M987 484l-10-8-18 9 7 8z"/><path fill="#121212" d="M768 377l-13-11-14-11 12 12z"/><path fill="#232323" d="M564 345l2 1 20-6h-3z"/><path fill="#b9b9b9" d="M816 419l-22-30-13 11 25 31z"/><path fill="#444" d="M879 401l-9-7-13-1 9 7z"/><path fill="#a2a2a2" d="M959 548l10-8-14-24-8 9z"/><path fill="#bebebe" d="M835 404l-29-25-12 10 22 30z"/><path fill="#393939" d="M802 445l3 10 7 6-3-11z"/><path fill="#bbb" d="M695 370l-18-21-13 13 17 20z"/><path fill="#939393" d="M549 349v12l20-10-3-5z"/><path fill="#2e2e2e" d="M903 423l-6-10-8-6 7 12z"/><path fill="#545454" d="M586 340l4 4 18-4-4-3z"/><path fill="#3d3d3d" d="M667 406l3 13 16 18-4-17z"/><path fill="#bababa" d="M720 355l-14-18-29 12 18 21z"/><path fill="#c8c8c8" d="M898 580l19 34 21-30-23-34z"/><path fill="#cdcdcd" d="M1007 489l-14 6 15 23 13-5z"/><path fill="#3a3a3a" d="M614 346l6 6 17 8-7-11z"/><path fill="#d3d3d3" d="M898 580l17-30-40-24-29 27z"/><path fill="#e7e7e7" d="M987 484l-21 9 9 10 18-8z"/><path fill="#c9c9c9" d="M387 503l24 67 52-31-21-53z"/><path fill="#ededed" d="M966 493l-18 14 7 9 20-13z"/><path fill="#cfcfcf" d="M501 511l60-25-21-39-53 16z"/><path fill="#636363" d="M1050 539l-12-16-6 4 12 14z"/><path fill="#a3a3a3" d="M804 533l-59 38 49 20 52-38z"/><path fill="#424242" d="M862 678l39-33 16-31-49 44z"/><path fill="#acacac" d="M964 556l11-8-6-8-10 8z"/><path fill="#494949" d="M545 382l4 12 4-8-3-12z"/><path fill="#6e6e6e" d="M566 346l3 5 21-7-4-4z"/><path fill="#2c2c2c" d="M809 450l3 11 6 6-3-9zM554 404l-5-10-2 3 7 14z"/><path fill="#c9c9c9" d="M975 548l-11 8 2 1 15-8z"/><path fill="#bababa" d="M981 549l-15 8 1 4h16z"/><path fill="#f1f1f1" d="M975 503l-20 13 14 24 22-15z"/><path fill="#e8e8e8" d="M993 495l-18 8 16 22 17-7z"/><path fill="#888" d="M681 606l64-35-35-18-72 38z"/><path fill="#444" d="M889 407l-10-6-13-1 8 7z"/><path fill="#bfbfbf" d="M1021 513l-13 5 11 14 13-5z"/><path fill="#323232" d="M903 423l-7-4 6 11 7 7z"/><path fill="#6f6f6f" d="M590 344l5 4 19-2-6-6z"/><path fill="#929292" d="M549 361l1 13 21-17-2-6z"/><path fill="#0b0b0b" d="M1080 603l11 15-16-35 4-2z"/><path fill="#454545" d="M1063 558l-13-19-6 2 13 14z"/><path fill="#7f7f7f" d="M671 395l-4 11 15 14 4-12z"/><path fill="#7c7c7c" d="M806 431l-4 14 7 5 4-12z"/><path fill="#696969" d="M753 367l-12-12h-21l11 11z"/><path fill="#313131" d="M620 352l4 5 19 10-6-7z"/><path fill="#1a1a1a" d="M815 458l3 9 3 6-2-9z"/><path fill="#8f8f8f" d="M866 400l-9-7-22 11 8 6z"/><path fill="#ebebeb" d="M991 525l-22 15 6 8 25-11z"/><path fill="#363636" d="M376 732l26-38-9-5-23 41z"/><path fill="#e3e3e3" d="M1008 518l-17 7 9 12 19-5z"/><path fill="#0b0b0b" d="M785 387l-17-10-15-10 16 12z"/><path fill="#a9a9a9" d="M1044 541l-12-14-13 5 13 14z"/><path fill="#909090" d="M569 351l2 6 24-9-5-4z"/><path fill="#a0a0a0" d="M694 394l-13-12-10 13 15 13z"/><path fill="#2e2e2e" d="M819 464l2 9 4 10v-11z"/><path fill="#dadada" d="M501 511l18 47 65-34-23-38z"/><path fill="#565656" d="M549 394l5 10 3-9-4-9z"/><path fill="#757575" d="M896 419l-7-12h-15l6 12z"/><path fill="#505050" d="M1079 581l-16-23-6-3 9 23z"/><path fill="#5b5b5b" d="M595 348l4 4h21l-6-6z"/><path fill="#898989" d="M550 374l3 12 20-22-2-7z"/><path fill="#e7e7e7" d="M463 539l38-28-14-48-45 23z"/><path fill="#dcdcdc" d="M1008 550l-8-13-25 11 6 1z"/><path fill="#303030" d="M558 410l-4-6v7l3 7z"/><path fill="#adadad" d="M823 428l-7-9-10 12 7 7z"/><path fill="#393939" d="M682 420l4 17 11 10-4-12z"/><path fill="#828282" d="M813 438l-4 12 6 8 4-13z"/><path fill="#acacac" d="M731 366l-11-11-25 15 13 11z"/><path fill="#afafaf" d="M708 381l-13-11-14 12 13 12zM843 410l-8-6-19 15 7 9z"/><path fill="#363636" d="M624 357l4 5 20 12-5-7z"/><path fill="#191919" d="M909 437l-7-7 21 32 7 5z"/><path fill="#d4d4d4" d="M1032 546l-13-14-19 5 8 13z"/><path fill="#a5a5a5" d="M1057 555l-13-14-12 5 9 11z"/><path fill="#9a9a9a" d="M874 407l-8-7-23 10 6 9z"/><path fill="#cecece" d="M1011 556l-3-6-27-1 2 12z"/><path fill="#8f8f8f" d="M571 357l2 7 26-12-4-4z"/><path fill="#353535" d="M825 472v11l16 32v-10z"/><path fill="gray" d="M896 419h-16l6 12 16-1z"/><path fill="#858585" d="M819 445l-4 13 4 6 5-13z"/><path fill="#c2c2c2" d="M898 580l-45 44 15 34 49-44z"/><path fill="#6e6e6e" d="M599 352l4 5h21l-4-5z"/><path fill="#5d5d5d" d="M1079 581l-13-3 11 32 3-7z"/><path fill="#b5b5b5" d="M436 678l21-53-46-55-1 76z"/><path fill="#949494" d="M553 386l4 9 20-25-4-6z"/><path fill="#d9d9d9" d="M584 524l-65 34 25 40 65-39z"/><path fill="#515151" d="M554 404l4 6 1-11-2-4z"/><path fill="#cfcfcf" d="M853 624l45-44-52-27-52 38z"/><path fill="#3d3d3d" d="M558 410l-1 8 3 4v-8z"/><path fill="#bcbcbc" d="M830 436l-7-8-10 10 6 7z"/><path fill="#4f4f4f" d="M652 380l-4-6-20-12 3 8z"/><path fill="#616161" d="M862 678l6-20-41 21-3 28z"/><path fill="#505050" d="M767 773l45-47 12-19-91 50z"/><path fill="#252525" d="M693 435l4 12 7 6-5-9z"/><path fill="#5d5d5d" d="M769 379l-16-12-22-1 15 14z"/><path fill="#bababa" d="M1041 557l-9-11-24 4 3 6z"/><path fill="#bdbdbd" d="M849 419l-6-9-20 18 7 8z"/><path fill="#818181" d="M686 408l-4 12 11 15 2-14z"/><path fill="#2d2d2d" d="M796 399l-11-12-16-8 13 13z"/><path fill="#909090" d="M825 472l7-12-8-9-5 13z"/><path fill="#333" d="M841 505v10l7 12-1-10z"/><path fill="#c9c9c9" d="M880 419l-6-12-25 12 5 10z"/><path fill="#4c4c4c" d="M1080 603l-3 7-1 21 15-13z"/><path fill="#070707" d="M847 517l1 10 7 12-5-6z"/><path fill="#9f9f9f" d="M573 364l4 6 26-13-4-5z"/><path fill="#9d9d9d" d="M412 712l24-34-26-32-8 48z"/><path fill="#b7b7b7" d="M1041 557l6 26 19-5-9-23z"/><path fill="#101010" d="M930 467l-7-5 12 15 9 8z"/><path fill="#cecece" d="M836 442l-6-6-11 9 5 6z"/><path fill="#d5d5d5" d="M457 625l26-33-20-53-52 31z"/><path fill="#707070" d="M603 357l2 6 23-1-4-5z"/><path fill="#373737" d="M560 414v8l2 5 2-8z"/><path fill="#585858" d="M563 403l-4-4-1 11 2 4z"/><path fill="#a1a1a1" d="M706 407l-12-13-8 14 9 13z"/><path fill="#4a4a4a" d="M1091 618l-15 13 10 20 11-2z"/><path fill="#727272" d="M557 395l2 4 20-24-2-5z"/><path fill="#585858" d="M656 388l-4-8-21-10 6 10z"/><path fill="#959595" d="M741 623l53-32-49-20-64 35z"/><path fill="#cdcdcd" d="M574 627l64-36-29-32-65 39z"/><path fill="#dadada" d="M854 429l-5-10-19 17 6 6z"/><path fill="#f0f0f0" d="M463 539l20 53 36-34-18-47z"/><path fill="#a1a1a1" d="M746 380l-15-14-23 15 10 15z"/><path fill="#a2a2a2" d="M718 396l-10-15-14 13 12 13z"/><path fill="#8a8a8a" d="M902 430l-16 1 20 34 17-3z"/><path fill="#dcdcdc" d="M880 419l-26 10 6 13 26-11z"/><path fill="#383838" d="M376 732l-6-2-26 38 11 1z"/><path fill="#d9d9d9" d="M836 442l-12 9 8 9 12-8z"/><path fill="#8d8d8d" d="M577 370l2 5 26-12-2-6z"/><path fill="#848484" d="M841 505l6-13-15-32-7 12z"/><path fill="#b4b4b4" d="M1041 557l-30-1 16 18 20 9z"/><path fill="#484848" d="M796 399l-14-7 9 15 11 6z"/><path fill="#787878" d="M695 421l-2 14 6 9 3-12z"/><path fill="#9a9a9a" d="M631 370l-3-8-23 1 3 7z"/><path fill="#ededed" d="M854 429l-18 13 8 10 16-10z"/><path fill="#b0b0b0" d="M1058 603l19 7-11-32-19 5z"/><path fill="#6c6c6c" d="M569 407l-6-4-3 11 4 5z"/><path fill="#8c8c8c" d="M582 382l-3-7-20 24 4 4z"/><path fill="#0f0f0f" d="M958 502l-14-17-9-8 12 14z"/><path fill="#393939" d="M1108 680l-11-31-11 2 11 29z"/><path fill="#6e6e6e" d="M782 392l-13-13-23 1 11 12z"/><path fill="#656565" d="M852 509l-5 8 3 16 6-9z"/><path fill="#b0b0b0" d="M608 370l-3-7-26 12 3 7z"/><path fill="#757575" d="M847 517l5-8-5-17-6 13z"/><path fill="#767676" d="M389 742l23-30-10-18-26 38z"/><path fill="#9e9e9e" d="M712 418l-6-11-11 14 7 11z"/><path fill="#6e6e6e" d="M703 452l5-10-6-10-3 12z"/><path fill="#ddd" d="M886 431l-26 11 20 33 26-10z"/><path fill="#929292" d="M856 524l-6 9 5 13 14-10z"/><path fill="#dadada" d="M844 452l-12 8 15 32 15-8z"/><path fill="#9b9b9b" d="M637 380l-6-10h-23l5 11z"/><path fill="#f2f2f2" d="M519 558l-36 34 24 39 37-33z"/><path fill="#a0a0a0" d="M587 392l-5-10-19 21 6 4z"/><path fill="#474747" d="M564 419l-2 8 11 28 3-11zM671 415l-15-27-19-8 19 26z"/><path fill="#979797" d="M923 462l-17 3 8 15 21-3z"/><path fill="#e7e7e7" d="M860 442l-16 10 18 32 18-9z"/><path fill="#c3c3c3" d="M868 658l-15-34-37 23 11 32z"/><path fill="#939393" d="M624 644l57-38-43-15-64 36z"/><path fill="#191919" d="M1027 574l-16-18-22-18 16 18z"/><path fill="#9f9f9f" d="M726 405l-8-9-12 11 6 11z"/><path fill="#a4a4a4" d="M1049 615l27 16 1-21-19-7z"/><path fill="#b2b2b2" d="M1047 583l-20-9 22 41 9-12z"/><path fill="#303030" d="M1108 680h-11l16 32 10 6z"/><path fill="#a9a9a9" d="M757 392l-11-12-28 16 8 9z"/><path fill="#c5c5c5" d="M741 623l75 24 37-23-59-33z"/><path fill="#bbb" d="M613 381l-5-11-26 12 5 10z"/><path fill="#efefef" d="M483 592l-26 33 24 35 26-29z"/><path fill="#d0d0d0" d="M459 699l22-39-24-35-21 53z"/><path fill="#3e3e3e" d="M802 413l-11-6 20 37 14 8z"/><path fill="#989898" d="M782 392h-25l9 16 25-1z"/><path fill="#b0b0b0" d="M712 418l-10 14 6 10 12-12z"/><path fill="#d5d5d5" d="M862 484l-15 8 5 17 16-9z"/><path fill="#767676" d="M657 802l34 16 76-45-34-16z"/><path fill="#d7d7d7" d="M875 511l-7-11-16 9 4 15z"/><path fill="#8f8f8f" d="M947 491l-12-14-21 3 11 10z"/><path fill="#757575" d="M584 433l-15-26-5 12 12 25z"/><path fill="#676767" d="M721 502l4-12-17-48-5 10z"/><path fill="#dbdbdb" d="M906 465l-26 10 8 16 26-11z"/><path fill="#a8a8a8" d="M436 678l-24 34 24 13 23-26z"/><path fill="#e4e4e4" d="M544 598l-37 33 28 28 39-32z"/><path fill="#bdbdbd" d="M883 540l-8-29-19 13 13 12z"/><path fill="#e7e7e7" d="M880 475l-18 9 6 16 20-9z"/><path fill="#2c2c2c" d="M1113 712l24 53 10 9-24-56z"/><path fill="#d0d0d0" d="M726 405l-14 13 8 12 13-9z"/><path fill="#9b9b9b" d="M1057 642l29 9-10-20-27-16z"/><path fill="#828282" d="M759 713l-26 44 91-50 3-28z"/><path fill="#060606" d="M573 455l5 13 10 22-5-13z"/><path fill="#dbdbdb" d="M757 392l-31 13 7 16 33-13z"/><path fill="#828282" d="M656 406l-19-26-24 1 18 24z"/><path fill="#4c4c4c" d="M355 769l-11-1-28 44 14 2z"/><path fill="#747474" d="M389 742l-13-10-21 37 19 3z"/><path fill="#f4f4f4" d="M897 500l-9-9-20 9 7 11z"/><path fill="#4a4a4a" d="M1027 574l-22-18 11 26 33 33z"/><path fill="#d8d8d8" d="M925 490l-11-10-26 11 9 9z"/><path fill="#8d8d8d" d="M964 504l-17-13-22-1 11 14z"/><path fill="#a7a7a7" d="M606 417l-19-25-18 15 15 26z"/><path fill="#e4e4e4" d="M517 685l18-26-28-28-26 29z"/><path fill="#b0b0b0" d="M720 430l-12 12 17 48 12-14z"/><path fill="#a7a7a7" d="M690 657l51-34-60-17-57 38z"/><path fill="#535353" d="M733 525l-1-15-7-20-4 12z"/><path fill="#2e2e2e" d="M825 452l-14-8 13 19 8 8z"/><path fill="#b0b0b0" d="M631 405l-18-24-26 11 19 25z"/><path fill="#919191" d="M1057 642l16 34 24 4-11-29z"/><path fill="#d4d4d4" d="M904 516l-7-16-22 11 8 29z"/><path fill="#2d2d2d" d="M689 440l-18-25-15-9 17 21z"/><path fill="#3a3a3a" d="M1165 836l13 4-31-66-10-9z"/><path fill="#a3a3a3" d="M791 407l-25 1 19 38 26-2z"/><path fill="#8d8d8d" d="M648 844l43-26-34-16-35 21z"/><path fill="#505050" d="M576 444l-3 11 10 22 3-12z"/><path fill="#cfcfcf" d="M936 504l-11-14-28 10 7 16z"/><path fill="#9a9a9a" d="M412 712l-23 30 27 12 20-29z"/><path fill="#111" d="M316 812l-4 5-47 54 10-4z"/><path fill="#d6d6d6" d="M493 721l24-36-36-25-22 39z"/><path fill="#e0e0e0" d="M753 671l6 42 68-34-11-32z"/><path fill="#d5d5d5" d="M733 421l-13 9 17 46 17-15z"/><path fill="#8b8b8b" d="M987 527l-23-23h-28l20 17z"/><path fill="#343434" d="M732 510l1 15 11 22-1-12z"/><path fill="#d2d2d2" d="M690 657l63 14 63-24-75-24z"/><path fill="#c7c7c7" d="M574 627l-39 32 50 22 39-37z"/><path fill="#030303" d="M535 946l8-13-46 67-10 14z"/><path fill="#ddd" d="M766 408l-33 13 21 40 31-15z"/><path fill="#8b8b8b" d="M606 867l42-23-26-21-34 21z"/><path fill="#848484" d="M1091 711l22 1-16-32-24-4z"/><path fill="#020202" d="M842 494l-10-23-8-8 14 19z"/><path fill="#090909" d="M583 477l5 13 3 7-3-10z"/><path fill="#474747" d="M1005 556l-18-29 7 28 22 27z"/><path fill="#757575" d="M1016 582l14 43 27 17-8-27z"/><path fill="#787878" d="M594 450l-10-17-8 11 10 21z"/><path fill="#404040" d="M1186 921l11 18-19-99-13-4z"/><path fill="#b5b5b5" d="M737 476l-12 14 7 20 12-16z"/><path fill="#878787" d="M564 872l14 23 28-28-18-23z"/><path fill="#bfbfbf" d="M459 699l-23 26 36 21 21-25z"/><path fill="#cecece" d="M904 516l16 22 36-17-20-17z"/><path fill="#707070" d="M673 427l-17-21-25-1 12 17z"/><path fill="#b9b9b9" d="M904 516l-21 24 26 11 11-13z"/><path fill="#e0e0e0" d="M585 681l-50-22-18 26 45 25z"/><path fill="#a4a4a4" d="M811 444l-26 2 13 20 26-3z"/><path fill="#131313" d="M696 450l-7-10-16-13 10 11z"/><path fill="#1c1c1c" d="M743 535l1 12 6 29 1-13z"/><path fill="#151515" d="M588 487l3 10 3 7-3-10z"/><path fill="gray" d="M374 772l-19-3-25 45 24 3z"/><path fill="#5a5a5a" d="M586 465l-3 12 5 10 4-12z"/><path fill="#979797" d="M614 433l-8-16-22 16 10 17z"/><path fill="#a0a0a0" d="M374 772l29 11 13-29-27-12z"/><path fill="#dcdcdc" d="M754 461l-17 15 7 18 24-15z"/><path fill="#bababa" d="M987 527l-31-6 21 38 17-4z"/><path fill="#a9a9a9" d="M756 519l-12-25-12 16 11 25z"/><path fill="#757575" d="M1114 764l23 1-24-53-22-1z"/><path fill="#242424" d="M1200 976l8 15-11-52-11-18z"/><path fill="#797979" d="M535 910l8 23 35-38-14-23z"/><path fill="#767676" d="M1073 676l-16-34-27-17 19 42z"/><path fill="#a1a1a1" d="M643 422l-12-17-25 12 8 16z"/><path fill="#0c0c0c" d="M712 480l-5-8-5-11 3 9z"/><path fill="#e4e4e4" d="M535 748l27-38-45-25-24 36z"/><path fill="#e0e0e0" d="M785 446l-31 15 14 18 30-13z"/><path fill="#d9d9d9" d="M659 695l31-38-66-13-39 37z"/><path fill="#f1f1f1" d="M690 657l-31 38 100 18-6-42z"/><path fill="#151515" d="M591 494l3 10 4 8-2-8z"/><path fill="#777" d="M600 461l-6-11-8 15 6 10z"/><path fill="#ececec" d="M949 560l28-1-21-38-36 17z"/><path fill="#bcbcbc" d="M436 725l-20 29 39 18 17-26z"/><path fill="#b3b3b3" d="M994 555l-17 4 7 32 32-9z"/><path fill="#6b6b6b" d="M592 475l-4 12 3 7 7-12z"/><path fill="#9f9f9f" d="M838 482l-14-19-26 3 16 21z"/><path fill="#eaeaea" d="M657 802l76-45-104-28-38 46z"/><path fill="#f0f0f0" d="M759 713l-100-18-30 34 104 28z"/><path fill="#202020" d="M702 461l-6-11-13-12 7 11z"/><path fill="#d3d3d3" d="M780 502l-12-23-24 15 12 25z"/><path fill="#0c0c0c" d="M1215 1028l3 13-10-50-8-15z"/><path fill="#636363" d="M330 814l-14-2-41 55 20 6z"/><path fill="#2b2b2b" d="M712 480l-7-10 3 15 9 10z"/><path fill="#767676" d="M683 438l-10-11-30-5 9 15z"/><path fill="#dfdfdf" d="M920 538l-11 13 24 29 16-20z"/><path fill="#131313" d="M596 504l2 8 4 9-2-8z"/><path fill="#a2a2a2" d="M769 560l-13-41-13 16 8 28z"/><path fill="#787878" d="M1071 712l20-1-18-35-24-9z"/><path fill="#eee" d="M622 823l35-21-66-27-23 24z"/><path fill="#d5d5d5" d="M493 721l-21 25 43 25 20-23z"/><path fill="#656565" d="M1144 840l21-4-28-71-23-1z"/><path fill="#9c9c9c" d="M984 591l13 25 33 9-14-43z"/><path fill="#efefef" d="M659 695l-74-14-23 29 67 19z"/><path fill="#dfdfdf" d="M814 487l-16-21-30 13 12 23z"/><path fill="#989898" d="M620 446l-6-13-20 17 6 11z"/><path fill="#707070" d="M598 482l-7 12 5 10 7-11z"/><path fill="#fafafa" d="M591 775l38-46-67-19-27 38z"/><path fill="#5b5b5b" d="M493 977l4 23 46-67-8-23z"/><path fill="#868686" d="M607 470l-7-9-8 14 6 7z"/><path fill="#ddd" d="M933 580l51 11-7-32-28 1z"/><path fill="#b3b3b3" d="M652 437l-9-15-29 11 6 13z"/><path fill="#969696" d="M859 499l-21-17-24 5 11 12z"/><path fill="#515151" d="M705 470l-3-9-12-12 1 14z"/><path fill="#0e0e0e" d="M600 513l2 8 10 30-1-9z"/><path fill="#e1e1e1" d="M588 844l34-21-54-24-18 18z"/><path fill="#ababab" d="M354 817l34 11 15-45-29-11z"/><path fill="#3b3b3b" d="M717 495l-9-10 7 26 10 10z"/><path fill="#eee" d="M535 748l-20 23 53 28 23-24z"/><path fill="#bfbfbf" d="M403 783l41 17 11-28-39-18z"/><path fill="#cbcbcb" d="M793 521l-13-19-24 17 13 41z"/><path fill="#7e7e7e" d="M600 513l7-9-4-11-7 11z"/><path fill="#868686" d="M690 449l-7-11-31-1 8 13z"/><path fill="#818181" d="M997 616l27 41 25 10-19-42z"/><path fill="#4d4d4d" d="M902 564l31 16-24-29-17-9z"/><path fill="#505050" d="M1171 916l15 5-21-85-21 4z"/><path fill="#d2d2d2" d="M472 746l-17 26 46 21 14-22z"/><path fill="#8a8a8a" d="M611 484l-4-14-9 12 5 11z"/><path fill="#c3c3c3" d="M533 843l31 29 24-28-38-27z"/><path fill="#cfcfcf" d="M825 499l-11-12-34 15 13 19z"/><path fill="#9c9c9c" d="M624 459l-4-13-20 15 7 9z"/><path fill="#7b7b7b" d="M1114 764l-23-53-20 1 27 60z"/><path fill="#737373" d="M705 470l-14-7 3 18 14 4z"/><path fill="#e2e2e2" d="M933 580l22 32 42 4-13-25z"/><path fill="#909090" d="M876 522l-17-23h-34l18 18z"/><path fill="#aeaeae" d="M660 450l-8-13-32 9 4 13z"/><path fill="#212121" d="M725 521l-10-10 11 22 8 11z"/><path fill="#3c3c3c" d="M1186 921l-15-5 17 55 12 5z"/><path fill="#e4e4e4" d="M515 771l-14 22 49 24 18-18z"/><path fill="#747474" d="M611 542l4-10-8-28-7 9z"/><path fill="#565656" d="M431 705l4-3-1-14-2-3z"/><path fill="#898989" d="M449 731v-5l-14-24-4 3z"/><path fill="#9a9a9a" d="M611 484l-8 9 4 11 10-8z"/><path fill="#929292" d="M354 817l-24-3-35 59 30 8z"/><path fill="#aeaeae" d="M508 885l27 25 29-38-31-29z"/><path fill="#a0a0a0" d="M691 463l-1-14-30 1 6 13z"/><path fill="#141414" d="M735 553l-1-9-8-11 7 12z"/><path fill="#bdbdbd" d="M633 474l-9-15-17 11 4 14z"/><path fill="#2f2f2f" d="M209 946l17-2 49-77-10 4z"/><path fill="#777" d="M1049 711l22 1-22-45-25-10z"/><path fill="#787878" d="M708 485l-14-4 9 24 12 6z"/><path fill="#323232" d="M1200 976l-12-5 19 50 8 7z"/><path fill="#4a4a4a" d="M892 542l-16-20 6 20 20 22z"/><path fill="#a2a2a2" d="M955 612l-22-32-31-16 13 41z"/><path fill="#5a5a5a" d="M454 738l6 13 19 11-5-7z"/><path fill="#d7d7d7" d="M444 800l45 21 12-28-46-21z"/><path fill="#c1c1c1" d="M793 521l16 17 34-21-18-18z"/><path fill="#a6a6a6" d="M793 521l-24 39 18 9 22-31z"/><path fill="#3e3e3e" d="M449 731l5 7 20 17-3-5z"/><path fill="#414141" d="M438 1075l4 15 55-90-4-23z"/><path fill="#d9d9d9" d="M955 612l29 45h40l-27-41z"/><path fill="#494949" d="M445 676l2-12-15 21 2 3z"/><path fill="#424242" d="M460 751l11 13 13 7-5-9z"/><path fill="#606060" d="M616 565l6-12-7-21-4 10z"/><path fill="#a9a9a9" d="M449 726v5l22 19v-2z"/><path fill="#cfcfcf" d="M666 463l-6-13-36 9 9 15z"/><path fill="#cacaca" d="M388 828l41 16 15-44-41-17z"/><path fill="#a5a5a5" d="M617 496l-10 8 8 28 13-9z"/><path fill="#b1b1b1" d="M691 463h-25l5 14 23 4z"/><path fill="#c9c9c9" d="M633 474l-22 10 6 12 20-10z"/><path fill="#e6e6e6" d="M489 821l44 22 17-26-49-24z"/><path fill="#343434" d="M471 764l10 15 7 2-4-10z"/><path fill="#828282" d="M447 687l-2-11-11 12 1 14z"/><path fill="#7a7a7a" d="M1144 840l-30-76-16 8 30 73z"/><path fill="#1c1c1c" d="M1236 1071l-21-43-8-7 22 42z"/><path fill="#535353" d="M787 569l-18-9-29 2 16 13z"/><path fill="#1a1a1a" d="M481 779l8 11 3 1-4-10z"/><path fill="#565656" d="M715 511l-12-6 13 22 10 6z"/><path fill="gray" d="M460 708l-13-21-12 15 14 24z"/><path fill="#a1a1a1" d="M876 522l-33-5 24 37 15-12z"/><path fill="#666" d="M622 553l-6 12 6 18 6-14z"/><path fill="#e4e4e4" d="M666 463l-33 11 4 12 34-9z"/><path fill="#959595" d="M474 955l19 22 42-67-27-25z"/><path fill="#0b0b0b" d="M489 790l7 10v-1l-4-8z"/><path fill="#a1a1a1" d="M694 481l-23-4 9 25 23 3z"/><path fill="#585858" d="M733 545l-7-12-10-6 6 13z"/><path fill="#cdcdcd" d="M637 486l-20 10 11 27 20-11z"/><path fill="#a7a7a7" d="M628 523l-13 9 7 21 13-13z"/><path fill="#7f7f7f" d="M1049 711l30 67 19-6-27-60z"/><path fill="#8e8e8e" d="M449 726l22 22 15-10-26-30z"/><path fill="#a9a9a9" d="M984 657l-29-45-40-7 33 51z"/><path fill="#464646" d="M740 562l-7-17-11-5 6 13z"/><path fill="#b5b5b5" d="M325 881l38 14 25-67-34-11z"/><path fill="#ededed" d="M471 864l37 21 25-42-44-22z"/><path fill="#e6e6e6" d="M429 844l42 20 18-43-45-21z"/><path fill="#626262" d="M628 569l-6 14 7 20 5-17z"/><path fill="#747474" d="M447 664l-2 12 16-9 2-10z"/><path fill="#cecece" d="M1017 716l32-5-25-54h-40z"/><path fill="#d4d4d4" d="M834 556l33-2-24-37-34 21z"/><path fill="#e8e8e8" d="M671 477l-34 9 11 26 32-10z"/><path fill="#7c7c7c" d="M1144 840l-16 5 25 70 18 1z"/><path fill="#848484" d="M471 748v2l17-7-2-5z"/><path fill="#9e9e9e" d="M882 542l-15 12 12 26 23-16z"/><path fill="#d4d4d4" d="M809 538l-22 31 31 13 16-26z"/><path fill="#999" d="M703 505l-23-3 9 18 27 7z"/><path fill="#929292" d="M471 750l3 5 16-7-2-5z"/><path fill="#aaa" d="M643 555l-8-15-13 13 6 16z"/><path fill="#a1a1a1" d="M447 687l22-13-8-7-16 9z"/><path fill="#717171" d="M1171 916l-18-1 21 57 14-1z"/><path fill="#cfcfcf" d="M648 512l-20 11 7 17 22-13z"/><path fill="#878787" d="M474 755l5 7 15-8-4-6z"/><path fill="#8f8f8f" d="M915 605l-13-41-23 16 8 22z"/><path fill="#575757" d="M629 603l7 22 5-20-7-19z"/><path fill="#151515" d="M742 568l14 7-16-13-12-9z"/><path fill="#626262" d="M1188 971l-14 1 20 51 13-2z"/><path fill="#1d1d1d" d="M507 668l-24-8 13 8 21 7z"/><path fill="#838383" d="M479 762l5 9 14-10-4-7z"/><path fill="#afafaf" d="M722 540l-6-13-27-7 6 15z"/><path fill="#7e7e7e" d="M295 873l-20-6-49 77 25 10z"/><path fill="#e5e5e5" d="M680 502l-32 10 9 15 32-7z"/><path fill="#525252" d="M483 660l-20-3 11 9 22 2z"/><path fill="#040404" d="M209 946l-3 13-81 99 11-5z"/><path fill="#7e7e7e" d="M484 771l4 10 14-13-4-7z"/><path fill="#747474" d="M770 594l48-12-31-13-31 6z"/><path fill="#c2c2c2" d="M488 694l-19-20-22 13 13 21z"/><path fill="#ababab" d="M469 674l5-8-11-9-2 10z"/><path fill="#ededed" d="M818 582l61-2-12-26-33 2z"/><path fill="#afafaf" d="M651 568l-8-13-15 14 6 17z"/><path fill="#878787" d="M1079 778l31 74 18-7-30-73z"/><path fill="#1f1f1f" d="M369 1206l-3 10 76-126-4-15z"/><path fill="#575757" d="M1229 1063l-22-42-13 2 23 39z"/><path fill="#d4d4d4" d="M666 541l-9-14-22 13 8 15z"/><path fill="#d3d3d3" d="M363 895l42 20 24-71-41-16z"/><path fill="#747474" d="M488 781l4 10 12-16-2-7z"/><path fill="#949494" d="M728 553l-6-13-27-5 8 15z"/><path fill="#636363" d="M649 661l6-15-14-41-5 20z"/><path fill="#d9d9d9" d="M443 935l31 20 34-70-37-21z"/><path fill="#e3e3e3" d="M695 535l-6-15-32 7 9 14z"/><path fill="#b0b0b0" d="M984 657l-36-1 38 66 31-6z"/><path fill="#bcbcbc" d="M495 716l-7-22-28 14 26 30z"/><path fill="#7b7b7b" d="M424 1057l14 18 55-98-19-22z"/><path fill="#787878" d="M492 791l4 8 12-15-4-9z"/><path fill="silver" d="M1017 716l35 70 27-8-30-67z"/><path fill="#464646" d="M486 738l2 5 6-26 1-1z"/><path fill="#818181" d="M948 656l-33-51-28-3 32 56z"/><path fill="#acacac" d="M488 743l2 5 12-25-8-6z"/><path fill="#585858" d="M509 793l-1-9-12 15 2 10z"/><path fill="#e7e7e7" d="M405 915l38 20 28-71-42-20z"/><path fill="#d4d4d4" d="M673 556l-7-15-23 14 8 13z"/><path fill="#b4b4b4" d="M634 586l7 19 21-20-11-17z"/><path fill="#555" d="M649 661l20 47 6-18-20-44z"/><path fill="#b9b9b9" d="M488 694l2-2-16-26-5 8z"/><path fill="#3a3a3a" d="M1270 1117l-41-54-12-1 44 53z"/><path fill="#ccc" d="M490 748l4 6 15-26-7-5z"/><path fill="#e2e2e2" d="M818 582l26 40 43-20-8-22z"/><path fill="#d6d6d6" d="M703 550l-8-15-29 6 7 15z"/><path fill="#767676" d="M548 711l11 9 13-4-16-14z"/><path fill="#8c8c8c" d="M1134 921l19-6-25-70-18 7z"/><path fill="#838383" d="M534 701l14 10 8-9-20-16z"/><path fill="#929292" d="M742 568l-14-15-25-3 7 18z"/><path fill="#767676" d="M516 805l-7-12-11 16 5 12z"/><path fill="#585858" d="M756 575l-14-7 3 15 25 11z"/><path fill="#d4d4d4" d="M490 692l15-1-9-23-22-2z"/><path fill="#757575" d="M559 720l9 9 14-2-10-11z"/><path fill="#9c9c9c" d="M519 694l15 7 2-15-19-11z"/><path fill="#b6b6b6" d="M505 691l14 3-2-19-21-7z"/><path fill="#d7d7d7" d="M494 754l4 7 18-27-7-6z"/><path fill="#787878" d="M575 737l14-1-7-9-14 2z"/><path fill="#747474" d="M583 748h13l-7-12-14 1z"/><path fill="#2e2e2e" d="M681 839l16 8 1-5-7-5z"/><path fill="#424242" d="M670 828l11 11 10-2-13-9z"/><path fill="#272727" d="M495 716l-1 1-4-25-2 2z"/><path fill="#444" d="M594 757l12 5-10-14h-13z"/><path fill="#dcdcdc" d="M498 761l4 7 23-26-9-8z"/><path fill="#828282" d="M526 821l-10-16-13 16 11 14z"/><path fill="#3e3e3e" d="M651 816l19 12h8l-14-12z"/><path fill="#8d8d8d" d="M1153 915l-19 6 22 58 18-7z"/><path fill="#3b3b3b" d="M611 778l12 1-17-17-12-5z"/><path fill="#494949" d="M633 799l18 17h13l-20-17z"/><path fill="#f8f8f8" d="M494 717l8 6 3-32-15 1z"/><path fill="#858585" d="M541 838l-15-17-12 14 15 19z"/><path fill="#2f2f2f" d="M697 847l17-4-2-12-14 11z"/><path fill="#d1d1d1" d="M502 768l2 7 27-26-6-7z"/><path fill="#424242" d="M611 778l22 21h11l-21-20z"/><path fill="#a7a7a7" d="M325 881l-30-8-44 81 33 16z"/><path fill="#fcfcfc" d="M502 723l7 5 10-34-14-3z"/><path fill="#bcbcbc" d="M676 574l-3-18-22 12 11 17z"/><path fill="#fdfdfd" d="M509 728l7 6 18-33-15-7z"/><path fill="#8f8f8f" d="M1174 972l-18 7 20 50 18-6z"/><path fill="#8b8b8b" d="M529 854l15 17 15-14-18-19z"/><path fill="#696969" d="M583 911l18 27 15-8-17-29z"/><path fill="#464646" d="M689 751l20 18-34-79-6 18z"/><path fill="#c7c7c7" d="M770 594l34 40 40-12-26-40z"/><path fill="#fefefe" d="M516 734l9 8 23-31-14-10z"/><path fill="#646464" d="M601 938l20 30 16-14-21-24z"/><path fill="#7a7a7a" d="M565 891l18 20 16-10-19-24z"/><path fill="#ccc" d="M673 556l3 18 34-6-7-18z"/><path fill="#8a8a8a" d="M544 871l21 20 15-14-21-20z"/><path fill="#e7e7e7" d="M504 775l4 9 29-27-6-8z"/><path fill="#1d1d1d" d="M1329 1189l-59-72-9-2 62 70z"/><path fill="#fbfbfb" d="M525 742l6 7 28-29-11-9z"/><path fill="#c1c1c1" d="M655 646l34-27-27-34-21 20z"/><path fill="#5d5d5d" d="M621 968l29 39 7-17-20-36z"/><path fill="#fafafa" d="M531 749l6 8 31-28-9-9z"/><path fill="#1f1f1f" d="M712 831l2 12 3-30-7-18z"/><path fill="#8e8e8e" d="M1217 1062l-23-39-18 6 21 38z"/><path fill="#b3b3b3" d="M1052 786l34 75 24-9-31-74z"/><path fill="#030303" d="M963 1142l-17-12-56-31 26 14z"/><path fill="#131313" d="M916 1113l-26-14-66-24 18 13z"/><path fill="#d9d9d9" d="M542 765l-5-8-29 27 1 9z"/><path fill="#9f9f9f" d="M742 568h-32l14 24 21-9z"/><path fill="#f8f8f8" d="M575 737l-7-8-31 28 5 8z"/><path fill="#b5b5b5" d="M1052 786l-35-70-31 6 38 74z"/><path fill="#5a5a5a" d="M689 1044l6-23-38-31-7 17z"/><path fill="#2c2c2c" d="M710 795l7 18-8-44-20-18z"/><path fill="#f9f9f9" d="M583 748l-8-11-33 28 7 12z"/><path fill="#353535" d="M824 1075l-71-30v29l89 14z"/><path fill="#a2a2a2" d="M948 656l-29 2 35 72 32-8z"/><path fill="#f3f3f3" d="M549 777l-7-12-33 28 7 12z"/><path fill="#e0e0e0" d="M844 622l32 48 43-12-32-56z"/><path fill="#565656" d="M695 1021l-6 23 64 30v-29z"/><path fill="#f1f1f1" d="M594 757l-11-9-34 29 9 15z"/><path fill="#c6c6c6" d="M398 1039l26 18 50-102-31-20z"/><path fill="#f5f5f5" d="M558 792l-9-15-33 28 10 16z"/><path fill="#f9f9f9" d="M611 778l-17-21-36 35 15 19z"/><path fill="#dcdcdc" d="M676 574l-14 11 27 34 8-24z"/><path fill="#d5d5d5" d="M697 595l27-3-14-24-34 6z"/><path fill="#f9f9f9" d="M573 811l-15-19-32 29 15 17z"/><path fill="#7f7f7f" d="M1261 1115l-44-53-20 5 46 53z"/><path fill="#ababab" d="M745 583l-21 9 15 23 31-21z"/><path fill="#f4f4f4" d="M573 811l20 21 40-33-22-21z"/><path fill="#c4c4c4" d="M284 970l40 23 39-98-38-14z"/><path fill="#bdbdbd" d="M655 646l20 44 30-17-16-54z"/><path fill="#acacac" d="M1110 930l24-9-24-69-24 9z"/><path fill="#5a5a5a" d="M361 1193l8 13 69-131-14-18z"/><path fill="#e4e4e4" d="M632 865l14 19 35-45-11-11z"/><path fill="#f5f5f5" d="M541 838l18 19 34-25-20-21z"/><path fill="#eee" d="M593 832l22 16 36-32-18-17z"/><path fill="#525252" d="M226 944l-17 2-73 107 28 5z"/><path fill="#e8e8e8" d="M615 848l17 17 38-37-19-12z"/><path fill="#e0e0e0" d="M646 884l19 14 32-51-16-8z"/><path fill="#f5f5f5" d="M559 857l21 20 35-29-22-16z"/><path fill="#ababab" d="M1134 921l-24 9 22 59 24-10z"/><path fill="#d5d5d5" d="M804 634l27 55 45-19-32-48z"/><path fill="#f5f5f5" d="M580 877l19 24 33-36-17-17z"/><path fill="#f7f7f7" d="M599 901l17 29 30-46-14-19z"/><path fill="#b9b9b9" d="M739 615l17 31 48-12-34-40z"/><path fill="#adadad" d="M1156 979l-24 10 19 49 25-9z"/><path fill="#e4e4e4" d="M363 1017l35 22 45-104-38-20z"/><path fill="#ececec" d="M697 595l-8 24 50-4-15-23z"/><path fill="#d6d6d6" d="M665 898l16 17 33-72-17 4z"/><path fill="#f2f2f2" d="M616 930l21 24 28-56-19-14z"/><path fill="#ddd" d="M324 993l39 24 42-102-42-20z"/><path fill="#bababa" d="M1086 861l-34-75-28 10 35 75z"/><path fill="#afafaf" d="M1197 1067l-21-38-25 9 21 39z"/><path fill="#747474" d="M1323 1185l-62-70-18 5 63 69z"/><path fill="#151515" d="M1490 1412l-92-131-12-1 100 122z"/><path fill="#bdbdbd" d="M1024 796l-38-74-32 8 37 76z"/><path fill="#e9e9e9" d="M912 748l42-18-35-72-43 12z"/><path fill="#f2f2f2" d="M637 954l20 36 24-75-16-17z"/><path fill="#bbb" d="M709 769l22-31-26-65-30 17z"/><path fill="#3c3c3c" d="M1013 1221l-2-19-32-44 3 18z"/><path fill="#939393" d="M714 843l-33 72 28 1 8-103z"/><path fill="#f2f2f2" d="M756 646l-17-31-50 4 16 54z"/><path fill="#565656" d="M1398 1281l-75-96-17 4 80 91z"/><path fill="#3b3b3b" d="M982 1176l-3-18-35-43 2 15z"/><path fill="#e2e2e2" d="M695 1021l14-105-28-1-24 75z"/><path fill="#aaa" d="M1243 1120l-46-53-25 10 45 53z"/><path fill="silver" d="M1086 861l-27 10 25 70 26-11z"/><path fill="#dcdcdc" d="M831 689l-27-55-48 12 25 63z"/><path fill="#949494" d="M717 813l-8 103 30-9-30-138z"/><path fill="#e8e8e8" d="M868 770l44-22-36-78-45 19z"/><path fill="#434343" d="M1050 1273l-1-20-38-51 2 19z"/><path fill="#c1c1c1" d="M1110 930l-26 11 22 59 26-11z"/><path fill="#595959" d="M946 1130l-2-15-49-36-5 20z"/><path fill="#c3c3c3" d="M1132 989l-26 11 18 50 27-12z"/><path fill="#f5f5f5" d="M756 646l-51 27 26 65 50-29z"/><path fill="#eaeaea" d="M912 748l37 78 42-20-37-76z"/><path fill="#cecece" d="M1059 871l-35-75-33 10 36 77z"/><path fill="#a4a4a4" d="M338 1180l23 13 63-136-26-18z"/><path fill="#cacaca" d="M1172 1077l-21-39-27 12 18 41z"/><path fill="#ebebeb" d="M709 916l-14 105 58 24-14-138z"/><path fill="#111" d="M1602 1555l-116-153-14-2 126 146z"/><path fill="#a5a5a5" d="M1306 1189l-63-69-26 10 64 68z"/><path fill="#9e9e9e" d="M251 954l-25-10-62 114 33 18z"/><path fill="#cbcbcb" d="M709 769l30 138 34-49-42-120z"/><path fill="#313131" d="M287 1376l1 13 81-183-8-13z"/><path fill="#919191" d="M890 1099l5-20-50-44-21 40z"/><path fill="#383838" d="M136 1053l-11 5-107 124 22 8z"/><path fill="#c8c8c8" d="M1217 1130l-45-53-30 14 44 54z"/><path fill="#d9d9d9" d="M1059 871l-32 12 24 71 33-13z"/><path fill="#efefef" d="M818 805l50-35-37-81-50 20z"/><path fill="#909090" d="M1386 1280l-80-91-25 9 83 87z"/><path fill="#5a5a5a" d="M1486 1402l-100-122-22 5 108 115z"/><path fill="#969696" d="M979 1158l32 44 10-24-30-45z"/><path fill="#444" d="M1050 1273l46 79 3-19-50-80z"/><path fill="#e7e7e7" d="M868 770l36 83 45-27-37-78z"/><path fill="#dbdbdb" d="M1084 941l-33 13 24 60 31-14z"/><path fill="#eaeaea" d="M949 826l37 77 41-20-36-77z"/><path fill="#f6f6f6" d="M773 858l45-53-37-96-50 29z"/><path fill="#a8a8a8" d="M979 1158l12-25-27-46-20 28z"/><path fill="#cecece" d="M845 1035l-45-66-47 76 71 30z"/><path fill="#dbdbdb" d="M1106 1000l-31 14 19 51 30-15z"/><path fill="#262626" d="M1157 1476l70 154 5-18-78-149z"/><path fill="#dedede" d="M1142 1091l-18-41-30 15 19 42z"/><path fill="#dbdbdb" d="M800 969l-27-111-34 49 14 138z"/><path fill="#959595" d="M1011 1202l38 51 13-24-41-51z"/><path fill="#cfcfcf" d="M307 1158l31 22 60-141-35-22z"/><path fill="#101010" d="M1798 2728l-106-154 5 9 119 188z"/><path fill="#262626" d="M1742 1756l-144-210-20 8 164 200z"/><path fill="#c9c9c9" d="M1281 1198l-64-68-31 15 65 67z"/><path fill="#c8c8c8" d="M284 970l-33-16-54 122 36 25z"/><path fill="#181818" d="M1311 1830l100 233 7-17-112-224z"/><path fill="#d6d6d6" d="M944 1115l20-28-36-50-33 42z"/><path fill="#dcdcdc" d="M1186 1145l-44-54-29 16 43 55z"/><path fill="#ededed" d="M1012 973l39-19-24-71-41 20z"/><path fill="#292929" d="M1871 2823l-73-95 18 43 87 134z"/><path fill="#f4f4f4" d="M818 805l34 92 52-44-36-83z"/><path fill="#f0f0f0" d="M1075 1014l-37 19 22 51 34-19z"/><path fill="#efefef" d="M1051 954l-39 19 26 60 37-19z"/><path fill="#eee" d="M904 853l36 78 46-28-37-77z"/><path fill="#f3f3f3" d="M1113 1107l-19-42-34 19 22 44zM991 1133l30 45 30-25-27-46z"/><path fill="#646464" d="M1168 1439l-69-106-3 19 58 111z"/><path fill="#dadada" d="M273 1131l34 27 56-141-39-24z"/><path fill="#f7f7f7" d="M818 805l-45 53 27 111 52-72zM991 1133l33-26-26-50-34 30z"/><path fill="#dbdbdb" d="M233 1101l40 30 51-138-40-23z"/><path fill="#fff" d="M1024 1107l27 46 31-25-22-44z"/><path fill="#bcbcbc" d="M1364 1285l-83-87-30 14 84 86z"/><path fill="#f0f0f0" d="M895 1079l33-42-41-61-42 59z"/><path fill="#fdfdfd" d="M1024 1107l36-23-22-51-40 24z"/><path fill="#272727" d="M1910 1977l-168-223-11 21 188 215z"/><path fill="#eee" d="M1156 1162l-43-55-31 21 42 56z"/><path fill="#e9e9e9" d="M1021 1178l41 51 30-21-41-55z"/><path fill="#f8f8f8" d="M970 1000l42-27-26-70-46 28z"/><path fill="#4d4d4d" d="M1227 1630l79 192 15-22-89-188z"/><path fill="#a1a1a1" d="M1049 1253l50 80 19-24-56-80z"/><path fill="#fbfbfb" d="M964 1087l34-30-28-57-42 37z"/><path fill="#fcfcfc" d="M998 1057l40-24-26-60-42 27z"/><path fill="#dadada" d="M1251 1212l-65-67-30 17 63 71z"/><path fill="#fbfbfb" d="M845 1035l42-59-35-79-52 72z"/><path fill="#fbfbfb" d="M852 897l35 79 53-45-36-78z"/><path fill="#f8f8f8" d="M1051 1153l41 55 32-24-42-56z"/><path fill="#747474" d="M271 1366l16 10 74-183-23-13z"/><path fill="#999" d="M1472 1400l-108-115-29 13 111 113z"/><path fill="#fefefe" d="M928 1037l42-37-30-69-53 45z"/><path fill="#686868" d="M1598 1546l-126-146-26 11 132 143z"/><path fill="#4e4e4e" d="M2174 2289l-101-124-21 16 88 108z"/><path fill="#4a4a4a" d="M2244 2378l-70-89h-34l62 75z"/><path fill="#393939" d="M2293 2431l-49-53-42-14 46 47z"/><path fill="#525252" d="M18 1182H8l-130 171 35 15z"/><path fill="#ebebeb" d="M1219 1233l-63-71-32 22 62 72z"/><path fill="#8a8a8a" d="M1154 1463l78 149 28-31-92-142z"/><path fill="#585858" d="M1411 2063l128 261 23-32-144-246z"/><path fill="#7b7b7b" d="M164 1058l-28-5-96 137 52 16z"/><path fill="#efefef" d="M1062 1229l56 80 35-27-61-74z"/><path fill="#d3d3d3" d="M1335 1298l-84-86-32 21 83 86z"/><path fill="#353535" d="M1930 2891l-59-68 32 82 68 95z"/><path fill="#f7f7f7" d="M1092 1208l61 74 33-26-62-72z"/><path fill="#161616" d="M2336 2468l-43-37-45-20 35 23z"/><path fill="#b8b8b8" d="M1195 1408l-77-99-19 24 69 106z"/><path fill="#2e2e2e" d="M166 1607l-4 10 125-241-16-10z"/><path fill="#5b5b5b" d="M2073 2165l-154-175-18 31 151 160z"/><path fill="#838383" d="M1306 1822l112 224 36-32-133-214z"/><path fill="#a2a2a2" d="M1692 2574l106 154 21-77-95-131z"/><path fill="#c2c2c2" d="M1446 1411l-111-113-33 21 111 116z"/><path fill="#767676" d="M1742 1754l-164-200-32 24 185 197z"/><path fill="#e7e7e7" d="M1302 1319l-83-86-33 23 82 92z"/><path fill="#8b8b8b" d="M1539 2324l153 250 32-54-162-228z"/><path fill="#aaa" d="M245 1342l26 24 67-186-31-22z"/><path fill="#a5a5a5" d="M1798 2728l73 95 7-102-59-70z"/><path fill="#f1f1f1" d="M1118 1309l77 99 38-28-80-98z"/><path fill="#aeaeae" d="M1232 1612l89 188 56-42-117-177z"/><path fill="#f6f6f6" d="M1153 1282l80 98 35-32-82-92z"/><path fill="#aaa" d="M1578 1554l-132-143-33 24 133 143z"/><path fill="#c9c9c9" d="M1168 1439l92 142 34-37-99-136z"/><path fill="#878787" d="M1919 1990l-188-215-28 41 198 205z"/><path fill="#bdbdbd" d="M197 1076l-33-18-72 148 45 29z"/><path fill="#e2e2e2" d="M1413 1435l-111-116-34 29 107 120z"/><path fill="#3c3c3c" d="M1978 2943l-48-52 41 109 53 71z"/><path fill="#b7b7b7" d="M217 1307l28 35 62-184-34-27z"/><path fill="#aeaeae" d="M2094 2322l46 62 62-20-62-75z"/><path fill="#8d8d8d" d="M40 1190l-22-8-105 186 52 24z"/><path fill="#3e3e3e" d="M-122 1353l-6-4-137 183 24 17z"/><path fill="#9d9d9d" d="M2027 2227l67 95 46-33-88-108z"/><path fill="#a8a8a8" d="M2140 2384l30 31 78-4-46-47z"/><path fill="#909090" d="M1871 2823l59 68-3-124-49-46z"/><path fill="#aeaeae" d="M1418 2046l144 246 51-45-159-233z"/><path fill="#6c6c6c" d="M164 1593l2 14 105-241-26-24z"/><path fill="#f4f4f4" d="M1195 1408l99 136 42-35-103-129z"/><path fill="#f8f8f8" d="M1233 1380l103 129 39-41-107-120z"/><path fill="#d7d7d7" d="M233 1101l-36-25-60 159 43 38z"/><path fill="#d6d6d6" d="M180 1273l37 34 56-176-40-30z"/><path fill="#616161" d="M2170 2415l31 21 82-2-35-23z"/><path fill="#d4d4d4" d="M1321 1800l133 214 78-52-155-204z"/><path fill="#bfbfbf" d="M1731 1775l-185-197-39 38 196 200z"/><path fill="#e3e3e3" d="M1819 2651l59 70 50-92-53-63z"/><path fill="#ddd" d="M1546 1578l-133-143-38 33 132 148z"/><path fill="#dadada" d="M1260 1581l117 177 41-44-124-170z"/><path fill="#a0a0a0" d="M1867 2069l160 158 25-46-151-160z"/><path fill="#dadada" d="M1724 2520l95 131 56-85-93-117z"/><path fill="#cacaca" d="M1562 2292l162 228 58-71-169-202z"/><path fill="#2b2b2b" d="M61 1832l-12 19 115-258-11-31z"/><path fill="#303030" d="M-400 1688l32 1 103-157h-6z"/><path fill="silver" d="M1878 2721l49 46 32-111-31-27z"/><path fill="#f6f6f6" d="M1336 1509l127 157 44-50-132-148z"/><path fill="#f4f4f4" d="M1294 1544l124 170 45-48-127-157z"/><path fill="#efefef" d="M2031 2385l35 56 74-57-46-62z"/><path fill="#c8c8c8" d="M1661 1866l206 203 34-48-198-205z"/><path fill="#e9e9e9" d="M2066 2441l25 23 79-49-30-31z"/><path fill="#414141" d="M2023 2988l-45-45 46 128 48 67zM2201 2436l34 22 90 1-42-25z"/><path fill="#868686" d="M1930 2891l48 52-12-142-39-34z"/><path fill="#8e8e8e" d="M153 1562l11 31 81-251-28-35z"/><path fill="#fafafa" d="M1875 2566l53 63 67-96-43-57z"/><path fill="#e4e4e4" d="M1964 2283l67 102 63-63-67-95z"/><path fill="#ededed" d="M1711 2183l-179-221-78 52 159 233z"/><path fill="#f3f3f3" d="M1377 1758l155 204 68-47-182-201z"/><path fill="#dcdcdc" d="M1928 2629l31 27 60-101-24-22z"/><path fill="#eaeaea" d="M1463 1666l198 200 42-50-196-200z"/><path fill="#0d0d0d" d="M2141 3211l-69-73 62 78 72 85z"/><path fill="#fcfcfc" d="M1952 2476l43 57 71-92-35-56z"/><path fill="#efefef" d="M1995 2533l24 22 72-91-25-23z"/><path fill="#bfbfbf" d="M92 1206l-52-16-75 202 74 39z"/><path fill="#949494" d="M2091 2464l28 18 82-46-31-21z"/><path fill="#f6f6f6" d="M1952 2476l-76-107-94 80 93 117z"/><path fill="#a0a0a0" d="M-87 1368l-35-15-119 196 54 32z"/><path fill="#fefefe" d="M1418 1714l182 201 61-49-198-200z"/><path fill="#eaeaea" d="M1800 2121l164 162 63-56-160-158z"/><path fill="#f7f7f7" d="M1613 2247l169 202 94-80-165-186z"/><path fill="#fafafa" d="M2031 2385l-67-102-88 86 76 107z"/><path fill="#9b9b9b" d="M1927 2767l39 34 23-125-30-20z"/><path fill="#f9f9f9" d="M1600 1915l200 206 67-52-206-203z"/><path fill="#929292" d="M2019 2555l25 11 75-84-28-18z"/><path fill="#fcfcfc" d="M1800 2121l-200-206-68 47 179 221z"/><path fill="#8b8b8b" d="M1959 2656l30 20 55-110-25-11z"/><path fill="#c6c6c6" d="M134 1526l19 36 64-255-37-34z"/><path fill="#fff" d="M1711 2183l165 186 88-86-164-162z"/><path fill="#545454" d="M64 1806l-3 26 92-270-19-36z"/><path fill="#080808" d="M-573 1937l38-48 53-87-21 31z"/><path fill="#787878" d="M-32 2066l-17-61-65 136 2 75z"/><path fill="#7f7f7f" d="M1978 2943l45 45-14-154-43-33z"/><path fill="#535353" d="M-112 2216l-2-75-35 83-7 92z"/><path fill="#676767" d="M2119 2482l36 17 80-41-34-22z"/><path fill="#f0f0f0" d="M137 1235l-45-29-53 225 56 47z"/><path fill="#323232" d="M2235 2458l51 28 103 8-64-35z"/><path fill="#e9e9e9" d="M180 1273l-43-38-42 243 39 48z"/><path fill="#5d5d5d" d="M-482 1802l50-8 64-105-32-1z"/><path fill="#7b7b7b" d="M-241 1549l-24-17-103 157 37 32z"/><path fill="#5a5a5a" d="M2091 3038l-68-50 49 150 69 73z"/><path fill="#969696" d="M64 1806l-30-52-83 251 17 61z"/><path fill="#898989" d="M1966 2801l43 33 15-142-35-16z"/><path fill="#d8d8d8" d="M-187 1581l77 51 75-240-52-24z"/><path fill="#6b6b6b" d="M2044 2566l35 9 76-76-36-17z"/><path fill="#737373" d="M1989 2676l35 16 55-117-35-9z"/><path fill="#343434" d="M-156 2316l7-92-24 58-15 108z"/><path fill="#121212" d="M-616 2000l46-53 35-58-38 48z"/><path fill="#c6c6c6" d="M134 1526l-39-48-61 276 30 52z"/><path fill="#303030" d="M2253 3301l-112-90 65 90 110 108z"/><path fill="#f2f2f2" d="M-110 1632l90 63 59-264-74-39z"/><path fill="#7c7c7c" d="M2023 2988l68 50-27-179-55-25z"/><path fill="#515151" d="M2155 2499l48 20 83-33-51-28z"/><path fill="#f5f5f5" d="M95 1478l-56-47-59 264 54 59z"/><path fill="#737373" d="M-535 1889l62-17 41-78-50 8z"/><path fill="#c3c3c3" d="M-49 2005l-46-76-60 127 41 85z"/><path fill="#b1b1b1" d="M-114 2141l-41-85-33 73 39 95z"/><path fill="#d2d2d2" d="M-187 1581l-54-32-90 172 67 48z"/><path fill="#d6d6d6" d="M34 1754l-54-59-75 234 46 76z"/><path fill="#151515" d="M-656 2062l55-64 31-51-46 53z"/><path fill="#aaa" d="M-331 1721l-37-32-64 105 60 26z"/><path fill="#2c2c2c" d="M-188 2390l15-108-18 43-21 122z"/><path fill="#797979" d="M2009 2834l55 25 6-152-46-15z"/><path fill="#252525" d="M2286 2486l67 34 121 11-85-37z"/><path fill="#5e5e5e" d="M2079 2575l46 17 78-73-48-20z"/><path fill="#787878" d="M-149 2224l-39-95-13 46 28 107z"/><path fill="#6b6b6b" d="M2024 2692l46 15 55-115-46-17z"/><path fill="#030303" d="M2316 3409l55 56 150 163-55-65z"/><path fill="#f4f4f4" d="M-110 1632l-77-51-77 188 86 80z"/><path fill="#f9f9f9" d="M-20 1695l-90-63-68 217 83 80z"/><path fill="#777" d="M2208 3128l-117-90 50 173 112 90z"/><path fill="#747474" d="M-570 1947l67-19 30-56-62 17z"/><path fill="#f0f0f0" d="M-224 1968l69 88 60-127-83-80z"/><path fill="#c1c1c1" d="M-372 1820l-60-26-41 78 75 19z"/><path fill="#e4e4e4" d="M-155 2056l-69-88-26 68 62 93z"/><path fill="#0f0f0f" d="M-700 2124l63-73 36-53-55 64z"/><path fill="#ededed" d="M-264 1769l-67-48-41 99 70 60z"/><path fill="#545454" d="M-173 2282l-28-107-10 36 20 114z"/><path fill="#a1a1a1" d="M-188 2129l-62-93-9 41 58 98z"/><path fill="#262626" d="M-212 2447l21-122-20 41-19 133z"/><path fill="#fcfcfc" d="M-302 1880l78 88 46-119-86-80z"/><path fill="#686868" d="M-601 1998l77-28 21-42-67 19z"/><path fill="#919191" d="M2091 3038l117 90-30-192-114-77z"/><path fill="#484848" d="M2203 2519l58 31 92-30-67-34z"/><path fill="#f3f3f3" d="M-224 1968l-78-88-18 66 70 90z"/><path fill="#f0f0f0" d="M-302 1880l-70-60-26 71 78 55z"/><path fill="#bebebe" d="M-398 1891l-75-19-30 56 89 11z"/><path fill="#373737" d="M2253 3301l63 108 150 154-60-114z"/><path fill="#b0b0b0" d="M-250 2036l-70-90-9 43 70 88z"/><path fill="#5b5b5b" d="M-201 2175l-58-98-6 29 54 105z"/><path fill="#989898" d="M2064 2859l114 77-8-179-100-50z"/><path fill="#cfcfcf" d="M-320 1946l-78-55-16 48 85 50z"/><path fill="#696969" d="M2125 2592l75 36 61-78-58-31z"/><path fill="#3e3e3e" d="M-191 2325l-20-114-9 31 9 124z"/><path fill="#8d8d8d" d="M2070 2707l100 50 30-129-75-36z"/><path fill="#3c3c3c" d="M2353 2520l123 77 125 17-127-83z"/><path fill="#060606" d="M-752 2196l67-83 48-62-63 73z"/><path fill="#9b9b9b" d="M-414 1939l-89-11-21 42 98 9z"/><path fill="#565656" d="M-637 2051l90-39 23-42-77 28z"/><path fill="#717171" d="M-259 2077l-70-88-10 36 74 81z"/><path fill="#252525" d="M-230 2499l19-133-22 45-26 151z"/><path fill="#9b9b9b" d="M-329 1989l-85-50-12 40 87 46z"/><path fill="#767676" d="M2208 3128l45 173 153 148-39-176z"/><path fill="#424242" d="M-211 2211l-54-105-8 28 53 108z"/><path fill="#828282" d="M-426 1979l-98-9-23 42 110 7z"/><path fill="#131313" d="M-314 2665l-50 140 50-101 55-142z"/><path fill="#2e2e2e" d="M-211 2366l-9-124-15 35 2 134z"/><path fill="#595959" d="M-265 2106l-74-81-10 37 76 72z"/><path fill="#6f6f6f" d="M2261 2550l112 81 103-34-123-77z"/><path fill="#464646" d="M-685 2113l104-47 34-54-90 39z"/><path fill="#7b7b7b" d="M-339 2025l-87-46-11 40 88 43z"/><path fill="#8b8b8b" d="M2208 3128l159 145-31-204-158-133z"/><path fill="#363636" d="M2406 3449l60 114 200 244-58-125z"/><path fill="#010101" d="M-827 2280l82-90 60-77-67 83z"/><path fill="#3c3c3c" d="M-220 2242l-53-108-11 40 49 103z"/><path fill="#959595" d="M2200 2628l118 88 55-85-112-81z"/><path fill="#949494" d="M2178 2936l158 133-27-201-139-111z"/><path fill="#323232" d="M-259 2562l26-151-51 93-30 161z"/><path fill="#9c9c9c" d="M2170 2757l139 111 9-152-118-88z"/><path fill="#3f3f3f" d="M2476 2597l192 131 117 15-184-129z"/><path fill="#707070" d="M-437 2019l-110-7-34 54 127 2z"/><path fill="#515151" d="M-273 2134l-76-72-13 43 78 69z"/><path fill="#6e6e6e" d="M2367 3273l39 176 202 233-48-185z"/><path fill="#696969" d="M-349 2062l-88-43-17 49 92 37z"/><path fill="#3e3e3e" d="M-745 2190l119-61 45-63-104 47z"/><path fill="#424242" d="M-233 2411l-2-134-43 73-6 154z"/><path fill="#0f0f0f" d="M-314 2665l-72 160-46 140 68-160z"/><path fill="#101010" d="M-928 2412l101-111 82-111-82 90z"/><path fill="#373737" d="M2608 3682l58 125 238 319-76-158z"/><path fill="#7b7b7b" d="M2373 2631l196 138 99-41-192-131z"/><path fill="gray" d="M2367 3273l193 224-32-226-192-202z"/><path fill="#525252" d="M-235 2277l-49-103-25 61 31 115z"/><path fill="#666" d="M-454 2068l-127-2-45 63 148 1z"/><path fill="#595959" d="M-284 2174l-78-69-13 58 66 72z"/><path fill="#282828" d="M-314 2665l30-161-68 154-34 167z"/><path fill="#686868" d="M-362 2105l-92-37-24 62 103 33z"/><path fill="#adadad" d="M2569 2769l-196-138-55 85 202 159z"/><path fill="#3b3b3b" d="M2668 2728l238 159 127 9-248-153z"/><path fill="#8f8f8f" d="M2336 3069l192 202-23-216-196-187z"/><path fill="#5d5d5d" d="M2560 3497l48 185 220 286-66-197z"/><path fill="#aeaeae" d="M2520 2875l-202-159-9 152 196 187z"/><path fill="#4a4a4a" d="M-827 2301l134-68 67-104-119 61z"/><path fill="#3e3e3e" d="M2828 3968l76 158 253 312-102-186z"/><path fill="#363636" d="M-284 2504l6-154-53 134-21 174z"/><path fill="#030303" d="M-386 2825l-82 234-53 145 89-239z"/><path fill="#0c0c0c" d="M-1077 2584l124-125 126-158-101 111z"/><path fill="#7c7c7c" d="M2560 3497l202 274-28-258-206-242z"/><path fill="#7b7b7b" d="M-478 2130l-148-1-67 104 157-3z"/><path fill="#7d7d7d" d="M2569 2769l239 165 98-47-238-159z"/><path fill="#515151" d="M-278 2350l-31-115-42 112 20 137z"/><path fill="#5c5c5c" d="M2762 3771l66 197 227 284-95-246z"/><path fill="#5b5b5b" d="M3055 4252l102 186 304 336-123-248z"/><path fill="#787878" d="M-309 2235l-66-72-42 104 66 80z"/><path fill="#8a8a8a" d="M-375 2163l-103-33-58 100 119 37z"/><path fill="#2d2d2d" d="M2906 2887l208 104 169 40-250-135z"/><path fill="#171717" d="M-386 2825l34-167-75 222-41 179z"/><path fill="#989898" d="M2528 3271l206 242-22-255-207-203z"/><path fill="#b9b9b9" d="M2520 2875l224 183 64-124-239-165z"/><path fill="#525252" d="M-953 2459l160-67 100-159-134 68z"/><path fill="#2d2d2d" d="M3461 4774l153 173 294 336-189-288z"/><path fill="#bcbcbc" d="M2505 3055l207 203 32-200-224-183z"/><path fill="#8a8a8a" d="M2762 3771l198 235-49-310-177-183z"/><path fill="#737373" d="M2960 4006l95 246 283 274-141-312z"/><path fill="#676767" d="M3338 4526l123 248 258 221-202-376z"/><path fill="#828282" d="M2808 2934l190 118 116-61-208-104z"/><path fill="#2a2a2a" d="M-352 2658l21-174-76 215-20 181z"/><path fill="#141414" d="M-1268 2799l154-141 161-199-124 125z"/><path fill="#232323" d="M3114 2991l173 88 170 26-174-74z"/><path fill="#878787" d="M-536 2230l-157 3-100 159 161 2z"/><path fill="#a4a4a4" d="M2734 3513l177 183-37-293-162-145z"/><path fill="#636363" d="M-438 2539l31 160 76-215-20-137z"/><path fill="#c1c1c1" d="M2744 3058l166 125 88-131-190-118z"/><path fill="#999" d="M2960 4006l237 208-102-381-184-137z"/><path fill="#0e0e0e" d="M-468 3059l41-179-78 258-41 197z"/><path fill="#9c9c9c" d="M-417 2267l-119-37-96 164 125 45z"/><path fill="#c4c4c4" d="M2712 3258l162 145 36-220-166-125z"/><path fill="#969696" d="M3517 4619l-96-315-224-90 141 312z"/><path fill="#939393" d="M-507 2439l69 100 87-192-66-80z"/><path fill="#777" d="M2998 3052l153 80 136-53-173-88z"/><path fill="#151515" d="M3287 3079l182 57 155 15-167-46z"/><path fill="#535353" d="M-1114 2658l177-73 144-193-160 67z"/><path fill="#a8a8a8" d="M2911 3696l184 137-75-351-146-79z"/><path fill="#a0a0a0" d="M2910 3183l140 73 101-124-153-80z"/><path fill="#c5c5c5" d="M3421 4304l-105-437-221-34 102 381z"/><path fill="#b2b2b2" d="M2874 3403l146 79 30-226-140-73z"/><path fill="#303030" d="M-427 2880l20-181-83 229-15 210z"/><path fill="#1a1a1a" d="M-546 3335l41-197-72 198-47 239z"/><path fill="#1c1c1c" d="M-1450 3015l173-158 163-199-154 141z"/><path fill="#6b6b6b" d="M3151 3132l163 75 155-71-182-57z"/><path fill="#878787" d="M-632 2394l-161-2-144 193 183 9z"/><path fill="#d3d3d3" d="M3095 3833l221 34-122-336-174-49z"/><path fill="#727272" d="M-407 2699l-31-160-98 219 46 170z"/><path fill="#9c9c9c" d="M3314 3207l-163-75-101 124 151 59z"/><path fill="#c9c9c9" d="M3201 3315l-151-59-30 226 174 49z"/><path fill="#a4a4a4" d="M-507 2439l-125-45-122 200 131 51z"/><path fill="#9f9f9f" d="M-438 2539l-69-100-116 206 87 113z"/><path fill="#525252" d="M-1277 2857l198-89 142-183-177 73z"/><path fill="#3a3a3a" d="M-505 3138l15-210-65 169-22 239z"/><path fill="#1d1d1d" d="M-624 3575l47-239-67 176-77 313z"/><path fill="#060606" d="M-905 4298l63-215 121-258-101 183z"/><path fill="#070707" d="M-1277 2857l-173 158-172 161 218-193z"/><path fill="#7d7d7d" d="M-754 2594l-183-9-142 183 215-28z"/><path fill="#7a7a7a" d="M-490 2928l-46-170-75 153 56 186z"/><path fill="#353535" d="M-577 3336l22-239-55 117-34 298z"/><path fill="#aaa" d="M-536 2758l-87-113-96 153 108 113z"/><path fill="#a6a6a6" d="M-623 2645l-131-51-110 146 145 58z"/><path fill="#363636" d="M-822 4008l101-183 77-313-88 127z"/><path fill="#424242" d="M-1079 2768l-198 89-127 126 235-100z"/><path fill="#626262" d="M-555 3097l-56-186-52 109 53 194z"/><path fill="#6f6f6f" d="M-864 2740l-215 28-90 115 221-17z"/><path fill="#5b5b5b" d="M-644 3512l34-298-81 94-41 331z"/><path fill="#868686" d="M-611 2911l-108-113-65 115 121 107z"/><path fill="#929292" d="M-719 2798l-145-58-84 126 164 47z"/><path fill="#343434" d="M-1169 2883l-235 100-107 93 254-102z"/><path fill="#717171" d="M-726 3117l35 191 81-94-53-194z"/><path fill="#5e5e5e" d="M-948 2866l-221 17-88 91 215-7z"/><path fill="#868686" d="M-851 3029l125 88 63-97-121-107z"/><path fill="#888" d="M-784 2913l-164-47-94 101 191 62z"/></svg>