<?xml version="1.0" encoding="UTF-8" standalone="no"?>
<svg
   xmlns:dc="http://purl.org/dc/elements/1.1/"
   xmlns:cc="http://creativecommons.org/ns#"
   xmlns:rdf="http://www.w3.org/1999/02/22-rdf-syntax-ns#"
   xmlns:svg="http://www.w3.org/2000/svg"
   xmlns="http://www.w3.org/2000/svg"
   xmlns:sodipodi="http://sodipodi.sourceforge.net/DTD/sodipodi-0.dtd"
   xmlns:inkscape="http://www.inkscape.org/namespaces/inkscape"
   inkscape:version="1.0 (6e3e5246a0, 2020-05-07)"
   sodipodi:docname="lockpush.svg"
   id="svg1125"
   height="1229.58"
   width="783.69684"
   version="1.1">
  <metadata
     id="metadata1131">
    <rdf:RDF>
      <cc:Work
         rdf:about="">
        <dc:format>image/svg+xml</dc:format>
        <dc:type
           rdf:resource="http://purl.org/dc/dcmitype/StillImage" />
        <dc:title></dc:title>
      </cc:Work>
    </rdf:RDF>
  </metadata>
  <defs
     id="defs1129" />
  <sodipodi:namedview
     inkscape:current-layer="strokes"
     inkscape:window-maximized="1"
     inkscape:window-y="135"
     inkscape:window-x="0"
     inkscape:cy="597.41611"
     inkscape:cx="1580.5396"
     inkscape:zoom="0.27318531"
     fit-margin-bottom="0"
     fit-margin-right="0"
     fit-margin-left="0"
     fit-margin-top="0"
     showgrid="false"
     id="namedview1127"
     inkscape:window-height="972"
     inkscape:window-width="1920"
     inkscape:pageshadow="2"
     inkscape:pageopacity="0"
     guidetolerance="10"
     gridtolerance="10"
     objecttolerance="10"
     borderopacity="1"
     bordercolor="#666666"
     pagecolor="#ffffff" />
  <g
     transform="translate(-87.668071,-767.41402)"
     inkscape:label="View Layer_LineSet"
     id="View Layer_LineSet">
    <g
       inkscape:label="strokes"
       id="strokes"
       inkscape:groupmode="layer">
      <path
         id="path895"
         d="m 429.449,526.768 1.854,9.827 1.853,9.826 0.755,4 v 0"
         stroke-linejoin="round"
         stroke="#000000"
         stroke-opacity="1"
         stroke-linecap="round"
         stroke-width="3"
         fill="none" />
      <path
         id="path897"
         d="m 440.364,584.632 0.867,-9.962 0.866,-9.963 0.535,-6.148"
         stroke-linejoin="round"
         stroke="#000000"
         stroke-opacity="1"
         stroke-linecap="round"
         stroke-width="3"
         fill="none" />
      <path
         id="path899"
         d="m 447.528,502.272 -5.939,8.046 -5.938,8.046 -5.938,8.046 -0.264,0.358"
         stroke-linejoin="round"
         stroke="#000000"
         stroke-opacity="1"
         stroke-linecap="round"
         stroke-width="3"
         fill="none" />
      <path
         id="path901"
         d="m 416.662,501.175 -3.677,9.299 -3.677,9.3 -3.493,8.834 9.415,3.368 9.158,3.277 5.061,-8.485 -9.97,0.776 -9.97,0.776 -3.694,0.288"
         stroke-linejoin="round"
         stroke="#000000"
         stroke-opacity="1"
         stroke-linecap="round"
         stroke-width="3"
         fill="none" />
      <path
         id="path903"
         d="m 424.388,535.253 0.684,9.976 0.685,9.977 0.58,8.449 v 0"
         stroke-linejoin="round"
         stroke="#000000"
         stroke-opacity="1"
         stroke-linecap="round"
         stroke-width="3"
         fill="none" />
      <path
         id="path905"
         d="m 517.319,1496.884 3.79,9.254 3.791,9.254 3.79,9.254 3.79,9.254 3.79,9.254 3.79,9.254 3.79,9.253 3.791,9.254 3.79,9.254 3.79,9.254 0.723,1.765 4.583,8.888 4.584,8.888 4.583,8.888 4.584,8.887 4.583,8.888 4.584,8.888 4.583,8.888 4.583,8.887 4.584,8.888 4.583,8.888 4.584,8.888 1.68,3.259 4.474,8.943 4.474,8.944 4.474,8.943 4.473,8.944 4.474,8.943 4.474,8.944 4.473,8.943 4.474,8.944 4.474,8.943 4.473,8.944 4.474,8.943 4.474,8.944 4.473,8.943 4.474,8.944 4.474,8.943 4.474,8.944 4.473,8.943 4.474,8.944 4.474,8.943 4.915,9.827 -4.348,9.005 -4.348,9.005 -4.349,9.005 -4.348,9.005 -4.348,9.006 -4.348,9.005 -1.368,2.834 -9.881,1.539 -9.881,1.539 -9.881,1.539 -9.881,1.539 -9.881,1.539 -9.881,1.539 -2.304,0.359 -0.945,9.955 -0.945,9.955 -0.945,9.955 -0.944,9.956 -0.945,9.955 -0.355,3.734 9.999,0.128 10,0.128 9.999,0.128 2.159,0.028 9.997,0.238 9.998,0.238 9.997,0.238 9.997,0.238 6.977,0.166 8.844,-4.667 8.844,-4.667 8.844,-4.667 8.844,-4.667 8.844,-4.667 8.844,-4.667 8.845,-4.667 8.844,-4.667 8.844,-4.667 8.844,-4.667 8.844,-4.667 8.844,-4.667 8.845,-4.667 8.844,-4.667 8.844,-4.667 1.664,-0.878 8.213,-5.704 8.214,-5.704 8.213,-5.704 8.214,-5.704 8.213,-5.705 8.214,-5.704 3.303,-2.294 -7.051,-7.091 -7.051,-7.091 -7.051,-7.091 -7.051,-7.092 -5.414,-5.445 -3.281,-9.446 -3.282,-9.446 -3.282,-9.446 -3.282,-9.446 -3.282,-9.446 -3.281,-9.446 -3.282,-9.447 -3.282,-9.446 -3.282,-9.446 -3.281,-9.446 -3.282,-9.446 -3.282,-9.446 -3.282,-9.447 -3.282,-9.446 -3.281,-9.446 -3.282,-9.446 -3.282,-9.446 -3.282,-9.446 -3.282,-9.447 -3.281,-9.446 -3.282,-9.446 -3.282,-9.446 -3.282,-9.446 -2.525,-7.27 -4.6,-8.879 -4.599,-8.88 -4.6,-8.879 -4.599,-8.88 -4.599,-8.879 -4.6,-8.88 -4.599,-8.879 -4.599,-8.88 -4.6,-8.879 -4.599,-8.88 -4.6,-8.879 -4.599,-8.88 -4.599,-8.879 -4.6,-8.88 -3.516,-6.788 -1.681,-9.858 -1.682,-9.857 -1.682,-9.858 -1.682,-9.857 -1.682,-9.858 -1.681,-9.857 -1.682,-9.858 -1.682,-9.857 -1.682,-9.858 -1.682,-9.858 -1.681,-9.857 -1.682,-9.858 -1.682,-9.857 -1.682,-9.858 -1.681,-9.857 -1.682,-9.858 -1.682,-9.858 -1.682,-9.857 -0.873,-5.119 -3.109,-9.504 -3.109,-9.504 -3.109,-9.505 -3.109,-9.504 -3.109,-9.505 -3.11,-9.504 -3.109,-9.504 -3.109,-9.505 -2.773,-8.477"
         stroke-linejoin="round"
         stroke="#000000"
         stroke-opacity="1"
         stroke-linecap="round"
         stroke-width="3"
         fill="none" />
      <path
         id="path907"
         d="m 427.434,579.642 0.684,9.977 0.31,4.511 9.899,-1.418 9.899,-1.418 9.899,-1.417 9.899,-1.418 9.899,-1.417 9.899,-1.418 4.285,-0.613 1.197,9.928 1.197,9.928 1.198,9.928 1.217,10.097 -5.292,8.485 -5.292,8.485 -5.292,8.485 -5.292,8.485 -5.292,8.486 -5.292,8.484 -5.291,8.485 -5.292,8.485 -5.769,9.25"
         stroke-linejoin="round"
         stroke="#000000"
         stroke-opacity="1"
         stroke-linecap="round"
         stroke-width="3"
         fill="none" />
      <path
         id="path909"
         d="m 388.322,1180.833 -2.153,9.765 -2.017,9.148 -2.153,9.765 -2.154,9.765 -2.153,9.766 -2.153,9.765 -2.153,9.766 -2.154,9.765 -2.153,9.766 -2.153,9.765 -2.154,9.765 -2.153,9.766 -2.153,9.765 -1.408,6.386 -0.621,9.981 -0.62,9.981 -0.621,9.98 -0.62,9.981 -0.621,9.981 -0.621,9.981 -0.62,9.98 -0.621,9.981 -0.62,9.981 -0.621,9.98 -0.62,9.981 -0.621,9.981 -0.621,9.981 -0.62,9.98 -0.144,2.315 -1.309,9.914 -1.31,9.914 -1.309,9.914 -1.309,9.914 -1.309,9.914 -1.31,9.914 -1.309,9.914 -1.309,9.914 -1.309,9.914 -0.87,6.583 -2.623,9.65 -2.623,9.65 -2.623,9.65 -2.623,9.649 -2.623,9.65 -2.623,9.65 -2.623,9.65 -2.622,9.65 -2.623,9.65 -2.623,9.65 -2.623,9.649 -0.78,2.87 -2.746,9.616 -2.746,9.615 -2.745,9.616 -2.746,9.616 -2.746,9.616 -2.745,9.615 -2.746,9.616 -2.745,9.616 -2.746,9.615 -2.746,9.616 -2.745,9.616 -2.746,9.615 -2.746,9.616 -2.745,9.616 -2.746,9.615 -2.745,9.616 -2.746,9.616 -2.746,9.616 -2.745,9.615 -2.441,8.548 -9.987,0.512 -9.987,0.512 -9.987,0.512 -9.987,0.512 -9.986,0.513 -9.987,0.512 -9.987,0.512 -1.745,0.089 -8.701,-4.928 -8.701,-4.929 -8.701,-4.929 -8.701,-4.928 -8.701,-4.929 -8.701,-4.929 -3.598,-2.038 -6.829,7.305 -6.829,7.305 -6.83,7.304 -6.829,7.305 -6.83,7.305 -2.561,2.739 7.838,6.21 7.839,6.21 7.838,6.209 1.693,1.341 7.826,6.225 7.827,6.225 7.826,6.225 7.827,6.225 5.083,4.042 9.142,4.053 9.142,4.052 9.142,4.052 9.143,4.052 9.142,4.052 9.142,4.052 9.142,4.052 9.142,4.053 9.143,4.052 9.142,4.052 9.142,4.052 9.142,4.052 9.142,4.052 9.143,4.053 9.142,4.052 1.88,0.833 9.438,3.303 9.439,3.304 9.439,3.303 9.438,3.304 9.439,3.303 9.438,3.304 6.142,2.149 2.222,-9.75 2.222,-9.75 2.222,-9.75 2.222,-9.75 2.222,-9.75 0.944,-4.142 4.016,-9.158 4.016,-9.158 4.015,-9.158 4.016,-9.159 4.016,-9.158 4.016,-9.158 4.016,-9.158 4.016,-9.158 4.016,-9.159 4.016,-9.158 4.016,-9.158 4.016,-9.158 4.016,-9.158 4.015,-9.158 4.016,-9.159 4.016,-9.158 4.016,-9.158 4.016,-9.158 4.016,-9.158 4.016,-9.159 4.016,-9.158 4.016,-9.158 4.016,-9.158 4.016,-9.158 4.562,-10.405 2.173,-9.761 2.173,-9.761 2.173,-9.761 2.172,-9.761 2.173,-9.762 2.173,-9.761 2.173,-9.761 2.173,-9.761 2.172,-9.761 2.173,-9.761 2.173,-9.761 2.173,-9.761 2.173,-9.761 2.172,-9.761 2.173,-9.762 2.173,-9.761 2.173,-9.761 1.138,-5.112 2.943,-9.557 2.943,-9.557 2.944,-9.557 2.943,-9.557 1.921,-6.238 0.861,-2.793 0.022,-0.075 2.944,-9.557 2.943,-9.557 2.944,-9.557 2.943,-9.557 2.943,-9.557 2.944,-9.557 2.943,-9.557 2.943,-9.557 2.944,-9.557 2.943,-9.557 2.943,-9.557 2.944,-9.557 0.922,-2.993 2.943,-9.557 1.592,-5.168 3.009,-9.536 0.77,-2.441 3.01,-9.537 0.588,-1.863 1.663,-5.272 3.009,-9.536 3.01,-9.537 3.009,-9.536 3.009,-9.536 3.009,-9.537 3.01,-9.536 3.205,-10.157 9.057,-4.239 9.057,-4.239 9.057,-4.239 3.765,-1.763 4.651,-8.852 4.65,-8.853 2.024,-3.852 1.882,-9.822 1.881,-9.821 1.882,-9.821 1.882,-9.822 1.881,-9.821 1.882,-9.822 1.662,-8.674 -3.747,-9.271 -3.747,-9.272 -3.747,-9.271 -3.747,-9.272 -3.747,-9.271 -2.813,-6.961"
         stroke-linejoin="round"
         stroke="#000000"
         stroke-opacity="1"
         stroke-linecap="round"
         stroke-width="3"
         fill="none" />
      <path
         id="path911"
         d="m 150.765,1911.908 6.605,-7.508 6.604,-7.508 6.605,-7.509 6.605,-7.508 6.605,-7.508 4.31,-4.9"
         stroke-linejoin="round"
         stroke="#000000"
         stroke-opacity="1"
         stroke-linecap="round"
         stroke-width="3"
         fill="none" />
      <path
         id="path913"
         d="m 188.099,1869.467 -9.111,-4.122 -9.111,-4.123 -9.11,-4.123 -9.111,-4.123 -1.418,-0.642"
         stroke-linejoin="round"
         stroke="#000000"
         stroke-opacity="1"
         stroke-linecap="round"
         stroke-width="3"
         fill="none" />
      <path
         id="path915"
         d="m 125.876,1823.733 6.485,7.613 6.484,7.613 6.484,7.612 4.909,5.763 -7.604,6.495 -7.604,6.495 -7.603,6.495 -7.604,6.495 -5.447,4.652"
         stroke-linejoin="round"
         stroke="#000000"
         stroke-opacity="1"
         stroke-linecap="round"
         stroke-width="3"
         fill="none" />
      <path
         id="path917"
         d="m 447.528,502.272 h 8.184 v 0"
         stroke-linejoin="round"
         stroke="#000000"
         stroke-opacity="1"
         stroke-linecap="round"
         stroke-width="3"
         fill="none" />
      <path
         id="path919"
         d="m 511.627,502.272 -6.669,-7.451 -0.403,-0.45 v 0"
         stroke-linejoin="round"
         stroke="#000000"
         stroke-opacity="1"
         stroke-linecap="round"
         stroke-width="3"
         fill="none" />
      <path
         id="path921"
         d="m 511.627,502.272 0.363,-6.868 v 0"
         stroke-linejoin="round"
         stroke="#000000"
         stroke-opacity="1"
         stroke-linecap="round"
         stroke-width="3"
         fill="none" />
      <path
         id="path923"
         d="m 622.946,1108.632 -2.446,-9.696 -2.446,-9.696 -2.446,-9.697 -2.446,-9.696 -2.446,-9.696 -2.446,-9.696 -2.446,-9.697 -2.446,-9.696 -2.446,-9.696 -2.341,-9.279 1.997,-9.799 1.997,-9.798 1.997,-9.799 1.997,-9.799 1.997,-9.798 1.997,-9.799 1.997,-9.798 1.997,-9.799 1.998,-9.798 1.997,-9.799 1.997,-9.799 1.997,-9.798 1.997,-9.799 1.997,-9.798 1.997,-9.799 1.997,-9.798 1.997,-9.799 1.997,-9.798 1.997,-9.799 1.997,-9.799 1.997,-9.798 1.997,-9.799 1.997,-9.798 1.567,-7.687 -1.922,-9.813 -1.922,-9.814 -1.923,-9.813 -1.922,-9.814 -1.922,-9.813 -1.922,-9.814 -1.922,-9.813 -1.923,-9.814 -1.922,-9.813 -1.922,-9.814 -1.922,-9.813 -1.922,-9.814 -1.922,-9.813 -1.923,-9.814 -1.922,-9.813 -1.922,-9.814 -1.922,-9.813 -1.922,-9.814 -0.68,-3.469 -2.454,-9.694 -2.454,-9.694 -2.455,-9.694 -2.454,-9.695 -2.454,-9.694 -2.281,-9.009 5.362,-8.441 5.362,-8.441 5.362,-8.44 5.01,-7.886 v 0"
         stroke-linejoin="round"
         stroke="#000000"
         stroke-opacity="1"
         stroke-linecap="round"
         stroke-width="3"
         fill="none" />
      <path
         id="path925"
         d="m 447.528,502.272 -6.479,-7.567"
         stroke-linejoin="round"
         stroke="#000000"
         stroke-opacity="1"
         stroke-linecap="round"
         stroke-width="3"
         fill="none" />
      <path
         id="path927"
         d="m 433.088,573.621 v 0 l -1.844,-9.829 -1.021,-5.443"
         stroke-linejoin="round"
         stroke="#000000"
         stroke-opacity="1"
         stroke-linecap="round"
         stroke-width="3"
         fill="none" />
      <path
         id="path929"
         d="m 455.712,502.272 -4.051,9.143 -4.052,9.142 -2.08,4.692 v 0 l -1.843,4.16 v 0 0 l -4.218,9.067 -4.218,9.066 -1.339,2.879 v 0 l -3.688,7.928 v 0 0 l -3.886,5.306 -2.787,3.804 2.787,-3.804"
         stroke-linejoin="round"
         stroke="#000000"
         stroke-opacity="1"
         stroke-linecap="round"
         stroke-width="3"
         fill="none" />
      <path
         id="path931"
         d="m 423.55,567.459 v 10 6.319"
         stroke-linejoin="round"
         stroke="#000000"
         stroke-opacity="1"
         stroke-linecap="round"
         stroke-width="3"
         fill="none" />
      <path
         id="path933"
         d="m 423.55,583.778 3.884,-4.136 5.654,-6.021 4.016,-6.272 v 0 l 4.833,-7.547 0.695,-1.243 v 0 l 4.881,-8.728 4.881,-8.728 4.881,-8.728 4.881,-8.728 4.881,-8.727 4.881,-8.728 2.192,-3.92"
         stroke-linejoin="round"
         stroke="#000000"
         stroke-opacity="1"
         stroke-linecap="round"
         stroke-width="3"
         fill="none" />
      <path
         id="path935"
         d="m 585.296,537.55 9.424,3.345 1.539,0.546"
         stroke-linejoin="round"
         stroke="#000000"
         stroke-opacity="1"
         stroke-linecap="round"
         stroke-width="3"
         fill="none" />
      <path
         id="path937"
         d="m 171.156,703.983 5.807,3.518 3.19,1.934 8.552,5.183 8.552,5.183 0.539,0.326 2.553,1.547 0.216,0.131 0.011,0.007 8.552,5.182 8.552,5.183 8.552,5.183 8.552,5.183 8.552,5.183 8.552,5.183 8.552,5.182 8.552,5.183 5.179,3.139 8.971,4.417 8.972,4.417 8.971,4.417 8.972,4.418 8.971,4.417 8.972,4.417 8.971,4.417 8.972,4.418 8.971,4.417 8.972,4.417 5.196,2.559"
         stroke-linejoin="round"
         stroke="#000000"
         stroke-opacity="1"
         stroke-linecap="round"
         stroke-width="3"
         fill="none" />
      <path
         id="path939"
         d="m 274.171,766.413 5.219,-8.53 5.219,-8.53 5.219,-8.53 5.219,-8.53 1.124,-1.837 0.318,-0.519"
         stroke-linejoin="round"
         stroke="#000000"
         stroke-opacity="1"
         stroke-linecap="round"
         stroke-width="3"
         fill="none" />
      <path
         id="path941"
         d="m 296.489,729.937 -1.065,-0.221 -9.793,-2.028 -9.792,-2.028 -9.792,-2.027 -9.792,-2.028 -9.793,-2.028 -9.792,-2.028 -9.792,-2.028 -9.792,-2.027 -9.842,-2.038 -0.493,-0.102 -0.269,-0.056 -9.792,-2.028 -8.075,-1.672 -5.361,-1.11 -8.156,-1.689 -3.942,-0.816"
         stroke-linejoin="round"
         stroke="#000000"
         stroke-opacity="1"
         stroke-linecap="round"
         stroke-width="3"
         fill="none" />
      <path
         id="path943"
         d="m 296.489,729.937 -2.325,-1.47 -8.453,-5.343 -8.453,-5.342 -8.453,-5.343 -8.453,-5.343 -8.453,-5.343 -8.453,-5.343 -8.454,-5.342 -8.453,-5.343 -1.909,-1.207 -1.568,-0.991 -0.122,-0.077 -8.453,-5.343 -1.942,-1.228 -0.212,-0.134 -0.342,-0.215 -8.453,-5.343 -8.453,-5.343 -8.453,-5.343 -2.405,-1.52 -1.128,-0.713"
         stroke-linejoin="round"
         stroke="#000000"
         stroke-opacity="1"
         stroke-linecap="round"
         stroke-width="3"
         fill="none" />
      <path
         id="path945"
         d="m 183.099,658.268 -0.927,3.548 -2.527,9.675 -2.528,9.675 -2.528,9.675 -2.505,9.59 -0.928,3.552"
         stroke-linejoin="round"
         stroke="#000000"
         stroke-opacity="1"
         stroke-linecap="round"
         stroke-width="3"
         fill="none" />
      <path
         id="path947"
         d="m 506.653,568.243 9.316,-3.636 9.315,-3.635 9.316,-3.636 9.316,-3.636 9.315,-3.636 9.316,-3.635 9.316,-3.636 9.315,-3.636 4.118,-1.607 3.523,9.359 3.522,9.359 3.523,9.359 3.522,9.36 3.523,9.359 3.522,9.359 3.523,9.359 0.517,1.375 0.009,0.023 0.101,0.267"
         stroke-linejoin="round"
         stroke="#000000"
         stroke-opacity="1"
         stroke-linecap="round"
         stroke-width="3"
         fill="none" />
      <path
         id="path949"
         d="m 511.627,502.272 -0.752,9.972 -0.751,9.972 -0.752,9.971 -0.752,9.972 -0.752,9.972 -0.752,9.971 -0.463,6.141"
         stroke-linejoin="round"
         stroke="#000000"
         stroke-opacity="1"
         stroke-linecap="round"
         stroke-width="3"
         fill="none" />
      <path
         id="path951"
         d="m 428.428,594.13 7.825,-6.227 4.111,-3.271 9.708,-2.4 9.708,-2.4 9.707,-2.4 9.708,-2.4 9.708,-2.401 9.708,-2.4 8.042,-1.988"
         stroke-linejoin="round"
         stroke="#000000"
         stroke-opacity="1"
         stroke-linecap="round"
         stroke-width="3"
         fill="none" />
      <path
         id="path953"
         d="m 492.107,585.011 6.553,-7.554 6.553,-7.554 1.44,-1.66 2.619,9.651 2.619,9.651 2.619,9.651 2.619,9.651 2.618,9.651 2.127,7.835"
         stroke-linejoin="round"
         stroke="#000000"
         stroke-opacity="1"
         stroke-linecap="round"
         stroke-width="3"
         fill="none" />
      <path
         id="path955"
         d="m 496.916,624.892 9.997,-0.224 9.998,-0.224 4.963,-0.111 9.764,-2.158 9.764,-2.158 9.765,-2.158 9.764,-2.158 9.765,-2.158 9.764,-2.157 9.764,-2.158 9.765,-2.158 9.069,-2.004 0.861,-0.191 0.662,-0.146 -2.032,9.792 -2.031,9.791 -2.032,9.792 -1.057,5.098"
         stroke-linejoin="round"
         stroke="#000000"
         stroke-opacity="1"
         stroke-linecap="round"
         stroke-width="3"
         fill="none" />
      <path
         id="path957"
         d="m 171.156,703.983 6.685,7.243 0.2,0.216 6.783,7.349 6.782,7.349 6.782,7.348 6.782,7.349 6.783,7.348 6.782,7.349 6.782,7.348 6.782,7.349 6.782,7.348 2.181,2.363 0.722,0.49 1.563,1.059 0.128,0.087 1.781,1.208 1.023,0.693 8.277,5.612 8.277,5.612 8.277,5.611 8.277,5.612 8.277,5.612 8.277,5.612 8.277,5.611 3.886,2.635 1.577,1.07 1.452,0.984 9.706,-2.405 9.707,-2.404 9.707,-2.405 9.706,-2.405 9.707,-2.404 3.206,-0.795 1.872,-0.463 4.138,-1.025 9.326,-3.608 9.327,-3.608 3.493,-1.351 9.327,-3.608 2.58,-0.998 v 0 l 9.327,-3.607 5.016,-1.941 0.093,-0.036 9.327,-3.607 9.326,-3.608 9.327,-3.608 9.326,-3.607 9.327,-3.608 9.327,-3.608 9.894,-3.827"
         stroke-linejoin="round"
         stroke="#000000"
         stroke-opacity="1"
         stroke-linecap="round"
         stroke-width="3"
         fill="none" />
      <path
         id="path959"
         d="m 241.262,779.942 0.279,-0.115 9.249,-3.802 9.249,-3.803 9.249,-3.802 4.883,-2.007"
         stroke-linejoin="round"
         stroke="#000000"
         stroke-opacity="1"
         stroke-linecap="round"
         stroke-width="3"
         fill="none" />
      <path
         id="path961"
         d="m 535.86,638.215 -5.445,5.417 -7.089,7.053 -7.089,7.053 -7.089,7.053 -7.09,7.053 -3.729,3.709 -0.603,0.601 -5.157,5.13 -1.026,0.487 -0.089,0.042 -0.755,0.357 -0.204,0.097 -5.5,2.607 -9.036,4.282 -9.037,4.283 -9.036,4.282 -9.074,4.301 -9.036,4.282 -9.037,4.283 -9.036,4.283 -9.037,4.282 -9.037,4.283 -9.036,4.282 -9.037,4.283 -9.036,4.283 -9.037,4.282 -9.036,4.283 -9.037,4.283 -9.036,4.282 -9.037,4.283 -9.036,4.283 -9.037,4.282 -6.262,2.968 -2.585,-9.66 -0.349,-1.304 -2.584,-9.66 -2.585,-9.66 -0.279,-1.041 -0.514,-1.923 -1.15,-4.299 -0.163,-0.609 -0.304,-1.136 -6.709,-5.815 -7.556,-6.55 -7.556,-6.55 -7.557,-6.55 -7.556,-6.55 -7.556,-6.55 -7.556,-6.55 -7.557,-6.55 -5.274,-4.572 -1.85,-1.604 -0.073,-0.064 -1.746,-1.513 -4.047,-3.508 -2.016,-1.747 -1.001,-0.868 -1.622,-1.406 -0.196,-0.17"
         stroke-linejoin="round"
         stroke="#000000"
         stroke-opacity="1"
         stroke-linecap="round"
         stroke-width="3"
         fill="none" />
      <path
         id="path963"
         d="m 219.061,662.82 -0.677,-0.085 -9.921,-1.256 -9.921,-1.256 -9.92,-1.256 -4.016,-0.508 -1.507,-0.191"
         stroke-linejoin="round"
         stroke="#000000"
         stroke-opacity="1"
         stroke-linecap="round"
         stroke-width="3"
         fill="none" />
      <path
         id="path965"
         d="m 314.653,834.87 9.354,-3.536 9.354,-3.536 9.354,-3.536 9.354,-3.535 9.354,-3.536 9.355,-3.536 9.354,-3.536 9.354,-3.535 1.758,-0.665"
         stroke-linejoin="round"
         stroke="#000000"
         stroke-opacity="1"
         stroke-linecap="round"
         stroke-width="3"
         fill="none" />
      <path
         id="path967"
         d="m 474.11,502.272 1.097,-1.963 3.907,-9.205 0.107,-0.253 v 0"
         stroke-linejoin="round"
         stroke="#000000"
         stroke-opacity="1"
         stroke-linecap="round"
         stroke-width="3"
         fill="none" />
      <path
         id="path969"
         d="m 456.231,501.101 9.992,-0.417 8.984,-0.375 v 0 0 l -7.347,6.783 -7.348,6.783 -7.348,6.784 -7.348,6.783 -2.13,1.967 -0.575,9.983 -0.574,9.984 -0.574,9.983 -0.026,0.443 v 0"
         stroke-linejoin="round"
         stroke="#000000"
         stroke-opacity="1"
         stroke-linecap="round"
         stroke-width="3"
         fill="none" />
      <path
         id="path971"
         d="m 611.836,785.138 -6.835,-7.3 -6.835,-7.3 -6.835,-7.299 -6.834,-7.3 -6.835,-7.3 -6.835,-7.3 -4.965,-5.302 -9.311,3.648 -9.31,3.648 -9.311,3.649 -9.311,3.648 -9.311,3.648 -9.31,3.649 -9.311,3.648 -9.311,3.648 -5.855,2.295 -2.04,0.799 -9.311,3.649 -9.311,3.648 -9.31,3.648 -9.311,3.649 -9.311,3.648 -9.311,3.648 -9.31,3.649 -9.311,3.648 -9.311,3.648 -8.457,3.314 -9.311,3.649 -9.311,3.648 -3.523,1.381 -8.164,-5.775 -8.164,-5.775 -8.164,-5.775 -8.164,-5.775 -8.164,-5.775 -8.163,-5.775 -6.843,-4.841 -6.254,-4.424 -0.88,-0.075 -9.963,-0.855 -9.964,-0.855 -9.963,-0.855 -2.061,-0.176 5.2,8.541 5.2,8.541 5.201,8.542 5.2,8.541 5.201,8.542 5.2,8.541 5.201,8.542 0.759,1.247"
         stroke-linejoin="round"
         stroke="#000000"
         stroke-opacity="1"
         stroke-linecap="round"
         stroke-width="3"
         fill="none" />
      <path
         id="path973"
         d="m 620.217,1251.11 2.628,-9.648 2.627,-9.649 0.292,-1.075 2.627,-9.648 2.627,-9.649 2.628,-9.649 2.627,-9.649 2.627,-9.648 2.627,-9.649 2.627,-9.649 0.34,-1.247 -6.8,7.333 -3.866,4.168"
         stroke-linejoin="round"
         stroke="#000000"
         stroke-opacity="1"
         stroke-linecap="round"
         stroke-width="3"
         fill="none" />
      <path
         id="path975"
         d="m 629.995,1160.817 0.071,0.233 2.903,9.569 0.859,2.832 -4.352,9.003 -4.353,9.003 -4.353,9.003 -4.353,9.003 -4.353,9.003 -4.352,9.003 -3.744,7.742 -4.352,9.003 -4.353,9.003 -4.353,9.003 -1.629,3.37"
         stroke-linejoin="round"
         stroke="#000000"
         stroke-opacity="1"
         stroke-linecap="round"
         stroke-width="3"
         fill="none" />
      <path
         id="path977"
         d="m 147.435,684.213 7.682,6.402 7.682,6.402 7.682,6.402 0.675,0.564 4.516,8.922 0.27,0.533 -7.894,-6.14 -7.893,-6.139 -7.893,-6.14 -3.31,-2.575 -6.011,-7.992 -6.01,-7.992 -1.71,-2.274 6.964,-7.176 6.964,-7.177 6.964,-7.176 6.964,-7.177 6.964,-7.176 6.964,-7.177 6.964,-7.176 6.964,-7.177 2.486,-2.562 8.943,4.476 5.762,2.883 1.701,2.105 0.295,0.366 1.509,1.866 6.285,7.778 6.286,7.777 1.838,2.274"
         stroke-linejoin="round"
         stroke="#000000"
         stroke-opacity="1"
         stroke-linecap="round"
         stroke-width="3"
         fill="none" />
      <path
         id="path979"
         d="m 175.942,713.438 2.099,-1.996"
         stroke-linejoin="round"
         stroke="#000000"
         stroke-opacity="1"
         stroke-linecap="round"
         stroke-width="3"
         fill="none" />
      <path
         id="path981"
         d="m 135.221,674.186 7.729,6.345 4.485,3.682 8.086,-5.883 8.087,-5.882 8.087,-5.883 8.086,-5.883 3.318,-2.414 5.634,-8.262 5.634,-8.261 5.634,-8.262 5.634,-8.262 2.489,-3.65"
         stroke-linejoin="round"
         stroke="#000000"
         stroke-opacity="1"
         stroke-linecap="round"
         stroke-width="3"
         fill="none" />
      <path
         id="path983"
         d="m 223.211,658.129 -4.15,4.691 -0.398,-1.5 -2.563,-9.666 -2.563,-9.666 -2.563,-9.666 -1.986,-7.491 -0.864,-3.26 -6.958,7.182 -6.959,7.183 -6.958,7.182 -6.958,7.182 -6.958,7.182 -6.959,7.182 -6.958,7.182 -6.958,7.182 -5.023,5.185 6.982,7.158 6.983,7.159 6.982,7.158 6.983,7.159 0.577,0.591"
         stroke-linejoin="round"
         stroke="#000000"
         stroke-opacity="1"
         stroke-linecap="round"
         stroke-width="3"
         fill="none" />
      <path
         id="path985"
         d="m 538.445,373.438 -1.325,9.911 -0.851,6.372 -1.325,9.912 -1.325,9.912 -1.325,9.912 -1.325,9.911 -1.325,9.912 -1.325,9.912 -1.325,9.912 -1.325,9.912 -1.325,9.911 -1.325,9.912 -1.063,7.95"
         stroke-linejoin="round"
         stroke="#000000"
         stroke-opacity="1"
         stroke-linecap="round"
         stroke-width="3"
         fill="none" />
      <path
         id="path987"
         d="m 427.498,497.789 1.822,-0.569 9.778,-2.097 1.951,-0.418 v 0 l 8.029,-1.722 v 0 l 9.778,-2.096 1.505,-0.323 v 0 l 6.604,-1.416 v 0 l 9.904,1.376 2.352,0.327 v 0 l 9.905,1.376 9.905,1.376 5.524,0.768 v 0 l 7.435,1.033 v 0 l 9.966,1.385 v 0 l 9.817,1.211 v 0 l 9.925,1.225 9.925,1.225 9.924,1.224 9.925,1.225 9.925,1.225 9.925,1.225 9.228,1.139 v 0 l 9.925,1.224 0.494,0.061 v 0 l 6.386,0.46 9.974,0.718 8.708,0.627 -9.975,-0.718 -8.707,-0.627"
         stroke-linejoin="round"
         stroke="#000000"
         stroke-opacity="1"
         stroke-linecap="round"
         stroke-width="3"
         fill="none" />
      <path
         id="path989"
         d="m 610.969,507.773 1.48,-9.889 1.48,-9.89 1.48,-9.89 1.48,-9.89 1.48,-9.89 1.48,-9.89 1.48,-9.89 1.177,-7.869 1.48,-9.89 1.48,-9.89 1.48,-9.89 1.48,-9.889 1.138,-7.6"
         stroke-linejoin="round"
         stroke="#000000"
         stroke-opacity="1"
         stroke-linecap="round"
         stroke-width="3"
         fill="none" />
      <path
         id="path991"
         d="m 653.868,382.266 -9.987,0.514 -9.987,0.513 -4.33,0.223 -9.94,-1.099 -9.939,-1.1 -9.94,-1.099 -9.939,-1.1 -9.939,-1.099 -9.94,-1.099 -9.939,-1.1 -9.939,-1.099 -9.94,-1.099 -1.664,-0.184 -9.935,-1.138 -9.935,-1.137 -9.935,-1.138 -9.935,-1.137 -9.935,-1.138 -9.935,-1.137 -9.935,-1.138 -6.179,-0.707 -9.868,-1.618 -9.869,-1.617 -6.418,-1.052"
         stroke-linejoin="round"
         stroke="#000000"
         stroke-opacity="1"
         stroke-linecap="round"
         stroke-width="3"
         fill="none" />
      <path
         id="path993"
         d="m 673.517,1992.261 9.438,1.203"
         stroke-linejoin="round"
         stroke="#000000"
         stroke-opacity="1"
         stroke-linecap="round"
         stroke-width="3"
         fill="none" />
      <path
         id="path995"
         d="m 817.281,1922.581 -0.176,-0.234"
         stroke-linejoin="round"
         stroke="#000000"
         stroke-opacity="1"
         stroke-linecap="round"
         stroke-width="3"
         fill="none" />
      <path
         id="path997"
         d="m 869.865,1886.062 -8.24,5.667 -8.239,5.667 -8.24,5.666 -8.24,5.667 -8.239,5.666 -8.24,5.667 -3.322,2.285 -8.991,4.378 -8.991,4.377 -8.991,4.378 -8.991,4.378 -8.991,4.378 -8.991,4.377 -8.99,4.378 -8.991,4.378 -8.991,4.377 -8.991,4.378 -8.991,4.378 -8.991,4.377 -8.991,4.378 -8.991,4.378 -8.99,4.378 -8.725,4.248 -10,-0.047 -10,-0.047 -10,-0.047 -10,-0.047 -10,-0.047 -9.999,-0.047 -9.686,-0.045"
         stroke-linejoin="round"
         stroke="#000000"
         stroke-opacity="1"
         stroke-linecap="round"
         stroke-width="3"
         fill="none" />
      <path
         id="path999"
         d="m 231.612,673.7 2.85,-4.417 5.423,-8.402 3.4,-5.268 -0.199,-6.249 -7.704,-6.376 -7.703,-6.376 -7.704,-6.376 -7.704,-6.376 -1.612,-1.334 -0.834,1.15"
         stroke-linejoin="round"
         stroke="#000000"
         stroke-opacity="1"
         stroke-linecap="round"
         stroke-width="3"
         fill="none" />
      <path
         id="path1001"
         d="m 391.228,804.577 0.016,1.342 0.042,3.503 0.002,0.238 0.119,9.999 0.118,9.999 0.118,10 0.119,9.999 0.118,9.999 0.118,10 0.119,9.999 0.118,9.999 0.118,9.999 0.119,10 0.118,9.999 0.118,9.999 0.119,10 0.118,9.999 0.118,9.999 0.119,9.999 0.118,10 0.118,9.999 0.119,9.999 0.12,10.13 -0.5,9.988 -0.5,9.987 -0.499,9.988 -0.5,9.987 -0.5,9.988 -0.5,9.987 -0.499,9.988 -0.5,9.987 -0.5,9.988 -0.499,9.987 -0.5,9.988 -0.5,9.987 -0.5,9.988 -0.499,9.987 -0.5,9.988 -0.5,9.987 -0.499,9.988 -0.5,9.987 -0.51,10.195"
         stroke-linejoin="round"
         stroke="#000000"
         stroke-opacity="1"
         stroke-linecap="round"
         stroke-width="3"
         fill="none" />
      <path
         id="path1003"
         d="m 210.659,622.526 6.234,7.819 6.233,7.82 3.616,4.536"
         stroke-linejoin="round"
         stroke="#000000"
         stroke-opacity="1"
         stroke-linecap="round"
         stroke-width="3"
         fill="none" />
      <path
         id="path1005"
         d="m 226.038,643.737 0.704,-1.036 7.883,6.153 5.997,4.68 0.014,0.011 2.649,2.068"
         stroke-linejoin="round"
         stroke="#000000"
         stroke-opacity="1"
         stroke-linecap="round"
         stroke-width="3"
         fill="none" />
      <path
         id="path1007"
         d="m 629.953,1160.805 -2.846,-9.587 -2.846,-9.586 -2.846,-9.587 -2.846,-9.586 -2.846,-9.587 -2.846,-9.586 -2.846,-9.587 -0.315,-1.061 -0.343,-1.156 -2.846,-9.586 -0.55,-1.853 -2.846,-9.586 -2.846,-9.587 -2.846,-9.586 -2.845,-9.587 -2.847,-9.586 -2.845,-9.587 -2.846,-9.586 -1.47,-4.949 1.214,-9.926 1.214,-9.926 1.214,-9.926 1.213,-9.926 1.214,-9.926 1.214,-9.926 1.213,-9.927 1.214,-9.926 1.214,-9.926 1.214,-9.926 1.213,-9.926 1.214,-9.926 1.214,-9.926 1.213,-9.926 1.214,-9.926 1.214,-9.926 1.214,-9.926 1.213,-9.926 1.214,-9.926 1.214,-9.926 1.213,-9.926 1.214,-9.927 0.548,-4.477 -9.922,-1.254 -9.921,-1.253 -9.921,-1.254 -9.921,-1.253 -9.921,-1.254 -9.921,-1.253 -9.921,-1.254 -9.921,-1.253 -9.922,-1.254 -9.921,-1.253 -9.921,-1.254 -9.921,-1.253 -7.369,-0.931 -1.988,-0.251 0.117,2.189 0.534,9.986 0.533,9.985 0.534,9.986 0.534,9.986 0.533,9.986 0.534,9.985 0.533,9.986 0.534,9.986 0.533,9.986 0.534,9.985 0.534,9.986 0.533,9.986 0.534,9.986 0.533,9.985 0.534,9.986 0.533,9.986 0.534,9.986 0.534,9.985 0.533,9.986 0.534,9.986 0.533,9.986 0.534,9.985 0.534,9.986 0.437,8.184 0.129,10 0.089,6.958 0.129,9.999 0.129,9.999 0.129,9.999 0.129,9.999 0.128,9.999 0.129,9.999 0.129,10 0.129,9.999 0.074,5.774 0.032,2.488 0.129,10 0.129,9.999 0.129,9.999 0.129,9.999 0.128,9.999 0.129,9.999 0.129,10 0.061,4.742"
         stroke-linejoin="round"
         stroke="#000000"
         stroke-opacity="1"
         stroke-linecap="round"
         stroke-width="3"
         fill="none" />
      <path
         id="path1009"
         d="m 412.053,1010.841 9.997,-0.223 9.998,-0.224 9.997,-0.223 9.998,-0.223 9.997,-0.224 9.998,-0.223 9.997,-0.224 9.998,-0.223 4.219,-0.095 9.999,-0.109 4.877,-0.054 9.48,-0.104 10,-0.11 9.999,-0.11 9.999,-0.11 10,-0.11 9.999,-0.109 10,-0.11 3.981,-0.044 9.598,2.808 4.407,1.29"
         stroke-linejoin="round"
         stroke="#000000"
         stroke-opacity="1"
         stroke-linecap="round"
         stroke-width="3"
         fill="none" />
      <path
         id="path1011"
         d="m 411.014,803.529 9.022,-4.313 9.023,-4.313 9.022,-4.313 8.101,-3.873 9.022,-4.313 9.022,-4.313 9.023,-4.312 9.022,-4.313 1.154,-0.552 2.058,-0.821 9.289,-3.704 9.288,-3.705 9.289,-3.704 9.288,-3.705 9.289,-3.704 9.288,-3.704 9.289,-3.705 9.289,-3.704 6.07,-2.421"
         stroke-linejoin="round"
         stroke="#000000"
         stroke-opacity="1"
         stroke-linecap="round"
         stroke-width="3"
         fill="none" />
      <path
         id="path1013"
         d="m 496.916,624.892 -0.941,9.956 -0.94,9.956 -0.941,9.955 -0.94,9.956 -0.941,9.956 -0.59,6.243 -0.08,0.857"
         stroke-linejoin="round"
         stroke="#000000"
         stroke-opacity="1"
         stroke-linecap="round"
         stroke-width="3"
         fill="none" />
      <path
         id="path1015"
         d="m 603.429,639.202 -9.999,-0.146 -9.999,-0.146 -9.999,-0.146 -9.362,-0.137 -9.999,-0.146 -9.999,-0.146 -8.212,-0.12 9.126,-4.09 9.125,-4.089 9.126,-4.09 9.125,-4.089 9.126,-4.09 9.125,-4.09 9.126,-4.089 9.658,-4.328 1.184,-0.531"
         stroke-linejoin="round"
         stroke="#000000"
         stroke-opacity="1"
         stroke-linecap="round"
         stroke-width="3"
         fill="none" />
      <path
         id="path1017"
         d="m 411.014,803.529 0.05,9.999 0.05,10 0.051,10 0.05,10 0.05,10 0.05,10 0.05,10 0.05,10 0.05,9.999 0.05,10 0.05,10 0.05,10 0.051,10 0.05,10 0.05,10 0.05,10 0.05,9.999 0.05,10 0.05,10 0.05,10 0.037,7.315 -0.68,9.977 -0.68,9.977 -0.68,9.977 -0.68,9.977 -0.68,9.977 -0.68,9.977 -0.679,9.976 -0.68,9.977 -0.68,9.977 -0.68,9.977 -0.68,9.977 -0.68,9.977 -0.161,2.37 -0.097,1.415 -0.148,2.18"
         stroke-linejoin="round"
         stroke="#000000"
         stroke-opacity="1"
         stroke-linecap="round"
         stroke-width="3"
         fill="none" />
      <path
         id="path1019"
         d="m 417.478,794.423 -4.331,6.101 -2.133,3.005 -2.43,-1.098 -5.449,-2.46"
         stroke-linejoin="round"
         stroke="#000000"
         stroke-opacity="1"
         stroke-linecap="round"
         stroke-width="3"
         fill="none" />
      <path
         id="path1021"
         d="m 393.657,1009.776 9.983,0.578 8.413,0.487"
         stroke-linejoin="round"
         stroke="#000000"
         stroke-opacity="1"
         stroke-linecap="round"
         stroke-width="3"
         fill="none" />
      <path
         id="path1023"
         d="m 589.281,1265.59 -7.981,-6.025 -7.981,-6.025 -7.981,-6.025 -4.557,-3.441 -7.981,-6.025 -7.981,-6.025 -7.981,-6.025 -7.981,-6.026 -7.981,-6.025 -7.981,-6.025 -7.981,-6.025 -7.981,-6.026 -7.176,-5.417 -0.078,-0.058 -3.157,-2.384"
         stroke-linejoin="round"
         stroke="#000000"
         stroke-opacity="1"
         stroke-linecap="round"
         stroke-width="3"
         fill="none" />
      <path
         id="path1025"
         d="m 486.522,1188.013 -0.559,3.005 -0.013,0.072 -1.828,9.831 -1.827,9.832 -1.828,9.832 -1.827,9.831 -1.828,9.832 -1.828,9.831 -0.124,0.669 -1.827,9.832 -1.828,9.831 -1.827,9.832 -1.828,9.832 -1.827,9.831 -1.828,9.832 -1.827,9.831 -1.828,9.832 -1.832,9.856 -1.421,9.899 -0.485,3.382 -1.421,9.899 -1.421,9.898 -1.42,9.899 -1.421,9.898 -1.42,9.899 -1.421,9.898 -1.421,9.899 -1.42,9.899 -1.421,9.898 -1.421,9.899 -1.42,9.898 -1.421,9.899 -1.421,9.898 -1.42,9.899 -1.421,9.899 -1.421,9.898 -1.42,9.899 -1.421,9.898 -0.531,3.702 -2.655,9.641 -2.654,9.642 -2.654,9.641 -2.654,9.641 -2.654,9.642 -2.655,9.641 -2.654,9.641 -2.654,9.642 -2.654,9.641 -2.654,9.641 -2.655,9.642 -2.654,9.641 -2.654,9.641 -2.654,9.642 -2.655,9.641 -2.931,10.65 -3.144,9.493 -3.143,9.493 -3.144,9.493 -3.143,9.493 -3.144,9.493 -3.143,9.493 -3.144,9.493 -3.143,9.493 -3.144,9.493 -3.143,9.493 -3.144,9.494 -3.143,9.493 -3.144,9.493 -3.143,9.493 -3.144,9.493 -3.143,9.493 -3.144,9.493 -3.143,9.493 -3.144,9.493 -3.143,9.493 -3.144,9.493 -3.143,9.493 -3.144,9.493 -1.144,3.456 -7.133,-7.008 -7.133,-7.009 -7.133,-7.008 -7.134,-7.008 -7.133,-7.009 -7.133,-7.008 -7.133,-7.009 -7.133,-7.008 -3.811,-3.744"
         stroke-linejoin="round"
         stroke="#000000"
         stroke-opacity="1"
         stroke-linecap="round"
         stroke-width="3"
         fill="none" />
      <path
         id="path1027"
         d="m 359.058,1313.551 9.681,2.505 9.681,2.505 9.681,2.505 9.682,2.505 9.681,2.505 9.681,2.505 9.681,2.505 9.681,2.505 9.681,2.505 6.048,1.564 6.172,1.597 9.762,2.17 9.761,2.17 9.762,2.17 9.762,2.17 9.761,2.17 9.762,2.17 9.762,2.17 9.762,2.17 9.761,2.17 9.762,2.17 2.955,0.657"
         stroke-linejoin="round"
         stroke="#000000"
         stroke-opacity="1"
         stroke-linecap="round"
         stroke-width="3"
         fill="none" />
      <path
         id="path1029"
         d="m 610.811,598.921 -0.23,5.808 1.996,9.799 1.996,9.799 1.996,9.798 1.996,9.799 1.997,9.799 1.996,9.799 1.996,9.798 1.996,9.799 1.996,9.799 1.997,9.799 1.996,9.798 1.996,9.799 1.996,9.799 1.996,9.798 1.997,9.799 1.996,9.799 1.996,9.799 1.574,7.725 -9.845,1.755 -9.845,1.754 -9.845,1.755 -4.719,0.841 -0.576,-9.984 -0.575,-9.983 -0.575,-9.984 -0.575,-9.983 -0.575,-9.984 -0.575,-9.983 -0.575,-9.984 -0.575,-9.983 -0.575,-9.983 -0.576,-9.984 -0.575,-9.983 -0.575,-9.984 -0.575,-9.983 -0.575,-9.984 -0.355,-6.167 -3.617,9.323 -3.617,9.323 -3.617,9.323 -3.617,9.323 -3.616,9.323 -3.617,9.323 -3.617,9.323 -3.617,9.323 -3.617,9.323 -3.617,9.323 -1.398,3.605 -8.011,-5.985 -8.012,-5.985 -8.011,-5.985 -8.012,-5.984 -8.011,-5.985 -8.011,-5.985 -8.012,-5.985 -8.011,-5.985 -2.475,-1.849 -2.663,-1.989 -4.064,-3.036"
         stroke-linejoin="round"
         stroke="#000000"
         stroke-opacity="1"
         stroke-linecap="round"
         stroke-width="3"
         fill="none" />
      <path
         id="path1031"
         d="m 406.112,1135.906 -3.681,9.297 -3.682,9.298 -3.682,9.298 -3.681,9.297 -3.064,7.737 9.974,0.729 9.973,0.729 9.973,0.729 9.974,0.73 9.973,0.729 9.973,0.729 9.974,0.729 9.973,0.73 9.974,0.729 8.439,0.617"
         stroke-linejoin="round"
         stroke="#000000"
         stroke-opacity="1"
         stroke-linecap="round"
         stroke-width="3"
         fill="none" />
      <path
         id="path1033"
         d="m 489.679,1190.397 8.891,-1.488 0.071,-0.015 9.779,-2.092 5.829,-1.246 2.464,-0.528 9.779,-2.092 9.779,-2.091 9.779,-2.092 9.778,-2.092 9.779,-2.092 6.723,-1.438 9.778,-2.092 9.779,-2.092 9.779,-2.091 9.779,-2.092 9.778,-2.092 8.73,-1.867 0.042,0.012 0.29,0.085"
         stroke-linejoin="round"
         stroke="#000000"
         stroke-opacity="1"
         stroke-linecap="round"
         stroke-width="3"
         fill="none" />
      <path
         id="path1035"
         d="m 243.968,783.138 -0.421,-1.647"
         stroke-linejoin="round"
         stroke="#000000"
         stroke-opacity="1"
         stroke-linecap="round"
         stroke-width="3"
         fill="none" />
      <path
         id="path1037"
         d="m 243.968,783.138 -0.293,-1.56"
         stroke-linejoin="round"
         stroke="#000000"
         stroke-opacity="1"
         stroke-linecap="round"
         stroke-width="3"
         fill="none" />
      <path
         id="path1039"
         d="m 243.968,783.138 2.511,0.341"
         stroke-linejoin="round"
         stroke="#000000"
         stroke-opacity="1"
         stroke-linecap="round"
         stroke-width="3"
         fill="none" />
      <path
         id="path1041"
         d="m 304.068,758.265 -1.853,-9.826 -1.854,-9.827 -0.928,-4.922 -2.64,-2.617"
         stroke-linejoin="round"
         stroke="#000000"
         stroke-opacity="1"
         stroke-linecap="round"
         stroke-width="3"
         fill="none" />
      <path
         id="path1043"
         d="m 241.984,780.432 1.984,2.706 8.069,5.906 8.07,5.906 8.07,5.906 8.07,5.906 8.069,5.906 8.07,5.905 8.07,5.906 8.07,5.906 6.127,4.485 9.586,-2.847 9.587,-2.846 9.586,-2.847 9.586,-2.847 9.587,-2.846 8.424,-2.502 9.226,-3.856 9.227,-3.856 1.826,-0.763"
         stroke-linejoin="round"
         stroke="#000000"
         stroke-opacity="1"
         stroke-linecap="round"
         stroke-width="3"
         fill="none" />
      <path
         id="path1045"
         d="m 289.778,1973.524 3.664,-9.305 3.664,-9.304 3.664,-9.305 3.664,-9.304 3.663,-9.305 3.664,-9.305 2.448,-6.216"
         stroke-linejoin="round"
         stroke="#000000"
         stroke-opacity="1"
         stroke-linecap="round"
         stroke-width="3"
         fill="none" />
      <path
         id="path1047"
         d="m 364.605,1942.602 -8.509,-5.254 -8.508,-5.255 -8.508,-5.254 -8.509,-5.254 -8.508,-5.255 -7.854,-4.85 -9.487,-3.161 -9.488,-3.16 -9.487,-3.161 -9.487,-3.16 -9.488,-3.161 -9.487,-3.161 -9.487,-3.16 -9.488,-3.161 -9.487,-3.161 -9.488,-3.16 -9.487,-3.161 -9.487,-3.161 -9.488,-3.16 -2.774,-0.925"
         stroke-linejoin="round"
         stroke="#000000"
         stroke-opacity="1"
         stroke-linecap="round"
         stroke-width="3"
         fill="none" />
      <path
         id="path1049"
         d="m 554.445,1376.339 3.347,9.424 3.346,9.423 3.347,9.423 3.347,9.424 3.347,9.423 3.347,9.423 3.347,9.423 3.346,9.424 3.347,9.423 3.347,9.423 3.347,9.424 3.347,9.423 3.347,9.423 3.346,9.424 3.347,9.423 2.161,6.084 4.188,9.08 4.189,9.081 4.188,9.081 4.189,9.08 4.188,9.081 4.188,9.08 4.189,9.081 4.188,9.081 4.188,9.08 4.189,9.081 4.188,9.08 4.189,9.081 4.188,9.081 4.188,9.08 4.189,9.081 1.523,3.302 4.473,8.944 4.473,8.944 4.473,8.944 4.473,8.944 4.473,8.943 4.473,8.944 4.473,8.944 4.473,8.944 4.472,8.944 4.473,8.944 4.473,8.944 4.473,8.943 4.473,8.944 4.473,8.944 4.473,8.944 4.473,8.944 4.473,8.944 4.473,8.944 4.473,8.944 4.473,8.943 4.473,8.944 4.473,8.944 4.473,8.944 1.544,3.087 -10,-0.015 -10,-0.014 -10,-0.015 -10,-0.015 -10,-0.015 -10,-0.014 -10,-0.015 -7.621,-0.011"
         stroke-linejoin="round"
         stroke="#000000"
         stroke-opacity="1"
         stroke-linecap="round"
         stroke-width="3"
         fill="none" />
      <path
         id="path1051"
         d="m 673.517,1992.261 -0.475,-9.989 -0.475,-9.989 -0.475,-9.988 -0.475,-9.989 -0.475,-9.989 -0.475,-9.989 -0.166,-3.497 8.798,-4.752 8.799,-4.752 8.799,-4.752 8.799,-4.752 8.798,-4.752 8.799,-4.753 8.799,-4.752 8.799,-4.752 8.799,-4.752 8.798,-4.752 8.799,-4.752 8.292,-4.478"
         stroke-linejoin="round"
         stroke="#000000"
         stroke-opacity="1"
         stroke-linecap="round"
         stroke-width="3"
         fill="none" />
      <path
         id="path1053"
         d="m 181.68,1855.343 4.137,9.104 2.282,5.02 9.647,-2.632 9.647,-2.632 9.648,-2.632 9.647,-2.632 9.647,-2.632 9.648,-2.633 7.35,-2.005"
         stroke-linejoin="round"
         stroke="#000000"
         stroke-opacity="1"
         stroke-linecap="round"
         stroke-width="3"
         fill="none" />
      <path
         id="path1055"
         d="m 817.105,1922.347 -6.369,-7.71 -6.369,-7.709 -6.369,-7.71 -6.369,-7.709 -6.369,-7.71 -6.369,-7.709 -3.312,-4.01 9.505,-3.106 9.505,-3.107 9.505,-3.106 9.506,-3.107 9.505,-3.106 9.505,-3.107 3.637,-1.189"
         stroke-linejoin="round"
         stroke="#000000"
         stroke-opacity="1"
         stroke-linecap="round"
         stroke-width="3"
         fill="none" />
      <path
         id="path1057"
         d="m 633.828,1173.451 -9.951,0.984 -9.952,0.984 -9.951,0.983 -9.952,0.984 -9.951,0.984 -9.952,0.984 -9.951,0.983 -9.952,0.984 -9.951,0.984 -9.952,0.983 -9.951,0.984 -6.716,0.664 -0.933,0.092"
         stroke-linejoin="round"
         stroke="#000000"
         stroke-opacity="1"
         stroke-linecap="round"
         stroke-width="3"
         fill="none" />
      <path
         id="path1059"
         d="m 758.241,1627.721 -9.258,3.781 -9.258,3.781 -9.258,3.78 -9.258,3.781 -9.257,3.781 -9.258,3.78 -9.258,3.781 -9.258,3.781 -9.258,3.78 -3.763,1.537 -9.091,4.167 -9.09,4.167 -9.091,4.166 -9.09,4.167 -9.091,4.167 -9.091,4.166 -8.571,3.929"
         stroke-linejoin="round"
         stroke="#000000"
         stroke-opacity="1"
         stroke-linecap="round"
         stroke-width="3"
         fill="none" />
      <path
         id="path1061"
         d="m 606.808,1523.773 9.51,-3.092 9.51,-3.091 9.51,-3.092 9.51,-3.092 9.511,-3.091 9.51,-3.092 9.51,-3.091 9.51,-3.092 7.444,-2.42"
         stroke-linejoin="round"
         stroke="#000000"
         stroke-opacity="1"
         stroke-linecap="round"
         stroke-width="3"
         fill="none" />
      <path
         id="path1063"
         d="m 430.399,1534.414 -9.837,1.801 -9.836,1.8 -9.837,1.8 -9.837,1.801 -9.836,1.801 -9.837,1.8 -9.836,1.801 -9.837,1.8 -9.836,1.801 -4.297,0.786"
         stroke-linejoin="round"
         stroke="#000000"
         stroke-opacity="1"
         stroke-linecap="round"
         stroke-width="3"
         fill="none" />
      <path
         id="path1065"
         d="m 307.941,1660.423 9.387,3.446 9.388,3.446 9.387,3.446 9.388,3.446 9.387,3.446 9.388,3.446 9.387,3.445 9.388,3.446 4.613,1.694 9.6,2.799 9.6,2.8 9.6,2.8 9.6,2.8 9.6,2.799 9.6,2.8 9.6,2.8 9.6,2.8 1.095,0.319"
         stroke-linejoin="round"
         stroke="#000000"
         stroke-opacity="1"
         stroke-linecap="round"
         stroke-width="3"
         fill="none" />
      <path
         id="path1067"
         d="m 518.18,1494.091 9.482,3.175 9.482,3.176 9.483,3.176 9.482,3.175 9.482,3.176 9.483,3.176 9.482,3.175 9.482,3.176 9.483,3.176 3.287,1.101 -6.023,7.983 -6.023,7.982 -6.023,7.983 -6.022,7.983 -6.023,7.983 -6.023,7.982 -6.023,7.983 -6.023,7.983 -2.681,3.553"
         stroke-linejoin="round"
         stroke="#000000"
         stroke-opacity="1"
         stroke-linecap="round"
         stroke-width="3"
         fill="none" />
      <path
         id="path1069"
         d="m 636.037,509.578 1.387,-9.904 1.387,-9.903 1.387,-9.903 1.387,-9.904 1.387,-9.903 1.387,-9.903 1.387,-9.904 1.387,-9.903 1.387,-9.903 1.387,-9.904 1.387,-9.903 1.387,-9.903 1.187,-8.472 -9.949,-1.016 -9.948,-1.015 -9.948,-1.016 -9.948,-1.016 -9.949,-1.016 -9.948,-1.015 -9.948,-1.016 -9.949,-1.016 -9.948,-1.015 -9.948,-1.016 -9.948,-1.016 -9.949,-1.016 -9.948,-1.015 -9.948,-1.016 -9.949,-1.016 -9.948,-1.015 -9.948,-1.016 -9.948,-1.016 -9.949,-1.016 -9.948,-1.015 -9.948,-1.016 -4.455,-0.455"
         stroke-linejoin="round"
         stroke="#000000"
         stroke-opacity="1"
         stroke-linecap="round"
         stroke-width="3"
         fill="none" />
      <path
         id="path1071"
         d="m 503.625,1541.35 -9.956,-0.943 -9.955,-0.943 -9.956,-0.943 -9.955,-0.943 -9.955,-0.943 -9.956,-0.943 -9.955,-0.943 -3.538,-0.335 -7.131,-7.011 -7.131,-7.01 -7.132,-7.011 -7.131,-7.01 -7.131,-7.011 -7.131,-7.01 -7.131,-7.011 -7.131,-7.01 -7.131,-7.011 -7.131,-7.01 -7.131,-7.011 -1.731,-1.702"
         stroke-linejoin="round"
         stroke="#000000"
         stroke-opacity="1"
         stroke-linecap="round"
         stroke-width="3"
         fill="none" />
      <path
         id="path1073"
         d="m 462.721,364.768 0.341,9.994 0.341,9.994 0.341,9.994 0.334,9.798 0.341,9.994 0.341,9.994 0.341,9.994 0.341,9.995 0.341,9.994 0.341,9.994 0.341,9.994 0.046,1.342 v 0 l 0.341,9.995 0.113,3.304 -5.471,-1.473 v 0 l -9.656,-2.602 -1.504,-0.405"
         stroke-linejoin="round"
         stroke="#000000"
         stroke-opacity="1"
         stroke-linecap="round"
         stroke-width="3"
         fill="none" />
      <path
         id="path1075"
         d="m 429.941,360.481 -1.182,9.93 -1.182,9.93 -1.182,9.93 -1.182,9.93 -1.182,9.93 -1.181,9.93 -1.182,9.929 -1.182,9.93 -1.182,9.93 -1.182,9.93 -1.182,9.93 -0.323,2.715 -5.885,8.084 -5.886,8.085 -5.885,8.085 -6.026,8.278"
         stroke-linejoin="round"
         stroke="#000000"
         stroke-opacity="1"
         stroke-linecap="round"
         stroke-width="3"
         fill="none" />
      <path
         id="path1077"
         d="m 416.617,472.425 9.399,3.413 0.153,0.055 9.399,3.413 9.4,3.414 5.366,1.948"
         stroke-linejoin="round"
         stroke="#000000"
         stroke-opacity="1"
         stroke-linecap="round"
         stroke-width="3"
         fill="none" />
      <path
         id="path1079"
         d="m 406.109,504.473 3.115,-9.503 3.116,-9.502 3.116,-9.502 1.161,-3.541 4.56,8.9 1.882,3.674 4.559,8.9 1.702,3.321 v 0 0 l 8.585,-5.128 8.585,-5.128 3.844,-2.296 1.027,-9.947 1.028,-9.947 1.028,-9.947 1.027,-9.947 1.028,-9.947 1.028,-9.947 1.027,-9.947 0.894,-8.651 1.028,-9.947 1.028,-9.947 1.027,-9.947 1.028,-9.947 0.189,-1.832 9.938,1.116 9.937,1.117 9.938,1.117 9.937,1.116 9.937,1.117 9.938,1.117 9.937,1.116 9.938,1.117 9.937,1.117 9.938,1.116 9.937,1.117 9.938,1.117 9.937,1.117 9.938,1.116 9.937,1.117 9.937,1.117 7.844,0.881"
         stroke-linejoin="round"
         stroke="#000000"
         stroke-opacity="1"
         stroke-linecap="round"
         stroke-width="3"
         fill="none" />
      <path
         id="path1081"
         d="m 392.935,504.957 9.993,-0.368 3.181,-0.116 9.545,-2.983 1.008,-0.315 9.545,-2.983 1.291,-0.403"
         stroke-linejoin="round"
         stroke="#000000"
         stroke-opacity="1"
         stroke-linecap="round"
         stroke-width="3"
         fill="none" />
      <path
         id="path1083"
         d="m 441.937,559.802 v 0 l -9.924,-1.231 -1.79,-0.222"
         stroke-linejoin="round"
         stroke="#000000"
         stroke-opacity="1"
         stroke-linecap="round"
         stroke-width="3"
         fill="none" />
      <path
         id="path1085"
         d="m 460.361,490.564 -3.649,9.31 -0.481,1.228 -10e-4,0.001 -0.518,1.169"
         stroke-linejoin="round"
         stroke="#000000"
         stroke-opacity="1"
         stroke-linecap="round"
         stroke-width="3"
         fill="none" />
      <path
         id="path1087"
         d="m 440.499,360.481 h 10 10 8.827 v 0 -10 -10 -10 -10 -10 -10 -10 -10 -10 -10 -10 -5.834 l 0.503,-9.987 0.502,-9.988 0.503,-9.987 0.502,-9.987 0.503,-9.988 0.502,-9.987 0.503,-9.987 0.502,-9.988 0.502,-9.987 0.503,-9.988 0.502,-9.987 0.301,-5.982 h -10 -10 -10 -10 -10 -10 -8.159"
         stroke-linejoin="round"
         stroke="#000000"
         stroke-opacity="1"
         stroke-linecap="round"
         stroke-width="3"
         fill="none" />
      <path
         id="path1089"
         d="m 469.326,244.647 h -10 -10 -10 -10 -10 -10 -8.16"
         stroke-linejoin="round"
         stroke="#000000"
         stroke-opacity="1"
         stroke-linecap="round"
         stroke-width="3"
         fill="none" />
      <path
         id="path1091"
         d="m 401.166,244.647 0.503,-9.987 0.502,-9.988 0.503,-9.987 0.502,-9.987 0.503,-9.988 0.503,-9.987 0.502,-9.987 0.503,-9.988 0.502,-9.987 0.503,-9.988 0.502,-9.987 0.301,-5.982 h 10 10 10 10 10 10 8.159"
         stroke-linejoin="round"
         stroke="#000000"
         stroke-opacity="1"
         stroke-linecap="round"
         stroke-width="3"
         fill="none" />
      <path
         id="path1093"
         d="m 469.326,360.481 h -10 -10 -8.827"
         stroke-linejoin="round"
         stroke="#000000"
         stroke-opacity="1"
         stroke-linecap="round"
         stroke-width="3"
         fill="none" />
      <path
         id="path1095"
         d="m 298.62,737.904 0.813,-4.214"
         stroke-linejoin="round"
         stroke="#000000"
         stroke-opacity="1"
         stroke-linecap="round"
         stroke-width="3"
         fill="none" />
      <path
         id="path1097"
         d="m 289.78,724.122 -7.101,-7.041 -7.102,-7.04 -7.102,-7.04 -7.102,-7.04 -7.102,-7.04 -7.101,-7.041 -7.102,-7.04 -5.606,-5.557"
         stroke-linejoin="round"
         stroke="#000000"
         stroke-opacity="1"
         stroke-linecap="round"
         stroke-width="3"
         fill="none" />
      <path
         id="path1099"
         d="m 309.881,826.466 4.772,8.404"
         stroke-linejoin="round"
         stroke="#000000"
         stroke-opacity="1"
         stroke-linecap="round"
         stroke-width="3"
         fill="none" />
      <path
         id="path1101"
         d="m 401.166,360.481 v -10 -10 -10 -10 -10 -10 -10 -10 -10 -10 -10 -5.834"
         stroke-linejoin="round"
         stroke="#000000"
         stroke-opacity="1"
         stroke-linecap="round"
         stroke-width="3"
         fill="none" />
      <path
         id="path1103"
         d="m 427.498,497.789 0.672,9.977 0.672,9.978 0.607,9.024"
         stroke-linejoin="round"
         stroke="#000000"
         stroke-opacity="1"
         stroke-linecap="round"
         stroke-width="3"
         fill="none" />
      <path
         id="path1105"
         d="m 437.104,567.349 1.854,9.827 1.406,7.456"
         stroke-linejoin="round"
         stroke="#000000"
         stroke-opacity="1"
         stroke-linecap="round"
         stroke-width="3"
         fill="none" />
      <path
         id="path1107"
         d="m 445.529,525.249 v 0 l 0.867,-9.962 0.866,-9.962 0.266,-3.053 1.55,-9.289"
         stroke-linejoin="round"
         stroke="#000000"
         stroke-opacity="1"
         stroke-linecap="round"
         stroke-width="3"
         fill="none" />
      <path
         id="path1109"
         d="m 436.566,360.481 -6.498,-1.065"
         stroke-linejoin="round"
         stroke="#000000"
         stroke-opacity="1"
         stroke-linecap="round"
         stroke-width="3"
         fill="none" />
      <path
         id="path1111"
         d="m 469.326,244.647 v 0"
         stroke-linejoin="round"
         stroke="#000000"
         stroke-opacity="1"
         stroke-linecap="round"
         stroke-width="3"
         fill="none" />
      <path
         id="path1113"
         d="m 429.941,360.481 h -10 -10 -8.775"
         stroke-linejoin="round"
         stroke="#000000"
         stroke-opacity="1"
         stroke-linecap="round"
         stroke-width="3"
         fill="none" />
      <path
         id="path1115"
         d="m 474.11,502.272 h 10 10 10 7.517 l 9.783,-2.074 9.782,-2.075 0.581,-0.123 v 0"
         stroke-linejoin="round"
         stroke="#000000"
         stroke-opacity="1"
         stroke-linecap="round"
         stroke-width="3"
         fill="none" />
      <path
         id="path1117"
         d="m 497.726,676.154 1.109,-2.379 4.223,-9.065 4.224,-9.064 4.224,-9.064 4.224,-9.064 4.223,-9.065 1.921,-4.12"
         stroke-linejoin="round"
         stroke="#000000"
         stroke-opacity="1"
         stroke-linecap="round"
         stroke-width="3"
         fill="none" />
      <path
         id="path1119"
         d="m 600.55,506.488 v 0 l -4.408,8.976 -4.408,8.976 -4.408,8.976 -2.03,4.134"
         stroke-linejoin="round"
         stroke="#000000"
         stroke-opacity="1"
         stroke-linecap="round"
         stroke-width="3"
         fill="none" />
      <path
         id="path1121"
         d="m 568.02,1332.965 9.792,-2.03 9.792,-2.029 9.791,-2.03 9.792,-2.03 9.792,-2.03 9.792,-2.03 9.792,-2.03 9.791,-2.03 9.792,-2.03 3.042,-0.631"
         stroke-linejoin="round"
         stroke="#000000"
         stroke-opacity="1"
         stroke-linecap="round"
         stroke-width="3"
         fill="none" />
    </g>
  </g>
</svg>
